<?xml version="1.0" encoding="utf-8"?>
<!-- Generator: Adobe Illustrator 18.0.0, SVG Export Plug-In . SVG Version: 6.00 Build 0)  -->
<!DOCTYPE svg PUBLIC "-//W3C//DTD SVG 1.1//EN" "http://www.w3.org/Graphics/SVG/1.1/DTD/svg11.dtd">
<svg version="1.1" id="Layer_1" xmlns="http://www.w3.org/2000/svg" xmlns:xlink="http://www.w3.org/1999/xlink" x="0px" y="0px"
	 viewBox="0 0 1920 1080" enable-background="new 0 0 1920 1080" xml:space="preserve">
<g>
	<path fill="#FFFFFF" d="M988.7,459.4c0,0-0.1,0-0.2,0.1c-0.1,0.1-0.3,0.2-0.6,0.4c-0.2,0.2-0.5,0.4-0.8,0.7
		c-0.1,0.1-0.3,0.3-0.5,0.5c-0.1,0.2-0.3,0.4-0.4,0.6c-0.3,0.4-0.6,0.9-0.9,1.4c-0.3,0.5-0.6,1.1-0.8,1.6c-0.3,0.6-0.6,1.2-0.8,1.8
		c-0.3,0.6-0.6,1.2-0.9,1.9c-0.2,0.3-0.3,0.6-0.5,0.9c-0.2,0.3-0.4,0.6-0.5,0.9c-0.2,0.3-0.4,0.6-0.6,0.9c-0.2,0.2-0.4,0.5-0.6,0.7
		c-0.3,0.4-0.5,0.9-0.7,1.5c-0.2,0.5-0.3,1-0.4,1.5c0,0.2-0.1,0.5-0.1,0.7c0,0.2,0,0.5,0,0.6c0,0.3,0.1,0.7,0.2,0.9
		c0.2,0.5,0.5,0.8,0.5,0.8l-0.1,0.1c0,0-0.3-0.2-0.7-0.7c-0.2-0.3-0.4-0.6-0.5-1.1c-0.1-0.2-0.1-0.4-0.1-0.7c0-0.2,0-0.5,0-0.8
		c0-0.5,0.1-1.1,0.3-1.7c0.2-0.6,0.4-1.2,0.9-1.9c0.2-0.2,0.4-0.5,0.7-0.7c0.2-0.2,0.4-0.4,0.6-0.7c0.2-0.3,0.4-0.5,0.6-0.8
		c0.2-0.3,0.3-0.6,0.5-0.9c0.3-0.6,0.6-1.2,1-1.8c0.3-0.6,0.6-1.2,1-1.7c0.3-0.6,0.6-1.1,1-1.6c0.3-0.5,0.6-1,1-1.4
		c0.2-0.2,0.3-0.4,0.5-0.6c0.2-0.2,0.4-0.3,0.5-0.4c0.3-0.3,0.6-0.5,0.9-0.6c0.2-0.2,0.5-0.3,0.6-0.3
		C988.6,459.3,988.6,459.3,988.7,459.4L988.7,459.4z"/>
</g>
<g>
	<path fill="#FFFFFF" d="M971.2,481.9c0,0,0.2,0.6,0.3,1.6c0.1,0.5,0.2,1.2,0.2,1.9c0,0.4,0,0.8-0.1,1.2c-0.1,0.4-0.2,0.8-0.3,1.3
		c-0.3,0.9-0.6,1.8-0.9,2.8c-0.3,1-0.9,2-1.2,3c-0.3,1-0.1,2.2,0.1,3.4c0.2,1.2,0.3,2.4,0.5,3.6c0.3,2.4,0.6,4.8,0.9,7.1
		c0.1,1.1,0.3,2.2,0.3,3.3c0,1.1,0.1,2.1-0.2,3c-0.2,1-0.6,1.7-0.8,2.4c-0.3,0.7-0.5,1.3-0.8,1.8c-0.2,0.5-0.5,0.8-0.8,1
		c-0.3,0.2-0.4,0.2-0.4,0.2l0-0.1c0,0,0.1-0.1,0.3-0.3c0.2-0.2,0.4-0.5,0.5-1c0.2-0.5,0.3-1.1,0.5-1.8c0.2-0.7,0.5-1.5,0.6-2.3
		c0.1-0.9,0.1-1.8,0-2.8c-0.1-1-0.3-2.1-0.4-3.2c-0.1-1.1-0.2-2.3-0.4-3.5c-0.1-1.2-0.2-2.4-0.3-3.6c-0.1-1.2-0.2-2.4-0.4-3.6
		c-0.1-1.2-0.3-2.4,0.1-3.6c0.2-0.6,0.5-1,0.7-1.6c0.2-0.5,0.5-1,0.7-1.4c0.4-1,0.7-1.9,1-2.7c0.3-0.9,0.5-1.7,0.5-2.4
		c0-0.7,0-1.4-0.1-1.9C971.2,482.5,971.1,481.9,971.2,481.9L971.2,481.9z"/>
</g>
<g>
	<path fill="#FFFFFF" d="M971.6,485.1c0.7-0.5,1.4-1,2-1.6c0.3-0.3,0.6-0.6,1-0.9l0.9-0.9c0.3-0.3,0.6-0.6,0.9-1
		c0.3-0.3,0.5-0.7,0.8-1c0.2-0.4,0.5-0.7,0.7-1.1c0.2-0.4,0.4-0.8,0.5-1.2c0.2-0.4,0.3-0.8,0.4-1.2c0.1-0.4,0.1-0.8,0.1-1.3l0.1-2.6
		l0-2.6c0-0.4,0-0.9,0.1-1.3l0.1-1.3l0.4,0.2c-0.5,0.4-1,0.7-1.5,1l-0.8,0.5c-0.3,0.2-0.6,0.3-0.9,0.4c-1.2,0.3-2.4,0.5-3.6,0.8
		l-1.8,0.3l-0.4,0.1c-0.1,0-0.2,0-0.2,0l-0.2,0.1c-0.3,0.1-0.5,0.2-0.8,0.4c-1,0.6-1.9,1.3-2.8,2.1c-0.9,0.8-1.7,1.6-2.6,2.5
		c-0.8,0.9-1.6,1.8-2.5,2.6c-0.9,0.9-2.2,1.4-2.9,2.2l-1.4,1.2c-0.5,0.4-1,0.8-1.4,1.2l-1.4,1.2c-0.4,0.4-0.8,0.9-1.2,1.3
		c-0.4,0.4-0.8,0.9-1.2,1.3c-0.4,0.5-0.8,0.9-1.1,1.4l-0.5,0.7l-0.2,0.4c0,0.1-0.1,0.3-0.2,0.4c-0.2,0.6-0.5,1.1-0.7,1.7
		c-0.2,0.6-0.4,1.1-0.5,1.7l-0.4,1.7l-0.3,1.8l-0.1,0.4c0,0.1,0,0.3,0,0.4c0,0.3-0.1,0.6,0,0.9c0,1.1,0.2,2.3,0.5,3.5
		c0.3,1.2,0.6,2.3,1,3.4c0.4,1.1,1,2.2,1.6,3.2l-0.1,0.1c-0.6-1-1.4-2-1.9-3.1c-0.5-1.1-0.9-2.3-1.3-3.4c-0.3-1.2-0.6-2.4-0.7-3.7
		c0-0.3,0-0.6,0-0.9c0-0.2,0-0.3,0-0.5l0.1-0.5l0.3-1.8l0.4-1.8c0.1-0.6,0.3-1.2,0.5-1.8c0.2-0.6,0.4-1.1,0.7-1.7
		c0.1-0.2,0.1-0.2,0.2-0.4l0.3-0.4l0.5-0.8c0.3-0.5,0.8-1,1.1-1.5c0.4-0.5,0.8-1,1.2-1.4c0.4-0.4,0.8-0.9,1.3-1.3l1.4-1.2
		c0.5-0.4,0.9-0.8,1.4-1.1l1.4-1.2c1-0.9,2.1-1.3,2.9-2.1c1.7-1.6,3.3-3.5,5.2-5.1c0.9-0.8,1.9-1.5,3-2.2c0.3-0.2,0.6-0.3,0.9-0.4
		l0.2-0.1c0.1,0,0.2,0,0.3-0.1l0.4-0.1l1.8-0.3c1.2-0.2,2.4-0.4,3.5-0.7c0.3-0.1,0.5-0.2,0.8-0.3l0.8-0.4c0.5-0.3,1-0.6,1.5-1
		l0.5-0.3l0,0.5l-0.1,1.3c0,0.4-0.1,0.9-0.1,1.3l-0.1,2.6l-0.2,2.6c0,0.4-0.1,0.9-0.2,1.3c-0.1,0.4-0.2,0.9-0.4,1.3
		c-0.2,0.4-0.4,0.8-0.6,1.2c-0.2,0.4-0.5,0.7-0.7,1.1c-0.3,0.3-0.5,0.7-0.8,1c-0.3,0.3-0.6,0.6-0.9,1l-0.9,0.9
		c-0.3,0.3-0.7,0.6-1,0.9C973,484.2,972.3,484.7,971.6,485.1L971.6,485.1z"/>
</g>
<g>
	<path fill="#FFFFFF" d="M956.6,481.5c0,0,0.3-0.2,0.8-0.4c0.5-0.2,1.3-0.6,2.2-1c0.5-0.2,1-0.4,1.5-0.6c0.5-0.2,1.1-0.4,1.7-0.6
		c0.6-0.2,1.2-0.4,1.8-0.6c0.6-0.2,1.3-0.4,1.9-0.5c0.7-0.1,1.3-0.4,2-0.4c0.3,0,0.7-0.1,1-0.1c0.3,0,0.7,0,1,0c0.3,0,0.6,0,1,0.1
		c0.3,0.1,0.6,0.1,0.8,0.2c0.3,0.1,0.6,0.3,0.9,0.4c0.2,0.1,0.5,0.3,0.7,0.4c0.8,0.6,1.4,1.3,1.7,1.8c0.3,0.5,0.5,0.8,0.5,0.8
		l-0.1,0.1c0,0-0.2-0.2-0.7-0.6c-0.2-0.2-0.5-0.4-0.8-0.6c-0.3-0.2-0.7-0.5-1.1-0.7c-0.2-0.1-0.4-0.2-0.7-0.3
		c-0.2-0.1-0.4-0.2-0.7-0.2c-0.3,0-0.6-0.1-0.9-0.2c-0.3,0-0.5,0-0.8,0c-0.3,0-0.6-0.1-0.9-0.1c-0.3,0-0.6,0-0.9,0
		c-0.6,0-1.3,0.2-1.9,0.2c-0.6,0.1-1.3,0.3-1.9,0.4c-0.6,0.1-1.2,0.3-1.8,0.5c-0.6,0.2-1.2,0.3-1.7,0.5c-0.5,0.2-1,0.4-1.5,0.5
		c-0.9,0.3-1.7,0.6-2.2,0.8C957,481.5,956.7,481.6,956.6,481.5L956.6,481.5z"/>
</g>
<g>
	<path fill="#FFFFFF" d="M960,509.8c0,0-1.1-0.4-2.7-0.7c-0.4-0.1-0.9-0.2-1.3-0.3c-0.5-0.1-1-0.2-1.5-0.2c-0.5-0.1-1-0.1-1.6-0.1
		c-0.5,0-1.1,0.1-1.6,0.2c-0.5,0.1-1,0.3-1.5,0.4c-0.5,0.2-1,0.4-1.4,0.6c-0.9,0.4-1.8,0.9-2.6,1.2c-0.8,0.3-1.4,0.6-1.9,0.8
		c-0.5,0.2-0.7,0.3-0.7,0.3l0-0.1c0,0,0.2-0.2,0.6-0.5c0.4-0.3,1-0.7,1.7-1.2c0.7-0.5,1.5-1,2.5-1.5c0.5-0.2,1-0.4,1.6-0.6
		c0.6-0.1,1.2-0.2,1.7-0.3c0.6,0,1.1-0.1,1.7-0.1c0.6,0,1.1,0.1,1.7,0.2c1.1,0.2,2,0.5,2.8,0.7C959,509.3,960,509.7,960,509.8
		L960,509.8z"/>
</g>
<g>
	<path fill="#FFFFFF" d="M951.3,515.5l-1.1-0.6c-0.3-0.2-0.7-0.3-1.1-0.5l-1.1-0.5c-0.3-0.2-0.7-0.3-1.1-0.4
		c-0.4-0.1-0.8-0.2-1.1-0.3c-0.4-0.1-0.7-0.2-1.1-0.3l-1.2-0.2l-1.2-0.1c-0.3,0-0.8,0-1.2,0c-0.4,0-0.8,0.1-1.1,0.1
		c-0.4,0-0.7,0.1-1.1,0.2c-0.4,0.1-0.7,0.2-1.1,0.3l-0.5,0.2c-0.1,0-0.3,0.1-0.5,0.2c-0.4,0.2-0.7,0.3-1.1,0.5
		c-0.3,0.2-0.7,0.3-1,0.5l-1,0.6l0,0c-0.5,0.2-0.9,0.4-1.4,0.5c-0.5,0.1-1,0.2-1.5,0.2l0-0.1c0.2-0.1,0.5-0.2,0.7-0.3
		c0.2-0.1,0.4-0.2,0.7-0.3c0.4-0.2,0.9-0.4,1.3-0.7l0,0c0.3-0.3,0.6-0.5,1-0.7c0.3-0.2,0.7-0.5,1-0.7c0.4-0.2,0.7-0.4,1.1-0.6
		c0.2-0.1,0.3-0.2,0.6-0.3l0.6-0.2c0.4-0.1,0.8-0.2,1.2-0.3c0.4-0.1,0.8-0.1,1.2-0.2c0.4,0,0.8-0.1,1.2-0.1c0.4,0,0.8,0,1.2,0
		l1.2,0.2l1.2,0.3c0.4,0.1,0.8,0.2,1.2,0.3c0.4,0.1,0.8,0.3,1.1,0.4c0.4,0.1,0.7,0.3,1.1,0.5l1,0.6c0.3,0.2,0.7,0.4,1,0.6
		L951.3,515.5L951.3,515.5z"/>
</g>
<g>
	<path fill="#FFFFFF" d="M944.8,520.1c-0.4-0.4-0.9-0.8-1.4-1.2c-0.5-0.4-1-0.5-1.7-0.6c-1.2-0.2-2.4-0.2-3.6-0.3
		c-0.6-0.1-1.2-0.1-1.8-0.2l-0.9-0.1c-0.3-0.1-0.6-0.2-0.9-0.2c-1.2-0.3-2.3-0.7-3.5-1c-0.6-0.2-1.2-0.3-1.7-0.4l-0.4-0.1
		c-0.1,0-0.3,0-0.4,0l-0.5,0l-0.4,0.1c-0.5,0.1-1.1,0.2-1.7,0.4c-0.6,0.2-1.1,0.4-1.7,0.6c-0.5,0.2-1.1,0.5-1.6,0.7
		c-0.3,0.1-0.5,0.3-0.8,0.4c-0.2,0.1-0.5,0.3-0.7,0.5c-0.5,0.3-1,0.7-1.4,1c-0.5,0.4-0.9,0.8-1.4,1.1l0.1-0.1
		c-0.2,0.4-0.5,0.7-0.8,1c-0.1,0.2-0.3,0.3-0.5,0.5c-0.2,0.1-0.3,0.3-0.6,0.4c-0.2,0.1-0.4,0.2-0.6,0.2l-0.6,0.2l-1.1,0.4l0-0.1
		l1.1-0.6c0.3-0.2,0.8-0.4,1-0.6c0.2-0.1,0.3-0.2,0.4-0.3c0.1-0.1,0.2-0.3,0.4-0.4c0.2-0.3,0.4-0.6,0.6-1l0,0l0.1-0.1
		c0.4-0.4,0.9-0.9,1.3-1.3c0.5-0.4,0.9-0.8,1.4-1.2c0.3-0.2,0.5-0.3,0.8-0.5c0.3-0.2,0.5-0.3,0.8-0.5c0.6-0.3,1.1-0.5,1.7-0.8
		c0.6-0.2,1.2-0.4,1.8-0.6c0.6-0.1,1.2-0.3,1.9-0.4l0.5,0l0.5,0c0.2,0,0.3,0,0.5,0l0.5,0.1c0.6,0.2,1.2,0.3,1.8,0.5
		c1.2,0.4,2.3,0.8,3.5,1.1c0.3,0.1,0.6,0.2,0.9,0.3l0.9,0.2c0.6,0.1,1.2,0.2,1.8,0.2c1.2,0.2,2.4,0.3,3.6,0.5
		c0.3,0.1,0.6,0.1,0.9,0.2c0.3,0.1,0.6,0.3,0.8,0.5C944,519.2,944.5,519.6,944.8,520.1L944.8,520.1z"/>
</g>
<g>
	<path fill="#FFFFFF" d="M1005.9,499c0,0,0.4-0.1,1-0.4c0.6-0.3,1.7-0.7,2.5-1.7c0.8-1.1,1.6-2.5,2.2-4.3c0.6-1.8,0.9-3.9,0.7-6.2
		c-0.1-2.3-0.5-4.8-1.3-7.3c-0.4-1.2-0.9-2.5-1.7-3.6c-0.4-0.6-0.8-1-1.3-1.6c-0.5-0.5-1-1-1.5-1.5c-2-2.1-4.1-4.2-5.7-6.9
		c-0.4-0.6-0.7-1.4-1-2.1c-0.3-0.7-0.5-1.4-0.8-2.2l-0.8-2.2c-0.2-0.7-0.5-1.5-0.7-2.2c-0.2-0.7-0.4-1.5-0.7-2.2
		c-0.3-0.7-0.7-1.3-1.1-1.9c-0.9-1.2-2-2.2-3.3-2.8c-0.6-0.3-1.3-0.5-2-0.5l-0.1,0l-0.1,0c0.1,0-0.3,0.1,0.2-0.1
		c-0.1,0.1,0.3-0.1,0.2-0.5c0-0.1,0-0.1,0,0l0.1,0.1l0.3,0.4l0.7,0.9c0.5,0.6,1,1.1,1.4,1.9c0,0.1,0.1,0.2,0.1,0.4
		c0,0.2,0,0.2,0,0.3l0,0.6c0,0.4-0.1,0.7-0.1,1.1c-0.1,0.7-0.2,1.5-0.3,2.2c-0.1,0.4-0.2,0.7-0.3,1.1c-0.2,0.4-0.3,0.7-0.8,1.1
		c-0.2,0.1-0.2,0.2-0.5,0.3c-0.2,0.1-0.4,0.2-0.6,0.2c-0.4,0.1-0.7,0.1-1.1,0.2c-0.1,0-0.3,0-0.4,0.1c-0.1,0-0.1,0-0.1,0
		c0,0,0,0,0,0c0-0.1,0,0,0,0.1c-0.2,0.3-0.4,0.6-0.5,0.8c-0.4,0.6-0.7,1.1-1,1.7c-0.1,0.3-0.3,0.5-0.4,0.8l-0.2,0.4l-0.1,0.4
		c-0.3,1.2-0.6,2.4-1.2,3.5c-0.6,1.1-1.4,1.9-2,2.7c-0.6,0.8-1.2,1.6-1.6,2.4c-0.2,0.4-0.4,0.8-0.5,1.2c-0.1,0.4-0.3,0.8-0.4,1.2
		c-0.3,0.8-0.6,1.4-0.7,2.1c-0.1,0.3-0.2,0.6-0.3,0.9c0,0.3-0.1,0.6-0.1,0.8c-0.1,0.5-0.1,1-0.1,1.3c0,0.4,0,0.6,0,0.8
		c0,0.2,0,0.3,0,0.3l-0.1,0c0,0,0-0.1,0-0.3c0-0.2,0-0.5,0-0.8c0-0.4,0-0.8,0-1.3c0-0.3,0-0.6,0.1-0.9c0.1-0.3,0.1-0.6,0.2-0.9
		c0.1-0.7,0.4-1.4,0.6-2.2c0.1-0.4,0.2-0.8,0.4-1.2c0.1-0.4,0.2-0.9,0.5-1.3c0.4-0.9,1-1.7,1.6-2.6c0.6-0.9,1.4-1.7,1.9-2.6
		c0.5-1,0.7-2.1,1-3.4c0.1-0.3,0.2-0.6,0.3-1c0.1-0.3,0.3-0.6,0.5-0.9c0.3-0.6,0.6-1.2,1-1.8c0.2-0.3,0.3-0.6,0.5-0.9
		c0.1-0.2,0.5-0.5,0.6-0.5c0.2-0.1,0.4-0.1,0.6-0.1c0.3,0,0.7-0.1,1-0.1c0.2,0,0.3-0.1,0.4-0.1c0.1,0,0.3-0.2,0.4-0.2
		c0.1-0.1,0.3-0.4,0.4-0.6c0.1-0.3,0.2-0.6,0.3-0.9c0.1-0.7,0.2-1.4,0.3-2.1l0.1-1.1c0-0.3,0.1-0.8,0-0.9c-0.3-0.5-0.8-1.1-1.2-1.7
		l-0.7-0.9l-0.4-0.5l-0.1-0.1c0-0.1-0.1-0.1-0.1-0.3c-0.1-0.4,0.3-0.7,0.2-0.6c0.6-0.2,0.2,0,0.3-0.1l0.1,0l0.2,0
		c0.8,0,1.6,0.3,2.3,0.6c1.5,0.7,2.7,1.8,3.6,3.1c0.5,0.6,0.9,1.3,1.2,2.1c0.3,0.8,0.5,1.5,0.7,2.3c0.2,0.7,0.4,1.5,0.6,2.2l0.7,2.2
		c0.2,0.7,0.5,1.4,0.7,2.2c0.3,0.7,0.5,1.4,1,2c1.5,2.6,3.6,4.8,5.5,6.9c0.5,0.5,1,1,1.5,1.6c0.5,0.5,1,1,1.4,1.6
		c0.8,1.2,1.3,2.5,1.7,3.8c0.8,2.6,1.1,5.1,1.2,7.4c0,0.6,0,1.1,0,1.7c0,0.6,0,1.1-0.1,1.6c-0.2,1.1-0.4,2-0.7,2.9
		c-0.6,1.8-1.4,3.2-2.3,4.3c-0.9,1.1-1.9,1.5-2.6,1.8C1006.3,499,1005.9,499,1005.9,499L1005.9,499z"/>
</g>
<g>
	<path fill="#FFFFFF" d="M998.7,458.9c0,0,0.5,0.9,1.3,2.3c0.4,0.7,0.9,1.5,1.4,2.4c0.3,0.4,0.6,0.8,0.9,1.2c0.3,0.4,0.7,0.8,1,1.2
		c0.4,0.4,0.8,0.8,1.1,1.2c0.4,0.4,0.7,0.8,1,1.2c0.3,0.4,0.6,0.9,0.8,1.3c0.2,0.4,0.3,1,0.4,1.3c0.1,0.4,0.2,0.8,0.3,1.1
		c0.1,0.3,0.2,0.5,0.3,0.7c0.1,0.2,0.2,0.3,0.3,0.5c0.1,0.1,0.1,0.1,0.1,0.1l0,0.1c0,0-0.1,0-0.2-0.1c-0.1-0.1-0.3-0.2-0.4-0.4
		c-0.2-0.2-0.4-0.4-0.5-0.7c-0.1-0.3-0.3-0.6-0.5-1c-0.1-0.2-0.2-0.4-0.3-0.6c-0.1-0.2-0.2-0.4-0.3-0.6c-0.2-0.4-0.5-0.8-0.7-1.2
		c-0.6-0.8-1.2-1.6-1.9-2.5c-0.3-0.4-0.7-0.8-1-1.3c-0.3-0.5-0.6-0.9-0.8-1.4c-0.5-0.9-0.9-1.8-1.2-2.5
		C999,459.9,998.6,458.9,998.7,458.9L998.7,458.9z"/>
</g>
<g>
	<path fill="#FFFFFF" d="M1010.1,476c0,0,0-0.4-0.1-1c0-0.3-0.1-0.7-0.1-1.1c-0.1-0.4-0.1-0.9-0.3-1.4c-0.1-0.5-0.3-1-0.5-1.6
		c-0.1-0.3-0.3-0.5-0.4-0.8c-0.1-0.2-0.4-0.5-0.6-0.8c-0.4-0.5-0.8-1-1.3-1.5c-0.5-0.5-1-1-1.5-1.4c-0.5-0.5-1.1-0.9-1.6-1.3
		c-0.6-0.4-1.1-0.8-1.6-1.3c-0.5-0.4-1-0.9-1.4-1.4c-0.4-0.5-0.8-0.9-1.1-1.4c-0.3-0.4-0.6-0.9-0.8-1.3c-0.2-0.4-0.4-0.7-0.5-1
		c-0.1-0.3-0.2-0.5-0.2-0.7c0-0.2-0.1-0.3-0.1-0.3l0.1,0c0,0,0,0.1,0.1,0.2c0.1,0.1,0.2,0.3,0.4,0.6c0.4,0.5,0.9,1.2,1.6,2
		c0.3,0.4,0.7,0.8,1.1,1.2c0.4,0.4,0.8,0.8,1.3,1.3c0.5,0.4,1,0.9,1.6,1.3c0.5,0.5,1,1,1.5,1.5c0.5,0.5,1,1,1.5,1.5
		c0.5,0.5,0.9,1.1,1.3,1.6c0.2,0.3,0.4,0.5,0.5,0.8c0.1,0.3,0.3,0.6,0.4,0.9c0.2,0.6,0.3,1.2,0.4,1.7c0.1,0.5,0.1,1,0.2,1.5
		c0,0.4,0,0.8,0,1.1C1010.2,475.6,1010.2,476,1010.1,476L1010.1,476z"/>
</g>
<g>
	<path fill="#FFFFFF" d="M985,483.1c0,0,0.3-0.3,0.9-0.7c0.6-0.4,1.5-0.9,2.7-1.3c0.6-0.2,1.3-0.4,2-0.4c0.7-0.1,1.6,0.1,2.3,0.3
		c0.4,0.1,0.8,0.2,1.2,0.3c0.4,0.1,0.8,0.3,1.2,0.4c0.4,0.1,0.8,0.3,1.2,0.4l1.1,0.6c0.2,0.1,0.4,0.2,0.6,0.3l0.5,0.4l0.5,0.4
		l0.1,0.1l0,0l0,0c0,0,0,0,0,0l0,0l0.1,0l0.2,0.2c0.6,0.5,1.1,0.6,1.8,0.5l0.3,0l0.1,0l0.1,0l0,0c0.1,0,0.1,0,0.2,0
		c0.2,0.1,0.3,0.2,0.3,0.3c0.1,0.2,0,0.4-0.1,0.5l-0.1,0.1c-0.3,0.3-0.4,0.3-0.6,0.4c-0.3,0.2-0.7,0.4-1,0.5
		c-0.7,0.3-1.3,0.6-1.9,0.8c-0.6,0.2-1.2,0.3-1.7,0.4c-0.5,0.1-1,0.1-1.3,0.1c-0.4,0-0.7,0-0.9,0c-0.2,0-0.3,0-0.3,0l0-0.1
		c0,0,0.1,0,0.3,0c0.2,0,0.5,0,0.8-0.1c0.4-0.1,0.8-0.2,1.2-0.3c0.2-0.1,0.5-0.1,0.7-0.2c0.3-0.1,0.5-0.2,0.8-0.3
		c0.5-0.2,1.2-0.5,1.8-0.9c0.3-0.2,0.6-0.3,0.9-0.5l0.2-0.1c0.1,0,0.2-0.1,0.1-0.1l0,0c-0.1,0.1-0.1,0.3-0.1,0.4
		c0,0.1,0.1,0.2,0.3,0.3c0.1,0,0.1,0,0.2,0c0,0,0,0,0,0l-0.1,0l0,0c0.1,0,0,0,0,0l0,0l-0.3,0.1c-0.4,0.1-0.9,0.1-1.4-0.1
		c-0.5-0.1-0.9-0.4-1.2-0.7l-0.2-0.2l-0.1-0.1l-0.1-0.1l-0.4-0.4l-0.4-0.4c-0.2-0.1-0.3-0.2-0.5-0.3l-1-0.6
		c-0.4-0.2-0.7-0.3-1.1-0.5c-0.4-0.1-0.7-0.3-1.1-0.4c-0.4-0.1-0.8-0.2-1.1-0.3c-0.8-0.2-1.4-0.4-2.1-0.4c-0.7,0-1.3,0.1-1.9,0.3
		c-1.2,0.3-2.1,0.8-2.8,1.1C985.4,482.9,985,483.2,985,483.1L985,483.1z"/>
</g>
<g>
	<path fill="#FFFFFF" d="M1015.6,492.3c0,0,0.2,0,0.5,0.1c0.3,0.1,0.8,0.2,1.4,0.4c0.3,0.1,0.6,0.3,0.9,0.5c0.3,0.2,0.5,0.6,0.7,0.8
		c0.5,0.5,1,1.1,1.6,1.6c0.5,0.6,1.1,1.2,1.4,2c0.1,0.2,0.1,0.4,0.1,0.6l0,0.2c0,0.1,0,0.1,0,0.2l0,0.2c0,0.3-0.2,0.7-0.3,1
		c-0.1,0.3-0.3,0.5-0.5,0.7c-0.2,0.2-0.3,0.3-0.5,0.5c-0.3,0.2-0.5,0.3-0.5,0.3l-0.1-0.1c0,0,0.1-0.2,0.2-0.5
		c0.1-0.3,0.3-0.7,0.4-1.2c0-0.1,0.1-0.3,0.1-0.4c0-0.1,0-0.2,0-0.4l0-0.3c0,0,0-0.1,0-0.1l0-0.1c0-0.1-0.1-0.3-0.1-0.4
		c-0.2-0.6-0.6-1.2-1.1-1.8c-0.5-0.6-1-1.2-1.4-1.8c-0.2-0.3-0.4-0.6-0.6-0.8c-0.2-0.2-0.5-0.4-0.7-0.5c-0.5-0.3-0.9-0.5-1.2-0.6
		C1015.8,492.5,1015.6,492.4,1015.6,492.3L1015.6,492.3z"/>
</g>
<g>
	<path fill="#FFFFFF" d="M1018.6,494c0,0,0.1-0.3,0-0.9c0-0.3,0-0.7-0.1-1.1c-0.1-0.2-0.1-0.4-0.2-0.6c-0.1-0.2-0.2-0.4-0.3-0.7
		c-0.3-0.4-0.6-0.9-0.9-1.3c-0.4-0.5-0.7-1-1.1-1.5c-0.7-1.1-1.5-2.3-2.1-3.5c-0.2-0.3-0.3-0.6-0.5-1l-0.2-0.6
		c0-0.1-0.1-0.3-0.2-0.5c-0.2-0.7-0.4-1.3-0.6-1.9c-0.2-0.6-0.4-1.2-0.6-1.7c-0.2-0.6-0.3-1.1-0.5-1.6c-0.2-0.5-0.3-0.9-0.5-1.3
		c-0.2-0.4-0.3-0.7-0.4-1c-0.2-0.6-0.3-0.9-0.3-0.9l0.1-0.1c0,0,0.2,0.3,0.6,0.8c0.4,0.5,0.8,1.2,1.3,2.2c0.3,0.5,0.5,1,0.7,1.5
		c0.1,0.1,0.1,0.3,0.2,0.4c0.1,0.2,0.1,0.3,0.2,0.5c0.1,0.3,0.2,0.6,0.3,0.9c0.2,0.6,0.4,1.3,0.5,1.9l0.1,0.5l0.1,0.4
		c0.1,0.3,0.2,0.6,0.4,0.9c0.6,1.2,1.3,2.4,1.9,3.5c0.3,0.6,0.7,1.1,1,1.6c0.3,0.5,0.6,1,0.9,1.5c0.1,0.3,0.2,0.5,0.3,0.7
		c0,0.2,0.1,0.5,0.1,0.7c0,0.4,0.1,0.8,0,1.1C1018.8,493.7,1018.7,494,1018.6,494L1018.6,494z"/>
</g>
<g>
	<path fill="#FFFFFF" d="M1018.5,502.5c0,0,0.2-0.1,0.5-0.3c0.3-0.2,0.9-0.4,1.5-0.6c0.3-0.1,0.7-0.1,1.1-0.2
		c0.4-0.1,0.8-0.1,1.2-0.1c0.4,0,0.8,0,1.3,0.1c0.4,0.1,0.9,0.1,1.3,0.3c0.4,0.2,0.9,0.3,1.3,0.5c0.4,0.2,0.8,0.4,1.2,0.6
		c0.4,0.2,0.7,0.4,1,0.7c0.3,0.2,0.6,0.5,0.8,0.7c0.5,0.5,0.9,0.8,1.1,1.1c0.3,0.3,0.4,0.4,0.4,0.4l-0.1,0.1c0,0-0.2-0.1-0.6-0.2
		c-0.4-0.2-0.8-0.4-1.4-0.8c-0.6-0.3-1.2-0.7-1.9-1.1c-0.3-0.2-0.7-0.4-1.1-0.6c-0.4-0.2-0.7-0.3-1.1-0.5c-0.4-0.2-0.8-0.2-1.3-0.4
		c-0.4-0.1-0.8-0.1-1.2-0.2c-0.4,0-0.8,0-1.2,0c-0.4,0-0.7,0-1,0.1c-0.6,0.1-1.2,0.3-1.5,0.4
		C1018.7,502.4,1018.5,502.5,1018.5,502.5L1018.5,502.5z"/>
</g>
<g>
	<path fill="#FFFFFF" d="M1028.7,505c0,0,0.4,0.3,1,0.6c0.3,0.2,0.8,0.4,1.2,0.6c0.5,0.2,1.1,0.3,1.7,0.3c0.7,0,1.3-0.1,2.2,0
		c0.4,0,0.8,0.2,1.2,0.5c0.2,0.1,0.3,0.3,0.4,0.5l0.4,0.5c0.5,0.6,1.2,1,2,1.3c0.4,0.2,0.8,0.3,1.2,0.4c0.2,0.1,0.4,0.1,0.6,0.1
		c0.2,0,0.4,0.1,0.7,0.1c0.5,0.1,0.9,0.3,1.3,0.5c0.2,0.1,0.4,0.3,0.6,0.4c0.1,0.1,0.2,0.2,0.3,0.3l0.1,0.2l0.1,0.1l0,0l0,0
		c0,0.1,0-0.1,0,0l0,0c0.3,0.4,0.5,0.5,0.9,0.8c0.3,0.3,0.7,0.6,1,0.9c0.3,0.3,0.6,0.7,0.8,1c0.1,0.2,0.2,0.4,0.3,0.6
		c0.1,0.2,0.1,0.4,0.2,0.6c0.2,0.4,0.2,0.8,0.3,1.2c0,0.2,0.1,0.4,0.1,0.6c0,0.2,0,0.3,0,0.5c0,0.7,0,1.3,0,1.8c0,0.5,0,1-0.1,1.4
		c-0.1,0.8-0.2,1.2-0.2,1.2l-0.1,0c0,0,0-0.4-0.1-1.2c0-0.4-0.1-0.8-0.2-1.4c-0.1-0.5-0.1-1.1-0.2-1.8c0-0.2,0-0.3,0-0.5
		c0-0.1-0.1-0.3-0.1-0.5c-0.1-0.3-0.1-0.7-0.3-1c-0.1-0.2-0.1-0.3-0.2-0.5c-0.1-0.2-0.2-0.3-0.3-0.5c-0.2-0.3-0.5-0.6-0.7-0.9
		c-0.3-0.3-0.6-0.6-0.9-0.8c-0.3-0.2-0.8-0.7-1-1l-0.2-0.3c0-0.1-0.1-0.1-0.2-0.2c-0.1-0.1-0.3-0.2-0.4-0.4
		c-0.3-0.2-0.7-0.4-1.1-0.5c-0.2-0.1-0.4-0.1-0.6-0.1c-0.2,0-0.5-0.1-0.7-0.2c-0.4-0.1-0.9-0.3-1.3-0.5c-0.8-0.4-1.6-0.9-2.1-1.6
		l-0.4-0.5c-0.1-0.1-0.2-0.3-0.3-0.4c-0.3-0.2-0.6-0.4-0.9-0.4c-0.7-0.1-1.4,0-2.1-0.1c-0.7,0-1.3-0.2-1.8-0.4
		c-0.5-0.2-0.9-0.5-1.2-0.7C1028.9,505.3,1028.6,505,1028.7,505L1028.7,505z"/>
</g>
<g>
	<path fill="#FFFFFF" d="M1045.5,520.1c0,0,0.2,0.4,0.5,1c0.2,0.3,0.4,0.7,0.8,1c0.2,0.2,0.4,0.4,0.6,0.4c0.1,0.1,0.3,0.1,0.4,0.2
		c0.2,0.1,0.3,0.2,0.4,0.3c0.4,0.5,0.6,1.2,0.8,1.9c0.2,0.7,0.2,1.5,0.3,2.2c0,0.8,0.1,1.6,0,2.4c0,0.8-0.1,1.6-0.2,2.5
		c-0.1,0.8-0.3,1.7-0.7,2.5c-0.2,0.4-0.3,0.8-0.6,1.1c-0.3,0.3-0.5,0.7-0.8,1c-0.6,0.6-1.3,1-1.9,1.3c-0.6,0.3-1.2,0.6-1.8,0.9
		c-0.5,0.3-1,0.6-1.4,0.8c-0.3,0.3-0.7,0.6-0.9,0.8c-0.4,0.5-0.7,0.9-0.7,0.9l-0.1-0.1c0,0,0.2-0.4,0.5-1c0.2-0.3,0.5-0.7,0.8-1.1
		c0.4-0.3,0.8-0.7,1.4-1.1c0.5-0.3,1.1-0.7,1.7-1c0.6-0.4,1.2-0.7,1.7-1.2c0.3-0.2,0.5-0.5,0.7-0.8c0.2-0.3,0.4-0.6,0.6-0.9
		c0.3-0.7,0.6-1.4,0.7-2.2c0.1-0.8,0.2-1.6,0.3-2.4c0.1-0.8,0.1-1.6,0.1-2.3c0-0.8-0.1-1.5-0.2-2.2c-0.1-0.7-0.3-1.3-0.6-1.8
		c-0.1-0.1-0.2-0.2-0.3-0.3c0,0-0.1-0.1-0.2-0.1c-0.1,0-0.1-0.1-0.2-0.1c-0.3-0.1-0.5-0.4-0.6-0.5c-0.3-0.4-0.5-0.8-0.7-1.1
		C1045.6,520.5,1045.5,520.1,1045.5,520.1L1045.5,520.1z"/>
</g>
<g>
	<path fill="#FFFFFF" d="M1031.3,535.9c0,0,0-0.3-0.2-0.7c-0.2-0.4-0.5-0.9-0.9-1.6c-0.2-0.3-0.4-0.7-0.5-1.1
		c-0.2-0.5-0.3-0.9-0.4-1.4c-0.1-0.5-0.1-1-0.2-1.5c0-0.5-0.1-1,0-1.6c0-0.5,0-1,0.1-1.6c0.1-0.5,0.2-1,0.4-1.6
		c0.2-0.4,0.6-0.8,0.9-1.2c0.3-0.3,0.7-0.6,1-0.8c1.3-0.9,2.2-1.3,2.2-1.3l0.1,0.1c0,0-0.2,0.2-0.5,0.5c-0.3,0.3-0.7,0.8-1.3,1.3
		c-0.3,0.3-0.5,0.6-0.8,0.9c-0.2,0.3-0.5,0.6-0.7,1c-0.1,0.1-0.1,0.4-0.2,0.5c-0.1,0.2-0.1,0.4-0.2,0.7c-0.1,0.5-0.2,1-0.2,1.5
		c-0.1,0.5-0.1,1-0.1,1.5c0,0.5,0,1,0.1,1.4c0,0.4,0.2,0.9,0.2,1.3c0.1,0.4,0.2,0.8,0.4,1.1c0.3,0.7,0.6,1.2,0.8,1.7
		C1031.4,535.6,1031.4,535.9,1031.3,535.9L1031.3,535.9z"/>
</g>
<g>
	<path fill="#FFFFFF" d="M1031.5,533c0,0,0,0.5,0.1,1.4c0.1,0.9,0.2,2.1,0.5,3.6c0.2,0.7,0.4,1.5,0.7,2.3c0.1,0.2,0.2,0.4,0.3,0.6
		c0.1,0.1,0.1,0.2,0.2,0.3l0.2,0.3c0.3,0.4,0.6,0.7,0.9,1.1c0.7,0.6,1.4,1.3,2.1,2c0.7,0.7,1.4,1.5,2,2.3c0.6,0.8,1.3,1.6,1.8,2.5
		c0.1,0.2,0.3,0.4,0.4,0.7c0.1,0.1,0.1,0.3,0.2,0.4l0.1,0.2c0,0,0,0.1,0,0l0,0c0,0,0-0.1-0.1-0.1c-0.1,0,0-0.1-0.3-0.2
		c-0.4,0-0.4,0.1-0.4,0.1c0,0-0.1,0.1-0.1,0.1l0,0c0.1-0.5,0.1-0.9,0.2-1.4c0.1-0.5,0.2-1,0.3-1.4c0.1-0.4,0.2-0.9,0.3-1.3
		c0.2-0.9,0.3-1.6,0.4-2.4c0.1-0.7,0.2-1.4,0.3-2c0.1-0.6,0.1-1.1,0.1-1.6c0-0.4,0-0.8,0-1c0-0.2,0-0.4,0-0.4l0.1,0
		c0,0,0.1,0.5,0.3,1.4c0,0.4,0.1,1,0.1,1.6c0,0.6,0,1.3-0.1,2.1c-0.1,0.8-0.1,1.6-0.3,2.5c-0.1,0.4-0.1,0.9-0.3,1.3
		c-0.1,0.4-0.2,0.9-0.2,1.3c0,0.2-0.1,0.5-0.1,0.7c0,0.3,0,0.4-0.1,0.8l0,0.1c0,0-0.1,0.1-0.1,0.2c0,0-0.1,0.1-0.4,0.1
		c-0.3-0.1-0.3-0.1-0.3-0.2c0,0-0.1-0.1-0.1-0.1l0-0.1c0-0.1,0-0.1,0-0.2c0-0.1,0-0.1,0-0.1c0-0.1,0-0.2-0.1-0.3
		c-0.1-0.2-0.2-0.4-0.3-0.6c-0.5-0.8-1.1-1.7-1.7-2.5c-0.6-0.8-1.2-1.6-1.9-2.3c-0.7-0.7-1.4-1.4-2.1-2.1c-0.3-0.4-0.6-0.7-0.9-1.1
		l-0.2-0.3c-0.1-0.1-0.1-0.2-0.2-0.3c-0.1-0.2-0.2-0.4-0.3-0.6c-0.3-0.8-0.5-1.7-0.6-2.4c-0.2-1.5-0.3-2.8-0.4-3.7
		C1031.4,533.5,1031.5,533,1031.5,533L1031.5,533z"/>
</g>
<g>
	<path fill="#FFFFFF" d="M1035,538.6c0,0,0-0.1,0.1-0.2c0.1-0.1,0.2-0.4,0.3-0.6c0.2-0.3,0.3-0.6,0.6-0.9c0.2-0.4,0.5-0.8,0.7-1.2
		c0.2-0.4,0.4-1,0.6-1.5c0.1-0.5,0.3-1.1,0.4-1.8c0.1-0.6,0.2-1.3,0.3-1.9c0-0.6-0.1-1.3-0.3-1.9l-0.2-0.4c0-0.1-0.1-0.2-0.1-0.2
		l-0.1-0.2c-0.2-0.3-0.3-0.6-0.5-0.8c-0.3-0.5-0.8-1-1.2-1.5c-0.4-0.5-0.8-1-1.2-1.5c-0.2-0.2-0.3-0.5-0.5-0.8
		c-0.1-0.1-0.1-0.3-0.2-0.4l-0.1-0.2l0-0.2c-0.1-0.5-0.2-1-0.3-1.4c-0.1-0.4-0.1-0.8-0.2-1.1c-0.1-0.6-0.1-1-0.1-1l0.1,0
		c0,0,0.1,0.3,0.3,0.9c0.2,0.6,0.5,1.4,0.9,2.3l0.1,0.2c0,0,0.1,0.1,0.1,0.1c0.1,0.1,0.1,0.2,0.2,0.3c0.2,0.2,0.3,0.4,0.5,0.6
		c0.4,0.4,0.8,0.9,1.2,1.4c0.4,0.5,0.8,1,1.2,1.7c0.2,0.3,0.3,0.6,0.5,0.9l0.1,0.2c0.1,0.1,0.1,0.2,0.1,0.3l0.2,0.5
		c0.2,0.7,0.3,1.4,0.2,2.2c-0.1,0.7-0.2,1.4-0.4,2c-0.2,0.6-0.3,1.2-0.5,1.8c-0.2,0.6-0.5,1.1-0.7,1.5c-0.3,0.5-0.5,0.8-0.8,1.2
		c-0.2,0.3-0.5,0.6-0.6,0.9c-0.2,0.2-0.3,0.4-0.4,0.6C1035.1,538.6,1035,538.6,1035,538.6L1035,538.6z"/>
</g>
<g>
	<path fill="#FFFFFF" d="M1021.3,507.2c0,0,0.1-0.1,0.2-0.2c0.2-0.1,0.5-0.2,0.8-0.2c0.4,0,0.8,0,1.3,0.1c0.2,0.1,0.5,0.2,0.7,0.3
		c0.3,0.1,0.5,0.4,0.7,0.6c0.4,0.5,0.7,1.1,1.1,1.6c0.4,0.6,0.7,1.2,1.1,1.9c0.3,0.7,0.8,1.4,1,2.1c0.3,0.8,0.5,1.5,1,2.1
		c0.9,1.2,2.3,2.1,3.6,2.4c0.3,0.1,0.6,0.1,0.9,0.1c0.2,0,0.6-0.2,0.9-0.3c0.6-0.2,1.3-0.4,1.7-0.7c0.5-0.3,0.9-0.6,1.1-1
		c0.2-0.4,0.3-0.8,0.4-1.1c0.1-0.3,0.1-0.6,0.1-0.7c0-0.1-0.1-0.1-0.1-0.1l-0.1-0.1c0,0,0,0,0.1,0c0.1,0,0.2,0,0.2,0.1
		c0.1,0.2,0.1,0.5,0.1,0.9c0,0.3-0.1,0.8-0.3,1.3c-0.2,0.5-0.6,1-1.1,1.4c-0.5,0.4-1.2,0.7-1.8,0.9c-0.3,0.1-0.6,0.3-1.1,0.4
		c-0.4,0.1-0.9,0.1-1.3,0c-0.8-0.2-1.6-0.6-2.3-1.1c-0.7-0.5-1.3-1.1-1.8-1.8c-0.5-0.8-0.7-1.6-0.9-2.3c-0.2-0.7-0.6-1.4-0.9-2.1
		c-0.3-0.7-0.7-1.3-1-1.9c-0.4-0.6-0.7-1.2-1-1.7c-0.2-0.2-0.3-0.4-0.6-0.6c-0.2-0.2-0.4-0.3-0.7-0.3c-0.4-0.2-0.9-0.2-1.2-0.2
		c-0.3,0-0.6,0.1-0.8,0.2C1021.5,507.2,1021.4,507.3,1021.3,507.2L1021.3,507.2z"/>
</g>
<g>
	<path fill="#FFFFFF" d="M1030.2,515.3c0,0,0.2,0.1,0.5,0.2c0.3,0.1,0.7,0.2,1.1,0.3c0.2,0,0.4,0.1,0.6,0.1c0.2,0.1,0.3,0.2,0.4,0.3
		c0.2,0.2,0.4,0.5,0.4,0.5l0,0.1c0,0-0.2,0.2-0.6,0.2c-0.2,0-0.4,0-0.6-0.1c-0.2-0.1-0.4-0.2-0.5-0.4c-0.4-0.2-0.7-0.5-0.9-0.7
		C1030.2,515.6,1030.1,515.4,1030.2,515.3L1030.2,515.3z"/>
</g>
<g>
	<path fill="#FFFFFF" d="M1029.8,514.1c0,0,0.2,0.1,0.5,0.1c0.3,0.1,0.7,0.2,1,0.3c0.2,0.1,0.4,0.1,0.6,0.2c0.2,0.1,0.3,0.2,0.4,0.3
		c0.2,0.2,0.3,0.5,0.3,0.5l0,0.1c0,0-0.3,0.1-0.6,0.1c-0.2,0-0.3,0-0.5-0.1c-0.2-0.1-0.3-0.3-0.5-0.4c-0.3-0.2-0.6-0.5-0.8-0.7
		C1029.9,514.3,1029.7,514.2,1029.8,514.1L1029.8,514.1z"/>
</g>
<g>
	<path fill="#FFFFFF" d="M1028.8,512.1c0,0,0.2,0.1,0.5,0.2c0.3,0.1,0.7,0.3,1,0.4c0.2,0.1,0.4,0.1,0.6,0.2c0.2,0.1,0.3,0.2,0.4,0.3
		c0.2,0.3,0.3,0.5,0.3,0.5l0,0.1c0,0-0.3,0.1-0.6,0.1c-0.2,0-0.4-0.1-0.5-0.2c-0.2-0.1-0.3-0.3-0.5-0.4c-0.3-0.3-0.6-0.6-0.8-0.8
		C1028.8,512.3,1028.7,512.2,1028.8,512.1L1028.8,512.1z"/>
</g>
<g>
	<path fill="#FFFFFF" d="M1027.8,510.2c0,0,0.2,0.1,0.6,0.2c0.3,0.1,0.8,0.4,1.2,0.6c0.2,0.1,0.4,0.2,0.6,0.3
		c0.2,0.1,0.3,0.3,0.4,0.4c0.2,0.3,0.3,0.6,0.3,0.6l0,0.1c0,0-0.3,0.1-0.7,0c-0.2,0-0.4-0.1-0.6-0.2c-0.2-0.1-0.4-0.3-0.5-0.5
		c-0.4-0.3-0.7-0.7-0.9-0.9C1027.9,510.5,1027.7,510.3,1027.8,510.2L1027.8,510.2z"/>
</g>
<g>
	<path fill="#FFFFFF" d="M1034,522.8c0,0-0.2,0.3-0.5,0.8c-0.3,0.5-0.6,1.1-1,1.8c-0.1,0.3-0.2,0.7-0.4,1c-0.1,0.3-0.3,0.6-0.4,0.8
		c-0.2,0.5-0.5,0.8-0.5,0.8l-0.1,0c0,0-0.2-0.4-0.2-1c0-0.3,0.1-0.6,0.2-1c0.2-0.3,0.4-0.6,0.6-1c0.5-0.6,0.9-1.2,1.4-1.6
		C1033.6,523,1033.9,522.7,1034,522.8L1034,522.8z"/>
</g>
<g>
	<path fill="#FFFFFF" d="M1034.9,523.8c0,0-0.3,0.4-0.7,1c-0.2,0.3-0.4,0.7-0.5,1.1c-0.1,0.2-0.2,0.4-0.2,0.7
		c-0.1,0.2-0.2,0.5-0.2,0.7c0,0.2-0.1,0.5-0.1,0.7c0,0.2-0.1,0.5-0.1,0.7c-0.1,0.5-0.2,0.9-0.4,1.2c-0.1,0.4-0.3,0.6-0.4,0.8
		c-0.1,0.2-0.2,0.3-0.2,0.3h-0.1c0,0,0-0.1-0.1-0.4c-0.1-0.2-0.1-0.6-0.1-0.9c0-0.4,0-0.8,0.1-1.3c0.1-0.2,0.1-0.5,0.2-0.7
		c0.1-0.2,0.2-0.5,0.3-0.7c0.1-0.2,0.2-0.5,0.3-0.7c0.1-0.2,0.2-0.5,0.4-0.7c0.2-0.4,0.5-0.8,0.8-1.1
		C1034.4,524,1034.8,523.7,1034.9,523.8L1034.9,523.8z"/>
</g>
<g>
	<path fill="#FFFFFF" d="M1035.7,525.2c0,0-0.1,0.1-0.2,0.3c-0.1,0.2-0.3,0.4-0.5,0.8c-0.2,0.4-0.4,0.7-0.5,1.2
		c-0.1,0.2-0.1,0.5-0.2,0.7l-0.1,0.3l-0.1,0.4c-0.1,0.5-0.1,1-0.2,1.5c-0.1,0.5-0.3,0.9-0.4,1.3c-0.3,0.8-0.5,1.2-0.5,1.2l-0.1,0
		c0,0-0.1-0.6-0.1-1.4c0-0.4,0.1-0.9,0.2-1.3c0.1-0.5,0.3-1,0.5-1.5l0.1-0.4c0.1-0.2,0.1-0.3,0.2-0.4c0.1-0.2,0.2-0.5,0.3-0.7
		c0.1-0.2,0.2-0.5,0.4-0.6c0.1-0.2,0.3-0.4,0.4-0.5c0.2-0.3,0.5-0.6,0.6-0.7C1035.5,525.2,1035.6,525.1,1035.7,525.2L1035.7,525.2z"
		/>
</g>
<g>
	<path fill="#FFFFFF" d="M1036.7,526.4c0,0-0.2,0.5-0.4,1.3c-0.1,0.4-0.2,0.8-0.4,1.3c-0.1,0.2-0.1,0.5-0.2,0.7
		c-0.1,0.2-0.2,0.5-0.2,0.7c-0.1,0.5-0.1,1.1-0.2,1.6c-0.1,0.5-0.3,0.9-0.4,1.3c-0.3,0.8-0.6,1.2-0.6,1.2l-0.1,0
		c0,0-0.1-0.6-0.1-1.4c0-0.4,0.1-0.9,0.2-1.4c0.1-0.5,0.3-1,0.5-1.5c0.1-0.3,0.2-0.5,0.3-0.8c0.1-0.2,0.2-0.5,0.3-0.7
		c0.2-0.5,0.4-0.9,0.6-1.3C1036.4,526.8,1036.6,526.3,1036.7,526.4L1036.7,526.4z"/>
</g>
<g>
	<path fill="#FFFFFF" d="M1038.6,536.8c0,0,0.3-0.2,0.8-0.5c0.5-0.4,1.2-0.9,2-1.6c0.4-0.4,0.8-0.8,1.1-1.3c0.4-0.5,0.6-1,0.8-1.7
		c0.2-0.6,0.3-1.3,0.3-2c0-0.7,0.1-1.4,0-2.1c0-0.7-0.1-1.4-0.1-2.1c0-0.7-0.2-1.3-0.3-2c-0.1-0.6-0.3-1.2-0.4-1.8
		c-0.2-0.6-0.4-1.1-0.5-1.7c-0.1-0.5-0.3-1-0.3-1.5c0-0.2,0-0.5,0-0.7c0-0.2,0.1-0.4,0.1-0.5c0-0.3,0.2-0.6,0.2-0.7
		c0.1-0.2,0.1-0.2,0.1-0.2l0.1,0c0,0,0,0.1,0,0.3c0,0.2-0.1,0.4,0,0.7c0,0.1,0,0.3,0,0.5c0,0.2,0.1,0.4,0.1,0.6
		c0.1,0.4,0.3,0.8,0.5,1.3c0.2,0.5,0.4,1,0.7,1.6c0.2,0.6,0.4,1.2,0.5,1.9c0.1,0.7,0.2,1.4,0.2,2.1c0,0.7,0,1.4,0,2.2
		c0,0.7-0.1,1.4-0.2,2.2c-0.1,0.7-0.2,1.4-0.5,2.1c-0.2,0.6-0.6,1.3-1,1.8c-0.4,0.5-0.9,0.9-1.3,1.3c-0.9,0.7-1.6,1.1-2.2,1.5
		C1038.9,536.7,1038.6,536.9,1038.6,536.8L1038.6,536.8z"/>
</g>
<g>
	<path fill="#FFFFFF" d="M1035.7,521.5c0,0,0.5-0.6,1.4-1.3c0.5-0.4,1-0.8,1.7-1.1c0.3-0.2,0.7-0.3,1.1-0.4c0.4-0.1,0.9,0,1.4,0.2
		c0.7,0.4,1.4,0.8,2,1.1c0.6,0.4,1.1,0.8,1.6,1.1c0.2,0.2,0.4,0.3,0.6,0.4c0.2,0.1,0.4,0.2,0.5,0.3c0.3,0.1,0.5,0.2,0.5,0.2l0,0.1
		c0,0-0.2,0-0.6,0c-0.2,0-0.4,0-0.6-0.1c-0.3,0-0.5-0.1-0.8-0.2c-0.6-0.2-1.2-0.5-1.8-0.9c-0.6-0.4-1.2-0.9-1.8-1.3
		c-0.3-0.1-0.5-0.2-0.9-0.2c-0.3,0-0.7,0.1-1,0.2c-0.6,0.3-1.2,0.6-1.7,0.9C1036.4,521.1,1035.8,521.6,1035.7,521.5L1035.7,521.5z"
		/>
</g>
<g>
	<path fill="#FFFFFF" d="M1038.1,540.1c0,0,0.1-0.3,0.4-0.8c0.2-0.5,0.7-1,1.1-1.5c0.2-0.2,0.5-0.5,0.7-0.8c0.3-0.2,0.6-0.3,0.8-0.4
		c0.6-0.1,0.9-0.1,0.9-0.1l0,0.1c0,0-0.2,0.4-0.6,0.7c-0.2,0.2-0.4,0.4-0.6,0.5c-0.1,0.1-0.2,0.2-0.4,0.2l-0.4,0.3
		c-0.5,0.4-1,0.8-1.4,1.2C1038.4,539.9,1038.2,540.2,1038.1,540.1L1038.1,540.1z"/>
</g>
<g>
	<path fill="#FFFFFF" d="M1038.8,541c0,0,0.2-0.3,0.4-0.9c0.3-0.5,0.7-1.2,1.1-1.8c0.2-0.3,0.5-0.6,0.7-0.9c0.3-0.3,0.6-0.4,0.9-0.6
		c0.1-0.1,0.3-0.1,0.4-0.1c0.1,0,0.2,0,0.3,0c0.2,0,0.3,0,0.3,0l0,0.1c0,0-0.1,0.1-0.2,0.2c-0.1,0.2-0.3,0.3-0.4,0.5
		c-0.2,0.2-0.4,0.4-0.6,0.7c-0.2,0.2-0.6,0.4-0.8,0.7c-0.5,0.5-1,1-1.4,1.5C1039.2,540.7,1038.9,541,1038.8,541L1038.8,541z"/>
</g>
<g>
	<path fill="#FFFFFF" d="M1019.7,506.6c0,0,0.2-0.2,0.5-0.5c0.2-0.1,0.4-0.3,0.6-0.4c0.2-0.1,0.5-0.2,0.8-0.3l0.4-0.1
		c0.1,0,0.3,0,0.4,0c0.3,0,0.5,0.1,0.7,0.2c0.4,0.2,0.5,0.5,0.5,0.5l0,0.1c0,0-0.3,0.1-0.7,0.2c-0.1,0-0.2,0-0.3,0
		c-0.1,0-0.2,0-0.3,0c-0.2,0-0.4-0.1-0.7-0.1c-0.2,0-0.5,0-0.7,0c-0.2,0-0.4,0.1-0.6,0.1C1020,506.5,1019.8,506.7,1019.7,506.6
		L1019.7,506.6z"/>
</g>
<g>
	<path fill="#FFFFFF" d="M1019.2,505.5c0,0,0-0.2,0.3-0.6c0.1-0.1,0.1-0.2,0.2-0.2c0.1-0.1,0.2-0.1,0.3-0.2c0.1-0.1,0.2-0.2,0.3-0.2
		l0.4-0.1c0.3-0.1,0.5-0.1,0.8-0.1c0.1,0,0.3,0,0.4,0.1c0.1,0,0.2,0.1,0.3,0.2c0.3,0.2,0.5,0.5,0.5,0.5l0,0.1c0,0-0.3,0.2-0.6,0.2
		c-0.2,0-0.4,0-0.6,0c-0.1,0-0.2,0-0.3-0.1c-0.1,0-0.2-0.1-0.3,0l-0.3,0c-0.1,0-0.2,0-0.3,0.1c-0.2,0-0.4,0.1-0.5,0.2
		c-0.1,0.1-0.3,0.2-0.3,0.2C1019.3,505.5,1019.3,505.5,1019.2,505.5L1019.2,505.5z"/>
</g>
<g>
	<path fill="#FFFFFF" d="M1018,504.3c0,0,0.2-0.3,0.6-0.7c0.4-0.4,1.1-0.8,1.8-1c0.2-0.1,0.4-0.1,0.6-0.1c0.2,0,0.4,0,0.6,0
		c0.4,0,0.7,0.2,1,0.3c0.3,0.1,0.4,0.3,0.6,0.5c0.1,0.1,0.2,0.2,0.2,0.2l0,0.1c0,0-0.1,0-0.3,0c-0.2,0-0.4,0-0.7,0
		c-0.1,0-0.3,0-0.4,0c-0.1,0-0.3,0-0.4,0c-0.3,0-0.6-0.1-0.9-0.1c-0.7,0-1.3,0.3-1.8,0.5C1018.3,504.2,1018,504.4,1018,504.3
		L1018,504.3z"/>
</g>
<g>
	<path fill="#FFFFFF" d="M1000.2,501.3c0,0,0.9-0.6,2.3-1.3c0.7-0.3,1.5-0.7,2.5-1c0.5-0.1,1-0.3,1.6-0.3c0.6,0,1.1,0.1,1.6,0.1
		c0.5,0,1,0,1.4-0.1c0.2,0,0.4-0.1,0.6-0.2c0.2-0.1,0.4-0.2,0.6-0.3c0.2-0.1,0.4-0.2,0.6-0.3c0.2-0.1,0.4-0.3,0.5-0.4
		c0.3-0.3,0.7-0.6,0.9-0.8c0.3-0.2,0.5-0.5,0.6-0.8c0.2-0.2,0.3-0.5,0.4-0.7c0.2-0.4,0.3-0.6,0.3-0.6l0.1,0c0,0,0,0.3-0.1,0.7
		c0,0.2-0.1,0.5-0.3,0.8c-0.1,0.3-0.3,0.7-0.5,1c-0.2,0.4-0.5,0.7-0.8,1c-0.4,0.4-0.8,0.6-1.2,0.9c-0.2,0.1-0.5,0.2-0.8,0.3
		c-0.3,0.1-0.6,0.1-0.8,0.2c-0.6,0.1-1.1,0-1.7-0.1c-0.5-0.1-1.1-0.2-1.5-0.2c-0.5,0-1,0.1-1.4,0.2c-0.9,0.2-1.8,0.5-2.5,0.8
		C1001.2,501,1000.3,501.4,1000.2,501.3L1000.2,501.3z"/>
</g>
<g>
	<path fill="#FFFFFF" d="M1010.3,499.6c0,0,0.4,0.2,1.1,0.4c0.3,0.1,0.8,0.2,1.2,0.3c0.2,0,0.4,0.1,0.7,0.1c0.2,0,0.4,0,0.6,0
		c0.2,0,0.4-0.1,0.7-0.1c0.2-0.1,0.5-0.1,0.7-0.2c0.2-0.1,0.4-0.1,0.6-0.1c0.2-0.1,0.3-0.1,0.5-0.1c0.2,0,0.3-0.1,0.5-0.1
		c0.1,0,0.3-0.1,0.4-0.1c0.2-0.1,0.3-0.1,0.3-0.1l0.1,0.1c0,0-0.1,0.1-0.2,0.3c-0.1,0.2-0.3,0.5-0.7,0.7c-0.2,0.1-0.4,0.2-0.6,0.3
		c-0.2,0.1-0.5,0.2-0.7,0.2c-0.3,0.1-0.5,0.1-0.7,0.1c-0.2,0-0.5,0-0.8,0c-0.3,0-0.5-0.1-0.8-0.1c-0.3-0.1-0.5-0.2-0.7-0.2
		c-0.4-0.2-0.8-0.4-1.1-0.6C1010.6,499.9,1010.2,499.7,1010.3,499.6L1010.3,499.6z"/>
</g>
<g>
	<path fill="#FFFFFF" d="M1015.3,501.1c0,0,0.1,0.1,0.4,0.3c0.1,0.1,0.3,0.1,0.4,0.2c0.2,0,0.3,0.1,0.5,0.1c0.2,0,0.3,0,0.5,0
		c0.1,0,0.3,0.1,0.4,0.2c0.2,0.1,0.5,0.3,0.5,0.3l0,0.1c0,0-0.2,0.2-0.5,0.4c-0.2,0.1-0.4,0.1-0.6,0.1c-0.2,0-0.4-0.2-0.6-0.3
		c-0.2-0.1-0.4-0.3-0.5-0.4c-0.1-0.2-0.3-0.3-0.3-0.4C1015.3,501.4,1015.2,501.2,1015.3,501.1L1015.3,501.1z"/>
</g>
<g>
	<path fill="#FFFFFF" d="M972.9,512.6c1.8,1.2,3.6,2.4,5.6,3.2c0.5,0.2,1,0.4,1.5,0.5c0.5,0.1,1,0.2,1.5,0.3c0.5,0,1,0,1.5-0.2
		c0.4-0.1,0.8-0.5,1.3-0.8c0.4-0.3,0.8-0.7,1.2-1c0.4-0.4,0.7-0.8,1.1-1.2c0.7-0.8,1.3-1.7,1.9-2.6c0.3-0.4,0.6-0.9,0.8-1.4
		c0.3-0.4,0.5-1,0.8-1.4l0.9-1.4c0.3-0.5,0.6-0.9,1-1.4l0-0.1l0.1,0c1.8-1.1,3.6-2.1,5.5-2.9c0.5-0.2,1-0.4,1.5-0.5
		c0.5-0.2,1-0.3,1.5-0.4c0.3-0.1,0.5,0,0.8,0c0.3,0,0.5,0,0.8,0.1c0.3,0,0.5,0.1,0.8,0.2c0.1,0,0.1,0.1,0.2,0.1
		c0.1,0.1,0.1,0.2,0,0.3c-0.1,0.1-0.2,0.2-0.4,0.2l0-0.1c0.1-0.1,0.2-0.1,0.3-0.2c0-0.1,0-0.1-0.1-0.1c-0.2-0.1-0.5-0.1-0.7-0.1
		c-0.2,0-0.5,0-0.8,0c-0.2,0-0.5,0-0.7,0.1c-1,0.2-1.9,0.7-2.8,1.1c-0.9,0.4-1.8,0.9-2.7,1.4c-0.9,0.5-1.7,1-2.6,1.6l0.1-0.1
		c-0.3,0.4-0.6,0.8-0.9,1.3l-0.9,1.3c-0.3,0.4-0.6,0.9-0.9,1.3c-0.3,0.5-0.6,0.9-0.9,1.4c-0.6,0.9-1.3,1.8-2,2.6
		c-0.4,0.4-0.8,0.8-1.2,1.2c-0.4,0.4-0.8,0.8-1.3,1.1c-0.4,0.3-0.9,0.7-1.5,0.9c-0.6,0.2-1.1,0.2-1.7,0.2c-0.6-0.1-1.1-0.2-1.6-0.3
		c-0.5-0.2-1-0.4-1.5-0.6c-1-0.4-1.9-1-2.9-1.6C974.6,513.9,973.7,513.3,972.9,512.6L972.9,512.6z"/>
</g>
<g>
	<path fill="#FFFFFF" d="M985.2,503.5c0.8,0.7,1.6,1.3,2.5,1.8c0.5,0.2,0.9,0.4,1.4,0.5c0.2,0,0.5,0.1,0.7,0.1c0.2,0,0.5,0,0.7-0.1
		l0.3-0.1l0.3-0.2c0.2-0.2,0.5-0.3,0.6-0.4c0.4-0.3,0.8-0.6,1.1-1c0.7-0.7,1.4-1.5,2-2.3l0.1,0.4l-1.9-0.7l-0.2-0.1l0-0.2
		c-0.1-0.9-0.1-1.8,0.1-2.8c0.1-0.5,0.2-0.9,0.4-1.4c0.1-0.2,0.2-0.4,0.4-0.6c0.2-0.2,0.4-0.4,0.6-0.5l1.1-0.7
		c0.4-0.3,0.8-0.5,1.2-0.7c0.8-0.5,1.6-0.9,2.4-1.3l-0.1,0.7c-0.3-0.3-0.6-0.5-0.9-0.7c-0.2-0.1-0.3-0.2-0.5-0.3
		c-0.2-0.1-0.4-0.1-0.6-0.2c-0.2-0.1-0.4-0.1-0.6,0c-0.2,0-0.4,0-0.6,0c-0.4,0-1,0.1-1.6-0.2c-0.6-0.3-0.9-0.8-1.1-1.2l-0.1-0.1l0,0
		c0,0,0.1,0.1,0,0l0,0l0,0l0,0l0-0.1c-0.1-0.1-0.1-0.2-0.2-0.2l-0.2-0.1l-0.2-0.2c-0.3-0.2-0.7-0.4-1.1-0.5c-0.3-0.1-0.7-0.1-1.1,0
		c-0.4,0.1-0.8,0.2-1.2,0.3c-0.4,0.2-0.8,0.4-1.1,0.6c-0.4,0.2-0.7,0.5-1.1,0.7c-0.3,0.3-0.7,0.5-1,0.8c-1.4,1.2-2.7,2.3-4.1,3.4
		l-0.1-0.1c1.2-1.3,2.5-2.6,3.8-3.8c0.3-0.3,0.7-0.6,1-0.9c0.3-0.3,0.7-0.6,1.1-0.8c0.4-0.3,0.8-0.5,1.2-0.7
		c0.4-0.2,0.9-0.4,1.4-0.5c0.5-0.1,1-0.1,1.5,0c0.5,0.1,0.9,0.3,1.4,0.6l0.3,0.2c0.1,0.1,0.2,0.2,0.3,0.3c0.1,0.1,0.2,0.2,0.2,0.3
		l0.1,0.1l0,0l0.1,0.1l0.1,0.1c0.2,0.4,0.4,0.7,0.6,0.8c0.3,0.1,0.6,0.2,1.1,0.1c0.2,0,0.4,0,0.7,0c0.3,0,0.5,0,0.8,0.1
		c0.3,0,0.5,0.1,0.7,0.2c0.2,0.1,0.4,0.2,0.7,0.3c0.4,0.3,0.8,0.6,1.1,1l0.4,0.4l-0.5,0.2c-0.8,0.4-1.6,0.7-2.4,1.2
		c-0.4,0.2-0.8,0.4-1.2,0.6l-1.1,0.7c-0.1,0.1-0.3,0.2-0.4,0.4c-0.1,0.1-0.2,0.3-0.3,0.5c-0.2,0.4-0.3,0.8-0.4,1.2
		c-0.2,0.8-0.2,1.7-0.2,2.6l-0.2-0.2l1.9,0.8l0.3,0.1l-0.2,0.3c-0.3,0.4-0.7,0.8-1,1.2c-0.4,0.4-0.7,0.8-1.1,1.1
		c-0.4,0.4-0.8,0.7-1.2,1c-0.2,0.2-0.4,0.3-0.7,0.4l-0.3,0.2l-0.4,0.2c-0.3,0.1-0.5,0.1-0.8,0.1c-0.3,0-0.5-0.1-0.8-0.1
		c-0.5-0.1-1-0.4-1.5-0.6C986.7,504.9,985.8,504.3,985.2,503.5L985.2,503.5z"/>
</g>
<g>
	<path fill="#FFFFFF" d="M986,484.6c0.2-0.1,0.5-0.2,0.8-0.3c0.3-0.1,0.5-0.1,0.8-0.2c0.3,0,0.6-0.1,0.8-0.1c0.3,0,0.6,0,0.8,0
		l0.8,0.2c0.3,0.1,0.5,0.3,0.8,0.4c0.3,0.1,0.5,0.3,0.7,0.5c0.2,0.2,0.4,0.3,0.7,0.5c0.9,0.7,1.7,1.3,2.6,1.9
		c0.2,0.1,0.5,0.2,0.7,0.4c0.2,0.1,0.5,0.2,0.7,0.2l0.3,0c0.1,0,0.3,0,0.4,0c0.1,0,0.3,0,0.3,0c0,0,0,0,0,0c0,0-0.1,0-0.2,0.1
		c-0.2,0.2-0.1,0.5,0,0.5c0.2,0.2,0.1,0.1,0.1,0.1l0.1,0c-0.6,0-1.1,0-1.7,0l-0.8,0l-0.8,0c-0.1,0-0.3,0-0.4,0l-0.4,0.1l-0.4,0.1
		c-0.1,0-0.3,0.1-0.4,0.1c-0.3,0.1-0.5,0.1-0.8,0.2l-0.8,0.3l-0.1-0.1c0.2-0.2,0.5-0.3,0.7-0.5c0.2-0.2,0.5-0.3,0.8-0.4
		c0.1-0.1,0.3-0.2,0.4-0.2l0.4-0.2l0.4-0.1c0.2-0.1,0.3-0.1,0.5-0.1c0.6-0.1,1.2-0.2,1.8-0.2c0.6,0,1.2,0,1.7,0l0.1,0l0,0
		c0.1,0.1,0.2,0,0.4,0.3c0.1,0.1,0.2,0.4,0,0.6c-0.1,0.1-0.2,0.2-0.2,0.2c-0.1,0-0.2,0.1-0.2,0.1c-0.2,0-0.3,0-0.5,0
		c-0.2,0-0.3,0-0.4,0l-0.5-0.1c-0.3-0.1-0.6-0.2-0.9-0.3l-0.7-0.5c-0.9-0.7-1.7-1.4-2.6-2.1c-0.2-0.2-0.4-0.3-0.6-0.5
		c-0.2-0.2-0.4-0.4-0.6-0.5c-0.2-0.1-0.4-0.3-0.7-0.4l-0.7-0.2l-0.8-0.1c-0.3,0-0.5,0-0.8,0c-0.3,0.1-0.5,0.1-0.8,0.2
		C986.5,484.5,986.3,484.6,986,484.6L986,484.6z"/>
</g>
<g>
	<path fill="#FFFFFF" d="M969.8,491.5c0,0,0,0.2-0.1,0.4c0,0.3-0.1,0.7,0,1.3c0.1,0.5,0.4,1.2,1,1.6c0.3,0.2,0.7,0.4,1.1,0.6
		c0.4,0.2,0.8,0.4,1.3,0.5c0.5,0.2,0.9,0.3,1.4,0.5c0.5,0.1,1,0.2,1.6,0.4c0.5,0.2,1.1,0.2,1.7,0.2c0.6,0.1,1.2,0.1,1.8,0.2
		c1.3,0.2,2.5,0.8,3.5,1.7c0.3,0.2,0.5,0.5,0.7,0.8c0.2,0.3,0.4,0.6,0.5,0.9c0.1,0.3,0.2,0.7,0.3,1l0.2,1c0.2,1.4,0,2.8-0.5,4
		c-0.6,1.2-1.3,2.3-2.1,3.3c-0.4,0.5-0.9,0.9-1.4,1.3c-0.3,0.2-0.6,0.3-0.9,0.5c-0.2,0-0.3,0.1-0.5,0.1l-0.4,0
		c-1.1,0.1-2.2,0.2-3.2,0c-0.9-0.2-1.8-0.2-2.1,0.4c-0.5,0.7-1,1.2-1.5,1.5c-0.5,0.4-0.9,0.6-1.2,0.7c-0.3,0.1-0.5,0.1-0.5,0.1
		l0-0.1c0,0,0.1-0.1,0.4-0.2c0.2-0.2,0.6-0.4,1-0.8c0.4-0.4,0.8-0.9,1.2-1.6c0.1-0.1,0.3-0.4,0.5-0.5c0.1-0.1,0.2-0.1,0.3-0.2
		c0.1-0.1,0.2-0.1,0.4-0.1c0.5-0.1,1-0.1,1.5,0c0.9,0.1,1.9,0,3-0.1l0.4-0.1c0.1,0,0.2-0.1,0.3-0.1c0.2-0.1,0.4-0.2,0.6-0.3
		c0.4-0.3,0.8-0.7,1.2-1.1c0.8-0.9,1.5-1.9,2-2.9c0.5-1.1,0.7-2.3,0.6-3.5l-0.1-0.9c-0.1-0.3-0.2-0.6-0.3-0.8
		c-0.1-0.3-0.3-0.5-0.4-0.8c-0.2-0.2-0.4-0.5-0.6-0.7c-0.8-0.8-2-1.4-3.1-1.6c-0.6-0.1-1.2-0.2-1.8-0.2c-0.6-0.1-1.2-0.1-1.7-0.3
		c-0.5-0.1-1.1-0.3-1.6-0.4c-0.5-0.2-1-0.4-1.4-0.5c-0.5-0.2-0.9-0.4-1.3-0.6c-0.4-0.2-0.8-0.4-1.1-0.6c-0.7-0.5-1-1.2-1.1-1.8
		c-0.1-0.6,0-1,0-1.3C969.6,491.6,969.7,491.5,969.8,491.5L969.8,491.5z"/>
</g>
<g>
	<path fill="#FFFFFF" d="M967.4,519.8c-0.1,0.1-0.3,0.1-0.4,0.2c-0.1,0.1-0.2,0.2-0.3,0.3c-0.2,0.2-0.4,0.4-0.5,0.6
		c-0.3,0.5-0.5,1-0.7,1.5c-0.4,1-0.6,2.1-0.9,3.2c-0.1,0.5-0.3,1.1-0.4,1.6c-0.1,0.3-0.2,0.5-0.3,0.8c-0.1,0.3-0.3,0.5-0.5,0.7
		c-0.4,0.4-0.9,0.8-1.5,1c-0.5,0.2-1.1,0.4-1.7,0.5l0.3-0.3l0.1,2.9c0.1,1,0.1,2,0.1,2.9c0,0.5,0,1,0,1.5l-0.1,1.5
		c0,0.3,0,0.5-0.1,0.8l-0.1,0.7c-0.1,0.5-0.3,1-0.4,1.5c-0.3,0.9-0.7,1.8-1.1,2.7l-1.2,2.7l-0.6,1.3c-0.2,0.4-0.4,0.8-0.6,1.3
		c-0.2,0.5-0.4,0.9-0.5,1.3c-0.2,0.4-0.3,0.9-0.4,1.4l-0.1,0c0-0.5,0.1-1,0.2-1.5l0.1-0.7l0.2-0.7c0.1-0.5,0.3-0.9,0.5-1.4
		c0.2-0.5,0.3-0.9,0.5-1.4l1.1-2.7c0.3-0.9,0.7-1.8,1-2.7c0.1-0.4,0.3-0.9,0.4-1.3l0.2-0.7c0.1-0.2,0-0.5,0.1-0.7l0.1-1.4
		c0.1-0.5,0-1,0-1.4c0-1,0-1.9,0-2.9l-0.1-2.9l0-0.3l0.3,0c0.5,0,1-0.2,1.5-0.4c0.5-0.2,0.9-0.5,1.3-0.8c0.2-0.2,0.4-0.4,0.5-0.6
		c0.1-0.2,0.3-0.5,0.3-0.7c0.2-0.5,0.3-1.1,0.5-1.6c0.3-1.1,0.6-2.2,1.1-3.2c0.2-0.5,0.5-1,0.8-1.5c0.2-0.2,0.4-0.4,0.6-0.6
		c0.1-0.1,0.2-0.2,0.4-0.3C967.1,519.8,967.2,519.8,967.4,519.8L967.4,519.8z"/>
</g>
<g>
	<path fill="#FFFFFF" d="M954.5,546.2c0,0,0.1,0,0.2,0.2c0.1,0.2,0.2,0.5,0.3,0.8c0.2,0.7,0.4,1.8,0.5,3c0.1,0.6,0.1,1.3,0.1,2
		c0,0.7-0.1,1.5-0.3,2.3c-0.2,1.5-0.5,3.2-0.8,4.9c-0.2,0.8-0.3,1.7-0.4,2.5c-0.2,0.8-0.4,1.6-0.6,2.4c-0.3,0.7-0.6,1.5-1,2.1
		c-0.4,0.6-0.7,1.2-1.1,1.7c-0.3,0.5-0.6,1-0.8,1.5c-0.2,0.4-0.3,0.9-0.5,1.2c-0.1,0.1-0.1,0.2-0.2,0.3c0,0-0.1,0.1-0.2,0.1
		c-0.1,0-0.1-0.1-0.2-0.1c-0.1-0.2-0.1-0.3-0.2-0.4c0-0.2,0-0.3,0-0.3l0.1,0c0,0,0,0.1,0.1,0.3c0,0.1,0.1,0.2,0.2,0.2c0,0,0,0,0,0
		c0,0,0.1-0.1,0.1-0.2c0.1-0.3,0.2-0.8,0.3-1.3c0.1-0.5,0.4-1.1,0.6-1.7c0.3-0.6,0.6-1.2,0.9-1.8c0.3-0.6,0.6-1.3,0.9-2
		c0.2-0.7,0.4-1.5,0.7-2.3c0.2-0.8,0.4-1.6,0.6-2.4c0.4-1.6,0.7-3.3,1-4.8c0.2-0.8,0.3-1.5,0.4-2.2c0.1-0.7,0.1-1.4,0-2
		c0-1.2-0.2-2.3-0.3-3c-0.1-0.4-0.1-0.6-0.2-0.8C954.6,546.4,954.5,546.3,954.5,546.2L954.5,546.2z"/>
</g>
<g>
	<path fill="#FFFFFF" d="M882.8,591.8c-0.1-1.3-0.2-2.7-0.3-4l-0.1-2c0-0.7-0.1-1.3-0.1-2l0-2c0-0.7,0-1.3,0.1-2
		c0.1-1.3,0.3-2.7,0.5-4c0.1-0.7,0.3-1.3,0.4-2c0.1-0.3,0.2-0.6,0.3-1c0.1-0.3,0.2-0.6,0.4-0.9c0.2-0.6,0.7-1.2,0.9-1.8
		c0.2-0.6,0.4-1.2,0.5-1.9c0.2-1.3,0.2-2.6,0.2-4c0-0.7,0-1.3,0.1-2c0.1-0.7,0.1-1.3,0.3-2l0,0l0,0c0.7-1.5,1.3-3,1.8-4.5
		c0.2-0.8,0.4-1.5,0.6-2.3c0.2-0.8,0.6-1.6,1.2-2.2c1.2-1.2,2.7-1.9,4.2-2.5c0.4-0.2,0.8-0.3,1.2-0.4c0.4-0.1,0.8-0.3,1.2-0.3
		c0.8-0.2,1.6-0.3,2.4-0.4c1.6-0.2,3.3-0.2,4.9-0.3l1.2-0.2c0.4-0.1,0.8-0.2,1.1-0.3c0.8-0.3,1.4-0.7,2.1-1.2c1.3-1,2.2-2.3,3.3-3.5
		l0.4-0.5c0.2-0.2,0.3-0.3,0.4-0.4l0.4-0.4c0.2-0.1,0.4-0.2,0.5-0.4c0.2-0.1,0.4-0.2,0.6-0.3l0.6-0.2c0.4-0.2,0.8-0.2,1.2-0.3
		c1.7-0.2,3.3,0,4.9-0.1l2.4,0.1c0.8,0,1.6,0.2,2.5,0.3c3.3,0.5,6.3,2,9.2,3.2c1.5,0.6,3.1,1,4.6,0.9c0.4,0,0.8-0.1,1.1-0.2
		c0.4-0.1,0.7-0.3,1.1-0.4l0.3-0.1l0.1,0l0.1-0.1c0.2-0.1,0.4-0.2,0.5-0.3c0.3-0.2,0.5-0.5,0.6-0.9c0.2-0.7,0.1-1.5-0.1-2.2
		c-0.2-0.8-0.5-1.5-0.9-2.2l-1-2.2l-0.2-0.6c-0.1-0.1-0.2-0.4-0.3-0.5c-0.2-0.4-0.4-0.7-0.6-1.1c-0.8-1.3-2-2.4-3.2-3.5
		c-1.3-1-2.6-1.9-3.9-2.8l-2-1.4c-0.7-0.4-1.4-0.8-2.1-1c-1.5-0.5-3.1-0.7-4.7-0.8c-3.2-0.2-6.5-0.1-9.7,0.3l-2.4,0.3l-0.6,0.1
		l-0.2,0c0,0-0.1,0,0,0l-0.1,0l-0.3,0.1l-1.2,0.2c-0.8,0.2-1.5,0.5-2.3,0.7c-0.7,0.3-1.4,0.7-2.1,1c-2.8,1.6-5.3,3.7-7.6,5.9
		c-0.6,0.5-1.1,1.1-1.7,1.7l-0.8,0.9l-0.8,0.9c-1,1.2-2,2.5-2.7,3.9c-0.3,0.7-0.6,1.4-0.8,2.2c-0.1,0.4-0.2,0.8-0.2,1.2
		c-0.1,0.4-0.1,0.8-0.3,1.3c0,0.2-0.5,0.6-0.7,0.6c-0.1,0-0.2,0.1-0.3,0.1c0,0-0.1,0-0.1,0.1c-0.2,0.2-0.4,0.5-0.6,0.9
		c-0.3,0.7-0.6,1.5-0.8,2.2l-0.6,2.3l-0.3,1.2c-0.1,0.5-0.3,0.8-0.4,1.2c-0.7,1.6-1.8,3.1-3.7,3.7l0.2-0.1c-1.2,1.2-2.8,2.1-4.3,2.6
		c-0.8,0.3-1.5,0.6-2.2,1c-0.7,0.4-1.2,0.9-1.8,1.5c-1,1.2-1.8,2.6-2.3,4.1c-0.3,0.7-0.4,1.5-0.6,2.3c-0.1,0.3-0.1,0.8-0.1,1.2
		c0,0.4-0.1,0.8,0,1.2c0,0.8,0.1,1.6,0.1,2.4l0.3,2.4c0.2,1.6,0.5,3.2,0.7,4.8l0.8,4.9l0.2,1.2c0,0.3,0.1,0.8,0.2,1.2
		c0.1,0.4,0.2,0.8,0.4,1.1c0.1,0.4,0.3,0.7,0.5,1.1c0.7,1.4,1.7,2.7,2.7,4l1.5,2l0.7,1l0.4,0.5l0.4,0.5c1,1.2,2.3,2.2,3.6,3.2
		c1.3,1,2.7,1.8,4.1,2.6c1.4,0.8,2.9,1.4,4.4,1.9c0.4,0.1,0.8,0.2,1.2,0.3c0.4,0,0.8,0.1,1.2,0.1c0.8,0,1.6-0.2,2.4-0.3
		c3.1-0.7,6.3-1.8,9.3-3l0.3,0.5c-1.3,0.6-2.6,1.1-4,1.5c-1.4,0.4-2.8,0.6-4.3,0.4c-0.7-0.1-1.4-0.3-2.1-0.7l-1.9-1
		c-1.2-0.7-2.5-1.4-3.6-2.2c-1.2-0.8-2.3-1.6-3.4-2.5c-0.5-0.5-1.1-0.9-1.5-1.5c-0.5-0.5-0.9-1.1-1.3-1.7l-2.1-3.6
		c-0.4-0.6-0.7-1.2-1.1-1.8l-1.2-1.8l0.1-0.1l1.2,1.8c0.4,0.6,0.7,1.2,1.1,1.8l2.2,3.6c0.3,0.6,0.8,1.1,1.3,1.6c0.5,0.5,1,1,1.5,1.4
		c1.1,0.9,2.2,1.7,3.4,2.4c1.2,0.7,2.4,1.4,3.6,2.1l1.9,1c0.6,0.3,1.2,0.5,1.9,0.6c1.3,0.2,2.7-0.1,4.1-0.4c1.3-0.4,2.6-0.9,3.9-1.5
		l0.3,0.5c-3.1,1.3-6.1,2.3-9.4,3.1c-0.8,0.1-1.6,0.4-2.5,0.4c-0.4,0-0.9-0.1-1.3-0.1c-0.4-0.1-0.8-0.1-1.2-0.3
		c-1.6-0.4-3.2-1.1-4.6-1.9c-1.5-0.8-2.9-1.7-4.2-2.6c-1.3-1-2.6-2-3.8-3.3l-0.4-0.5l-0.4-0.5l-0.7-1l-1.5-1.9c-1-1.3-2-2.6-2.8-4.1
		c-0.2-0.4-0.4-0.8-0.5-1.2c-0.2-0.4-0.3-0.8-0.4-1.2c-0.1-0.4-0.2-0.8-0.2-1.3l-0.2-1.2l-0.8-4.8c-0.3-1.6-0.5-3.2-0.7-4.9
		l-0.3-2.5c-0.1-0.8-0.1-1.7-0.1-2.5c0-0.4,0-0.8,0-1.2c0-0.4,0-0.8,0.1-1.3c0.2-0.8,0.3-1.7,0.6-2.5c0.6-1.6,1.4-3.1,2.5-4.4
		c0.3-0.3,0.6-0.6,0.9-0.9c0.3-0.3,0.7-0.6,1.1-0.8c0.8-0.5,1.5-0.7,2.3-1.1c1.5-0.6,2.9-1.3,4-2.4l0.1-0.1l0.1,0
		c0.6-0.2,1.3-0.7,1.8-1.2c0.5-0.6,0.9-1.1,1.2-1.9c0.1-0.4,0.3-0.8,0.4-1.1l0.3-1.2l0.6-2.4c0.2-0.8,0.5-1.6,0.8-2.4
		c0.2-0.4,0.4-0.8,0.8-1.1c0.1-0.1,0.2-0.2,0.4-0.3c0.1-0.1,0.2-0.1,0.3-0.1c0.2-0.1,0.1,0,0.2-0.2c0.1-0.2,0.2-0.7,0.2-1.1
		c0.1-0.4,0.2-0.8,0.3-1.2c0.2-0.8,0.5-1.6,0.9-2.4c0.7-1.5,1.7-2.9,2.8-4.1l0.8-0.9l0.9-0.9c0.6-0.6,1.1-1.2,1.7-1.7
		c2.3-2.3,4.9-4.4,7.8-6c0.7-0.4,1.5-0.7,2.2-1.1c0.8-0.2,1.6-0.6,2.4-0.7l1.2-0.2l0.3-0.1l0.1,0l0.1,0l0.2,0l0.6-0.1l2.4-0.3
		c3.2-0.3,6.5-0.5,9.8-0.2c1.6,0.1,3.3,0.4,4.9,0.9c0.8,0.3,1.6,0.6,2.3,1.1l2,1.4c2.7,1.8,5.5,3.7,7.3,6.6c0.2,0.4,0.4,0.7,0.6,1.1
		c0.1,0.2,0.2,0.3,0.3,0.6l0.2,0.6l1,2.2c0.3,0.7,0.7,1.5,0.9,2.3c0.2,0.8,0.4,1.7,0.1,2.6c-0.2,0.4-0.4,0.8-0.8,1.1
		c-0.2,0.2-0.3,0.3-0.5,0.4l-0.1,0.1c-0.1,0-0.1,0.1-0.2,0.1l-0.3,0.1c-0.4,0.2-0.8,0.4-1.2,0.4c-0.4,0.1-0.8,0.2-1.3,0.2
		c-1.7,0.1-3.3-0.4-4.9-0.9c-3-1.3-5.9-2.7-9.1-3.2c-0.8-0.1-1.6-0.2-2.4-0.3l-2.4-0.1c-1.6,0-3.3-0.2-4.8,0
		c-0.4,0.1-0.8,0.1-1.1,0.3l-0.5,0.2c-0.2,0.1-0.3,0.2-0.5,0.3c-0.2,0.1-0.3,0.2-0.5,0.3l-0.4,0.4c-0.1,0.1-0.3,0.3-0.4,0.4
		l-0.4,0.5c-1.1,1.2-2,2.5-3.4,3.6c-0.6,0.5-1.4,0.9-2.2,1.2c-0.4,0.2-0.8,0.2-1.2,0.3l-1.2,0.2c-1.6,0.1-3.3,0.1-4.9,0.3
		c-0.8,0.1-1.6,0.2-2.4,0.4c-0.4,0.1-0.8,0.2-1.2,0.3c-0.4,0.1-0.8,0.2-1.1,0.4c-1.5,0.6-3,1.3-4.1,2.5c-0.6,0.6-1,1.3-1.2,2
		c-0.2,0.8-0.4,1.6-0.6,2.4c-0.6,1.5-1.2,3-1.9,4.5l0,0c-0.2,0.6-0.2,1.3-0.3,1.9c0,0.7-0.1,1.3-0.1,2c-0.1,1.3-0.1,2.7-0.3,4
		c-0.1,0.7-0.2,1.3-0.5,2c-0.3,0.6-0.7,1.1-0.9,1.7c-0.1,0.3-0.3,0.6-0.4,0.9c-0.1,0.3-0.2,0.6-0.3,0.9c-0.2,0.6-0.3,1.3-0.4,1.9
		c-0.2,1.3-0.4,2.6-0.5,3.9c-0.1,0.7-0.1,1.3-0.1,2l-0.1,2c0,0.7,0,1.3,0,2l0.1,2C882.7,589.1,882.8,590.4,882.8,591.8L882.8,591.8z
		"/>
</g>
<g>
	<path fill="#FFFFFF" d="M996.5,505.3c0,0,0.6-0.4,1.6-0.9c0.5-0.3,1-0.6,1.6-0.9c0.3-0.2,0.6-0.3,0.9-0.5c0.3-0.2,0.7-0.3,1-0.5
		c0.7-0.3,1.4-0.6,2-0.8c0.3-0.1,0.7-0.2,1-0.2c0.4,0,0.8,0.1,1,0.2c0.3,0.1,0.5,0.3,0.7,0.4c0.2,0.1,0.3,0.3,0.4,0.4
		c0.2,0.2,0.4,0.4,0.4,0.4l0,0.1c0,0-0.2,0-0.5-0.1c-0.3-0.1-0.8-0.3-1.2-0.4c-0.2,0-0.4-0.1-0.7,0c-0.2,0-0.5,0.1-0.8,0.2
		c-0.3,0.1-0.7,0.2-1,0.3c-0.4,0.1-0.7,0.2-1,0.3c-0.3,0.1-0.7,0.2-1,0.3c-0.3,0.1-0.7,0.3-1,0.4c-0.6,0.2-1.2,0.5-1.7,0.7
		C997.2,505.1,996.5,505.4,996.5,505.3L996.5,505.3z"/>
</g>
<g>
	<path fill="#FFFFFF" d="M1009.9,504.2c0,0-0.2-0.1-0.6-0.2c-0.2-0.1-0.4-0.1-0.7-0.2c-0.1,0-0.3-0.1-0.4-0.1
		c-0.1,0-0.2-0.1-0.2-0.1c-0.1,0-0.2,0-0.3-0.1c-0.3-0.1-0.6-0.1-0.9,0.2c-0.3,0.2-0.7,0.5-1,0.7c-0.4,0.3-0.8,0.5-1.2,0.7
		c-0.4,0.2-0.8,0.4-1.2,0.7c-0.8,0.4-1.6,0.9-2.4,1.3c-0.8,0.4-1.5,0.7-2.2,0.9c-1.3,0.5-2.2,0.7-2.2,0.7l0-0.1c0,0,0.7-0.6,1.9-1.3
		c0.6-0.4,1.3-0.8,2.1-1.2c0.8-0.4,1.7-0.7,2.5-1.1c0.4-0.2,0.9-0.4,1.3-0.6c0.4-0.2,0.8-0.3,1.2-0.6c0.4-0.2,0.7-0.4,1.1-0.6
		l0.3-0.1c0.1,0,0.2,0,0.3-0.1c0.2,0,0.5,0,0.6,0.1c0.1,0,0.2,0.1,0.2,0.1c0.1,0,0.2,0.1,0.2,0.1c0.1,0.1,0.3,0.1,0.4,0.2
		c0.3,0.1,0.5,0.2,0.7,0.3C1009.7,504,1009.9,504.1,1009.9,504.2L1009.9,504.2z"/>
</g>
<g>
	<path fill="#FFFFFF" d="M1018.7,523.2c0.2-0.1,0.3-0.3,0.5-0.4c0.1-0.2,0.3-0.3,0.4-0.5l0.7-1.1c0.4-0.8,0.7-1.6,1.1-2.3
		c0.2-0.4,0.3-0.8,0.4-1.2c0.1-0.4,0.3-0.8,0.3-1.2c0.2-0.8,0.3-1.7,0.2-2.5c-0.1-0.4,0-0.9-0.1-1.3c-0.1-0.4-0.2-0.8-0.3-1.2
		l-0.4-1.2l-0.5-1.2c-0.4-0.8-0.8-1.5-1.3-2.2c-0.5-0.7-1.1-1.3-1.8-1.6c-0.7-0.4-1.5-0.6-2.4-0.6c-0.8,0-1.7,0.1-2.5,0.3l-0.3,0.1
		c-0.1,0-0.2,0.1-0.3,0.1l-0.6,0.2c-0.4,0.2-0.9,0.2-1.2,0.4l-1.1,0.6l-1.1,0.7c-0.7,0.5-1.4,1-2.1,1.5c-0.7,0.6-1.2,1.2-1.8,1.8
		c-1.1,1.3-2,2.8-2.9,4.2l0.1-0.2c0,0.6-0.1,1.2-0.3,1.8c-0.1,0.6-0.3,1.2-0.6,1.7c-0.2,0.5-0.7,1.1-1.1,1.5
		c-0.4,0.4-0.9,0.8-1.4,1.1c-0.5,0.4-1,0.6-1.5,0.9c-0.5,0.2-1.1,0.5-1.6,0.7c-0.6,0.2-1.2,0.3-1.8,0.4c-0.6,0-1.3,0-1.8-0.1
		c-1.2-0.3-2.3-0.7-3.3-1.5c-0.9-0.7-1.7-1.8-1.8-3.1c0-0.7,0.1-1.2,0.1-1.7c0.1-0.6,0.2-1.1,0.3-1.7c0.1-0.6,0.3-1.1,0.4-1.7
		c0.2-0.5,0.4-1.1,0.9-1.5l0.1,0.1c-0.4,0.4-0.6,0.9-0.7,1.5c-0.1,0.5-0.2,1.1-0.3,1.7c-0.1,0.6-0.1,1.1-0.1,1.7
		c0,0.5-0.1,1.2,0,1.7c0.1,1,0.8,1.9,1.7,2.5c0.9,0.6,1.9,1,2.9,1.2c0.6,0.1,1,0.1,1.6,0.1c0.5-0.1,1-0.2,1.5-0.4
		c0.5-0.1,1-0.4,1.5-0.6c0.5-0.3,1-0.5,1.4-0.9c0.5-0.3,0.8-0.6,1.2-1c0.4-0.4,0.7-0.7,0.9-1.2c0.2-0.5,0.4-1,0.5-1.5
		c0.1-0.5,0.2-1.1,0.3-1.6l0-0.1l0.1-0.1c0.9-1.5,1.9-2.9,3.1-4.3c0.6-0.7,1.2-1.4,1.9-1.9c0.7-0.6,1.4-1,2.2-1.5l1.1-0.7l1.2-0.6
		c0.4-0.2,0.8-0.3,1.2-0.4l0.6-0.2c0.1,0,0.2-0.1,0.3-0.1l0.3-0.1c0.9-0.2,1.7-0.3,2.7-0.3c0.9,0,1.8,0.2,2.6,0.7
		c0.8,0.4,1.5,1.1,2,1.8c0.5,0.7,0.9,1.5,1.3,2.3l0.5,1.2l0.4,1.3c0.1,0.4,0.2,0.9,0.3,1.3c0.1,0.4,0.1,0.9,0.1,1.3
		c0,0.9-0.1,1.8-0.3,2.6c-0.1,0.4-0.2,0.8-0.4,1.3c-0.2,0.4-0.3,0.8-0.5,1.2c-0.4,0.8-0.7,1.6-1.2,2.3l-0.7,1.1
		c-0.1,0.2-0.3,0.3-0.4,0.5C1019.1,523,1019,523.2,1018.7,523.2L1018.7,523.2z"/>
</g>
<g>
	<path fill="#FFFFFF" d="M1012.5,504.7c0,0,0,0-0.1-0.1c-0.1-0.1-0.2-0.1-0.3-0.2c-0.1-0.1-0.3-0.1-0.6-0.1c-0.2,0-0.5,0-0.8,0
		c-0.3,0-0.6,0.1-0.9,0.2c-0.3,0.1-0.6,0.2-1,0.4c-0.3,0.1-0.7,0.3-1,0.5c-0.3,0.2-0.7,0.4-1,0.6c-0.7,0.4-1.3,0.9-1.9,1.3
		c-0.6,0.4-1.2,0.7-1.8,0.9c-0.6,0.2-1,0.4-1.3,0.5c-0.3,0.1-0.5,0.2-0.5,0.2l-0.1-0.1c0,0,0.1-0.2,0.4-0.4c0.2-0.3,0.6-0.6,1.1-0.9
		c0.5-0.4,1-0.7,1.7-1.1c0.6-0.4,1.3-0.7,2-1.1c0.4-0.2,0.7-0.3,1.1-0.5c0.4-0.2,0.7-0.3,1.1-0.4c0.4-0.1,0.7-0.2,1-0.3
		c0.3,0,0.7-0.1,1-0.1c0.3,0,0.6,0,0.8,0.1c0.2,0.1,0.4,0.1,0.6,0.2C1012.4,504.4,1012.5,504.6,1012.5,504.7L1012.5,504.7z"/>
</g>
<g>
	<path fill="#FFFFFF" d="M1009.2,506.1c0,0,0.1,0.7,0.2,1.8c0,0.3,0,0.6,0,0.9c0,0.3-0.1,0.7-0.2,1c-0.1,0.3-0.2,0.7-0.2,1
		c-0.1,0.3-0.1,0.7-0.2,1c0,0.3-0.1,0.7,0,1c0,0.3,0,0.6,0.1,0.9c0,0.3,0.1,0.5,0.2,0.8c0.1,0.3,0.2,0.6,0.3,0.8
		c0.1,0.5,0.3,0.9,0.3,1.3c0,0.3,0,0.5,0,0.5l-0.1,0c0,0-0.1-0.2-0.3-0.4c-0.2-0.3-0.4-0.6-0.7-1.1c-0.1-0.2-0.3-0.5-0.4-0.8
		c-0.1-0.3-0.3-0.7-0.3-1c-0.1-0.4,0-0.7,0-1.1c0.1-0.4,0.1-0.7,0.2-1.1c0.2-0.7,0.4-1.4,0.6-2c0.1-0.3,0.2-0.6,0.3-0.9
		c0.1-0.3,0.1-0.6,0.1-0.8C1009.1,506.8,1009.1,506.1,1009.2,506.1L1009.2,506.1z"/>
</g>
<g>
	<path fill="#FFFFFF" d="M1011,511.9c0,0-0.3,1.5-0.5,3.8c0,0.3-0.1,0.6-0.1,0.9c0,0.3,0,0.7,0.1,0.9c0,0.3,0.2,0.6,0.3,0.9
		c0.1,0.3,0.3,0.7,0.5,0.9c0.1,0.1,0.2,0.4,0.3,0.4c0.1,0,0.1,0.1,0.1,0.1c0.1,0,0.1,0.1,0.2,0.1c0.3,0.2,0.7,0.3,1,0.6
		c0.4,0.2,0.6,0.6,0.9,0.9c0.2,0.3,0.4,0.7,0.6,1.1c0.3,0.7,0.7,1.4,1,2.1c0.3,0.7,0.5,1.5,0.5,2.3c0,0.4,0,0.8,0,1.1
		c0,0.4-0.1,0.7-0.1,1c-0.1,0.7-0.3,1.3-0.4,1.9c-0.1,0.6-0.3,1.1-0.5,1.5c-0.2,0.5-0.3,0.9-0.4,1.2c-0.3,0.6-0.5,1-0.5,1l-0.1,0
		c0,0,0.1-0.4,0.2-1c0.1-0.3,0.1-0.7,0.2-1.2c0.1-0.4,0.2-1,0.2-1.6c0.1-0.6,0.2-1.2,0.2-1.8c0-0.3,0.1-0.7,0.1-1c0-0.3,0-0.7,0-1
		c0-0.7-0.1-1.4-0.4-2.1c-0.2-0.7-0.5-1.4-0.8-2.1c-0.2-0.3-0.3-0.7-0.5-1c-0.2-0.3-0.4-0.6-0.7-0.8c-0.3-0.2-0.6-0.4-0.9-0.6
		c-0.1-0.1-0.2-0.1-0.3-0.2l-0.2-0.3c-0.2-0.2-0.2-0.3-0.3-0.5c-0.2-0.4-0.3-0.7-0.4-1c-0.1-0.3-0.3-0.7-0.3-1c-0.1-0.4,0-0.7,0-1
		c0-0.3,0.1-0.6,0.1-0.9C1010.6,513.4,1011,511.9,1011,511.9L1011,511.9z"/>
</g>
<g>
	<path fill="#FFFFFF" d="M998,529c0,0,0.1,0.1,0.2,0.2c0.2,0.1,0.4,0.3,0.7,0.5c0.3,0.3,0.6,0.6,1,0.9c0.4,0.3,0.8,0.8,1.2,1.2
		c0.2,0.2,0.5,0.4,0.8,0.5c0.1,0.1,0.3,0.1,0.4,0.2c0.2,0,0.3,0.1,0.5,0.1c0.3,0.1,0.7,0.1,1,0.1c0.4,0,0.7-0.1,1.1-0.2
		c0.3-0.1,0.7-0.3,1-0.4c0.3-0.1,0.7-0.4,1-0.6c0.7-0.4,1.4-0.9,2-1.4c0.6-0.5,1.2-1.1,1.6-1.8c0.4-0.7,0.7-1.3,0.9-2.1
		c0.2-0.7,0.4-1.4,0.5-2.1c0.1-0.7,0.1-1.3,0.1-1.9c0-0.3-0.1-0.6-0.2-0.8l-0.1-0.2c0,0,0-0.1,0-0.1l0-0.1c-0.1-0.1-0.1-0.2-0.2-0.4
		c-0.2-0.5-0.4-0.9-0.6-1.2c-0.1-0.3-0.3-0.5-0.4-0.7c-0.1-0.2-0.2-0.3-0.2-0.3l0.1-0.1c0,0,0.1,0.1,0.2,0.2
		c0.1,0.1,0.4,0.4,0.6,0.7c0.2,0.3,0.5,0.7,0.8,1.1c0.1,0.1,0.1,0.2,0.2,0.3l0.1,0.1c0,0.1,0,0.1,0.1,0.1l0.1,0.2
		c0.2,0.3,0.2,0.6,0.3,0.9c0.1,0.7,0.2,1.4,0.1,2.1c0,0.7-0.2,1.5-0.4,2.3c-0.2,0.8-0.6,1.6-1.1,2.3c-0.5,0.7-1.2,1.3-1.8,1.9
		c-0.7,0.5-1.4,1-2.2,1.4c-0.4,0.2-0.7,0.4-1.1,0.6c-0.4,0.1-0.8,0.3-1.2,0.4c-0.4,0-0.8,0.2-1.2,0.1c-0.4-0.1-0.8,0-1.2-0.2
		c-0.2-0.1-0.4-0.1-0.5-0.2c-0.2-0.1-0.3-0.2-0.5-0.3c-0.3-0.2-0.6-0.4-0.8-0.6c-0.5-0.4-0.8-0.9-1.2-1.3c-0.3-0.4-0.7-0.7-0.9-0.9
		c-0.2-0.3-0.5-0.4-0.6-0.6C998,529.1,998,529,998,529L998,529z"/>
</g>
<g>
	<path fill="#FFFFFF" d="M1003.1,533.3c0,0-0.2,0.1-0.6,0.4c-0.4,0.2-1,0.6-1.7,1.1c-0.7,0.5-1.5,1.1-2.2,2.1
		c-0.7,0.9-1.6,2-2.4,3.2c-0.8,1.2-1.6,2.6-2.1,4.2c-0.2,0.8-0.5,1.6-0.5,2.5c-0.1,0.8-0.1,1.7,0,2.7c0.1,1.8,0,3.7,0.2,5.6
		c0.1,0.9,0.2,1.9,0.5,2.8c0.1,0.5,0.4,0.8,0.6,1.2c0.3,0.4,0.6,0.8,0.9,1.2c0.3,0.4,0.6,0.8,0.8,1c0.3,0.2,0.6,0.2,1,0
		c0.3-0.1,0.5-0.2,0.7-0.2l0.4-0.1l0.2,0c0.1,0,0,0,0.1,0c-0.1,0.2,0-0.1,0-0.3c0-0.2,0.1-0.5,0.1-0.7c0.2-2,0.1-3.7,0.1-5.6
		c0-0.5,0-0.9,0-1.4c0-0.5,0.1-0.9,0.1-1.4c0-0.4,0.1-0.9,0.1-1.3c0.1-0.4,0.1-0.9,0.2-1.3c0.2-1.6,0.4-3.3,1.1-4.7
		c0.2-0.4,0.4-0.7,0.6-1c0.3-0.3,0.5-0.5,0.7-0.8c0.5-0.5,0.9-0.9,1.3-1.3c0.8-0.9,1.3-1.7,1.5-2.5c0.2-0.8,0-1.5-0.4-1.6
		c-0.1,0-0.2,0-0.3,0c-0.1,0-0.1,0-0.2,0c-0.1,0-0.2,0-0.2,0l0-0.1c0,0,0.1,0,0.2-0.1c0.1,0,0.1-0.1,0.2-0.1c0.1,0,0.2,0,0.3,0
		c0.5,0.2,0.8,1,0.7,1.9c-0.1,0.9-0.6,1.9-1.4,2.8c-0.4,0.4-0.8,0.9-1.3,1.4c-0.2,0.2-0.4,0.5-0.7,0.8c-0.2,0.3-0.4,0.5-0.5,0.8
		c-0.6,1.2-0.7,2.8-0.9,4.5c-0.1,0.8-0.2,1.7-0.2,2.6c0,0.4,0,0.9-0.1,1.3c0,0.4,0,0.9,0,1.4c0,1.8,0.1,3.8-0.2,5.7
		c-0.1,0.3-0.1,0.5-0.2,0.8c0,0.1,0,0.2-0.1,0.4c0,0.1-0.1,0.2-0.1,0.3c-0.1,0.1-0.2,0.2-0.3,0.3c-0.2,0.1-0.3,0.1-0.5,0.1l-0.3,0.1
		c-0.2,0-0.5,0.1-0.7,0.2c-0.3,0.1-0.5,0.2-0.9,0.2c-0.2,0-0.3,0-0.5-0.1c-0.2,0-0.3-0.1-0.4-0.2c-0.5-0.4-0.7-0.8-1-1.2
		c-0.3-0.4-0.5-0.8-0.8-1.2c-0.3-0.5-0.6-0.9-0.7-1.4c-0.3-1-0.4-2-0.5-3c-0.1-2,0-3.8-0.1-5.7c0-0.9,0-1.8,0.1-2.7
		c0.1-0.9,0.3-1.8,0.6-2.6c0.6-1.6,1.4-3,2.3-4.2c0.8-1.2,1.7-2.2,2.5-3.2c0.8-0.9,1.6-1.5,2.3-2c0.7-0.5,1.3-0.8,1.7-1.1
		C1002.9,533.3,1003.1,533.2,1003.1,533.3L1003.1,533.3z"/>
</g>
<g>
	<path fill="#FFFFFF" d="M982.9,559.9c0,0-0.6-0.3-1.4-1c-0.4-0.4-0.9-0.8-1.4-1.4c-0.5-0.6-1-1.3-1.4-2.1c-0.4-0.8-0.8-1.8-1.1-2.8
		c-0.2-0.5-0.2-1.1-0.4-1.6c-0.1-0.6-0.1-1.1-0.2-1.7c0-0.6,0-1.2,0-1.8c0-0.6,0-1.2,0.1-1.8c0-1.2,0.1-2.5,0.2-3.7
		c0.1-1.3,0.3-2.5,0.5-3.7c0.3-1.2,0.4-2.4,0.8-3.6c0.3-1.1,0.7-2.2,1.2-3.2c0.5-1,1-1.9,1.6-2.6c0.1-0.2,0.3-0.4,0.4-0.6
		c0.2-0.2,0.3-0.3,0.4-0.5c0.3-0.3,0.6-0.6,0.8-0.9c0.5-0.6,1-1,1.4-1.4c0.8-0.8,1.2-1.2,1.2-1.2l0.1,0.1c0,0-0.4,0.5-1,1.4
		c-0.3,0.4-0.7,1-1.2,1.6c-0.4,0.6-1,1.3-1.5,2c-0.5,0.7-0.9,1.6-1.4,2.6c-0.2,0.5-0.4,1-0.6,1.5c-0.2,0.5-0.3,1.1-0.5,1.6
		c-0.4,1.1-0.6,2.3-0.9,3.4c-0.2,1.2-0.5,2.4-0.6,3.6c-0.1,1.2-0.3,2.4-0.4,3.7c0,0.6-0.1,1.2-0.1,1.8c0,0.6,0,1.2,0,1.7
		c0,0.6,0.1,1.1,0.1,1.7c0.1,0.5,0.2,1.1,0.3,1.6c0.2,1,0.6,2,1,2.8c0.4,0.8,0.8,1.6,1.3,2.2c0.4,0.6,0.9,1.1,1.3,1.4
		C982.4,559.5,982.9,559.8,982.9,559.9L982.9,559.9z"/>
</g>
<g>
	<path fill="#FFFFFF" d="M969.5,517.1c0,0,0.9,1.3,2.4,3.2c0.4,0.5,0.8,0.9,1.3,1.4c0.2,0.2,0.5,0.5,0.7,0.7
		c0.3,0.2,0.5,0.5,0.8,0.7c0.3,0.2,0.6,0.4,0.9,0.6c0.3,0.2,0.6,0.4,1,0.5c0.3,0.1,0.7,0.3,1.1,0.4l0.5,0.2l0.6,0.1
		c0.4,0.1,0.7,0,1.1,0c0.4,0,0.7-0.1,1.1-0.2l0.5-0.2c0.1,0,0.2-0.1,0.2-0.1l0.3-0.1l0.5-0.3c0.2-0.1,0.3-0.2,0.4-0.3
		c0.5-0.4,0.9-0.9,1.3-1.4c0.4-0.5,0.7-1.1,1.1-1.6c0.1-0.1,0.2-0.2,0.4-0.4c0.1-0.1,0.2-0.1,0.4-0.2c0.2-0.1,0.3-0.1,0.5-0.2
		c0.1,0,0.3,0,0.4,0c0.5,0,1,0.1,1.3,0.2c0.3,0.1,0.6,0.2,0.8,0.3c0.2,0.1,0.2,0.2,0.2,0.2l0,0.1c0,0-0.1,0-0.3-0.1
		c-0.2,0-0.4-0.1-0.8-0.2c-0.3,0-0.7,0-1.2,0c-0.1,0-0.2,0.1-0.3,0.1c-0.1,0-0.2,0.1-0.3,0.1c-0.1,0.1-0.2,0.2-0.3,0.3
		c0,0-0.1,0.2-0.2,0.3c-0.6,0.9-1.1,2.3-2.5,3.4c-0.2,0.1-0.4,0.3-0.5,0.4l-0.5,0.3l-0.3,0.1c-0.2,0.1-0.2,0.1-0.3,0.1l-0.6,0.2
		c-0.4,0.1-0.8,0.1-1.3,0.1c-0.4,0-0.9,0-1.3-0.1l-0.6-0.1l-0.6-0.2c-0.4-0.1-0.8-0.3-1.1-0.5c-0.4-0.2-0.7-0.4-1-0.6
		c-0.3-0.2-0.6-0.5-0.9-0.7c-0.3-0.3-0.6-0.5-0.8-0.8c-0.3-0.3-0.5-0.5-0.7-0.8c-0.4-0.5-0.8-1.1-1.2-1.5
		C970.2,518.5,969.5,517.2,969.5,517.1L969.5,517.1z"/>
</g>
<g>
	<path fill="#FFFFFF" d="M983.3,524c0.6,0.1,1.2,0.2,1.8,0.3c0.3,0,0.6,0,0.9,0c0.3,0,0.6-0.1,0.9-0.1l0,0l0,0c1-0.1,2-0.2,3-0.1
		c0.5,0.1,1,0.2,1.5,0.4c0.5,0.2,1,0.5,1.3,1c0.3,0.4,0.6,0.7,1,1c0.4,0.3,0.7,0.6,1.1,0.8c0.4,0.2,0.8,0.5,1.2,0.6
		c0.4,0.2,0.9,0.3,1.3,0.4c0.4,0.1,0.9,0.1,1.3,0.1c0.4,0,0.9-0.1,1.2-0.3c0.4-0.1,0.9-0.4,1.3-0.6c0.4-0.3,0.8-0.4,1.2-0.7l0.6-0.4
		l0.5-0.5c0.2-0.1,0.3-0.3,0.5-0.5c0.1-0.2,0.3-0.3,0.4-0.5l0.4-0.6c0.1-0.2,0.2-0.4,0.3-0.6c0.2-0.4,0.3-0.9,0.5-1.4l0.1,0
		c0,0.5,0,1-0.2,1.5c-0.1,0.2-0.1,0.5-0.2,0.7l-0.3,0.7c-0.1,0.2-0.3,0.4-0.4,0.7c-0.1,0.2-0.3,0.4-0.5,0.6l-0.5,0.6l-0.6,0.5
		c-0.4,0.3-0.8,0.6-1.3,0.9l-0.6,0.3l-0.3,0.2l-0.1,0l-0.1,0l0,0l-0.2,0.1c-0.5,0.2-1.1,0.3-1.6,0.3c-0.5,0-1.1-0.1-1.6-0.2
		c-0.5-0.1-1-0.3-1.4-0.5c-0.5-0.2-0.9-0.5-1.3-0.7c-0.4-0.3-0.8-0.6-1.2-0.9c-0.4-0.3-0.7-0.7-1-1.1c-0.3-0.4-0.6-0.6-1-0.8
		c-0.4-0.2-0.9-0.3-1.3-0.4c-0.9-0.2-1.9-0.2-2.8-0.1l0,0c-0.3,0-0.6,0.1-0.9,0.1c-0.3,0-0.6,0-0.9-0.1
		C984.4,524.4,983.8,524.2,983.3,524L983.3,524z"/>
</g>
<g>
	<path fill="#FFFFFF" d="M980.4,525.6c0,0-0.1,0.5-0.4,1.3c-0.1,0.4-0.3,0.9-0.5,1.4c-0.1,0.2-0.2,0.5-0.3,0.8
		c-0.1,0.3-0.3,0.5-0.4,0.8c-0.1,0.3-0.3,0.5-0.4,0.8c-0.1,0.2-0.3,0.5-0.4,0.7c-0.3,0.4-0.6,0.8-0.8,1.1c-0.5,0.6-0.9,1.1-0.9,1.1
		l-0.1,0c0,0,0-0.6,0.3-1.4c0.1-0.2,0.2-0.4,0.3-0.7c0.1-0.2,0.2-0.4,0.4-0.7c0.2-0.2,0.3-0.4,0.5-0.6c0.2-0.2,0.3-0.4,0.5-0.7
		c0.2-0.2,0.3-0.4,0.5-0.6c0.1-0.2,0.3-0.5,0.4-0.7c0.3-0.4,0.5-0.9,0.7-1.2C980,526.1,980.3,525.6,980.4,525.6L980.4,525.6z"/>
</g>
<g>
	<path fill="#FFFFFF" d="M975.9,524.6c0,0-0.3,0.6-0.7,1.6c-0.2,0.5-0.5,1.1-1,1.7c-0.5,0.6-1.2,1.2-1.8,1.8
		c-0.7,0.6-1.2,1.5-1.8,2.4c-0.3,0.5-0.5,0.9-0.6,1.4c0,0.3-0.1,0.5,0,0.8l0,0.4l0,0.4c0,1.2-0.1,2.4-0.2,3.6
		c-0.1,1.2-0.2,2.5-0.4,3.7c-0.1,1.2-0.2,2.5-0.3,3.7c-0.1,1.2-0.2,2.4-0.3,3.6c-0.2,1.2-0.3,2.3-0.5,3.4c-0.2,1.1-0.2,2-0.3,3
		c0,0.9,0.1,1.8,0.2,2.5c0.1,0.8,0.1,1.4,0.1,2c0.1,1.1,0.1,1.7,0.1,1.7l-0.1,0c0,0-0.1-0.6-0.3-1.7c-0.1-0.5-0.2-1.2-0.4-1.9
		c-0.1-0.8-0.3-1.6-0.4-2.6c0-1,0-2,0.1-3.1c0.1-1.1,0.3-2.2,0.4-3.4c0.1-1.1,0.2-2.4,0.4-3.6c0.2-1.2,0.3-2.5,0.5-3.7
		c0.2-1.2,0.3-2.5,0.5-3.7c0.1-1.2,0.3-2.4,0.3-3.6l0-0.4l0-0.2l0-0.2c0-0.3,0-0.6,0.1-0.9c0.1-0.6,0.4-1.1,0.7-1.6
		c0.6-0.9,1.2-1.7,1.9-2.4c0.7-0.6,1.4-1.2,1.9-1.7c0.5-0.5,0.8-1.1,1.1-1.6C975.5,525.1,975.8,524.6,975.9,524.6L975.9,524.6z"/>
</g>
<g>
	<path fill="#FFFFFF" d="M966.8,574.4c0,0,0.1-0.3,0.2-0.8c0.1-0.5,0.2-1.2,0.2-2.1c0-0.2,0-0.5,0-0.7c0-0.2,0-0.5,0-0.7
		c0-0.5-0.2-1-0.3-1.5c-0.2-0.5-0.4-1-0.7-1.5c-0.3-0.5-0.5-1.1-0.8-1.6c-0.1-0.3-0.2-0.6-0.4-0.9c-0.1-0.3-0.2-0.6-0.3-0.9
		c-0.1-0.6-0.3-1.2-0.2-1.8c0-0.3,0.1-0.6,0.1-0.9c0.1-0.3,0.1-0.6,0.3-0.8c0.1-0.3,0.2-0.5,0.4-0.8c0.1-0.2,0.3-0.4,0.4-0.6
		c0.5-0.7,1-1.3,1.3-1.7c0.4-0.4,0.6-0.6,0.6-0.6l0.1,0.1c0,0-0.1,0.3-0.4,0.7c-0.2,0.5-0.5,1.2-0.9,2c-0.1,0.2-0.2,0.4-0.3,0.6
		c-0.1,0.2-0.1,0.4-0.2,0.6c-0.1,0.2-0.1,0.4-0.2,0.7c0,0.2-0.1,0.5-0.1,0.7c0,0.5,0,1,0.1,1.6c0.1,0.3,0.1,0.5,0.2,0.8l0.3,0.8
		c0.2,0.5,0.4,1.1,0.7,1.6c0.3,0.5,0.4,1.1,0.6,1.7c0.1,0.3,0.1,0.6,0.1,0.9c0,0.3,0.1,0.5,0,0.8c0,0.3,0,0.5,0,0.8
		c0,0.2-0.1,0.5-0.1,0.7c-0.1,0.9-0.3,1.6-0.4,2.1C967,574.1,966.9,574.4,966.8,574.4L966.8,574.4z"/>
</g>
<g>
	<path fill="#FFFFFF" d="M944.5,568.5c0,0-0.7-1-1.5-2.7c-0.4-0.9-0.8-1.9-0.8-3.1c0-0.6,0-1.2,0.2-1.9c0.1-0.3,0.3-0.6,0.4-0.9
		l0.5-0.8c0.7-1,1.3-2.1,1.9-3c0.3-0.5,0.5-0.9,0.7-1.4c0.2-0.5,0.3-0.9,0.5-1.3c0.3-0.9,0.4-1.6,0.6-2.1c0.2-0.5,0.3-0.8,0.3-0.8
		l0.1,0c0,0,0,0.3,0,0.9c0,0.3,0,0.6-0.1,1c0,0.4,0,0.8-0.1,1.3c0,0.2-0.1,0.5-0.1,0.7c-0.1,0.3-0.1,0.5-0.2,0.8
		c-0.2,0.5-0.4,1.1-0.7,1.6c-0.6,1-1.4,2-2.1,3l-0.5,0.7c-0.1,0.2-0.3,0.5-0.4,0.7c-0.2,0.5-0.3,1.1-0.3,1.6c0,1.1,0.3,2.1,0.6,3
		C943.9,567.4,944.5,568.5,944.5,568.5L944.5,568.5z"/>
</g>
<g>
	<path fill="#FFFFFF" d="M952,566.3c0,0-0.1-0.4-0.2-0.9c-0.1-0.6-0.4-1.4-0.8-2.5c-0.2-0.5-0.4-1-0.6-1.6c-0.2-0.6-0.5-1.2-0.8-1.7
		c-0.3-0.6-0.6-1.2-1-1.8c-0.4-0.6-0.7-1.2-1.1-1.9c-0.2-0.3-0.3-0.7-0.5-1c-0.1-0.4-0.2-0.7-0.3-1.1c0-0.4-0.1-0.7-0.1-1.1
		c0-0.4,0-0.7,0.1-1.1c0.1-0.7,0.2-1.3,0.3-1.9c0.1-0.6,0.3-1.2,0.3-1.7c0.1-0.5,0.2-1,0.2-1.4c0-0.4,0-0.8,0-1.1
		c-0.1-0.6-0.1-1-0.1-1l0.1,0c0,0,0.2,0.3,0.4,0.9c0.1,0.3,0.2,0.7,0.2,1.1c0,0.2,0.1,0.5,0.1,0.7c0,0.3,0,0.5,0,0.8
		c0,0.6-0.1,1.1-0.2,1.7c-0.1,0.6-0.2,1.3-0.3,1.9c0,0.3-0.1,0.6-0.1,0.9c0,0.3,0,0.6,0,1c0,0.3,0.1,0.6,0.2,1
		c0.1,0.3,0.2,0.6,0.4,1c0.3,0.6,0.6,1.3,0.9,1.9c0.3,0.6,0.6,1.3,0.9,1.9c0.3,0.6,0.5,1.2,0.7,1.8c0.2,0.6,0.4,1.1,0.5,1.7
		c0.3,1,0.5,1.9,0.6,2.5C952,565.9,952,566.2,952,566.3L952,566.3z"/>
</g>
<g>
	<path fill="#FFFFFF" d="M939.5,567c0.6,0.5,1.1,1,1.6,1.5c0.5,0.5,1,1.1,1.5,1.7c0.2,0.3,0.5,0.6,0.7,0.9c0.2,0.3,0.4,0.6,0.6,1
		c0.4,0.7,0.7,1.4,1,2l0.4,1c0.2,0.3,0.3,0.7,0.5,1c0.2,0.3,0.4,0.6,0.6,0.9c0.3,0.3,0.5,0.4,0.9,0.6l0.5,0.3l0.5,0.4
		c0.3,0.3,0.5,0.6,0.7,1c0.4,0.7,0.6,1.5,0.6,2.3l-0.4-0.2c0.7-0.8,1.3-1.6,2.1-2.4c0.7-0.8,1.5-1.5,2.2-2.2
		c0.7-0.7,1.2-1.5,1.7-2.5c0.5-0.9,0.9-1.8,1.2-2.8c0.1-0.2,0.1-0.5,0.2-0.7c0.1-0.2,0.1-0.5,0.1-0.7l0.2-1.6c0-1,0.1-2,0.1-3.1
		l0-1.5l-0.1-1.5c-0.1-1-0.3-2.1-0.4-3.1c-0.1-1-0.2-2.1-0.2-3.2c0-0.5,0-1.1,0.1-1.6c0-0.3,0.1-0.6,0.2-0.8l0.1-0.4l0-0.1l0.1-0.1
		l0.1-0.2c0.5-0.9,1.2-1.8,1.7-2.6c0.6-0.8,1.2-1.7,1.7-2.6c0.3-0.5,0.5-0.9,0.8-1.4l0.6-1.4l0.5-1.4c0.2-0.5,0.2-1,0.3-1.5
		c0.2-1,0.4-2,0.5-3.1c0.2-1,0.3-2.1,0.5-3.1l0,0l0,0l1.6-2.3l0.1,0.1l-1.4,2.4l0-0.1c-0.1,1-0.2,2.1-0.3,3.1
		c-0.1,1-0.2,2.1-0.4,3.1c-0.1,0.5-0.1,1-0.3,1.6l-0.4,1.5l-0.6,1.5c-0.2,0.5-0.5,0.9-0.7,1.4c-0.5,0.9-1,1.9-1.7,2.7
		c-0.6,0.9-1.2,1.6-1.7,2.6c-0.4,0.8-0.5,1.8-0.5,2.8c0,1,0.1,2,0.2,3.1c0.1,1,0.3,2,0.4,3.1c0,0.5,0.1,1.1,0.1,1.6l0,1.6
		c0,1-0.1,2.1-0.2,3.2l-0.2,1.5c0,0.3-0.1,0.5-0.1,0.8c-0.1,0.3-0.1,0.5-0.2,0.8c-0.3,1-0.8,2-1.3,2.9c-0.5,0.9-1.1,1.8-1.9,2.6
		c-0.8,0.7-1.6,1.3-2.3,2.1c-0.7,0.7-1.4,1.5-2.1,2.3l-0.5,0.6l0-0.7c0-0.7-0.1-1.4-0.5-2.1c-0.2-0.3-0.4-0.6-0.6-0.9l-0.4-0.4
		l-0.5-0.3c-0.3-0.2-0.7-0.4-0.9-0.7c-0.3-0.3-0.5-0.6-0.7-1c-0.2-0.3-0.3-0.7-0.5-1l-0.4-1c-0.3-0.7-0.6-1.4-0.9-2
		c-0.2-0.3-0.4-0.6-0.6-0.9c-0.2-0.3-0.4-0.6-0.7-0.9c-0.5-0.6-1-1.2-1.5-1.7C940.6,568.1,940,567.5,939.5,567L939.5,567z"/>
</g>
<g>
	<path fill="#FFFFFF" d="M932.2,547.5c0,0-0.7-0.1-1.7-0.4c-1-0.3-2.4-0.8-3.7-1.6c-0.3-0.2-0.6-0.4-0.9-0.7c-0.3-0.3-0.5-0.6-0.7-1
		c-0.1-0.3-0.2-0.6-0.3-1c0-0.2,0-0.4,0-0.5c0-0.2,0-0.3,0.1-0.5c0-0.3,0.2-0.6,0.2-0.8c0.1-0.2,0.2-0.4,0.3-0.5
		c0.2-0.3,0.4-0.3,0.4-0.3l0.1,0.1c0,0-0.1,0.2-0.2,0.5c0,0.1-0.1,0.3-0.1,0.5c0,0.2,0,0.4,0,0.7c0,0.2,0.1,0.5,0.1,0.7
		c0,0.2,0.2,0.6,0.3,0.9c0.1,0.2,0.2,0.5,0.4,0.7c0.2,0.2,0.4,0.5,0.7,0.7c1.1,0.9,2.4,1.5,3.3,1.9
		C931.6,547.2,932.3,547.5,932.2,547.5L932.2,547.5z"/>
</g>
<g>
	<path fill="#FFFFFF" d="M931.5,562.5c0,0-0.4-0.2-1-0.5c-0.6-0.3-1.5-0.8-2.5-1.6c-0.5-0.4-1-0.8-1.6-1.3c-0.5-0.5-1-1.1-1.5-1.7
		c-0.5-0.6-0.9-1.3-1.2-2.1c-0.3-0.8-0.5-1.6-0.8-2.4c-0.5-1.6-0.9-3.2-1-4.8c-0.1-0.8-0.1-1.5-0.1-2.3c0-0.7,0.1-1.4,0.2-2
		c0.1-0.6,0.3-1.2,0.5-1.7c0.1-0.2,0.2-0.5,0.3-0.7c0.1-0.2,0.2-0.4,0.3-0.5c0.2-0.3,0.4-0.5,0.5-0.7c0.1-0.2,0.2-0.2,0.2-0.2
		l0.1,0.1c0,0,0,0.1-0.1,0.3c-0.1,0.2-0.2,0.4-0.3,0.8c-0.1,0.3-0.2,0.7-0.3,1.2c-0.1,0.5-0.2,1-0.3,1.6c-0.1,0.6-0.1,1.2-0.1,1.9
		c0,0.7,0.1,1.4,0.1,2.1c0.1,1.5,0.4,3.1,0.8,4.7c0.2,0.8,0.4,1.6,0.6,2.3c0.2,0.7,0.6,1.4,1,2c0.4,0.6,0.9,1.2,1.4,1.7
		c0.5,0.5,1,0.9,1.4,1.3c0.9,0.8,1.8,1.3,2.4,1.7C931.2,562.3,931.5,562.5,931.5,562.5L931.5,562.5z"/>
</g>
<g>
	<path fill="#FFFFFF" d="M1018.1,531.7c0,0,0.8-0.6,1.8-1.7c0.3-0.3,0.5-0.6,0.8-0.9c0.2-0.3,0.5-0.7,0.7-1l0.2-0.3
		c0-0.1,0.1-0.2,0.1-0.3c0.1-0.2,0.1-0.5,0.2-0.7c0.1-0.5,0.2-0.9,0.2-1.4c0.1-0.5,0.1-1,0.1-1.4c0-0.5,0-0.9,0-1.4
		c0-0.4,0-0.9,0-1.3c0-0.4,0-0.8,0-1.2c0-0.4,0-0.7,0-1c0-0.3-0.1-0.5-0.1-0.8c0-0.4-0.1-0.7-0.1-0.7l0.1,0c0,0,0.1,0.2,0.3,0.6
		c0.1,0.2,0.2,0.4,0.3,0.7c0.1,0.3,0.2,0.6,0.2,1c0.1,0.4,0.1,0.8,0.1,1.2c0.1,0.4,0,0.9,0,1.4c0,0.5-0.1,1-0.2,1.4
		c-0.1,0.5-0.1,1-0.3,1.5c-0.1,0.5-0.2,1-0.4,1.5c-0.1,0.2-0.2,0.5-0.2,0.7c0,0.1-0.1,0.2-0.1,0.3l-0.2,0.3
		c-0.1,0.2-0.3,0.4-0.4,0.6c-0.2,0.2-0.3,0.3-0.4,0.5c-0.3,0.3-0.6,0.6-0.9,0.8C1019,531.2,1018.2,531.8,1018.1,531.7L1018.1,531.7z
		"/>
</g>
<g>
	<path fill="#FFFFFF" d="M1014.5,545.4c0,0,0.9-1.8,2.2-4.5c0.2-0.4,0.3-0.7,0.5-1c0.1-0.4,0.3-0.8,0.4-1.2c0.2-0.8,0.4-1.7,0.4-2.6
		c0.1-0.9,0.1-1.9,0-2.8c0-1-0.1-1.9-0.2-2.9c-0.1-1-0.3-1.9-0.5-2.9c-0.2-1-0.4-1.8-0.7-2.8c-0.1-0.5-0.2-0.9-0.3-1.3
		c-0.1-0.5-0.1-0.9-0.2-1.4c-0.1-0.9,0-1.7-0.1-2.4c0-0.7,0-1.4-0.1-2c-0.1-0.3-0.1-0.6-0.2-0.8c-0.1-0.2-0.1-0.5-0.2-0.7
		c-0.1-0.4-0.3-0.7-0.4-0.9c-0.1-0.2-0.1-0.3-0.1-0.3l0.1-0.1c0,0,0.1,0.1,0.2,0.3c0.1,0.2,0.4,0.5,0.6,0.9c0.1,0.2,0.2,0.4,0.3,0.7
		c0.1,0.3,0.2,0.5,0.3,0.8c0.2,0.6,0.3,1.3,0.4,2.1c0.1,0.8,0.1,1.6,0.2,2.4c0.1,0.4,0.1,0.8,0.2,1.2c0.1,0.4,0.2,0.9,0.3,1.3
		c0.2,0.9,0.5,1.9,0.6,2.8c0.1,1,0.3,2,0.4,3c0.1,1,0.1,2,0.1,3c0,1,0,2-0.2,2.9c-0.1,0.9-0.3,1.8-0.6,2.7c-0.1,0.4-0.3,0.8-0.5,1.2
		c-0.1,0.4-0.4,0.7-0.5,1C1015.5,543.7,1014.5,545.4,1014.5,545.4L1014.5,545.4z"/>
</g>
<g>
	<path fill="#FFFFFF" d="M1017.2,540.2c0,0,0.7,1.2,1.6,3c0.5,0.9,1,2,1.4,3.3c0.1,0.3,0.2,0.7,0.3,1c0,0.3,0.1,0.7,0.1,1
		c0.1,0.7,0.1,1.4,0.2,2.1c0.1,0.7,0,1.4,0,2.1c0,0.7-0.1,1.4-0.2,2l-0.1,0.5c0,0.2-0.1,0.3-0.1,0.5c-0.1,0.3-0.2,0.6-0.4,0.9
		c-0.3,0.6-0.7,1-1.1,1.4c-0.4,0.4-0.8,0.6-1.1,0.9c-0.3,0.3-0.5,0.5-0.7,0.8c-0.4,0.5-0.6,0.8-0.6,0.8l-0.1,0c0,0,0.1-0.3,0.4-0.9
		c0.1-0.3,0.3-0.6,0.5-1c0.3-0.4,0.6-0.7,0.9-1.1c0.3-0.4,0.6-0.8,0.8-1.3c0.1-0.2,0.2-0.4,0.3-0.8l0.1-0.4l0.1-0.5
		c0.1-0.6,0.3-1.2,0.3-1.9c0.1-0.7,0.1-1.3,0.1-2c0-0.7,0-1.3-0.1-2c0-0.3,0-0.7-0.1-1c-0.1-0.3-0.1-0.6-0.2-0.9
		c-0.3-1.2-0.8-2.3-1.2-3.3C1017.7,541.5,1017.1,540.3,1017.2,540.2L1017.2,540.2z"/>
</g>
<g>
	<path fill="#FFFFFF" d="M980.7,561c0,0,0.3,0.1,0.8,0.1c0.5,0,1.4-0.1,2-0.8c0.2-0.2,0.4-0.4,0.5-0.6c0.2-0.2,0.5-0.4,0.7-0.5
		c0.5-0.3,1.2-0.5,1.9-0.6c1.4-0.2,3.1,0.1,4.5,1.1c0.7,0.5,1.4,1,2.2,1.4c0.8,0.4,1.7,0.7,2.6,0.5c1.9-0.4,3.7-1.3,5.9-1.7
		c1.1-0.2,2.3-0.2,3.3,0.4c1,0.6,1.7,1.6,2.5,2.2c0.2,0.1,0.4,0.2,0.6,0.3l0.4,0c0.1,0,0.3,0,0.4,0.1c0.7,0.2,1.3,0.6,1.5,1.3
		c0,0.2,0.1,0.4,0.1,0.5c0,0.2,0,0.4-0.1,0.5c-0.1,0.4-0.3,0.6-0.4,0.8c-0.2,0.5-0.3,1-0.3,1.5c0,0.5,0,1.1,0.3,1.4
		c0.1,0.1,0.1,0.1,0.2,0.1l0,0l0.1,0l0.2,0.1c0.3,0.1,0.6,0.2,0.8,0.4c0.5,0.3,1,0.6,1.5,1.1c0.1,0.1,0.2,0.2,0.3,0.4
		c0.1,0.2,0.2,0.3,0.2,0.5c0.1,0.2,0,0.4,0.1,0.5l0,0.4c0,0.5,0.1,1.1,0.2,1.6c0.1,0.5,0.3,1,0.5,1.1c0,0.1,0.6-0.1,1-0.3
		c0.2-0.1,0.5-0.3,0.8-0.4c0.2-0.1,0.3-0.1,0.5-0.1c0.2,0,0.3,0,0.5,0c0.3,0,0.6,0.2,0.9,0.3c0.3,0.2,0.5,0.3,0.7,0.4
		c0.5,0.4,0.9,0.9,1.1,1.5c0.2,0.6,0,1.4-0.4,1.9c-0.4,0.5-0.9,0.7-1.4,0.9c-1,0.4-2,0.6-3.1,0.1c-0.3-0.2-0.5-0.4-0.6-0.5
		c-0.2-0.2-0.3-0.3-0.4-0.4c-0.3-0.2-0.7-0.4-1-0.5c-0.2,0-0.3,0-0.4,0c0,0,0,0-0.1,0l0,0l0,0l0,0c0,0-0.1,0.1-0.1,0.1
		c-0.1,0.1-0.1,0.1-0.4,0.2c-0.5,0.1-0.6-0.1-0.8-0.2c-0.2-0.1-0.3-0.2-0.5-0.3c-0.3-0.2-0.6-0.2-1-0.3c-0.4-0.1-0.7-0.2-1-0.2
		c-0.6-0.1-1.1,0.3-1.5,0.7c-0.4,0.4-0.7,0.9-1,1.2c-0.3,0.4-0.6,0.7-0.9,1c-0.3,0.2-0.6,0.5-0.8,0.6c-0.5,0.2-0.8,0.3-0.8,0.3
		l0-0.1c0,0,0.2-0.1,0.7-0.4c0.2-0.1,0.4-0.4,0.7-0.6c0.2-0.3,0.5-0.6,0.8-1c0.3-0.4,0.6-0.9,1-1.4c0.1-0.1,0.2-0.2,0.3-0.4
		c0.1-0.1,0.2-0.2,0.4-0.3c0.3-0.2,0.7-0.3,1.1-0.3c0.4,0,0.7,0.1,1.1,0.2c0.3,0.1,0.8,0.1,1.2,0.3c0.2,0.1,0.4,0.2,0.5,0.3
		c0.1,0.1,0.4,0.1,0.3,0.1c-0.1,0.1,0.1-0.1,0.2-0.1c0.1,0-0.1,0.1,0,0l0,0l0.1,0l0.1-0.1c0.1,0,0.1-0.1,0.2-0.1
		c0.3-0.1,0.6-0.1,0.8,0c0.5,0.1,0.9,0.3,1.3,0.6c0.2,0.2,0.4,0.3,0.5,0.5c0.1,0.1,0.2,0.2,0.2,0.2c0,0.1,0.1,0.1,0.2,0.1
		c0.6,0.3,1.6,0.1,2.4-0.2c0.4-0.2,0.8-0.4,1-0.7c0.2-0.3,0.3-0.6,0.2-0.9c-0.1-0.3-0.4-0.7-0.7-0.9c-0.2-0.1-0.5-0.3-0.6-0.4
		c-0.2-0.1-0.4-0.2-0.6-0.2c-0.4-0.1-0.7,0-1.2,0.3c-0.2,0.1-0.6,0.3-0.8,0.4l-0.2,0.1l0,0c-0.1,0-0.1,0-0.1,0l-0.2,0
		c-0.2,0-0.5-0.1-0.7-0.2c-0.4-0.3-0.5-0.6-0.7-0.9c-0.1-0.3-0.2-0.6-0.3-0.9c-0.1-0.6-0.2-1.1-0.2-1.7l0-0.4c0-0.1,0-0.3,0-0.3
		c0-0.1,0-0.1-0.1-0.2c0-0.1-0.1-0.2-0.2-0.3c-0.3-0.4-0.8-0.7-1.2-0.9c-0.2-0.1-0.4-0.2-0.7-0.3l-0.2-0.1c0,0-0.1,0-0.1,0l-0.1-0.1
		c-0.2-0.1-0.4-0.2-0.5-0.4c-0.4-0.7-0.4-1.3-0.4-1.9c0-0.6,0.2-1.2,0.4-1.8c0.2-0.3,0.3-0.5,0.4-0.7c0-0.1,0-0.2,0.1-0.3l0-0.3
		c-0.1-0.4-0.5-0.7-0.9-0.8c-0.1,0-0.3,0-0.4-0.1l-0.4,0c-0.3-0.1-0.7-0.2-0.9-0.4c-1-0.8-1.5-1.7-2.4-2.2c-0.2-0.1-0.4-0.2-0.7-0.3
		c-0.3-0.1-0.5-0.1-0.7-0.1l-0.4,0l-0.4,0c-0.3,0-0.5,0-0.8,0.1c-2,0.4-3.9,1.2-5.9,1.6c-1,0.2-2-0.2-2.8-0.6
		c-0.8-0.5-1.5-1-2.2-1.5c-1.3-1-2.9-1.3-4.3-1.1c-1.4,0.2-2.4,0.7-3,1.5c-0.7,0.8-1.6,0.8-2.1,0.8
		C980.9,561.2,980.7,561.1,980.7,561L980.7,561z"/>
</g>
<g>
	<path fill="#FFFFFF" d="M1015,571.2c0.3,0.2,0.6,0.4,1,0.5c0.3,0.2,0.7,0.2,1.1,0.3c0.4,0,0.7,0.1,1.1,0.1c0.4,0,0.7-0.1,1.1-0.2
		c0.3-0.1,0.7-0.2,1-0.4c0.3-0.2,0.7-0.3,1-0.5c0.3-0.2,0.6-0.4,0.9-0.6c0.3-0.2,0.4-0.5,0.6-0.8l0.2-0.5l0.1-0.5
		c0.1-0.3,0-0.7,0-1.1c0-0.3-0.1-0.7-0.1-1.1l-0.2-1l-0.3-1l-0.4-1c-0.3-0.7-0.6-1.4-0.9-2l0-0.1l0,0c0,0,0-0.1-0.1-0.1
		c0,0-0.1-0.1-0.1-0.1c-0.1-0.1-0.2-0.1-0.4-0.1c-0.2,0-0.3,0-0.5,0c0,0-0.2,0-0.3,0.1l-0.3,0.1c-0.4,0.1-0.8,0.2-1.2,0.3
		c-0.4,0.1-0.8,0.2-1.2,0.3l0-0.1c0.4-0.2,0.7-0.4,1.1-0.6c0.4-0.2,0.8-0.3,1.1-0.5l0.3-0.1c0.1,0,0.2-0.1,0.3-0.1
		c0.2-0.1,0.4-0.1,0.7-0.1c0.2,0,0.5,0,0.8,0.2c0.1,0.1,0.2,0.1,0.4,0.2c0.1,0.1,0.2,0.2,0.3,0.4l0-0.1c0.4,0.7,0.7,1.4,1,2.1
		c0.1,0.4,0.3,0.7,0.4,1.1l0.3,1.1l0.2,1.2c0,0.4,0,0.7,0,1.2c0,0.4,0,0.8-0.1,1.2c0,0.2-0.1,0.4-0.1,0.6l-0.2,0.6
		c-0.2,0.4-0.5,0.7-0.8,1c-0.3,0.3-0.7,0.5-1,0.6c-0.3,0.2-0.7,0.3-1,0.5c-0.3,0.2-0.7,0.3-1.1,0.4c-0.4,0.1-0.8,0.1-1.2,0.2
		c-0.4,0-0.8-0.1-1.2-0.1c-0.4-0.1-0.7-0.2-1.1-0.4C1015.6,571.7,1015.3,571.5,1015,571.2L1015,571.2z"/>
</g>
<g>
	<path fill="#FFFFFF" d="M975,570c-0.3,0-0.7-0.1-1-0.1c-0.3-0.1-0.7-0.2-1-0.3c-0.3-0.1-0.7-0.2-1-0.2c-0.3,0-0.6,0-0.9,0.2
		c-0.3,0.1-0.5,0.4-0.8,0.6c-0.3,0.2-0.5,0.5-0.7,0.7c-0.2,0.3-0.4,0.5-0.6,0.8l-0.5,0.9c-0.4,0.6-0.7,1.2-1,1.8
		c-0.3,0.6-0.6,1.2-0.9,1.8l-0.1,0.2l-0.1,0.2l-0.2,0.5l-0.5,0.9l-0.5,0.9c-0.2,0.3-0.4,0.6-0.6,0.9l0,0l0,0c-0.5,0.4-1,0.9-1.6,1.3
		c-0.5,0.4-1.1,0.8-1.7,1.1c-0.3,0.1-0.7,0.3-1,0.4c-0.3,0.1-0.6,0.2-1,0.3c-0.7,0.2-1.3,0.3-2.1,0.3c-0.4,0-0.7-0.1-1.1-0.2
		c-0.4-0.2-0.7-0.5-0.9-0.8c-0.2-0.3-0.3-0.6-0.4-0.9c-0.1-0.3-0.3-0.6-0.4-0.9c-0.1-0.3-0.2-0.6-0.3-1c-0.1-0.3-0.1-0.7-0.1-1.1
		c0-0.4,0.2-0.7,0.3-1c0.1-0.3,0.4-0.6,0.5-0.9l0.1,0.1c-0.1,0.3-0.3,0.6-0.4,0.9c0,0.3-0.1,0.6-0.1,0.9c0,0.3,0.1,0.6,0.2,0.9
		c0.1,0.3,0.2,0.6,0.4,0.8l0.5,0.8c0.2,0.3,0.3,0.6,0.5,0.8c0.2,0.4,0.8,0.5,1.3,0.5c0.6,0,1.2-0.1,1.8-0.3l0.9-0.2
		c0.3-0.1,0.6-0.2,0.8-0.3c0.6-0.3,1.1-0.6,1.6-0.9c0.5-0.4,1.1-0.7,1.6-1.1l0,0c0.2-0.3,0.4-0.4,0.6-0.8l0.5-0.9l0.5-0.9l0.3-0.4
		l0.1-0.2l0.1-0.2c0.3-0.6,0.7-1.2,1-1.8c0.4-0.6,0.7-1.2,1.1-1.8l0.6-0.9c0.2-0.3,0.5-0.5,0.7-0.8c0.2-0.3,0.5-0.5,0.8-0.7
		c0.3-0.2,0.6-0.5,0.9-0.6c0.3-0.2,0.7-0.2,1.1-0.2c0.4,0.1,0.7,0.2,1,0.3c0.3,0.1,0.6,0.2,1,0.3C974.3,569.8,974.7,569.8,975,570
		L975,570z"/>
</g>
<g>
	<path fill="#FFFFFF" d="M949.4,581.6c0,0,0,0.7,0,1.9c0,0.6,0,1.3,0,2.2c0,0.8,0,1.8,0.1,2.8c0,0.3,0.1,0.5,0.1,0.8
		c0,0.3,0.1,0.5,0.2,0.8c0.1,0.5,0.3,1.1,0.5,1.6c0.4,1.1,0.9,2.3,1.4,3.4c0.5,1.2,1.1,2.4,1.8,3.5c0.2,0.3,0.4,0.6,0.5,0.9
		c0.1,0.1,0.2,0.3,0.3,0.4l0.3,0.4c0.4,0.6,0.9,1,1.4,1.4c0.5,0.4,1,0.9,1.6,1.2l0.8,0.5l0.9,0.4c0.6,0.3,1.2,0.5,1.8,0.7
		c0.6,0.2,1.2,0.3,1.8,0.4c0.6,0.1,1.2,0.1,1.8,0.2c0.6,0,1.2,0,1.8,0.1c1.2,0.1,2.3,0.2,3.2,0.1c1-0.1,1.8-0.5,2.4-1
		c0.6-0.5,1.2-1,1.6-1.4c0.4-0.4,0.7-0.8,1-1c0.2-0.2,0.3-0.4,0.3-0.4l0.1,0.1c0,0-0.1,0.1-0.3,0.4c-0.2,0.3-0.5,0.7-0.8,1.1
		c-0.4,0.5-0.9,1.1-1.5,1.6c-0.6,0.6-1.5,1.2-2.6,1.4c-1.1,0.2-2.3,0.1-3.4,0.1c-0.6,0-1.2,0-1.8,0c-0.6,0-1.3-0.1-2-0.2
		c-0.7-0.2-1.3-0.3-2-0.5c-0.6-0.3-1.3-0.5-1.9-0.8l-0.9-0.5c-0.3-0.2-0.6-0.4-0.9-0.6c-0.6-0.4-1.1-0.9-1.7-1.3
		c-0.5-0.5-1.1-1-1.4-1.6l-0.3-0.4c-0.1-0.2-0.2-0.3-0.3-0.5c-0.2-0.3-0.4-0.6-0.5-0.9c-0.6-1.2-1.2-2.4-1.7-3.6
		c-0.5-1.2-1-2.4-1.3-3.5c-0.2-0.6-0.4-1.1-0.5-1.7c-0.1-0.3-0.1-0.6-0.2-0.8c0-0.3-0.1-0.5-0.1-0.8c0-1.1,0-2,0-2.8
		c0-0.8,0-1.6,0-2.2C949.3,582.3,949.3,581.6,949.4,581.6L949.4,581.6z"/>
</g>
<g>
	<path fill="#FFFFFF" d="M972.4,605.2c0,0,0.5,0.3,1.3,0.9c0.8,0.6,2,1.3,3.3,2.4c0.7,0.5,1.4,1.1,2.2,1.6c0.8,0.6,1.6,1.2,2.4,1.9
		c0.8,0.7,1.6,1.4,2.5,2.1c0.9,0.7,1.8,1.3,2.7,1.8c1,0.5,2,1,3,1.3c0.5,0.2,1,0.2,1.5,0.3c0.2,0,0.5,0.1,0.7,0.1c0.3,0,0.5,0,0.8,0
		c0.5,0,1,0,1.5,0c0.5,0,1,0,1.4-0.1c0.5-0.1,0.9-0.1,1.4-0.2c0.4-0.1,0.9-0.2,1.3-0.2c0.8-0.2,1.5-0.4,2.2-0.6
		c0.6-0.2,1.2-0.5,1.6-0.7c0.4-0.2,0.8-0.4,1-0.5c0.2-0.1,0.4-0.2,0.4-0.2l0.1,0.1c0,0-0.1,0.1-0.3,0.3c-0.2,0.2-0.5,0.4-0.9,0.7
		c-0.4,0.3-0.9,0.6-1.6,0.9c-0.6,0.3-1.4,0.6-2.2,0.9c-0.4,0.1-0.9,0.2-1.3,0.3c-0.5,0.1-0.9,0.2-1.4,0.3c-0.5,0.1-1,0.1-1.5,0.1
		c-0.5,0-1.1,0-1.6,0c-0.3,0-0.5,0-0.8,0c-0.3,0-0.6-0.1-0.9-0.1c-0.6-0.1-1.1-0.2-1.7-0.4c-1.1-0.3-2.1-0.9-3.1-1.5
		c-2-1.2-3.7-2.7-5.2-4.2c-0.8-0.7-1.6-1.3-2.3-2c-0.7-0.6-1.5-1.2-2.1-1.7c-1.3-1.1-2.4-1.9-3.2-2.5
		C972.8,605.6,972.3,605.3,972.4,605.2L972.4,605.2z"/>
</g>
<g>
	<path fill="#FFFFFF" d="M993,618c0,0,0.3,0.3,0.9,0.8c0.3,0.2,0.7,0.4,1.2,0.7c0.2,0.1,0.5,0.2,0.8,0.3c0.3,0.1,0.6,0.1,0.9,0.2
		c1.3,0.1,2.9,0.2,4.5,0.3c0.8,0.1,1.7,0.1,2.6,0.3c0.9,0.2,1.8,0.5,2.6,0.6c0.8,0.1,1.7,0.1,2.5,0c0.8-0.1,1.6-0.3,2.4-0.5
		c0.4-0.1,0.8-0.3,1.1-0.4c0.3-0.2,0.7-0.3,1-0.5c0.6-0.3,1.2-0.8,1.6-1.2c0.2-0.2,0.4-0.4,0.5-0.7c0.1-0.2,0.3-0.5,0.4-0.7
		c0.2-0.5,0.2-0.9,0.3-1.3c0-0.4,0-0.7,0-0.9c0-0.2,0-0.3,0-0.3l0.1,0c0,0,0,0.1,0.1,0.3c0,0.2,0.2,0.5,0.2,0.9c0,0.2,0,0.4,0,0.7
		c0,0.3-0.1,0.5-0.1,0.8c0,0.3-0.2,0.6-0.3,0.9c-0.1,0.3-0.3,0.6-0.5,0.9c-0.4,0.6-1,1.1-1.7,1.6c-0.3,0.3-0.7,0.4-1,0.6
		c-0.4,0.2-0.8,0.3-1.2,0.5c-0.8,0.2-1.7,0.4-2.6,0.5c-0.9,0.1-1.8,0-2.7-0.1c-1-0.1-1.8-0.5-2.6-0.7c-0.8-0.2-1.7-0.3-2.5-0.4
		c-1.6-0.2-3.2-0.3-4.5-0.5c-0.3-0.1-0.7-0.2-1-0.2c-0.3-0.1-0.6-0.2-0.8-0.3c-0.5-0.2-0.9-0.5-1.2-0.7
		C993.3,618.5,993,618.1,993,618L993,618z"/>
</g>
<g>
	<path fill="#FFFFFF" d="M997.7,620.2c0,0,0.7,1,2.1,2c0.7,0.5,1.6,1,2.6,1.5c0.3,0.1,0.5,0.2,0.8,0.3c0.3,0.1,0.5,0.2,0.8,0.2
		c0.5,0.1,1.1,0.3,1.7,0.3c0.6,0.1,1.1,0,1.7,0.1c0.6,0,1.1-0.1,1.7-0.1c0.6,0,1.1,0,1.6,0c0.3,0,0.5,0,0.7,0c0.2,0,0.4,0,0.7-0.1
		c0.4,0,0.8,0,1.2-0.1c0.4,0,0.6-0.1,0.9-0.1c0.2,0,0.5-0.1,0.6-0.1c0.1,0,0.2-0.1,0.2-0.1l0.1,0.1c0,0-0.1,0.1-0.2,0.2
		c-0.1,0.1-0.3,0.2-0.5,0.3c-0.2,0.1-0.5,0.3-0.9,0.3c-0.4,0.1-0.8,0.2-1.2,0.3c-0.2,0-0.5,0.1-0.7,0.2c-0.2,0-0.5,0-0.7,0.1
		c-0.5,0-1,0.1-1.6,0.1c-0.6,0-1.1,0-1.7,0c-0.6-0.1-1.2-0.1-1.8-0.2c-0.6-0.1-1.2-0.3-1.8-0.4c-0.3-0.1-0.6-0.2-0.8-0.3
		c-0.3-0.1-0.5-0.2-0.8-0.4c-1-0.5-1.9-1.1-2.5-1.7C998.2,621.3,997.6,620.3,997.7,620.2L997.7,620.2z"/>
</g>
<g>
	<path fill="#FFFFFF" d="M1002.2,624.4c0,0,0,0.2,0.1,0.4c0.1,0.3,0.2,0.7,0.6,1.1c0.2,0.2,0.4,0.4,0.7,0.6c0.3,0.1,0.7,0.2,1,0.4
		c0.7,0.3,1.4,0.9,2.2,1.5c0.4,0.3,0.7,0.7,1.1,1c0.4,0.4,0.7,0.8,1.1,1c0.9,0.4,2.1,0.4,3.2,0.3c0.3,0,0.6-0.1,0.9-0.2
		c0.3,0,0.5-0.2,0.8-0.3c0.5-0.2,1.1-0.5,1.6-0.8c1-0.7,2-1.4,2.9-2.3c0.4-0.4,0.8-0.9,1.2-1.4l0.3-0.4l0.1-0.2l0.1-0.2l0.5-0.8
		c0.1-0.3,0.3-0.5,0.4-0.8l0.3-0.8c0.2-0.5,0.4-1.1,0.6-1.6c0.1-0.6,0.3-1.1,0.4-1.6c0.1-0.5,0.1-1.1,0.2-1.6
		c0.1-1.1,0.1-2.1-0.1-2.9c-0.2-0.8-0.7-1.5-1.3-1.9c-0.2-0.1-0.3-0.2-0.5-0.4c-0.1-0.1-0.3-0.3-0.4-0.4c-0.2-0.3-0.4-0.5-0.5-0.8
		c-0.3-0.5-0.5-0.9-0.6-1.1c-0.2-0.2-0.2-0.4-0.2-0.4l0.1-0.1c0,0,0.1,0.1,0.3,0.3c0.2,0.2,0.4,0.6,0.8,1c0.2,0.2,0.4,0.4,0.6,0.7
		c0.1,0.1,0.2,0.2,0.4,0.3c0.1,0.1,0.3,0.2,0.5,0.3c0.7,0.4,1.5,1.1,1.8,2.1c0.3,1,0.4,2.1,0.3,3.2c-0.1,0.6-0.1,1.1-0.2,1.7
		c-0.1,0.6-0.3,1.2-0.4,1.8c-0.1,0.6-0.4,1.2-0.6,1.8c-0.1,0.3-0.3,0.6-0.4,0.9c-0.1,0.3-0.3,0.5-0.5,0.8l-0.5,0.8l-0.1,0.2
		c-0.1,0.1-0.1,0.1-0.2,0.2l-0.3,0.4c-0.4,0.5-0.9,1-1.3,1.4c-0.9,0.9-2,1.7-3.1,2.3c-1.1,0.6-2.4,1.1-3.6,1.2
		c-1.2,0.1-2.4,0-3.5-0.5c-0.5-0.3-0.9-0.7-1.2-1.1c-0.3-0.4-0.7-0.7-1-1.1c-0.7-0.6-1.4-1.2-2-1.5c-0.3-0.2-0.7-0.3-1-0.4
		c-0.3-0.2-0.5-0.4-0.7-0.6c-0.3-0.5-0.5-0.9-0.5-1.2C1002.1,624.6,1002.1,624.4,1002.2,624.4L1002.2,624.4z"/>
</g>
<g>
	<path fill="#FFFFFF" d="M1005.5,602.7c1-0.3,2.1-0.4,3.1-0.2c0.5,0.1,1,0.3,1.5,0.6c0.5,0.2,0.9,0.6,1.3,1c0.7,0.7,1.4,1.5,2.2,2.1
		c0.8,0.7,1.6,1.3,2.5,1.7c0.9,0.4,1.9,0.7,2.8,0.5c0.2,0,0.5-0.1,0.7-0.2l0.2-0.1l0,0c0,0,0,0,0,0l0.1,0l0.3-0.2l0.7-0.4l0.6-0.4
		c0.4-0.3,0.8-0.6,1.2-0.9c0.4-0.3,0.7-0.7,1.1-1c0.7-0.7,1.4-1.5,2-2.2l-0.1,0.5c-0.4-1.1-0.7-2.2-1-3.3l0.8,0.3
		c-0.4,0.3-0.7,0.5-1.1,0.7c-0.4,0.2-0.8,0.4-1.2,0.5c-0.8,0.3-1.7,0.5-2.6,0.4c-0.2,0-0.5-0.1-0.6-0.2l-0.6-0.2
		c-0.4-0.1-0.8-0.3-1.1-0.4c-0.4-0.1-0.8-0.2-1.2-0.3l-1.2-0.3l0-0.1c0.8,0,1.6,0.1,2.5,0.3c0.4,0.1,0.8,0.2,1.2,0.3l0.6,0.2
		c0.2,0.1,0.4,0.1,0.5,0.1c0.7,0.1,1.5-0.2,2.2-0.5c0.7-0.3,1.4-0.7,2-1.2l0.6-0.4l0.2,0.7c0.3,1.1,0.7,2.2,1,3.2l0.1,0.3l-0.2,0.2
		c-0.7,0.8-1.4,1.5-2.2,2.3c-0.4,0.3-0.8,0.7-1.2,1c-0.4,0.3-0.8,0.7-1.3,0.9l-0.7,0.4l-0.7,0.3l-0.3,0.2l-0.1,0l-0.1,0l0,0
		l-0.2,0.1c-0.3,0.1-0.5,0.2-0.8,0.2c-1.1,0.2-2.2-0.2-3.2-0.7c-1.9-1-3.3-2.6-4.6-4.1c-0.3-0.4-0.7-0.7-1.1-1
		c-0.4-0.3-0.9-0.5-1.4-0.6C1007.5,602.5,1006.5,602.5,1005.5,602.7L1005.5,602.7z"/>
</g>
<g>
	<path fill="#FFFFFF" d="M1025,600c0,0,0-0.1-0.1-0.2c0-0.1-0.1-0.2-0.2-0.4c-0.1-0.2-0.3-0.4-0.5-0.6c-0.2-0.2-0.4-0.4-0.7-0.7
		c-0.3-0.2-0.6-0.4-0.9-0.7c-0.2-0.1-0.3-0.2-0.5-0.4c-0.2-0.1-0.4-0.2-0.6-0.3c-0.4-0.2-0.8-0.5-1.2-0.6c-0.4-0.2-0.8-0.2-1.2-0.3
		c-0.4,0-0.9,0.1-1.4,0.1c-0.4,0.1-0.9,0.1-1.3,0.2c-0.9,0.1-1.7,0.1-2.4,0.2c-0.3,0-0.7,0.1-0.9,0.1c-0.3,0-0.5,0.1-0.7,0.1
		c-0.4,0-0.7,0.1-0.7,0.1l0-0.1c0,0,0.8-0.5,2.2-0.9c0.4-0.1,0.7-0.2,1.1-0.3c0.4-0.1,0.8-0.1,1.3-0.2c0.5-0.1,0.9-0.1,1.4-0.1
		c0.5,0,1,0,1.5,0c0.5,0,1.1,0.2,1.5,0.4c0.4,0.2,0.8,0.5,1.2,0.8c0.4,0.3,0.7,0.5,1,0.8c0.3,0.3,0.6,0.5,0.9,0.8
		c0.3,0.2,0.4,0.5,0.6,0.8c0.2,0.2,0.3,0.4,0.4,0.6C1025,599.8,1025,600,1025,600L1025,600z"/>
</g>
<g>
	<path fill="#FFFFFF" d="M995.5,599.7c0,0,0.1,0,0.3,0.1c0.2,0.1,0.4,0.3,0.8,0.4c0.6,0.4,1.6,0.9,2.9,1c0.6,0,1.3-0.1,1.9-0.4
		c0.7-0.3,1.3-0.7,1.9-1.2c0.6-0.5,1.3-1,2-1.5c0.7-0.5,1.4-1.1,2.4-1.3c0.2-0.1,0.5-0.1,0.8-0.1l0.6,0c0.2,0,0.4-0.1,0.6-0.1
		c0.2,0,0.3-0.1,0.5-0.2c0.7-0.3,1.3-0.8,1.9-1.3c0.6-0.5,1.1-1.1,1.5-1.6c0.5-0.6,0.9-1.1,1.3-1.6c0.4-0.5,0.9-0.9,1.4-1.3
		c0.2-0.2,0.5-0.3,0.7-0.4c0.1,0,0.2-0.1,0.3-0.1c0.1,0,0.2,0,0.3,0c0.4-0.1,0.7,0,0.9,0c0.2,0,0.3,0,0.3,0l0,0.1c0,0-0.1,0-0.3,0
		c-0.2,0-0.5,0-0.8,0.2c-0.1,0-0.2,0.1-0.3,0.1c-0.1,0.1-0.2,0.1-0.3,0.2c-0.2,0.1-0.4,0.2-0.5,0.4c-0.4,0.3-0.7,0.8-1.1,1.3
		c-0.4,0.5-0.8,1.1-1.2,1.7c-0.4,0.6-1,1.2-1.6,1.8c-0.6,0.6-1.4,1.1-2.2,1.4c-0.2,0.1-0.4,0.2-0.7,0.2c-0.2,0-0.5,0.1-0.7,0.1
		l-0.7,0c-0.2,0-0.3,0-0.5,0c-0.7,0.2-1.5,0.6-2.1,1.1c-0.7,0.5-1.4,1-2,1.4c-0.7,0.4-1.4,0.9-2.1,1.1c-0.7,0.3-1.5,0.4-2.2,0.3
		c-1.3-0.2-2.3-0.8-2.9-1.2c-0.3-0.2-0.6-0.4-0.7-0.5C995.6,599.8,995.5,599.8,995.5,599.7L995.5,599.7z"/>
</g>
<g>
	<path fill="#FFFFFF" d="M1018.8,578.4c0,0,0.4-0.1,1.1,0c0.4,0,0.8,0.1,1.2,0.3c0.5,0.2,0.9,0.6,1.1,1.3c0.2,0.6,0.4,1.2,0.7,1.8
		c0.3,0.6,0.7,1.2,0.8,2.1c0,0.4-0.2,0.9-0.4,1.2c-0.2,0.3-0.5,0.6-0.7,0.9c-0.4,0.6-0.8,1.3-1,2l-0.1,0.5c0,0.2,0,0.3,0.1,0.5
		c0.1,0.2,0.4,0.7,0.4,1.3c-0.1,1-0.5,1.7-0.7,2.3c-0.3,0.7-0.4,1.3-0.2,1.7c0.1,0.2,0.3,0.6,0.5,0.8c0.2,0.2,0.3,0.5,0.5,0.7
		c0.4,0.5,0.7,0.9,1,1.3c0.3,0.4,0.6,0.7,0.8,1c0.4,0.6,0.7,0.9,0.7,0.9l-0.1,0.1c0,0-0.3-0.2-0.9-0.7c-0.3-0.2-0.6-0.5-0.9-0.9
		c-0.3-0.3-0.8-0.7-1.2-1.2c-0.2-0.2-0.4-0.5-0.6-0.8c-0.2-0.3-0.4-0.5-0.6-0.9c-0.2-0.4-0.2-0.9-0.2-1.3c0.1-0.4,0.2-0.8,0.3-1.2
		c0.3-0.7,0.7-1.4,0.7-2c0-0.2-0.1-0.4-0.3-1c-0.1-0.2-0.1-0.5-0.1-0.7c0-0.2,0.1-0.5,0.1-0.7c0.2-0.9,0.7-1.6,1.2-2.2
		c0.2-0.3,0.5-0.6,0.7-0.9c0.2-0.3,0.3-0.6,0.3-0.9c0-0.6-0.4-1.3-0.6-1.9c-0.3-0.6-0.4-1.3-0.6-1.9c-0.2-0.5-0.5-0.9-0.9-1.1
		c-0.4-0.2-0.8-0.3-1.2-0.4C1019.2,578.4,1018.8,578.5,1018.8,578.4L1018.8,578.4z"/>
</g>
<g>
	<path fill="#FFFFFF" d="M1022.5,614c0,0,0.2,0,0.4-0.2c0.3-0.2,0.6-0.5,0.8-1c0.2-0.2,0.3-0.5,0.4-0.8c0.2-0.3,0.3-0.6,0.4-0.9
		c0.1-0.3,0.3-0.6,0.4-1c0.1-0.3,0.3-0.7,0.4-1.1c0.3-0.7,0.5-1.4,0.7-2.1c0.2-0.7,0.5-1.2,0.7-1.8c0.2-0.5,0.4-0.9,0.6-1.2
		c0.1-0.3,0.2-0.5,0.2-0.5l0.1,0c0,0,0,0.8-0.2,1.9c-0.1,0.6-0.3,1.2-0.5,1.9c-0.1,0.3-0.3,0.7-0.4,1c-0.2,0.3-0.3,0.7-0.5,1
		c-0.2,0.3-0.3,0.7-0.5,1c-0.1,0.3-0.4,0.7-0.5,1c-0.2,0.3-0.3,0.6-0.5,0.9c-0.2,0.3-0.4,0.5-0.6,0.7c-0.4,0.4-0.7,0.8-1,0.9
		C1022.7,614.1,1022.5,614.1,1022.5,614L1022.5,614z"/>
</g>
<g>
	<path fill="#FFFFFF" d="M1026,603.2c0,0,0.7-0.1,1.9-0.1c0.6,0,1.4-0.1,2.2,0c0.2,0,0.4,0,0.7,0c0.2,0,0.4,0,0.6-0.1
		c0.4-0.1,0.8-0.4,1.2-0.8c0.7-0.7,1.2-1.8,1.2-2.9c0-0.3-0.1-0.5-0.2-0.8c-0.2-0.3-0.3-0.5-0.5-0.8c-0.3-0.5-0.7-1.1-1-1.7
		c-0.3-0.6-0.6-1.2-0.7-1.9l-0.1-0.5l0-0.5c0-0.4,0-0.7-0.1-1c0-0.7-0.1-1.4-0.1-2.1c0-0.7,0-1.4,0-2.1l0-0.5c0-0.2,0-0.4,0-0.5
		c0-0.3-0.2-0.5-0.3-0.7c-0.4-0.4-1-0.6-1.6-0.8c-0.3-0.1-0.7-0.2-1-0.3c-0.2-0.1-0.4-0.1-0.6-0.3l-0.2-0.1c0,0.1-0.1-0.1-0.1-0.1
		l0,0l0,0l0-0.1c0-0.1-0.1-0.2-0.1-0.3c-0.2-0.5-0.1-0.8-0.2-1.2c0-0.3,0-0.7,0-1c0-1.3,0.1-2.6,0-3.8c0-1.2-0.1-2.2-0.6-3.1
		c-0.4-0.9-1-1.6-1.6-2.2c-0.6-0.6-1.2-1-1.7-1.2c-0.5-0.2-1-0.3-1.3-0.2c-0.3,0-0.5,0.1-0.5,0.1l-0.1-0.1c0,0,0.1-0.1,0.5-0.2
		c0.3-0.1,0.9-0.1,1.5,0.1c0.6,0.2,1.3,0.6,2,1.1c0.7,0.6,1.4,1.3,1.9,2.3c0.3,0.5,0.5,1,0.6,1.6c0.1,0.6,0.2,1.2,0.2,1.8
		c0.1,1.2,0,2.5,0,3.8c0,0.3,0,0.6,0,1l0,0.5l0.1,0.4c-0.1,0.3,0.7,0.5,1.4,0.7c0.7,0.2,1.4,0.5,2,1.2c0.3,0.3,0.4,0.7,0.5,1.2
		c0,0.2,0,0.4,0,0.6l0,0.5c0,0.7-0.1,1.4-0.1,2.1c0,0.7,0,1.4,0,2.1c0,0.3,0,0.7,0,1l0,0.5l0.1,0.5c0.1,0.6,0.3,1.2,0.6,1.8
		c0.3,0.6,0.6,1.1,0.9,1.7c0.2,0.3,0.3,0.5,0.5,0.8c0.2,0.3,0.3,0.6,0.3,1c0,1.3-0.6,2.4-1.4,3.2c-0.4,0.4-0.8,0.7-1.3,0.8
		c-0.3,0.1-0.5,0.1-0.7,0.1c-0.2,0-0.5,0-0.7-0.1c-0.8-0.1-1.6-0.1-2.2-0.1C1026.7,603.3,1026,603.3,1026,603.2L1026,603.2z"/>
</g>
<g>
	<path fill="#FFFFFF" d="M899,616c0,0,1.2,2,3,4.9c0.2,0.4,0.5,0.8,0.7,1.1c0.3,0.4,0.6,0.7,1,0.9c0.8,0.5,1.8,0.7,2.8,0.9
		c1,0.1,2.1,0,3.2-0.1c1.1-0.2,2.1-0.5,3.1-1.1c0.9-0.5,1.7-1.3,2.3-2.2c0.3-0.4,0.6-0.9,0.8-1.4c0.3-0.5,0.5-1,0.8-1.4
		c0.6-0.9,1.3-1.8,1.9-2.5c0.6-0.8,1.2-1.4,1.6-2.2c0.4-0.7,0.7-1.4,0.9-2.1c0.2-0.6,0.3-1.2,0.3-1.7c0.1-1-0.1-1.5-0.1-1.5l0.1,0
		c0,0,0.1,0.1,0.2,0.4c0.1,0.3,0.2,0.7,0.2,1.2c0,0.3,0,0.5,0,0.9c0,0.3-0.1,0.7-0.1,1c-0.2,0.7-0.4,1.5-0.8,2.3
		c-0.4,0.8-1,1.6-1.6,2.4c-0.6,0.8-1.2,1.6-1.8,2.5c-0.3,0.4-0.6,0.9-0.8,1.4c-0.3,0.5-0.6,1-1,1.4c-0.7,0.9-1.6,1.8-2.7,2.4
		c-1,0.6-2.3,0.9-3.4,1.1c-1.2,0.2-2.3,0.2-3.4,0c-1.1-0.2-2.1-0.4-3-1c-1-0.6-1.3-1.5-1.7-2.3C900.1,618,899,616,899,616L899,616z"
		/>
</g>
<g>
	<path fill="#FFFFFF" d="M888.8,604c0,1.5,0.6,3.1,1.5,4.3c0.1,0.2,0.2,0.3,0.4,0.4c0.1,0.1,0.3,0.3,0.4,0.4
		c0.3,0.3,0.6,0.5,0.9,0.7c0.3,0.2,0.7,0.4,1,0.6c0.2,0.1,0.4,0.2,0.5,0.2l0.5,0.2l0,0c1,0.2,2,0.5,3,0.8c1,0.3,2,0.6,2.9,1
		c1,0.4,1.9,0.7,2.8,1.2c0.9,0.5,1.8,0.9,2.7,1.4c0.9,0.4,1.8,0.8,2.8,0.8c1,0.1,1.9-0.3,2.7-0.7c0.8-0.5,1.7-1.1,2.5-1.6
		c0.8-0.6,1.7-1.2,2.5-1.8c0.8-0.6,1.6-1.2,2.4-1.8c0.8-0.6,1.6-1.3,2.4-1.9c0.8-0.6,1.5-1.3,2.2-2c0.3-0.4,0.7-0.7,1-1.1
		c0.3-0.4,0.7-0.8,0.9-1.2c0.3-0.4,0.6-0.8,0.8-1.2c0.3-0.4,0.5-0.9,0.8-1.3c0.5-0.9,0.9-1.8,1.2-2.7c0.2-0.5,0.2-1,0.4-1.4
		c0.1-0.5,0.1-1,0.2-1.5l0.2-3.1h0.1l0.2,3.1c0,0.5,0,1-0.1,1.6c-0.1,0.5-0.1,1-0.3,1.5c-0.3,1-0.6,2-1.1,2.9
		c-0.2,0.5-0.5,0.9-0.7,1.4c-0.2,0.5-0.5,0.9-0.8,1.3c-0.3,0.5-0.6,0.8-0.9,1.3c-0.3,0.4-0.7,0.8-1,1.2c-0.7,0.7-1.5,1.5-2.3,2.1
		c-1.6,1.3-3.2,2.5-4.9,3.7c-0.8,0.6-1.7,1.2-2.6,1.7c-0.9,0.6-1.7,1.1-2.6,1.6c-0.9,0.5-2,0.8-3.1,0.8c-1.1-0.1-2.1-0.5-3-0.9
		c-0.9-0.5-1.8-1-2.7-1.4c-0.9-0.5-1.8-0.8-2.8-1.2c-0.9-0.4-1.9-0.7-2.9-1.1c-1-0.3-1.9-0.6-2.9-0.9l0,0l0,0l-0.5-0.2
		c-0.2-0.1-0.4-0.1-0.5-0.2c-0.3-0.2-0.7-0.4-1-0.6c-0.3-0.2-0.6-0.5-0.9-0.8c-0.2-0.1-0.3-0.3-0.4-0.4c-0.1-0.2-0.3-0.3-0.4-0.5
		C889.2,607.1,888.7,605.6,888.8,604L888.8,604z"/>
</g>
<g>
	<path fill="#FFFFFF" d="M896.2,611.2c0,0,4-0.2,9.9-0.4c1.5-0.1,3.1-0.4,4.6-1.1c1.5-0.8,2.9-1.8,4.4-3c1.4-1.2,2.9-2.4,4.4-3.7
		c1.5-1.3,2.9-2.7,3.9-4.3c0.5-0.8,1-1.7,1.4-2.6c0.5-0.9,0.9-1.8,1.4-2.6c1-1.7,2.1-3.3,3.4-4.7c0.4-0.3,0.7-0.7,1.1-1
		c0.4-0.3,0.8-0.6,1.2-0.8c0.8-0.5,1.5-0.9,2.2-1.3c0.7-0.4,1.4-0.9,2-1.4c0.6-0.5,1.3-0.9,1.8-1.4c1.1-1,2.2-1.9,3.1-2.7
		c1-0.8,1.9-1.4,2.6-1.8c0.7-0.4,1.2-0.9,1.4-1.3c0.2-0.4,0.2-0.7,0.2-0.7l0.1,0c0,0,0,0.2-0.2,0.7c-0.2,0.5-0.7,1-1.4,1.5
		c-0.7,0.5-1.5,1.1-2.4,1.9c-0.9,0.8-1.8,1.8-2.9,2.8c-0.5,0.5-1.2,1-1.8,1.5c-0.6,0.5-1.3,1-2.1,1.5c-0.7,0.5-1.5,0.9-2.2,1.4
		c-0.4,0.2-0.8,0.5-1.1,0.7c-0.4,0.2-0.6,0.6-1,0.9c-1.3,1.3-2.4,2.9-3.4,4.5c-0.5,0.8-1,1.7-1.5,2.5c-0.5,0.9-0.9,1.8-1.5,2.6
		c-1.1,1.7-2.6,3.1-4.1,4.4c-1.5,1.3-3,2.5-4.5,3.6c-1.5,1.1-3,2.2-4.5,3c-1.6,0.8-3.2,1-4.8,1.1
		C900.2,611.2,896.3,611.3,896.2,611.2L896.2,611.2z"/>
</g>
<g>
	<path fill="#FFFFFF" d="M892.5,605.5c0.3,0.2,0.5,0.5,0.8,0.7c0.2,0.3,0.5,0.5,0.8,0.7c0.5,0.4,1.2,0.7,1.9,0.8
		c1.3,0.3,2.7,0.2,4.1,0.1c1.4-0.1,2.7-0.4,4.1-0.7c1.3-0.4,2.6-0.8,3.8-1.5c1.2-0.6,2.2-1.6,3.1-2.6c0.8-1.1,1.7-2.2,2.8-3.1
		c0.6-0.4,1.2-0.8,1.8-1.1c0.3-0.1,0.7-0.2,1-0.4c0.2-0.1,0.2-0.2,0.3-0.2c0.1-0.1,0.2-0.2,0.3-0.4c0.7-1.1,0.9-2.5,1.2-3.8
		c0.2-0.7,0.3-1.4,0.6-2c0.2-0.7,0.5-1.3,0.9-1.9c0.6-1.3,1.5-2.4,2.6-3.4c1.1-0.9,2.3-1.6,3.4-2.4c1.1-0.8,2.3-1.6,3.5-2.3
		c0.6-0.4,1.2-0.7,1.8-1c0.6-0.3,1.3-0.6,1.9-0.9l1.9-0.8c0.6-0.3,1.3-0.5,1.9-0.8c1.2-0.5,2.4-1.2,3.4-2.1c1-0.8,1.9-1.8,2.8-2.9
		l0.2,0.8c-0.8-0.3-1.4-0.8-2-1.2l-1.8-1.4l-1.7-1.4c-0.6-0.4-1.1-1-1.7-1.4c-0.6-0.5-1.1-1.1-1.6-1.6c-0.5-0.6-0.9-1.2-1.3-1.9
		c-0.4-0.7-0.7-1.4-1-2c-0.3-0.7-0.6-1.4-0.8-2.1c-0.2-0.7-0.4-1.4-0.6-2.2c-0.1-0.4-0.2-0.7-0.2-1.1l-0.1-1.1c-0.1-0.7,0-1.5,0-2.3
		c0.1-0.8,0.2-1.5,0.3-2.2c0.2-0.7,0.3-1.5,0.6-2.2c0.2-0.7,0.5-1.4,0.8-2.1c0.6-1.4,1.3-2.7,2-4l0.1,0.1c-0.7,1.3-1.3,2.7-1.8,4
		c-0.3,0.7-0.5,1.4-0.7,2.1c-0.2,0.7-0.3,1.4-0.5,2.1c-0.1,0.7-0.2,1.5-0.2,2.2c0,0.7,0,1.5,0.1,2.2c0.1,0.7,0.2,1.4,0.4,2.1
		c0.1,0.7,0.4,1.4,0.6,2.1c0.2,0.7,0.5,1.4,0.8,2c0.3,0.6,0.6,1.3,1,1.9c0.3,0.6,0.8,1.2,1.3,1.7c0.5,0.5,1,1,1.5,1.5
		c0.6,0.5,1.1,1,1.7,1.4l1.7,1.4l1.7,1.4c0.6,0.4,1.2,0.8,1.8,1.1l0.6,0.3l-0.4,0.5c-0.9,1.1-1.8,2.2-3,3c-1.1,0.9-2.4,1.6-3.7,2.1
		c-0.7,0.3-1.3,0.5-1.9,0.8l-1.9,0.7c-0.6,0.3-1.2,0.6-1.9,0.8c-0.6,0.3-1.2,0.6-1.8,1c-1.2,0.7-2.3,1.5-3.4,2.3
		c-1.1,0.8-2.4,1.5-3.4,2.4c-1,0.9-1.9,1.9-2.5,3.1c-0.3,0.6-0.6,1.2-0.8,1.8c-0.2,0.6-0.4,1.3-0.6,2c-0.4,1.3-0.6,2.7-1.4,4
		c-0.1,0.2-0.2,0.3-0.4,0.4c-0.2,0.1-0.4,0.3-0.5,0.3c-0.4,0.2-0.7,0.2-1,0.3c-0.6,0.2-1.2,0.6-1.7,1c-1,0.9-1.9,1.9-2.8,3
		c-0.9,1.1-2,2.1-3.2,2.7c-1.2,0.7-2.6,1.1-3.9,1.5c-1.4,0.3-2.7,0.5-4.1,0.6c-1.4,0.1-2.8,0.2-4.2-0.2c-0.7-0.2-1.3-0.5-1.9-0.9
		c-0.3-0.2-0.5-0.5-0.8-0.7C893,606,892.8,605.7,892.5,605.5L892.5,605.5z"/>
</g>
<g>
	<path fill="#FFFFFF" d="M906.5,602.4c0,0,0.5-0.2,1.3-0.8c0.2-0.1,0.4-0.3,0.6-0.5c0.2-0.2,0.5-0.4,0.7-0.6
		c0.3-0.2,0.5-0.5,0.7-0.8c0.3-0.3,0.5-0.6,0.7-0.9c0.5-0.7,0.9-1.5,1.4-2.3c0.4-0.9,0.8-1.8,1.2-2.8c0.4-1,0.8-2,1.4-3
		c0.2-0.5,0.6-1,0.9-1.5c0.4-0.5,0.7-0.9,1.1-1.3c0.2-0.2,0.4-0.4,0.6-0.6l0.6-0.6c0.4-0.4,0.8-0.7,1.3-1.1c0.8-0.7,1.7-1.4,2.5-2.1
		c0.8-0.7,1.6-1.3,2.4-1.9c0.7-0.7,1.4-1.2,2-1.8c0.6-0.6,1.2-1.2,1.7-1.6c0.5-0.5,1-0.8,1.5-1.1c0.4-0.3,0.9-0.4,1.2-0.3
		c0.3,0,0.4,0.1,0.4,0.1l0,0.1c0,0-0.1-0.1-0.4,0c-0.2,0-0.6,0.2-1,0.5c-0.4,0.3-0.8,0.7-1.3,1.2c-0.5,0.5-1,1.1-1.5,1.7
		c-0.5,0.7-1.2,1.3-1.9,2c-0.7,0.7-1.5,1.3-2.3,2c-0.8,0.6-1.7,1.3-2.6,2c-0.4,0.4-0.9,0.7-1.3,1.1l-0.7,0.5l-0.6,0.6
		c-0.4,0.4-0.7,0.8-1.1,1.2c-0.3,0.5-0.6,0.9-0.9,1.4c-0.5,0.9-1,2-1.4,2.9c-0.5,1-0.9,1.9-1.4,2.8c-0.5,0.9-1,1.7-1.5,2.3
		c-0.3,0.3-0.5,0.7-0.8,0.9c-0.3,0.3-0.5,0.6-0.8,0.8c-0.3,0.2-0.5,0.4-0.8,0.6c-0.2,0.2-0.5,0.3-0.7,0.5
		C907.1,602.3,906.5,602.5,906.5,602.4L906.5,602.4z"/>
</g>
<g>
	<path fill="#FFFFFF" d="M914.5,590.5c-0.8-0.6-1.5-1.2-2.3-1.8l-2.2-1.9c-0.7-0.6-1.5-1.3-2.1-2.1c-0.3-0.4-0.6-0.8-0.7-1.3
		c-0.2-0.5-0.1-1.1-0.1-1.5c0-1-0.1-1.9-0.4-2.8c-0.2-0.4-0.3-0.9-0.6-1.2l-0.2-0.3l-0.2-0.2l-0.3-0.3c-0.1-0.1-0.2-0.2-0.3-0.3
		c-0.6-0.9-0.9-1.9-1.1-2.8c-0.2-1-0.2-2,0-3c0.2-1,0.5-2,1.1-2.9c0.6-0.9,1.1-1.6,1.9-2.4c0.7-0.7,1.5-1.4,2.4-1.9
		c0.4-0.3,0.9-0.5,1.4-0.7c0.5-0.2,1-0.3,1.5-0.5c1-0.2,2-0.4,3.1-0.2c1,0.1,2,0.3,3,0.5c1,0.2,1.9,0.5,2.8,0.8
		c0.9,0.3,1.9,0.5,2.8,0.6l0,0l0,0c1,0.3,2,0.6,3,0.9l0,0.1c-1-0.2-2-0.4-3-0.6l0.1,0c-1,0-2-0.2-3-0.4l-2.9-0.6
		c-1-0.2-1.8-0.4-2.8-0.4c-0.9-0.1-1.8,0.1-2.8,0.3c-0.4,0.1-0.9,0.3-1.3,0.4c-0.4,0.2-0.9,0.3-1.3,0.6c-0.8,0.5-1.6,1-2.2,1.7
		c-0.7,0.6-1.3,1.4-1.8,2.2c-0.5,0.8-0.9,1.6-1,2.6c-0.2,0.9-0.2,1.9,0,2.8c0.1,0.9,0.4,1.8,0.9,2.6l0.2,0.2l0.3,0.2l0.3,0.3
		l0.2,0.3c0.3,0.4,0.5,0.9,0.6,1.4c0.3,1,0.4,2,0.3,3c0,0.5-0.1,0.9,0,1.4c0.1,0.4,0.3,0.9,0.6,1.2c0.6,0.8,1.3,1.4,2,2.1l2.2,2
		C913,589.2,913.8,589.8,914.5,590.5L914.5,590.5z"/>
</g>
<g>
	<path fill="#FFFFFF" d="M916.7,574.7c0,0,0.4-1.4,1.4-3.3c0.5-1,1.2-2.1,2.2-3.1c0.5-0.5,1.1-0.9,1.7-1.3c0.6-0.4,1.2-0.8,1.8-1.2
		c0.6-0.4,1.2-0.8,1.9-1.2c0.3-0.2,0.7-0.3,1.1-0.4c0.4,0,0.8-0.1,1.1-0.1c0.2,0,0.4,0,0.6,0.1c0.1,0,0.2,0,0.3,0l0.2,0.1
		c0.3,0.1,0.6,0.2,0.9,0.3c0.3,0.1,0.6,0.2,0.9,0.3c0.3,0.1,0.5,0.2,0.8,0.3c2.1,0.8,3.3,1.5,3.3,1.5l0,0.1c0,0-0.4-0.1-1-0.2
		c-0.3-0.1-0.7-0.2-1.1-0.3c-0.4-0.1-0.9-0.2-1.4-0.3c-0.5-0.1-1.1-0.3-1.7-0.4c-0.3-0.1-0.6-0.1-0.9-0.2l-0.2-0.1c0,0-0.1,0-0.2,0
		l-0.4,0c-0.3,0-0.6,0-0.9,0c-0.3,0.1-0.6,0.1-0.9,0.3c-0.6,0.3-1.2,0.6-1.8,1c-0.6,0.4-1.2,0.8-1.8,1.1c-0.6,0.4-1.2,0.7-1.7,1.1
		c-1,0.9-1.7,1.9-2.2,2.8C917.3,573.4,916.8,574.8,916.7,574.7L916.7,574.7z"/>
</g>
<g>
	<path fill="#FFFFFF" d="M918,579.5c0,0,0.2-0.9,0.7-2.1c0.2-0.6,0.5-1.4,0.9-2.1c0.2-0.4,0.4-0.8,0.6-1.2c0.2-0.4,0.5-0.8,0.7-1.2
		c0.3-0.4,0.6-0.8,0.9-1.1c0.3-0.3,0.6-0.6,0.9-1c0.6-0.6,1.2-1.1,1.7-1.5c1-0.9,1.8-1.3,1.8-1.3l0.1,0.1c0,0-0.5,0.8-1.3,1.8
		c-0.4,0.5-0.9,1.1-1.5,1.7c-0.3,0.3-0.6,0.6-1,0.9c-0.3,0.3-0.6,0.6-0.9,0.9c-0.3,0.3-0.5,0.7-0.8,1c-0.2,0.4-0.5,0.7-0.7,1.1
		c-0.2,0.4-0.4,0.7-0.6,1c-0.2,0.3-0.3,0.7-0.5,1C918.4,578.7,918,579.5,918,579.5L918,579.5z"/>
</g>
<g>
	<path fill="#FFFFFF" d="M913.7,573.7c0,0,0.1-0.6,0.3-1.4c0.1-0.2,0.1-0.4,0.2-0.7c0.1-0.2,0.2-0.5,0.3-0.7
		c0.1-0.3,0.3-0.5,0.4-0.7c0.1-0.3,0.3-0.5,0.5-0.7c0.2-0.2,0.3-0.4,0.5-0.7c0.2-0.2,0.3-0.4,0.5-0.6c0.4-0.4,0.7-0.7,1.1-1
		c0.6-0.5,1.2-0.8,1.2-0.8l0.1,0.1c0,0,0,0.1-0.2,0.4c-0.1,0.2-0.3,0.6-0.5,0.9c-0.2,0.4-0.5,0.7-0.9,1.1c-0.2,0.2-0.4,0.4-0.6,0.6
		c-0.2,0.2-0.4,0.4-0.6,0.6c-0.2,0.2-0.4,0.4-0.5,0.6c-0.2,0.2-0.3,0.4-0.5,0.6c-0.3,0.4-0.5,0.8-0.7,1.2
		C914,573.2,913.8,573.8,913.7,573.7L913.7,573.7z"/>
</g>
<g>
	<path fill="#FFFFFF" d="M920.5,539.8c0,0-0.4,2.5-1,5.1c-0.1,0.6-0.2,1.3-0.3,1.9c-0.1,0.6-0.3,1.1-0.5,1.6
		c-0.3,0.9-0.7,1.5-0.7,1.5l-0.1,0c0,0-0.1-0.7,0-1.6c0-0.5,0.1-1,0.2-1.6c0.1-0.3,0.2-0.6,0.3-0.9c0.1-0.3,0.2-0.6,0.3-0.9
		C919.6,542.2,920.5,539.7,920.5,539.8L920.5,539.8z"/>
</g>
<g>
	<path fill="#FFFFFF" d="M916.7,539.9c0,0-0.1,0.6-0.4,1.4c-0.1,0.4-0.2,0.9-0.4,1.4c-0.1,0.5-0.3,1.1-0.4,1.6
		c-0.1,0.6-0.2,1.1-0.4,1.7c-0.2,0.5-0.3,1-0.5,1.4c-0.4,0.8-0.7,1.3-0.7,1.3l-0.1,0c0,0,0-0.6,0.1-1.5c0.1-0.4,0.2-0.9,0.3-1.5
		c0.2-0.5,0.4-1.1,0.6-1.6c0.2-0.5,0.5-1.1,0.7-1.6c0.2-0.5,0.4-1,0.6-1.4C916.4,540.4,916.6,539.9,916.7,539.9L916.7,539.9z"/>
</g>
<g>
	<path fill="#FFFFFF" d="M914.5,539.8c0,0-0.3,0.6-0.7,1.5c-0.2,0.5-0.4,1-0.7,1.5c-0.1,0.3-0.2,0.6-0.4,0.9
		c-0.1,0.3-0.3,0.6-0.4,0.9c-0.1,0.3-0.2,0.6-0.3,0.9l-0.2,0.5c0,0.2-0.1,0.3-0.1,0.5c-0.1,0.3-0.2,0.6-0.3,0.8
		c-0.1,0.3-0.3,0.5-0.4,0.7c-0.3,0.4-0.5,0.8-0.7,1c-0.2,0.2-0.3,0.3-0.3,0.3l-0.1,0c0,0,0-0.2,0.1-0.5c0-0.3,0.2-0.7,0.3-1.2
		c0.1-0.2,0.1-0.5,0.2-0.7c0.1-0.2,0.2-0.6,0.3-0.8c0.1-0.1,0.1-0.3,0.2-0.4l0.2-0.4c0.1-0.3,0.3-0.6,0.5-0.9
		c0.1-0.3,0.3-0.6,0.5-0.9c0.2-0.3,0.3-0.6,0.5-0.8c0.3-0.5,0.6-1,0.9-1.4C914.1,540.3,914.5,539.7,914.5,539.8L914.5,539.8z"/>
</g>
<g>
	<path fill="#FFFFFF" d="M1009.5,564c0,0-0.1-0.9,0-2.1c0-0.6,0.1-1.4,0.5-2.2c0.1-0.4,0.4-0.8,0.7-1.2c0.2-0.2,0.3-0.3,0.6-0.5
		l0.2-0.1c0,0,0,0,0.1-0.1l0.1,0l0.3-0.1c0.5-0.2,1.1-0.2,1.6,0.1c0.5,0.3,0.8,0.7,1,0.9c0.1,0.1,0.2,0.1,0.1,0.1c0,0,0,0,0,0
		c0,0,0,0,0,0l0.3-0.1c0.3-0.2,0.8-0.3,1.1-0.3c0.7-0.1,1.2-0.1,1.6,0c0.4,0,0.6,0.1,0.6,0.1v0.1c0,0-0.2,0.1-0.6,0.2
		c-0.4,0.1-0.9,0.2-1.4,0.4c-0.1,0-0.3,0.1-0.4,0.2l-0.2,0.1l-0.2,0.1l-0.2,0.1l-0.2,0.1c-0.1,0-0.2,0.1-0.3,0.1
		c-0.2,0-0.5-0.1-0.6-0.2c-0.1-0.1-0.2-0.2-0.3-0.3c-0.3-0.4-0.5-0.6-0.7-0.8c-0.2-0.2-0.5-0.2-0.8-0.1l-0.3,0.1l-0.1,0c0,0,0,0,0,0
		l-0.1,0.1c-0.2,0.1-0.3,0.2-0.4,0.3c-0.3,0.3-0.5,0.6-0.6,0.9c-0.2,0.3-0.3,0.7-0.4,1c-0.1,0.3-0.2,0.7-0.2,1
		C1009.5,563.1,1009.5,564,1009.5,564L1009.5,564z"/>
</g>
</svg>
