<?xml version="1.0" encoding="utf-8"?>
<!-- Generator: Adobe Illustrator 18.0.0, SVG Export Plug-In . SVG Version: 6.00 Build 0)  -->
<!DOCTYPE svg PUBLIC "-//W3C//DTD SVG 1.1//EN" "http://www.w3.org/Graphics/SVG/1.1/DTD/svg11.dtd">
<svg version="1.1" id="Layer_1" xmlns="http://www.w3.org/2000/svg" xmlns:xlink="http://www.w3.org/1999/xlink" x="0px" y="0px"
	 viewBox="0 0 1920 1080" enable-background="new 0 0 1920 1080" xml:space="preserve">
<g>
	<path fill="#FFFFFF" d="M824,558.3c0,0,0.1,0.1,0.3,0.2c0.2,0.1,0.5,0.3,1,0.6c0.4,0.1,0.9,0.4,1.6,0.6c0.2,0.1,0.7,0.2,1.1,0.3
		c0.4,0,0.8,0.1,1.2,0.1c0.8,0.1,1.7,0.2,2.7,0.2c0.9,0.1,2,0,2.9,0c1.1,0,2.2,0,3.2-0.2c1.1,0,2.2,0,3.4-0.1c0.6,0.1,1.1,0,1.7,0
		c0.6,0.1,1.2,0.1,1.7,0c0.6,0.1,1.2,0.1,1.7,0.2c0.4,0.1,1,0.2,1.4,0.3c0.8,0.1,1.7,0,2.7-0.1c0.9-0.1,1.7-0.3,2.4-0.5
		c0.3-0.1,0.8-0.2,1.1-0.4c0.3-0.1,0.7-0.4,0.9-0.4c0.4-0.2,0.9-0.7,1.1-1c0.6-0.7,0.8-1.3,0.8-1.3l0.2,0.1c0,0-0.1,0.6-0.5,1.5
		c-0.3,0.5-0.6,1-1.2,1.5c-0.2,0.3-0.5,0.4-0.9,0.7c-0.3,0.1-0.7,0.4-1.1,0.6c-0.7,0.4-1.6,0.7-2.7,0.8c-1,0.2-2,0.3-3.4,0.1
		c-0.4-0.1-1-0.2-1.5-0.5c-0.4-0.1-0.9-0.3-1.4-0.3c-0.6-0.1-1-0.2-1.6-0.3c-0.6-0.1-1.1,0-1.7,0c-1.1,0-2.2,0-3.3-0.1
		c-1.1,0-2.2,0-3.2-0.2c-1.1,0-2,0-3-0.2c-0.9-0.1-1.9-0.1-2.7-0.4c-0.4-0.1-0.8-0.1-1.2-0.3c-0.4-0.1-0.7-0.3-0.9-0.4
		c-0.7-0.2-1.2-0.5-1.5-0.8c-0.4-0.1-0.8-0.5-0.9-0.6C823.9,558.6,823.9,558.6,824,558.3L824,558.3z"/>
</g>
<g>
	<path fill="#FFFFFF" d="M869.2,566.6c0,0,0.7-0.7,2.1-1.6c0.6-0.5,1.6-1.2,2.6-1.7c0.6-0.3,1.1-0.6,1.8-0.7
		c0.6-0.2,1.3-0.3,2.1-0.5c1.5-0.2,3-0.5,4.7-0.8c1.7-0.3,3.5-0.2,5.2-0.5c1.7-0.3,3.2-1.5,4.8-2.7c1.6-1.2,3.2-2.2,4.8-3.4
		c3.2-2.2,6.4-4.4,9.5-6.6c1.5-1,2.9-2.1,4.5-2.9s2.9-1.7,4.4-1.9c1.6-0.5,2.9-0.4,4-0.6c1.2-0.1,2.2-0.3,3.2-0.2
		c0.9-0.1,1.5,0.1,2,0.4s0.6,0.4,0.6,0.4l-0.1,0.1c0,0-0.2-0.1-0.7-0.2s-1-0.2-1.8,0c-0.9,0.1-1.8,0.4-2.9,0.6
		c-1.1,0.2-2.5,0.4-3.7,0.9c-1.4,0.5-2.6,1.2-4,2.1c-1.4,0.9-2.8,2-4.3,2.9c-1.5,1-3.1,2-4.7,3.2c-1.6,1-3.3,2.1-4.9,3.1
		c-1.6,1-3.3,2.1-4.8,3.2c-1.6,1-3.2,2.2-5.2,2.5c-1,0.2-1.8,0-2.8,0.2c-0.9,0.1-1.8,0-2.5,0c-1.7,0.2-3.2,0.4-4.6,0.6
		c-1.5,0.2-2.8,0.5-3.8,1.1c-1,0.5-2,1-2.6,1.6C870,566.2,869.2,566.8,869.2,566.6L869.2,566.6z"/>
</g>
<g>
	<path fill="#FFFFFF" d="M873.4,563.7c-1.2-0.6-2.5-1.3-3.8-1.7c-0.7-0.2-1.3-0.4-2-0.8l-2-0.6c-0.7-0.2-1.3-0.4-2.1-0.5
		c-0.7-0.2-1.4-0.2-2-0.4c-0.7,0-1.4-0.2-2.1-0.2c-0.7,0-1.4,0-2.1,0.2c-0.7,0-1.4,0.2-2,0.3c-0.6,0.2-1.2,0.5-1.9,0.8l-3.8,1.8
		l-3.7,1.9c-0.6,0.3-1.3,0.7-1.9,0.8l-1.9,0.8l0-0.7c0.9,0.4,1.7,0.9,2.5,1.4l1.3,0.8c0.5,0.3,0.9,0.6,1.2,1
		c1.3,1.5,2.5,3.1,3.8,4.5l1.8,2.3l0.4,0.5c0.1,0.1,0.1,0.3,0.1,0.3l0.3,0.2c0.4,0.4,0.7,0.6,1.2,0.8c1.6,1,3.3,1.7,5.1,2.4
		c1.8,0.7,3.5,1.2,5.5,1.9c1.9,0.5,3.8,0.9,5.6,1.6c2,0.6,3.6,2.1,5.3,2.5l2.8,1.1c0.9,0.4,1.9,0.8,2.8,1.1l2.8,1.1
		c0.9,0.3,1.9,0.5,2.7,0.7s1.9,0.5,2.7,0.7c1,0.2,1.9,0.5,2.8,0.5l1.4,0.2l0.7,0c0.1-0.1,0.5-0.1,0.7,0c1-0.2,1.9-0.1,2.9-0.3
		c1-0.2,1.9-0.2,2.8-0.5l2.7-0.7l2.8-0.9l0.6-0.2c0.1-0.1,0.4-0.2,0.6-0.3c0.4-0.2,0.9-0.3,1.3-0.7c1.6-0.8,3.1-2,4.6-3.3
		c1.5-1.3,2.8-2.6,4.1-4c1.3-1.4,2.4-3.1,3.4-4.7l0.2,0.1c-1,1.6-1.8,3.5-3,5c-1.2,1.5-2.6,3-3.9,4.4c-1.5,1.3-3,2.6-4.8,3.7
		c-0.4,0.2-0.9,0.4-1.3,0.7c-0.3,0.1-0.4,0.2-0.7,0.4l-0.8,0.2l-2.8,0.9l-2.9,0.8c-0.9,0.3-1.9,0.5-2.9,0.6c-1,0.2-1.9,0.2-2.9,0.3
		c-0.4,0-0.4,0-0.7,0l-0.8-0.1l-1.5-0.1c-0.9-0.1-2-0.4-3-0.5c-1-0.2-2-0.4-2.9-0.7s-1.9-0.5-2.8-0.9l-2.8-1.1
		c-0.9-0.4-1.8-0.7-2.6-1.2l-2.8-1.1c-2-0.8-3.4-2-5.2-2.6c-3.5-1.2-7.5-2.1-11.2-3.6c-1.8-0.7-3.6-1.6-5.4-2.7
		c-0.5-0.3-0.9-0.6-1.2-1l-0.3-0.2c-0.1-0.1-0.1-0.3-0.4-0.4l-0.4-0.5l-1.8-2.3c-1.2-1.6-2.4-3.1-3.6-4.5c-0.4-0.4-0.7-0.6-1-0.9
		l-1.2-0.8c-0.8-0.5-1.6-1-2.5-1.4l-0.8-0.5l0.7-0.4l1.9-0.8c0.6-0.3,1.4-0.5,1.9-0.8l3.8-1.8l3.9-1.6c0.6-0.3,1.4-0.5,2-0.7
		c0.6-0.2,1.4-0.4,2.2-0.4c0.7,0,1.4,0,2.2,0c0.7,0,1.4,0.2,2.1,0.2c0.7,0.2,1.4,0.2,2,0.4c0.7,0.2,1.3,0.4,2.1,0.5l2,0.6
		c0.7,0.2,1.4,0.6,2,0.8C871.1,562.3,872.4,563,873.4,563.7L873.4,563.7z"/>
</g>
<g>
	<path fill="#FFFFFF" d="M879.4,587.8c0,0-0.5-0.3-1.2-0.8c-0.7-0.6-1.8-1.4-3.1-2.4c-0.7-0.6-1.3-1.1-2-1.7c-0.7-0.6-1.4-1.3-2.1-2
		c-0.7-0.7-1.5-1.4-2.2-2.1c-0.7-0.7-1.5-1.6-2.1-2.3c-0.7-0.9-1.5-1.6-2.1-2.6c-0.2-0.4-0.7-0.9-0.9-1.4c-0.2-0.4-0.5-1-0.7-1.4
		c-0.2-0.4-0.4-0.9-0.6-1.5c-0.1-0.5-0.3-0.9-0.3-1.3c-0.1-0.5,0-1.1-0.1-1.6c0-0.4,0.1-0.9,0.1-1.3c0.3-1.6,0.8-3,1.3-3.8
		s0.8-1.3,0.8-1.3l0.2,0.1c0,0-0.1,0.4-0.3,1.4c-0.1,0.4-0.2,1-0.3,1.6c-0.1,0.6-0.2,1.4-0.2,2.1c0,0.4,0,0.7,0.1,1.2
		c0,0.4,0,0.7,0.2,1.1c0.2,0.4,0.3,0.9,0.4,1.4c0.2,0.4,0.4,0.7,0.6,1.1c0.2,0.4,0.3,0.9,0.5,1.4c0.2,0.4,0.4,0.9,0.7,1.3
		c0.4,0.9,1.3,1.7,1.7,2.6c0.6,0.8,1.4,1.6,2,2.4c0.6,0.8,1.3,1.5,2.1,2.2s1.3,1.5,2,2.1c0.7,0.6,1.3,1.1,1.8,1.8
		c1.1,1.1,2.1,2,2.8,2.5C879.2,587.2,879.5,587.6,879.4,587.8L879.4,587.8z"/>
</g>
<g>
	<path fill="#FFFFFF" d="M917.4,561.9c0,0,0.2,1.9,1,4.4c0.2,0.6,0.4,1.4,0.5,2.1c0.2,0.8,0.5,1.6,0.8,2.3c0.2,0.8,0.6,1.5,1,2.4
		c0.4,0.7,1,1.5,1.5,2.1s1.2,1.2,1.7,1.8c0.7,0.6,1.3,1.1,1.9,1.6c1.2,1,2.6,1.9,3.6,2.8s1.9,1.6,2.6,2.1c0.7,0.6,0.9,0.8,0.9,0.8
		l-0.1,0.1c0,0-0.4-0.1-1.2-0.5c-0.7-0.3-1.7-0.9-3-1.5c-1.2-0.6-2.5-1.4-4-2.5c-0.7-0.6-1.3-1.1-2-1.8c-0.6-0.8-1.2-1.6-1.7-2.2
		c-0.4-0.9-1-1.5-1.4-2.4c-0.4-0.9-0.7-1.6-1-2.6c-0.5-1.7-0.8-3.2-1.1-4.5C917.4,563.7,917.2,562,917.4,561.9L917.4,561.9z"/>
</g>
<g>
	<path fill="#FFFFFF" d="M932,570.1l0,2c-0.1,0.6,0.1,1.2,0.1,1.9l0.1,1.9c-0.1,0.6,0.1,1.2,0.2,1.9c0.2,0.6,0.3,1.3,0.4,1.8
		c0.2,0.6,0.2,1.1,0.4,1.8l0.6,1.9l0.7,1.8c0.2,0.4,0.6,1.1,0.9,1.7c0.3,0.6,0.7,1.1,1,1.5c0.3,0.6,0.7,0.9,1.1,1.4
		c0.4,0.5,0.8,0.9,1.2,1.3l0.7,0.6c0.1,0.1,0.4,0.4,0.7,0.6c0.6,0.4,0.9,0.8,1.5,1.2c0.5,0.3,0.9,0.8,1.5,1.1l1.6,1l0,0
		c0.7,0.6,1.2,1,1.8,1.6c0.5,0.6,1,1.3,1.4,2l-0.1,0.1c-0.3-0.2-0.7-0.6-0.9-0.8s-0.6-0.4-0.9-0.8c-0.6-0.4-1.2-1-2-1.3l0,0
		c-0.7-0.2-1.2-0.5-1.7-0.9c-0.5-0.3-1.2-0.6-1.7-0.9c-0.6-0.4-1.1-0.7-1.7-1.1c-0.3-0.2-0.5-0.3-0.9-0.6L937,592
		c-0.4-0.5-0.9-1-1.3-1.5c-0.4-0.5-0.7-1.1-1.2-1.6c-0.3-0.6-0.7-1.1-1-1.6c-0.3-0.6-0.6-1.1-0.9-1.7l-0.6-1.9l-0.5-1.9
		c-0.2-0.6-0.3-1.3-0.5-1.9c-0.2-0.6-0.2-1.4-0.2-1.9c-0.2-0.6-0.1-1.2-0.1-1.9l0.1-1.9c0.1-0.6,0.1-1.3,0.1-1.9L932,570.1
		L932,570.1z"/>
</g>
<g>
	<path fill="#FFFFFF" d="M943.4,576c-0.3,0.9-0.5,1.9-0.7,2.9c-0.2,1,0,1.8,0.4,2.9c0.6,1.9,1.5,3.6,2.2,5.4
		c0.3,0.9,0.7,1.8,1.1,2.7l0.5,1.4c0.1,0.5,0.2,1,0.4,1.4c0.5,1.9,0.7,3.8,1.2,5.7c0.2,1,0.5,1.9,0.7,2.7l0.2,0.6
		c0.1,0.1,0.2,0.4,0.3,0.6l0.4,0.7l0.4,0.5c0.5,0.6,1.1,1.4,1.8,2.1c0.7,0.7,1.4,1.3,2.1,2c0.7,0.6,1.5,1.2,2.2,1.8
		c0.4,0.4,0.8,0.5,1.2,0.8c0.3,0.2,0.8,0.5,1.2,0.6c0.8,0.5,1.7,0.9,2.5,1.3c0.9,0.4,1.8,0.7,2.6,1.2l-0.2-0.1c0.7,0,1.4,0.2,2,0.4
		c0.4,0,0.7,0.2,1.1,0.3c0.3,0.2,0.7,0.2,1,0.6c0.3,0.2,0.6,0.4,0.7,0.7l0.7,0.7l1.4,1.3l-0.1,0.1l-1.7-1.1c-0.5-0.3-1.2-0.8-1.6-1
		c-0.3-0.2-0.5-0.3-0.7-0.3c-0.2-0.1-0.6-0.1-0.9-0.3c-0.6-0.1-1.2-0.1-1.9-0.1l0,0l-0.2-0.1c-0.9-0.3-2-0.6-2.8-0.9
		c-0.9-0.4-1.8-0.7-2.8-1.1c-0.5-0.3-0.8-0.5-1.3-0.8s-0.8-0.5-1.3-0.8c-0.9-0.6-1.5-1.2-2.4-1.8c-0.7-0.7-1.5-1.4-2.2-2.1
		c-0.6-0.8-1.3-1.5-2-2.4l-0.4-0.7l-0.4-0.7c-0.1-0.3-0.2-0.4-0.4-0.7l-0.2-0.8c-0.2-1-0.5-1.9-0.6-2.9c-0.3-2-0.6-3.9-1-5.8
		c-0.1-0.5-0.2-1-0.2-1.5l-0.4-1.4c-0.3-0.9-0.6-1.9-1.1-2.7c-0.6-1.9-1.4-3.7-2-5.5c-0.1-0.5-0.3-0.9-0.4-1.4
		c-0.1-0.5,0-1.1,0.1-1.5C942.7,577.8,942.9,576.8,943.4,576L943.4,576z"/>
</g>
<g>
	<path fill="#FFFFFF" d="M867.8,504.3c0,0-0.4-0.5-1.3-1.1c-0.9-0.6-2.3-1.9-4.3-2.3c-2.2-0.3-4.8-0.4-7.8,0.1
		c-3,0.5-6.2,1.6-9.4,3.6c-3.2,1.9-6.5,4.3-9.5,7.3c-1.4,1.5-2.9,3.1-3.9,5.1c-0.6,1-0.8,1.9-1.3,3c-0.3,1.1-0.7,2.2-1,3.3
		c-1.5,4.4-3,9-5.6,13.3c-0.6,1-1.5,2-2.3,3s-1.6,1.8-2.5,2.8l-2.5,2.8c-0.9,0.8-1.8,1.8-2.6,2.6c-0.9,0.8-1.8,1.7-2.6,2.6
		s-1.3,2-1.9,3c-1,2.2-1.7,4.5-1.5,6.8c0,1.1,0.3,2.2,0.8,3.2l0.1,0.1l0.1,0.1c-0.1-0.1,0.4,0.4-0.3-0.2c0.2,0.1-0.4-0.4-0.9,0.1
		c-0.1,0.1-0.1,0.1,0,0l0.1-0.2l0.3-0.7l0.8-1.7c0.5-1.2,0.8-2.2,1.7-3.4c0.1-0.1,0.2-0.3,0.5-0.4c0.3-0.1,0.3-0.1,0.4-0.2l0.9-0.4
		c0.6-0.3,1.1-0.4,1.6-0.7c1.1-0.4,2.3-0.8,3.4-1.2c0.6-0.2,1.1-0.2,1.8-0.4c0.7,0,1.2-0.1,2.2,0.3c0.3,0.2,0.4,0.1,0.8,0.5
		c0.3,0.2,0.6,0.4,0.7,0.7c0.4,0.5,0.7,0.9,1.1,1.4c0.1,0.1,0.2,0.4,0.4,0.5c0.1,0.1,0.1,0.1,0.1,0.1l0,0c-0.1,0.1,0,0,0.1-0.1
		c0.6,0.1,1.2,0.1,1.5,0.1c1.2,0.1,2.1,0.2,3.2,0.2c0.5-0.1,0.9,0.1,1.4,0l0.7,0l0.6-0.2c1.9-0.5,3.9-0.9,5.9-0.9
		c2,0,3.8,0.6,5.3,0.9c1.6,0.3,3.2,0.5,4.6,0.5c0.7,0,1.4,0,2.1-0.2c0.6-0.2,1.4-0.2,2-0.3c1.4-0.2,2.4-0.2,3.5-0.6
		c0.5-0.1,1-0.2,1.5-0.2c0.4-0.2,0.9-0.3,1.2-0.5c0.8-0.2,1.5-0.6,1.9-0.8c0.6-0.3,0.9-0.4,1.1-0.6c0.3-0.1,0.4-0.2,0.4-0.2l0.1,0.1
		c0,0-0.1,0.1-0.4,0.2c-0.3,0.1-0.7,0.4-1.1,0.6c-0.6,0.3-1.1,0.6-1.9,1c-0.4,0.2-0.9,0.4-1.4,0.5c-0.5,0.1-0.9,0.3-1.4,0.4
		c-1.1,0.4-2.3,0.5-3.6,0.8c-0.6,0.2-1.3,0.3-2,0.3c-0.6,0.2-1.4,0.4-2.2,0.3c-1.6,0.1-3.2-0.2-4.9-0.4c-1.7-0.2-3.5-0.7-5.1-0.8
		c-1.8,0-3.5,0.6-5.6,1.1c-0.5,0.1-1,0.2-1.7,0.3c-0.5,0.1-1.1,0-1.7,0c-1.1,0-2.2,0-3.3-0.1c-0.6-0.1-1.1,0-1.7,0
		c-0.4,0-1.1-0.3-1.2-0.5c-0.3-0.2-0.4-0.5-0.6-0.8c-0.2-0.4-0.7-0.9-0.9-1.4c-0.1-0.3-0.4-0.4-0.4-0.5c-0.1-0.1-0.5-0.3-0.6-0.4
		c-0.2-0.1-0.8-0.1-1.2-0.1c-0.5,0.1-1,0.2-1.5,0.2c-1.1,0.4-2.1,0.8-3.2,1.1l-1.6,0.7c-0.4,0.2-1.2,0.5-1.3,0.7c-0.5,0.8-1,2-1.5,3
		l-0.8,1.7l-0.4,0.9l-0.1,0.2c-0.1,0.1-0.1,0.2-0.4,0.4c-0.5,0.4-1.2,0.1-1,0.2c-0.7-0.7-0.1-0.3-0.4-0.4l-0.1-0.1l-0.1-0.3
		c-0.6-1.1-0.8-2.5-0.9-3.7c-0.1-2.7,0.6-5.2,1.8-7.4c0.5-1.2,1.2-2.3,2.1-3.3c0.9-1,1.8-1.8,2.8-2.7c0.9-0.8,1.8-1.7,2.7-2.5
		l2.6-2.6c0.9-0.8,1.6-1.8,2.6-2.6c0.8-0.9,1.6-1.8,2.1-2.9c2.6-4.1,4.2-8.7,5.8-13c0.3-1.1,0.7-2.2,1.2-3.3
		c0.3-1.1,0.7-2.2,1.2-3.2c1.1-2,2.6-3.7,4.2-5.3c3.1-3.1,6.5-5.4,9.7-7.2c0.9-0.4,1.6-0.8,2.4-1.3s1.6-0.8,2.4-1
		c1.7-0.5,3.2-0.9,4.7-1.2c3-0.5,5.6-0.4,7.9,0.1c2.2,0.5,3.6,1.6,4.5,2.4C867.5,503.8,867.8,504.3,867.8,504.3L867.8,504.3z"/>
</g>
<g>
	<path fill="#FFFFFF" d="M815.9,544.4c0,0,0.9-1.4,2.3-3.6c0.7-1.1,1.5-2.4,2.4-3.8c0.3-0.7,0.7-1.5,1-2.2c0.3-0.7,0.6-1.6,1-2.3
		c0.3-0.9,0.5-1.7,0.9-2.5c0.3-0.9,0.6-1.6,1-2.3c0.3-0.7,0.8-1.5,1.3-2.1c0.4-0.6,1.2-1.2,1.6-1.5c0.5-0.4,1-0.9,1.3-1.2
		c0.4-0.4,0.6-0.7,0.8-0.9s0.3-0.5,0.5-0.8c0.1-0.2,0.1-0.2,0.1-0.2l0.1-0.1c0,0,0.1,0.1,0,0.4s-0.1,0.6-0.3,0.9
		c-0.1,0.4-0.3,0.9-0.6,1.2c-0.4,0.4-0.6,0.9-1.1,1.5c-0.2,0.3-0.4,0.6-0.6,0.9c-0.2,0.3-0.4,0.6-0.6,0.9c-0.4,0.6-0.8,1.3-1.2,1.9
		c-0.7,1.5-1.4,2.9-2.2,4.6c-0.3,0.7-0.6,1.6-1.1,2.4c-0.5,0.8-0.8,1.5-1.4,2.2c-0.9,1.4-1.9,2.6-2.7,3.6
		C817.1,543.2,815.9,544.6,815.9,544.4L815.9,544.4z"/>
</g>
<g>
	<path fill="#FFFFFF" d="M831.8,515.4c0,0-0.6,0.3-1.4,0.9c-0.4,0.2-0.9,0.7-1.5,1c-0.5,0.4-1.2,0.8-1.8,1.5
		c-0.6,0.5-1.2,1.2-1.9,1.9c-0.4,0.4-0.5,0.8-0.8,1.2c-0.2,0.3-0.4,0.9-0.7,1.5c-0.4,0.9-0.8,1.9-1.2,3c-0.3,1.1-0.7,2.2-0.9,3.2
		c-0.3,1.1-0.5,2.2-0.7,3.3c-0.1,1.2-0.3,2.2-0.7,3.3c-0.2,1-0.5,2.1-1,3s-0.7,1.8-1.2,2.6c-0.3,0.7-0.8,1.5-1.3,2.1
		s-0.7,1.1-1.1,1.5s-0.6,0.7-0.9,0.8c-0.3,0.1-0.4,0.4-0.4,0.4l-0.1-0.1c0,0,0.1-0.1,0.2-0.3c0.1-0.2,0.3-0.5,0.6-1
		c0.4-0.9,1-2.2,1.7-3.8c0.3-0.7,0.6-1.6,0.9-2.5c0.3-0.9,0.5-1.7,0.9-2.8c0.2-1,0.5-2.1,0.7-3.3c0.3-1.1,0.7-2.2,1-3.3
		c0.3-1.1,0.7-2.2,1-3.3c0.3-1.1,0.9-2.1,1.3-3c0.3-0.5,0.4-0.9,0.8-1.3c0.4-0.4,0.6-0.9,1-1.2c0.7-0.7,1.5-1.3,2.1-1.8
		c0.6-0.5,1.4-0.9,2-1.4c0.6-0.3,1.1-0.6,1.6-0.8C831.2,515.6,831.8,515.3,831.8,515.4L831.8,515.4z"/>
</g>
<g>
	<path fill="#FFFFFF" d="M860.6,546c0,0-0.7-0.2-1.7-0.8c-1-0.6-2.4-1.5-3.9-2.9c-0.7-0.7-1.5-1.6-2.1-2.6c-0.7-0.9-1-2.4-1.3-3.5
		c-0.2-0.6-0.3-1.3-0.5-1.9c-0.2-0.6-0.2-1.4-0.3-2c-0.2-0.6-0.2-1.4-0.3-2l0-2c0-0.4,0-0.7,0-1.1l0.2-1l0.2-1l0.1-0.2l0,0l0,0l0,0
		l0,0l-0.1-0.1l0.1-0.4c0.3-1.2,0-2-0.6-2.9l-0.2-0.4l-0.1-0.1l-0.1-0.1l0,0c-0.1-0.1-0.1-0.1-0.1-0.3c0-0.4,0.1-0.6,0.2-0.7
		c0.2-0.3,0.6-0.3,0.8-0.2l0.2,0.1c0.7,0.2,0.7,0.3,1,0.6c0.5,0.3,1.1,0.7,1.5,1.1c0.9,0.8,1.8,1.4,2.6,2.1c0.7,0.7,1.3,1.5,1.8,2.1
		s0.9,1.4,1.1,1.8c0.3,0.6,0.5,1,0.7,1.3c0.1,0.3,0.2,0.4,0.2,0.4l-0.1,0.1c0,0-0.1-0.1-0.2-0.4c-0.1-0.3-0.4-0.7-0.7-1.1
		c-0.4-0.5-0.9-1-1.3-1.5c-0.3-0.2-0.5-0.6-0.8-0.9c-0.4-0.4-0.7-0.6-1-0.9c-0.7-0.6-1.6-1.3-2.6-1.9c-0.5-0.3-0.9-0.6-1.4-0.9
		l-0.3-0.2c-0.1-0.1-0.3-0.2-0.2-0.1l0,0c0.2,0.1,0.5-0.1,0.6-0.2c0.1-0.1,0.2-0.3,0.2-0.7c-0.1-0.1-0.1-0.1-0.1-0.3l0,0l0.1,0.1
		l0,0c-0.1-0.1,0,0,0,0l0,0l0.4,0.4c0.4,0.5,0.8,1.2,0.9,2.1c0.2,0.8,0.1,1.6-0.1,2.2l-0.1,0.4l-0.1,0.2l-0.1,0.2l-0.3,0.9l-0.3,0.9
		c0,0.4-0.1,0.6-0.1,0.9l-0.1,1.9c0,0.7,0.1,1.2,0.1,1.9c0.2,0.6,0.1,1.2,0.2,1.9c0.2,0.6,0.3,1.3,0.4,1.8c0.3,1.3,0.5,2.3,1,3.3
		c0.5,1,1.1,1.8,1.8,2.5c1.3,1.5,2.7,2.4,3.7,3.2C860,545.6,860.8,545.9,860.6,546L860.6,546z"/>
</g>
<g>
	<path fill="#FFFFFF" d="M851,495.5c0,0-0.1-0.3-0.2-0.8c-0.1-0.5-0.3-1.3-0.5-2.3c-0.1-0.5,0-1.1,0-1.7c0.1-0.6,0.5-1.2,0.6-1.6
		c0.3-1.1,0.8-2.2,1.1-3.5c0.5-1.2,0.9-2.5,1.8-3.5c0.2-0.3,0.5-0.4,0.8-0.6l0.3-0.1c0.1-0.1,0.1-0.1,0.3-0.1l0.3-0.1
		c0.4-0.2,1.1-0.2,1.7-0.3c0.5-0.1,0.9,0.1,1.4,0.2c0.4,0.1,0.7,0.2,1.1,0.3c0.5,0.3,0.8,0.5,0.8,0.5l-0.1,0.2c0,0-0.4,0-0.9,0.1
		c-0.5,0.1-1.2,0.1-2,0.3c-0.1,0.1-0.5,0.1-0.6,0.2s-0.3,0.1-0.6,0.3l-0.4,0.2l-0.1,0.1l-0.1,0.1c-0.1,0.1-0.4,0.4-0.5,0.4
		c-0.7,0.7-1.3,1.7-1.8,2.9c-0.5,1.2-1,2.3-1.5,3.3c-0.3,0.5-0.6,1-0.7,1.5c-0.1,0.4-0.2,1-0.2,1.4c-0.1,0.9,0,1.7,0,2.2
		C851.2,495,851.2,495.4,851,495.5L851,495.5z"/>
</g>
<g>
	<path fill="#FFFFFF" d="M851.2,489.9c0,0-0.5,0.1-1.3,0.7c-0.4,0.2-1,0.5-1.5,1c-0.2,0.3-0.5,0.4-0.7,0.7c-0.2,0.3-0.4,0.6-0.8,0.9
		c-0.3,0.7-0.8,1.5-1.2,2.3c-0.4,0.9-0.9,1.7-1.3,2.7c-1.1,1.8-2.2,3.9-3.4,5.6c-0.3,0.5-0.6,0.9-1.1,1.5l-0.7,0.7
		c-0.1,0.1-0.4,0.4-0.6,0.7c-0.9,0.8-1.6,1.5-2.3,2.3c-0.7,0.7-1.4,1.5-2,2.1c-0.7,0.7-1.3,1.2-1.9,1.9c-0.6,0.7-1.1,1.1-1.5,1.7
		c-0.4,0.6-0.8,0.9-1.1,1.3c-0.7,0.7-1.1,1.1-1.1,1.1l-0.2-0.1c0,0,0.3-0.5,0.7-1.5c0.4-0.9,1.1-2,2.2-3.5c0.5-0.8,1.1-1.5,1.6-2.1
		c0.1-0.2,0.4-0.4,0.4-0.6c0.2-0.3,0.4-0.4,0.6-0.7c0.4-0.4,0.7-0.7,1.1-1.1c0.7-0.7,1.6-1.5,2.3-2.1l0.6-0.5l0.5-0.4
		c0.4-0.4,0.7-0.7,1-1.2c1.3-1.7,2.5-3.6,3.6-5.3c0.6-0.9,1.1-1.8,1.5-2.6s1-1.6,1.5-2.4c0.4-0.4,0.6-0.7,0.8-0.9
		c0.3-0.1,0.6-0.5,0.9-0.7c0.6-0.3,1.1-0.7,1.6-0.8C850.7,489.8,851.2,489.8,851.2,489.9L851.2,489.9z"/>
</g>
<g>
	<path fill="#FFFFFF" d="M863.5,483.7c0,0-0.3-0.2-0.8-0.5c-0.5-0.3-1.2-1-2-1.7c-0.4-0.4-0.7-0.9-1.1-1.4c-0.4-0.5-0.7-1.1-1-1.6
		c-0.3-0.6-0.6-1.1-0.8-1.9c-0.2-0.6-0.5-1.4-0.5-2.1c0-0.7-0.2-1.5-0.3-2.2s0-1.4,0-2.2c0-0.7,0.1-1.3,0.3-1.9
		c0.1-0.6,0.3-1.2,0.4-1.7c0.3-1.1,0.5-1.9,0.8-2.4c0.2-0.7,0.3-0.9,0.3-0.9l0.2,0.1c0,0,0,0.4,0.2,1c0,0.7,0,1.4-0.1,2.6
		c0,1.1-0.1,2.2-0.2,3.5c-0.1,0.6-0.1,1.3,0,2s0.1,1.2,0.1,1.9s0.3,1.3,0.4,2.2c0.2,0.6,0.5,1.2,0.6,1.9c0.3,0.6,0.6,1.1,0.9,1.7
		c0.3,0.6,0.5,1,0.9,1.4c0.6,0.8,1.3,1.5,1.7,1.8C863.2,483.5,863.5,483.7,863.5,483.7L863.5,483.7z"/>
</g>
<g>
	<path fill="#FFFFFF" d="M859.4,467.3c0,0,0.1-0.8,0.1-1.9c0.1-0.6,0-1.4,0-2.2c-0.1-0.9-0.4-1.8-0.8-2.7c-0.5-1-1.1-1.8-1.6-3.1
		c-0.3-0.6-0.3-1.3-0.2-2.1c0-0.4,0.2-0.7,0.4-0.9l0.4-0.9c0.5-1.2,0.5-2.5,0.4-3.8c0-0.7-0.2-1.4-0.3-2c0-0.4-0.2-0.6-0.3-0.9
		c-0.1-0.3-0.2-0.6-0.4-1.1c-0.2-0.8-0.2-1.5-0.3-2.2c0-0.4,0.1-0.8,0.1-1.2c0.1-0.2,0.1-0.4,0.2-0.7l0.2-0.3l0.1-0.2l0,0l0,0
		c0.1-0.1-0.1,0.1,0,0l0,0c0.3-0.7,0.3-1.1,0.5-1.9c0.2-0.7,0.3-1.4,0.5-2.1c0.2-0.7,0.6-1.4,0.8-1.9c0.2-0.3,0.4-0.6,0.6-0.9
		c0.2-0.3,0.5-0.4,0.7-0.7c0.4-0.6,1-0.9,1.5-1.3c0.3-0.1,0.5-0.4,0.8-0.6c0.3-0.1,0.4-0.2,0.7-0.4c1-0.5,1.9-1,2.6-1.3
		c0.7-0.4,1.4-0.7,2.1-0.9c1.2-0.5,1.9-0.6,1.9-0.6l0.1,0.1c0,0-0.6,0.3-1.6,1c-0.6,0.3-1.1,0.7-1.9,1.3c-0.6,0.5-1.5,1-2.4,1.6
		c-0.3,0.1-0.4,0.2-0.7,0.4c-0.1,0.1-0.4,0.4-0.6,0.5c-0.4,0.4-0.9,0.7-1.2,1.2c-0.2,0.3-0.4,0.4-0.6,0.7c-0.2,0.3-0.3,0.5-0.5,0.8
		c-0.3,0.5-0.5,1.2-0.8,1.7c-0.2,0.7-0.4,1.3-0.5,1.9c-0.1,0.6-0.4,1.7-0.7,2.2l-0.3,0.5c-0.1,0.1-0.1,0.2-0.1,0.4
		c-0.1,0.2-0.1,0.6-0.3,0.9c-0.1,0.6-0.1,1.3,0.1,1.9c0,0.4,0.2,0.6,0.3,0.9c0.1,0.3,0.2,0.8,0.2,1.1c0.2,0.6,0.2,1.5,0.3,2.2
		c0,1.4-0.1,3-0.7,4.2l-0.4,0.9c-0.1,0.2-0.3,0.5-0.3,0.7c-0.1,0.6-0.1,1.2,0.1,1.6c0.4,1.1,1,2,1.4,3.1c0.5,1,0.7,2,0.8,2.9
		c0.1,0.9,0,1.7-0.1,2.2C859.7,466.8,859.5,467.4,859.4,467.3L859.4,467.3z"/>
</g>
<g>
	<path fill="#FFFFFF" d="M868.5,432.1c0,0,0.4-0.6,1.1-1.5c0.3-0.5,0.7-1.1,0.8-1.9c0.1-0.4,0.3-0.9,0.1-1.2c0.1-0.2-0.1-0.5,0-0.7
		c0-0.4,0.1-0.6,0.1-0.8c0.4-0.9,1.3-1.7,2.1-2.6c0.9-0.8,2-1.4,2.9-2.1c1.1-0.6,2.2-1.3,3.4-1.8c1.1-0.6,2.4-1,3.7-1.6
		c1.2-0.5,2.7-0.8,4.1-0.9c0.7,0,1.4-0.2,2,0c0.7,0.2,1.4,0.2,2,0.4c1.3,0.4,2.4,1.1,3.3,1.7s1.7,1.3,2.6,1.9c0.8,0.5,1.6,1,2.2,1.4
		c0.7,0.2,1.4,0.6,1.8,0.7c1,0.2,1.8,0.3,1.8,0.3l-0.1,0.2c0,0-0.7,0-1.8,0c-0.6-0.1-1.4-0.2-2.2-0.3c-0.7-0.3-1.6-0.6-2.6-1.2
		c-0.8-0.5-1.8-1.1-2.7-1.7c-1-0.6-1.9-1.2-3-1.5c-0.5-0.3-1.1-0.3-1.7-0.4c-0.6-0.1-1.2-0.1-1.7-0.2c-1.2,0.1-2.4,0.2-3.7,0.6
		c-1.2,0.5-2.4,0.9-3.7,1.4c-1.2,0.5-2.4,1-3.4,1.6c-1.1,0.6-2.1,1.3-3,1.9c-0.9,0.7-1.6,1.4-2.1,2.2c-0.1,0.2-0.1,0.4-0.2,0.7
		c0,0-0.1,0.2,0,0.4c0.1,0.1-0.1,0.2,0,0.4c0.1,0.5-0.2,1-0.3,1.2c-0.3,0.7-0.8,1.3-1.1,1.8C869,431.6,868.5,432.1,868.5,432.1
		L868.5,432.1z"/>
</g>
<g>
	<path fill="#FFFFFF" d="M901.7,440.6c0,0-0.4,0.2-0.9,0.8c-0.4,0.6-0.9,1.4-1.6,2.5c-0.3,0.5-0.7,1.1-1.2,1.5
		c-0.6,0.7-1.1,1.1-1.7,1.6c-0.6,0.5-1.4,0.9-2,1.4c-0.7,0.4-1.4,0.9-2.3,1.2c-0.7,0.4-1.4,0.7-2.4,1c-0.8,0.2-1.6,0.5-2.6,0.6
		c-0.7,0-1.6-0.3-2.4-0.4c-0.7-0.2-1.4-0.6-1.9-0.8c-2.3-1.2-3.5-2.2-3.5-2.2l0.1-0.2c0,0,0.4,0.1,1.1,0.3c0.7,0.2,1.7,0.4,2.8,0.9
		c0.7,0.2,1.2,0.3,1.9,0.5c0.6,0.1,1.2,0.3,1.9,0.3c0.2,0.1,0.6-0.2,0.9-0.1c0.4,0,0.6-0.2,1.1-0.2c0.8-0.2,1.6-0.5,2.3-0.8
		c0.8-0.2,1.5-0.6,2.2-1c0.7-0.4,1.4-0.7,1.9-1.2c0.6-0.3,1.1-1,1.7-1.3c0.5-0.4,1-0.9,1.3-1.4c0.8-0.9,1.3-1.7,1.8-2.4
		C901.2,440.7,901.6,440.5,901.7,440.6L901.7,440.6z"/>
</g>
<g>
	<path fill="#FFFFFF" d="M897.4,442.5c0,0,0.7-0.4,1.9-1.2c1.2-0.8,2.9-1.8,4.8-3.4c0.9-0.8,1.8-1.7,2.8-2.7
		c0.2-0.3,0.4-0.6,0.6-0.9c0.1-0.2,0.2-0.3,0.3-0.5l0.3-0.5c0.3-0.7,0.6-1.4,0.9-2.1c0.3-1.4,0.8-3,1.3-4.5s1.1-3.1,1.8-4.6
		s1.3-3,2.2-4.4c0.2-0.3,0.3-0.7,0.7-1.1c0.1-0.2,0.4-0.4,0.4-0.6l0.2-0.3c0,0,0.1-0.1,0,0l0,0c0,0-0.1,0.1-0.1,0.2
		c0.1,0.1-0.1,0.1-0.1,0.6c0.3,0.6,0.4,0.5,0.4,0.5l0.2,0.1l0,0c-0.8,0.2-1.4,0.5-2.1,0.8c-0.8,0.2-1.6,0.5-2.2,0.6
		c-0.6,0.2-1.4,0.4-2.1,0.5c-1.4,0.4-2.5,0.8-3.7,1.2c-1.1,0.4-2.1,0.8-3.1,1.1c-0.9,0.3-1.6,0.7-2.4,1c-0.6,0.3-1.1,0.6-1.4,0.7
		c-0.3,0.1-0.6,0.3-0.6,0.3l-0.1-0.1c0,0,0.6-0.5,1.8-1.5c0.6-0.3,1.4-0.9,2.2-1.3s1.9-1,3.1-1.4c1.2-0.5,2.4-1,3.8-1.4
		c0.6-0.2,1.4-0.5,2.1-0.5c0.6-0.2,1.4-0.4,2-0.7c0.3-0.1,0.8-0.2,1.1-0.4c0.4-0.2,0.6-0.3,1.2-0.5l0.1-0.1c0,0,0.2,0.1,0.4,0
		c0,0,0.2,0.1,0.4,0.5c0.1,0.5,0.1,0.5-0.1,0.6l-0.1,0.2l-0.1,0.1c-0.1,0.1-0.1,0.1-0.3,0.1c-0.1,0.1-0.1,0.1-0.1,0.1
		c-0.1,0.1-0.3,0.1-0.4,0.4c-0.2,0.3-0.4,0.6-0.6,0.9c-0.8,1.3-1.6,2.8-2.3,4.3c-0.7,1.5-1.4,2.9-1.9,4.4c-0.5,1.5-1,3-1.4,4.6
		c-0.3,0.7-0.6,1.4-0.9,2.1l-0.3,0.5c-0.1,0.2-0.2,0.3-0.3,0.5c-0.2,0.3-0.4,0.6-0.6,0.9c-0.9,1-2.1,2-3,2.6c-2,1.4-3.8,2.5-5,3.3
		C898.2,442.3,897.4,442.5,897.4,442.5L897.4,442.5z"/>
</g>
<g>
	<path fill="#FFFFFF" d="M902.8,433.3c0,0-0.1,0.1-0.4,0c-0.2-0.1-0.7,0-1.1,0c-0.6-0.1-1.1,0-1.7-0.2c-0.7,0-1.5-0.1-2.2-0.1
		c-0.7,0-1.7,0.2-2.6,0.3c-0.8,0.2-1.8,0.4-2.9,0.8c-0.9,0.3-2,0.7-2.9,1c-0.9,0.4-1.8,1.1-2.5,1.8l-0.4,0.6
		c-0.1,0.1-0.2,0.3-0.2,0.3l-0.2,0.3c-0.3,0.5-0.6,0.9-0.8,1.3c-0.5,0.8-0.8,1.9-1.3,2.8c-0.4,0.9-0.8,1.9-1.3,2.8
		c-0.1,0.4-0.5,0.8-0.8,1.3c-0.1,0.2-0.4,0.4-0.4,0.6l-0.2,0.3l-0.3,0.1c-0.6,0.5-1.3,1-1.8,1.5c-0.5,0.4-1.1,0.7-1.4,1.1
		c-0.8,0.6-1.4,0.9-1.4,0.9l-0.1-0.1c0,0,0.4-0.4,1.1-1.1c0.7-0.7,1.6-1.8,2.6-3l0.2-0.3l0.1-0.2c0.1-0.2,0.2-0.3,0.3-0.5
		c0.1-0.4,0.3-0.7,0.5-1.2c0.3-0.9,0.7-1.8,1.1-2.8c0.4-0.9,0.8-1.9,1.5-3c0.3-0.5,0.6-0.9,0.9-1.4l0.2-0.3c0.1-0.2,0.2-0.3,0.4-0.4
		l0.6-0.7c0.9-0.8,1.8-1.5,3-1.9c1.1-0.4,2.1-0.8,3.2-0.9c1-0.2,1.9-0.5,2.9-0.6c1-0.2,1.9-0.1,2.7-0.1c0.9,0.1,1.5,0.1,2.3,0.3
		c0.6,0.1,1.2,0.3,1.7,0.2c0.4,0.1,0.8,0.1,1.2,0.1C902.7,433.2,902.8,433.3,902.8,433.3L902.8,433.3z"/>
</g>
<g>
	<path fill="#FFFFFF" d="M868.1,476.2c0,0-0.2-0.1-0.4-0.1c-0.3-0.2-0.7-0.6-0.9-1c-0.3-0.6-0.6-1.1-0.8-1.9c0-0.4-0.1-0.9-0.1-1.2
		c-0.1-0.5,0.2-1,0.3-1.4c0.4-0.9,1.1-1.8,1.5-2.8c0.6-1,1.2-1.9,1.9-3c0.8-0.9,1.4-2.2,2.3-3c0.9-1,1.8-1.8,2.3-3
		c1-2.2,1.3-4.8,0.8-6.9c-0.1-0.5-0.3-0.9-0.5-1.4c-0.1-0.3-0.7-0.7-1.1-1.1c-0.7-0.7-1.5-1.6-2.3-1.9c-0.8-0.5-1.5-0.8-2.2-0.8
		s-1.4,0.2-1.9,0.2c-0.5,0.1-0.9,0.3-1.1,0.4c-0.1,0.1-0.1,0.2-0.1,0.2l-0.1,0.2c0,0,0,0-0.1-0.1c-0.1-0.1-0.1-0.3,0-0.4
		c0.2-0.3,0.6-0.5,1.2-0.8c0.4-0.2,1.2-0.5,2.1-0.5c0.9-0.1,1.9,0.1,2.8,0.5c0.9,0.4,1.9,1.2,2.6,1.9c0.4,0.4,0.9,0.6,1.4,1.3
		c0.4,0.5,0.8,1.2,1,1.9c0.3,1.3,0.3,2.7,0.1,4.1c-0.2,1.4-0.6,2.7-1.2,3.9c-0.8,1.3-1.8,2.2-2.6,3c-0.9,0.8-1.6,1.9-2.3,2.8
		c-0.8,0.9-1.3,2-2,2.8c-0.6,1-1.2,1.9-1.7,2.7c-0.1,0.4-0.3,0.7-0.4,1.3c-0.1,0.4-0.1,0.8,0.1,1.2c0,0.7,0.4,1.4,0.6,1.9
		C867.4,475.7,867.8,476,868.1,476.2C867.9,475.9,868.2,476,868.1,476.2L868.1,476.2z"/>
</g>
<g>
	<path fill="#FFFFFF" d="M873.1,457.5c0,0,0-0.4-0.1-0.9c-0.1-0.5-0.2-1.1-0.4-1.8c-0.1-0.3-0.2-0.6-0.3-0.9c0-0.4,0.1-0.6,0.1-0.8
		c0.1-0.4,0.4-0.9,0.4-0.9l0.1-0.1c0,0,0.4,0.1,0.7,0.7c0.1,0.3,0.3,0.6,0.3,0.9s0,0.7-0.2,1c0,0.7-0.2,1.4-0.3,1.8
		C873.5,457.3,873.3,457.6,873.1,457.5L873.1,457.5z"/>
</g>
<g>
	<path fill="#FFFFFF" d="M871.6,459c0,0,0-0.4-0.2-0.8c-0.1-0.5-0.2-1.1-0.3-1.7c0-0.4-0.2-0.6-0.2-1c0-0.4,0.1-0.6,0.1-0.8
		c0.1-0.4,0.5-0.8,0.5-0.8l0.1-0.1c0,0,0.4,0.4,0.6,0.8c0.1,0.3,0.2,0.4,0.2,0.8s-0.2,0.7-0.2,1c-0.1,0.6-0.3,1.2-0.4,1.7
		C871.8,458.7,871.9,459,871.6,459L871.6,459z"/>
</g>
<g>
	<path fill="#FFFFFF" d="M869.5,461.9c0,0,0-0.4-0.1-0.9c-0.1-0.5-0.1-1.2-0.2-1.7c0-0.4-0.2-0.6-0.2-1c0-0.4,0.1-0.6,0.1-0.8
		c0.3-0.5,0.5-0.8,0.5-0.8l0.1-0.1c0,0,0.4,0.4,0.6,0.8c0.1,0.3,0.2,0.6,0.1,0.9c0,0.4-0.2,0.7-0.2,1c-0.2,0.7-0.4,1.3-0.5,1.7
		C869.8,461.7,869.7,461.9,869.5,461.9L869.5,461.9z"/>
</g>
<g>
	<path fill="#FFFFFF" d="M867.5,464.7c0,0,0-0.4-0.2-1c-0.1-0.5,0-1.4,0-2.2c0-0.4,0-0.7,0-1.1c0-0.4,0.2-0.7,0.3-0.9
		c0.3-0.5,0.6-0.9,0.6-0.9l0.1-0.1c0,0,0.4,0.4,0.5,1c0.1,0.3,0.2,0.6,0.2,1c0,0.4-0.1,0.8-0.3,1.1c-0.1,0.8-0.5,1.5-0.6,2
		C867.9,464.4,867.8,464.8,867.5,464.7L867.5,464.7z"/>
</g>
<g>
	<path fill="#FFFFFF" d="M880.9,446.5c0,0,0.6,0.1,1.5,0.1c0.9,0.1,2,0,3.3,0.1c0.5-0.1,1.1-0.2,1.7-0.2c0.5-0.1,1.1,0,1.4,0
		c0.9-0.1,1.5,0.1,1.5,0.1l0.1,0.1c0,0-0.4,0.6-1.3,1c-0.4,0.2-0.9,0.3-1.6,0.5c-0.6-0.1-1.2-0.1-1.9-0.1c-1.2-0.3-2.4-0.4-3.3-0.8
		C881.5,446.9,880.9,446.7,880.9,446.5L880.9,446.5z"/>
</g>
<g>
	<path fill="#FFFFFF" d="M881.7,444.5c0,0,0.8,0.1,1.9,0.3c0.6,0.1,1.3,0.1,1.9-0.1c0.4,0,0.7,0,1.1-0.2c0.4,0,0.9-0.1,1.1-0.2
		c0.3-0.1,0.8-0.2,1.1-0.4c0.3-0.1,0.8-0.2,1.1-0.4c0.8-0.2,1.4-0.4,2-0.3c0.6-0.2,1.1,0,1.4,0c0.4,0,0.6,0.1,0.6,0.1l0.1,0.1
		c0,0-0.1,0.1-0.5,0.4c-0.2,0.3-0.8,0.6-1.2,0.8c-0.6,0.3-1.1,0.6-1.9,0.8c-0.4,0-0.8,0.2-1.1,0.2c-0.4,0-0.9,0.1-1.2,0.1
		c-0.4,0-0.9,0.1-1.2,0.1c-0.4,0-0.9,0.1-1.3-0.1c-0.7,0-1.5-0.1-2.2-0.3C882.4,445,881.6,444.7,881.7,444.5L881.7,444.5z"/>
</g>
<g>
	<path fill="#FFFFFF" d="M883.1,442.3c0,0,0.2,0.1,0.6,0.1s0.8,0.1,1.5,0.1c0.7,0,1.3,0.1,2.1-0.2c0.4,0,0.8-0.2,1.1-0.2l0.5-0.1
		l0.6-0.2c0.8-0.2,1.5-0.6,2.3-0.8s1.5-0.2,2.2-0.4c1.4-0.2,2.1-0.2,2.1-0.2l0.1,0.1c0,0-0.8,0.6-1.9,1.2c-0.6,0.3-1.4,0.5-2,0.7
		c-0.8,0.2-1.7,0.3-2.5,0.4l-0.6,0.2c-0.4,0-0.5,0.1-0.7,0c-0.4,0-0.9,0.1-1.2,0.1c-0.4,0-0.9,0.1-1.2-0.1c-0.4,0-0.8-0.1-1-0.2
		c-0.6-0.1-1.2-0.3-1.4-0.3C883.3,442.6,883,442.5,883.1,442.3L883.1,442.3z"/>
</g>
<g>
	<path fill="#FFFFFF" d="M884.1,440c0,0,0.9-0.1,2.2-0.4c0.6-0.2,1.3-0.3,2.2-0.4c0.4,0,0.8-0.2,1.1-0.2c0.4,0,0.9-0.1,1.1-0.2
		c0.8-0.2,1.6-0.7,2.4-0.9s1.5-0.2,2.2-0.4c1.4-0.2,2.2,0,2.2,0l0.1,0.1c0,0-0.8,0.6-1.9,1.2c-0.6,0.3-1.4,0.5-2.1,0.8
		c-0.8,0.2-1.7,0.3-2.5,0.4c-0.5,0.1-0.9,0.1-1.4,0.2c-0.4,0-0.9,0.1-1.2,0.1c-0.9,0.1-1.6,0.1-2.3,0.1
		C884.9,440.1,884,440.2,884.1,440L884.1,440z"/>
</g>
<g>
	<path fill="#FFFFFF" d="M897.5,429.5c0,0-0.5-0.3-1.3-0.8c-0.9-0.4-2.2-1-3.8-1.7c-0.9-0.3-1.7-0.5-2.7-0.6c-1-0.2-1.9-0.1-3,0.1
		c-1,0.2-2.1,0.5-3.1,1.1c-1,0.5-2.1,0.9-3,1.6c-1,0.5-1.9,1.2-2.9,1.7c-1,0.5-1.7,1.3-2.6,1.9c-0.8,0.6-1.5,1.3-2.3,1.9
		c-0.7,0.7-1.3,1.4-2.1,2c-0.6,0.5-1.2,1.2-1.9,1.5c-0.3,0.1-0.7,0.4-1,0.5c-0.3,0.1-0.6,0.2-0.8,0.2c-0.4,0.2-1,0.2-1.1,0.2
		c-0.4,0-0.4,0-0.4,0l-0.1-0.1c0,0,0.1-0.1,0.4-0.2c0.3-0.1,0.6-0.2,1-0.5c0.1-0.1,0.4-0.2,0.7-0.4c0.3-0.1,0.5-0.4,0.8-0.6
		c0.5-0.4,0.9-1,1.5-1.7c0.6-0.7,1.1-1.3,1.8-2.2c0.7-0.7,1.4-1.5,2.3-2.1s1.9-1.3,2.9-1.8c1-0.5,2-1,3.1-1.6c1-0.5,2.1-0.9,3.3-1.3
		c1.1-0.4,2.1-0.8,3.4-0.8c1-0.2,2.3-0.1,3.3,0.1c1,0.2,2,0.6,2.8,0.9c1.7,0.8,2.8,1.5,3.8,2C897.2,429.2,897.7,429.4,897.5,429.5
		L897.5,429.5z"/>
</g>
<g>
	<path fill="#FFFFFF" d="M877.8,445c0,0-1.2-0.3-2.9-1c-0.9-0.4-1.9-0.8-2.8-1.6c-0.5-0.3-0.9-0.8-1.4-1.3c-0.4-0.5-0.7-1.3-0.8-2.1
		c0.1-1.3,0.1-2.6,0.1-3.7c0.1-1.2,0.3-2.2,0.4-3.1c0.1-0.4,0.1-0.8,0.1-1.2c0-0.4,0-0.7,0.1-0.9c-0.1-0.5-0.1-0.9-0.1-0.9l0.1-0.1
		c0,0,0.1,0.3,0.4,0.9c0.1,0.3,0.3,0.6,0.3,0.9c0.2,0.4,0.2,0.8,0.3,1.3c0.2,1,0.2,2.1,0.1,3.2c-0.1,1.2-0.4,2.4-0.5,3.5
		c0.1,0.5,0.1,0.9,0.4,1.4c0.2,0.4,0.7,0.9,1,1.3c0.9,0.6,1.7,1.3,2.5,1.8C876.7,444.3,877.9,444.8,877.8,445L877.8,445z"/>
</g>
<g>
	<path fill="#FFFFFF" d="M902.6,427.8c0,0-0.5,0.1-1.4,0c-0.9,0.1-1.9-0.3-3-0.5c-0.4-0.1-1.1-0.3-1.7-0.4c-0.5-0.3-0.9-0.6-1.2-0.8
		c-0.6-0.8-0.8-1.2-0.8-1.2l0.1-0.1c0,0,0.7,0,1.4,0.3c0.4,0.1,0.9,0.3,1.2,0.5c0.2,0.1,0.4,0.1,0.6,0.4l0.7,0.3
		c0.9,0.4,1.9,0.8,2.8,1.1C902.1,427.5,902.7,427.6,902.6,427.8L902.6,427.8z"/>
</g>
<g>
	<path fill="#FFFFFF" d="M903.4,426.1c0,0-0.6-0.1-1.6,0.1c-0.9-0.1-2.2-0.1-3.4-0.2c-0.6-0.1-1.2-0.3-1.8-0.3
		c-0.7-0.2-1-0.6-1.5-0.8c-0.2-0.1-0.4-0.4-0.4-0.5c-0.1-0.1-0.1-0.3-0.2-0.4c-0.1-0.3-0.2-0.4-0.2-0.4l0.1-0.1c0,0,0.2,0.1,0.4,0.1
		c0.4,0,0.7,0.2,1,0.2c0.4,0.1,0.9,0.3,1.4,0.3c0.4,0.1,1,0.6,1.6,0.6c1.1,0.3,2.2,0.7,3.2,0.9C902.7,425.8,903.3,426,903.4,426.1
		L903.4,426.1z"/>
</g>
<g>
	<path fill="#FFFFFF" d="M868.4,479c0,0-0.4-0.1-1.1-0.3c-0.3-0.2-0.7-0.3-1-0.6c-0.3-0.2-0.7-0.6-1-0.9l-0.4-0.5
		c-0.1-0.1-0.2-0.4-0.3-0.6c-0.2-0.4-0.2-0.8-0.2-1.1c0-0.7,0.3-1.1,0.3-1.1l0.1-0.1c0,0,0.4,0.4,0.8,0.9c0.1,0.1,0.1,0.3,0.2,0.4
		c0.1,0.1,0.1,0.3,0.2,0.4c0.1,0.3,0.2,0.6,0.4,1.1c0.1,0.3,0.4,0.7,0.5,1c0.1,0.3,0.4,0.5,0.6,0.8
		C868.1,478.6,868.5,478.7,868.4,479L868.4,479z"/>
</g>
<g>
	<path fill="#FFFFFF" d="M867.2,480.5c0,0-0.3,0.1-1.1,0c-0.2-0.1-0.4,0-0.4-0.1c-0.2-0.1-0.3-0.2-0.5-0.3c-0.2-0.1-0.4-0.1-0.5-0.3
		l-0.4-0.5c-0.4-0.4-0.5-0.6-0.7-1.1c-0.1-0.1-0.2-0.4-0.2-0.6c-0.1-0.1,0-0.4,0.1-0.6c0.1-0.6,0.3-1.1,0.3-1.1l0.1-0.1
		c0,0,0.5,0.3,0.7,0.7c0.1,0.3,0.3,0.6,0.4,0.9c0.1,0.1,0.1,0.3,0.1,0.5c0.1,0.1,0,0.4,0.2,0.4l0.2,0.4c0.1,0.1,0.1,0.3,0.4,0.4
		c0.1,0.3,0.4,0.5,0.7,0.6c0.2,0.1,0.5,0.3,0.5,0.3C867.1,480.4,867.1,480.4,867.2,480.5L867.2,480.5z"/>
</g>
<g>
	<path fill="#FFFFFF" d="M866.4,483.1c0,0-0.6-0.1-1.4-0.3c-0.9-0.3-2-1-2.8-1.8c-0.3-0.2-0.4-0.5-0.6-0.8c-0.1-0.3-0.3-0.6-0.4-0.9
		c-0.3-0.6-0.2-1.1-0.3-1.7c-0.1-0.5,0.1-0.8,0.3-1.2c0.1-0.2,0.1-0.4,0.1-0.4l0.1-0.1c0,0,0.1,0.1,0.2,0.4c0.1,0.3,0.3,0.6,0.5,1
		c0.1,0.1,0.2,0.4,0.3,0.6c0.1,0.1,0.2,0.4,0.3,0.6c0.2,0.4,0.3,0.9,0.5,1.4c0.5,1,1.4,1.6,2.1,2.2C866,482.8,866.5,483,866.4,483.1
		L866.4,483.1z"/>
</g>
<g>
	<path fill="#FFFFFF" d="M875.3,510.8c0,0-1.5-0.8-3.6-2.3c-0.9-0.8-2.1-1.6-3.3-2.8c-0.5-0.6-1.2-1.2-1.6-2.1s-0.7-1.6-1-2.4
		c-0.4-0.7-0.7-1.4-1.2-1.9c-0.1-0.3-0.4-0.5-0.7-0.7c-0.3-0.2-0.6-0.4-0.9-0.6c-0.3-0.2-0.6-0.4-0.9-0.6c-0.3-0.2-0.7-0.3-0.9-0.4
		c-0.7-0.2-1.4-0.6-1.8-0.7c-0.5-0.3-1.1-0.3-1.6-0.3c-0.4-0.1-0.9-0.1-1.3-0.1c-0.7,0-1.1,0-1.1,0l-0.1-0.1c0,0,0.4-0.2,1.1-0.4
		c0.3-0.1,0.8-0.2,1.4-0.2c0.5-0.1,1.2-0.1,1.8,0c0.7,0,1.4,0.2,2,0.4c0.9,0.3,1.5,0.7,2.2,1c0.3,0.2,0.7,0.6,1,0.9
		c0.4,0.4,0.6,0.8,0.9,1c0.6,0.8,0.8,1.6,1.1,2.5c0.2,0.8,0.5,1.7,0.8,2.3c0.4,0.7,0.9,1.4,1.3,1.9c1,1.1,2.1,2.2,3,3
		C874.2,509.6,875.4,510.6,875.3,510.8L875.3,510.8z"/>
</g>
<g>
	<path fill="#FFFFFF" d="M865.4,497.6c0,0,0-0.7-0.2-1.9c-0.1-0.5-0.3-1.3-0.5-1.9c-0.1-0.3-0.2-0.6-0.4-1.1
		c-0.1-0.3-0.3-0.6-0.4-0.9c-0.1-0.3-0.4-0.5-0.7-0.9c-0.3-0.2-0.5-0.6-0.8-0.9s-0.4-0.5-0.6-0.8c-0.3-0.2-0.4-0.4-0.5-0.6
		c-0.1-0.3-0.4-0.4-0.5-0.6c-0.1-0.1-0.4-0.4-0.4-0.5c-0.3-0.2-0.4-0.4-0.4-0.4l0.1-0.2c0,0,0.2,0.1,0.6,0.1c0.4,0,0.9,0.1,1.5,0.5
		c0.3,0.2,0.6,0.4,0.9,0.6c0.3,0.2,0.7,0.6,0.8,0.9c0.4,0.4,0.5,0.6,0.7,0.9s0.4,0.7,0.6,1.1c0.2,0.4,0.2,0.8,0.5,1.2
		c0.1,0.5,0.1,0.9,0.2,1.1c0,0.7,0,1.4,0,2C865.6,496.9,865.6,497.7,865.4,497.6L865.4,497.6z"/>
</g>
<g>
	<path fill="#FFFFFF" d="M863.8,489.3c0,0,0.1-0.2,0.1-0.8c0.1-0.2-0.1-0.5,0-0.7c-0.1-0.3-0.1-0.5-0.2-0.8
		c-0.1-0.3-0.2-0.4-0.4-0.7c-0.1-0.1-0.1-0.5,0-0.7c0-0.4,0.1-0.9,0.1-0.9l0.1-0.1c0,0,0.4,0.1,0.9,0.4c0.3,0.2,0.4,0.5,0.6,0.8
		c0.1,0.3,0,0.7,0,1.1c0,0.4-0.1,0.8-0.2,1c-0.2,0.3-0.2,0.7-0.3,0.7C864.3,489.1,864.1,489.4,863.8,489.3L863.8,489.3z"/>
</g>
<g>
	<path fill="#FFFFFF" d="M911.8,541.4c0.4-3.5,0.8-6.9,0.4-10.4c-0.1-0.9-0.2-1.7-0.4-2.5c-0.2-0.8-0.5-1.6-0.7-2.4
		c-0.4-0.7-0.7-1.4-1.4-2c-0.4-0.5-1.3-0.8-2.1-1.3c-0.7-0.3-1.6-0.6-2.3-1c-0.9-0.3-1.7-0.4-2.5-0.7c-1.7-0.4-3.4-0.6-5.1-0.8
		c-0.8-0.1-1.7-0.2-2.6-0.1c-0.8-0.1-1.8,0-2.6-0.1l-2.7-0.2c-0.9-0.1-1.7-0.2-2.7-0.4l-0.1,0.1l-0.1-0.1c-2.9-1.8-5.7-3.6-8.2-5.7
		c-0.7-0.6-1.3-1.1-1.8-1.8c-0.7-0.6-1.2-1.2-1.7-1.8c-0.4-0.4-0.4-0.7-0.6-1.1c-0.2-0.4-0.4-0.7-0.5-1.2c-0.2-0.4-0.2-0.8-0.3-1.3
		c-0.1-0.1,0.1-0.2,0-0.4c0.1-0.2,0.2-0.3,0.4-0.2c0.2,0.1,0.4,0.1,0.6,0.4l-0.1,0.1c-0.2-0.1-0.3-0.2-0.5-0.3
		c-0.1,0.1-0.1,0.1-0.1,0.2c0,0.4,0.2,0.8,0.4,1.1c0.1,0.3,0.4,0.7,0.6,1.1c0.1,0.3,0.4,0.7,0.7,0.9c1,1.3,2.4,2.2,3.7,3.2
		c1.2,1,2.6,1.9,4,2.8s2.7,1.7,4.2,2.5l-0.2-0.1c0.8,0.1,1.6,0.3,2.5,0.3l2.5,0.3c0.8,0.1,1.7,0.2,2.5,0.3c0.9,0.1,1.7,0.2,2.7,0.2
		c1.7,0.2,3.5,0.5,5.2,0.9c0.9,0.3,1.7,0.5,2.6,0.8c0.9,0.3,1.7,0.5,2.5,1c0.7,0.3,1.7,0.8,2.4,1.5c0.7,0.7,1.1,1.4,1.5,2.3
		c0.3,0.9,0.5,1.7,0.8,2.5c0.1,0.9,0.2,1.7,0.3,2.6c0.2,1.7,0,3.5-0.1,5.3C912.4,538,912.2,539.7,911.8,541.4L911.8,541.4z"/>
</g>
<g>
	<path fill="#FFFFFF" d="M889.6,530.6c0.4-1.7,0.7-3.3,0.7-4.9c-0.1-0.9-0.1-1.6-0.3-2.4c-0.1-0.3-0.2-0.8-0.4-1.1
		c-0.1-0.3-0.4-0.7-0.7-0.9l-0.4-0.4l-0.5-0.3c-0.4-0.1-0.8-0.5-1-0.6c-0.7-0.3-1.5-0.7-2.2-0.8c-1.5-0.5-3.2-0.9-4.8-1.1l0.5-0.4
		l0.4,3.2l0,0.4l-0.3,0.1c-1.2,0.8-2.5,1.5-4.1,1.9c-0.8,0.2-1.4,0.4-2.3,0.5c-0.4,0-0.7,0-1.2-0.1s-0.9-0.3-1.2-0.5l-1.8-1.1
		c-0.7-0.3-1.3-0.8-1.9-1.2c-1.3-0.8-2.5-1.6-3.6-2.5l1.1-0.4c-0.2,0.7-0.3,1.2-0.3,1.8c0,0.4-0.1,0.6-0.1,0.9c0,0.4,0.2,0.6,0.2,1
		c0,0.4,0.2,0.6,0.4,0.9c0.1,0.3,0.3,0.6,0.4,0.9c0.3,0.6,0.9,1.4,0.9,2.4c0,1.1-0.5,1.9-0.9,2.5l-0.1,0.2l0,0c0,0,0.1-0.2,0,0l0,0
		l0,0l0,0l-0.1,0.1c-0.1,0.2-0.2,0.3-0.1,0.4l0,0.4l-0.1,0.4c-0.1,0.6-0.1,1.3,0.1,1.9c0.1,0.5,0.4,1.1,0.8,1.6
		c0.4,0.5,0.9,1,1.3,1.5c0.6,0.4,1.2,0.8,1.7,1.1c0.6,0.4,1.2,0.6,1.8,1.1c0.7,0.2,1.2,0.6,1.9,0.8c2.8,1.1,5.3,2.1,7.9,3.3
		l-0.1,0.2c-2.7-0.7-5.6-1.6-8.3-2.6c-0.7-0.2-1.4-0.6-2-0.8c-0.7-0.2-1.4-0.6-2-1c-0.7-0.3-1.3-0.8-1.9-1.2c-0.6-0.4-1.2-1-1.8-1.6
		s-0.9-1.4-1.1-2.1c-0.2-0.8-0.2-1.5-0.2-2.4l0.1-0.6c0.1-0.2,0.1-0.4,0.2-0.7c0.1-0.2,0.1-0.4,0.3-0.5l0.1-0.2l0,0l0.1-0.2l0.1-0.2
		c0.4-0.6,0.7-1.1,0.7-1.5c-0.1-0.5-0.2-1-0.7-1.6c-0.1-0.3-0.3-0.6-0.5-1c-0.2-0.4-0.4-0.7-0.5-1.2c-0.2-0.4-0.2-0.8-0.2-1.1
		c0-0.4,0-0.7-0.1-1.2c0.1-0.8,0.3-1.6,0.6-2.3l0.3-0.9l0.7,0.6c1.2,0.8,2.2,1.8,3.5,2.5c0.6,0.4,1.2,0.8,1.7,1.3l1.8,1.1
		c0.2,0.1,0.5,0.3,0.9,0.3c0.2,0.1,0.6,0.1,0.9,0.1c0.7,0,1.4-0.2,2-0.3c1.3-0.3,2.6-1,3.9-1.6l-0.1,0.4l-0.3-3.3l-0.1-0.5l0.6,0.1
		c0.8,0.1,1.7,0.4,2.5,0.5c0.9,0.3,1.7,0.4,2.4,0.8c0.9,0.3,1.6,0.6,2.3,1c0.4,0.1,0.7,0.3,1.1,0.7l0.5,0.3l0.6,0.4
		c0.4,0.4,0.5,0.6,0.7,1.1c0.2,0.4,0.2,0.8,0.5,1.2c0.2,0.8,0.2,1.7,0.3,2.6C890.5,527.4,890.3,529.1,889.6,530.6L889.6,530.6z"/>
</g>
<g>
	<path fill="#FFFFFF" d="M862,543.5c-0.3-0.2-0.7-0.6-1-0.9c-0.4-0.4-0.5-0.6-0.9-1c-0.2-0.4-0.6-0.8-0.7-1.1
		c-0.2-0.4-0.4-0.9-0.6-1.1l-0.3-1.3c-0.1-0.5,0.1-0.9,0-1.4s0.1-0.9,0.2-1.4s0.1-0.8,0.2-1.4c0.3-1.8,0.6-3.4,0.8-5.1
		c0-0.4-0.1-0.9,0.1-1.3c0-0.4-0.1-0.9-0.2-1.1l-0.2-0.4c-0.1-0.1-0.2-0.4-0.3-0.6c-0.1-0.1-0.2-0.4-0.2-0.4l0,0
		c0,0,0.1,0.1,0.3,0.2c0.4,0.1,0.8-0.2,0.7-0.4c0.1-0.4,0.1-0.2,0.1-0.2l-0.1-0.1c0.4,0.9,0.8,1.6,1.3,2.4l0.6,1.1l0.6,1.1
		c0.1,0.1,0.2,0.4,0.3,0.6l0.4,0.5l0.4,0.5c0.1,0.1,0.4,0.4,0.4,0.5c0.4,0.4,0.5,0.6,0.9,1l1,0.9l-0.1,0.2c-0.4-0.1-0.8-0.5-1.2-0.6
		c-0.4-0.1-0.8-0.5-1.2-0.8c-0.2-0.1-0.5-0.3-0.6-0.4l-0.6-0.4l-0.4-0.5c-0.3-0.2-0.4-0.4-0.5-0.6c-0.6-0.8-1.2-1.6-1.6-2.4
		c-0.4-0.9-0.9-1.7-1.3-2.4l-0.1-0.1l0,0c0.1-0.2-0.1-0.3,0.1-0.8c0.1-0.2,0.4-0.6,0.9-0.4c0.2,0.1,0.4,0.1,0.4,0.1
		c0.1,0.1,0.3,0.2,0.3,0.2c0.1,0.3,0.2,0.4,0.4,0.7c0.1,0.3,0.2,0.4,0.3,0.6l0.2,0.8c0.1,0.5,0.2,1,0.2,1.5l-0.2,1.4
		c-0.3,1.8-0.7,3.5-1.1,5.3c-0.1,0.4-0.1,0.8-0.3,1.2s-0.3,0.9-0.3,1.2c0,0.4-0.1,0.8-0.1,1.3l0.2,1.1l0.5,1.2
		c0.2,0.4,0.4,0.7,0.6,1.1c0.4,0.4,0.5,0.6,0.9,1C861.5,542.8,861.8,543,862,543.5L862,543.5z"/>
</g>
<g>
	<path fill="#FFFFFF" d="M883.9,561.5c0,0,0.3-0.1,0.6-0.2c0.4-0.2,1.1-0.4,1.9-1c0.6-0.5,1.4-1.5,1.5-2.6c0.1-0.6,0.1-1.3,0-2
		c0-0.7,0-1.4-0.3-2.2c-0.1-0.9-0.2-1.5-0.3-2.4c-0.2-0.8-0.5-1.6-0.6-2.6c-0.1-0.9-0.5-1.7-1-2.6c-0.3-0.9-0.7-1.8-1.1-2.7
		c-0.7-2-0.7-4.2-0.2-6.3c0.1-0.6,0.3-1.1,0.6-1.6s0.6-1,0.9-1.4s0.9-0.8,1.2-1.2l1.3-1c1.9-1.3,4-2.1,6.1-2.3
		c2.2,0,4.3,0.1,6.3,0.5c1,0.2,2,0.6,2.9,1c0.5,0.3,0.9,0.6,1.4,0.9c0.1,0.3,0.4,0.4,0.5,0.6l0.3,0.6c1,1.5,1.9,3,2.4,4.6
		c0.4,1.4,1.1,2.7,2.1,2.7c1.4,0.2,2.5,0.5,3.3,1c0.9,0.4,1.5,0.8,1.9,1.2c0.4,0.4,0.5,0.6,0.5,0.6l-0.1,0.1c0,0-0.2-0.1-0.6-0.4
		c-0.4-0.1-1-0.6-1.9-0.8s-1.9-0.5-3.2-0.5c-0.2-0.1-0.8-0.1-1.1-0.3c-0.2-0.1-0.3-0.2-0.5-0.3c-0.2-0.1-0.3-0.2-0.4-0.5
		c-0.5-0.6-0.9-1.4-1.1-2.1c-0.5-1.4-1.4-2.7-2.4-4.2l-0.4-0.5c-0.1-0.1-0.3-0.2-0.4-0.4c-0.3-0.2-0.6-0.4-0.9-0.6
		c-0.7-0.3-1.6-0.6-2.5-0.9c-1.9-0.5-3.8-0.7-5.6-0.7c-1.9,0.1-3.8,0.7-5.4,1.7l-1.2,0.8c-0.4,0.4-0.7,0.7-0.9,1
		c-0.4,0.4-0.5,0.8-0.8,1.2c-0.1,0.4-0.4,0.9-0.6,1.4c-0.5,1.7-0.5,3.9,0,5.6c0.3,0.9,0.6,1.9,1.1,2.7c0.3,0.9,0.7,1.8,0.8,2.7
		c0.2,0.8,0.4,1.8,0.6,2.6c0.1,0.9,0.2,1.7,0.3,2.4c0.1,0.9,0.1,1.6,0.1,2.3c0,0.7,0,1.4,0,2c-0.2,1.4-1,2.3-1.8,2.9
		c-0.8,0.6-1.4,0.7-1.9,1C884.2,561.7,884,561.6,883.9,561.5L883.9,561.5z"/>
</g>
<g>
	<path fill="#FFFFFF" d="M926.2,543.9c0.2,0.1,0.4,0.4,0.6,0.4c0.2,0.1,0.4,0.1,0.7,0.2c0.4,0.1,0.9,0.3,1.2,0.3
		c0.9,0.1,1.8,0,2.7-0.1c1.7-0.2,3.4-0.7,5.2-1.1c0.8-0.2,1.8-0.4,2.6-0.6c0.5-0.1,0.9-0.1,1.4-0.2c0.5-0.1,0.9,0.1,1.4,0.2
		c0.9,0.3,1.8,0.7,2.5,1.4c0.7,0.6,1.4,1.3,2,2.1l-0.7-0.2l4.1-2.3c1.4-0.9,2.8-1.6,4.1-2.3c0.7-0.4,1.4-0.7,2.1-1.1l2.2-1
		c0.4-0.2,0.7-0.4,1.2-0.5l1.1-0.4c0.8-0.2,1.7-0.3,2.4-0.5c1.5-0.2,3.1-0.3,4.7-0.4l4.7-0.3l2.3-0.1c0.7,0,1.4,0,2.3-0.1
		c0.9-0.1,1.6-0.1,2.2-0.3c0.7,0,1.5-0.2,2.3-0.5l0.1,0.1c-0.7,0.4-1.5,0.6-2.3,0.8l-1.1,0.4l-1.1,0.2c-0.8,0.2-1.5,0.2-2.4,0.3
		s-1.5,0.2-2.4,0.3l-4.7,0.4c-1.5,0.2-3.1,0.3-4.6,0.6c-0.6,0.2-1.5,0.2-2.2,0.4l-1.1,0.2c-0.4,0-0.7,0.4-1.1,0.4l-2.1,0.9
		c-0.8,0.2-1.4,0.7-2,1c-1.4,0.7-2.7,1.4-4.1,2.2l-4.1,2.3l-0.4,0.2l-0.2-0.4c-0.4-0.7-1-1.3-1.7-1.8c-0.7-0.6-1.4-0.9-2.1-1.3
		c-0.4-0.1-0.9-0.3-1.2-0.3c-0.4,0-0.9-0.1-1.2,0.1c-0.9,0.1-1.8,0.4-2.7,0.5c-1.8,0.4-3.6,0.8-5.4,0.8c-0.9,0.1-1.8,0-2.7,0
		c-0.4-0.1-0.9-0.3-1.3-0.4c-0.2-0.1-0.4-0.1-0.7-0.3C926.4,544.3,926.3,544.2,926.2,543.9L926.2,543.9z"/>
</g>
<g>
	<path fill="#FFFFFF" d="M973.5,542.7c0,0-0.1-0.1,0.1-0.4c0.2-0.3,0.6-0.7,0.9-1c0.9-0.8,2.3-1.9,3.9-2.9c0.8-0.6,1.8-1.1,2.8-1.6
		c1-0.5,2.2-1,3.5-1.3c2.3-0.8,4.9-1.7,7.6-2.5c1.3-0.3,2.7-0.8,3.9-1.3c1.3-0.3,2.6-0.6,3.9-0.9c1.2-0.1,2.6-0.3,3.7-0.1
		c1.2,0.1,2.2,0.1,3.2,0.3c0.9,0.1,1.9,0.1,2.7,0c0.7,0,1.5-0.2,2.1-0.2c0.2,0.1,0.4,0,0.6,0.1c0,0,0.2,0.1,0.3,0.2
		c0.1,0.1-0.1,0.2,0,0.4c-0.2,0.3-0.4,0.4-0.4,0.6c-0.3,0.1-0.4,0.2-0.4,0.2l-0.1-0.1c0,0,0.1-0.1,0.4-0.4c0.1-0.1,0.2-0.3,0.1-0.4
		l0,0c0,0-0.2-0.1-0.4,0c-0.5,0.1-1.3,0.3-2.1,0.5s-1.9,0.2-2.9,0.4c-1.1,0-2.2,0-3.2,0.1c-1.1,0-2.3,0.1-3.5,0.2
		c-1.1,0.2-2.4,0.5-3.8,0.7c-1.3,0.3-2.6,0.6-3.9,0.9c-2.6,0.6-5.2,1.5-7.6,2.1c-1.3,0.3-2.4,0.7-3.4,1.1c-1.1,0.4-2.1,0.9-2.9,1.5
		c-1.7,0.9-3.1,2-4.1,2.7c-0.5,0.4-0.8,0.6-1,0.9C973.7,542.4,973.6,542.6,973.5,542.7L973.5,542.7z"/>
</g>
<g>
	<path fill="#FFFFFF" d="M1091.9,611.3c-1.8,1.1-3.7,2.3-5.5,3.4l-2.8,1.6c-1,0.5-1.8,1.1-2.8,1.6l-2.9,1.5c-1,0.5-1.9,1-2.9,1.3
		c-1.9,0.8-4.1,1.6-6.1,2.3c-1.1,0.4-2.1,0.5-3.2,0.9c-0.5,0.1-1,0.2-1.7,0.3c-0.5,0.1-1,0.2-1.6,0.1c-1,0.2-2.2-0.1-3.2,0.1
		c-1,0.2-2,0.3-3.1,0.7c-2,0.7-3.9,1.6-5.9,2.7c-1,0.5-1.9,1-2.9,1.3c-1.1,0.4-1.9,0.8-3.1,1.1l0,0l0,0c-2.7,0.1-5.3,0.4-7.8,0.8
		c-1.3,0.3-2.4,0.5-3.7,0.9c-1.3,0.3-2.7,0.3-4-0.1c-2.6-0.8-4.7-2.4-6.7-4.1c-0.6-0.4-1-0.9-1.5-1.4c-0.4-0.5-1-0.9-1.3-1.5
		c-0.9-1-1.6-2.1-2.4-3.1c-1.5-2.1-2.7-4.6-4.1-6.8l-1.2-1.6c-0.4-0.5-0.9-1-1.2-1.3c-1-0.9-2-1.5-3.3-2.1c-2.4-1.1-4.9-1.4-7.5-2.1
		l-1-0.2c-0.4-0.1-0.7-0.2-0.9-0.3l-0.9-0.3c-0.3-0.2-0.6-0.4-0.9-0.4c-0.3-0.2-0.6-0.4-0.9-0.6l-0.7-0.7c-0.6-0.4-0.9-1-1.3-1.5
		c-1.5-2.3-2.5-4.7-3.8-6.9l-1.6-3.5c-0.6-1.1-0.9-2.4-1.4-3.8c-1.7-5.1-1.8-10.5-2.3-15.5c-0.3-2.6-0.9-5.2-2.1-7.2
		c-0.3-0.6-0.7-1.1-1.1-1.4c-0.4-0.5-0.9-0.8-1.4-1.3l-0.4-0.4l-0.1-0.1l-0.2-0.1c-0.3-0.2-0.6-0.4-0.8-0.5
		c-0.5-0.3-1.1-0.3-1.7-0.2c-1.1,0.2-2.2,1-3.1,1.8c-1,0.9-1.8,1.8-2.5,2.9l-2.4,3.1l-0.7,0.7c-0.1,0.2-0.4,0.6-0.5,0.8
		c-0.4,0.6-0.7,1.1-1.1,1.7c-1.3,2.1-1.9,4.6-2.6,7.2c-0.5,2.6-0.8,5.1-1.1,7.7l-0.5,3.9c-0.1,1.3-0.1,2.6,0.1,3.7
		c0.4,2.5,1.3,4.9,2.3,7.3c2.1,4.7,4.7,9.4,7.6,13.6l2.2,3.2l0.6,0.8l0.1,0.3c0,0,0.1,0.1,0,0l0.1,0.1l0.4,0.4l1.2,1.6
		c0.9,1,1.8,1.8,2.7,2.8c0.9,0.8,2,1.5,3,2.3c4.4,2.8,9.2,4.8,14.1,6.5c1.2,0.5,2.4,0.8,3.7,1.2l1.9,0.5l1.9,0.5
		c2.5,0.5,5.1,1,7.6,1c1.2-0.1,2.4-0.2,3.7-0.5c0.6-0.2,1.3-0.3,1.9-0.6c0.6-0.2,1.2-0.5,2.1-0.5c0.3-0.1,1.2,0.3,1.4,0.6
		c0.1,0.1,0.3,0.2,0.4,0.4c0,0,0.1,0.1,0.2,0.1c0.4,0.1,1,0.2,1.7,0.2c1.2-0.1,2.6-0.3,3.7-0.5l3.7-0.9l1.9-0.5
		c0.8-0.2,1.4-0.2,2-0.3c2.8-0.2,5.8,0.3,8,2.5l-0.3-0.2c2.6,0.8,5.1,2.4,6.9,4.2c1,0.9,2,1.7,3.1,2.4c1.1,0.7,2.2,1,3.5,1.5
		c2.5,0.5,5.1,0.6,7.6,0.2c1.2-0.1,2.4-0.5,3.7-0.9c0.5-0.1,1.2-0.5,1.8-0.7c0.6-0.3,1.2-0.5,1.7-0.9c1.1-0.6,2.2-1.3,3.4-1.9
		l3.2-2.2c2.1-1.5,4.2-3.1,6.3-4.6l6.4-4.8l1.6-1.2c0.4-0.2,1.1-0.7,1.6-1.2c0.5-0.4,1-0.9,1.3-1.4c0.5-0.4,0.8-0.9,1.2-1.5
		c1.5-2,2.6-4.4,3.7-6.8l1.7-3.6l0.9-1.7l0.4-0.9l0.4-0.9c1-2.3,1.4-4.9,1.9-7.5c0.5-2.6,0.6-5.2,0.7-7.8c0.1-2.6-0.2-5.2-0.6-7.7
		c-0.2-0.6-0.3-1.3-0.5-1.9c-0.3-0.6-0.5-1.2-0.7-1.8c-0.6-1.1-1.5-2.1-2.2-3.2c-3.3-3.9-7.3-7.7-11.2-11.1l0.5-0.8
		c1.8,1.4,3.5,2.9,5.1,4.6c1.6,1.7,2.9,3.6,3.8,5.8c0.4,1.1,0.6,2.2,0.6,3.5l0,3.5c-0.1,2.2-0.1,4.6-0.5,6.8c-0.3,2.3-0.6,4.5-1,6.7
		c-0.3,1.1-0.5,2.2-1,3.3c-0.3,1.1-0.9,2.1-1.5,3.1l-3.6,5.7c-0.6,1-1.2,1.9-1.8,2.9l-1.7,3.1l-0.2-0.1l1.7-3.1
		c0.6-1,1.2-1.9,1.8-2.9l3.5-5.8c0.6-0.9,1-2,1.3-3c0.3-1.1,0.7-2.2,0.9-3.2c0.5-2.2,0.8-4.4,0.9-6.6s0.2-4.5,0.3-6.7l0-3.5
		c0-1.1-0.2-2.1-0.6-3.2c-0.7-2-2.1-3.8-3.6-5.6c-1.5-1.6-3.2-3-5-4.5l0.5-0.8c4.2,3.5,7.8,7,11.4,11.1c0.7,1.1,1.8,2,2.4,3.3
		c0.3,0.6,0.5,1.4,0.8,1.9c0.2,0.6,0.5,1.2,0.5,1.9c0.6,2.6,0.8,5.4,0.7,8c0,2.7-0.3,5.4-0.6,7.9c-0.5,2.6-0.9,5.2-1.9,7.9l-0.4,0.9
		l-0.4,0.9l-0.9,1.7l-1.6,3.6c-1.1,2.4-2.2,4.8-3.8,7c-0.4,0.6-0.8,1.2-1.3,1.6c-0.4,0.6-0.9,1-1.4,1.5c-0.5,0.4-1,0.9-1.7,1.3
		l-1.6,1.2l-6.3,4.7c-2.1,1.6-4.2,3.1-6.5,4.6l-3.3,2.3c-1.1,0.7-2.4,1.4-3.5,2c-0.6,0.3-1.1,0.6-1.7,0.9s-1.1,0.6-1.9,0.8
		c-1.3,0.3-2.7,0.8-4,1c-2.7,0.3-5.5,0.3-8.1-0.3c-0.7-0.2-1.3-0.4-2-0.6c-0.7-0.2-1.4-0.6-2-1c-1.3-0.8-2.1-1.6-3.3-2.5
		c-2-1.7-4-3.2-6.4-3.9l-0.2-0.1l-0.1-0.1c-0.7-0.7-2-1.3-3.1-1.7c-1.2-0.3-2.2-0.5-3.6-0.3c-0.6,0.2-1.4,0.2-1.9,0.2l-1.9,0.5
		l-3.9,0.9c-1.3,0.3-2.7,0.5-4,0.6c-0.7,0-1.4,0-2.2-0.3c-0.2-0.1-0.4-0.1-0.7-0.3c-0.2-0.1-0.3-0.2-0.4-0.4
		c-0.3-0.2-0.1-0.1-0.4-0.1c-0.4,0-1.1,0.2-1.7,0.5c-0.6,0.2-1.3,0.3-1.9,0.5c-1.3,0.3-2.7,0.5-4.1,0.5c-2.7,0.1-5.4-0.3-7.9-1
		l-1.9-0.5l-2-0.6c-1.3-0.4-2.5-0.7-3.7-1.2c-5-1.6-9.9-3.7-14.4-6.7c-1.1-0.7-2.1-1.6-3.2-2.3c-0.9-1-2-1.8-2.8-2.9l-1.2-1.6
		l-0.4-0.4l-0.1-0.1l-0.1-0.1l-0.1-0.3l-0.6-0.8l-2.2-3.2c-2.8-4.3-5.5-8.9-7.6-13.9c-1-2.4-1.9-5-2.4-7.7c-0.2-1.4-0.3-2.7-0.1-4.1
		l0.5-3.9c0.6-5.2,1.2-10.6,4-15.3c0.4-0.6,0.7-1.1,1.1-1.7c0.2-0.3,0.3-0.5,0.6-0.9l0.7-0.7l2.4-3.1c0.8-0.9,1.6-2.1,2.6-3
		s2.1-1.8,3.6-2.1c0.7,0,1.4,0,2.2,0.3c0.4,0.1,0.7,0.2,0.9,0.4l0.2,0.1c0.1,0.1,0.2,0.1,0.3,0.2l0.4,0.4c0.6,0.4,1.2,0.8,1.5,1.4
		c0.4,0.5,0.9,1,1.3,1.7c1.4,2.4,1.9,5,2.4,7.7c0.4,5.3,0.5,10.4,2.2,15.4c0.5,1.2,0.9,2.4,1.4,3.7l1.6,3.5c1.2,2.3,2.2,4.9,3.6,6.9
		c0.4,0.5,0.7,1.1,1.2,1.3l0.7,0.6c0.3,0.2,0.5,0.3,0.8,0.5s0.5,0.3,0.8,0.5l0.9,0.3c0.2,0.1,0.7,0.2,0.9,0.3l1,0.2
		c2.5,0.7,5.1,1,7.7,2.2c1.2,0.5,2.3,1.3,3.3,2.3c0.6,0.4,0.9,1,1.3,1.5l1.2,1.6c1.3,2.2,2.6,4.6,4.1,6.8c0.7,1.1,1.5,2.1,2.4,3.1
		c0.4,0.5,0.9,1,1.3,1.5c0.4,0.5,0.9,1,1.4,1.3c2,1.7,4.1,3.3,6.6,4c1.3,0.4,2.6,0.5,3.7,0.2c1.3-0.3,2.6-0.6,3.9-0.9
		c2.6-0.3,5.2-0.5,7.8-0.6l0,0c1-0.2,2-0.7,2.9-1c1-0.5,1.9-0.8,2.9-1.3c1.9-0.8,3.9-1.9,5.9-2.5c1.1-0.4,2-0.7,3.2-0.8
		c1.1,0,2.1,0.2,3.1,0c0.5-0.1,1.1,0,1.6-0.1c0.5-0.1,1-0.2,1.5-0.2c1-0.2,2.1-0.5,3-0.8c2-0.7,4-1.4,5.9-2.2
		c1.1-0.4,1.9-0.8,2.9-1.3l2.9-1.3c1-0.5,1.9-1,2.9-1.5l2.8-1.6C1088.1,613.4,1089.9,612.3,1091.9,611.3L1091.9,611.3z"/>
</g>
<g>
	<path fill="#FFFFFF" d="M883.8,513.1c0,0-1-0.6-2.5-1.6c-0.8-0.5-1.6-1-2.5-1.6c-0.5-0.3-0.9-0.6-1.4-0.9c-0.5-0.3-0.9-0.8-1.5-1.1
		c-0.9-0.8-1.9-1.6-2.6-2.3c-0.4-0.4-0.8-0.9-1-1.3c-0.3-0.6-0.5-1.2-0.5-1.6c-0.1-0.5,0.1-0.9,0.1-1.3c0-0.4,0.2-0.7,0.3-0.9
		c0.1-0.4,0.3-0.9,0.3-0.9l0.1-0.1c0,0,0.1,0.3,0.2,0.8c0.1,0.5,0.2,1.4,0.3,2c0.1,0.3,0.2,0.6,0.5,1c0.1,0.3,0.5,0.6,0.9,1
		s0.8,0.9,1.2,1.2c0.4,0.5,0.8,0.9,1.2,1.2c0.4,0.4,0.8,0.9,1.2,1.2c0.4,0.4,0.9,0.8,1.3,1.1c0.7,0.7,1.6,1.3,2.3,1.9
		C883,512.2,883.9,513,883.8,513.1L883.8,513.1z"/>
</g>
<g>
	<path fill="#FFFFFF" d="M872.3,494.8c0,0,0,0.4,0.2,1c0,0.4,0.2,0.6,0.2,1.1c0.1,0.1,0.1,0.5,0.2,0.6c0.1,0.1,0,0.4,0,0.4
		c0.1,0.1,0.1,0.3,0.1,0.5c0.1,0.5,0.3,0.9,1,1.1c0.5,0.3,1.2,0.6,1.7,0.9c0.7,0.3,1.3,0.8,1.9,1.2s1.2,0.8,1.9,1.2
		c1.2,0.8,2.5,1.6,3.6,2.5c1.2,0.8,2.1,1.6,2.9,2.5c1.7,1.5,2.6,2.6,2.6,2.6l-0.1,0.1c0,0-1.4-0.6-3.3-1.7c-1-0.6-2.1-1.3-3.3-2.1
		c-1.2-0.8-2.3-1.9-3.4-2.8c-0.6-0.4-1.2-1-1.8-1.4c-0.6-0.4-1-0.9-1.7-1.3c-0.6-0.4-1.1-0.7-1.7-1.1l-0.4-0.4
		c-0.1-0.1-0.1-0.3-0.4-0.4c-0.1-0.3-0.4-0.7-0.3-0.9c-0.1-0.1,0-0.4,0-0.4c-0.1-0.1,0-0.4,0-0.4c0.1-0.2-0.1-0.5,0-0.7
		c-0.1-0.5-0.1-0.9-0.1-1.2C872.1,495.2,872.1,494.8,872.3,494.8L872.3,494.8z"/>
</g>
<g>
	<path fill="#FFFFFF" d="M892.9,468.1c-0.3-0.2-0.7-0.2-0.9-0.4c-0.4,0-0.7-0.2-1-0.2l-2.1-0.2c-1.4,0-2.8,0.2-4.1,0.1
		c-0.7,0-1.4,0.2-2,0.3c-0.6,0.2-1.4,0.2-1.9,0.5c-1.3,0.3-2.7,0.8-3.7,1.6c-0.5,0.4-1.3,0.7-1.8,1.1c-0.5,0.4-1,0.9-1.5,1.3
		l-1.4,1.5l-1.3,1.6c-0.8,1.2-1.5,2.3-2.2,3.5c-0.6,1.2-1,2.5-0.9,3.8c-0.1,1.3,0.3,2.6,0.9,3.9c0.6,1.1,1.4,2.4,2.3,3.3l0.4,0.4
		c0.1,0.1,0.3,0.2,0.4,0.4l0.7,0.7c0.6,0.4,1,1.1,1.5,1.4l1.7,1.1l1.8,1.1c1.2,0.6,2.5,1.3,3.7,1.9c1.4,0.6,2.6,0.8,3.9,1.2
		c2.7,0.6,5.5,0.8,8.2,1l-0.4,0c0.9-0.4,1.8-0.7,2.8-0.9c0.9-0.3,1.9-0.5,2.9-0.4c0.9-0.1,2.1,0.2,3,0.5c0.9,0.3,1.8,0.7,2.6,1.2
		c0.9,0.4,1.6,1,2.4,1.5c0.7,0.6,1.5,1.2,2.2,1.8c0.7,0.7,1.3,1.5,1.9,2.3c0.4,0.9,1,1.9,1.2,2.6c0.5,1.9,0.7,3.8,0.3,5.8
		c-0.3,1.8-1.3,3.8-3.1,4.9c-1,0.5-1.8,0.7-2.5,1.1c-0.9,0.3-1.7,0.5-2.7,0.8c-0.9,0.3-1.8,0.4-2.7,0.7c-0.9,0.1-1.9,0.2-2.8-0.2
		l0.1-0.2c0.9,0.3,1.7,0.2,2.7-0.1c0.8-0.2,1.7-0.5,2.7-0.8c0.9-0.3,1.6-0.7,2.5-1.1c0.7-0.4,1.8-0.7,2.4-1.3
		c1.4-0.9,2.1-2.6,2.3-4.3c0.2-1.7,0-3.5-0.4-5c-0.3-0.9-0.6-1.5-1-2.4c-0.5-0.6-1-1.3-1.7-1.8c-0.5-0.6-1.3-1.1-2-1.7
		c-0.8-0.5-1.5-1.1-2.3-1.3c-0.8-0.5-1.5-0.7-2.3-1c-0.9-0.3-1.5-0.5-2.4-0.4s-1.7,0.2-2.5,0.4s-1.7,0.5-2.5,0.8l-0.1,0.1l-0.2-0.1
		c-2.8-0.2-5.6-0.6-8.4-1.2c-1.4-0.3-2.9-0.7-4.1-1.3c-1.4-0.6-2.5-1.3-3.8-2l-1.8-1.1l-1.7-1.3c-0.6-0.4-1-0.9-1.5-1.4l-0.7-0.7
		c-0.1-0.1-0.3-0.2-0.4-0.4l-0.4-0.4c-1-1.1-1.7-2.2-2.4-3.6c-0.7-1.3-1.1-2.7-0.9-4.2c0-1.4,0.5-3,1.1-4.2c0.6-1.2,1.5-2.4,2.3-3.6
		l1.3-1.6l1.6-1.5c0.5-0.4,1.1-1,1.6-1.4c0.5-0.4,1.2-0.8,1.8-1.1c1.3-0.7,2.6-1.2,3.9-1.5c0.6-0.2,1.3-0.3,2.2-0.4
		c0.7,0,1.4-0.2,2.1-0.2c1.4,0,2.8-0.2,4.2,0l2.1,0.2c0.4,0,0.7,0.2,1,0.2C892.3,467.6,892.7,467.6,892.9,468.1L892.9,468.1z"/>
</g>
<g>
	<path fill="#FFFFFF" d="M871.1,490.7c0,0,0,0-0.1,0.2s0,0.4-0.1,0.6s0.1,0.5,0.3,0.9c0.1,0.3,0.4,0.7,0.6,1.1
		c0.2,0.4,0.6,0.8,1,1.1c0.4,0.4,0.7,0.7,1.3,1.1c0.4,0.4,0.9,0.8,1.5,1.1s1.1,0.7,1.6,1c1.1,0.7,2.3,1.2,3.3,1.7
		c1,0.6,1.9,1.2,2.6,1.9c0.7,0.7,1.3,1.1,1.7,1.5s0.7,0.6,0.7,0.6l-0.1,0.2c0,0-0.4,0-0.9-0.3c-0.6-0.1-1.3-0.4-2.1-0.9
		c-0.9-0.4-1.7-0.9-2.8-1.6c-1-0.6-2-1.3-3.1-2c-0.6-0.4-0.9-0.8-1.5-1.2c-0.6-0.4-0.9-0.8-1.4-1.3c-0.4-0.5-0.8-0.9-1.2-1.2
		c-0.2-0.4-0.7-0.9-0.9-1.4c-0.2-0.4-0.4-0.9-0.5-1.2c0-0.4-0.2-0.6-0.2-1C870.7,491,870.9,490.7,871.1,490.7L871.1,490.7z"/>
</g>
<g>
	<path fill="#FFFFFF" d="M875.5,494.3c0,0,0.9-0.7,2.4-1.6c0.4-0.2,0.9-0.4,1.3-0.7s1.1-0.4,1.6-0.5c0.5-0.1,1.1-0.2,1.6-0.5
		c0.5-0.1,1.1-0.4,1.6-0.5c0.4-0.2,1.1-0.4,1.4-0.7c0.4-0.2,0.9-0.4,1.2-0.8c0.4-0.2,0.6-0.5,1-0.9c0.4-0.4,0.7-0.7,0.9-1
		c0.6-0.5,1.1-1.1,1.6-1.4c0.4-0.2,0.7-0.4,0.7-0.4l0.1,0.1c0,0-0.2,0.3-0.3,0.7c-0.3,0.5-0.6,1-1.1,1.8c-0.2,0.3-0.5,0.8-0.8,1.2
		c-0.4,0.4-0.8,0.9-1.2,1.2c-0.5,0.4-1,0.5-1.6,0.8c-0.6,0.2-1.1,0.4-1.7,0.5c-1.1,0.2-2.3,0.5-3.3,0.6c-0.5,0.1-1,0.2-1.5,0.2
		c-0.5,0.1-0.9,0.3-1.2,0.5C876.6,494,875.6,494.5,875.5,494.3L875.5,494.3z"/>
</g>
<g>
	<path fill="#FFFFFF" d="M882.5,487.5c0,0,2.4-0.7,5.8-2.1c0.4-0.2,0.9-0.3,1.4-0.5c0.4-0.2,1-0.5,1.2-0.8c0.4-0.2,0.7-0.7,1.1-1.1
		c0.4-0.4,0.8-0.9,0.9-1.4c0.1-0.2,0.4-0.6,0.3-0.7s0.1-0.2,0.1-0.2c-0.1-0.1,0.1-0.2,0-0.4c0.1-0.6-0.1-1.2,0.1-1.9
		c0-0.7,0.4-1.3,0.6-2c0.3-0.5,0.7-1.1,1.1-1.7c0.8-0.9,1.5-2,2.3-3c0.8-0.9,1.8-1.8,2.9-2.4c0.6-0.3,1.1-0.6,1.6-0.8
		c0.6-0.3,1.1-0.4,1.5-0.6c1.1-0.4,2.1-0.5,3-0.8c0.9-0.3,1.8-0.4,2.5-0.4c0.9-0.1,1.5-0.2,2-0.3c1.1,0,1.8,0,1.8,0l0.1,0.1
		c0,0-0.6,0.2-1.6,0.5c-0.5,0.1-1.1,0.4-1.9,0.6c-0.6,0.2-1.6,0.5-2.4,0.9c-0.9,0.3-1.9,0.6-2.7,1.1c-0.4,0.2-1.1,0.4-1.5,0.6
		c-0.4,0.2-1,0.5-1.4,0.7c-1,0.5-1.9,1.2-2.7,2.1c-0.9,0.8-1.6,1.8-2.4,2.7c-0.3,0.5-0.8,0.9-1.1,1.5c-0.3,0.5-0.6,1-0.6,1.6
		c-0.1,0.6-0.1,1.2-0.2,1.7c-0.1,0.2,0,0.4-0.1,0.6l-0.3,0.5c-0.1,0.4-0.3,0.5-0.5,0.8c-0.4,0.6-0.8,0.9-1.1,1.3
		c-0.4,0.4-0.8,0.9-1.2,1.2c-0.5,0.4-1,0.5-1.4,0.7c-0.4,0.2-0.9,0.3-1.4,0.5C884.9,486.9,882.5,487.5,882.5,487.5L882.5,487.5z"/>
</g>
<g>
	<path fill="#FFFFFF" d="M916.6,493.3c0,0,0.1-0.2,0.1-0.4c0-0.4,0.1-0.8,0.2-1.4c0.2-0.7,0.4-1.3,0.5-2.1c0.1-0.8,0.5-1.7,0.8-2.6
		c0.1-0.4,0.2-1,0.1-1.5c0.1-0.2-0.1-0.5,0-0.7c-0.1-0.3-0.1-0.5-0.2-0.8c-0.1-0.5-0.4-1.1-0.6-1.5c-0.3-0.6-0.7-0.9-1.1-1.4
		c-0.4-0.4-0.9-0.8-1.3-1.1c-0.4-0.4-1.1-0.7-1.6-1c-1.1-0.7-2.3-1.3-3.5-1.8c-1.2-0.5-2.5-0.9-3.8-0.9c-1.3-0.1-2.4,0-3.7,0.3
		c-1.1,0.2-2.3,0.5-3.4,0.8c-1.1,0.4-1.9,0.8-2.8,1.3c-0.4,0.2-0.8,0.6-1,0.9l-0.2,0.3l-0.1,0.1l-0.1,0.1c-0.1,0.2-0.2,0.3-0.4,0.6
		c-0.6,0.7-1,1.2-1.3,1.7c-0.4,0.4-0.5,0.8-0.7,1.1c-0.2,0.3-0.3,0.5-0.3,0.5l-0.2-0.1c0,0,0.1-0.2,0.1-0.4c0.1-0.2,0.3-0.9,0.6-1.4
		c0.3-0.5,0.6-1.2,1-2c0.1-0.2,0.2-0.3,0.3-0.5l0.1-0.2c0.1-0.1,0.1-0.1,0.1-0.2l0.2-0.3c0.3-0.5,0.7-0.7,1.1-1.1
		c0.9-0.7,1.9-1.3,2.9-1.7c1-0.5,2.3-0.8,3.6-1.1s2.7-0.3,4.1-0.1c1.4,0.2,2.7,0.7,4.1,1.2c1.2,0.6,2.5,1.3,3.6,2.1
		c0.6,0.4,1.1,0.7,1.7,1.1c0.4,0.5,1,0.9,1.5,1.4c0.3,0.6,0.9,1,1,1.6c0.2,0.6,0.6,1.1,0.6,1.9c0,0.4,0.2,0.6,0.1,0.9
		c0,0.4-0.1,0.6-0.1,0.9c-0.1,0.6-0.1,1.2-0.3,1.6c-0.2,1-0.7,1.8-1,2.7c-0.3,0.7-0.5,1.5-0.6,2c-0.3,0.5-0.2,1-0.4,1.3
		C916.7,493.3,916.6,493.3,916.6,493.3L916.6,493.3z"/>
</g>
<g>
	<path fill="#FFFFFF" d="M918.9,482.8c0,0,0.3,0.2,1,0.6c0.6,0.4,1.6,1,2.8,1.6s2.7,1.3,4.6,1.6c1.8,0.3,4,0.8,6.4,1.1
		c2.3,0.3,4.9,0.4,7.6-0.1c1.3-0.3,2.7-0.5,3.9-1.1c1.2-0.5,2.5-1.1,3.9-2c2.5-1.5,5.3-2.7,7.9-4.4c1.2-0.8,2.6-1.7,3.6-2.8
		c0.6-0.5,0.8-1.2,1.3-1.7c0.3-0.7,0.7-1.5,1-2.2c0.3-0.7,0.7-1.5,0.8-1.9c0.1-0.6-0.2-1-0.7-1.4c-0.4-0.4-0.7-0.6-0.8-0.9l-0.4-0.5
		l-0.1-0.3c-0.1-0.1,0,0-0.1-0.1c0.4,0-0.1,0.1-0.4,0.2c-0.3,0.1-0.8,0.2-1.1,0.4c-3,1.2-5.4,2.6-8.1,4c-0.7,0.4-1.3,0.7-2,1
		c-0.7,0.4-1.4,0.5-2.1,0.9c-0.6,0.3-1.4,0.5-1.9,0.8c-0.6,0.2-1.4,0.5-2,0.7c-2.4,0.9-5,1.9-7.5,1.9c-0.7,0-1.3-0.1-1.9-0.1
		c-0.7-0.2-1.1-0.3-1.7-0.4c-1.1-0.3-2-0.6-2.8-0.9c-1.9-0.5-3.4-0.6-4.7-0.3c-1.3,0.3-2.1,1.1-2,1.8c0.1,0.1,0.1,0.3,0.2,0.4
		c0.1,0.1,0.1,0.1,0.1,0.3c0.1,0.1,0.1,0.3,0.1,0.3l-0.1,0.1c0,0-0.1-0.1-0.3-0.2c-0.1-0.1-0.2-0.1-0.3-0.2
		c-0.1-0.1-0.1-0.3-0.2-0.4c-0.1-0.9,0.8-1.9,2.2-2.4c1.4-0.5,3.2-0.6,5-0.1c0.9,0.3,1.9,0.5,3,0.8c0.4,0.1,1,0.2,1.7,0.4
		c0.6,0.1,1,0.2,1.5,0.1c2.2,0,4.5-1.1,7.1-2.1c1.2-0.5,2.6-1,3.9-1.6c0.6-0.3,1.3-0.7,1.9-0.8c0.6-0.3,1.3-0.7,2-1
		c2.6-1.3,5.4-3,8.3-4c0.5-0.1,0.8-0.2,1.3-0.3c0.1-0.1,0.3-0.1,0.6-0.2c0.1-0.1,0.4,0,0.5-0.1c0.2,0.1,0.4,0.1,0.7,0.2
		c0.3,0.2,0.4,0.4,0.5,0.6l0.4,0.4c0.1,0.3,0.5,0.6,0.8,0.9c0.4,0.4,0.7,0.6,1,1.1c0.1,0.3,0.2,0.4,0.2,0.8c0.1,0.3,0.1,0.5,0,0.7
		c-0.2,1-0.6,1.6-1,2.3c-0.3,0.7-0.8,1.3-1.1,2c-0.5,0.8-0.8,1.5-1.5,2c-1.2,1.2-2.6,2.1-3.9,2.9c-2.8,1.6-5.4,2.8-8.1,4.4
		c-1.3,0.7-2.6,1.3-3.9,1.9c-1.4,0.5-2.8,0.9-4.2,1.1c-2.7,0.3-5.3,0.2-7.7-0.2c-2.3-0.3-4.4-0.8-6.4-1.2c-1.9-0.5-3.3-1.2-4.6-1.8
		c-1.2-0.6-2.1-1.3-2.8-1.6C919.1,483.1,918.8,482.9,918.9,482.8L918.9,482.8z"/>
</g>
<g>
	<path fill="#FFFFFF" d="M971.9,491.9c0,0,0,1.1-0.4,2.7c-0.3,0.9-0.5,1.9-1,3c-0.5,1.2-1.1,2.4-2,3.6c-0.8,1.2-2,2.5-3.2,3.7
		c-0.6,0.7-1.4,1.1-2,1.8c-0.8,0.6-1.5,1-2.3,1.5c-0.9,0.4-1.7,0.9-2.6,1.3c-0.9,0.4-1.7,0.9-2.6,1.2c-1.7,0.9-3.6,1.7-5.4,2.5
		c-1.9,0.8-3.8,1.4-5.7,2c-1.9,0.5-3.7,1.2-5.7,1.5c-1.8,0.4-3.7,0.6-5.5,0.7c-1.8,0-3.5,0-4.9-0.4c-0.4,0-0.8-0.1-1.2-0.1
		c-0.4-0.1-0.7-0.2-1-0.2c-0.7-0.2-1.3-0.4-1.9-0.5c-1.2-0.3-2.2-0.7-3-1c-1.7-0.5-2.6-0.8-2.6-0.8l0.1-0.2c0,0,1,0.2,2.7,0.4
		c0.8,0.1,1.9,0.3,3.2,0.5c1.2,0.1,2.6,0.5,4,0.7c1.4,0.2,3,0.1,4.8,0.1c0.9-0.1,1.7-0.2,2.6-0.3c0.9-0.1,1.8-0.4,2.7-0.5
		c1.9-0.2,3.7-0.9,5.5-1.2c1.9-0.6,3.8-1.1,5.6-1.8c1.8-0.7,3.7-1.4,5.6-2.2c0.9-0.4,1.8-0.7,2.6-1.2s1.7-0.9,2.4-1.3
		c0.9-0.4,1.5-1,2.4-1.4c0.6-0.5,1.4-1.1,2.1-1.6c1.3-1,2.4-2.3,3.3-3.5c0.8-1.2,1.7-2.3,2.2-3.5c0.6-1,0.9-2.1,1-2.9
		C971.7,493,971.8,492,971.9,491.9L971.9,491.9z"/>
</g>
<g>
	<path fill="#FFFFFF" d="M920.7,542.9c0,0,1.2-2.3,2.8-5.8c0.4-0.9,0.7-1.8,1-2.9c0.1-0.4,0.3-1.1,0.5-1.5c0.1-0.6,0.3-1.1,0.4-1.7
		c0.1-0.6,0.1-1.2,0.2-1.7c0.1-0.6,0.1-1.2,0-1.8c-0.1-0.5-0.1-1.2-0.2-1.9l-0.1-0.9l-0.3-0.9c-0.2-0.6-0.5-1-0.8-1.6
		c-0.3-0.6-0.7-0.9-1.1-1.4l-0.7-0.6c-0.1-0.1-0.3-0.2-0.3-0.2l-0.4-0.4l-0.8-0.5c-0.3-0.2-0.5-0.3-0.7-0.3c-0.9-0.4-2-0.6-3-0.8
		c-1-0.2-2.1-0.2-3.1-0.4c-0.2-0.1-0.4-0.1-0.9-0.3c-0.2-0.1-0.3-0.2-0.6-0.4c-0.3-0.2-0.4-0.4-0.7-0.6c-0.1-0.1-0.2-0.4-0.3-0.6
		c-0.4-0.7-0.6-1.5-0.7-2c-0.1-0.5-0.2-1-0.2-1.4c0-0.4,0.1-0.4,0.1-0.4l0.1-0.1c0,0,0.1,0.1,0.1,0.5c0.1,0.3,0.2,0.6,0.3,1.3
		c0.2,0.4,0.5,1,0.9,1.7c0.1,0.1,0.3,0.2,0.4,0.4c0.1,0.1,0.3,0.2,0.4,0.4c0.2,0.1,0.4,0.1,0.7,0.2c0,0,0.4,0,0.6,0.1
		c1.7,0.2,4.1-0.1,6.7,1c0.3,0.2,0.7,0.3,0.9,0.4l0.8,0.5l0.4,0.4c0.3,0.2,0.3,0.2,0.4,0.4l0.7,0.7c0.4,0.5,0.7,1.1,1.1,1.8
		c0.3,0.6,0.7,1.3,0.8,1.9l0.3,0.9l0.2,1c0.2,0.6,0.2,1.4,0.1,1.9c0,0.7-0.1,1.3-0.1,1.9c-0.1,0.6-0.3,1.2-0.3,1.8
		c-0.2,0.7-0.3,1.2-0.5,1.7c-0.2,0.7-0.3,1.1-0.6,1.6c-0.4,0.9-1,2-1.3,2.8C922.2,540.9,920.9,542.8,920.7,542.9L920.7,542.9z"/>
</g>
<g>
	<path fill="#FFFFFF" d="M920.3,518c-0.3-0.9-0.6-1.9-0.9-2.8c-0.2-0.4-0.4-0.9-0.7-1.3c-0.2-0.4-0.6-0.8-0.8-1.2l0,0l0,0
		c-0.9-1.4-1.8-2.7-2.4-4.2c-0.2-0.8-0.5-1.6-0.5-2.4c-0.1-0.9,0-1.8,0.5-2.6c0.3-0.7,0.6-1.4,0.7-2.2c0.1-0.8,0.3-1.4,0.3-2.2
		c0-0.7,0.1-1.5,0-2.2c0-0.7-0.2-1.5-0.4-2.2c-0.2-0.6-0.5-1.4-0.8-1.9c-0.3-0.6-0.8-1.2-1.3-1.5c-0.4-0.5-1.2-1-1.8-1.4
		c-0.7-0.3-1.2-0.8-1.9-1.2l-1-0.6l-1.1-0.3c-0.3-0.2-0.7-0.2-1.1-0.3c-0.4,0-0.7-0.2-1-0.2l-1.2-0.1c-0.4,0-0.7,0-1.1,0
		c-0.7,0-1.5,0.2-2.4,0.3l-0.1-0.1c0.7-0.4,1.4-0.7,2.3-0.8c0.4,0,0.8-0.2,1.1-0.2l1.2-0.1c0.4,0,0.8,0.1,1.3,0.1
		c0.4,0,0.8,0.1,1.2,0.3l1.2,0.3l1.2,0.5c0.7,0.3,1.5,0.7,2.3,1.2l0.9,0.6l0.5,0.3l0.1,0.1l0.1,0.1l0,0l0.3,0.2
		c0.7,0.6,1.2,1.3,1.6,2.1c0.4,0.7,0.7,1.6,0.9,2.4c0.2,0.8,0.3,1.7,0.3,2.4c0.1,0.9,0,1.7,0,2.4c-0.1,0.8-0.3,1.6-0.4,2.4
		c-0.1,0.8-0.5,1.5-0.8,2.2c-0.3,0.7-0.4,1.3-0.4,2s0.2,1.5,0.4,2.2c0.4,1.4,1.1,2.9,1.9,4.1l0,0c0.2,0.4,0.6,0.8,0.8,1.2
		c0.2,0.4,0.4,0.9,0.5,1.4C920.1,516.2,920.3,517.2,920.3,518L920.3,518z"/>
</g>
<g>
	<path fill="#FFFFFF" d="M924.8,521c0,0,0.8-0.2,2.2-0.4c0.6-0.2,1.5-0.2,2.4-0.3c0.4,0,0.9-0.1,1.4-0.2c0.5-0.1,0.9,0.1,1.4,0
		c0.5-0.1,0.9,0.1,1.4,0c0.4,0,0.9,0.1,1.3,0.1c0.8,0.1,1.6,0.3,2.2,0.3c1.2,0.3,2.2,0.5,2.2,0.5l0.1,0.1c0,0-0.9,0.4-2.2,0.6
		c-0.4,0-0.7,0-1.2,0.1c-0.4,0-0.7,0-1.3-0.1c-0.4-0.1-0.8-0.1-1.2-0.3c-0.4-0.1-0.8-0.1-1.4-0.2c-0.4-0.1-0.8-0.1-1.2-0.3
		c-0.4,0-0.9-0.1-1.3-0.1c-0.8-0.1-1.7,0-2.2-0.1C925.8,521.2,924.9,521.1,924.8,521L924.8,521z"/>
</g>
<g>
	<path fill="#FFFFFF" d="M926.7,528.2c0,0,1.1,0,2.8-0.2c0.9-0.1,1.9-0.1,3.2,0.2c1.2,0.3,2.6,0.8,3.9,1.2c1.4,0.6,3,0.6,4.8,0.8
		c0.9,0.1,1.7,0,2.4-0.2c0.4-0.2,0.8-0.2,1.1-0.6l0.6-0.3l0.6-0.3c1.7-0.9,3.5-1.6,5.3-2.4c1.8-0.7,3.7-1.6,5.6-2.2
		c1.8-0.7,3.7-1.6,5.5-2.3c1.8-0.7,3.6-1.5,5.4-2.2c1.9-0.6,3.5-1.3,5.2-1.8c1.7-0.5,3-1.2,4.5-1.8c1.3-0.7,2.5-1.5,3.4-2.1
		c1.1-0.7,1.9-1.2,2.8-1.6c1.5-1,2.4-1.4,2.4-1.4l0.1,0.1c0,0-0.8,0.6-2.2,1.7c-0.6,0.5-1.6,1.2-2.4,2c-1.1,0.7-2.1,1.6-3.4,2.5
		c-1.4,0.7-2.9,1.5-4.5,2.2c-1.6,0.7-3.4,1.2-5.2,2c-1.6,0.7-3.6,1.5-5.4,2.1c-1.9,0.6-3.8,1.4-5.7,2c-1.9,0.6-3.8,1.4-5.7,2
		c-1.8,0.7-3.7,1.4-5.4,2.2l-0.6,0.3l-0.3,0.1l-0.3,0.1c-0.4,0.2-0.9,0.4-1.4,0.5c-0.9,0.3-1.9,0.2-2.8,0.2
		c-1.7-0.2-3.3-0.5-4.8-0.9c-1.4-0.6-2.8-1.1-3.8-1.5c-1.1-0.3-2.2-0.3-3.1-0.4C927.7,528.4,926.8,528.3,926.7,528.2L926.7,528.2z"
		/>
</g>
<g>
	<path fill="#FFFFFF" d="M1004.6,504.2c0,0-0.5,0.1-1.3,0.3c-0.8,0.2-1.9,0.6-3.1,1.3c-0.3,0.1-0.7,0.4-1,0.5
		c-0.3,0.1-0.7,0.4-1,0.5c-0.7,0.4-1.3,1-1.9,1.5c-0.6,0.7-1.1,1.3-1.6,2.1c-0.5,0.8-1.2,1.5-1.7,2.3c-0.4,0.4-0.7,0.7-1,1.2
		c-0.4,0.4-0.7,0.7-1.1,1.1c-0.8,0.6-1.5,1.3-2.4,1.6c-0.4,0.2-0.9,0.3-1.4,0.5c-0.5,0.1-0.9,0.3-1.4,0.2c-0.5,0.1-0.9,0.1-1.4,0
		c-0.4,0-0.8-0.1-1.2-0.1c-1.4-0.2-2.6-0.5-3.4-0.6c-0.9-0.3-1.3-0.4-1.3-0.4l0.1-0.2c0,0,0.5-0.1,1.3,0.1c0.9-0.1,2.1-0.2,3.5-0.2
		c0.4,0,0.7,0,1.1,0c0.4,0,0.6-0.2,1-0.2c0.4,0,0.6-0.2,1.1-0.2c0.3-0.1,0.8-0.2,1.1-0.4c0.7-0.4,1.4-0.7,2.2-1.3
		c0.4-0.4,0.6-0.5,1-0.9l0.9-1c0.6-0.7,1.3-1.4,1.8-2.2c0.5-0.8,1.3-1.4,2-2.1c0.4-0.4,0.8-0.6,1.2-0.8c0.4-0.2,0.6-0.5,1.1-0.6
		c0.4-0.2,0.7-0.4,1.1-0.6c0.3-0.1,0.8-0.2,1.1-0.4c1.4-0.5,2.5-0.8,3.3-1C1004,504.1,1004.5,504,1004.6,504.2L1004.6,504.2z"/>
</g>
<g>
	<path fill="#FFFFFF" d="M1012.8,540.4c0,0-0.9,1.7-2.7,4.1c-1,1.2-2.1,2.6-3.8,3.4c-0.9,0.4-1.7,0.9-2.9,1.1
		c-0.5,0.1-1.1,0-1.6,0.1l-1.5-0.1c-1.9-0.3-4-0.3-5.7-0.5c-0.9-0.1-1.7,0-2.5,0c-0.9,0.1-1.5,0.2-2.2,0.3c-1.5,0.2-2.6,0.6-3.4,0.7
		c-0.9,0.1-1.4,0.2-1.4,0.2l-0.1-0.1c0,0,0.4-0.2,1.3-0.7c0.4-0.2,0.9-0.4,1.5-0.6c0.6-0.3,1.1-0.6,1.9-0.8c0.3-0.1,0.8-0.2,1.1-0.4
		c0.5-0.1,0.8-0.2,1.3-0.3c0.9-0.1,1.9-0.2,2.8-0.2c1.9,0.1,3.9,0.5,5.8,0.8l1.4,0.2c0.4,0,0.9,0.1,1.3,0.1c0.9-0.1,1.8-0.4,2.5-0.8
		c1.6-0.8,2.8-2,3.8-3.1C1011.6,542.1,1012.8,540.4,1012.8,540.4L1012.8,540.4z"/>
</g>
<g>
	<path fill="#FFFFFF" d="M1004,531.3c0,0-0.5,0.4-1.1,1c-0.8,0.6-1.7,1.6-3,3c-0.6,0.7-1.1,1.3-1.8,2c-0.7,0.7-1.3,1.6-1.8,2.4
		c-0.6,0.9-1.3,1.7-1.8,2.8c-0.6,1-1.2,1.9-1.9,3c-0.3,0.5-0.8,0.9-1.1,1.5c-0.5,0.4-0.9,0.8-1.3,1.2c-0.6,0.3-0.9,0.7-1.5,1
		c-0.6,0.3-1,0.5-1.6,0.7c-1.1,0.4-2,0.7-2.9,1c-0.9,0.3-1.9,0.5-2.7,0.8c-0.8,0.2-1.6,0.5-2.1,0.8c-0.6,0.3-1.1,0.6-1.6,0.8
		c-0.8,0.6-1.4,0.9-1.4,0.9l-0.1-0.1c0,0,0.3-0.5,1-1.2c0.4-0.4,0.9-0.8,1.4-1.1c0.3-0.1,0.6-0.5,0.9-0.7c0.4-0.2,0.7-0.4,1.1-0.6
		c0.9-0.4,1.6-0.7,2.6-1c0.9-0.3,2-0.7,2.9-1c0.4-0.2,0.9-0.3,1.4-0.5c0.4-0.2,0.9-0.4,1.4-0.7c0.4-0.2,0.8-0.6,1.3-1
		c0.4-0.4,0.7-0.7,1.1-1.3c0.6-0.9,1.4-1.8,2-2.7c0.6-0.9,1.4-1.8,2-2.7c0.6-0.9,1.3-1.6,2.1-2.3s1.3-1.4,2.1-2
		c1.2-1.2,2.3-2.1,3.1-2.7C1003.5,531.6,1003.9,531.4,1004,531.3L1004,531.3z"/>
</g>
<g>
	<path fill="#FFFFFF" d="M1014.3,548.7c0.3-1.2,0.6-2.3,1-3.4c0.3-1.1,0.8-2.2,1.3-3.4c0.3-0.5,0.5-1.2,0.8-1.7c0.3-0.5,0.6-1,1-1.6
		c0.7-1.1,1.5-2,2.1-2.9l1.1-1.3c0.3-0.5,0.8-0.9,1.1-1.5c0.3-0.5,0.6-1,0.8-1.5c0.2-0.7,0.2-1,0.2-1.7l0.1-0.9l0.2-1
		c0.2-0.7,0.5-1.2,0.9-1.7c0.7-1.1,1.7-2,2.8-2.6l0,0.7c-1.7-0.4-3.3-0.7-5-1.2c-1.7-0.4-3.3-1-4.8-1.5c-1.5-0.5-3-0.6-4.8-0.6
		c-1.7,0-3.2,0.1-4.9,0.4c-0.4,0-0.8,0.2-1.1,0.2c-0.4,0-0.8,0.2-1.1,0.4l-2.4,0.9c-1.4,0.7-2.9,1.3-4.5,2.2l-2.1,1.1l-2.1,1.3
		c-1.4,0.9-2.8,2-4.1,2.9c-1.4,0.9-2.9,1.8-4.4,2.7c-0.7,0.4-1.6,0.8-2.4,1c-0.4,0.2-0.9,0.3-1.3,0.3l-0.6,0.2l-0.1,0.1l-0.2-0.1
		l-0.4,0c-1.7,0-3.5-0.4-5-0.5c-1.6-0.3-3.3-0.5-5-0.5c-0.9-0.1-1.7,0-2.6-0.1l-2.4,0.2l-2.4,0.3c-0.9,0.1-1.6,0.5-2.4,0.7
		c-1.6,0.5-3.2,0.9-4.8,1.6c-1.6,0.5-3.2,1.1-4.8,1.6l0,0l0,0l-4.5-0.6l0.1-0.2l4.5,0.2l-0.1,0.1c1.5-0.6,3.1-1.3,4.7-1.9
		s3.1-1.3,4.7-1.7c0.8-0.2,1.5-0.6,2.5-0.8l2.4-0.5l2.6-0.3c0.9-0.1,1.7,0,2.5,0c1.7,0,3.5,0,5.1,0.4c1.7,0.2,3.2,0.5,5,0.5
		c1.4,0,2.9-0.6,4.4-1.4c1.4-0.7,2.8-1.6,4.3-2.6c1.4-0.9,2.6-1.9,4.1-2.9c0.7-0.4,1.5-1,2.2-1.3l2.3-1.2c1.4-0.7,3.1-1.4,4.7-2.1
		l2.3-0.8c0.4-0.2,0.8-0.2,1.2-0.5c0.5-0.1,0.8-0.2,1.3-0.3c1.7-0.3,3.5-0.3,5.1-0.3c1.7,0,3.4,0.2,5.1,0.8c1.6,0.6,3,1.3,4.7,1.7
		c1.5,0.5,3.2,0.9,4.8,1.3l1.2,0.3l-1,0.5c-1,0.5-1.9,1.2-2.6,2.3c-0.3,0.5-0.6,1-0.8,1.5l-0.3,0.9l-0.1,0.9
		c-0.1,0.6-0.1,1.3-0.3,1.8c-0.2,0.7-0.5,1.2-0.9,1.7c-0.3,0.5-0.8,0.9-1.1,1.5l-1.1,1.3c-0.8,0.9-1.6,1.9-2.2,2.8
		c-0.3,0.5-0.6,1-0.8,1.5c-0.3,0.5-0.6,1-0.8,1.7c-0.5,1.2-1,2.3-1.3,3.4C1015.1,546.3,1014.7,547.6,1014.3,548.7L1014.3,548.7z"/>
</g>
<g>
	<path fill="#FFFFFF" d="M991.9,573.6c0,0,0.4,1.1,0.7,2.7c0.3,1.7,0.6,4,0.5,6.5c-0.1,0.6-0.1,1.2-0.3,1.8
		c-0.2,0.7-0.5,1.2-0.9,1.7c-0.4,0.4-0.7,0.7-1.2,1.2c-0.3,0.1-0.6,0.3-0.7,0.4c-0.3,0.1-0.4,0.2-0.8,0.2c-0.4,0.2-1,0.2-1.3,0.3
		c-0.4,0-0.7,0-0.9-0.1c-0.6-0.1-0.7-0.3-0.7-0.3l0.1-0.2c0,0,0.4,0,0.9-0.1c0.1-0.1,0.5-0.1,0.8-0.2c0.3-0.1,0.6-0.3,1-0.5
		c0.3-0.1,0.6-0.5,0.9-0.7c0.3-0.1,0.7-0.7,1.1-1.1c0.2-0.3,0.6-0.7,0.7-1.1c0.1-0.4,0.4-0.9,0.5-1.5c0.5-2.2,0.4-4.5,0.3-6.1
		C991.9,574.7,991.8,573.5,991.9,573.6L991.9,573.6z"/>
</g>
<g>
	<path fill="#FFFFFF" d="M1013.8,563.5c0,0,0,0.7,0,1.8s0,2.7-0.4,4.8c-0.2,1-0.4,2-0.7,3.3c-0.3,1.1-0.8,2.2-1.3,3.4
		c-0.5,1.2-1.2,2.3-2.1,3.3c-0.9,1-1.9,1.9-2.8,2.9c-1.9,1.9-3.9,3.7-6.1,5c-1.1,0.7-2.1,1.3-3.2,1.9c-1,0.5-2.1,0.9-3,1.2
		c-0.9,0.3-1.9,0.5-2.8,0.5c-0.4,0-0.9,0.1-1.2,0.1c-0.4,0-0.7,0-0.9-0.1c-0.6-0.1-1-0.2-1.4-0.2c-0.4,0-0.4-0.1-0.4-0.1l0.1-0.2
		c0,0,0.1-0.1,0.5-0.1s0.7,0,1.4-0.2c0.5-0.1,1.1-0.2,1.9-0.5c0.8-0.2,1.6-0.5,2.5-0.8c0.9-0.3,1.8-0.7,2.8-1.3
		c1-0.5,1.9-1.2,2.9-1.7c2.1-1.3,4.1-2.9,6.1-4.6c1-0.9,2-1.8,2.8-2.6c0.9-0.8,1.6-1.9,2.1-2.9s1-2.2,1.4-3.3c0.3-1.1,0.5-2.1,0.8-3
		c0.5-1.9,0.5-3.5,0.6-4.7C1013.8,564,1013.8,563.5,1013.8,563.5L1013.8,563.5z"/>
</g>
<g>
	<path fill="#FFFFFF" d="M905.5,462.6c0,0-1.5-0.7-3.8-1.3c-0.7-0.2-1.2-0.3-1.9-0.5c-0.6-0.1-1.4-0.2-1.9-0.3l-0.6-0.1
		c-0.1,0.1-0.4,0-0.5,0.1c-0.4,0-0.8,0.2-1.1,0.2c-0.8,0.2-1.4,0.4-2.1,0.8c-0.8,0.2-1.5,0.6-2.1,0.9c-0.7,0.4-1.3,0.7-2,1
		c-0.6,0.3-1.3,0.7-1.9,1c-0.6,0.3-1.1,0.6-1.7,0.9s-1,0.5-1.4,0.7c-0.4,0.2-0.6,0.5-1.1,0.7c-0.6,0.3-0.9,0.7-0.9,0.7l-0.1-0.1
		c0,0,0.2-0.3,0.6-0.9c0.2-0.3,0.4-0.6,0.8-0.9s0.7-0.7,1.3-1c0.5-0.4,1.1-0.7,1.6-1c0.5-0.4,1.3-0.7,2-1c0.7-0.4,1.5-0.6,2.1-0.8
		c0.8-0.2,1.5-0.6,2.4-0.7c0.8-0.2,1.6-0.5,2.4-0.5c0.4,0,0.9-0.1,1.1-0.2c0.1-0.1,0.4,0,0.5-0.1l0.6,0.1c0.4,0,0.8,0.1,1.2,0.1
		c0.4,0.1,0.7,0.2,1,0.2c0.7,0.2,1.3,0.4,1.8,0.7C904.1,461.7,905.5,462.4,905.5,462.6L905.5,462.6z"/>
</g>
<g>
	<path fill="#FFFFFF" d="M927.7,457.6c0,0-3.2,0.1-8.1,0.2c-0.7,0-1.2,0.1-1.8,0c-0.6,0.2-1.4,0.2-2,0.3c-1.3,0.3-2.7,0.7-4,1.4
		c-1.4,0.5-2.8,1.3-4,2.1c-1.4,0.7-2.6,1.6-4,2.4c-1.4,0.9-2.5,1.8-3.8,2.9c-1.3,1-2.3,1.9-3.5,3.1c-0.6,0.5-1.1,1-1.6,1.4
		c-0.6,0.5-1.2,0.8-1.9,1.3c-1.2,0.8-2.4,1.3-3.4,1.9c-1,0.5-2,1-2.8,1.6c-0.4,0.4-0.8,0.6-1,0.9c-0.2,0.3-0.6,0.5-0.9,0.8
		c-0.5,0.4-0.8,0.9-1,1.2c-0.2,0.3-0.4,0.4-0.4,0.4l-0.2-0.1c0,0,0.1-0.2,0.3-0.5c0.2-0.3,0.4-0.9,0.8-1.5c0.2-0.3,0.4-0.6,0.8-0.9
		s0.6-0.7,0.9-1c0.7-0.7,1.6-1.4,2.7-2.1c1.1-0.7,2.2-1.3,3.3-2.1c0.5-0.4,1.1-0.7,1.6-1.2c0.5-0.4,1.1-1,1.6-1.4
		c1.1-1,2.3-2.1,3.6-2.9c1.4-0.9,2.6-1.9,4-2.8c1.4-0.9,2.8-1.6,4.2-2.4c1.4-0.7,2.9-1.5,4.3-1.9c1.4-0.5,2.8-0.9,4.3-1.1
		c0.6-0.2,1.4-0.2,2.1-0.2c0.6-0.2,1.3,0.1,1.8,0C924.6,457.4,927.7,457.6,927.7,457.6L927.7,457.6z"/>
</g>
<g>
	<path fill="#FFFFFF" d="M918.3,457.6c0,0,1.2-1.9,3.1-4.5c0.9-1.4,2.1-2.9,3.7-4.5c0.4-0.4,0.9-0.8,1.2-1.2
		c0.4-0.2,0.9-0.7,1.4-0.9c0.9-0.7,1.9-1.2,2.9-1.8c0.9-0.7,2-1,3-1.6c1-0.5,2.1-0.9,3-1.2l0.8-0.2c0.3-0.1,0.5-0.1,0.8-0.2
		c0.5-0.1,1-0.2,1.6-0.1c1.1,0,1.9,0.3,2.8,0.5c0.9,0.3,1.5,0.7,2.1,0.9c0.7,0.2,1.1,0.3,1.7,0.4c1,0.2,1.6,0.3,1.6,0.3l0.1,0.1
		c0,0-0.5,0.1-1.6,0.1c-0.5,0.1-1.1,0-1.8,0c-0.8-0.1-1.4-0.3-2.2-0.5c-0.8-0.1-1.6-0.3-2.5-0.2c-0.4,0-0.7,0-1.4,0.2l-0.6,0.2
		l-0.8,0.2c-0.9,0.3-1.9,0.5-2.9,1c-1.1,0.4-1.9,0.8-2.9,1.3c-1,0.5-1.9,1-2.8,1.6c-0.4,0.2-1,0.5-1.4,0.9s-0.8,0.6-1.1,1
		c-1.5,1.3-2.7,2.9-3.8,4.2C919.8,455.9,918.5,457.6,918.3,457.6L918.3,457.6z"/>
</g>
<g>
	<path fill="#FFFFFF" d="M975.1,494.3c0,0-0.1-0.5-0.5-1.2c-0.4-0.7-1.2-1.9-2.6-2.3c-0.4-0.1-0.9-0.3-1.2-0.3
		c-0.4-0.1-0.9-0.4-1.2-0.6c-0.8-0.5-1.6-1.3-2.3-2.3c-1.3-1.9-2.2-4.5-1.8-7.2c0.2-1.4,0.4-2.7,0.4-4.2c0-1.4-0.3-2.9-1.2-4.1
		c-2-2.4-4.6-4.3-6.8-7.2c-1.1-1.4-2-3.1-1.9-5c0.1-1.9,1-3.6,1.3-5.2c0-0.4,0-0.7,0-1.1l-0.3-0.6c-0.1-0.1-0.2-0.4-0.2-0.6
		c-0.2-1.1-0.1-2.3,0.7-3.1c0.3-0.1,0.5-0.4,0.6-0.5c0.3-0.1,0.6-0.3,0.8-0.2c0.6-0.2,1.1,0,1.4,0c0.9-0.1,1.7-0.3,2.4-0.7
		c0.7-0.4,1.6-0.8,1.8-1.5c0.1-0.2,0.1-0.2,0-0.4l0,0l-0.1-0.1l0-0.4c-0.1-0.5-0.2-1,0-1.4c0.1-0.9,0.1-1.9,0.5-3
		c0.1-0.2,0.1-0.4,0.3-0.7s0.3-0.5,0.6-0.7c0.2-0.3,0.6-0.3,0.6-0.5l0.6-0.3c0.7-0.4,1.5-1,2.1-1.5c0.6-0.5,1.2-1.2,1.2-1.5
		c0.1-0.1-0.6-0.8-1.2-1.2c-0.3-0.2-0.8-0.5-1.2-0.8c-0.3-0.2-0.4-0.4-0.5-0.6s-0.2-0.4-0.4-0.7c-0.2-0.4-0.2-1-0.2-1.5
		c0.1-0.6,0.1-0.9,0.1-1.3c0.2-1,0.6-2,1.3-2.7c0.7-0.7,2-1,3-0.8c1,0.2,1.7,0.8,2.3,1.3c1.3,1.1,2.3,2.4,2.4,4.4
		c-0.1,0.6-0.2,1-0.3,1.2c-0.1,0.4-0.2,0.7-0.3,0.9c-0.1,0.6-0.1,1.3,0,1.8c0.1,0.3,0.2,0.4,0.3,0.6c0,0,0,0,0.1,0.1l0,0l0,0l0,0
		l0.2,0.1c0.2,0.1,0.2,0.1,0.6,0.4c0.5,0.6,0.3,0.9,0.3,1.3c0,0.4-0.1,0.6-0.1,0.9c-0.1,0.6,0.2,1,0.3,1.7s0.2,1.1,0.5,1.6
		c0.3,0.9,1.2,1.3,2.1,1.6c0.9,0.3,1.8,0.3,2.5,0.5c0.8,0.1,1.4,0.3,2.1,0.5c0.5,0.3,1.2,0.5,1.5,0.7c0.7,0.6,1,0.9,1,0.9l-0.1,0.1
		c0,0-0.3-0.2-1.1-0.7c-0.3-0.2-0.9-0.3-1.4-0.6c-0.6-0.1-1.2-0.3-2-0.4c-0.8-0.1-1.7-0.2-2.7-0.4c-0.2-0.1-0.4-0.1-0.8-0.1
		c-0.2-0.1-0.4-0.1-0.7-0.3c-0.5-0.3-0.9-0.8-1.2-1.3c-0.3-0.6-0.4-1.1-0.5-1.7c-0.1-0.5-0.5-1.2-0.5-1.9c0-0.4,0-0.7,0.1-0.9
		s-0.2-0.6-0.1-0.5c0.2,0.1-0.2-0.1-0.3-0.2c-0.1-0.1,0.2,0.1,0,0l0,0l-0.1-0.1l-0.2-0.1c-0.1-0.1-0.2-0.1-0.3-0.2
		c-0.4-0.4-0.6-0.8-0.6-1.1c-0.2-0.8-0.2-1.5-0.1-2.3c0.1-0.4,0.1-0.8,0.3-1.1c0.1-0.2,0.1-0.4,0.1-0.4c0.1-0.1,0.1-0.2,0-0.4
		c0-1.1-1-2.4-2.1-3.3c-0.6-0.4-1.2-0.8-1.7-0.9c-0.6-0.1-1.1,0-1.4,0.4c-0.4,0.4-0.7,1.1-0.8,1.7c0,0.4-0.1,0.9-0.1,1.2
		c0,0.4,0,0.7,0.2,1c0.2,0.6,0.5,1,1.3,1.5c0.3,0.2,0.9,0.6,1.2,0.8l0.3,0.2l0,0c0.1,0.1,0.1,0.1,0.1,0.1l0.1,0.3
		c0.1,0.3,0.2,0.8,0.2,1.1c-0.1,0.8-0.5,1.2-0.8,1.7c-0.4,0.4-0.7,0.7-1.1,1.1c-0.8,0.6-1.4,1.1-2.3,1.5l-0.6,0.3
		c-0.1,0.1-0.4,0.2-0.4,0.2c-0.1,0.1-0.1,0.1-0.2,0.3c-0.1,0.1-0.2,0.3-0.3,0.5c-0.3,0.7-0.4,1.7-0.4,2.4c0,0.4,0,0.7,0.1,1.2l0,0.4
		l0.1,0.1L966,446c0,0.4,0,0.7-0.2,1c-0.7,1.1-1.6,1.5-2.4,2c-0.9,0.4-1.9,0.6-2.9,0.8c-0.6-0.1-0.9-0.1-1.3-0.1
		c-0.1,0.1-0.3,0.1-0.5,0.1l-0.4,0.2c-0.5,0.4-0.6,1.2-0.5,1.9c0.1,0.1,0.2,0.4,0.2,0.6l0.3,0.6c0.1,0.5,0.2,1.1,0.1,1.6
		c-0.4,2-1.3,3.4-1.4,5.1c0,0.4,0,0.7,0.1,1.2c0.1,0.5,0.2,0.8,0.4,1.1l0.3,0.6l0.3,0.6c0.2,0.4,0.4,0.7,0.7,1.1
		c2.1,2.6,4.6,4.7,6.7,7.2c1,1.3,1.2,3,1.2,4.4c-0.1,1.5-0.3,2.9-0.5,4.3c-0.5,2.6,0.3,5.1,1.6,7c1.3,1.9,2.8,2.9,4.4,3.2
		c1.7,0.4,2.3,1.7,2.7,2.4C975.3,493.8,975.3,494.2,975.1,494.3L975.1,494.3z"/>
</g>
<g>
	<path fill="#FFFFFF" d="M964.2,437.7c0.1-0.6,0.1-1.2,0-1.8c0.1-0.6-0.2-1.1-0.4-1.8c-0.3-0.6-0.4-1.1-0.7-1.6
		c-0.3-0.6-0.7-0.9-1.1-1.4c-0.4-0.4-0.8-0.9-1.3-1.1c-0.5-0.3-0.9-0.8-1.5-1.1s-1-0.6-1.5-0.8c-0.5-0.3-1-0.2-1.6-0.3l-0.9,0.1
		l-0.8,0.2c-0.5,0.1-1,0.5-1.6,0.8c-0.4,0.2-0.9,0.7-1.5,1l-1.3,1l-1.2,1.2l-1.1,1.3c-0.8,0.9-1.6,1.9-2.2,2.8l-0.1,0.1l0,0
		c0,0-0.1,0.1-0.1,0.2l-0.1,0.2c-0.1,0.2,0,0.4,0.2,0.6c0.1,0.3,0.2,0.4,0.4,0.7c0,0,0.1,0.3,0.4,0.4l0.4,0.4c0.4,0.5,0.9,1,1.3,1.5
		s0.9,1,1.3,1.5l-0.1,0.1c-0.6-0.4-1.1-0.7-1.7-1.1c-0.6-0.4-1-0.9-1.5-1.2l-0.4-0.4c-0.1-0.1-0.3-0.2-0.4-0.4
		c-0.3-0.2-0.4-0.5-0.7-0.9c-0.1-0.3-0.4-0.7-0.3-1.3c0.1-0.2,0-0.4,0-0.7c0.1-0.2,0.1-0.4,0.3-0.7l-0.1,0.1c0.7-1.1,1.5-2,2.3-3
		c0.5-0.4,0.8-0.9,1.3-1.4l1.3-1.2l1.6-1.2c0.6-0.3,1-0.5,1.7-0.9c0.6-0.3,1.1-0.6,1.8-0.7c0.3-0.1,0.6-0.2,0.9-0.3l1-0.2
		c0.7,0,1.4,0.2,2,0.4c0.7,0.2,1.2,0.6,1.6,1c0.5,0.3,0.9,0.8,1.5,1.1c0.5,0.3,0.9,0.8,1.4,1.3c0.4,0.5,0.7,1.1,1.2,1.6
		c0.3,0.6,0.5,1.2,0.7,1.8c0.2,0.6,0.2,1.1,0.2,1.9C964.5,436.4,964.4,437,964.2,437.7L964.2,437.7z"/>
</g>
<g>
	<path fill="#FFFFFF" d="M992.2,495.7c0.2,0.4,0.4,1.1,0.6,1.5c0.1,0.5,0.2,1.1,0.3,1.7s0.2,1.1,0.5,1.6c0.2,0.4,0.4,0.9,1,1.1
		c0.4,0.4,0.9,0.4,1.5,0.7c0.5,0.3,1.1,0.3,1.5,0.5c0.6,0.1,1,0.2,1.6,0.3l1.7,0c1.2,0.1,2.2,0.1,3.3,0.1c1.1,0,2.2,0,3.2-0.1l0.4,0
		l0.4,0l0.9-0.1l1.7,0l1.7,0c0.6,0.1,1.2,0.1,1.7,0.2l0,0l0,0c0.9,0.4,2,0.8,3,1.3c0.9,0.4,2,1,2.8,1.6c0.4,0.4,0.9,0.8,1.3,1.1
		c0.4,0.4,0.7,0.7,1.2,1.2c0.8,0.9,1.4,1.6,2,2.8c0.3,0.6,0.4,1.1,0.5,1.7c0,0.7-0.2,1.4-0.5,1.9s-0.6,0.9-1,1.2
		c-0.4,0.4-0.6,0.9-1,1.2c-0.4,0.4-0.7,0.7-1.2,1.2c-0.4,0.4-0.9,0.7-1.5,1c-0.6,0.3-1.1,0.2-1.7,0.3c-0.5,0.1-1.2-0.1-1.7,0
		l0.1-0.2c0.5-0.1,1.1,0,1.6-0.1c0.4-0.2,0.9-0.3,1.4-0.5c0.4-0.2,0.8-0.6,1.1-1c0.4-0.4,0.7-0.7,0.8-1.2l0.8-1.3
		c0.3-0.5,0.6-0.9,0.8-1.3c0.4-0.6,0.1-1.5-0.3-2.2c-0.4-0.9-1-1.6-1.8-2.3l-1-1.1c-0.4-0.4-0.7-0.7-1-0.9c-0.9-0.6-1.7-1.1-2.5-1.6
		c-0.9-0.4-1.8-1.1-2.8-1.5l0,0c-0.6-0.1-0.9-0.3-1.6-0.3l-1.7,0l-1.7,0l-0.8-0.1l-0.4,0l-0.4,0c-1.1,0-2.2-0.1-3.3-0.1
		c-1.2-0.1-2.2-0.1-3.4-0.2l-1.7-0.2c-0.6-0.1-1.1-0.3-1.7-0.4c-0.6-0.1-1.1-0.3-1.6-0.6c-0.5-0.3-1.2-0.5-1.5-0.8
		c-0.5-0.3-0.8-0.9-1.1-1.4c-0.2-0.6-0.2-1.1-0.3-1.7c-0.1-0.5-0.2-1-0.3-1.7C992.5,496.9,992.2,496.3,992.2,495.7L992.2,495.7z"/>
</g>
<g>
	<path fill="#FFFFFF" d="M1027.8,523.7c0,0,1-0.5,2.7-1.4c0.9-0.4,1.9-1,3.1-1.6c1.1-0.6,2.6-1.3,3.9-2.2c0.4-0.2,0.6-0.5,1.1-0.7
		c0.4-0.2,0.6-0.5,1-0.9c0.6-0.5,1.3-1.2,1.9-1.9c1.3-1.4,2.6-3,3.8-4.5c1.3-1.6,2.6-3.4,3.7-5.2c0.3-0.5,0.6-1,0.9-1.4
		c0.1-0.2,0.3-0.5,0.3-0.7l0.3-0.7c0.6-1,0.8-2,1-3c0.2-1,0.5-2.1,0.5-3.2l0.1-1.5l-0.1-1.6c0-1.1-0.2-2.1-0.3-3.1s-0.5-1.9-0.8-2.9
		c-0.3-0.9-0.7-1.8-1.1-2.7c-0.4-0.9-0.9-1.7-1.2-2.6c-0.7-1.8-1.4-3.4-2.2-4.6c-0.9-1.4-2.1-2.2-3.2-2.7c-1.2-0.5-2.3-1-3.2-1.2
		c-0.9-0.3-1.7-0.4-2.2-0.7c-0.4-0.1-0.8-0.1-0.8-0.1l0.1-0.2c0,0,0.2,0.1,0.8,0.1c0.6,0.1,1.4,0.2,2.2,0.3c1,0.2,2.2,0.5,3.4,1
		c1.3,0.4,2.8,1.3,3.9,2.7c1.1,1.4,1.9,3.2,2.7,4.8c0.4,0.9,0.9,1.7,1.3,2.6c0.4,0.9,0.8,1.9,1.2,3c0.2,1.1,0.5,2.1,0.8,3.2
		c0,1.1,0.3,2.2,0.3,3.3l0,1.7c-0.1,0.6-0.1,1.2-0.2,1.7c-0.1,1.2-0.5,2.2-0.6,3.4c-0.3,1.1-0.6,2.3-1.2,3.2l-0.3,0.7
		c-0.2,0.3-0.3,0.5-0.5,0.8c-0.3,0.5-0.6,1-0.9,1.4c-1.3,1.7-2.5,3.5-3.9,5.1c-1.3,1.6-2.7,3.2-4,4.5c-0.7,0.7-1.3,1.4-2.1,2
		c-0.4,0.4-0.8,0.6-1,0.9c-0.4,0.2-0.6,0.5-1.1,0.7c-1.6,0.8-2.9,1.5-4,2.1c-1.1,0.6-2.3,1.2-3.1,1.6
		C1028.9,523.3,1027.9,523.8,1027.8,523.7L1027.8,523.7z"/>
</g>
<g>
	<path fill="#FFFFFF" d="M1044.5,473.3c0,0,0.1-0.9,0.3-2.5c0.3-1.6,0.4-3.8,1-6.5c0.2-1.4,0.5-2.8,0.7-4.3c0.3-1.6,0.5-3.2,0.9-4.8
		c0.4-1.7,0.8-3.3,1.1-5.1c0.3-1.8,0.5-3.5,0.6-5.2c0-1.8-0.1-3.6-0.4-5.3c-0.1-0.9-0.5-1.6-0.7-2.4c-0.1-0.3-0.2-0.8-0.4-1.1
		c-0.2-0.4-0.4-0.7-0.6-1.1c-0.4-0.7-0.7-1.4-1.1-2.1c-0.4-0.7-0.7-1.4-1.2-1.9c-0.5-0.6-0.8-1.2-1.3-1.9c-0.4-0.5-1-1.1-1.3-1.7
		c-0.9-1-1.7-1.8-2.5-2.7c-0.7-0.7-1.6-1.3-2.2-1.8c-0.6-0.4-1.2-0.8-1.5-1.1c-0.3-0.2-0.6-0.4-0.6-0.4l0.1-0.2c0,0,0.2,0.1,0.7,0.2
		c0.4,0.1,0.9,0.4,1.7,0.8c0.7,0.3,1.5,0.8,2.5,1.6c0.9,0.6,1.9,1.6,2.9,2.5c0.4,0.5,1,1.1,1.4,1.6c0.5,0.6,1,1.1,1.5,1.8
		s0.9,1.4,1.3,2.1c0.4,0.7,0.8,1.6,1.2,2.3c0.2,0.4,0.4,0.7,0.6,1.1c0.2,0.4,0.3,0.9,0.5,1.4c0.3,0.9,0.5,1.7,0.7,2.7
		c0.4,1.8,0.3,3.7,0.2,5.5c-0.2,3.7-1.1,7.3-2.1,10.6c-0.4,1.7-0.7,3.3-1.1,4.8c-0.3,1.4-0.6,3-0.9,4.3c-0.6,2.7-0.9,4.8-1.2,6.4
		C1044.7,472.4,1044.7,473.3,1044.5,473.3L1044.5,473.3z"/>
</g>
<g>
	<path fill="#FFFFFF" d="M1047.4,434.3c0,0,0.2-0.7,0.5-1.9c0.1-0.6,0.1-1.3,0.1-2.2c0-0.4-0.1-0.9-0.2-1.4s-0.3-0.9-0.4-1.4
		c-0.8-1.9-1.9-4.3-2.9-6.7c-0.5-1.2-1.1-2.5-1.5-3.9c-0.4-1.4-0.6-2.9-1.1-4.2c-0.5-1.2-1.1-2.5-1.9-3.6c-0.7-1.1-1.6-2.1-2.5-3.1
		c-0.4-0.5-1-0.9-1.4-1.3c-0.5-0.3-0.9-0.8-1.5-1.1c-0.9-0.6-2-1.1-2.9-1.4c-0.4-0.1-0.9-0.3-1.4-0.2c-0.4,0-0.9-0.1-1.3-0.1
		c-0.9,0.1-1.4,0.4-2.1,0.5c-0.6,0.3-1,0.5-1.3,0.7c-0.3,0.1-0.4,0.2-0.4,0.2l-0.1-0.1c0,0,0.1-0.1,0.4-0.4c0.3-0.1,0.6-0.7,1.1-1
		c0.3-0.1,0.6-0.3,1-0.5c0.4-0.2,0.8-0.2,1.2-0.5c0.4-0.2,1-0.2,1.5-0.2c0.5-0.1,1.1,0,1.7,0c1.2,0.1,2.3,0.6,3.5,1.2
		c0.7,0.2,1.1,0.7,1.6,1c0.6,0.4,1,0.9,1.6,1.3c0.9,1,1.8,2.1,2.6,3.3c0.8,1.2,1.3,2.6,1.9,3.9c0.6,1.5,0.6,2.9,0.9,4.2
		c0.3,1.3,0.8,2.7,1.3,3.9c0.9,2.4,1.9,4.8,2.6,6.8c0.1,0.5,0.2,1.1,0.5,1.6c0.1,0.5,0.2,1,0.2,1.4c0.1,0.9,0,1.7-0.1,2.2
		C1047.9,433.5,1047.6,434.3,1047.4,434.3L1047.4,434.3z"/>
</g>
<g>
	<path fill="#FFFFFF" d="M1047.1,426c0,0,0.9-1.7,1.3-4.5c0.2-1.4,0.2-3,0.2-4.8c-0.1-0.5-0.1-0.9-0.2-1.4c-0.1-0.5-0.1-0.9-0.3-1.3
		c-0.2-0.8-0.4-1.8-0.8-2.7c-0.3-0.9-0.8-1.6-1.1-2.5c-0.4-0.9-1-1.5-1.4-2.4c-0.4-0.9-0.8-1.6-1.2-2.3c-0.2-0.4-0.4-0.7-0.5-1
		c-0.1-0.3-0.3-0.6-0.7-0.9c-0.3-0.6-0.6-1.1-1-1.6c-0.3-0.6-0.6-0.8-0.8-1.2c-0.1-0.3-0.5-0.6-0.6-0.8c-0.1-0.1-0.3-0.2-0.3-0.2
		l0.1-0.2c0,0,0.2,0.1,0.4,0.1c0.2,0.1,0.5,0.3,0.8,0.5s0.8,0.5,1.1,1.1c0.4,0.5,0.9,1,1.3,1.5c0.1,0.3,0.5,0.6,0.8,0.9
		c0.1,0.3,0.4,0.7,0.7,0.9c0.4,0.7,0.9,1.4,1.3,2.2c0.4,0.9,0.8,1.6,1.3,2.4c0.3,0.9,0.7,1.8,1.1,2.7s0.5,1.9,0.8,2.9
		c0.1,0.5,0.2,1,0.2,1.4c0.1,0.5,0.1,0.9,0,1.4c0,1.8-0.2,3.5-0.6,4.8C1048.3,424.5,1047.3,426.1,1047.1,426L1047.1,426z"/>
</g>
<g>
	<path fill="#FFFFFF" d="M1049.8,416.4c0,0,0.3-0.1,0.5-0.4c0.4-0.4,0.9-0.8,1.1-1.7c0.1-0.4,0.3-0.9,0.3-1.4
		c-0.1-0.5-0.2-1.1-0.2-1.7c-0.1-1.2,0.2-2.7,0.5-4.3c0.1-0.8,0.5-1.5,0.6-2.3c0.3-0.9,0.6-1.6,0.6-2.3c-0.1-1.6-1-3.3-1.9-4.8
		c-0.2-0.4-0.6-0.8-1-1.1c-0.2-0.4-0.7-0.6-1-0.9c-0.7-0.6-1.5-1.2-2.3-1.7c-1.7-0.9-3.5-1.8-5.4-2.4c-0.9-0.3-1.9-0.5-2.9-0.7
		l-0.8-0.1l-0.4,0l-0.4,0l-1.5-0.1c-0.5,0.1-0.9-0.1-1.4,0l-1.4,0.2c-0.9,0.1-1.9,0.2-2.7,0.3c-0.9,0.3-1.8,0.4-2.6,0.6
		c-0.8,0.2-1.6,0.7-2.4,0.9c-1.6,0.7-3.1,1.4-4.1,2.3c-1,0.9-1.6,2.1-1.7,3.3c0,0.4-0.1,0.6-0.2,1c-0.1,0.2-0.2,0.7-0.3,0.9
		c-0.3,0.5-0.4,0.9-0.8,1.3c-0.5,0.8-0.9,1.4-1.1,1.7c-0.1,0.4-0.4,0.6-0.4,0.6l-0.2-0.1c0,0,0.1-0.2,0.2-0.7c0.1-0.4,0.6-1,0.8-1.9
		c0.1-0.4,0.3-0.9,0.6-1.4c0.1-0.2,0.1-0.4,0.1-0.8c0.1-0.2,0.1-0.6,0.1-0.9c0.1-1.3,0.5-3,1.7-4.1c1.2-1.2,2.7-2.1,4.3-2.8
		c0.9-0.3,1.6-0.7,2.6-1c0.9-0.3,1.9-0.5,2.9-0.8c0.9-0.3,2-0.3,3-0.5c0.5-0.1,1.1,0,1.6-0.1c0.5-0.1,0.9,0.1,1.5,0.1l1.5,0.1l0.4,0
		c0.2,0.1,0.2,0.1,0.4,0.1l0.8,0.1c1,0.2,2.1,0.5,3,0.8c2,0.6,3.9,1.6,5.6,2.7c1.7,1.1,3.4,2.6,4.4,4.3c1,1.6,1.8,3.4,1.9,5.4
		c-0.1,0.9-0.3,1.8-0.7,2.5c-0.3,0.7-0.5,1.5-0.8,2.2c-0.3,1.4-0.7,2.9-0.7,4c-0.1,0.6,0.1,1.2,0.2,1.7c-0.1,0.6-0.2,1-0.3,1.4
		c-0.5,0.8-0.9,1.4-1.3,1.6C1050.1,416.4,1049.8,416.6,1049.8,416.4L1049.8,416.4z"/>
</g>
<g>
	<path fill="#FFFFFF" d="M1016.3,427.8c-1.2-1.2-2.1-2.7-2.6-4.3c-0.2-0.8-0.3-1.7-0.3-2.6c-0.1-0.9,0.2-1.7,0.5-2.6
		c0.5-1.5,1.1-3.1,1.4-4.7c0.4-1.7,0.7-3.3,0.6-4.8s-0.4-3.2-1.4-4.4c-0.1-0.3-0.5-0.6-0.8-0.9l-0.3-0.2l0,0l0,0l-0.1-0.1l-0.5-0.3
		l-1.1-0.7l-1-0.6c-0.7-0.3-1.5-0.7-2.2-1c-0.7-0.3-1.5-0.5-2.2-0.8c-1.5-0.5-3.2-0.9-4.6-1.2l0.8-0.2c-1.3,1.4-2.6,2.6-4,3.9
		l-0.2-1.4c0.7,0.3,1.2,0.6,1.8,1.1c0.6,0.4,1.2,0.8,1.6,1.3c1,0.9,2,2.1,2.5,3.4c0.1,0.3,0.2,0.8,0.2,1l0.2,1
		c0.2,0.6,0.2,1.4,0.2,1.9c0.2,0.6,0.3,1.3,0.5,1.9l0.5,1.9l-0.1,0.1c-0.6-1.1-1-2.4-1.4-3.8c-0.2-0.6-0.3-1.3-0.5-1.9l-0.2-1
		c0-0.4-0.2-0.6-0.2-0.8c-0.4-1.1-1.4-2-2.3-2.8c-0.9-0.8-2-1.5-3.2-2l-1-0.6l0.9-0.8c1.3-1.2,2.6-2.6,3.8-3.8l0.4-0.4l0.4,0.1
		c1.7,0.4,3.2,0.9,4.9,1.4c0.7,0.3,1.6,0.6,2.3,1c0.7,0.3,1.6,0.6,2.3,1.2l1.1,0.7l0.9,0.8l0.5,0.3l0.1,0.1l0.1,0.1l0,0l0.3,0.2
		c0.4,0.4,0.7,0.6,0.9,1c1.1,1.4,1.3,3.3,1.4,5.1c0,3.5-1.3,6.6-2.4,9.6c-0.3,0.7-0.5,1.5-0.6,2.3c-0.1,0.8,0,1.7,0.2,2.4
		C1014.5,425.1,1015.3,426.6,1016.3,427.8L1016.3,427.8z"/>
</g>
<g>
	<path fill="#FFFFFF" d="M997.9,402c0,0-0.1,0.1-0.2,0.3c-0.1,0.1-0.2,0.3-0.4,0.6c-0.2,0.3-0.3,0.7-0.5,1.2
		c-0.1,0.4-0.3,0.9-0.5,1.5c-0.1,0.6-0.1,1.2-0.3,1.8c0,0.4-0.1,0.6-0.2,1c0,0.4,0,0.7,0,1.1c0,0.7-0.1,1.5,0,2.2
		c0,0.7,0.3,1.3,0.5,1.9c0.3,0.6,0.8,1.2,1.2,1.9c0.4,0.5,0.8,1.2,1.3,1.7c0.8,1.2,1.4,2.4,2.1,3.3c0.2,0.4,0.7,0.9,0.8,1.2
		c0.2,0.4,0.5,0.6,0.7,0.9c0.3,0.6,0.7,0.9,0.7,0.9l-0.1,0.1c0,0-1.3-0.8-2.9-2.5c-0.4-0.5-0.8-0.9-1.2-1.3
		c-0.4-0.5-0.7-1.1-1.3-1.7c-0.5-0.6-0.8-1.2-1.2-1.9c-0.4-0.7-0.7-1.4-1.1-2.1c-0.4-0.7-0.5-1.7-0.5-2.4c0-0.7,0.1-1.5,0.3-2.3
		c0.1-0.8,0.2-1.4,0.4-2c0.2-0.7,0.3-1.2,0.5-1.9c0.1-0.6,0.4-0.9,0.7-1.5c0.1-0.4,0.3-0.7,0.6-1C997.7,402.1,997.9,402,997.9,402
		L997.9,402z"/>
</g>
<g>
	<path fill="#FFFFFF" d="M1019.4,444.4c0,0-0.1-0.1-0.1-0.5c0-0.4,0.1-0.8,0-1.4c0.1-1.2,0.1-3-0.7-4.9c-0.4-0.9-1.1-1.8-2-2.4
		c-0.9-0.8-2-1.3-3.1-1.8c-1.2-0.5-2.4-1.1-3.6-1.7c-1.2-0.6-2.6-1.2-3.6-2.5c-0.3-0.2-0.5-0.6-0.7-1.1l-0.4-0.9
		c-0.1-0.3-0.4-0.5-0.6-0.8c-0.1-0.3-0.4-0.4-0.7-0.6c-0.9-0.8-2.1-1.3-3.3-1.7c-1.2-0.5-2.4-0.8-3.4-1c-1.2-0.3-2.2-0.5-3.3-0.7
		c-1-0.2-2-0.6-2.9-1c-0.4-0.1-0.8-0.5-1.1-0.7c-0.1-0.1-0.3-0.2-0.4-0.4s-0.1-0.3-0.2-0.4c-0.4-0.5-0.5-1-0.7-1.3
		c-0.1-0.3-0.2-0.4-0.2-0.4l0.1-0.1c0,0,0.1,0.1,0.2,0.4s0.4,0.7,0.9,1c0.1,0.1,0.3,0.2,0.4,0.4c0.2,0.1,0.3,0.2,0.5,0.3
		c0.3,0.2,0.6,0.4,0.9,0.4c0.7,0.3,1.7,0.4,2.7,0.6c1,0.2,2.2,0.3,3.3,0.5c1.2,0.1,2.5,0.5,3.8,0.9c1.3,0.4,2.6,1.2,3.6,2.1
		c0.3,0.2,0.6,0.4,0.8,0.9c0.1,0.3,0.5,0.6,0.7,0.9l0.5,1c0.1,0.3,0.2,0.4,0.4,0.7c0.8,0.9,2,1.7,3.1,2.2c1.2,0.6,2.5,1.3,3.5,1.8
		c1.1,0.7,2.3,1.3,3.1,2.2c0.9,0.8,1.7,1.8,2.1,2.9c0.7,2,0.6,3.9,0.4,5c-0.1,0.6-0.1,1.2-0.2,1.4
		C1019.5,444.1,1019.6,444.3,1019.4,444.4L1019.4,444.4z"/>
</g>
<g>
	<path fill="#FFFFFF" d="M971.7,426.9c0,0-0.4-0.5-0.8-1.6c-0.3-0.6-0.5-1.2-0.5-1.9c-0.1-0.9,0.2-1.7,1-2.5
		c0.7-0.7,1.4-1.5,2.1-2.3c0.6-0.9,1.2-1.9,2.4-2.7c0.6-0.3,1.4-0.4,2-0.3c0.6,0.1,1.2,0.3,1.8,0.3c1.2,0.1,2.5,0.2,3.6-0.1l0.8-0.2
		c0.3-0.1,0.4-0.2,0.6-0.5c0.2-0.3,0.7-1.1,1.6-1.5c1.5-0.6,2.8-0.5,3.8-0.7c1.2-0.1,2.2-0.4,2.6-1c0.2-0.3,0.6-0.9,0.8-1.3
		c0.1-0.4,0.5-0.8,0.6-1.2c0.4-0.9,0.8-1.7,1.1-2.4c0.3-0.7,0.6-1.4,0.8-1.9c0.6-1,0.8-1.7,0.8-1.7l0.2,0.1c0,0-0.1,0.6-0.3,1.8
		c-0.1,0.6-0.3,1.2-0.6,2c-0.2,0.7-0.4,1.7-0.8,2.6c-0.1,0.4-0.4,0.9-0.7,1.5c-0.3,0.5-0.4,0.9-0.8,1.5c-0.4,0.6-1.1,1-1.7,1.3
		c-0.6,0.2-1.3,0.3-1.9,0.5c-1.2,0.1-2.5,0-3.4,0.5c-0.3,0.1-0.5,0.4-1.2,1.2c-0.2,0.3-0.6,0.5-0.9,0.7c-0.3,0.1-0.8,0.2-1.1,0.4
		c-1.4,0.4-2.8,0.2-4-0.1c-0.6-0.1-1.2-0.3-1.8-0.3c-0.6-0.1-1.1,0-1.5,0.2c-0.9,0.4-1.6,1.5-2.3,2.3c-0.6,0.9-1.6,1.5-2.3,2.3
		c-0.6,0.7-0.9,1.4-0.9,2.1c0,0.7,0.2,1.4,0.3,2C971.4,426.3,971.8,426.8,971.7,426.9L971.7,426.9z"/>
</g>
<g>
	<path fill="#FFFFFF" d="M1019.8,395.2c0,0-0.1-0.3-0.6-0.4c-0.5-0.3-1.2-0.5-2-0.4c-0.4-0.1-0.9-0.1-1.4,0c-0.6-0.1-1.1,0-1.6,0.1
		c-0.5,0.1-1.1,0-1.7,0.2c-0.5,0.1-1.2,0.1-1.9,0.2c-1.2,0.1-2.4,0.3-3.5,0.6c-1.1,0.2-2.1,0.2-3.1,0.3c-0.9,0.1-1.6,0.1-2.2,0
		c-0.5,0.1-0.9,0.1-0.9,0.1l-0.1-0.1c0,0,1.1-0.6,2.9-1.1c0.9-0.3,1.9-0.5,3.1-0.7c0.5-0.1,1.2-0.1,1.7-0.2c0.6,0.1,1.2-0.1,1.8,0
		c0.6,0.1,1.2-0.1,1.8,0c0.5-0.1,1.3,0.1,1.8,0c0.6,0.1,1.1,0,1.7,0c0.6,0.1,1,0.2,1.4,0.3c0.9,0.3,1.7,0.4,2,0.8
		C1019.8,394.8,1020,395.1,1019.8,395.2L1019.8,395.2z"/>
</g>
<g>
	<path fill="#FFFFFF" d="M1001.8,398.2c0,0-0.7-0.9-1.6-2.6c-0.4-0.9-1.2-1.9-1.6-3.1c-0.1-0.3-0.3-0.6-0.5-1
		c-0.1-0.3-0.3-0.6-0.6-0.8c-0.4-0.5-1.2-0.8-2-1.1c-1.5-0.5-3.5-0.4-5,0.4c-0.4,0.2-0.6,0.5-1,0.9c-0.3,0.5-0.5,0.8-0.8,1.3
		c-0.5,0.8-1.1,1.8-1.7,2.7c-0.6,0.9-1.3,1.7-2.2,2.4l-0.6,0.5l-0.7,0.4c-0.6,0.3-1,0.5-1.4,0.9c-1,0.5-1.9,1.2-2.9,1.7
		c-1,0.5-2,1-3,1.6l-0.7,0.4c-0.3,0.1-0.6,0.3-0.7,0.4c-0.4,0.2-0.6,0.7-0.8,0.9c-0.3,0.9-0.1,1.9,0,2.9c0.1,0.5,0.2,1.1,0.3,1.7
		c0,0.4,0.2,0.6,0,1.1l0,0.4c0.1-0.1-0.1,0.2-0.1,0.2l0,0l0,0l-0.1,0.1c-0.1,0.1-0.2,0.3-0.4,0.4c-0.6,0.7-1.1,0.7-1.6,1.2
		c-0.4,0.2-1,0.5-1.4,0.7c-1.9,1-3.8,1.8-5.4,2.8c-1.7,0.9-3.1,1.8-4,3.2c-1,1.2-1.5,2.6-2,3.9c-0.4,1.3-0.5,2.5-0.5,3.3
		c0.1,0.9,0.3,1.7,0.7,2c0.2,0.4,0.5,0.6,0.5,0.6l-0.1,0.2c0,0-0.2-0.1-0.7-0.6c-0.4-0.4-0.8-1.2-1-2.2c-0.2-1-0.1-2.3,0.1-3.7
		c0.3-1.4,0.8-3,1.9-4.4c0.5-0.8,1.1-1.5,1.8-2s1.6-1.2,2.4-1.6c1.6-1,3.6-1.9,5.4-2.8c0.4-0.2,0.9-0.4,1.4-0.7l0.7-0.4l0.5-0.4
		c0.5-0.1,0.2-1.4,0-2.5c-0.2-1.1-0.3-2.4,0.2-3.7c0.2-0.7,0.7-1.1,1.3-1.6c0.3-0.1,0.6-0.3,0.9-0.4l0.7-0.4c1-0.5,2.1-0.9,3.1-1.4
		c1-0.5,2-1,3-1.6c0.4-0.2,1-0.5,1.4-0.7l0.7-0.4l0.6-0.5c0.8-0.6,1.5-1.3,2.1-2.2c0.6-0.9,1.1-1.7,1.8-2.5c0.3-0.5,0.5-0.8,0.8-1.3
		c0.3-0.5,0.6-0.9,1.2-1.2c1.9-1,3.9-0.9,5.6-0.4c0.9,0.3,1.6,0.6,2.1,1.3c0.4,0.4,0.5,0.6,0.7,0.9c0.1,0.3,0.4,0.7,0.4,1.1
		c0.5,1.2,1,2.4,1.5,3.2C1001.4,397.1,1001.9,398.1,1001.8,398.2L1001.8,398.2z"/>
</g>
<g>
	<path fill="#FFFFFF" d="M1114.4,570.1c0,0,2-3.2,4.8-7.9c0.4-0.6,0.8-1.3,1.1-1.8c0.3-0.7,0.6-1.4,0.5-2.1c0.1-1.5-0.3-3.1-0.8-4.7
		c-0.6-1.5-1.6-3-2.5-4.5c-1.1-1.4-2.3-2.6-3.9-3.6c-1.4-0.9-3.1-1.5-4.9-1.7c-0.8-0.1-1.7-0.2-2.6-0.1c-0.9-0.1-1.8,0-2.6-0.1
		c-1.7-0.2-3.5-0.5-5-0.9c-1.6-0.3-2.9-0.7-4.3-0.7c-1.3-0.1-2.5,0-3.7,0.3c-1,0.2-1.9,0.5-2.7,0.8c-1.5,0.6-2.1,1.3-2.1,1.3
		l-0.1-0.1c0,0,0.1-0.2,0.4-0.6c0.4-0.4,0.9-0.8,1.6-1.2c0.4-0.2,0.7-0.4,1.3-0.7c0.4-0.2,1.1-0.4,1.5-0.6c1.1-0.2,2.4-0.5,3.9-0.6
		c1.4,0,3,0.2,4.6,0.5c1.6,0.3,3.2,0.5,4.9,0.7c0.8,0.1,1.7,0.2,2.6,0.1c0.9,0.1,1.9,0.1,2.7,0.4c1.8,0.3,3.8,0.9,5.4,2.1
		c1.6,1,3,2.6,4.1,4c1.2,1.6,2,3.1,2.5,4.9c0.5,1.7,1,3.3,0.8,5c-0.1,1.9-1.2,3-2,4.1C1116.5,567.1,1114.4,570.1,1114.4,570.1
		L1114.4,570.1z"/>
</g>
<g>
	<path fill="#FFFFFF" d="M1104.9,593.6c2.1-1.1,4-3.2,5-5.3c0.2-0.3,0.3-0.5,0.3-0.9c0.1-0.2,0.2-0.7,0.3-0.9
		c0.2-0.7,0.3-1.2,0.3-1.8c0.1-0.6,0.1-1.3,0.1-1.9c0-0.4,0-0.7-0.1-0.9l-0.1-0.9l0,0c-0.5-1.6-0.8-3.2-1.1-4.9s-0.6-3.3-0.7-4.9
		c-0.2-1.7-0.4-3.2-0.4-4.9c0-1.7-0.1-3.2,0-4.9c-0.1-1.6-0.2-3.2-0.9-4.6c-0.6-1.5-1.8-2.5-3-3.3c-1.3-0.8-2.8-1.6-4.1-2.4
		c-1.5-0.7-3-1.5-4.4-2.2c-1.5-0.7-2.9-1.4-4.4-2.1c-1.5-0.7-3-1.3-4.5-2c-1.5-0.7-3-1.2-4.5-1.7c-0.8-0.1-1.5-0.5-2.3-0.6
		c-0.8-0.1-1.7-0.4-2.4-0.4c-0.8-0.1-1.6-0.3-2.3-0.3c-0.8-0.1-1.7,0-2.5-0.2c-1.7,0-3.2,0.1-4.8,0.3c-0.9,0.1-1.6,0.5-2.3,0.5
		c-0.8,0.2-1.5,0.6-2.3,0.8l-4.6,2l-0.1-0.1l4.3-2.6c0.7-0.4,1.4-0.7,2.4-1c0.8-0.2,1.5-0.6,2.4-0.7c1.7-0.3,3.3-0.6,5-0.6
		c0.9-0.1,1.7,0,2.5,0c0.9-0.1,1.7,0,2.5,0.2c0.9,0.1,1.6,0.3,2.5,0.3c0.8,0.1,1.7,0.4,2.5,0.5c1.5,0.5,3.3,1,4.7,1.7
		c3,1.3,6,2.7,8.9,4.3c1.5,0.7,3,1.5,4.4,2.5c1.5,0.8,2.8,1.6,4.2,2.5c1.4,0.9,2.6,2.3,3.4,3.8c0.7,1.6,0.8,3.4,0.9,5
		c0,1.7-0.1,3.3,0,4.9c0,1.7,0.2,3.2,0.4,4.9c0.1,1.6,0.4,3.2,0.6,5c0.3,1.7,0.6,3.2,0.9,4.8l0,0l0,0l0.1,0.9c0,0.4,0.2,0.6,0.1,0.9
		c-0.1,0.6-0.1,1.3-0.1,1.9c-0.1,0.6-0.3,1.2-0.5,1.9c0,0.4-0.2,0.7-0.3,0.9c-0.2,0.3-0.2,0.7-0.4,0.9
		C1109,590.8,1107.2,592.6,1104.9,593.6L1104.9,593.6z"/>
</g>
<g>
	<path fill="#FFFFFF" d="M1109.7,577.7c0,0-3.3-5.6-7.9-13.8c-1.3-2.1-2.9-4.1-5-5.8c-2.3-1.5-4.7-2.8-7.6-4.1
		c-2.8-1.1-5.6-2.4-8.6-3.5c-3-1.2-6-2.1-9-2.4c-1.5-0.1-3.2-0.2-4.8-0.1c-1.7,0-3.2,0.1-4.8-0.1c-3.2-0.2-6.3-0.5-9.2-1.4
		c-0.7-0.3-1.5-0.5-2.2-0.8c-0.7-0.3-1.5-0.7-2-1.1c-1.3-0.8-2.4-1.5-3.5-2.2c-1.1-0.7-2.3-1.3-3.5-1.8c-1.2-0.5-2.3-1.2-3.3-1.5
		c-2.2-0.8-4.3-1.7-6.2-2.4c-1.9-0.8-3.4-1.7-4.5-2.4c-1.1-0.7-2.2-1-2.9-1c-0.7,0-1.1,0.2-1.1,0.2l-0.1-0.1c0,0,0.3-0.1,1.1-0.2
		c0.9-0.1,1.9,0.3,3.2,0.9c1.2,0.6,2.7,1.3,4.5,2c1.8,0.7,3.9,1.2,6.2,2.1c1.1,0.3,2.3,1,3.5,1.5c1.2,0.5,2.4,1.1,3.7,1.9
		c1.2,0.6,2.4,1.5,3.6,2.1c0.6,0.4,1.3,0.8,1.8,1.1c0.6,0.4,1.3,0.4,2,0.8c2.8,0.9,5.9,1.3,9,1.5c1.5,0.1,3.2,0.2,4.7,0.3
		c1.7,0,3.2-0.1,4.8,0.2c3.2,0.3,6.4,1.4,9.3,2.6s5.8,2.4,8.5,3.8c2.7,1.3,5.4,2.7,7.6,4.2c2.3,1.7,3.8,3.8,5.1,6
		C1106.7,572,1109.7,577.5,1109.7,577.7L1109.7,577.7z"/>
</g>
<g>
	<path fill="#FFFFFF" d="M1104.3,587.2c0.1-0.6,0.3-1.1,0.4-1.7c0.3-0.5,0.3-1.1,0.4-1.7c0.2-1,0.1-2.2-0.3-3.3
		c-0.5-2.1-1.7-4-2.9-5.9c-1.2-1.9-2.6-3.6-4-5.3c-1.5-1.6-3.1-3.1-5-4.3c-1.7-1.3-3.9-2-6-2.5c-2.2-0.3-4.4-0.8-6.5-1.7
		c-1-0.6-2-1.1-2.9-1.8c-0.4-0.4-0.8-0.9-1.3-1.1c-0.3-0.2-0.4-0.1-0.5-0.3c-0.2-0.1-0.4-0.1-0.8-0.1c-2.1-0.2-4.2,0.6-6.3,1.1
		c-1.1,0.2-2.2,0.6-3.3,0.6c-1.1,0.2-2.2,0.3-3.4,0.1c-2.3,0.1-4.5-0.4-6.8-1.2c-2.1-0.9-4-2.1-6-3.1c-2-1-4-2.1-5.9-3.3
		c-1-0.6-1.9-1.2-2.8-1.8c-0.9-0.6-1.8-1.4-2.7-2l-2.6-2.1c-0.9-0.6-1.7-1.5-2.6-2.1c-1.6-1.3-3.5-2.5-5.5-3.3
		c-1.9-0.8-4-1.4-6.2-1.8l1-0.9c0.2,1.4-0.1,2.6-0.2,3.7l-0.7,3.6l-0.7,3.5c-0.1,1.2-0.6,2.3-0.7,3.5c-0.3,1.2-0.8,2.4-1.1,3.5
		c-0.5,1.2-1,2.2-1.7,3.3c-0.7,1.1-1.5,2-2.1,2.9c-0.8,0.9-1.6,1.9-2.4,2.7c-0.9,0.8-1.7,1.6-2.7,2.5c-0.5,0.4-0.9,0.8-1.4,1.1
		l-1.5,1c-0.9,0.7-2.1,1.1-3.3,1.7c-1.2,0.5-2.3,0.8-3.4,1.2c-1.1,0.2-2.4,0.7-3.6,0.8c-1.1,0.2-2.4,0.3-3.6,0.4
		c-2.4,0.2-4.8,0.1-7.2,0.1l0.1-0.2c2.4,0,4.8-0.1,7.1-0.4c1.2-0.1,2.4-0.3,3.5-0.6c1.1-0.2,2.2-0.6,3.4-0.8
		c1.1-0.4,2.3-0.8,3.3-1.3s2.1-1.1,3.1-1.8c0.9-0.7,1.9-1.3,2.7-2.1c0.9-0.7,1.7-1.6,2.6-2.4c0.9-0.8,1.6-1.8,2.3-2.6s1.4-1.8,2-2.8
		c0.6-0.9,1.1-2,1.5-3.1c0.3-1.1,0.7-2.2,1-3.3c0.3-1.2,0.6-2.3,0.7-3.5l0.7-3.5l0.7-3.5c0.1-1.2,0.3-2.3,0.2-3.4l0-1.1l1,0.2
		c2.2,0.5,4.5,0.9,6.5,2.1c2.1,0.9,4.1,2.2,5.8,3.7c0.9,0.8,1.7,1.5,2.6,2.1l2.4,2.2c0.9,0.6,1.7,1.3,2.6,2.1
		c0.9,0.6,1.7,1.3,2.8,1.8c1.9,1.2,3.9,2.2,5.8,3.1c2,1,3.9,2.3,6,3.1s4.1,1.3,6.3,1.3c1.1,0,2.2,0,3.2-0.2c1-0.2,2.2-0.4,3.3-0.6
		c2.2-0.4,4.3-1.1,6.8-1c0.4,0,0.6,0.1,0.9,0.3c0.3,0.2,0.7,0.3,0.8,0.5c0.6,0.4,0.8,0.9,1.2,1.2c0.7,0.7,1.7,1.3,2.7,1.7
		c2,0.8,4.1,1.3,6.4,1.8c2.2,0.5,4.5,1.3,6.2,2.6c1.9,1.2,3.5,2.9,5,4.5c1.5,1.8,2.7,3.5,3.9,5.4c1.2,1.9,2.4,3.9,2.8,6.2
		c0.2,1.1,0.3,2.2,0.1,3.4c-0.1,0.6-0.3,1.1-0.4,1.7C1104.6,586.1,1104.3,586.7,1104.3,587.2L1104.3,587.2z"/>
</g>
<g>
	<path fill="#FFFFFF" d="M1089.4,569.5c0,0-0.7-0.6-2.1-1.3c-0.3-0.2-0.7-0.3-1.2-0.5c-0.4-0.1-0.9-0.4-1.4-0.6
		c-0.5-0.3-1.1-0.3-1.7-0.4c-0.7-0.2-1.2-0.3-1.8-0.3c-1.4-0.2-2.8-0.2-4.3-0.3c-1.6,0.1-3.2,0.2-4.9,0.4s-3.5,0.3-5.3,0.2
		c-0.9,0.1-1.9-0.1-2.8-0.2c-1-0.2-1.8-0.3-2.7-0.6c-0.4-0.1-0.9-0.3-1.3-0.4l-1.3-0.4c-0.9-0.3-1.6-0.6-2.5-1
		c-1.6-0.6-3.3-1.4-4.9-2c-1.6-0.6-3-1.3-4.5-2c-1.5-0.5-2.8-1.1-4.1-1.5c-1.3-0.4-2.6-0.8-3.5-1.2c-1.1-0.3-1.9-0.8-2.7-1.3
		c-0.7-0.3-1.2-1-1.3-1.5c-0.2-0.4-0.2-0.6-0.2-0.6l0.1-0.1c0,0-0.1,0.2,0.3,0.6c0.1,0.3,0.7,0.7,1.5,1.1c0.7,0.3,1.6,0.6,2.7,1
		c1.1,0.3,2.3,0.6,3.5,0.9c1.4,0.2,2.7,0.7,4.3,1.2c1.5,0.5,3,1.2,4.6,1.8c1.5,0.7,3.1,1.5,4.8,2.2c0.9,0.3,1.7,0.8,2.5,1l1.2,0.6
		l1.3,0.4c0.9,0.3,1.7,0.4,2.5,0.7c0.9,0.1,1.7,0.2,2.7,0.2c1.7,0,3.6-0.1,5.2-0.2c1.8,0,3.4-0.1,5-0.1c1.7,0,3.2,0.2,4.4,0.4
		c0.7,0.2,1.4,0.2,1.9,0.5c0.7,0.2,1.2,0.3,1.7,0.5c0.5,0.3,0.9,0.4,1.5,0.7c0.4,0.1,0.8,0.5,1.2,0.6
		C1088.8,568.7,1089.6,569.5,1089.4,569.5L1089.4,569.5z"/>
</g>
<g>
	<path fill="#FFFFFF" d="M1066.5,566.9c-0.3,1.6-0.6,3-0.9,4.6l-1.1,4.6c-0.3,1.4-0.7,3.1-1.4,4.6c-0.3,0.7-0.7,1.5-1.3,2
		c-0.6,0.7-1.5,1-2.1,1.3c-1.4,0.7-2.6,1.6-3.7,2.7c-0.4,0.6-1.1,1.1-1.3,1.7l-0.3,0.5l-0.1,0.4l-0.2,0.7c-0.1,0.2-0.1,0.4-0.2,0.7
		c-0.8,1.5-2,2.7-3.2,3.7c-1.3,1-2.7,1.8-4.3,2.2c-1.6,0.5-3.2,0.8-5,0.6s-3.1-0.4-4.8-0.9c-1.5-0.5-3.1-1.1-4.5-2
		c-0.7-0.3-1.4-0.9-2-1.5c-0.7-0.6-1.2-1.2-1.8-1.8c-1-1.3-2.1-2.6-2.6-4.3c-0.6-1.5-1.1-3.1-1.5-4.7c-0.5-1.6-0.7-3.1-0.9-4.6
		c-0.2-1.5-0.7-3.1-1.2-4.4l0,0l0,0c-0.3-1.7-0.6-3.3-0.9-5l0.1-0.1c0.5,1.6,0.9,3.2,1.4,4.7l-0.1-0.1c0.7,1.4,1.2,3,1.7,4.6
		l1.3,4.6c0.5,1.6,0.8,2.9,1.5,4.3c0.5,1.4,1.5,2.5,2.5,3.8c0.4,0.5,1.1,1.1,1.5,1.6c0.6,0.4,1.1,1.1,1.8,1.4
		c1.3,0.8,2.6,1.5,4.1,1.9c1.4,0.6,3,0.8,4.5,0.9c1.5,0.1,3,0.1,4.5-0.5c1.4-0.4,2.9-1.1,4-2.1c1.2-0.8,2.3-1.9,3-3.2l0.1-0.4
		l0.1-0.6l0.2-0.7l0.3-0.5c0.3-0.7,0.9-1.4,1.6-1.9c1.2-1.2,2.6-2.1,4.1-2.7c0.7-0.4,1.4-0.5,2-1c0.5-0.4,1.1-1.1,1.3-1.7
		c0.7-1.5,1-2.9,1.5-4.4l1.2-4.6C1065.7,570,1066,568.5,1066.5,566.9L1066.5,566.9z"/>
</g>
<g>
	<path fill="#FFFFFF" d="M1042.3,575.5c0,0-2.3,0.5-5.8,0.5c-1.8,0-3.9-0.2-6.1-0.8c-1.1-0.3-2.1-0.9-3.1-1.5c-1-0.6-2-1.1-3.1-1.7
		s-2-1.1-3.1-1.8c-0.5-0.3-0.9-0.8-1.4-1.3c-0.3-0.6-0.7-1.1-1-1.5c-0.1-0.3-0.3-0.6-0.3-0.9c-0.1-0.1-0.1-0.3-0.2-0.4l0-0.4
		c-0.1-0.5-0.2-1-0.2-1.5s-0.2-1-0.2-1.5c-0.1-0.5-0.1-0.9-0.2-1.4c-0.4-3.6-0.3-5.8-0.3-5.8l0.1-0.1c0,0,0.2,0.6,0.5,1.6
		c0.1,0.5,0.2,1.1,0.4,1.8c0.2,0.6,0.4,1.4,0.6,2.2s0.4,1.8,0.7,2.7c0.1,0.5,0.3,0.9,0.4,1.4l0,0.4c0,0,0.1,0.1,0.1,0.3l0.3,0.6
		c0.2,0.4,0.4,0.9,0.7,1.3c0.4,0.4,0.6,0.8,1.1,1.1c0.9,0.6,1.7,1.3,2.8,1.8s2,1.1,2.9,1.8c1,0.6,1.9,1.2,2.8,1.6c2,0.8,4,1,5.6,1.1
		C1040,575.6,1042.3,575.3,1042.3,575.5L1042.3,575.5z"/>
</g>
<g>
	<path fill="#FFFFFF" d="M1048.2,570.1c0,0-1.4,0.4-3.5,0.6c-1,0.2-2.4,0.3-3.7,0.3c-0.7,0-1.4,0-2.2,0c-0.7,0-1.5-0.1-2.2-0.1
		c-0.8-0.1-1.6-0.3-2.2-0.5c-0.7-0.2-1.3-0.4-2.1-0.5c-1.3-0.4-2.5-0.9-3.4-1.3c-2-0.8-3.2-1.6-3.2-1.6l0.1-0.2c0,0,1.5,0.1,3.5,0.5
		c1,0.2,2.2,0.5,3.5,0.9c0.7,0.2,1.3,0.4,2,0.8c0.7,0.2,1.3,0.4,2,0.6c0.7,0.2,1.4,0.2,2,0.4c0.7,0,1.4,0.2,2.1,0.2
		c0.7,0,1.3,0.1,1.9,0.1c0.6,0.1,1.2-0.1,1.8,0C1046.7,570.1,1048.2,570.1,1048.2,570.1L1048.2,570.1z"/>
</g>
<g>
	<path fill="#FFFFFF" d="M1043.1,580.6c0,0-0.9,0.3-2.2,0.6c-0.4,0-0.6,0.2-1.1,0.2c-0.4,0-0.9,0.1-1.2,0.1
		c-0.5,0.1-0.9-0.1-1.3-0.1c-0.5,0.1-0.9-0.1-1.4-0.2c-0.4-0.1-0.8-0.1-1.4-0.2c-0.4-0.1-0.8-0.1-1.2-0.3c-0.9-0.3-1.5-0.5-2.2-0.8
		c-1.2-0.5-2-1.1-2-1.1l0.1-0.2c0,0,0.1-0.1,0.7,0c0.4,0,1.1,0,1.7,0c0.7,0,1.4,0.2,2.2,0.5c0.4,0.1,0.9,0.3,1.3,0.4
		s0.9,0.3,1.3,0.4c0.4,0.1,0.9,0.3,1.2,0.3c0.4,0.1,0.8,0.1,1.2,0.3c0.8,0.1,1.5,0.1,2.2,0.1
		C1042.1,580.5,1043.1,580.4,1043.1,580.6L1043.1,580.6z"/>
</g>
<g>
	<path fill="#FFFFFF" d="M989.6,596c0,0,3.9-1.3,8-2.4c0.9-0.3,2-0.7,2.9-1c0.9-0.3,1.8-0.4,2.7-0.5c1.5-0.2,2.7-0.1,2.7-0.1
		l0.1,0.1c0,0-0.9,0.7-2.3,1.2c-0.7,0.4-1.5,0.6-2.4,0.9c-0.5,0.1-1,0.2-1.5,0.2c-0.5,0.1-1,0.2-1.5,0.2
		C993.7,595.5,989.4,596.1,989.6,596L989.6,596z"/>
</g>
<g>
	<path fill="#FFFFFF" d="M992.5,601.4c0,0,0.9-0.3,2.3-0.5c0.6-0.2,1.4-0.4,2.3-0.5c0.8-0.2,1.8-0.4,2.6-0.6
		c0.9-0.3,1.7-0.5,2.7-0.7c0.9-0.1,1.7-0.3,2.4-0.3c1.4,0,2.4,0,2.4,0l0.1,0.1c0,0-0.9,0.4-2.2,1c-0.6,0.2-1.4,0.4-2.4,0.7
		c-0.9,0.1-1.9,0.2-2.7,0.3c-0.9,0.1-1.9,0.1-2.8,0.2c-0.9,0.1-1.7,0.2-2.4,0.2C993.5,601.5,992.6,601.5,992.5,601.4L992.5,601.4z"
		/>
</g>
<g>
	<path fill="#FFFFFF" d="M994,604.6c0,0,1.1,0,2.7-0.1c0.9-0.1,1.7-0.2,2.7-0.1c0.5-0.1,1-0.2,1.6-0.1c0.5-0.1,1.1,0,1.6-0.1
		c0.5-0.1,1-0.2,1.5-0.2l0.9-0.1c0.3-0.1,0.5-0.1,0.8-0.2c0.5-0.1,1-0.2,1.4-0.2c0.5-0.1,0.9,0.1,1.3,0.1c0.8,0.1,1.5,0.1,1.9,0.3
		c0.4,0.1,0.7,0.2,0.7,0.2l0.1,0.1c0,0-0.3,0.1-0.8,0.2c-0.4,0.2-1.1,0.2-1.9,0.5c-0.4,0-0.8,0.2-1.1,0.2c-0.4,0-1,0.2-1.4,0.2
		c-0.2-0.1-0.5,0.1-0.7,0l-0.7,0c-0.5,0.1-1.1,0-1.7,0c-0.5,0.1-1.1,0-1.7,0c-0.6-0.1-1.1,0-1.5-0.1c-0.9-0.1-1.9-0.1-2.7-0.2
		C995.1,604.8,993.9,604.7,994,604.6L994,604.6z"/>
</g>
<g>
	<path fill="#FFFFFF" d="M958,450.9c0,0-1.2,0.8-3,1.6c-0.9,0.4-2.1,0.9-3.5,0.9c-0.6,0.2-1.4,0-2.2-0.1c-0.4-0.1-0.7-0.2-1.2-0.5
		l-0.3-0.2c0,0,0,0-0.2-0.1l-0.1-0.1l-0.4-0.4c-0.7-0.6-1.1-1.4-1-2.4c0.1-0.9,0.4-1.7,0.5-2.1c0.1-0.2,0-0.4,0.1-0.2l0,0l0,0
		l-0.4-0.4c-0.5-0.3-1-0.9-1.2-1.3c-0.7-0.9-1-1.6-1.2-2.3c-0.3-0.6-0.3-0.9-0.3-0.9l0.1-0.1c0,0,0.3,0.2,0.7,0.7
		c0.4,0.5,1,1.1,1.6,1.7c0.1,0.1,0.4,0.4,0.6,0.4l0.3,0.2l0.3,0.2l0.3,0.2l0.3,0.2c0.1,0.1,0.3,0.2,0.4,0.4c0.1,0.3,0.2,0.8,0.2,1
		c-0.1,0.2-0.1,0.4-0.2,0.7c-0.3,0.7-0.5,1.2-0.6,1.6c-0.1,0.4,0.1,0.9,0.5,1.2l0.4,0.4l0.1,0.1l0,0l0.2,0.1
		c0.3,0.2,0.5,0.3,0.7,0.3c0.7,0.2,1.2,0.3,1.7,0.2c0.6,0.1,1.2-0.1,1.7-0.2c0.5-0.1,1.1-0.2,1.6-0.5
		C956.7,451.6,958,450.9,958,450.9L958,450.9z"/>
</g>
</svg>
