<?xml version="1.0" encoding="utf-8"?>
<!-- Generator: Adobe Illustrator 18.0.0, SVG Export Plug-In . SVG Version: 6.00 Build 0)  -->
<!DOCTYPE svg PUBLIC "-//W3C//DTD SVG 1.1//EN" "http://www.w3.org/Graphics/SVG/1.1/DTD/svg11.dtd">
<svg version="1.1" id="Layer_1" xmlns="http://www.w3.org/2000/svg" xmlns:xlink="http://www.w3.org/1999/xlink" x="0px" y="0px"
	 viewBox="0 0 1920 1080" enable-background="new 0 0 1920 1080" xml:space="preserve">
<g>
	<path fill="#FFFFFF" d="M898.9,528.3c0,0-1.6-1.8-4-5.4c-1.2-1.8-2.6-3.9-4.1-6.5c-1.5-2.6-3-5.6-4.5-8.9c-1.5-3.3-2.8-7.1-4-11.1
		c-1.2-4-1.9-8.4-2.6-12.9c-0.4-2.2-0.6-4.6-0.9-6.9c-0.3-2.3-0.5-4.7-0.7-7.1c-0.4-4.8-0.7-9.7-0.7-14.5l0-3.6c0-0.6,0-1.2,0-1.8
		l0-0.5c0,0,0-0.1,0-0.2c0,0,0-0.1,0-0.2c0-0.1,0.1-0.3,0.4-0.3c0.3,0,0.3,0.1,0.4,0.1c0,0,0.1,0.1,0.1,0.1c0,0,0.1,0.1,0.1,0.1
		c0.2,0.3,0.3,0.6,0.4,0.9c1,2.3,1.8,4.5,2.6,6.8c0.8,2.3,1.6,4.5,2.3,6.7c0.4,1.1,0.7,2.2,1.1,3.3c0.4,1.1,0.7,2.2,1.1,3.2
		c1.6,4.3,3.2,8.4,4.7,12.3c1.5,3.9,3,7.6,4.4,10.9c1.4,3.4,2.7,6.4,3.9,9.1c1.2,2.7,2.3,5,3.3,6.9c0.5,0.9,0.9,1.8,1.3,2.5
		c0.4,0.7,0.8,1.3,1.1,1.8c0.7,0.9,1.1,1.4,1.1,1.4l-0.1,0.1c0,0-0.4-0.5-1.1-1.4c-0.3-0.5-0.7-1.1-1.1-1.8
		c-0.4-0.7-0.9-1.5-1.4-2.5c-0.5-0.9-1.1-2-1.6-3.1c-0.6-1.1-1.2-2.4-1.8-3.7c-1.3-2.7-2.6-5.7-4.1-9.1c-1.5-3.3-3-7-4.6-10.9
		c-1.6-3.9-3.2-8-4.7-12.3c-0.4-1.1-0.8-2.2-1.2-3.3c-0.3-1.1-0.7-2.2-1-3.3c-0.7-2.2-1.5-4.5-2.2-6.7c-0.8-2.3-1.6-4.5-2.5-6.7
		c-0.1-0.3-0.2-0.5-0.4-0.7l0,0c0,0,0,0,0,0c0.1,0,0,0.1,0.3,0.1c0.2,0,0.3-0.2,0.3-0.2c0,0,0-0.1,0,0c0,0,0,0,0,0l0,0.4
		c0,0.6,0,1.2,0,1.8l0,3.6c0,4.9,0.2,9.7,0.6,14.5c0.2,2.4,0.4,4.7,0.7,7.1c0.3,2.3,0.5,4.6,0.9,6.9c0.7,4.5,1.3,8.9,2.5,12.9
		c1.1,4,2.4,7.8,3.9,11.1c1.4,3.3,2.9,6.3,4.4,8.9c1.4,2.6,2.8,4.8,4,6.5C897.4,526.4,899,528.2,898.9,528.3L898.9,528.3z"/>
</g>
<g>
	<path fill="#FFFFFF" d="M876.7,464.3c0,0-5.8-0.2-11.5-0.4c-1.4,0-2.9-0.1-4.2-0.2c-1.3-0.1-2.6-0.2-3.7-0.4
		c-1.1-0.2-2-0.3-2.6-0.4c-0.6-0.1-1-0.2-1-0.2l0-0.1c0,0,0.4,0,1-0.1c0.6,0,1.5,0,2.6-0.1c1.1,0,2.3,0,3.7,0.1
		c1.3,0.1,2.8,0.3,4.2,0.4C871,463.6,876.7,464.2,876.7,464.3L876.7,464.3z"/>
</g>
<g>
	<path fill="#FFFFFF" d="M935.2,504c0,0-0.1-0.3-0.2-0.9c-0.1-0.6-0.2-1.5-0.2-2.6c0-0.6,0-1.2,0.2-1.8c0.1-0.7,0.3-1.4,0.9-2
		c1.2-1,2.1-2.5,2.7-4.3c0.3-0.9,0.5-1.9,0.5-2.9c0.1-1,0-2.1-0.4-3c-0.4-1-1.1-1.8-1.9-2.6c-0.8-0.8-1.7-1.5-2.6-2.3
		c-1.8-1.5-3.8-2.9-5.9-4.3c-2.1-1.4-4.2-2.8-6.4-4c-2.2-1.2-4.5-2.1-6.9-3c-2.3-0.9-4.6-1.6-6.9-2.3c-2.3-0.7-4.5-1.2-6.6-1.7
		c-1.1-0.2-2.1-0.4-3.1-0.6c-1-0.2-2-0.3-2.9-0.5c-1.9-0.2-3.6-0.5-5.1-0.6c-1.5-0.1-2.9-0.1-4-0.2c-1.1,0-2,0.1-2.6,0.1
		c-0.6,0-0.9,0-0.9,0l0-0.1c0,0,0.3,0,0.9-0.1c0.6-0.1,1.5-0.2,2.6-0.2c1.1,0,2.5-0.1,4-0.1c1.6,0,3.3,0.1,5.2,0.4
		c0.9,0.1,1.9,0.2,3,0.4c1,0.2,2.1,0.3,3.1,0.6c2.1,0.4,4.4,1,6.7,1.7c2.3,0.7,4.6,1.5,7,2.4c2.3,0.9,4.7,1.9,6.9,3.2
		c2.2,1.3,4.3,2.7,6.4,4.1c2.1,1.4,4,2.9,5.9,4.4c0.9,0.8,1.8,1.5,2.6,2.4c0.8,0.8,1.6,1.7,2,2.8c0.4,1.1,0.4,2.2,0.3,3.2
		c-0.1,1-0.3,2-0.6,2.9c-0.3,0.9-0.7,1.8-1.2,2.5c-0.2,0.4-0.5,0.7-0.8,1c-0.3,0.3-0.6,0.6-0.9,0.8c-0.5,0.5-0.7,1.2-0.9,1.9
		c-0.1,0.6-0.2,1.3-0.2,1.8c0,1.1,0.1,2,0.2,2.6C935.2,503.7,935.3,504,935.2,504L935.2,504z"/>
</g>
<g>
	<path fill="#FFFFFF" d="M873.7,463l-1.1-5.8c-0.4-2-0.8-3.9-1.1-5.8l-2-11.7l-0.5-2.9c-0.2-1-0.3-2-0.5-2.9l-0.9-5.9l-1.7-11.8
		l0.9-0.2c1.8,5.4,3.6,10.8,5.4,16.2l2.6,8.1l1.3,4.1l0.6,2c0.2,0.7,0.4,1.4,0.7,2l-0.1,0.1c-0.4-0.6-0.6-1.3-0.9-2l-0.8-2
		c-0.5-1.3-1-2.7-1.5-4c-1-2.7-1.9-5.3-2.9-8c-1.9-5.4-3.7-10.8-5.4-16.2l0.9-0.2l1.5,11.8l0.8,5.9c0.1,1,0.3,2,0.4,2.9l0.4,2.9
		l1.8,11.8c0.3,2,0.6,3.9,1,5.9L873.7,463L873.7,463z"/>
</g>
<g>
	<path fill="#FFFFFF" d="M917.5,473.3c0,0-0.5-0.2-1.3-0.4c-0.8-0.2-2-0.6-3.5-0.8c-0.7-0.1-1.5-0.1-2.3,0c-0.8,0.2-1.7,0.5-2.5,0.7
		c-0.9,0.3-1.8,0.5-2.7,0.8c-0.5,0.1-0.9,0.3-1.4,0.4l-0.7,0.2c-0.2,0.1-0.5,0.1-0.8,0.2c-1,0.1-2,0.2-2.9,0.5
		c-0.9,0.2-1.8,0.4-2.6,0.8c-0.4,0.2-0.8,0.3-1.2,0.5c-0.4,0.2-0.7,0.4-1.1,0.6c-0.4,0.2-0.7,0.4-0.9,0.7c-0.3,0.2-0.5,0.5-0.8,0.8
		c-0.2,0.3-0.5,0.5-0.6,0.8c-0.2,0.3-0.4,0.5-0.5,0.8c-0.2,0.5-0.5,1-0.6,1.4c-0.3,0.8-0.4,1.3-0.4,1.3l-0.1,0c0,0,0.1-0.5,0.2-1.4
		c0.1-0.4,0.3-0.9,0.5-1.5c0.1-0.3,0.3-0.6,0.4-0.9c0.1-0.2,0.2-0.3,0.3-0.5c0.1-0.1,0.2-0.3,0.3-0.4c0.2-0.3,0.5-0.6,0.8-0.9
		c0.3-0.3,0.6-0.6,1-0.8c0.2-0.1,0.4-0.3,0.5-0.4c0.2-0.1,0.4-0.2,0.6-0.3c0.4-0.2,0.8-0.4,1.3-0.6c0.9-0.3,1.9-0.6,2.8-0.7
		c1-0.2,2-0.2,2.9-0.3c0.2,0,0.4,0,0.7-0.1l0.7-0.2c0.5-0.1,1-0.3,1.4-0.4c0.9-0.3,1.9-0.5,2.8-0.7c0.9-0.2,1.7-0.5,2.6-0.6
		c0.9-0.1,1.7,0,2.4,0.1c1.5,0.3,2.6,0.7,3.5,0.9C917,473,917.5,473.2,917.5,473.3L917.5,473.3z"/>
</g>
<g>
	<path fill="#FFFFFF" d="M910.2,495c-7.4-1-14.8-1.9-22.1-2.7l-5.5-0.6c-1.8-0.2-3.7-0.3-5.6-0.5c-1.9-0.2-3.7-0.2-5.6-0.3l-5.6-0.1
		c-1.9,0-3.7-0.1-5.6-0.2l-5.6-0.2l-5.6-0.2c-1.9-0.1-3.7,0-5.6,0c-1.9,0-3.7,0.2-5.6,0.4c-1.8,0.2-3.7,0.4-5.5,0.7
		c-1.8,0.3-3.6,0.7-5.3,1.4c-0.8,0.3-1.6,0.9-2.4,1.3l-2.4,1.4l-0.3-0.8c3.2-0.5,6.4-0.9,9.6-1.3c3.2-0.4,6.4-0.7,9.6-0.8
		c1.6-0.1,3.2-0.1,4.8-0.1c1.6,0,3.2,0,4.9,0.2c1.6,0.1,3.3,0.5,4.8,0.9l4.6,1.3c1.5,0.4,3.1,0.9,4.6,1.3l4.6,1.4l9.2,2.8l9.2,2.9
		c3.1,1,6.1,2.1,9.1,3.1l0,0.1c-3.1-0.9-6.1-1.9-9.2-2.8l-9.2-2.7l-9.3-2.6l-4.6-1.3c-1.5-0.4-3.1-0.8-4.6-1.3l-4.6-1.3
		c-0.8-0.2-1.5-0.4-2.3-0.6c-0.8-0.2-1.5-0.3-2.3-0.3c-1.6-0.2-3.2-0.2-4.8-0.2c-1.6,0-3.2,0-4.8,0.1c-1.6,0.1-3.2,0.2-4.8,0.3
		c-1.6,0.1-3.2,0.3-4.8,0.4c-3.2,0.3-6.4,0.7-9.5,1.2l-2.2,0.3l1.9-1.1l2.4-1.4c0.8-0.5,1.6-1,2.5-1.4c1.8-0.7,3.6-1.1,5.5-1.4
		c1.8-0.3,3.7-0.5,5.6-0.7c1.9-0.1,3.7-0.3,5.6-0.3c1.9,0,3.7,0,5.6,0.1l5.6,0.2l5.6,0.2c1.9,0.1,3.7,0.2,5.6,0.2l5.6,0.1
		c1.9,0.1,3.7,0.1,5.6,0.3c1.9,0.2,3.7,0.3,5.6,0.6l5.5,0.6C895.5,492.9,902.9,493.9,910.2,495L910.2,495z"/>
</g>
<g>
	<path fill="#FFFFFF" d="M876.7,552.5c0,0-0.7-0.8-2-2.3c-0.6-0.7-1.3-1.6-2.2-2.7c-0.8-1-1.7-2.2-2.8-3.5c-1-1.3-2-2.8-3.1-4.3
		c-1.1-1.5-2.1-3.2-3.3-4.9c-1.1-1.8-2.1-3.6-3.2-5.5c-0.9-2-2-3.9-2.8-5.9c-0.9-2-1.8-3.9-2.8-5.9c-1-1.9-2-3.8-3-5.6
		c-1-1.8-2-3.5-2.9-5.2c-0.9-1.6-1.8-3.2-2.6-4.6c-0.8-1.4-1.6-2.7-2.3-3.8c-0.7-1.1-1.3-2.1-1.8-2.9c-0.5-0.8-0.9-1.4-1.2-1.8
		c-0.3-0.4-0.5-0.6-0.5-0.6l0-0.1c0,0,0.3,0.2,0.6,0.6c0.3,0.4,0.8,1,1.4,1.7c1.2,1.5,2.7,3.8,4.5,6.6c0.9,1.4,1.8,2.9,2.8,4.5
		c1,1.6,1.9,3.3,2.9,5.1c1,1.8,2,3.7,2.9,5.6c0.9,1.9,1.9,3.9,2.7,6c0.8,2,1.8,4,2.7,5.9c1,1.9,2.1,3.7,3.1,5.5
		c1.1,1.7,2.1,3.4,3.2,5c1.1,1.5,2.1,3,3,4.3c1,1.3,1.9,2.5,2.7,3.6c0.8,1,1.5,2,2.1,2.7C876.1,551.6,876.8,552.5,876.7,552.5
		L876.7,552.5z"/>
</g>
<g>
	<path fill="#FFFFFF" d="M837.7,489.5l-9-9.1l-9.1-9c-1.5-1.5-3.1-2.9-4.6-4.4c-1.6-1.5-3.1-2.9-4.7-4.4c-1.6-1.4-3.1-2.9-4.7-4.4
		c-1.5-1.5-3.1-3-4.7-4.4c-0.4-0.4-0.8-0.7-1.2-1c-0.4-0.3-0.9-0.6-1.3-0.9l-2.8-1.6c-1.8-1.1-3.6-2.3-5.4-3.5
		c-1.8-1.2-3.6-2.4-5.3-3.6l-2.7-1.8l-2.6-1.9l-5.2-3.8l-5.3-3.6l-5.3-3.5c-0.9-0.6-1.8-1.2-2.7-1.7c-1-0.5-1.9-0.9-2.9-1.1l0.1-0.7
		c2.6,0.3,5.3,0.7,7.9,1.1c1.3,0.2,2.6,0.4,3.9,0.6c1.3,0.2,2.6,0.4,3.9,0.7c1.3,0.3,2.6,0.5,3.9,0.8l1.9,0.5
		c0.6,0.2,1.3,0.4,1.9,0.6c2.6,0.9,4.9,2.2,7.3,3.3c2.4,1.2,4.7,2.4,7.1,3.6c2.4,1.2,4.7,2.5,7,3.7c2.3,1.3,4.6,2.6,6.9,4
		c1.2,0.7,2.2,1.5,3.4,2.2l3.1,2.5c2.1,1.6,4.1,3.3,6.2,5c2,1.7,4.1,3.4,6,5.2c2,1.7,4,3.5,5.9,5.3l5.7,5.5c2,1.8,3.9,3.5,6,5.2
		c2,1.7,4.1,3.4,6.1,5.1c4.1,3.4,8.2,6.7,12.3,10.1l-0.1,0.1l-6.3-4.8c-2.1-1.6-4.2-3.3-6.3-4.9c-2.1-1.7-4.1-3.3-6.2-5
		c-2-1.7-4.1-3.4-6.1-5.2l-5.8-5.4c-1.9-1.8-3.9-3.5-5.9-5.2c-2-1.7-4-3.4-6.1-5.1c-2.1-1.7-4.1-3.4-6.2-5l-3.1-2.5
		c-1.1-0.7-2.1-1.5-3.3-2.1c-2.2-1.4-4.6-2.7-6.9-4c-4.6-2.5-9.3-5-14-7.4l-3.5-1.8c-1.2-0.5-2.4-1.2-3.6-1.6
		c-0.6-0.2-1.2-0.4-1.9-0.6l-1.9-0.5c-1.3-0.3-2.6-0.6-3.9-0.8c-2.6-0.5-5.2-1-7.8-1.4c-2.6-0.4-5.2-0.8-7.9-1.1l0.1-0.7
		c1.1,0.2,2.2,0.7,3.1,1.2c1,0.5,1.8,1.2,2.8,1.7l5.3,3.6l5.3,3.7l5.1,3.8l2.6,1.9l2.6,1.8c1.8,1.2,3.5,2.4,5.3,3.6
		c1.8,1.2,3.5,2.4,5.4,3.5l2.7,1.7c0.4,0.3,1,0.6,1.4,0.9c0.4,0.3,0.8,0.7,1.2,1c1.6,1.4,3.1,3,4.6,4.5c1.5,1.5,3.1,3,4.6,4.4
		c1.6,1.4,3.1,2.9,4.7,4.4c1.5,1.5,3.1,2.9,4.6,4.5l9.1,9.1L837.7,489.5L837.7,489.5z"/>
</g>
<g>
	<path fill="#FFFFFF" d="M806.2,442.2c0,0,4.8,1.7,12,4.2c3.6,1.3,7.8,2.8,12.3,4.3c0.6,0.2,1.1,0.4,1.7,0.6
		c0.6,0.2,1.1,0.5,1.7,0.8c1.1,0.5,2.2,1.1,3.4,1.6c1.1,0.6,2.2,1.1,3.4,1.7c1.1,0.6,2.2,1.2,3.4,1.8c4.5,2.4,9,4.8,13.1,7.1
		c2.1,1.2,4.1,2.3,6,3.4c1.9,1.1,3.7,2.2,5.3,3.1c1.6,1,3.1,1.9,4.5,2.7c1.3,0.8,2.5,1.5,3.4,2.1c1.9,1.2,3,1.9,3,1.9l-0.1,0.1
		c0,0-4.5-2.4-11.2-6.1c-3.3-1.9-7.2-4-11.4-6.3c-2.1-1.2-4.2-2.4-6.4-3.6c-2.2-1.2-4.4-2.5-6.6-3.7c-1.1-0.6-2.2-1.2-3.3-1.8
		c-1.1-0.6-2.2-1.2-3.3-1.8c-1.1-0.6-2.2-1.2-3.3-1.7c-0.6-0.3-1.1-0.5-1.7-0.8c-0.5-0.3-1.1-0.4-1.7-0.7c-4.5-1.7-8.6-3.2-12.2-4.6
		C811,444.1,806.2,442.3,806.2,442.2L806.2,442.2z"/>
</g>
<g>
	<path fill="#FFFFFF" d="M879,480c0,0-13.9-7.4-27.7-14.7c-3.5-1.8-6.9-3.7-10.2-5.4c-1.6-0.9-3.1-1.8-4.6-2.7
		c-1.4-0.9-2.8-1.7-4.1-2.5c-1.3-0.8-2.4-1.5-3.4-2.1c-1-0.7-1.9-1.3-2.6-1.7c-1.4-1-2.2-1.5-2.2-1.5l0.1-0.1c0,0,0.9,0.5,2.3,1.3
		c0.7,0.4,1.6,0.9,2.7,1.6c1,0.6,2.2,1.2,3.5,1.9c5.1,2.9,12,6.7,18.8,10.6C865.3,472.3,879,480,879,480L879,480z"/>
</g>
<g>
	<path fill="#FFFFFF" d="M880,485.5c0,0-1-0.6-2.7-1.6c-0.9-0.5-1.9-1.1-3.1-1.8c-1.2-0.7-2.6-1.5-4.1-2.3c-1.5-0.8-3.1-1.7-4.8-2.7
		c-1.7-1-3.6-1.8-5.5-2.8c-1.9-1-3.9-2-5.9-3c-2-1.1-4-2.2-6-3.3c-2-1.1-4-2.2-6-3.3c-2-1.1-3.9-2.2-5.7-3.3
		c-1.8-1.2-3.7-2.2-5.2-3.4c-1.6-1.2-3-2.4-4.3-3.5c-1.3-1.1-2.5-2.1-3.7-2.9c-0.3-0.2-0.6-0.3-0.8-0.5c-0.3-0.1-0.6-0.2-0.9-0.3
		c-0.6-0.2-1.1-0.4-1.6-0.5c-1.9-0.6-3-0.9-3-0.9l0-0.1c0,0,1.1,0.2,3.1,0.6c0.5,0.1,1,0.2,1.6,0.4c0.3,0.1,0.6,0.2,0.9,0.3
		c0.3,0.2,0.6,0.3,0.9,0.5c1.2,0.8,2.5,1.7,3.9,2.7c1.4,1,2.8,2.2,4.4,3.3c1.6,1.2,3.3,2.2,5.2,3.3c1.8,1.2,3.7,2.2,5.7,3.4
		c1.9,1.2,3.9,2.3,5.9,3.5c2,1.1,4,2.3,5.9,3.4c2,1,4,2.1,5.9,3.1c1.9,1,3.8,1.9,5.5,2.9c1.7,1,3.3,1.9,4.8,2.8
		c1.5,0.9,2.8,1.7,4,2.4c1.2,0.7,2.2,1.4,3.1,1.9C879,484.9,880,485.5,880,485.5L880,485.5z"/>
</g>
<g>
	<path fill="#FFFFFF" d="M880.5,487.9c0,0-7.2-4-14.4-8.2c-0.9-0.5-1.8-1-2.7-1.5c-0.9-0.5-1.8-1-2.6-1.5c-0.8-0.5-1.6-1.1-2.3-1.6
		c-0.7-0.5-1.4-1-2-1.5c-0.6-0.4-1.2-0.9-1.7-1.3c-0.5-0.4-0.9-0.7-1.3-1c-0.7-0.6-1.1-0.9-1.1-0.9l0.1-0.1c0,0,0.5,0.3,1.2,0.7
		c0.4,0.2,0.9,0.5,1.4,0.8c0.5,0.3,1.1,0.7,1.8,1.1c0.7,0.4,1.4,0.8,2.1,1.3c0.8,0.5,1.5,1,2.3,1.5c0.8,0.6,1.6,1,2.5,1.6
		c0.9,0.5,1.7,1.1,2.6,1.6C873.5,483.4,880.5,487.8,880.5,487.9L880.5,487.9z"/>
</g>
<g>
	<path fill="#FFFFFF" d="M879.6,481.7c0,0-9.9-4.8-19.8-9.7c-2.5-1.2-5-2.4-7.3-3.6c-1.2-0.6-2.3-1.2-3.3-1.8c-1-0.6-2-1.1-2.9-1.6
		c-0.9-0.5-1.7-1-2.4-1.5c-0.7-0.4-1.3-0.8-1.8-1.2c-1-0.7-1.6-1-1.6-1l0.1-0.1c0,0,0.6,0.3,1.7,0.8c0.5,0.3,1.2,0.6,1.9,1
		c0.7,0.4,1.6,0.8,2.5,1.3c0.9,0.5,1.9,0.9,3,1.5c1.1,0.5,2.2,1.1,3.3,1.7c2.3,1.2,4.7,2.5,7.2,3.8
		C869.9,476.4,879.7,481.6,879.6,481.7L879.6,481.7z"/>
</g>
<g>
	<path fill="none" d="M880.6,490.8"/>
</g>
<g>
	<path fill="#FFFFFF" d="M848.1,489.4c0,0-5-3.8-12.5-9.6c-1.9-1.5-3.9-3.1-6-4.7c-2.2-1.6-4.3-3.5-6.6-5.4c-2.3-1.9-4.6-3.9-6.9-6
		c-2.3-2-4.7-4.2-7.1-6.1c-2.4-2-4.9-4-7.3-6c-2.4-1.9-4.7-4.1-6.8-6.1c-2.2-2-4.2-4-6.3-5.6c-0.5-0.4-1.1-0.7-1.6-1.1
		c-0.5-0.3-1.1-0.6-1.7-0.9c-1.1-0.6-2.2-1.1-3.3-1.7c-2.1-1.1-4.1-2.1-5.7-3.1c-1.6-1.2-2.9-2.2-4-3c-2.2-1.7-3.4-2.7-3.4-2.7
		l0.1-0.1c0,0,1.3,0.9,3.6,2.5c1.1,0.8,2.5,1.7,4.1,2.8c1.6,1,3.6,1.9,5.7,2.9c1.1,0.5,2.2,1.1,3.3,1.6c0.6,0.3,1.1,0.6,1.7,0.9
		c0.6,0.4,1.2,0.7,1.7,1.2c2.2,1.7,4.2,3.7,6.4,5.7c2.2,2,4.4,4.1,6.7,6.1c2.4,2,4.8,4.1,7.2,6.1c2.4,2,4.7,4.2,7.1,6.2
		c2.3,2.1,4.6,4.2,6.8,6.1c2.2,1.9,4.4,3.8,6.5,5.5c2.1,1.7,4.1,3.3,5.9,4.8C843.2,485.4,848.2,489.3,848.1,489.4L848.1,489.4z"/>
</g>
<g>
	<path fill="#FFFFFF" d="M842.9,490c0,0-7.5-6.7-15-13.4c-1.9-1.7-3.8-3.3-5.5-4.9c-0.8-0.8-1.7-1.6-2.5-2.4
		c-0.8-0.8-1.5-1.5-2.2-2.1c-0.7-0.6-1.3-1.3-1.8-1.8c-0.6-0.5-1-1-1.4-1.4c-0.8-0.8-1.2-1.2-1.2-1.2l0.1-0.1c0,0,0.5,0.4,1.4,1
		c0.4,0.3,1,0.7,1.6,1.2c0.6,0.5,1.3,1,2,1.7c0.7,0.6,1.5,1.3,2.3,2c0.8,0.7,1.6,1.5,2.5,2.3c1.7,1.6,3.5,3.4,5.3,5.1
		C835.8,483,843,490,842.9,490L842.9,490z"/>
</g>
<g>
	<path fill="#FFFFFF" d="M852.9,490.2c0,0-3.3-2.5-8.1-6.3c-1.2-1-2.5-2-3.9-3.1c-1.4-1.1-2.9-2.3-4.3-3.5c-1.5-1.3-3-2.6-4.5-3.9
		c-1.6-1.2-3.2-2.5-4.9-3.7c-3.3-2.5-6.6-4.9-9.7-7.2c-1.5-1.2-3-2.3-4.4-3.5c-1.4-1.2-2.6-2.3-3.8-3.3c-4.6-4.1-7.7-6.9-7.7-6.9
		l0.1-0.1c0,0,3.3,2.5,8.1,6.4c1.2,1,2.5,2.1,3.9,3.1c1.4,1.1,2.9,2.2,4.4,3.4c3.1,2.4,6.3,4.9,9.6,7.4c1.6,1.3,3.2,2.6,4.8,3.9
		c0.8,0.6,1.5,1.3,2.3,2c0.7,0.7,1.5,1.3,2.2,1.9c1.4,1.3,2.9,2.5,4.2,3.6c1.4,1.1,2.6,2.2,3.8,3.2
		C849.8,487.5,853,490.1,852.9,490.2L852.9,490.2z"/>
</g>
<g>
	<path fill="#FFFFFF" d="M856.6,489c0,0-0.9-0.8-2.4-2.1c-1.5-1.3-3.7-3.3-6.3-5.6c-1.3-1.1-2.8-2.4-4.3-3.7c-0.8-0.7-1.5-1.3-2.3-2
		c-0.8-0.7-1.7-1.3-2.5-2c-1.7-1.4-3.5-2.8-5.2-4.2c-1.8-1.4-3.6-2.9-5.4-4.3c-1.8-1.4-3.7-2.8-5.5-4.2c-1.8-1.4-3.6-2.8-5.4-4
		c-1.8-1.3-3.5-2.5-5.1-3.7c-1.6-1.2-3.1-2.3-4.5-3.3c-1.4-1-2.7-2-3.8-2.8c-0.6-0.4-1.1-0.8-1.6-1.1c-0.5-0.3-1-0.7-1.4-1
		c-1.7-1.2-2.6-1.8-2.6-1.8l0-0.1c0,0,1,0.6,2.8,1.6c0.9,0.5,2,1.1,3.1,1.9c1.2,0.8,2.5,1.7,4,2.6c1.5,1,3,2.1,4.6,3.2
		c1.6,1.1,3.3,2.4,5.1,3.7c1.8,1.3,3.5,2.7,5.3,4.1c1.8,1.4,3.6,2.9,5.4,4.4c1.8,1.4,3.6,2.9,5.4,4.4c1.8,1.5,3.5,2.9,5.2,4.3
		c0.8,0.7,1.7,1.4,2.5,2.1c0.8,0.7,1.6,1.4,2.3,2.1c1.5,1.3,2.9,2.6,4.2,3.8c2.6,2.3,4.7,4.3,6.2,5.7
		C855.8,488.2,856.7,489,856.6,489L856.6,489z"/>
</g>
<g>
	<path fill="#FFFFFF" d="M873.1,490.7c0,0-2.5-1.3-6.2-3.4c-0.9-0.5-1.9-1.1-3-1.7c-1-0.6-2.1-1.3-3.2-2c-1.1-0.7-2.2-1.6-3.3-2.5
		c-1.1-0.9-2.1-1.8-3.2-2.8c-2.1-1.9-4.2-3.7-6.2-5.5c-0.9-0.9-1.9-1.8-2.7-2.7c-0.8-0.9-1.6-1.7-2.4-2.4c-0.7-0.7-1.4-1.5-1.9-2.1
		c-0.6-0.7-1.1-1.2-1.4-1.7c-0.7-1-1.1-1.6-1.1-1.6l0.1-0.1c0,0,0.5,0.5,1.3,1.4c0.4,0.5,1,0.9,1.6,1.5c0.6,0.6,1.3,1.3,2.1,2
		c1.5,1.4,3.3,3.1,5.3,4.9c1.9,1.8,4,3.7,6,5.7c1,0.9,2.1,1.9,3.1,2.8c1,0.9,2.1,1.8,3.1,2.5c1.1,0.7,2.2,1.4,3.2,2.1
		c1,0.7,2,1.2,2.9,1.8C870.7,489.2,873.2,490.6,873.1,490.7L873.1,490.7z"/>
</g>
<g>
	<path fill="#FFFFFF" d="M880.6,490.9c0,0-0.6-0.3-1.7-0.7c-1.1-0.5-2.6-1.1-4.4-2c-0.9-0.4-1.9-0.9-2.9-1.4c-0.5-0.3-1-0.6-1.5-0.9
		c-0.5-0.3-1.1-0.6-1.6-1c-2-1.5-4.2-3-6.3-4.6c-2.2-1.6-4.3-3.1-6.3-4.6c-1-0.8-2-1.5-2.9-2.2c-0.9-0.7-1.7-1.4-2.5-2
		c-0.8-0.6-1.5-1.2-2.1-1.8c-0.6-0.6-1.1-1.1-1.5-1.5c-0.4-0.4-0.7-0.8-0.9-1c-0.2-0.3-0.3-0.4-0.3-0.4l0.1-0.1c0,0,0.1,0.1,0.3,0.3
		c0.2,0.2,0.6,0.5,1,0.9c0.4,0.4,1,0.8,1.6,1.3c0.7,0.5,1.4,1,2.2,1.6c0.8,0.6,1.7,1.2,2.6,1.9c0.9,0.7,1.9,1.4,2.9,2.1
		c2,1.5,4.1,3.1,6.2,4.8c2.1,1.6,4.2,3.2,6.2,4.7c0.5,0.4,1,0.7,1.5,1c0.5,0.3,1,0.6,1.5,0.9c1,0.6,1.9,1.1,2.8,1.5
		c1.7,1,3.3,1.7,4.3,2.2C880.1,490.5,880.7,490.8,880.6,490.9L880.6,490.9z"/>
</g>
<g>
	<path fill="#FFFFFF" d="M869.8,498.5c0,0,0.1,0,0.2,0.1c0.2,0.1,0.4,0.2,0.7,0.4c0.5,0.3,1.3,0.8,2.2,1.4c1.8,1.2,4.2,2.8,6.6,4.4
		c1.2,0.8,2.4,1.6,3.5,2.4c1.1,0.8,2.1,1.6,2.9,2.3c0.8,0.7,1.5,1.3,1.9,1.8c0.4,0.5,0.7,0.8,0.7,0.8l-0.1,0.1c0,0-1.2-0.8-3-2
		c-0.9-0.6-1.9-1.3-3-2.1c-1.1-0.8-2.2-1.7-3.3-2.6c-2.3-1.7-4.6-3.5-6.3-4.7c-0.9-0.6-1.6-1.2-2.1-1.5c-0.3-0.2-0.5-0.3-0.6-0.4
		C869.9,498.6,869.8,498.5,869.8,498.5L869.8,498.5z"/>
</g>
<g>
	<path fill="#FFFFFF" d="M859.7,495.1c0,0,2.1,1.5,5.4,3.8c1.6,1.1,3.5,2.4,5.5,3.8c1,0.7,2.1,1.4,3.1,2.2c1.1,0.8,2.1,1.5,3.2,2.3
		c2.1,1.6,4.2,3.2,6.2,4.7c1,0.8,1.9,1.5,2.8,2.2c0.9,0.7,1.7,1.4,2.4,2.1c1.5,1.3,2.7,2.4,3.6,3.2c0.8,0.8,1.3,1.2,1.3,1.2
		l-0.1,0.1c0,0-0.5-0.4-1.5-1c-0.5-0.3-1-0.7-1.7-1.2c-0.6-0.5-1.4-1-2.2-1.6c-0.8-0.6-1.6-1.2-2.5-1.9c-0.9-0.7-1.8-1.4-2.8-2.2
		c-1.9-1.5-4-3.2-6-4.8c-1-0.8-2.1-1.6-3.1-2.4c-1-0.8-2-1.5-3-2.3c-2-1.5-3.8-2.8-5.4-4C861.7,496.8,859.6,495.2,859.7,495.1
		L859.7,495.1z"/>
</g>
<g>
	<path fill="#FFFFFF" d="M850.3,493.5c0,0,4.4,3.3,11.1,8.2c1.7,1.2,3.5,2.5,5.5,3.7c2,1.2,4.2,2.5,6.4,3.8c2.2,1.3,4.5,2.7,6.8,4.1
		c1.2,0.7,2.3,1.5,3.5,2.3c0.5,0.5,1.2,0.8,1.6,1.4l1.5,1.5c1.9,2,3.9,3.9,5.8,5.8c1,0.9,2,1.8,3,2.6c0.3,0.2,0.5,0.4,0.8,0.6
		c0.3,0.2,0.5,0.3,0.8,0.5c0.1,0.1,0.2,0.1,0.3,0.1l0.1,0c0,0,0.1,0,0.1,0l0.2,0c0.3,0,0.5-0.1,0.8-0.1c1.1-0.3,2.2-1,2.9-1.8
		c0.2-0.2,0.3-0.4,0.4-0.7c0.1-0.1,0.1-0.2,0.1-0.3c0-0.1,0-0.3,0.1-0.4c0.1-0.6,0.1-1.2,0.2-1.8c0.1-1.1,0-2.2-0.3-3.3
		c-0.1-0.2-0.2-0.5-0.3-0.7c-0.1-0.2-0.2-0.5-0.3-0.7c-0.2-0.5-0.5-1-0.7-1.4c-0.9-1.8-1.6-3.6-2.3-5.2c-0.6-1.6-1.2-2.9-1.6-4.1
		c-0.8-2.3-1.3-3.6-1.3-3.6l0.1,0c0,0,0.6,1.3,1.5,3.5c0.5,1.1,1.1,2.4,1.8,4c0.3,0.8,0.7,1.6,1.1,2.4c0.4,0.9,0.9,1.7,1.3,2.6
		c0.2,0.5,0.5,0.9,0.7,1.4c0.1,0.2,0.3,0.5,0.4,0.8c0.1,0.3,0.2,0.5,0.3,0.8c0.4,1.1,0.5,2.3,0.5,3.6c0,0.6-0.1,1.2-0.1,1.8
		c0,0.2,0,0.3-0.1,0.5c0,0.2-0.1,0.4-0.1,0.5c-0.1,0.4-0.3,0.7-0.5,0.9c-0.9,1.1-2.1,1.9-3.4,2.2c-0.3,0.1-0.7,0.1-1.1,0.2
		c-0.2,0-0.9-0.1-1.2-0.3c-0.3-0.2-0.6-0.4-0.9-0.6c-0.3-0.2-0.5-0.4-0.8-0.6c-1.1-0.9-2-1.8-3-2.7c-2-1.9-3.9-3.9-5.8-5.9l-1.4-1.5
		c-0.2-0.3-0.5-0.5-0.7-0.7l-0.8-0.6c-1.1-0.8-2.2-1.6-3.4-2.3c-2.3-1.5-4.6-2.8-6.8-4.2c-2.2-1.4-4.3-2.6-6.3-3.9
		c-2-1.3-3.8-2.6-5.5-3.8C854.7,496.9,850.3,493.5,850.3,493.5L850.3,493.5z"/>
</g>
<g>
	<path fill="#FFFFFF" d="M893,526.2c0,0-0.8-0.4-2.3-1.1c-1.4-0.7-3.5-1.7-6-3c-1.2-0.6-2.6-1.3-4-2c-0.7-0.4-1.4-0.8-2.1-1.2
		c-0.7-0.4-1.5-0.8-2.2-1.3c-2.8-2-5.8-4.1-8.8-6.3c-1.5-1.1-3-2.1-4.5-3.2c-1.5-1.1-2.9-2-4.3-3.1c-1.4-1.1-2.7-2.1-3.9-3.1
		c-1.2-1-2.4-1.9-3.5-2.8c-1.1-0.9-2-1.7-2.9-2.4c-0.9-0.7-1.6-1.3-2.2-1.9c-1.2-1.1-1.9-1.7-1.9-1.7l0.1-0.1c0,0,0.8,0.5,2.1,1.5
		c0.7,0.5,1.5,1,2.4,1.7c0.9,0.7,1.9,1.4,3,2.2c1.1,0.8,2.3,1.7,3.6,2.7c1.3,0.9,2.6,2,4,3c1.3,1.1,2.8,2.1,4.3,3.2
		c1.5,1.1,2.9,2.2,4.4,3.3c3,2.2,5.9,4.4,8.7,6.4c0.7,0.5,1.4,0.9,2.1,1.4c0.7,0.4,1.4,0.8,2.1,1.3c1.4,0.8,2.7,1.5,3.9,2.1
		c2.4,1.3,4.5,2.4,5.9,3.1C892.2,525.7,893,526.1,893,526.2L893,526.2z"/>
</g>
<g>
	<path fill="#FFFFFF" d="M893.8,526.9c0,0-1-0.2-2.7-0.5c-1.7-0.4-4.1-0.9-7-1.8c-1.4-0.4-3-0.9-4.6-1.5c-1.6-0.6-3.3-1.3-5-2.1
		c-1.7-0.8-3.4-1.7-5-2.8c-0.8-0.5-1.6-1.1-2.4-1.7c-0.8-0.6-1.6-1.2-2.4-1.8c-1.6-1.2-3.1-2.5-4.6-3.7c-1.5-1.3-2.9-2.5-4.4-3.7
		c-2.8-2.5-5.3-4.9-7.4-6.9c-1.1-1-2-2-2.9-2.9c-0.9-0.9-1.6-1.6-2.2-2.2c-1.2-1.2-1.9-2-1.9-2l0.1-0.1c0,0,3,2.6,7.4,6.6
		c2.2,2,4.8,4.3,7.6,6.7c1.4,1.2,2.8,2.5,4.3,3.8c1.5,1.3,3,2.5,4.5,3.8c0.8,0.6,1.6,1.2,2.4,1.8c0.8,0.6,1.5,1.2,2.4,1.7
		c1.6,1.1,3.3,2,4.9,2.9c1.7,0.8,3.3,1.5,4.9,2.2c1.6,0.6,3.1,1.2,4.5,1.6c2.8,0.9,5.2,1.6,6.9,2
		C892.8,526.6,893.8,526.8,893.8,526.9L893.8,526.9z"/>
</g>
<g>
	<path fill="#FFFFFF" d="M865.6,539.2c0,0-0.2-1.5-0.5-3.7c-0.1-0.6-0.1-1.2-0.2-1.8c-0.1-0.6-0.1-1.3-0.1-2c0-0.7,0-1.4,0.2-2.2
		l0.1-0.6c0.1-0.2,0.1-0.4,0.2-0.6c0.1-0.4,0.3-0.7,0.4-1.1c0.3-0.7,0.8-1.4,1.3-2c0.6-0.6,1.2-1.1,2-1.3c0.4-0.1,0.8-0.1,1.2-0.2
		c0.3,0,0.7,0,1,0c0.6,0,1.2-0.1,1.8-0.1c0.5-0.1,1-0.2,1.4-0.3c0.4-0.2,0.7-0.4,0.9-0.6c0.4-0.4,0.5-0.8,0.5-0.8l0.1,0
		c0,0,0,0.4-0.4,1c-0.2,0.3-0.5,0.6-1,0.8c-0.4,0.2-0.9,0.5-1.5,0.6c-0.6,0.2-1.2,0.3-1.9,0.3c-0.3,0-0.7,0-1,0.1
		c-0.3,0.1-0.6,0-0.9,0.2c-0.6,0.1-1.1,0.5-1.6,1c-0.5,0.5-0.9,1.1-1.2,1.7c-0.2,0.3-0.3,0.6-0.5,1c-0.1,0.2-0.2,0.4-0.2,0.5
		l-0.1,0.5c-0.2,0.7-0.2,1.4-0.3,2.1c0,1.4,0,2.7,0,3.8C865.5,537.7,865.7,539.2,865.6,539.2L865.6,539.2z"/>
</g>
<g>
	<path fill="#FFFFFF" d="M970.7,505c0,0,1.1-0.4,3-1.2c0.5-0.2,1-0.5,1.5-0.7c0.3-0.2,0.6-0.3,0.8-0.5c0.1-0.1,0.3-0.2,0.4-0.3
		l0.2-0.2c0.1,0,0.2-0.1,0.3-0.1c0.8-0.1,1.5,0.2,2.3,0.5c0.7,0.3,1.5,0.7,2.3,1.1c1.5,0.9,3.4,1,5.4,0.9c2-0.1,4.1-0.6,6-1.6
		c1.9-0.9,3.7-2.4,5.5-3.8c0.9-0.7,1.9-1.4,2.8-2c1-0.7,1.9-1.3,2.9-2c2-1.3,3.9-2.6,5.9-3.8c1-0.6,2-1.2,2.9-1.8c1-0.6,2-1.1,3-1.5
		c2-0.9,4-1.7,6-2.3c1-0.3,1.9-0.6,2.8-0.8c0.9-0.2,1.8-0.5,2.7-0.6c0.4-0.1,0.9-0.1,1.3-0.2c0.4-0.1,0.9,0,1.3-0.1
		c0.2,0,0.4,0,0.6,0c0.2,0,0.4,0,0.6,0c0.4,0,0.7,0,1.1,0c1.4,0.1,2.6-0.1,3.7-0.1c2-0.2,3.2-0.4,3.2-0.4l0,0.1c0,0-1.1,0.3-3.2,0.6
		c-1,0.1-2.3,0.4-3.7,0.4c-0.4,0-0.7,0-1.1,0c-0.2,0-0.4,0-0.6,0c-0.2,0-0.4,0-0.6,0c-0.4,0-0.8,0-1.2,0.1c-0.4,0.1-0.8,0.2-1.2,0.2
		c-0.8,0.1-1.7,0.4-2.6,0.7c-0.9,0.3-1.8,0.6-2.8,0.9c-1.9,0.7-3.9,1.4-5.8,2.3c-1,0.4-2,0.9-3,1.5c-1,0.6-2,1.1-2.9,1.7
		c-2,1.2-4,2.4-5.9,3.7c-1,0.6-1.9,1.3-2.9,1.9c-1,0.6-1.9,1.3-2.9,2c-1.9,1.3-3.6,2.8-5.7,3.8c-2,1-4.2,1.4-6.2,1.5
		c-2,0.1-4.1-0.2-5.6-1.1c-0.8-0.4-1.5-0.8-2.3-1.1c-0.7-0.3-1.4-0.6-2.1-0.5c-0.3,0-0.5,0.3-0.8,0.5c-0.3,0.2-0.6,0.3-0.8,0.5
		c-0.6,0.3-1.1,0.5-1.5,0.7C971.9,504.7,970.7,505,970.7,505L970.7,505z"/>
</g>
<g>
	<path fill="#FFFFFF" d="M967.7,476.2c0,0,0.1-0.6,0.2-1.6c0.1-1,0.3-2.6,0.7-4.5c0.2-1,0.3-2.1,0.6-3.2c0.2-1.2,0.5-2.4,0.8-3.8
		c0.6-2.6,1.3-5.8,3.2-8.7c1.9-2.8,4.5-5.5,7.3-8.1c1.4-1.3,3-2.6,4.6-3.8c1.7-1.2,3.4-2.4,5.4-3.3c4-1.6,8.4-2.2,12.8-2.6
		c4.4-0.3,9-0.4,13.5,0.2l3.4,0.5c1.1,0.2,2.2,0.3,3.3,0.4c1.1,0.1,2.2,0.2,3.3,0.3c1.1,0.1,2.2,0.1,3.3,0.2c4.4,0.2,8.8,0.4,13,0.5
		c2.1,0,4.2,0,6.2,0.1c2,0,4,0,5.9-0.1c3.8-0.1,7.5-0.6,10.9-0.9c3.4-0.3,6.5-0.6,9.2-0.8c2.7-0.2,5.1-0.4,7.1-0.5
		c2-0.1,3.5-0.2,4.6-0.2c1.1,0,1.6,0,1.6,0l0,0.1c0,0-0.6,0-1.6,0.1c-1.1,0-2.6,0.2-4.6,0.4c-3.9,0.4-9.5,1-16.3,1.8
		c-3.4,0.3-7,0.8-10.9,1c-3.9,0.2-8,0.1-12.2,0.1c-4.2-0.1-8.6-0.2-13.1-0.5c-1.1-0.1-2.2-0.1-3.3-0.2c-1.1-0.1-2.2-0.2-3.4-0.3
		c-1.1-0.1-2.2-0.3-3.4-0.4l-3.3-0.5c-4.4-0.6-9-0.6-13.4-0.3c-4.4,0.3-8.8,0.9-12.6,2.4c-3.8,1.8-7,4.4-9.9,6.9
		c-2.9,2.6-5.4,5.2-7.3,8c-1.9,2.8-2.6,5.9-3.3,8.5c-0.3,1.3-0.6,2.6-0.8,3.8c-0.2,1.2-0.4,2.2-0.6,3.2c-0.3,1.9-0.6,3.5-0.7,4.5
		C967.9,475.7,967.8,476.3,967.7,476.2L967.7,476.2z"/>
</g>
<g>
	<path fill="#FFFFFF" d="M955.2,495C955.2,495,955.2,495,955.2,495c-0.1-0.2-0.2-0.3-0.1-0.5c0-0.3,0.2-0.8,0.5-1.3
		c0.3-0.5,0.7-1.1,1.1-1.8c0.4-0.7,1-1.4,1.4-2.3c0.2-0.4,0.5-0.9,0.4-1.3c-0.1-0.3-0.1-0.5-0.2-0.8c0-0.3-0.1-0.6-0.1-0.9
		c0-1.2,0-2.4,0.2-3.6c0.1-0.6,0.2-1.2,0.3-1.9c0-0.2,0.1-0.3,0.1-0.5c0.1-0.1,0.1-0.3,0.2-0.5c0.2-0.3,0.4-0.6,0.6-0.8
		c0.9-1,2-1.8,3.2-2.5c0.6-0.3,1.2-0.7,1.8-0.9c0.3-0.1,0.6-0.3,1-0.3c0.1,0,0.3,0,0.6,0c0.2,0,0.4,0,0.6,0.1
		c1.4,0.3,2.5,0.9,3.7,1.4c1.1,0.5,2.2,1,3.2,1.1c0.3,0,0.6,0,0.8,0c0.2,0,0.5-0.1,0.7-0.2c0.5-0.1,1-0.3,1.4-0.5
		c1.8-0.8,3.2-1.6,4.2-2.2c1-0.6,1.6-0.9,1.6-0.9l0.1,0.1c0,0-0.5,0.4-1.4,1.1c-0.5,0.4-1,0.8-1.7,1.2c-0.7,0.4-1.5,0.9-2.4,1.4
		c-0.5,0.2-0.9,0.4-1.5,0.6c-0.5,0.2-1.2,0.3-1.7,0.3c-1.3-0.1-2.4-0.6-3.6-1.1c-1.1-0.5-2.3-1.2-3.4-1.4c-0.5-0.1-1.1-0.1-1.7,0.2
		c-0.6,0.2-1.2,0.5-1.7,0.8c-1.1,0.6-2.2,1.4-3.1,2.2c-0.2,0.2-0.4,0.5-0.6,0.7c-0.1,0.1-0.1,0.2-0.2,0.4c0,0.1-0.1,0.3-0.1,0.4
		c-0.2,0.6-0.3,1.2-0.4,1.8c-0.2,1.2-0.3,2.4-0.3,3.5c0,0.3,0,0.5,0,0.8c0.1,0.3,0.1,0.6,0.2,0.8c0,0.7-0.3,1.1-0.5,1.5
		c-0.5,0.9-1.1,1.6-1.5,2.2c-0.5,0.6-0.9,1.2-1.2,1.7c-0.3,0.5-0.5,0.9-0.5,1.2C955.1,494.9,955.3,495,955.2,495L955.2,495z"/>
</g>
<g>
	<path fill="#FFFFFF" d="M931.7,514.7c0,0,0.7-0.4,1.9-1.2c1.2-0.8,3-1.9,5-3.4c1-0.7,2.1-1.5,3.1-2.5c0.5-0.5,1.1-1,1.5-1.5
		c0.4-0.5,0.9-1.2,1.4-1.8c1-1.2,2-2.5,3.2-3.7c1.2-1.2,2.3-2.4,3.7-3.4c0.4-0.2,0.7-0.5,1.1-0.7c0.4-0.2,0.7-0.3,1.2-0.5
		c0.8-0.3,1.6-0.5,2.4-0.7c1.6-0.5,3.2-0.8,4.5-1.4c1.4-0.5,2.5-1.5,3.4-2.5c0.5-0.5,0.9-1,1.3-1.6c0.2-0.3,0.4-0.5,0.5-0.8l0.1-0.2
		l0.1-0.1l0.1-0.1l0.3-0.4c0.4-0.5,0.7-1,1-1.5c0.4-0.4,0.7-0.9,1.1-1.2c0.7-0.8,1.3-1.4,1.8-2c1-1.1,1.6-1.6,1.6-1.6l0.1,0.1
		c0,0-0.5,0.7-1.4,1.8c-0.4,0.6-1,1.3-1.6,2.1c-0.3,0.4-0.6,0.8-0.9,1.3c-0.3,0.5-0.6,1-1,1.5l-0.3,0.4l-0.1,0.1l0,0.1l-0.1,0.2
		c-0.2,0.3-0.3,0.6-0.5,0.9c-0.4,0.6-0.8,1.2-1.3,1.7c-0.5,0.6-1,1.1-1.6,1.6c-0.3,0.2-0.7,0.5-1,0.7l-0.5,0.3
		c-0.2,0.1-0.4,0.2-0.6,0.3c-1.5,0.6-3.1,0.9-4.7,1.3c-0.8,0.2-1.6,0.4-2.3,0.6c-0.4,0.1-0.8,0.3-1.1,0.4c-0.3,0.2-0.7,0.4-1,0.6
		c-1.3,0.9-2.5,2.1-3.7,3.2c-1.2,1.1-2.2,2.3-3.2,3.5c-0.5,0.6-0.9,1.2-1.4,1.8c-0.5,0.6-1.1,1.1-1.6,1.5c-1.1,0.9-2.2,1.7-3.3,2.4
		c-2.1,1.4-3.9,2.5-5.1,3.2C932.5,514.4,931.8,514.8,931.7,514.7L931.7,514.7z"/>
</g>
<g>
	<path fill="#FFFFFF" d="M957.7,485.5c0,0-1.3,0-3.4,0.1c-1,0.1-2.2,0.2-3.4,0.4c-0.3,0-0.6,0.1-0.9,0.2l-0.5,0.1l-0.4,0.2
		c-0.3,0.1-0.6,0.2-0.9,0.4c-0.3,0.2-0.5,0.3-0.8,0.5c-0.5,0.4-1,0.9-1.4,1.3c-0.4,0.5-0.9,1-1.3,1.5c-0.4,0.5-0.9,1-1.3,1.3
		c-0.4,0.4-0.8,0.8-1.1,1.2c-0.7,0.7-1.2,1.4-1.6,1.8c-0.4,0.5-0.6,0.7-0.6,0.7l-0.1,0c0,0,0.1-0.3,0.4-0.9c0.1-0.3,0.3-0.6,0.5-1
		c0.2-0.4,0.5-0.8,0.8-1.2c0.3-0.4,0.7-0.8,1-1.3c0.4-0.5,0.8-0.9,1.2-1.4c0.4-0.5,0.9-1,1.4-1.4c0.5-0.5,1-0.9,1.6-1.3
		c0.3-0.2,0.6-0.4,0.9-0.6c0.3-0.2,0.6-0.3,1-0.4l0.5-0.2l0.5-0.1c0.3-0.1,0.7-0.1,1-0.1c1.3-0.2,2.5-0.1,3.5-0.1
		C956.4,485.3,957.7,485.5,957.7,485.5L957.7,485.5z"/>
</g>
<g>
	<path fill="#FFFFFF" d="M929,525c2.8-0.3,5.6-1.1,8.2-2.2c2.6-1.1,5-2.6,7.3-4.3c2.3-1.7,4.6-3.4,6.8-5.2c2.2-1.8,4.3-3.7,6.3-5.8
		c0.5-0.5,0.9-1.1,1.4-1.6l1.3-1.7c0.9-1.1,1.8-2.2,2.8-3.3c1.9-2.1,3.9-4.2,5.9-6.2c2-2,4.1-4,6.3-5.8c1.1-0.9,2.3-1.8,3.4-2.6
		c1.1-0.9,2.3-1.7,3.4-2.6c1.2-0.8,2.3-1.7,3.6-2.4c1.2-0.7,2.6-1.4,4.1-1.6c1.4-0.1,2.8-0.4,4-1c1.2-0.6,2.4-1.4,3.1-2.6
		c0.5-0.6,0.9-1.1,1.4-1.7l0.8-0.8l0.8-0.7c1.1-1,2.2-1.9,3.3-2.8c2.2-1.8,4.6-3.5,7.2-4.8c2.6-1.2,5.2-2.3,7.9-3.3
		c0.7-0.2,1.4-0.5,2.1-0.7c0.4-0.1,0.7-0.2,1.1-0.2c0.4,0,0.8-0.1,1.1-0.1c0.7,0,1.4,0,2-0.2c0.6-0.2,1.2-0.5,1.7-0.9
		c1.2-0.9,2.6-1.5,3.9-2c1.4-0.5,2.8-0.9,4.2-1.1c0.7-0.1,1.5-0.1,2.2-0.1l0.6,0l0.5,0c0.4,0,0.7,0.1,1,0.1c1.3,0,2.8-0.2,3.9-0.8
		l0.1,0l0,0c0.9-0.2,1.8-0.4,2.8-0.5c0.5,0,1,0,1.5,0.2c0.1,0.1,0.3,0.1,0.4,0.2l0.3,0.2l0.1,0.1l0.1,0c0,0,0.1,0.1,0.2,0.1
		c0.7,0.3,1.6,0.3,2.5,0.3c0.9,0,1.7-0.1,2.6-0.3c0.4-0.1,0.8-0.2,1.3-0.4c0.4-0.1,0.9-0.3,1.3-0.3c0.9-0.2,1.8-0.3,2.7-0.5
		c0.4-0.1,0.9-0.2,1.3-0.3c0.4-0.1,0.8-0.3,1.2-0.4c0.4-0.2,0.8-0.4,1.2-0.6l1-0.8l0,0c1.6-1.7,3.2-3.4,4.8-5
		c0.4-0.4,0.8-0.8,1.2-1.2c0.4-0.4,0.8-0.8,1.3-1.2c0.4-0.4,0.9-0.8,1.3-1.2c0.5-0.4,0.9-0.8,1.4-1.1c1.9-1.3,3.9-2.5,5.9-3.7
		c1-0.6,2-1.1,3.1-1.7c0.5-0.3,1.1-0.5,1.6-0.7c0.5-0.2,1.1-0.4,1.7-0.5l0,0.1c-0.6,0.1-1.1,0.3-1.6,0.5c-0.5,0.2-1,0.5-1.6,0.8
		c-1,0.5-2,1.1-3,1.7c-2,1.2-3.9,2.5-5.8,3.9c-0.5,0.3-0.9,0.7-1.3,1.1c-0.4,0.4-0.8,0.8-1.3,1.2c-0.4,0.4-0.8,0.8-1.2,1.2
		c-0.4,0.4-0.8,0.8-1.2,1.2c-1.6,1.7-3.2,3.4-4.7,5.1l0,0l0,0l-1.1,0.9c-0.4,0.2-0.8,0.5-1.3,0.6c-0.4,0.1-0.9,0.3-1.3,0.4
		c-0.5,0.1-0.9,0.2-1.4,0.3c-0.9,0.2-1.8,0.3-2.6,0.5c-0.4,0.1-0.9,0.2-1.3,0.4c-0.4,0.1-0.9,0.3-1.3,0.4c-0.9,0.2-1.8,0.4-2.8,0.4
		c-0.9,0-1.9,0-2.9-0.3c-0.2-0.1-0.6-0.3-0.7-0.4l-0.2-0.2c-0.1,0-0.1-0.1-0.2-0.1c-0.3-0.1-0.7-0.1-1.2-0.1c-0.8,0-1.7,0.2-2.6,0.4
		l0.1,0c-1.4,0.7-2.9,0.9-4.4,0.9c-0.4,0-0.7,0-1.1-0.1l-0.6,0l-0.5,0c-0.7-0.1-1.4,0-2,0.1c-1.4,0.2-2.7,0.5-4,1
		c-1.3,0.5-2.5,1.1-3.7,1.9c-0.6,0.4-1.2,0.9-2,1.1c-0.8,0.2-1.6,0.2-2.3,0.2c-1.3,0-2.7,0.5-4,0.9c-2.7,0.9-5.3,2-7.9,3.2
		c-2.5,1.2-4.8,2.9-7.1,4.6c-1.1,0.9-2.2,1.8-3.3,2.7l-0.8,0.7l-0.7,0.7c-0.5,0.5-1,1.1-1.4,1.6c-1.7,2.5-4.8,3.6-7.7,3.9
		c-1.4,0.1-2.6,0.7-3.8,1.4c-1.2,0.7-2.4,1.5-3.5,2.3c-1.2,0.8-2.3,1.7-3.4,2.5c-1.1,0.9-2.3,1.7-3.4,2.6c-2.2,1.8-4.3,3.8-6.3,5.8
		c-2,2-4,4.1-5.9,6.2c-1,1.1-1.9,2.1-2.8,3.2l-1.3,1.7c-0.5,0.6-0.9,1.1-1.4,1.6c-2,2.1-4.1,4-6.3,5.8c-2.2,1.8-4.5,3.5-6.9,5.1
		c-2.3,1.7-4.8,3.2-7.4,4.3C934.6,524,931.8,524.8,929,525L929,525z"/>
</g>
<g>
	<path fill="#FFFFFF" d="M928.6,520.8c0,0,0.5,0,1.3-0.1c0.4-0.1,0.9-0.1,1.5-0.2c0.6-0.1,1.2-0.2,1.9-0.3c0.7-0.1,1.5-0.2,2.3-0.5
		c0.8-0.2,1.6-0.4,2.5-0.7c0.4-0.2,0.8-0.3,1.3-0.5c0.4-0.2,0.8-0.4,1.2-0.6c0.8-0.4,1.7-0.9,2.4-1.4c0.8-0.5,1.5-1.1,2.2-1.7
		c0.4-0.3,0.7-0.6,1-0.9c0.3-0.3,0.7-0.6,0.9-1c0.3-0.3,0.6-0.6,0.9-1c0.3-0.3,0.5-0.7,0.8-1c0.5-0.6,1.1-1.2,1.5-1.7
		c0.5-0.5,0.9-1,1.3-1.4c0.4-0.4,0.7-0.8,1-1.1c0.6-0.6,0.9-0.9,0.9-0.9l0.1,0.1c0,0-0.3,0.4-0.7,1.1c-0.2,0.4-0.5,0.8-0.9,1.2
		c-0.3,0.5-0.7,1-1.2,1.6c-0.4,0.6-0.9,1.2-1.4,1.8c-0.5,0.7-1.1,1.3-1.7,2c-0.3,0.4-0.7,0.7-1,1c-0.3,0.3-0.7,0.6-1.1,0.9
		c-0.7,0.6-1.6,1.2-2.4,1.7c-0.8,0.5-1.7,1-2.6,1.4c-0.4,0.2-0.9,0.4-1.3,0.5c-0.4,0.1-0.9,0.3-1.3,0.4c-0.9,0.2-1.8,0.4-2.6,0.6
		c-0.8,0.2-1.6,0.2-2.3,0.3c-0.7,0.1-1.4,0.2-2,0.2c-0.6,0-1.1,0.1-1.5,0.1C929.1,520.9,928.6,520.9,928.6,520.8L928.6,520.8z"/>
</g>
<g>
	<path fill="#FFFFFF" d="M932.3,479.3c0,0,0.4,0,1.1-0.1c0.7,0,1.7-0.1,2.9,0c0.6,0,1.3,0.1,1.9,0.2c0.7,0.1,1.4,0.4,2.1,0.9
		c0.6,0.5,1.2,0.8,1.9,1.2c0.7,0.3,1.4,0.6,2.2,0.8c0.7,0.2,1.5,0.3,2.1,0.1l0.2-0.1c0,0,0.1-0.1,0.1-0.1c0.2-0.1,0.3-0.3,0.5-0.4
		c0.3-0.2,0.6-0.5,1-0.7c0.7-0.4,1.3-0.8,2.2-0.8c0.2,0,0.5,0,0.8,0.3c0.1,0.1,0.2,0.3,0.2,0.4l0.1,0.2c0.1,0.3,0.2,0.5,0.3,0.8
		c0.3,0.5,0.6,0.9,0.8,1.3c0.3,0.4,0.5,0.7,0.7,1c0.4,0.5,0.7,0.8,0.7,0.8l-0.1,0.1c0,0-0.4-0.2-0.9-0.7c-0.3-0.2-0.6-0.5-0.9-0.9
		c-0.3-0.4-0.7-0.8-1.1-1.3c-0.2-0.3-0.4-0.6-0.5-0.9l0-0.1l0,0c0,0,0-0.1,0-0.1l0,0l0,0l0,0c0,0,0,0,0,0c0,0,0,0-0.1,0
		c-0.5,0.1-1.1,0.4-1.7,0.7c-0.3,0.2-0.6,0.4-0.9,0.6l-0.4,0.3c-0.1,0.1-0.2,0.2-0.4,0.2l-0.4,0.1c-0.9,0.2-1.8,0-2.6-0.2
		c-0.8-0.2-1.5-0.6-2.3-0.9c-0.7-0.4-1.4-0.8-2-1.3c-0.5-0.4-1.2-0.7-1.8-0.8c-0.6-0.2-1.3-0.3-1.9-0.3c-1.2-0.1-2.2-0.2-2.9-0.2
		C932.7,479.4,932.3,479.4,932.3,479.3L932.3,479.3z"/>
</g>
<g>
	<path fill="#FFFFFF" d="M975.6,477.5c0-0.9-0.1-1.7-0.3-2.5c-0.1-0.4-0.2-0.8-0.3-1.2c-0.1-0.4-0.3-0.8-0.5-1.2
		c-0.2-0.4-0.4-0.8-0.6-1.2c-0.2-0.4-0.3-0.8-0.4-1.3c-0.2-0.9-0.3-1.7-0.3-2.6c0-0.9,0.2-1.8,0.5-2.6c0.2-0.4,0.4-0.8,0.7-1.2
		c0.3-0.4,0.6-0.7,1-0.9l1.1-0.7c0.4-0.2,0.7-0.5,1.1-0.7c0.4-0.2,0.8-0.4,1.2-0.6c0.4-0.1,0.8-0.3,1.3-0.4l-0.4,0.5
		c-0.1-0.4-0.1-0.8,0-1.2c0-0.4,0.1-0.8,0.2-1.1c0.2-0.4,0.3-0.7,0.5-1l0.3-0.5c0.1-0.1,0.3-0.3,0.4-0.4l0.4-0.4l0.4-0.3l0.8-0.7
		c0.5-0.4,1.1-0.9,1.6-1.3l1.6-1.3c0.5-0.4,1.1-0.9,1.7-1.3c1.1-0.8,2.3-1.6,3.4-2.4l0.1,0.1c-1,1-2.1,1.9-3.1,2.8
		c-0.5,0.5-1,0.9-1.5,1.4l-1.6,1.4c-0.5,0.5-1,0.9-1.6,1.4l-0.8,0.7l-0.4,0.3l-0.3,0.3c-0.1,0.1-0.2,0.2-0.3,0.3l-0.3,0.4
		c-0.2,0.2-0.3,0.5-0.4,0.8c-0.1,0.3-0.2,0.6-0.2,0.9c-0.1,0.3,0,0.6,0,0.9l0,0.5l-0.4,0.1c-0.4,0.1-0.8,0.2-1.2,0.3
		c-0.4,0.1-0.8,0.3-1.1,0.5c-0.4,0.1-0.8,0.4-1.1,0.6l-1.1,0.7c-0.7,0.4-1.2,1-1.6,1.8c-0.3,0.7-0.5,1.6-0.6,2.4
		c0,0.8,0,1.7,0.2,2.5c0.1,0.4,0.2,0.8,0.3,1.2c0.1,0.4,0.3,0.8,0.5,1.2c0.2,0.4,0.3,0.8,0.4,1.2c0.1,0.4,0.2,0.8,0.3,1.3
		C975.6,475.8,975.7,476.6,975.6,477.5L975.6,477.5z"/>
</g>
<g>
	<path fill="#FFFFFF" d="M974.8,463.7c0,0-0.3-0.5-0.5-1.4c-0.3-0.9-0.5-2.3,0-4c0.2-0.8,0.7-1.6,1.3-2.4c0.6-0.7,1.3-1.5,1.9-2.2
		c0.7-0.7,1.3-1.6,1.9-2.5c0.6-0.8,1.2-1.8,1.9-2.6l1.1-1.3c0.2-0.3,0.4-0.4,0.6-0.6c0.2-0.2,0.4-0.4,0.6-0.5
		c0.9-0.7,1.9-1.2,2.9-1.6c1-0.3,2.1-0.5,3.1-0.3c1,0.1,1.9,0.6,2.6,0.9c1.5,0.9,2.5,1.7,3.3,2.2c0.4,0.3,0.7,0.4,1,0.5
		c0.2,0,0.4,0.1,0.4,0.1l0,0.1c0,0-0.1,0-0.4,0c-0.3,0-0.7-0.1-1.1-0.3c-0.5-0.2-1-0.5-1.6-0.8c-0.6-0.3-1.3-0.6-2-1
		c-0.8-0.3-1.5-0.7-2.4-0.7c-0.9-0.1-1.8,0.1-2.7,0.4c-0.9,0.3-1.9,0.7-2.7,1.3c-0.2,0.1-0.4,0.3-0.6,0.5c-0.2,0.2-0.5,0.4-0.6,0.5
		l-1.1,1.2c-0.7,0.8-1.3,1.7-2,2.6c-0.7,0.8-1.3,1.7-2,2.4c-0.7,0.7-1.4,1.5-2,2.2c-0.6,0.7-1.1,1.4-1.4,2.1
		c-0.5,1.5-0.4,2.9-0.2,3.8C974.6,463.2,974.9,463.6,974.8,463.7L974.8,463.7z"/>
</g>
<g>
	<path fill="#FFFFFF" d="M902.4,517.5c0,0-0.1-0.2-0.2-0.7c0-0.2-0.1-0.5-0.1-0.8c0-0.3,0-0.7,0.3-1.1c0.2-0.2,0.4-0.2,0.6-0.2
		c0.2,0,0.5,0,0.7,0c0.5,0,1,0,1.6-0.1c0.5-0.1,1.2-0.2,1.4-0.8c0.1-0.3,0-0.5-0.1-0.9c-0.1-0.3-0.2-0.6-0.3-1
		c-0.4-1.3-0.8-2.8-1.1-4.4c-0.2-1.6-0.4-3.4,0.3-5.1c0.2-0.4,0.4-0.8,0.6-1.2c0.2-0.4,0.5-0.8,0.7-1.2c0.5-0.8,0.9-1.6,1.4-2.3
		c0.9-1.6,1.9-3.2,2.8-4.8c1-1.6,1.8-3.2,2.9-4.8c1-1.6,2.1-3,3.4-4.3c0.7-0.6,1.4-1.1,2.1-1.6c0.4-0.2,0.7-0.4,1.2-0.6
		c0.4-0.1,0.8-0.3,1.2-0.4c1.7-0.5,3.3-0.3,4.7-0.2c1.4,0.2,2.6,0.4,3.8,0.5c1.1,0.1,2.1,0.2,2.9,0.4c1.6,0.2,2.5,0.3,2.5,0.3l0,0.1
		c0,0-0.9,0-2.6-0.1c-0.8,0-1.8-0.1-2.9-0.1c-1.1,0-2.4-0.2-3.8-0.3c-1.3-0.1-2.9-0.1-4.3,0.3c-0.4,0.1-0.7,0.3-1.1,0.4
		c-0.3,0.1-0.7,0.4-1,0.5c-0.7,0.4-1.3,0.9-1.9,1.5c-1.2,1.1-2.3,2.5-3.3,4c-1,1.5-2,3.1-3,4.7c-1,1.6-2,3.2-2.9,4.7
		c-0.5,0.8-1,1.5-1.4,2.3c-0.2,0.4-0.5,0.8-0.7,1.1c-0.2,0.4-0.5,0.7-0.6,1.1c-0.6,1.5-0.5,3.3-0.3,4.8c0.2,1.6,0.6,3,0.9,4.4
		c0.1,0.3,0.2,0.7,0.3,1c0.1,0.3,0.2,0.7,0,1c-0.1,0.4-0.5,0.6-0.7,0.7c-0.3,0.1-0.6,0.2-0.9,0.2c-0.6,0.1-1.1,0.1-1.6,0.1
		c-0.5,0-1-0.1-1.2,0.2c-0.3,0.3-0.3,0.6-0.3,0.9c0,0.3,0,0.6,0.1,0.8C902.5,517.3,902.5,517.5,902.4,517.5L902.4,517.5z"/>
</g>
<g>
	<path fill="#FFFFFF" d="M942,585.9c0,0-1.2,0.9-3.4,2.5c-0.5,0.4-1.1,0.9-1.9,1.2c-0.8,0.3-1.6,0.5-2.5,0.8
		c-0.9,0.3-1.9,0.5-2.7,1.1c-0.8,0.6-1.5,1.5-2.3,2.3c-0.8,0.8-1.6,1.7-2.6,2.5c-1,0.7-1.8,1.7-2.9,2.5c-0.5,0.4-1.1,0.8-1.8,1
		c-0.7,0.2-1.5,0.3-2.2,0.1c-0.7-0.2-1.3-0.6-1.9-1c-0.6-0.3-1.2-0.7-1.9-1c-1.3-0.6-2.6-1.3-4-1.5c-1.5-0.1-2.9-0.2-4.4-0.1
		c-0.7,0.1-1.5,0.2-2.1,0.5c-0.2,0.1-0.3,0.2-0.4,0.2l-0.2,0.1l-0.2,0.2l-0.7,0.9c-1,1.2-2,2.3-3,3.5c-1,1.2-2,2.3-2.9,3.5
		c-0.9,1.2-1.9,2.4-2.8,3.6c-0.5,0.6-0.9,1.2-1.4,1.8l-0.7,0.9l-0.8,0.9c-0.3,0.3-0.5,0.6-0.9,0.8c-0.4,0.2-0.8,0.3-1.2,0.4
		c-0.8,0.1-1.5,0.2-2.4-0.1c-0.1-0.1-0.2-0.1-0.4-0.2l0,0c0,0-0.1-0.2-0.1-0.1l0-0.1l-0.1-0.1c-0.1-0.2-0.2-0.3-0.3-0.5l-0.5-1.1
		c-0.3-0.7-0.5-1.3-0.8-1.9c-0.5-1.3-1.1-2.5-1.6-3.7c-0.6-1.2-1.2-2.3-1.8-3.3c-0.2-0.2-0.3-0.5-0.5-0.7c-0.2-0.3-0.4-0.5-0.6-0.7
		c-0.4-0.5-0.7-0.9-1.1-1.4c-1.4-1.9-2.5-3.7-3.3-5.4c-0.5-0.8-0.7-1.7-1.1-2.4c-0.3-0.8-0.6-1.5-0.8-2.1c-0.8-2.6-1.3-4-1.3-4
		l0.1,0c0,0,0.5,1.4,1.5,4c0.2,0.6,0.5,1.3,0.9,2c0.3,0.7,0.6,1.5,1.1,2.3c0.5,0.8,0.9,1.7,1.5,2.5c0.3,0.4,0.6,0.9,0.9,1.3
		c0.3,0.4,0.6,0.9,1,1.3c0.4,0.4,0.7,0.9,1.1,1.4c0.2,0.2,0.4,0.5,0.6,0.7c0.2,0.3,0.4,0.5,0.6,0.8c0.8,1,1.4,2.2,2,3.4
		c0.6,1.2,1.2,2.4,1.7,3.7c0.3,0.6,0.5,1.3,0.8,1.9l0.4,0.9c0,0.1,0.2,0.3,0.2,0.5l0.1,0.1l0,0.1c0.1,0.1-0.1-0.1,0,0l0,0
		c0,0,0,0,0.1,0c0.5,0.2,1.3,0.1,1.9,0c0.3-0.1,0.7-0.1,0.9-0.3c0.2-0.1,0.5-0.4,0.7-0.6l0.7-0.8l0.7-0.9c0.5-0.6,0.9-1.2,1.4-1.8
		c0.9-1.2,1.9-2.4,2.8-3.6c1-1.2,2-2.3,3-3.5c1-1.2,2-2.3,3-3.5l0.8-0.9l0.2-0.2l0.3-0.2c0.2-0.1,0.4-0.3,0.6-0.3
		c0.8-0.3,1.6-0.4,2.3-0.5c1.5-0.1,3.1,0,4.5,0.1c1.6,0.2,2.9,0.9,4.2,1.6c0.6,0.3,1.3,0.7,1.9,1.1c0.6,0.4,1.2,0.8,1.8,1
		c1.2,0.4,2.5-0.2,3.5-1c1-0.8,1.9-1.7,2.9-2.5c1-0.7,1.8-1.6,2.6-2.4c0.8-0.8,1.6-1.6,2.4-2.3l0.3-0.2c0.1-0.1,0.2-0.1,0.4-0.2
		c0.2-0.1,0.5-0.2,0.7-0.3c0.5-0.2,0.9-0.3,1.4-0.4c0.9-0.3,1.8-0.5,2.5-0.8c0.8-0.3,1.3-0.8,1.9-1.2
		C940.7,586.7,941.9,585.8,942,585.9L942,585.9z"/>
</g>
<g>
	<path fill="#FFFFFF" d="M867.2,586.1c0,0,0.5,0.9,1.4,2.3c0.4,0.7,1,1.4,1.6,2.2c0.3,0.4,0.6,0.8,1,1.1c0.3,0.4,0.7,0.7,1.1,1
		c0.4,0.3,0.9,0.6,1.3,0.8c0.4,0.3,0.9,0.6,1.3,0.8c0.8,0.5,1.6,1,2.2,1.5c0.6,0.5,1.2,0.9,1.5,1.3c0.3,0.3,0.5,0.5,0.5,0.5
		l-0.1,0.1c0,0-0.3-0.1-0.7-0.3c-0.2-0.1-0.5-0.2-0.7-0.4c-0.3-0.1-0.6-0.3-1-0.5c-0.7-0.3-1.5-0.8-2.4-1.3
		c-0.4-0.3-0.8-0.6-1.2-0.9c-0.4-0.3-0.8-0.6-1.3-1c-0.4-0.4-0.8-0.7-1.1-1.2c-0.3-0.4-0.7-0.8-0.9-1.2c-0.6-0.8-1-1.6-1.4-2.3
		C867.5,587.2,867.1,586.2,867.2,586.1L867.2,586.1z"/>
</g>
<g>
	<path fill="#FFFFFF" d="M887.8,613c0,0-0.5,0.2-1.3,0.7c-0.4,0.2-1,0.5-1.6,0.8c-0.6,0.4-1.5,0.5-2.4,0.6c-0.9,0-1.9,0.2-3-0.2
		c-0.3-0.1-0.5-0.3-0.7-0.3c-0.2,0.1-0.4,0.3-0.5,0.6c-0.2,0.2-0.3,0.5-0.6,0.8c-0.4,0.1-0.7,0-1-0.1c-1.2-0.4-2.5-1-3.6-1.9
		c-0.6-0.5-1-1-1.6-1.5c-0.6-0.5-1.1-1-1.7-1.5c-2.3-2.1-4.3-5-5.4-8.5c-1-3.5-1.4-7.2-1.9-11.1c-0.4-3.9-0.9-7.9-0.8-12.1
		c0-0.5,0-1,0.2-1.6c0.1-0.3,0.1-0.6,0.4-0.9l0.5-0.6c0.6-0.8,1.3-1.6,1.9-2.4c0.6-0.8,1.2-1.7,1.8-2.5c0.6-0.9,1-1.7,1.3-2.7
		c0.7-1.9,1.2-3.9,1-5.9c-0.1-2.1,0-4.2,0.6-6.3c0.2-0.5,0.4-1,0.8-1.5c0.4-0.5,1-0.9,1.7-0.8l0.5,0l0.4,0.1l0.7,0.1
		c0.5,0.1,1,0.1,1.4,0.2c0.9,0,1.9-0.2,2.2-0.8c0.1-0.2,0.1-0.3,0.2-0.5l0.1-0.4l0.1-0.4c0.2-0.5,0.5-1,0.8-1.4
		c0.7-0.8,1.7-1.5,2.8-1.6c0.6,0,1.1,0,1.6,0.2c0.4,0.2,0.9,0.3,1.3,0.5c1.7,0.6,3.5,1.2,5.2,1.4c0.4,0,0.8,0.1,1.2,0
		c0.4-0.1,0.6-0.2,1-0.4c0.7-0.4,1.4-0.9,2-1.4c0.6-0.5,1.2-1.1,1.2-1.7c0-0.3-0.1-0.5-0.3-0.9c-0.2-0.3-0.4-0.7-0.6-1
		c-0.8-1.4-1.4-2.8-1.7-4.2c-0.3-1.4-0.1-3,0.6-4.1c1.6-2.1,3.1-3.6,4.4-5c0.6-0.7,1.2-1.3,1.5-1.8c0.3-0.6,0.6-1.1,0.9-1.6
		c0.2-0.4,0.5-0.7,0.6-1c0.1-0.2,0.2-0.3,0.2-0.3l0.1,0.1c0,0-0.1,0.1-0.2,0.3c-0.1,0.2-0.3,0.5-0.5,1c-0.2,0.4-0.5,1-0.8,1.6
		c-0.3,0.6-0.9,1.3-1.5,2c-0.6,0.7-1.3,1.4-2,2.3c-0.4,0.4-0.7,0.8-1.1,1.3c-0.4,0.5-0.8,0.9-1.1,1.4c-0.6,1-0.7,2.4-0.4,3.7
		c0.3,1.3,1,2.6,1.8,4c0.2,0.3,0.4,0.7,0.6,1c0.2,0.3,0.5,0.8,0.4,1.4c-0.1,1.1-0.8,1.7-1.5,2.3c-0.7,0.6-1.4,1.1-2.1,1.6
		c-0.3,0.2-0.9,0.5-1.4,0.6c-0.5,0.1-1,0.1-1.4,0c-1.9-0.2-3.6-0.8-5.4-1.5c-0.4-0.2-0.9-0.3-1.3-0.5c-0.4-0.2-0.8-0.2-1.2-0.2
		c-0.8,0-1.6,0.5-2.1,1.2c-0.3,0.3-0.5,0.7-0.6,1.1l-0.1,0.3l-0.1,0.3c-0.1,0.3-0.1,0.6-0.3,0.9c-0.3,0.6-0.9,0.9-1.5,1.1
		c-0.6,0.2-1.1,0.2-1.6,0.2c-0.5,0-1.1-0.1-1.6-0.2c-0.3,0-0.5-0.1-0.8-0.2l-0.4-0.1l-0.3,0c-0.4,0-0.7,0.2-0.9,0.5
		c-0.3,0.3-0.5,0.8-0.6,1.2c-0.6,1.8-0.7,3.9-0.6,6c0.1,2.1-0.4,4.3-1.2,6.2c-0.4,1-0.9,2-1.5,2.8c-0.6,0.9-1.3,1.7-1.9,2.5
		c-0.6,0.8-1.3,1.6-2,2.4l-0.5,0.6c-0.1,0.1-0.2,0.3-0.2,0.5c-0.1,0.5-0.1,1-0.2,1.5c-0.1,4.1,0.3,8.1,0.7,12
		c0.4,3.9,0.8,7.6,1.8,11c1,3.4,2.9,6.3,5.2,8.4c0.5,0.5,1.1,1.1,1.7,1.6c0.6,0.5,1,1.1,1.6,1.5c1.1,0.9,2.3,1.6,3.5,1.9
		c0.3,0.1,0.6,0.2,0.8,0.1c0.2-0.1,0.4-0.4,0.5-0.7c0.2-0.2,0.3-0.5,0.7-0.7c0.2-0.1,0.4,0,0.5,0.1c0.1,0.1,0.2,0.2,0.3,0.2
		c1,0.4,2,0.3,2.9,0.2c1.9,0,3-0.9,3.9-1.3C887.3,613.2,887.8,613,887.8,613L887.8,613z"/>
</g>
<g>
	<path fill="#FFFFFF" d="M893.5,531.4c0,0-0.5,1-1.2,2.5c-0.3,0.8-0.7,1.7-1,2.6c-0.3,1-0.7,2.1-0.6,3c0.1,0.5,0.1,1.1,0.3,1.6
		c0.1,0.5,0.2,1,0.4,1.5c0.1,0.2,0.1,0.5,0.2,0.7c0.1,0.2,0.2,0.4,0.3,0.7c0.1,0.2,0.2,0.4,0.3,0.7c0.1,0.2,0.1,0.4,0.2,0.6
		c0.1,0.4,0.2,0.8,0.3,1.1c0.1,0.4,0.1,0.7,0.1,0.9c0,0.5,0,0.8,0,0.8l-0.1,0c0,0-0.1-0.3-0.3-0.7c-0.1-0.2-0.2-0.5-0.3-0.8
		c-0.1-0.1-0.1-0.3-0.2-0.5c-0.1-0.2-0.2-0.3-0.3-0.5c-0.2-0.4-0.4-0.8-0.6-1.2c-0.2-0.4-0.4-0.9-0.6-1.5c-0.2-0.5-0.2-1.1-0.3-1.7
		c-0.1-0.6-0.1-1.1-0.1-1.7c0-0.6,0.1-1.2,0.3-1.8c0.2-0.5,0.4-1.1,0.6-1.5c0.4-1,0.9-1.9,1.3-2.6
		C892.8,532.3,893.4,531.3,893.5,531.4L893.5,531.4z"/>
</g>
<g>
	<path fill="#FFFFFF" d="M907.3,561.5c0.2-1,0.3-2,0.1-3c-0.2-1-0.7-1.9-1.5-2.6c-0.8-0.7-1.5-1.4-2.2-2.2c-0.7-0.8-1.3-1.6-1.7-2.7
		c0-0.1-0.1-0.3-0.1-0.4c0-0.1,0-0.2,0-0.2l0-0.2c0-0.2,0-0.4,0-0.7c-0.1-0.5-0.2-1-0.3-1.5l-0.7-3c0-0.1,0-0.1,0-0.2l0-0.1
		c0-0.1,0-0.1,0-0.1c0,0,0-0.1,0-0.1c0.1-0.2,0.2-0.3,0.2-0.4c0.2-0.2,0.3-0.4,0.5-0.6c0.3-0.4,0.7-0.8,1.1-1.1
		c0.7-0.8,1.4-1.4,1.9-2.3c0.5-0.8,0.9-1.8,1.3-2.7c0.3-1,0.6-1.9,0.7-2.9c0-0.5,0-0.9,0-1.5c0-0.3,0.2-0.6,0.4-0.9
		c0.2-0.2,0.5-0.4,0.7-0.5c0.5-0.2,1.1-0.3,1.5-0.4c0.2-0.1,0.5-0.1,0.5-0.2c0.2-0.2,0.2-0.4,0.2-0.6c0.2-0.9,0.4-2,0.5-3l0.2-1.5
		l0-0.4c0-0.2,0.1-0.3,0.1-0.4c0.1-0.3,0.2-0.6,0.3-0.8c0.5-1,1.1-1.8,1.7-2.6c0.6-0.8,1.3-1.7,1.9-2.5l0,0c0.7-1,1.4-1.9,2.4-2.7
		c0.3-0.2,0.6-0.4,0.9-0.5l0.3,0c0,0,0.1,0,0.2,0c0.1,0,0.1-0.1,0.2-0.1c0.4-0.2,0.8-0.6,1.2-1c0.4-0.4,0.7-0.8,1.1-1.3
		c0.2-0.2,0.3-0.5,0.5-0.7c0.1-0.1,0.1-0.2,0.2-0.3l0,0l0-0.1l0,0l0,0l0.1-0.2c0.1-0.1,0.3-0.3,0.4-0.4c0.1-0.1,0.2-0.2,0.3-0.3
		c0.2-0.2,0.5-0.4,0.7-0.6c0.5-0.4,0.9-0.7,1.4-1.1l-0.1,0.8c-0.2-0.2-0.4-0.3-0.6-0.5c-0.2-0.1-0.4-0.2-0.6-0.3
		c-0.1,0-0.2-0.1-0.3-0.1c-0.1,0-0.2,0-0.3,0c-0.2,0-0.2,0.1-0.3,0.1c-0.1,0-0.2,0.1-0.3,0.2c-0.5,0.3-0.9,0.6-1.5,0.9
		c-0.3,0.1-0.6,0.3-1.1,0.2c-0.2,0-0.5-0.2-0.6-0.3c-0.1-0.1-0.3-0.2-0.4-0.4c-0.4-0.4-0.7-0.9-1.1-1.3c-0.2-0.2-0.4-0.4-0.5-0.6
		c-0.2-0.2-0.4-0.3-0.5-0.3c0-0.1-0.3,0.1-0.6,0.2c-0.3,0.1-0.6,0.1-0.9,0.2c-0.6,0.1-1.2,0.1-1.7,0.1l-0.3,0l0-0.3
		c-0.1-0.4-0.1-0.9-0.2-1.3c-0.1-0.4-0.2-0.9-0.3-1.3c-0.1-0.5-0.3-0.9-0.4-1.3c-0.1-0.4-0.3-0.9-0.5-1.3c-0.3-0.9-0.7-1.7-1-2.6
		c-0.2-0.4-0.4-0.8-0.6-1.2c-0.1-0.2-0.3-0.4-0.4-0.5c-0.2-0.1-0.4-0.3-0.6-0.2l0-0.1c0.3-0.1,0.5,0.1,0.7,0.2
		c0.2,0.2,0.3,0.3,0.5,0.5c0.3,0.4,0.5,0.8,0.7,1.2c0.4,0.8,0.8,1.7,1.2,2.5c0.2,0.4,0.4,0.8,0.6,1.3c0.2,0.4,0.4,0.9,0.5,1.3
		c0.1,0.5,0.3,0.9,0.4,1.4c0.1,0.5,0.2,0.9,0.3,1.4l-0.3-0.3c0.5,0,1.1-0.1,1.6-0.2c0.3,0,0.5-0.1,0.7-0.2c0.1,0,0.2-0.1,0.4-0.2
		c0,0,0.1,0,0.1,0c0.1,0,0.1-0.1,0.2-0.1c0.1-0.1,0.3,0,0.4,0c0.5,0.1,0.7,0.3,0.9,0.5c0.2,0.2,0.4,0.4,0.6,0.6
		c0.4,0.4,0.7,0.9,1.1,1.3c0.1,0.1,0.2,0.2,0.2,0.2c0.2,0.1,0.1,0.1,0.2,0.1c0.1,0,0.3,0,0.5-0.2c0.4-0.2,0.9-0.6,1.4-0.9
		c0.1-0.1,0.3-0.2,0.4-0.2c0.1-0.1,0.4-0.2,0.5-0.2c0.2-0.1,0.4,0,0.6,0c0.2,0,0.4,0.1,0.5,0.1c0.3,0.1,0.6,0.3,0.9,0.4
		c0.3,0.2,0.5,0.4,0.7,0.6l0.4,0.4l-0.5,0.4c-0.5,0.3-0.9,0.7-1.4,1.1c-0.2,0.2-0.4,0.4-0.6,0.6l-0.3,0.3c-0.1,0.1-0.1,0.1-0.2,0.2
		l-0.1,0.2l0,0l0,0l0,0c0.1-0.2,0,0,0-0.1l0,0l0,0l-0.1,0.2c-0.1,0.2-0.2,0.3-0.2,0.4c-0.2,0.3-0.3,0.5-0.5,0.7
		c-0.4,0.5-0.7,0.9-1.2,1.4c-0.4,0.4-0.9,0.9-1.5,1.2c-0.1,0.1-0.4,0.2-0.6,0.2l-0.3,0c0,0-0.1,0-0.1,0c-0.2,0-0.4,0.2-0.6,0.3
		c-0.8,0.6-1.6,1.5-2.2,2.4l0,0l0,0c-0.7,0.8-1.3,1.6-1.9,2.4c-0.6,0.8-1.2,1.6-1.7,2.5c-0.1,0.2-0.2,0.4-0.3,0.6
		c0,0.1-0.1,0.3-0.1,0.3l0,0.4l-0.2,1.5c-0.2,1-0.3,2-0.6,3.1c-0.1,0.3-0.2,0.6-0.3,0.8l0,0.1c0,0,0,0-0.1,0.1l0,0l0,0l-0.1,0
		c-0.1,0.1-0.2,0.1-0.2,0.1c-0.1,0.1-0.3,0.1-0.4,0.1c-0.5,0.1-1,0.2-1.4,0.4c-0.4,0.2-0.7,0.5-0.7,0.9c0,0.4,0,1,0,1.5
		c-0.1,1.1-0.4,2.1-0.8,3.1c-0.4,1-0.8,1.9-1.4,2.8c-0.5,0.9-1.3,1.7-2,2.4c-0.4,0.4-0.7,0.7-1.1,1.1c-0.2,0.2-0.3,0.4-0.5,0.6
		c-0.2,0.2-0.2,0.3-0.2,0.5l0.7,3c0.1,0.5,0.2,1,0.3,1.5c0,0.2,0.1,0.5,0,0.8l0,0.2c0,0,0,0.1,0,0.1c0,0.1,0,0.2,0.1,0.3
		c0.3,0.9,0.9,1.8,1.6,2.6c0.6,0.8,1.4,1.5,2.1,2.2c0.8,0.7,1.3,1.7,1.5,2.7C907.7,559.4,907.6,560.5,907.3,561.5L907.3,561.5z"/>
</g>
<g>
	<path fill="#FFFFFF" d="M988,451.6c1-0.1,1.9-0.2,2.9-0.3c1-0.1,1.9-0.2,2.9-0.2c0.5,0,1,0,1.5,0.1c0.5,0.1,0.9,0.1,1.4,0.2
		c1,0.1,1.9,0.1,2.8,0c0.5-0.1,0.9-0.2,1.3-0.4c0.3-0.2,0.6-0.6,0.9-1c0.4-0.4,0.8-0.7,1.2-1c0.4-0.3,0.8-0.5,1.3-0.8l0.7-0.3
		l0.7-0.2c0.5-0.1,1-0.1,1.5-0.1l2.9-0.2l1.3-0.1l-1.1,0.8c-0.9,0.6-1.8,1.3-2.6,2c-0.4,0.4-0.8,0.7-1.2,1.1
		c-0.1,0.1-0.2,0.2-0.2,0.3l-0.1,0.1l0,0l0,0l0,0c0.1-0.1,0,0,0-0.1l0,0l0,0.1c0,0.1,0,0.1,0,0.1c0,0,0,0,0,0c0,0.1,0.1,0.1,0.1,0.2
		c0.3,0.3,0.8,0.5,1.2,0.7c0.2,0.1,0.5,0.1,0.7,0.2c0.1,0,0.2,0,0.4,0.1c0.1,0,0.1,0,0.2,0l0.1,0c0.1,0,0.1,0,0.2,0
		c0.2,0,0.7,0.1,0.9,0.2c0.3,0.1,0.5,0.2,0.8,0.3c0.5,0.2,1,0.5,1.5,0.8c0.5,0.3,1,0.6,1.4,1c0.5,0.3,0.9,0.7,1.3,1.1
		c0.4,0.4,0.8,0.8,1.1,1.3l0.5,0.7c0.1,0.3,0.3,0.5,0.4,0.8c0.2,0.6,0.3,1.1,0.3,1.7c0,0.6-0.1,1.2-0.3,1.7l-0.4,1.6l0,0
		c0.2,0-0.3,0.1-0.3,0c0,0,0,0,0,0l0,0l0-0.1l0-0.1l0.1-0.2l0.1-0.4l0.2-0.8l0.1,0l-0.1,0.8l-0.1,0.4l0,0.2l0,0.1l0,0c0,0,0,0,0,0v0
		c0-0.2-0.5,0-0.3,0l0,0l0.3-1.6c0.1-0.6,0.2-1.1,0.1-1.6c0-0.5-0.2-1-0.4-1.5c-0.1-0.2-0.2-0.5-0.4-0.7l-0.5-0.6
		c-0.3-0.4-0.7-0.8-1.1-1.2c-0.4-0.4-0.8-0.7-1.2-1c-0.4-0.3-0.9-0.6-1.3-0.9c-0.5-0.3-0.9-0.5-1.4-0.8c-0.2-0.1-0.5-0.2-0.7-0.3
		c-0.3-0.1-0.4-0.2-0.7-0.2c0,0-0.1,0,0,0l-0.1,0c-0.1,0-0.2,0-0.2,0c-0.2,0-0.3,0-0.5-0.1c-0.3-0.1-0.6-0.1-0.9-0.2
		c-0.6-0.2-1.1-0.5-1.6-1c-0.1-0.1-0.2-0.3-0.3-0.5c0-0.1-0.1-0.2-0.1-0.4c0-0.2,0-0.3,0.1-0.3l0-0.1l0-0.1l0,0l0,0l0-0.1l0.2-0.2
		c0.1-0.1,0.2-0.3,0.3-0.4c0.4-0.4,0.9-0.8,1.3-1.1c0.9-0.7,1.8-1.3,2.7-2l0.2,0.7l-2.9,0.1c-0.5,0-1,0-1.4,0.1l-0.7,0.2l-0.6,0.3
		c-0.4,0.2-0.8,0.4-1.2,0.7c-0.4,0.3-0.8,0.5-1.1,0.8c-0.4,0.3-0.6,0.7-1.1,1c-0.5,0.3-1,0.3-1.5,0.4c-1,0.1-2,0-2.9-0.1
		c-0.5-0.1-1-0.1-1.4-0.2c-0.5-0.1-0.9-0.1-1.4-0.1c-1,0-1.9,0-2.9,0.1C989.9,451.5,988.9,451.6,988,451.6L988,451.6z"/>
</g>
<g>
	<path fill="#FFFFFF" d="M1087.1,471c0,0,0.2,0,0.6-0.1c0.4-0.1,0.9-0.3,1.5-0.7c0.3-0.2,0.5-0.5,0.7-0.9c0.1-0.4,0.1-0.9-0.1-1.3
		c-0.3-1-0.7-2-1.1-3.2c-0.4-1.2-0.9-2.4-1.3-3.8c-0.2-0.7-0.4-1.4-0.5-2.2c0-0.2,0-0.4,0.1-0.6c0.1-0.1,0.1-0.2,0.2-0.4l0.2-0.2
		c0.1-0.1,0.3-0.3,0.4-0.4c0.2-0.1,0.3-0.3,0.5-0.4c1.4-0.9,3-1.3,4.6-1.6c0.8-0.2,1.6-0.3,2.5-0.4c0.9,0,1.7-0.1,2.6,0.2
		c0.2,0.1,0.4,0.2,0.7,0.3l0.5,0.4c0.3,0.2,0.7,0.6,1,0.8c0.6,0.6,1.2,1.2,1.7,1.8c0.5,0.6,1.1,1.3,1.6,1.9c0.2,0.3,0.5,0.7,0.7,0.9
		c0.3,0.3,0.5,0.6,0.8,0.9c0.3,0.2,0.5,0.5,0.8,0.7c0.3,0.2,0.6,0.4,0.9,0.7c0.3,0.2,0.6,0.4,0.9,0.5c0.2,0.1,0.2,0.1,0.3,0.2
		l0.3,0.2c0.2,0.2,0.3,0.3,0.4,0.4c0.9,1.2,1.6,2.4,2,3.6c0.2,0.6,0.4,1.2,0.4,1.8c0.1,0.6,0,1.3-0.2,1.7c-0.3,1-0.8,1.8-1,2.4
		c-0.3,0.7-0.3,1.2-0.2,1.6c0.2,0.3,0.2,0.5,0.2,0.5l-0.1,0.1c0,0-0.1-0.2-0.3-0.5c-0.2-0.4-0.2-1,0-1.7c0.2-0.7,0.5-1.5,0.8-2.5
		c0.3-0.9,0.1-2-0.4-3.1c-0.5-1.1-1.1-2.3-2-3.3c-0.1-0.1-0.2-0.2-0.3-0.3l-0.1-0.1c-0.1,0-0.2-0.1-0.2-0.1c-0.3-0.2-0.7-0.4-1-0.6
		c-0.3-0.2-0.6-0.5-1-0.7c-0.3-0.3-0.6-0.6-0.9-0.9c-0.3-0.3-0.5-0.6-0.7-0.9c-0.3-0.4-0.5-0.7-0.7-1c-0.5-0.6-0.9-1.3-1.5-1.9
		c-1-1.2-2.1-2.6-3.5-3.2c-0.7-0.2-1.5-0.3-2.3-0.2c-0.8,0-1.6,0.1-2.4,0.3c-1.6,0.3-3.2,0.7-4.4,1.5c-0.2,0.1-0.3,0.2-0.4,0.3
		c-0.1,0.1-0.3,0.2-0.4,0.4l-0.2,0.2c0,0,0,0.1-0.1,0.2c0,0.1-0.1,0.3,0,0.5c0,0.7,0.2,1.4,0.4,2.1c0.4,1.4,0.8,2.7,1.2,3.8
		c0.4,1.2,0.8,2.3,1,3.3c0.1,0.5,0.2,1,0,1.5c-0.2,0.4-0.5,0.8-0.7,1c-0.6,0.5-1.2,0.6-1.6,0.7C1087.4,471,1087.1,471,1087.1,471
		L1087.1,471z"/>
</g>
<g>
	<path fill="#FFFFFF" d="M1097.2,469.3c1.9,0.8,3.8,1.8,5.7,2.8c0.9,0.5,1.9,1.1,2.5,2c0.3,0.4,0.5,1,0.6,1.5c0.1,0.5,0.2,1,0.5,1.5
		c0.5,0.9,1.4,1.5,2.3,2.1c0.4,0.3,0.9,0.5,1.4,0.8c0.4,0.3,0.8,0.8,1.1,1.2c1.1,1.9,1.3,4.1,0.8,6.2c-1,4.1-3,7.9-5,11.6
		c-1,1.9-1.7,3.8-3,5.6c-0.6,0.9-1.5,1.5-2.2,2.3c-0.7,0.8-1.4,1.6-1.8,2.5c-0.5,0.9-0.8,2-0.4,2.9c0.4,1,1,1.8,1.5,2.7
		c0.5,0.9,1.1,1.8,1.5,2.8c0.4,1,0.5,2.1,0.6,3.2c0.1,2.1-0.1,4.3-0.7,6.3c-0.6,2-0.8,4.1-0.8,6.2c0,1,0,2.1,0.1,3.1
		c0.2,1,0.3,2.1,0.4,3.1c0.1,2.1,0.1,4.2,0.1,6.4c-0.1,2.1-0.2,4.2-0.5,6.3c-0.1,1-0.4,2.2-0.7,3.1c-0.2,0.9-0.1,2-0.1,3.1
		c0,1.1-0.3,2.2-0.7,3.2c-0.3,1-0.7,2-1.1,3c-0.4,1-0.8,2-1.3,2.9c-0.5,1-1,1.9-1.7,2.8c-0.2,0.2-0.4,0.5-0.6,0.6l-0.6,0.5
		c-0.4,0.3-0.9,0.6-1.3,0.9l-2.7,1.7l-2.7,1.6c-0.5,0.3-1,0.5-1.4,0.7c-0.5,0.2-1,0.5-1.5,0.6c-1,0.3-2.1,0.5-3.1,0.8
		c-1,0.3-2,0.6-2.8,1.2l-0.2,0.1c0,0-0.1,0.1-0.1,0.1l-0.3,0.3c-0.2,0.2-0.4,0.4-0.5,0.6c-0.3,0.4-0.7,0.8-1,1.2
		c-0.7,0.8-1.3,1.7-1.9,2.5l-1.9,2.5c-0.3,0.4-0.7,0.8-1,1.3c-0.3,0.4-0.6,0.8-0.9,1.3c-1.2,1.7-2.6,3.4-3.5,5.2
		c-0.5,0.9-1.1,1.8-1.6,2.7c-0.6,0.9-1.2,1.8-1.9,2.6c-0.7,0.8-1.5,1.6-2.5,2.1l-0.4,0.2l-0.4,0.1c-0.3,0.1-0.6,0.2-0.8,0.2
		c-0.5,0.1-1,0.2-1.6,0.2c-1,0.1-2.1,0.3-3,0.6c-0.2,0.1-0.5,0.1-0.7,0.3c-0.2,0.1-0.4,0.2-0.6,0.4l-0.3,0.2l-0.3,0.3
		c-0.2,0.2-0.4,0.3-0.7,0.5c-1,0.6-2,1-3.2,1.1c-0.3,0-0.6,0-0.9-0.1c-0.2,0-0.3-0.1-0.5-0.1c-0.1-0.1-0.2-0.1-0.4-0.2l-1.4-0.8
		c-0.9-0.5-1.8-0.9-2.5-0.4c-1,0.5-2,0.7-2.9,1.2c-0.4,0.2-0.8,0.5-1,0.9c-0.1,0.2-0.1,0.3-0.2,0.5c0,0.3,0,0.5,0,0.7
		c0,0.5,0.1,1,0.2,1.5c0,0.3,0.1,0.5,0.1,0.9l0,0.2c0,0.1-0.1,0.2-0.2,0.3c-0.1,0.1-0.2,0.2-0.4,0.2c-0.1,0-0.2,0-0.3,0
		c0,0-0.3,0-0.3,0c-0.1,0-0.5,0.1-0.7,0.1c-0.3,0-0.6,0-0.9,0c-0.6,0-1.2-0.3-1.7-0.5c-0.3-0.1-0.5-0.3-0.7-0.5l-0.3-0.3l-0.3-0.2
		c-0.2-0.2-0.4-0.4-0.6-0.5c-0.2-0.1-0.4-0.3-0.6-0.4c-0.4-0.2-0.8-0.3-1.1-0.2c-0.1,0-0.2,0-0.2,0.1c-0.1,0-0.2,0.1-0.3,0.2
		l-0.1,0.1l0,0c0,0,0,0,0,0l-0.1,0.1l-0.3,0.3c-0.4,0.4-0.6,0.8-0.9,1.2c-0.3,0.4-0.6,0.9-0.8,1.3l0,0l0,0l-1,1.2l-0.6,0.7l-0.3-0.9
		c-0.2-0.7-0.8-1.4-1.3-2c-0.6-0.6-1.3-1-2.1-1.5c-0.8-0.5-1.6-1-2.2-1.8c-0.6-0.8-0.9-1.8-1.1-2.7c-0.3-1.8-0.3-3.7,0.1-5.6
		c0.4-2,2.3-3.2,3.8-4.2c0.8-0.4,1.6-0.9,2.5-1.2l0.7-0.2l0.7-0.1c0.4-0.1,0.9-0.2,1.3-0.3c0.7-0.2,1.4-0.8,2-1.4
		c0.6-0.6,1.2-1.3,1.8-2c1.2-1.4,2.5-2.7,3.5-4.1c0.5-0.7,0.7-1.5,0.5-2.3c-0.1-0.9-0.2-1.8-0.2-2.7c0-1.8,0.2-3.7,0.7-5.5
		c0.2-0.9,0.8-1.8,1.4-2.4c0.2-0.2,0.4-0.3,0.6-0.4c0.2-0.1,0.5-0.2,0.7-0.2c0.5-0.1,1.1,0,1.5,0.3c0.5,0.3,0.7,0.7,0.9,1.2
		c0.1,0.5,0.2,0.9,0.3,1.3c0.2,0.9,0.3,1.8,0.4,2.7c0.2,1.8,0.4,3.6,0.5,5.4c0.2,1.8,0.1,3.6-0.2,5.4c-0.2,1.8-0.5,3.6-0.6,5.4
		c-0.1,0.9,0.1,1.8,0.4,2.6c0.3,0.8,0.6,1.7,1.1,2.4c0.2,0.2,0.3,0.3,0.5,0.3c0.2,0.1,0.2,0.2,0.3,0.4c0,0.1,0.1,0.2,0.1,0.3
		c0.1,0.5,0.1,0.9,0.1,1.4c0,0.9,0.1,1.8,0.1,2.7h-0.1c0-0.9,0-1.8-0.1-2.7c0-0.4-0.1-0.9-0.1-1.3c0-0.1,0-0.2-0.1-0.3
		c0-0.1-0.1-0.2-0.1-0.2l0,0c0,0,0,0,0,0c0,0-0.1,0-0.1,0c-0.1,0-0.1,0-0.2-0.1c-0.1-0.1-0.2-0.2-0.3-0.2c-0.6-0.7-0.9-1.6-1.2-2.5
		c-0.3-0.8-0.5-1.8-0.4-2.7c0.1-1.8,0.3-3.6,0.5-5.4c0.2-1.8,0.2-3.6,0.1-5.4c-0.2-1.8-0.4-3.6-0.6-5.4c-0.1-0.9-0.2-1.8-0.4-2.6
		c-0.1-0.4-0.2-0.9-0.3-1.3c-0.2-0.3-0.4-0.7-0.7-0.9c-0.6-0.4-1.5-0.2-2.1,0.3c-0.2,0.1-0.3,0.3-0.4,0.5l-0.2,0.2l-0.1,0.3
		l-0.3,0.6c-0.1,0.2-0.1,0.4-0.2,0.6c-0.5,1.7-0.6,3.5-0.6,5.3c0,0.9,0,1.7,0.2,2.7l0.1,0.7c0,0.3-0.1,0.5-0.1,0.8l-0.2,0.7
		l-0.3,0.6c-1.1,1.6-2.3,2.8-3.5,4.2c-0.6,0.7-1.1,1.4-1.8,2.1c-0.6,0.7-1.4,1.4-2.4,1.7c-0.5,0.2-0.9,0.2-1.4,0.3l-0.6,0.1
		l-0.6,0.2c-0.8,0.3-1.6,0.7-2.4,1.1c-0.7,0.5-1.5,1-2.1,1.5c-0.7,0.6-1,1.3-1.2,2.1c-0.4,1.7-0.4,3.4-0.1,5.2
		c0.2,0.8,0.4,1.7,0.9,2.3c0.5,0.6,1.2,1.1,1.9,1.6c0.4,0.2,0.8,0.5,1.2,0.7c0.4,0.3,0.8,0.6,1.1,0.9c0.7,0.7,1.3,1.5,1.6,2.5
		l-0.9-0.2l1-1.2l0,0.1c0.3-0.5,0.6-0.9,0.9-1.3c0.3-0.4,0.6-0.9,1-1.3l0.3-0.3l0.1-0.1l0.1-0.1l0,0l0.2-0.2
		c0.1-0.1,0.2-0.2,0.4-0.3c0.1-0.1,0.3-0.2,0.5-0.2c0.7-0.2,1.4,0,1.9,0.3c0.3,0.1,0.5,0.3,0.7,0.5c0.2,0.2,0.4,0.3,0.6,0.5l0.2,0.1
		l0.1,0.1l0.1,0.1l0.3,0.2c0.2,0.1,0.4,0.3,0.6,0.4c0.4,0.2,0.8,0.4,1.3,0.4c0.2,0,0.5,0,0.7,0l0.8-0.1c0.2,0,0.2,0,0.5,0
		c0,0-0.1,0-0.1,0c-0.1,0-0.2,0.1-0.2,0.1c0,0-0.1,0.1-0.1,0.1c0,0,0,0,0,0c0-0.1,0-0.4-0.1-0.6c-0.1-0.5-0.2-1-0.2-1.6
		c0-0.3,0-0.6,0-0.9c0-0.3,0.1-0.7,0.3-1c0.4-0.6,0.9-0.9,1.4-1.2c1-0.6,2-0.9,2.9-1.3c0.2-0.1,0.6-0.3,0.9-0.3c0.3,0,0.7,0,0.9,0.1
		c0.6,0.1,1.1,0.4,1.6,0.7l1.4,0.8c0.1,0.1,0.2,0.1,0.3,0.2c0.1,0,0.2,0.1,0.3,0.1c0.2,0,0.4,0.1,0.7,0.1c0.9,0,1.9-0.4,2.7-0.9
		c0.2-0.1,0.4-0.3,0.6-0.5c0.1-0.1,0.2-0.2,0.3-0.2l0.4-0.3c0.2-0.2,0.5-0.3,0.8-0.5c0.3-0.1,0.5-0.2,0.8-0.3
		c1.1-0.3,2.1-0.4,3.2-0.6c0.5-0.1,1-0.1,1.5-0.2c0.3,0,0.4-0.1,0.7-0.2l0.3-0.1l0.3-0.2c0.9-0.5,1.6-1.2,2.3-1.9
		c0.7-0.7,1.3-1.6,1.9-2.4c0.5-0.9,1.1-1.8,1.6-2.7c1-1.9,2.4-3.5,3.6-5.2c0.3-0.4,0.6-0.8,1-1.3c0.3-0.4,0.7-0.8,1-1.2l1.9-2.5
		c0.6-0.8,1.3-1.7,1.9-2.5c0.3-0.4,0.7-0.8,1.1-1.2c0.2-0.2,0.4-0.4,0.6-0.6l0.3-0.3c0.1-0.1,0.1-0.1,0.2-0.1l0.2-0.1
		c0.9-0.7,2-1,3-1.3c1-0.3,2.1-0.5,3-0.8c0.5-0.1,0.9-0.4,1.4-0.6c0.5-0.2,0.9-0.4,1.4-0.7l2.7-1.6l2.6-1.7c0.4-0.3,0.9-0.6,1.3-0.9
		c0.4-0.3,0.9-0.6,1.2-0.9c0.6-0.8,1.1-1.7,1.6-2.6c0.5-0.9,0.9-1.9,1.3-2.9c0.4-1,0.8-1.9,1.1-2.9c0.3-1,0.6-2,0.6-3
		c0-1-0.1-2.1,0.2-3.2c0.3-1,0.6-2,0.7-3c0.3-2.1,0.4-4.2,0.5-6.3c0.1-2.1,0.1-4.2,0-6.3c-0.1-1.1-0.2-2.1-0.4-3.1
		c-0.1-1.1-0.2-2.1-0.1-3.2c0-2.1,0.2-4.3,0.9-6.3c0.6-2,0.8-4.1,0.7-6.2c-0.1-1-0.2-2.1-0.5-3c-0.4-1-0.9-1.9-1.4-2.8
		c-0.5-0.9-1.1-1.8-1.5-2.8c-0.3-0.5-0.3-1.1-0.2-1.7c0.1-0.5,0.3-1.1,0.6-1.5c0.5-1,1.2-1.8,1.9-2.6c0.7-0.8,1.6-1.4,2.2-2.2
		c1.3-1.7,2-3.6,3-5.5c2.1-3.7,4.1-7.4,5.1-11.5c0.5-2,0.3-4.2-0.7-6c-0.3-0.4-0.5-0.9-1-1.2c-0.4-0.3-0.9-0.5-1.4-0.8
		c-0.9-0.6-1.8-1.2-2.3-2.2c-0.3-0.5-0.4-1-0.5-1.5c-0.1-0.5-0.3-1-0.6-1.4c-0.6-0.9-1.5-1.4-2.4-2
		C1100.9,471.2,1099.1,470.2,1097.2,469.3L1097.2,469.3z"/>
</g>
<g>
	<path fill="#FFFFFF" d="M940.6,521.3c0,0,0.3,0,0.8-0.1c0.5,0,1.2-0.1,2.2,0c0.5,0,1,0.1,1.6,0.4c0.6,0.2,1,0.8,1.5,1.3
		c0.5,0.5,1,1.1,1.8,1.3c0.4,0.1,0.8,0,1.1-0.2c0.3-0.2,0.6-0.6,1-0.8c1.4-1.1,3.1-2.2,5.1-3.2c1-0.5,2-1,3.1-1.4
		c0.5-0.2,1.2-0.4,1.8-0.4c0.6,0,1.2-0.2,1.8-0.4c2.4-0.8,4.8-1.9,7.4-3c2.6-1.1,5.3-2.3,8.4-3c0.8-0.1,1.5-0.3,2.4-0.3
		c0.2,0,0.4,0,0.6,0l0.6,0.1c0.4,0,0.8,0.1,1.2,0.2c1.6,0.4,3.1,0.9,4.7,1.5c3.1,1.2,6.4,2.3,9.7,3.5c1.7,0.6,3.4,1.2,5.1,1.7
		c0.9,0.2,1.8,0.5,2.6,0.7c0.9,0.2,1.8,0.4,2.7,0.6c0.9,0.2,1.8,0.5,2.7,0.8c0.9,0.4,1.8,0.8,2.5,1.4c1.6,1.1,3,2.3,4.6,3.5
		c3,2.4,6.1,4.9,9,7.6c1.5,1.3,2.9,2.7,4.3,4.2c0.7,0.8,1.4,1.5,2,2.3c0.6,0.8,1.2,1.6,1.8,2.4c2.4,3.3,4.6,6.8,6.9,10.2
		c1.1,1.7,2.3,3.4,3.5,5.1c1.2,1.7,2.5,3.3,3.9,4.7c1.5,1.4,3.1,2.7,4.7,4c1.6,1.3,3.2,2.5,4.9,3.8c1.6,1.3,3.2,2.5,4.8,3.8
		c0.8,0.7,1.6,1.3,2.3,2c0.8,0.7,1.4,1.4,2.2,2.2c5.8,5.6,11.7,11,17.6,16c1.5,1.2,3,2.4,4.5,3.4c1.6,1,3.2,2,4.8,3
		c1.6,1,3.2,1.9,4.7,2.8c1.6,0.9,3.1,1.8,4.6,2.7c3.1,1.7,6.1,3.4,9,5c2.9,1.6,5.8,3.1,8.5,4.5c5.6,2.6,10.9,4.6,15.8,5.8
		c1.2,0.3,2.4,0.5,3.5,0.8c1.1,0.3,2.3,0.4,3.3,0.6c2.2,0.3,4.1,0.6,5.9,0.8c1.8,0.2,3.4,0.3,4.8,0.4c0.7,0,1.3,0.1,1.9,0.1
		c0.6,0,1.1,0,1.6,0c1.9,0,3,0,3,0l0,0.1c0,0-1,0-3,0.1c-0.5,0-1,0-1.6,0c-0.6,0-1.2,0-1.9-0.1c-1.4-0.1-3-0.1-4.8-0.3
		c-3.6-0.3-8-0.8-12.9-1.9c-4.9-1.2-10.3-3.1-15.9-5.7c-2.8-1.4-5.7-2.9-8.6-4.4c-2.9-1.6-6-3.2-9.1-4.9c-3.1-1.8-6.3-3.5-9.5-5.5
		c-1.6-1-3.2-2-4.8-3c-1.6-1.1-3.1-2.3-4.6-3.5c-6-5-11.9-10.3-17.7-16.1c-2.7-3-6-5.4-9.2-8c-1.6-1.3-3.2-2.6-4.8-3.8
		c-1.6-1.3-3.2-2.6-4.7-4.1c-1.5-1.5-2.7-3.2-3.9-4.9c-1.2-1.7-2.4-3.4-3.5-5.1c-2.3-3.4-4.5-6.9-6.8-10.2c-0.6-0.8-1.2-1.6-1.8-2.4
		c-0.6-0.8-1.3-1.5-1.9-2.3c-1.4-1.4-2.8-2.8-4.3-4.2c-2.9-2.7-5.9-5.2-9-7.6c-1.5-1.2-3-2.4-4.5-3.5c-0.8-0.6-1.6-1-2.4-1.3
		c-0.9-0.3-1.7-0.6-2.7-0.8c-0.9-0.2-1.8-0.4-2.7-0.6c-0.9-0.2-1.8-0.5-2.7-0.7c-1.8-0.5-3.5-1.1-5.1-1.7c-3.3-1.2-6.6-2.4-9.7-3.6
		c-1.6-0.6-3.1-1.1-4.6-1.5c-0.4-0.1-0.8-0.2-1.2-0.2l-0.6-0.1c-0.2,0-0.4,0-0.6,0c-0.8,0-1.5,0.1-2.3,0.2c-3,0.7-5.7,1.8-8.3,2.9
		c-2.6,1.1-5,2.2-7.5,2.9c-0.6,0.2-1.2,0.4-1.8,0.4c-0.6,0-1.2,0.1-1.7,0.3c-1.1,0.4-2.1,0.9-3.1,1.4c-1.9,1-3.6,2-5.1,3.1
		c-0.4,0.3-0.6,0.6-1,0.8c-0.4,0.2-0.8,0.3-1.2,0.2c-0.8-0.2-1.4-0.8-1.9-1.3c-0.5-0.5-0.9-1-1.4-1.3c-0.5-0.2-1.1-0.3-1.5-0.4
		c-1-0.1-1.7,0-2.2,0C940.9,521.3,940.7,521.4,940.6,521.3L940.6,521.3z"/>
</g>
<g>
	<path fill="#FFFFFF" d="M1056.4,653.1c1.1-1.3,2.4-2.4,3.9-3.3c1.6-0.7,2.5-2.2,3.2-3.7c0.7-1.5,1.1-3.2,1.4-4.8
		c0.4-1.6,1.1-3.2,1.7-4.8l3.8-9.4c0.6-1.6,1.4-3.1,2.1-4.6c0.7-1.5,1.5-3,1.9-4.6c0.1-0.4,0.1-0.8,0.2-1.2c0-0.4,0.2-0.9,0.3-1.3
		c0.3-0.8,0.6-1.6,1.1-2.3c0.5-0.7,1-1.4,1.8-1.8c0.8-0.4,1.3-0.9,1.6-1.7c0.4-0.7,0.6-1.5,1-2.3c0.2-0.4,0.5-0.8,0.8-1
		c0.3-0.3,0.7-0.5,1-0.8c1.4-0.9,2.9-1.7,4.2-2.7c0.3-0.3,0.6-0.5,0.9-0.8c0.3-0.3,0.5-0.6,0.8-1c0.5-0.7,1-1.4,1.6-2
		c0.6-0.6,1.3-1.2,2.3-1.3c0.8-0.1,1.6-0.3,2.3-0.7c0.7-0.3,1.4-0.8,1.9-1.4c0.5-0.6,0.8-1.4,1.2-2.2l1.1-2.3l1-2.3l0,0.1l0.3-10.7
		l0.6,0.2c-1.1,1.4-2.2,2.9-2.9,4.4c-0.7,1.7-1.5,3.3-2.5,4.9l-0.4,0.6l-0.5,0.5l-1,0.9c-0.3,0.3-0.7,0.6-1.2,0.8
		c-0.2,0.1-0.5,0.2-0.8,0.2c-0.3,0-0.6-0.3-0.8-0.4c-0.7-0.5-1.5-1-2.2-1.4c-0.4-0.2-0.8-0.4-1.2-0.4c-0.2,0-0.4,0-0.5,0
		c-0.1,0-0.4,0.2-0.6,0.3c-1.6,0.8-3.3,1.6-4.6,2.6l-0.5,0.4c-0.2,0.2-0.4,0.3-0.6,0.4c-0.4,0.2-0.9,0.4-1.2,0.6
		c-0.4,0.2-0.6,0.4-0.6,0.7l0,0.3l0,0.3c0,0.2-0.1,0.6-0.2,0.8c-0.4,0.9-1.1,1.6-1.8,2.2c-0.7,0.6-1.4,1.2-2.1,1.8
		c-0.7,0.6-1.4,1.2-1.9,1.8c-0.1,0.1-0.1,0.2-0.2,0.2l-0.1,0.2c-0.1,0.2-0.2,0.4-0.3,0.6l-0.5,1.2c-0.7,1.7-1.5,3.3-2.2,5l-0.6,1.2
		c-0.2,0.4-0.4,0.8-0.8,1.2c0.1-0.1,0,0,0,0l0,0l0,0.1c0,0.1,0,0.1,0,0.1c0,0,0,0,0,0.1l0,0.1c0,0.2,0,0.4,0,0.6
		c0,0.4,0.1,0.9,0.1,1.3l0.1,0.7c0,0.3,0,0.5,0,0.7c-0.1,0.5-0.2,1-0.3,1.5c-0.2,0.5-0.3,0.9-0.6,1.3c-0.1,0.2-0.2,0.4-0.4,0.6
		c-0.1,0.2-0.5,0.5-0.6,0.6c-0.6,0.5-1.3,1.3-1.5,1.8c0,0,0,0,0,0.1c0,0,0,0,0,0.1c0,0.1,0,0.2,0.1,0.4l0.1,0.7c0,0.5,0,0.9,0.1,1.4
		c0,0.9,0,1.8-0.1,2.8c0,0.5-0.1,0.9-0.2,1.4c-0.1,0.5-0.2,0.9-0.5,1.4c-0.3,0.4-0.6,0.7-0.8,1.1c-0.2,0.3-0.4,0.7-0.6,1.1
		c-0.2,0.4-0.3,0.8-0.4,1.2c0,0.2-0.1,0.4-0.1,0.6l0,0.3l0,0.3c-0.1,0.9-0.3,1.8-0.4,2.7c-0.2,0.9-0.4,1.8-0.6,2.7l-0.3,1.3
		c-0.1,0.4-0.2,0.9-0.3,1.3c-0.1,0.8-0.2,1.7-0.2,2.6c0,0.4,0,0.9,0,1.3c0,0.5,0,1-0.1,1.4c-0.1,0.9-0.3,1.9-0.6,2.8
		c-0.2,0.4-0.4,0.9-0.7,1.3c-0.2,0.3-0.5,0.8-0.7,1.1c-0.4,0.7-0.7,1.6-1.1,2.4c-0.2,0.4-0.3,0.8-0.4,1.3c-0.1,0.4-0.3,0.8-0.4,1.3
		c-0.2,0.8-0.4,1.7-0.3,2.4c0.2,0.8,0.7,1.5,1.2,2.2c0.5,0.7,1.1,1.3,1.8,1.9c0.3,0.3,0.6,0.6,1,0.9c0.2,0.1,0.3,0.3,0.5,0.4
		c0.2,0.1,0.3,0.2,0.4,0.2l0.1,0c0,0.4,0.1-0.9,0.1,1c-0.2,0-0.1,0-0.2,0l-0.2,0c-0.1,0-0.2,0-0.4-0.1c-0.2,0-0.5-0.1-0.7-0.2
		c-0.5-0.1-0.9-0.3-1.3-0.5c-1.7-0.8-3.1-2.1-4.3-3.6c-0.6-0.7-1.1-1.5-1.6-2.3l-1.5-2.3l-3-4.5c-1-1.5-2-3-3.1-4.5
		c-0.5-0.8-1-1.5-1.5-2.2l-1.7-2.1c-0.5-0.7-1.1-1.5-1.5-2.3c-0.1-0.2-0.2-0.4-0.3-0.7c-0.1-0.3-0.1-0.5-0.1-0.8
		c0.1-0.5,0.2-0.9,0.3-1.4c0.3-0.9,0.5-1.7,1.1-2.6c0.1-0.1,0.1-0.2,0.5-0.3c0.2,0,0.3,0.1,0.4,0.2c0,0.1,0.1,0.2,0.1,0.2l0.2,0.6
		c0.1,0.4,0.3,0.9,0.5,1.2l0.6,1.2l0.7,1.2c0.4,0.8,0.9,1.5,1.4,2.3c1,1.5,2.5,2.5,4.1,3.3c0.8,0.4,1.6,0.7,2.5,0.9
		c0.9,0.2,1.8,0.2,2.6-0.3c1.5-1,2.9-2.2,3.8-3.7l0.1,0.1c-1,1.6-2.3,2.8-3.8,3.8c-0.8,0.5-1.8,0.5-2.7,0.3
		c-0.9-0.2-1.8-0.5-2.6-0.9c-0.8-0.4-1.6-0.9-2.3-1.4c-0.7-0.5-1.4-1.2-2-1.9c-0.5-0.7-1.1-1.5-1.5-2.3l-0.7-1.2l-0.6-1.2
		c-0.2-0.4-0.4-0.8-0.5-1.3l-0.2-0.6c0-0.1-0.1-0.1,0.1,0c0.1,0,0,0-0.1,0.1c-0.5,0.6-0.8,1.5-1,2.4c-0.1,0.4-0.2,0.9-0.3,1.3
		c0,0.2,0,0.4,0,0.6c0.1,0.2,0.1,0.4,0.2,0.6c0.4,0.8,0.9,1.5,1.5,2.2l1.7,2.1c0.6,0.7,1.1,1.5,1.6,2.2c1,1.5,2.1,2.9,3.1,4.4l3,4.5
		l1.5,2.2c0.5,0.8,1,1.5,1.5,2.2c1.1,1.4,2.4,2.5,4,3.3c0.4,0.2,0.8,0.3,1.2,0.5c0.2,0.1,0.4,0.1,0.6,0.1c0.1,0,0.2,0,0.3,0l0.1,0
		c0,0,0.1,0,0,0c0,1.9,0.1,0.5,0,0.9h0c-0.4,0-0.7-0.2-0.9-0.3c-0.2-0.1-0.4-0.3-0.6-0.4c-0.4-0.3-0.7-0.6-1.1-0.9
		c-0.7-0.6-1.3-1.3-1.9-2c-0.6-0.7-1.1-1.5-1.4-2.5c-0.1-1.1,0-2,0.3-2.9c0.1-0.5,0.2-0.9,0.4-1.3c0.1-0.4,0.3-0.9,0.5-1.3
		c0.3-0.9,0.7-1.7,1.1-2.5c0.2-0.5,0.5-0.8,0.7-1.2c0.2-0.3,0.4-0.7,0.6-1.1c0.3-0.8,0.5-1.6,0.6-2.5c0.1-0.4,0.1-0.8,0.1-1.3
		c0-0.5,0-0.9,0-1.4c0-0.9,0.1-1.9,0.2-2.8c0.1-0.5,0.2-0.9,0.3-1.4l0.3-1.3c0.2-0.9,0.4-1.8,0.5-2.6c0.2-0.9,0.3-1.7,0.4-2.6
		c0-1.9,1.1-3.8,2.2-5.1c0.2-0.3,0.3-0.7,0.4-1.1c0.1-0.4,0.1-0.8,0.2-1.3c0.1-0.9,0.1-1.8,0.1-2.6c0-0.4,0-0.9-0.1-1.3l-0.1-0.6
		c0-0.1,0-0.2,0-0.3c0,0,0-0.1,0-0.3c0-0.1,0-0.2,0-0.3c0.2-0.6,0.5-1,0.8-1.3c0.3-0.4,0.6-0.7,1-1c0.1-0.1,0.2-0.2,0.2-0.2
		c0,0,0.1-0.1,0.2-0.2c0.1-0.2,0.2-0.3,0.3-0.5c0.2-0.4,0.4-0.8,0.5-1.2c0.1-0.4,0.2-0.8,0.3-1.2c0-0.2,0-0.5,0-0.6l-0.1-0.7
		c0-0.5-0.1-0.9-0.1-1.4c0-0.2,0-0.5,0-0.7l0-0.2c0-0.1,0-0.2,0.1-0.3c0-0.1,0.1-0.2,0.1-0.2l0-0.1l0,0c0,0,0,0,0.1-0.1
		c0.4-0.6,0.9-1.5,1.3-2.2c0.8-1.6,1.5-3.2,2.2-4.9l0.5-1.2c0.1-0.2,0.2-0.4,0.3-0.6l0.2-0.4c0.1-0.1,0.2-0.2,0.2-0.3
		c0.6-0.7,1.3-1.3,2-1.9c0.7-0.6,1.4-1.1,2-1.7c0.6-0.6,1.3-1.2,1.6-2c0.1-0.2,0.1-0.3,0.2-0.5l0-0.3l0-0.4c0-0.3,0.2-0.6,0.4-0.8
		c0.2-0.2,0.4-0.3,0.6-0.5c0.4-0.2,0.9-0.4,1.2-0.6c0.2-0.1,0.4-0.2,0.5-0.3l0.5-0.4c1.5-1.1,3.2-1.9,4.8-2.7
		c0.2-0.1,0.4-0.2,0.7-0.3c0.3-0.1,0.6-0.1,0.8,0c0.5,0.1,0.9,0.3,1.4,0.5c0.8,0.4,1.6,0.9,2.3,1.5c0.2,0.2,0.3,0.2,0.4,0.2
		c0.1,0,0.3,0,0.5-0.1c0.3-0.2,0.7-0.5,1-0.7l1-0.9l0.4-0.4l0.4-0.5c1-1.5,1.7-3.1,2.5-4.7c0.9-1.7,2-3.1,3-4.6l0.6-0.8l0,1
		l-0.4,10.7l0,0.1l0,0l-1,2.3l-1.1,2.3c-0.4,0.7-0.7,1.5-1.2,2.3c-0.6,0.7-1.3,1.2-2.1,1.6c-0.8,0.4-1.7,0.6-2.5,0.7
		c-0.8,0.1-1.4,0.6-2,1.2c-0.6,0.6-1,1.3-1.5,2c-0.2,0.3-0.5,0.7-0.8,1c-0.3,0.3-0.6,0.6-1,0.9c-1.4,1-2.9,1.8-4.3,2.7
		c-0.7,0.5-1.4,0.9-1.7,1.6c-0.4,0.7-0.6,1.5-1,2.3c-0.2,0.4-0.4,0.8-0.8,1.1c-0.3,0.4-0.7,0.5-1.1,0.8c-0.7,0.3-1.2,1-1.7,1.7
		c-0.5,0.7-0.8,1.4-1.1,2.2c-0.1,0.4-0.2,0.8-0.3,1.2c0,0.4-0.1,0.8-0.2,1.3c-0.5,1.7-1.3,3.2-2,4.7c-0.7,1.5-1.5,3-2.1,4.6
		l-3.9,9.3c-0.6,1.6-1.3,3.1-1.7,4.7c-0.3,1.6-0.7,3.3-1.4,4.9c-0.3,0.8-0.7,1.5-1.3,2.2c-0.3,0.3-0.5,0.7-0.9,0.9
		c-0.3,0.3-0.7,0.5-1.1,0.7C1058.9,650.8,1057.6,652,1056.4,653.1L1056.4,653.1z"/>
</g>
<g>
	<path fill="#FFFFFF" d="M1053.8,660.9c0,0-0.7-0.4-1.8-1.1c-0.5-0.4-1.2-0.9-1.9-1.6c-0.3-0.3-0.6-0.8-0.9-1.2
		c-0.1-0.2-0.3-0.5-0.4-0.7c-0.2-0.2-0.3-0.4-0.5-0.6c-0.4-0.4-0.9-0.7-1.5-0.8c-0.6-0.1-1.2-0.2-1.9-0.2c-1.3,0-2.8-0.2-4.2-0.5
		c-0.4-0.1-0.7-0.2-1.1-0.3c-0.4-0.1-0.7-0.2-1.1-0.4c-0.7-0.2-1.4-0.6-2.1-0.9c-1.4-0.7-2.8-1.4-4.1-2.3c-0.7-0.4-1.3-0.8-2-1.3
		c-0.6-0.4-1.3-0.9-1.9-1.4c-0.6-0.5-1.2-1-1.8-1.5c-0.6-0.5-1.1-1-1.7-1.5c-1.1-1-2.1-1.9-3.1-2.9c-1-0.9-1.9-1.8-2.7-2.6
		c-0.8-0.8-1.6-1.6-2.3-2.2c-0.7-0.7-1.3-1.3-1.7-1.7c-1-1-1.5-1.5-1.5-1.5l0.1-0.1c0,0,0.6,0.5,1.7,1.4c0.5,0.4,1.2,1,1.9,1.6
		c0.7,0.6,1.5,1.3,2.4,2.1c0.9,0.8,1.8,1.6,2.8,2.5c1,0.9,2,1.8,3.1,2.8c0.5,0.5,1.1,1,1.6,1.5l0.8,0.8l0.9,0.7
		c0.6,0.5,1.2,1,1.8,1.4c0.6,0.5,1.2,0.9,1.9,1.3c1.3,0.9,2.6,1.6,4,2.3c0.7,0.4,1.4,0.7,2,0.9c0.3,0.1,0.7,0.3,1,0.4
		c0.4,0.1,0.7,0.2,1.1,0.3c1.4,0.4,2.8,0.5,4.1,0.6c0.7,0,1.3,0.1,2,0.3c0.6,0.2,1.2,0.5,1.6,1c0.2,0.2,0.4,0.5,0.6,0.7
		c0.1,0.2,0.3,0.5,0.4,0.7c0.3,0.5,0.5,0.9,0.9,1.2c0.6,0.7,1.3,1.2,1.8,1.7C1053.2,660.4,1053.8,660.8,1053.8,660.9L1053.8,660.9z"
		/>
</g>
<g>
	<path fill="#FFFFFF" d="M1046.3,648.4c0,0-0.5,0.1-1.4,0.2c-0.4,0-1,0.1-1.6,0.1c-0.6,0-1.3,0-2,0c-0.7,0-1.6-0.1-2.4-0.3
		c-0.9-0.1-1.7-0.4-2.6-0.6c-0.9-0.3-1.8-0.6-2.7-1c-0.5-0.2-0.9-0.4-1.4-0.6c-0.4-0.2-0.9-0.4-1.3-0.7l-1.3-0.7
		c-0.4-0.3-0.8-0.5-1.3-0.8c-0.8-0.5-1.6-1.1-2.4-1.7c-0.7-0.6-1.5-1.1-2.1-1.6c-0.7-0.5-1.3-1-1.9-1.5c-0.6-0.5-1.1-0.9-1.6-1.3
		c-0.5-0.4-0.9-0.7-1.2-1c-0.7-0.6-1-0.9-1-0.9l0.1-0.1c0,0,0.4,0.2,1.2,0.7c0.4,0.2,0.8,0.5,1.3,0.8c0.5,0.3,1.1,0.7,1.7,1.1
		c0.6,0.4,1.3,0.9,2,1.4c0.7,0.5,1.4,1,2.2,1.6c0.7,0.6,1.5,1.2,2.3,1.7c0.4,0.3,0.8,0.6,1.2,0.8l1.2,0.8c0.4,0.3,0.9,0.5,1.3,0.7
		c0.4,0.2,0.9,0.5,1.3,0.6c0.9,0.4,1.8,0.7,2.6,1c0.9,0.3,1.7,0.5,2.6,0.7c0.8,0.2,1.6,0.3,2.4,0.4c0.7,0.1,1.4,0.1,2,0.1
		c0.6,0,1.1,0,1.6,0C1045.8,648.4,1046.3,648.3,1046.3,648.4L1046.3,648.4z"/>
</g>
<g>
	<path fill="#FFFFFF" d="M1000.5,609.7c0,0,0,0.3,0.3,0.9c0.2,0.6,0.5,1.4,1,2.5c0.5,1.1,1,2.4,1.8,3.9c0.8,1.5,2,3,3.4,4.7
		c1.4,1.6,3.1,3.4,5.1,5.1c2,1.7,4.2,3.5,6.6,5.5c1.2,1,2.4,2,3.6,3c1.3,1,2.5,2.1,3.9,3.1c1.3,1.1,2.8,2,4.3,3
		c0.8,0.5,1.5,1,2.3,1.4c0.4,0.2,0.8,0.4,1.2,0.6c0.2,0.1,0.5,0.1,0.5,0.1l0-0.1c0-0.1,0-0.1,0-0.2c0-0.1,0-0.2,0-0.3
		c-0.2-1.8-0.8-3.7-0.8-5.7c0-0.3,0-0.5,0.1-0.8c0-0.1,0.1-0.3,0.1-0.4l0.1-0.3c0.2-0.5,0.3-0.9,0.4-1.4c0.2-1,0.2-2,0.1-2.9
		c-0.1-1-0.4-1.9-0.9-2.8c-0.6-0.9-1-1.8-1.5-2.7c-1-1.8-2.1-3.6-3.5-5.2c-1.4-1.6-3.1-3-5.1-3.9c-2-0.8-4.2-1.4-6.3-2
		c-2.2-0.6-4.4-1.1-6.6-1.7c-1.1-0.3-2.2-0.6-3.4-0.9c-0.6-0.2-1.1-0.3-1.7-0.6c-0.6-0.2-1.1-0.6-1.6-0.9c-1-0.5-2.1-0.8-3.3-0.8
		c-1.1-0.1-2.3,0.1-3.5,0.3l-1.7,0.5l-1.7,0.6l-1.6,0.7l-1.6,0.8c-2.1,1.2-4,2.6-5.6,4.4c-0.8,0.9-1.4,1.9-2.1,2.9
		c-0.7,1-1.4,2-2.1,3c-1.4,2-2.8,4.1-4.1,6.2l-2,3.1c-0.4,0.5-0.8,1-1.1,1.5l-1.3,1.4c-1.8,1.8-3.7,3.4-5.8,4.9
		c-0.5,0.4-1,0.7-1.6,1.1l-1.6,1c-1.1,0.6-2.2,1.3-3.4,1.7c-1.2,0.5-2.4,0.8-3.6,1.2c-1.2,0.3-2.4,0.7-3.6,1
		c-2.4,0.6-4.9,1.1-7.4,1.4c-2.5,0.3-5,0.4-7.5,0.2c-0.6-0.1-1.3-0.2-1.9-0.3c-0.6-0.2-1.3-0.2-1.9-0.5c-0.6-0.2-1.2-0.4-1.8-0.7
		c-0.6-0.2-1.1-0.5-1.7-0.8c-4.4-2.3-8.5-5-12.6-7.5c-1-0.6-2.1-1.2-3.1-1.8c-0.5-0.3-1-0.5-1.6-0.8c-0.3-0.1-0.5-0.2-0.8-0.3
		c-0.1,0-0.2,0-0.3,0l-0.5,0c-1.4-0.1-2.5-0.5-3.6-1c-1.1-0.5-2.2-1-3.2-1.7c-0.5-0.3-1-0.7-1.4-1.2c-0.1-0.1-0.2-0.3-0.3-0.5
		l-0.2-0.4l-0.3-0.8c-0.4-1.1-0.9-2.1-1.4-3.1c-0.1-0.2-0.3-0.5-0.4-0.7c-0.1-0.1-0.2-0.2-0.2-0.3c0,0-0.1-0.1-0.1-0.1l-0.2-0.1
		c-0.1,0-0.3-0.3-0.4-0.4c-0.1-0.1-0.2-0.3-0.3-0.4c-0.2-0.3-0.3-0.5-0.4-0.8c-0.5-1.1-0.8-2.2-1-3.4c-0.1-0.6-0.1-1.2-0.1-1.8
		c0-0.2,0-0.3,0.1-0.5l0.1-0.4c0.1-0.3,0.2-0.6,0.3-0.9c0.4-1.1,0.9-2.1,1.4-3.1c0.3-0.5,0.6-1,0.9-1.4c0.3-0.5,0.7-0.9,1.2-1.3
		c0.1-0.1,0.3-0.2,0.4-0.3c0.2-0.1,0.5-0.1,0.6-0.1c0.3,0,0.5,0,0.8-0.1c0.5-0.1,1.1-0.2,1.6-0.3c1.1-0.2,2.2-0.3,3.3-0.1
		c0.3,0.1,0.6,0.1,0.9,0.3c0.1,0.1,0.3,0.2,0.4,0.3c0.1,0.1,0.2,0.2,0.3,0.3c0.3,0.3,0.8,0.5,1.2,0.7c0.9,0.3,1.9,0.5,2.8,0.3
		c0.2,0,0.4-0.1,0.6-0.2c0.1-0.1,0.3-0.3,0.5-0.5c0.5-0.4,1-0.6,1.5-0.8c1-0.4,2-0.6,3-0.8c0.5-0.1,1-0.2,1.5-0.2c0.1,0,0.3,0,0.4,0
		l0.1,0c0,0,0.1,0,0.1,0l0.2,0c0.2,0,0.5,0.1,0.7,0.1c2,0.4,3.8,0.9,5.6,1.6c0.4,0.2,0.9,0.3,1.3,0.5l0.7,0.3
		c0.2,0.1,0.4,0.3,0.6,0.4c0.5,0.3,0.7,0.6,1.1,0.8c0.4,0.3,0.7,0.5,1.1,0.7c0.8,0.4,1.6,0.6,2.2,0.1c0.3-0.2,0.9-0.4,1.4-0.4
		c0.5,0,0.9,0,1.4,0.2c0.9,0.2,1.7,0.8,2.2,1.5c0.5,0.7,1,1.3,1.5,1.9c1,1.3,2,2.5,2.9,3.7c1,1.2,2,2.3,3,3.2
		c0.5,0.4,1.1,0.9,1.6,1.1c0.7,0.1,1.3,0.1,2,0.2c0.7,0,1.3,0,2,0.2c0.6,0.1,1.3,0.5,1.7,0.9c0.9,0.8,1.7,1.7,2.6,2.3
		c0.4,0.3,0.9,0.2,1.5,0.5c0.5,0.2,0.9,0.4,1.4,0.7c0.8,0.5,1.6,1.1,2.2,1.7c0.3,0.3,0.5,0.7,0.7,1c0.2,0.4,0.3,0.7,0.5,1
		c0.3,0.6,0.6,1.2,0.9,1.7c0.6,1,1.1,1.7,1.5,2.2c0.2,0.2,0.4,0.4,0.5,0.5c0.1,0.1,0.2,0.2,0.2,0.2l-0.1,0.1c0,0-0.1-0.1-0.2-0.2
		c-0.1-0.1-0.3-0.3-0.5-0.5c-0.4-0.5-0.9-1.2-1.5-2.2c-0.3-0.5-0.6-1.1-1-1.7c-0.4-0.6-0.6-1.4-1.2-2c-0.6-0.6-1.3-1.1-2.1-1.6
		c-0.4-0.2-0.9-0.5-1.3-0.7c-0.2-0.1-0.5-0.2-0.7-0.2l-0.4-0.1c-0.1-0.1-0.3-0.1-0.4-0.2c-0.9-0.6-1.7-1.5-2.6-2.2
		c-0.5-0.4-0.9-0.7-1.5-0.8c-0.6-0.1-1.2-0.1-1.9-0.1c-0.7,0-1.4,0-2-0.1c-0.8-0.2-1.3-0.7-1.9-1.2c-1.1-1-2.1-2.1-3.1-3.2
		c-1-1.2-2-2.4-3-3.7c-0.5-0.6-1-1.3-1.5-1.9c-0.5-0.6-1.2-1-1.9-1.2c-0.4-0.1-0.8-0.2-1.2-0.1c-0.2,0-0.4,0-0.5,0.1
		c-0.2,0-0.3,0.1-0.5,0.3l-0.1,0c0,0,0,0,0,0l-0.2,0.1c-0.1,0.1-0.2,0.1-0.4,0.2c-0.3,0.1-0.5,0.1-0.8,0.1c-0.5-0.1-1-0.2-1.4-0.5
		c-0.4-0.2-0.8-0.5-1.2-0.7c-0.4-0.3-0.7-0.6-1.1-0.8c-0.2-0.1-0.3-0.2-0.5-0.3l-0.6-0.3c-0.4-0.2-0.8-0.3-1.3-0.5
		c-1.7-0.6-3.6-1.1-5.5-1.5c-0.2-0.1-0.5-0.1-0.7-0.1l-0.2,0c-0.1,0,0,0-0.1,0l-0.1,0c-0.1,0-0.2,0-0.3,0c-0.5,0.1-1,0.1-1.4,0.2
		c-1,0.2-1.9,0.4-2.8,0.8c-0.4,0.2-0.9,0.4-1.2,0.6c-0.2,0.1-0.3,0.3-0.6,0.5c-0.3,0.2-0.6,0.3-0.8,0.4c-1.1,0.3-2.3,0.1-3.3-0.3
		c-0.5-0.2-1-0.4-1.5-0.8c-0.1-0.1-0.2-0.2-0.3-0.3c-0.1,0-0.1-0.1-0.2-0.2c-0.2-0.1-0.4-0.2-0.6-0.2c-0.9-0.2-2,0-3,0.2
		c-0.5,0.1-1.1,0.2-1.6,0.3c-0.3,0-0.6,0.1-0.9,0.1c-0.2,0-0.2,0-0.2,0c-0.1,0.1-0.2,0.1-0.2,0.2c-0.7,0.6-1.3,1.6-1.8,2.5
		c-0.5,0.9-1,1.9-1.4,2.9c-0.1,0.3-0.2,0.5-0.2,0.7l-0.1,0.4l0,0.3c0,0.5,0,1,0.1,1.6c0.2,1.1,0.5,2.1,0.9,3.1
		c0.1,0.2,0.2,0.5,0.4,0.7c0.1,0.1,0.1,0.2,0.2,0.3c0.1,0.1,0,0.1,0.2,0.2l0.1,0.1c-0.1,0,0.1,0,0.1,0.1c0.1,0.1,0.2,0.1,0.2,0.2
		c0.1,0.1,0.2,0.3,0.3,0.4c0.2,0.3,0.4,0.5,0.5,0.8c0.6,1.1,1,2.1,1.5,3.2l0.3,0.8l0.2,0.4c0.1,0.1,0.1,0.2,0.2,0.3
		c0.3,0.4,0.8,0.7,1.2,1c0.9,0.6,2,1.1,3,1.6c1,0.4,2.2,0.8,3.2,0.9c0.1,0,0.3,0,0.4,0c0.2,0,0.4,0,0.6,0.1c0.3,0.1,0.6,0.2,0.9,0.3
		c0.6,0.3,1.1,0.5,1.7,0.8c1.1,0.6,2.1,1.2,3.1,1.8c4.1,2.5,8.2,5.3,12.5,7.5c0.5,0.3,1.1,0.6,1.6,0.8c0.6,0.3,1.1,0.5,1.7,0.7
		c0.5,0.2,1.2,0.3,1.7,0.5c0.6,0.1,1.2,0.2,1.8,0.3c2.4,0.2,4.9,0.1,7.3-0.2c2.5-0.3,4.9-0.8,7.3-1.3c1.2-0.3,2.4-0.6,3.6-0.9
		c1.2-0.4,2.4-0.7,3.5-1.2c1.2-0.4,2.2-1.1,3.3-1.6l1.6-1c0.5-0.3,1-0.7,1.5-1c2-1.4,3.9-3,5.7-4.7c1.8-1.6,3-3.8,4.4-5.9
		c1.4-2.1,2.7-4.1,4.2-6.2c0.7-1,1.4-2,2.1-3c0.7-1,1.4-2,2.2-3c1.6-1.9,3.6-3.4,5.8-4.6l1.6-0.8l1.7-0.7l1.7-0.6l1.8-0.5
		c1.2-0.2,2.4-0.4,3.6-0.2c1.2,0.1,2.4,0.4,3.5,0.9c0.5,0.3,1,0.6,1.5,0.8c0.5,0.2,1.1,0.4,1.6,0.5c1.1,0.3,2.2,0.6,3.3,0.9
		c2.2,0.6,4.5,1.1,6.6,1.7c2.2,0.6,4.3,1.2,6.4,2.1c2.1,0.9,3.8,2.4,5.2,4c1.4,1.6,2.5,3.5,3.5,5.3c0.5,0.9,0.9,1.9,1.5,2.7
		c0.6,0.9,0.9,1.9,1,3c0.1,1,0,2.1-0.2,3.1c-0.1,0.5-0.2,1-0.4,1.5l-0.1,0.3c0,0.1-0.1,0.2-0.1,0.3c-0.1,0.2-0.1,0.5-0.1,0.7
		c0,1.9,0.5,3.8,0.7,5.7c0,0.1,0,0.3,0,0.4c0,0.1,0,0.1,0,0.2l0,0.1c0,0-0.1,0.1-0.1,0.2c-0.2,0.2-0.4,0.1-0.5,0.1
		c-0.1,0-0.3-0.1-0.4-0.1c-0.5-0.2-0.9-0.4-1.3-0.6c-0.8-0.5-1.6-1-2.3-1.4c-1.5-1-3-1.9-4.3-3c-1.4-1-2.6-2.1-3.9-3.1
		c-1.2-1-2.5-2-3.6-3c-2.3-2-4.5-3.8-6.5-5.5c-2-1.7-3.7-3.5-5.1-5.2c-1.4-1.7-2.7-3.2-3.4-4.8c-0.7-1.5-1.3-2.9-1.7-4
		c-0.5-1.1-0.8-1.9-1-2.5C1000.5,610,1000.4,609.7,1000.5,609.7L1000.5,609.7z"/>
</g>
<g>
	<path fill="#FFFFFF" d="M909.9,610c0,0,0.1-0.1,0.3-0.4c0.2-0.3,0.6-0.6,1-1c0.5-0.4,1.1-0.9,2-1c0.5-0.1,1,0.2,1.4,0.5
		c0.4,0.2,0.9,0.4,1.4,0.6c1,0.4,2.1,0.6,3.3,0.6c1.2,0,2.5-0.2,3.8-0.3c1.3-0.1,2.7-0.2,3.9-0.7c0.3-0.1,0.6-0.3,0.8-0.5
		c0.1-0.1,0.2-0.2,0.3-0.3l0.3-0.5l1-1.9c0.7-1.3,1.3-2.6,2.1-3.8c0.2-0.3,0.4-0.6,0.7-0.9c0.1-0.1,0.2-0.1,0.3-0.2
		c0.1-0.1,0.2-0.1,0.4-0.2c0.1,0,0.2,0,0.2-0.1c-0.1,0,0.1,0,0.1,0c0.1,0,0,0,0.1,0c0.1,0,0.2-0.2,0.2-0.5c0.1-0.3,0.1-0.6,0-0.9
		c0-0.1,0-0.3,0-0.4l-0.1-0.3l0-0.1l0-0.2c0.1-0.3,0.1-0.4,0.2-0.6l0.2-0.5c0.3-0.6,0.6-1.2,0.9-1.7c0.6-1.1,1.3-2.1,2-2.9
		c0.4-0.4,0.8-0.8,1.3-1c0.4-0.2,0.9-0.4,1.3-0.6c0.8-0.4,1.4-0.8,1.9-1.1c1.1-0.6,1.7-1,1.7-1l0.1,0.1c0,0-0.5,0.5-1.5,1.2
		c-0.5,0.4-1.1,0.8-1.9,1.3c-0.4,0.2-0.8,0.4-1.2,0.7c-0.4,0.2-0.7,0.5-1,0.9c-0.6,0.8-1.2,1.8-1.8,2.8c-0.3,0.5-0.5,1.1-0.8,1.7
		l-0.2,0.4c0,0.1-0.1,0.3-0.1,0.3c0,0,0,0,0,0v0.1v0c0,0,0-0.2,0-0.1l0,0l0,0.1l0,0.1c0,0.2,0.1,0.4,0.1,0.6c0,0.4,0,0.7-0.1,1.1
		c-0.1,0.4-0.2,0.9-0.8,1.2c-0.1,0.1-0.4,0.1-0.4,0.1l-0.2,0c0,0,0,0,0,0c0,0,0,0-0.1,0c0,0-0.1,0-0.1,0.1c-0.2,0.2-0.4,0.4-0.6,0.7
		c-0.8,1.1-1.5,2.3-2.2,3.6l-1,1.9l-0.3,0.5c-0.1,0.2-0.2,0.4-0.4,0.5c-0.3,0.3-0.7,0.5-1,0.6c-1.4,0.5-2.8,0.6-4.2,0.7
		c-0.7,0-1.3,0.1-2,0.1c-0.6,0.1-1.3,0.1-1.9,0.1c-1.3,0-2.4-0.3-3.4-0.7c-0.5-0.2-1-0.4-1.4-0.7c-0.4-0.3-0.8-0.5-1.2-0.5
		c-0.8,0-1.5,0.5-1.9,0.9c-0.5,0.4-0.8,0.7-1.1,1C910.1,609.9,910,610,909.9,610L909.9,610z"/>
</g>
<g>
	<path fill="#FFFFFF" d="M933.3,597.9c-0.8-0.1-1.6-0.2-2.4-0.1c-0.4,0-0.8,0.2-0.9,0.5c0,0.4-0.2,0.8-0.4,1.2
		c-0.4,0.7-1,1.3-1.5,1.9c-0.3,0.3-0.6,0.6-0.9,0.8c-0.3,0.3-0.6,0.5-0.9,0.8c-0.6,0.5-1.2,1.1-1.8,1.6c-0.3,0.2-0.7,0.5-1,0.7
		c-0.4,0.2-0.8,0.2-1.2,0.2c-0.8,0-1.7-0.2-2.4-0.7c-0.1-0.1-0.2-0.2-0.3-0.2l-0.1-0.1c0,0-0.1-0.1-0.1-0.1
		c-0.1-0.1-0.3-0.2-0.5-0.2c-0.4-0.1-0.8-0.1-1.1-0.2c-0.4,0-0.8,0-1.2,0c-0.2,0-0.4,0-0.6,0.1c-0.1,0-0.2,0-0.4,0
		c-0.1,0-0.2-0.1-0.3-0.1c-0.8-0.4-1.4-0.9-2.1-1.2c-0.7-0.3-1.4-0.1-2.1,0.3c-0.6,0.4-1.3,1-1.4,1.6c0,0,0,0.1,0,0.1l0,0.2
		c0,0.1,0,0.3-0.1,0.4c-0.1,0.2-0.2,0.4-0.3,0.6c-0.2,0.4-0.5,0.7-0.8,1c-0.3,0.3-0.6,0.6-0.9,0.8c-0.4,0.2-0.7,0.5-1.2,0.6l-0.6,0
		l-0.5,0.1c-0.4,0.1-0.8,0.2-1.1,0.3c-0.8,0.2-1.5,0.5-2.3,0.8l0.1-0.1c-0.4,0.5-0.8,1-1.1,1.5c-0.3,0.5-0.7,1.1-0.7,1.6
		c0,0.1,0,0.1,0,0.2l0,0.3c0,0.2,0,0.4-0.1,0.6c-0.1,0.3-0.2,0.6-0.3,1c-0.2,0.6-0.4,1.2-0.7,1.8c-0.5,1.2-1,2.4-1.8,3.4
		c-0.4,0.9-0.6,2.4-0.3,3.3c0,0.1,0,0.1,0.1,0.1l0,0c0.1,0.1,0,0,0,0.1l0,0l0,0l0.1,0.1c0.1,0.1,0.1,0.3,0.2,0.5
		c0.1,0.4,0.1,0.7,0.2,1.1l0,1.9c0,0.1,0,0.3,0,0.4c0,0,0,0,0,0.1c0,0,0.1,0.1,0.1,0.2c0.2,0.2,0.4,0.5,0.6,0.7
		c0.4,0.5,0.8,1,1.2,1.4c0.4,0.4,0.9,0.9,1.3,1.2c0.1,0.1,0.2,0.1,0.3,0.1l0.5,0.1c0.3,0.1,0.7,0.3,1,0.5c1.1,0.7,2.2,1.4,3.2,2.3
		c0.2,0.2,0.5,0.4,0.7,0.7l0.3,0.4l0.3,0.3c0.4,0.5,0.8,0.8,1.4,1.2c1,0.8,2,1.5,3,2.2c1.1,0.7,2.1,1.3,3.3,1.8l3.5,1.4l7.1,2.8
		c1.2,0.5,2.3,1,3.5,1.4c0.6,0.2,1.2,0.4,1.8,0.5c0.6,0.1,1.3,0.2,1.8-0.1l0,0.1c-0.6,0.3-1.3,0.3-1.9,0.2c-0.6-0.1-1.3-0.2-1.9-0.4
		c-1.2-0.4-2.4-0.8-3.6-1.2l-7.2-2.6l-3.6-1.3c-1.2-0.5-2.4-1.1-3.4-1.8c-1.1-0.7-2.2-1.4-3.2-2.2c-0.5-0.4-1.1-0.9-1.5-1.3
		l-0.6-0.7c-0.2-0.2-0.4-0.4-0.6-0.6c-0.9-0.8-1.9-1.6-3-2.2c-0.3-0.1-0.5-0.3-0.7-0.4l-0.4-0.1c-0.2-0.1-0.4-0.1-0.6-0.2
		c-0.6-0.4-1.1-0.9-1.5-1.3c-0.4-0.5-0.9-1-1.2-1.5c-0.2-0.3-0.4-0.5-0.6-0.8c-0.1-0.1-0.1-0.1-0.1-0.2c-0.1-0.1-0.1-0.2-0.1-0.4
		c0-0.2,0-0.4-0.1-0.6v-1.9c0-0.3,0-0.6-0.1-0.8c0-0.1-0.1-0.2-0.1-0.4l-0.1-0.1l0,0l0,0c0,0,0-0.1,0,0.1l0-0.1
		c-0.1-0.1-0.1-0.2-0.2-0.3c-0.3-0.8-0.2-1.4-0.2-2.1c0.1-0.7,0.2-1.3,0.6-2c0.7-1,1.2-2.1,1.8-3.3c0.3-0.6,0.5-1.2,0.7-1.7
		c0.1-0.3,0.2-0.6,0.3-0.9c0-0.1,0.1-0.2,0.1-0.4v-0.1c0,0,0-0.1,0,0l0-0.1c0-0.1,0-0.2,0-0.3c0.1-0.8,0.5-1.3,0.9-1.9
		c0.4-0.5,0.8-1,1.2-1.5l0.1-0.1l0.1,0c0.8-0.3,1.5-0.5,2.3-0.8c0.4-0.1,0.8-0.2,1.2-0.3c0.2,0,0.4-0.1,0.7-0.1l0.6,0
		c0.3,0,0.6-0.2,0.9-0.4c0.3-0.2,0.6-0.5,0.9-0.8c0.3-0.3,0.5-0.6,0.7-0.9c0.1-0.2,0.2-0.3,0.2-0.5c0-0.1,0-0.1,0-0.2l0-0.1
		c0,0.1,0,0,0-0.1c0-0.1,0-0.1,0-0.2c0.1-0.5,0.4-0.9,0.7-1.2c0.3-0.3,0.6-0.6,1-0.8c0.4-0.2,0.8-0.4,1.2-0.5c0.4-0.1,0.9,0,1.3,0.2
		c0.8,0.3,1.4,0.9,2.1,1.2c0.1,0,0.2,0.1,0.2,0.1c0,0,0.1,0,0.1,0l0.1,0c0.2,0,0.4-0.1,0.6-0.1c0.4,0,0.8,0,1.2,0
		c0.4,0,0.8,0.1,1.2,0.2c0.2,0.1,0.4,0.1,0.6,0.3c0.1,0,0.1,0.1,0.1,0.1l0.1,0.1c0.1,0.1,0.1,0.1,0.2,0.2c0.6,0.4,1.4,0.6,2.2,0.7
		c0.3,0,0.8,0,1.1-0.2c0.3-0.1,0.7-0.4,1-0.6c0.6-0.5,1.2-1,1.8-1.6c0.3-0.3,0.6-0.5,0.9-0.8c0.3-0.3,0.6-0.5,0.9-0.8
		c0.6-0.6,1.1-1.2,1.5-1.8c0.2-0.3,0.4-0.7,0.4-1.1c0-0.2,0.2-0.4,0.4-0.5c0.2-0.1,0.4-0.1,0.6-0.2
		C931.7,597.5,932.5,597.6,933.3,597.9L933.3,597.9z"/>
</g>
<g>
	<path fill="#FFFFFF" d="M941.2,583.7c-0.8,0.6-1.7,1.2-2.7,1.5c-0.5,0.2-1,0.3-1.6,0.2c-0.5,0-1-0.2-1.5-0.3c-1-0.2-2-0.5-3-0.7
		c-0.5-0.1-1-0.1-1.5,0c-0.4,0.1-0.9,0.4-1.4,0.6l-1.4,0.7c-0.4,0.3-0.9,0.5-1.3,0.8c-0.5,0.3-0.8,0.6-1.2,0.9L925,588l-0.3,0.3
		c-0.1,0.1-0.2,0.2-0.4,0.2c-1,0.5-2.1,0.6-3.2,0.6c-0.5,0-1.1-0.1-1.6-0.2c-0.5-0.1-1.1-0.2-1.6-0.5c-0.1-0.1-0.3-0.2-0.4-0.3
		c-0.1-0.1-0.2-0.3-0.3-0.4c-0.1-0.2-0.3-0.3-0.5-0.5c-0.4-0.3-0.8-0.5-1.2-0.7c-0.4-0.2-1-0.3-1.1-0.1c-0.4,0.4-0.9,0.6-1.4,0.9
		c-0.5,0.2-1.1,0.4-1.7,0.4c-0.3,0-0.6-0.1-0.9-0.3c-0.1-0.1-0.3-0.2-0.4-0.3c-0.1-0.1-0.2-0.1-0.3-0.2c-0.8-0.5-1.8-0.9-2.7-1
		c-0.2,0-0.5-0.1-0.7-0.1c-0.1,0-0.2,0-0.3,0c-0.1,0,0,0-0.1,0l-0.2,0.1c-0.5,0.2-0.7,0.1-1,0.1c-0.3,0-0.6,0-0.8-0.1
		c-0.5-0.1-1.1-0.2-1.6-0.5c-0.3-0.1-0.5-0.3-0.8-0.5c-0.1,0-0.1-0.1-0.2-0.2c0,0-0.1-0.1-0.1-0.1l-0.1-0.1l-0.3-0.3
		c-0.7-0.8-1.4-1.5-2.1-2.2l-2.2-2.2l-0.1-0.1l0-0.1c-0.2-1-0.4-2-0.5-3.1c0-0.5-0.1-1.1,0-1.6c0.1-0.5,0.1-1.2,0.7-1.7
		c0.2-0.1,0.4-0.2,0.5-0.2l0.4-0.1l0.8-0.2c0.5-0.1,0.9-0.3,1.3-0.5c0.3-0.2,0.5-0.5,0.5-1c0-0.4,0.1-1,0.1-1.5c0.1-1,0.3-2,0.7-3
		c0.1-0.2,0.2-0.5,0.3-0.7c0.1-0.2,0.3-0.5,0.6-0.7c0.5-0.2,0.9-0.4,1.3-0.7c0.9-0.5,1.7-1,2.6-1.6c0.4-0.3,0.9-0.6,1.1-0.9
		c0-0.2,0-0.5,0.1-0.8c0.1-0.2,0.3-0.4,0.4-0.6l0.1,0.1c-0.3,0.4-0.6,0.8-0.4,1.4c-0.1,0.3-0.3,0.5-0.5,0.7
		c-0.2,0.2-0.4,0.3-0.6,0.5c-0.8,0.6-1.6,1.2-2.5,1.8c-0.4,0.3-0.9,0.6-1.3,0.8c-0.2,0.2-0.4,0.7-0.6,1.1c-0.3,0.9-0.4,1.9-0.5,2.9
		c-0.1,0.5,0,0.9-0.1,1.5c0,0.6-0.4,1.3-0.8,1.6c-0.5,0.4-1,0.5-1.5,0.7l-0.7,0.2c-0.2,0.1-0.6,0.2-0.6,0.3c-0.2,0.1-0.3,0.6-0.3,1
		c0,0.5,0,0.9,0,1.4c0.1,1,0.3,2,0.5,2.9l-0.1-0.2l2.2,2.2c0.7,0.8,1.5,1.5,2.1,2.3l0.2,0.3l0.1,0.2c0,0,0,0.1,0.1,0.1
		c0.1,0.1,0.3,0.2,0.5,0.3c0.4,0.2,0.9,0.3,1.4,0.4c0.2,0,0.5,0.1,0.7,0.1c0.2,0,0.5,0,0.5,0c0,0,0.1-0.1,0.1-0.1
		c0.1,0,0.2-0.1,0.3-0.1c0.2-0.1,0.3-0.1,0.5-0.1c0.3,0,0.6,0,0.9,0.1c1.1,0.2,2.1,0.6,3,1.2c0.1,0.1,0.2,0.2,0.3,0.2
		c0.1,0.1,0.2,0.2,0.3,0.2c0.2,0.1,0.4,0.2,0.6,0.2c0.4,0,0.9-0.1,1.3-0.3c0.4-0.2,0.9-0.4,1.2-0.7c0,0,0,0,0.1-0.1
		c0,0,0.1-0.1,0.1-0.1c0.1-0.1,0.2-0.1,0.3-0.1c0.2,0,0.3,0,0.5,0c0.3,0,0.6,0.1,0.8,0.2c0.5,0.2,1,0.5,1.4,0.8
		c0.2,0.2,0.4,0.4,0.6,0.6c0.1,0.1,0.1,0.2,0.2,0.3c0.1,0.1,0.2,0.1,0.3,0.2c0.8,0.4,1.9,0.6,2.9,0.6c1,0,2-0.1,2.9-0.4
		c0.1-0.1,0.2-0.1,0.3-0.2l0.3-0.2l0.6-0.5c0.4-0.3,0.8-0.7,1.3-0.9c0.4-0.3,0.9-0.5,1.3-0.8l1.4-0.7c0.2-0.1,0.5-0.2,0.7-0.3
		c0.3-0.1,0.4-0.2,0.8-0.3c0.6-0.1,1.1,0,1.6,0.1c1,0.2,2,0.5,3,0.7c0.5,0.1,1,0.3,1.5,0.4c0.5,0,1-0.1,1.5-0.2
		C939.4,584.8,940.3,584.2,941.2,583.7L941.2,583.7z"/>
</g>
<g>
	<path fill="#FFFFFF" d="M907.4,562.8c0,0,0.2,0.4,0.6,1.2c0.4,0.8,1.1,1.9,1.9,3.3c0.4,0.7,1,1.4,1.5,2.2c0.6,0.8,1.2,1.6,2.1,2.4
		c0.4,0.4,0.9,0.7,1.4,0.6c0.6-0.1,1.2-0.2,1.9-0.3c0.6-0.1,1.3-0.1,2-0.1c0.3,0,0.7,0.1,1,0.2c0.3,0.1,0.7,0.2,1,0.5
		c0.9,1.1,2,2,3.3,2.7c0.3,0.2,0.7,0.3,1,0.4c0.2,0,0.3,0,0.5,0c0.1,0,0.3-0.2,0.5-0.2c0.5-0.2,1-0.1,1.3,0.1c0.4,0.2,0.7,0.5,1,0.7
		c0.3,0.3,0.6,0.5,0.9,0.8c0.3,0.2,0.6,0.5,1,0.5c0.7,0.1,1.6,0.1,2.4,0.1c1.7,0,3.4-0.2,5.2-0.2c0.5,0,0.9,0,1.4,0.1
		c0.2,0,0.4,0.1,0.6,0.1c0.1,0,0.1,0,0.2,0c0.1,0,0.2-0.1,0.2-0.1c0.7-0.4,1.2-1.1,1.9-1.8c1.2-1.3,2.5-2.6,3.8-4
		c1.3-1.3,2.5-2.7,3.8-4c0.7-0.6,1.4-1.3,2.2-1.8c0.8-0.5,1.7-1,2.8-1.1c1.1,0,1.9,0.3,2.9,0.5c0.9,0.2,1.8,0.3,2.7,0.3
		c0.9,0,1.8-0.2,2.4-0.6c0.4-0.2,0.6-0.5,0.8-0.8c0.2-0.3,0.3-0.7,0.3-1.2c0.1-0.8-0.1-1.7-0.3-2.6c0-0.2-0.1-0.5-0.1-0.7
		c0-0.3,0-0.5,0-0.7c0-0.6,0.2-1.1,0.5-1.5c0.2-0.4,0.4-0.8,0.5-1.1c0,0,0.1-0.2,0.1-0.3l0-0.3c0-0.2,0-0.4,0-0.6
		c0-0.4,0-0.9,0.1-1.4c0.1-0.5,0.4-1.1,1-1.4c0.6-0.2,0.9-0.2,1.4-0.3c0.4-0.1,0.8-0.2,1.1-0.4c0.3-0.2,0.5-0.3,0.5-0.5
		c0,0,0-0.2,0-0.1c0-0.1-0.1-0.2-0.1-0.3c0-0.1-0.1-0.1-0.1-0.2l-0.2-0.2c-0.9-1.3-2.1-2.5-3.2-3.7c-1.1-1.2-2.2-2.3-3.1-3.6
		c-0.5-0.5-1-1.2-1.5-1.6c-0.5-0.5-1-1-1.5-1.4c-2.1-1.8-4.1-3.4-6-4.7c-1.8-1.3-3.5-2.4-4.9-3.3c-2.7-1.8-4.3-2.8-4.3-2.8l0.1-0.1
		c0,0,1.6,1,4.4,2.6c1.4,0.8,3.1,1.8,5,3.1c1.9,1.3,4,2.8,6.2,4.6c0.5,0.4,1.1,0.9,1.6,1.5c0.6,0.5,1,1.1,1.6,1.7
		c0.9,1.2,2,2.3,3.1,3.5c1.1,1.2,2.3,2.3,3.3,3.8l0.2,0.3c0.1,0.1,0.1,0.3,0.2,0.4c0.1,0.1,0.1,0.2,0.1,0.3c0.1,0.2,0,0.3,0,0.5
		c0,0.3-0.2,0.6-0.4,0.9c-0.2,0.2-0.4,0.3-0.7,0.5c-0.5,0.2-0.9,0.3-1.3,0.4c-0.4,0.1-0.9,0.2-1.2,0.3c-0.9,0.4-0.1,3.2-1.4,4.7
		c-0.2,0.4-0.3,0.7-0.4,1.1c0,0.2,0,0.5,0,0.6c0,0.2,0.1,0.4,0.1,0.7c0.2,0.9,0.3,1.8,0.2,2.9c0,0.5-0.1,1-0.4,1.5
		c-0.2,0.5-0.7,0.9-1.1,1.2c-0.9,0.6-2,0.7-2.9,0.7c-1,0-1.9-0.1-2.9-0.3c-0.9-0.2-1.9-0.5-2.7-0.5c-0.8,0-1.6,0.4-2.4,0.9
		c-0.7,0.5-1.4,1.1-2.1,1.7c-1.3,1.3-2.6,2.7-3.9,4c-1.3,1.3-2.5,2.6-3.8,3.9c-0.7,0.6-1.2,1.3-2.1,1.8c-0.1,0-0.2,0.1-0.4,0.1
		c-0.1,0-0.3,0-0.4,0c-0.3,0-0.4-0.1-0.7-0.1c-0.3-0.1-0.8-0.1-1.2-0.1c-1.7,0-3.5,0.1-5.2,0.1c-0.9,0-1.7,0-2.6-0.2
		c-0.5-0.1-0.8-0.4-1.2-0.6c-0.3-0.3-0.6-0.5-0.9-0.8c-0.6-0.5-1.3-1-1.9-0.8c-0.2,0.1-0.3,0.2-0.6,0.3c-0.2,0.1-0.5,0-0.7,0
		c-0.4-0.1-0.8-0.2-1.1-0.4c-1.4-0.8-2.5-1.8-3.4-2.9c-0.4-0.4-1.2-0.5-1.8-0.6c-0.7,0-1.3,0-1.9,0c-0.6,0.1-1.2,0.2-1.8,0.3
		c-0.7,0.1-1.3-0.4-1.7-0.7c-0.9-0.8-1.5-1.7-2.1-2.5c-0.6-0.8-1.1-1.6-1.5-2.3c-0.8-1.4-1.5-2.5-1.9-3.3
		C907.5,563.3,907.3,562.9,907.4,562.8L907.4,562.8z"/>
</g>
<g>
	<path fill="#FFFFFF" d="M908.9,555.9c0,0-0.4-0.4-1.1-1.2c-0.3-0.4-0.8-0.9-1.2-1.6c-0.4-0.7-0.8-1.5-1-2.5c-0.1-0.5,0-1.1,0.2-1.6
		c0.2-0.5,0.6-1,0.9-1.5c0.6-1,1.3-2.1,1.5-3.5c0.1-0.3,0.1-0.7,0.1-1c0-0.3,0-0.7,0-1.1c0-0.2,0-0.4,0-0.6l0.1-0.6
		c0.1-0.4,0.2-0.7,0.3-1.1c0.6-1.5,1.3-2.9,2.3-4.3c1.1-1.3,2-2.8,2.9-4.4c0.2-0.4,0.4-0.8,0.6-1.2c0.1-0.2,0.2-0.4,0.2-0.6
		c0-0.2,0.2-0.6,0.3-0.8c0.7-0.8,1.5-1.3,2.5-1.6c0.5-0.1,1-0.2,1.6-0.1c0.5,0,1,0.1,1.5,0.1c1,0.1,2,0.2,3,0.3
		c2,0.2,4.1,0.3,6.2,0.4c2.1,0.1,4.3,0.2,6.5,0.4c2.2,0.2,4.4,0.4,6.6,0.4l1.7,0c0.6,0,1.1-0.1,1.6-0.1c0.5,0,1-0.2,1.6-0.3l1.6-0.5
		c2.2-0.7,4.4-1.3,6.6-1.8c4.4-1,9-1.5,13.6-1.1c4.4,0.3,8.9,0.9,13,2.2c4.1,1.2,7.8,3.2,11,5.5c1.6,1.1,3.2,2.1,4.6,3.3
		c1.5,1.1,2.9,2.2,4.2,3.3c1.3,1.1,2.6,2.1,3.7,3.2c0.6,0.5,1.1,1.1,1.6,1.6c0.6,0.5,1,1.1,1.4,1.6c1.7,2.3,2.8,4.4,3.7,6.2
		c0.9,1.8,1.5,3.2,1.9,4.2c0.2,0.5,0.3,0.9,0.4,1.1c0.1,0.3,0.1,0.4,0.1,0.4l-0.1,0c0,0-0.1-0.1-0.2-0.4c-0.1-0.3-0.2-0.6-0.5-1.1
		c-0.4-1-1.1-2.4-2.1-4.1c-1-1.7-2.2-3.8-3.8-5.9c-1.8-2.1-4.2-4-6.8-6.2c-1.3-1.1-2.8-2.1-4.2-3.2c-1.5-1.1-3.1-2.1-4.7-3.2
		c-0.8-0.6-1.6-1.1-2.5-1.6c-0.4-0.3-0.9-0.5-1.3-0.8l-0.6-0.4l-0.7-0.3c-1.8-0.9-3.7-1.7-5.7-2.3c-4-1.2-8.3-1.8-12.8-2.2
		c-4.4-0.4-8.9,0-13.3,0.9c-2.2,0.5-4.4,1-6.5,1.7l-1.6,0.5c-0.6,0.1-1.1,0.3-1.7,0.4c-0.6,0-1.1,0.1-1.7,0.1l-1.7,0
		c-2.2-0.1-4.5-0.3-6.6-0.5c-2.2-0.2-4.3-0.3-6.5-0.4c-2.1-0.1-4.2-0.2-6.3-0.4c-1-0.1-2-0.2-3-0.3c-0.5,0-1-0.1-1.5-0.1
		c-0.4-0.1-0.9,0-1.4,0.1c-0.9,0.2-1.7,0.7-2.3,1.4c-0.1,0.2-0.2,0.3-0.2,0.5c-0.1,0.3-0.1,0.5-0.2,0.7c-0.2,0.4-0.4,0.8-0.6,1.2
		c-0.9,1.6-1.9,3.1-3,4.4c-1,1.3-1.8,2.8-2.3,4.2c-0.1,0.4-0.3,0.7-0.3,1.1l-0.1,0.5c0,0.2,0,0.4,0,0.6c0,0.4,0,0.7,0,1.1
		c0,0.4,0,0.7-0.1,1.1c-0.3,1.4-1,2.5-1.6,3.5c-0.3,0.5-0.7,1-0.9,1.5c-0.2,0.5-0.3,1-0.2,1.5c0.1,1,0.5,1.8,0.9,2.4
		c0.4,0.7,0.8,1.2,1.1,1.6C908.6,555.4,909,555.8,908.9,555.9L908.9,555.9z"/>
</g>
<g>
	<path fill="#FFFFFF" d="M997.6,510.1c2.7-3,5.5-5.9,8.3-8.8c1.4-1.5,2.9-2.8,4.3-4.3c0.7-0.7,1.6-1.3,2.3-1.9l2.4-1.9
		c0.8-0.6,1.6-1.2,2.5-1.8c0.8-0.6,1.7-1.1,2.6-1.6c0.9-0.5,1.8-0.9,2.8-1.2c0.5-0.1,1-0.3,1.5-0.3c0.5-0.1,1.1,0,1.5,0
		c2,0.1,3.9-0.6,5.8-1.3c1.8-0.8,3.6-1.7,5.3-2.8c1.7-1.1,3.3-2.3,4.8-3.7c1.5-1.4,3-2.7,4.4-4.1c1.4-1.4,2.9-2.8,4.3-4.2l4.2-4.4
		c2.7-3,5.2-6.1,7.8-9.3c2.6-3.1,5.4-6,8.2-8.9c2.9-2.9,5.8-5.7,9-8.2l1.2-0.9c0.5-0.3,0.9-0.5,1.3-0.8l2.6-1.5
		c1.8-0.9,3.7-1.8,5.5-2.6l5.6-2.4l2.8-1.2l0.7-0.3c0.3-0.1,0.5-0.2,0.7-0.3c0.5-0.2,1-0.3,1.5-0.5c2-0.5,4-0.8,6.1-0.9
		c2-0.1,4.1-0.2,6.1-0.1c2,0.1,4.1,0.2,6.1,0.5c1,0.1,2.1,0.4,3,0.8c1,0.3,1.9,0.7,2.9,1.1c3.7,1.6,7.3,3.5,11.1,4.6l1.4,0.3
		c0.5,0.1,1,0.1,1.5,0.2c1,0.1,2,0.3,3,0.5c2,0.4,4,0.8,6,1.3c2,0.5,3.9,1,5.8,2c0.2,0.1,0.5,0.3,0.7,0.4l0.6,0.5l1.2,0.9
		c0.8,0.7,1.5,1.4,2.3,2.2l1.4,1.6l-2-0.8c-1.1-0.5-2.3-0.9-3.5-1.3c-1.2-0.4-2.4-0.7-3.6-1c-0.6-0.2-1.2-0.3-1.8-0.4
		c-0.6-0.1-1.2-0.2-1.8-0.2c-0.6,0-1.2-0.1-1.8-0.1l-1.9,0.1c-0.6,0-1.3,0-1.9,0.1l-1.8,0.3c-1.2,0.1-2.4,0.5-3.6,0.8
		c-0.6,0.2-1.2,0.5-1.7,0.7c-0.6,0.2-1.1,0.4-1.7,0.7c-1.1,0.6-2.2,1.2-3.3,1.8c-2.2,1.2-4.4,2.4-6.6,3.5c-1.1,0.6-2.2,1.1-3.4,1.7
		c-1.1,0.5-2.3,1.1-3.4,1.6c-1.1,0.5-2.3,1-3.5,1.5c-1.2,0.5-2.4,0.9-3.6,1.3c-0.6,0.2-1.2,0.4-1.8,0.5l-1.8,0.4
		c-0.6,0.1-1.2,0.2-1.9,0.2c-0.6,0-1.3,0-1.9,0l0-0.1c0.6,0,1.2,0,1.9,0c0.6-0.1,1.2-0.2,1.8-0.3l1.8-0.5c0.6-0.2,1.2-0.4,1.8-0.6
		c1.2-0.4,2.4-0.9,3.5-1.3c1.2-0.5,2.3-1,3.4-1.5c4.5-2.1,8.9-4.5,13.3-7c1.1-0.6,2.2-1.2,3.3-1.8c0.5-0.3,1.2-0.5,1.7-0.8
		c0.6-0.2,1.2-0.5,1.8-0.7c1.2-0.3,2.4-0.8,3.7-0.9l1.9-0.3c0.6-0.1,1.3-0.1,1.9-0.1l1.9-0.1c0.7,0,1.3,0.1,1.9,0.1
		c0.6,0,1.3,0.1,1.9,0.2c0.6,0.1,1.3,0.2,1.9,0.4c1.2,0.3,2.5,0.6,3.7,1c1.2,0.4,2.4,0.8,3.6,1.3l-0.6,0.7c-0.6-0.7-1.4-1.4-2.1-2
		l-1.2-0.9l-0.6-0.5l-0.6-0.4c-1.7-0.9-3.7-1.4-5.6-1.9c-1.9-0.5-3.9-0.9-5.9-1.2c-1-0.2-2-0.3-3-0.5c-0.5-0.1-1-0.1-1.5-0.2
		l-1.5-0.3c-3.9-1.2-7.5-3.1-11.2-4.7c-1.8-0.7-3.7-1.5-5.6-1.8c-2-0.3-4-0.5-6-0.6c-2-0.1-4-0.1-6,0.1c-2,0.1-4,0.4-5.9,0.9
		c-0.5,0.1-0.9,0.2-1.4,0.4c-0.2,0.1-0.5,0.2-0.7,0.3l-0.7,0.3l-2.8,1.2l-5.6,2.4c-1.8,0.9-3.6,1.7-5.4,2.6l-2.6,1.5
		c-0.4,0.2-0.9,0.5-1.3,0.7l-1.2,0.9c-3.2,2.4-6.1,5.2-9,8.1c-2.8,2.9-5.6,5.8-8.2,8.8c-2.6,3.1-5.2,6.2-7.9,9.2l-4.2,4.4
		c-1.4,1.4-2.9,2.8-4.3,4.2c-1.4,1.4-3,2.7-4.5,4.1c-1.5,1.4-3.1,2.6-4.8,3.7c-1.7,1.1-3.5,2-5.4,2.8c-1.9,0.7-3.9,1.4-5.9,1.3
		c-2-0.3-3.9,0.5-5.7,1.4c-0.9,0.5-1.8,1-2.6,1.5c-0.8,0.6-1.6,1.2-2.5,1.8l-2.4,1.9c-0.8,0.6-1.6,1.2-2.3,1.9
		c-1.5,1.4-3,2.7-4.3,4.2C1003.2,504.3,1000.4,507.2,997.6,510.1L997.6,510.1z"/>
</g>
<g>
	<path fill="#FFFFFF" d="M984.1,504.6c0,0,0.4-0.2,1.2-0.7c0.4-0.2,0.8-0.5,1.4-0.8c0.5-0.3,1.1-0.6,1.8-1c0.6-0.4,1.3-0.8,2.1-1.3
		c0.4-0.2,0.7-0.4,1.1-0.7c0.4-0.3,0.7-0.5,1.1-0.8c0.8-0.5,1.5-1.1,2.3-1.7c0.8-0.6,1.6-1.2,2.5-1.7c1.7-1.1,3.4-2.2,5-3.1
		c0.8-0.4,1.7-0.9,2.4-1.2c0.8-0.3,1.6-0.7,2.3-0.9c0.7-0.3,1.4-0.5,2-0.6c0.6-0.2,1.1-0.2,1.6-0.3c0.5,0,0.8,0,1,0.1
		c0.2,0.1,0.4,0.1,0.4,0.1l0,0.1c0,0-0.1,0-0.4,0c-0.2,0-0.6,0-1,0.1c-0.4,0.1-0.9,0.2-1.5,0.5c-0.6,0.2-1.2,0.5-1.9,0.8
		c-0.7,0.3-1.4,0.7-2.2,1c-0.8,0.4-1.5,0.8-2.4,1.3c-1.6,0.9-3.4,1.8-5.1,2.8c-0.8,0.5-1.7,1.1-2.5,1.6c-0.8,0.6-1.6,1.1-2.4,1.6
		c-0.4,0.3-0.8,0.5-1.2,0.8c-0.4,0.2-0.8,0.4-1.2,0.6c-0.8,0.4-1.5,0.8-2.1,1.2c-0.7,0.4-1.3,0.7-1.8,0.9c-0.5,0.3-1,0.5-1.4,0.7
		C984.6,504.5,984.2,504.7,984.1,504.6L984.1,504.6z"/>
</g>
<g>
	<path fill="none" d="M1027.3,490.5"/>
</g>
<g>
	<path fill="#FFFFFF" d="M1062.9,530.7c0.8-0.6,1.6-1.2,2.2-2c0.6-0.7,1.1-1.8,0.6-2.6c-0.2-0.4-0.6-0.7-1-1.1l-1.2-1l-2.3-1.9
		c-1.5-1.3-3.1-2.6-4.4-4.2c-0.6-0.8-1.3-1.6-1.5-2.7c-0.1-0.6-0.1-1-0.1-1.5l-0.1-1.5c0-0.5-0.1-1,0-1.6c0.1-0.5,0.3-1.1,0.7-1.5
		c0.9-0.8,2-0.9,3-1.1c2-0.2,4.1-0.2,6-0.4c1-0.1,2-0.2,2.8-0.6c0.4-0.2,0.7-0.5,0.7-0.8c0,0,0-0.1,0-0.1l0-0.2l0-0.4
		c0-0.3,0-0.5,0-0.7c-0.1-0.9-0.3-1.9-0.5-2.9c-0.2-1-0.5-1.9-0.7-2.9l-0.2-0.8l0.8,0.1c0.2,0,0.6,0,0.9,0c0.2,0,0.3-0.1,0.5-0.1
		c0.2-0.1,0.3-0.1,0.5-0.2l0.5-0.2c0.1-0.1,0.3-0.2,0.4-0.3c0.3-0.2,0.5-0.4,0.8-0.7c0.2-0.2,0.5-0.5,0.8-0.8
		c0.2-0.3,0.5-0.6,0.8-0.8l1.6-1.6c0.2-0.3,0.5-0.5,0.7-0.8c0.2-0.3,0.5-0.6,0.7-0.9c0.2-0.3,0.4-0.6,0.6-0.9l0.5-1l0.3-1
		c0.1-0.4,0.2-0.7,0.2-1.1l0.4-2.2l0.1,0l-0.2,2.2c0,0.4-0.1,0.7-0.1,1.1c-0.1,0.4-0.2,0.8-0.2,1.1l-0.4,1.1c-0.2,0.3-0.4,0.7-0.6,1
		c-0.2,0.3-0.4,0.6-0.7,0.9c-0.2,0.3-0.5,0.6-0.7,0.9c-0.5,0.6-1,1.1-1.5,1.7c-0.2,0.3-0.5,0.6-0.7,0.8c-0.2,0.3-0.5,0.6-0.7,0.9
		c-0.3,0.3-0.5,0.6-0.9,0.8c-0.2,0.1-0.3,0.3-0.5,0.4l-0.5,0.3c-0.2,0.1-0.4,0.2-0.6,0.2c-0.2,0.1-0.4,0.1-0.6,0.2
		c-0.4,0.1-0.8,0.1-1.3,0l0.6-0.6c0.3,1,0.6,2,0.8,3c0.2,1,0.4,2,0.5,3.1c0,0.3,0,0.5,0,0.8l0,0.4l0,0.2c0,0.1,0,0.2-0.1,0.3
		c-0.1,0.3-0.3,0.6-0.5,0.9c-0.2,0.2-0.5,0.4-0.8,0.5c-1,0.5-2.1,0.6-3.1,0.7c-2,0.1-4.1,0.1-6,0.2c-1,0.1-2,0.2-2.6,0.8
		c-0.6,0.6-0.6,1.6-0.6,2.6l0.1,1.5c0,0.5,0,1.1,0.1,1.5c0.2,0.9,0.8,1.7,1.4,2.5c1.3,1.5,2.8,2.9,4.3,4.2l2.3,2l1.1,1
		c0.4,0.3,0.8,0.7,1,1.1c0.3,0.5,0.3,1.1,0.1,1.5c-0.2,0.5-0.4,0.9-0.8,1.3C1064.6,529.6,1063.8,530.2,1062.9,530.7L1062.9,530.7z"
		/>
</g>
<g>
	<path fill="#FFFFFF" d="M1055.2,482.5c0,0,11.3,0.4,22.6,0.9c2.8,0.1,5.7,0.2,8.3,0.3c1.3,0.1,2.6,0.1,3.8,0.3
		c1.2,0.1,2.4,0.2,3.4,0.3c1.1,0.1,2,0.2,2.9,0.3c0.9,0.1,1.6,0.2,2.2,0.2c1.2,0.1,1.9,0.2,1.9,0.2l0,0.1c0,0-0.7,0-2,0
		c-0.6,0-1.4,0-2.2,0c-0.9,0-1.8,0-2.9,0c-1.1,0-2.2-0.1-3.4-0.1c-1.2,0-2.5-0.1-3.8-0.2c-2.6-0.2-5.5-0.4-8.3-0.6
		C1066.5,483.4,1055.2,482.5,1055.2,482.5L1055.2,482.5z"/>
</g>
<g>
	<path fill="#FFFFFF" d="M1061.2,476.2c3.2-0.9,6.4-1.8,9.6-2.6c1.6-0.4,3.2-0.8,4.8-1.1c0.8-0.2,1.6-0.3,2.5-0.4
		c0.8-0.1,1.7-0.2,2.5-0.2c0.2,0,0.4,0,0.7,0.1c0.3,0.1,0.4,0.2,0.6,0.3c0.4,0.2,0.7,0.3,1.1,0.5c0.8,0.3,1.5,0.7,2.3,1
		c1.5,0.6,3.1,1.2,4.6,1.8c1.5,0.6,3.1,1.1,4.7,1.7c0.8,0.3,1.6,0.5,2.4,0.7c0.8,0.2,1.6,0.4,2.3,0.5l0,0.8
		c-6.3-0.4-12.7-0.7-19-1.2c-3.2-0.3-6.3-0.5-9.5-0.8C1067.5,476.9,1064.4,476.6,1061.2,476.2l-0.2,0.1L1061.2,476.2z M1061.6,476.2
		c3.1,0.1,6.1,0.2,9.2,0.3c3.2,0.1,6.3,0.3,9.5,0.5c6.3,0.3,12.7,0.9,19,1.3l0,0.8c-1-0.1-1.7-0.3-2.5-0.5c-0.8-0.2-1.6-0.5-2.4-0.8
		c-1.6-0.5-3.1-1.1-4.7-1.7c-1.5-0.6-3.1-1.2-4.6-1.9c-0.8-0.3-1.5-0.7-2.3-1c-0.4-0.2-0.8-0.4-1.1-0.5c-0.2-0.1-0.4-0.2-0.5-0.2
		c-0.2,0-0.4-0.1-0.6-0.1c-0.8,0-1.6,0-2.4,0.1c-0.8,0.1-1.6,0.2-2.4,0.4c-1.6,0.3-3.2,0.6-4.9,1
		C1067.7,474.6,1064.7,475.4,1061.6,476.2z"/>
</g>
<g>
	<path fill="#FFFFFF" d="M983,510.2c0,0.2,0.4,0.2,0.6,0.2c0.2,0,0.5,0,0.7,0l1.4-0.1c0.9-0.1,1.9-0.1,2.8-0.1
		c1.9,0,3.7,0.2,5.6,0.6c3.6,0.9,7.1,2.5,10.7,3.4c1.8,0.5,3.6,0.5,5.5,0.3l1.4-0.2c0.5,0,0.9,0,1.4-0.1c0.9-0.1,1.9-0.1,2.8,0
		c3.7,0.1,7.5,0.4,11.1,1.2c3.7,0.7,7.2,2.1,10.7,3.3c3.5,1.3,7,2.6,10.3,4.3c1.7,0.9,3.3,1.8,4.8,2.9c1.5,1.1,3,2.3,4.5,3.4
		c1.4,1.2,2.9,2.4,4.3,3.6c1.4,1.2,2.7,2.6,4.1,3.8c2.7,2.6,5.1,5.5,7.8,8c2.7,2.5,5.9,4.4,9.3,5.9c0.9,0.3,1.7,0.7,2.6,1l2.7,0.8
		c0.9,0.2,1.8,0.3,2.7,0.5l1.4,0.2c0.5,0.1,0.9,0.1,1.4,0.1l2.8,0.1c0.9,0,1.9,0,2.8,0c1.9,0,3.7-0.1,5.5-0.3
		c1.8-0.2,3.6-0.5,5.3-1.3c0.8-0.3,1.6-0.9,2.2-1.4c0.7-0.6,1.3-1.2,1.8-2c0.5-0.7,1-1.5,1.4-2.4c0.4-0.8,0.8-1.6,1.1-2.5
		c0.7-1.7,1.1-3.5,1.2-5.3c0.1-1.8-0.1-3.6-0.9-5.2c-0.8-1.6-2-3-3.2-4.4c-1.2-1.4-2.5-2.8-3.4-4.6c-0.5-0.9-0.4-2-0.7-2.8
		c-0.2-0.8-0.7-1.6-1.3-2.1l0.3,0.1c-0.9,0.1-1.9,0.1-2.8-0.1c-0.5-0.1-1-0.4-1.3-0.8c-0.4-0.4-0.5-1-0.5-1.5c0-0.9,0.1-1.8,0.1-2.7
		c0.1-0.9,0.2-1.8,0.3-2.7c0.1-0.9,0.3-1.8,0.5-2.6c0.2-0.9,0.4-1.7,0.7-2.6l0.5-1.3l0.6-1.2c0.4-0.8,0.9-1.6,1.3-2.3
		c0.5-0.8,0.9-1.5,1.4-2.3c0.4-0.8,0.9-1.5,1.2-2.4c0.4-0.8,0.6-1.6,0.9-2.5c0.3-0.8,0.6-1.7,0.9-2.5c0.3-0.8,0.6-1.7,0.9-2.5
		c0.3-0.8,0.5-1.7,0.7-2.6c0.1-0.9,0.2-1.8,0-2.6c-0.2-0.8-0.9-1.5-1.8-1.7l0-0.1c0.9,0.2,1.7,0.9,1.9,1.8c0.3,0.9,0.2,1.8,0.1,2.7
		c-0.1,0.9-0.4,1.8-0.6,2.6c-0.3,0.9-0.5,1.7-0.8,2.5c-0.3,0.8-0.6,1.7-0.8,2.5c-0.3,0.8-0.5,1.7-0.9,2.5c-0.3,0.8-0.8,1.6-1.2,2.4
		c-0.4,0.8-0.9,1.6-1.3,2.3c-0.5,0.8-0.9,1.5-1.3,2.3l-0.6,1.2l-0.4,1.2c-0.2,0.8-0.5,1.7-0.6,2.6c-0.2,0.9-0.3,1.7-0.4,2.6
		c-0.1,0.9-0.2,1.8-0.3,2.6c-0.1,0.9-0.1,1.8-0.1,2.6c0,0.8,0.5,1.3,1.3,1.5c0.8,0.2,1.7,0.2,2.5,0.1l0.2,0l0.1,0.1
		c0.9,0.7,1.3,1.6,1.7,2.6c0.3,1,0.2,1.9,0.7,2.6c0.8,1.6,2.1,2.9,3.3,4.3c1.2,1.4,2.5,2.9,3.4,4.6c0.9,1.8,1.2,3.8,1,5.7
		c-0.1,1.9-0.6,3.8-1.3,5.6c-0.3,0.9-0.7,1.7-1.2,2.6c-0.4,0.8-0.9,1.7-1.5,2.5c-0.5,0.8-1.2,1.5-1.9,2.2c-0.8,0.6-1.6,1.2-2.5,1.6
		c-1.8,0.8-3.7,1.1-5.6,1.3c-1.9,0.2-3.8,0.3-5.6,0.3c-0.9,0-1.9,0-2.8,0l-2.8-0.2c-0.5,0-0.9,0-1.4-0.1l-1.4-0.2
		c-0.9-0.2-1.9-0.3-2.8-0.5l-2.7-0.8c-0.9-0.3-1.8-0.7-2.6-1c-3.4-1.5-6.7-3.5-9.5-6.1c-2.7-2.6-5.1-5.4-7.8-8.1
		c-1.3-1.3-2.7-2.6-4-3.8c-1.4-1.2-2.8-2.4-4.2-3.6c-1.5-1.1-2.9-2.3-4.4-3.4c-1.5-1.1-3.1-2-4.7-2.9c-3.3-1.7-6.8-3.1-10.3-4.4
		c-3.5-1.3-7-2.7-10.6-3.4c-3.6-0.7-7.4-1.1-11.1-1.2c-0.9,0-1.9,0-2.8,0c-0.5,0-0.9,0-1.4,0.1l-1.4,0.1c-1.9,0.2-3.8,0.2-5.6-0.4
		c-3.6-1-7-2.6-10.6-3.5c-1.8-0.4-3.7-0.6-5.5-0.7c-0.9,0-1.9,0-2.8,0.1l-1.4,0.1c-0.2,0-0.5,0-0.7,0c-0.1,0-0.2,0-0.4,0
		c-0.1,0-0.1,0-0.2-0.1C983,510.4,982.9,510.3,983,510.2L983,510.2z"/>
</g>
<g>
	<path fill="#FFFFFF" d="M1108,501.5c0,0,0.2-0.1,0.6-0.3c0.2-0.1,0.4-0.2,0.7-0.4c0.2-0.2,0.5-0.4,0.8-0.7c0.3-0.3,0.5-0.6,0.8-0.9
		c0.2-0.4,0.5-0.7,0.7-1.1c0.2-0.4,0.4-0.8,0.6-1.3c0.2-0.5,0.3-0.9,0.5-1.4c0.3-1,0.5-1.9,0.6-2.9c0.2-0.9,0.3-1.8,0.4-2.5
		c0-0.4,0.1-0.7,0.1-1c0-0.3,0-0.6,0-0.8c0-0.2,0-0.4-0.1-0.5c0-0.1-0.1-0.2-0.1-0.2l0.1-0.1c0,0,0,0,0.1,0.1
		c0.1,0.1,0.2,0.3,0.3,0.5c0.1,0.2,0.2,0.5,0.2,0.8c0.1,0.3,0.1,0.7,0.1,1.1c0,0.4,0,0.8,0,1.3c0,0.4-0.1,0.9-0.2,1.4
		c-0.2,1-0.5,2-0.9,2.9c-0.2,0.5-0.4,1-0.6,1.4c-0.2,0.5-0.5,0.9-0.8,1.3c-0.3,0.4-0.6,0.8-0.9,1.1c-0.3,0.3-0.6,0.6-0.9,0.9
		c-0.3,0.3-0.6,0.5-0.9,0.6c-0.3,0.2-0.5,0.3-0.7,0.4C1108.2,501.5,1108,501.5,1108,501.5L1108,501.5z"/>
</g>
<g>
	<path fill="#FFFFFF" d="M999.3,545.2c0.1,0.1,0.6,0.7,1.2,1.8c0.4,0.6,0.7,1.4,1,2.3c0.3,0.9,0.5,2.1,0.2,3.3
		c-0.1,0.6-0.3,1.2-0.4,1.8c-0.2,0.6-0.4,1.3-0.6,1.9c-0.4,1.3-0.9,2.7-1.5,4c-0.6,1.4-1.2,2.8-2.3,4.1c-0.5,0.6-1.2,1.2-2.1,1.4
		c-0.5,0.1-1,0.1-1.4-0.2c-0.2-0.1-0.4-0.3-0.6-0.4c-0.2-0.2-0.3-0.3-0.4-0.5c-0.5-0.7-0.8-1.5-1.1-2.3c-0.2-0.7-0.4-1.6-0.6-2.3
		c-0.3-1.6-0.4-3.2-0.3-4.7c0.1-1.5,0.2-3,0.6-4.4c0.4-1.4,0.9-2.6,1.8-3.6c0.5-0.5,0.9-0.8,1.3-1.2c0.4-0.3,0.8-0.7,1.2-1
		c0.8-0.6,1.5-1.1,2.2-1.3c0.3-0.1,0.7-0.1,1,0c0.3,0.1,0.4,0.4,0.5,0.6C999.3,545,999.3,545.2,999.3,545.2L999.3,545.2z
		 M999.2,545.3c0,0,0-0.2-0.2-0.5c-0.1-0.1-0.2-0.3-0.4-0.4c-0.2-0.1-0.5,0-0.8,0.1c-0.6,0.3-1.3,0.8-2,1.4
		c-0.7,0.6-1.5,1.4-2.3,2.2c-0.7,0.8-1.2,2-1.5,3.3c-0.3,1.3-0.5,2.7-0.5,4.2c-0.1,1.5,0,3,0.2,4.5c0.1,0.8,0.3,1.5,0.5,2.3
		c0.2,0.7,0.5,1.5,0.9,2c0.4,0.6,1,1,1.6,0.8c0.6-0.1,1.3-0.6,1.8-1.1c1-1.1,1.7-2.5,2.3-3.8c0.6-1.3,1.2-2.7,1.6-4
		c0.5-1.3,0.8-2.5,1.1-3.7c0.3-1.2,0.1-2.2-0.1-3.2c-0.3-0.9-0.6-1.7-1-2.3C999.7,545.9,999.2,545.3,999.2,545.3L999.2,545.3z"/>
</g>
<g>
	<path fill="#FFFFFF" d="M1017.2,513.5c0,0-0.1-0.1-0.3-0.2c-0.2-0.2-0.5-0.4-0.9-0.8c-0.4-0.4-0.8-0.9-1.1-1.5
		c-0.3-0.6-0.6-1.5-0.6-2.4c0-0.9,0.4-1.9,0.9-2.7c0.5-0.9,1.2-1.7,1.9-2.5c0.4-0.4,0.8-0.8,1.3-1.1c0.3-0.2,0.6-0.3,0.9-0.4
		l0.2-0.1c0.2,0,0.2,0,0.3,0l0.4,0c0.3,0,0.6,0.1,0.9,0.1c0.3,0.1,0.6,0.1,0.9,0.2c0.6,0.1,1.1,0.2,1.7,0.3c1.2,0.2,2.3,0.5,3.4,1
		c1.1,0.5,2.1,1,3,1.8c0.4,0.4,0.8,0.9,1.1,1.4c0.3,0.5,0.5,1.1,0.5,1.6c0.1,1.1,0,2.1-0.3,3c-0.2,0.9-0.6,1.6-1,2.3
		c-0.4,0.6-0.8,1.1-1.2,1.5c-0.4,0.4-0.7,0.6-1,0.7c-0.3,0.1-0.4,0.2-0.4,0.2l0-0.1c0,0,0.1-0.1,0.3-0.2c0.2-0.2,0.5-0.4,0.8-0.8
		c0.3-0.4,0.6-0.9,0.9-1.5c0.3-0.6,0.5-1.4,0.7-2.2c0.2-0.8,0.2-1.8,0.1-2.6l-0.1-0.4l0-0.2l-0.1-0.2c-0.1-0.2-0.2-0.4-0.3-0.6
		c-0.2-0.4-0.6-0.8-0.9-1.1c-0.7-0.7-1.7-1.2-2.7-1.7c-1-0.5-2.1-0.8-3.2-1.1c-0.6-0.1-1.2-0.2-1.7-0.4c-0.6-0.2-1.1-0.3-1.6-0.3
		c-1.1-0.1-2,0.5-2.7,1.3c-0.7,0.7-1.4,1.6-2,2.4c-0.5,0.8-0.9,1.7-0.9,2.5c-0.1,0.8,0.1,1.6,0.4,2.2c0.3,0.6,0.7,1.1,1,1.5
		c0.3,0.4,0.6,0.6,0.8,0.8C1017.1,513.4,1017.3,513.5,1017.2,513.5L1017.2,513.5z"/>
</g>
<g>
	<path fill="#FFFFFF" d="M1020.4,501.2c0,0,0-0.1,0.1-0.3c0.1-0.2,0.2-0.5,0.4-0.8c0.2-0.3,0.6-0.7,1.2-0.8c0.5-0.2,1.2-0.1,1.8,0.1
		c0.6,0.2,1.3,0.4,2,0.6c0.7,0.3,1.4,0.6,2.2,1c0.7,0.4,1.5,0.8,2.2,1.2c0.7,0.5,1.5,0.9,2.2,1.5c0.7,0.5,1.4,1.1,2,1.8l0.4,0.5
		l0.4,0.6c0.3,0.4,0.4,0.8,0.6,1.2c0.2,0.4,0.2,0.9,0.3,1.3c0,0.4,0,0.8,0,1.2c-0.1,0.4-0.2,0.8-0.2,1.2c-0.1,0.3-0.2,0.6-0.3,1
		c-0.6,1.3-1.3,2.1-1.8,2.7c-0.6,0.5-0.9,0.8-0.9,0.8l-0.1-0.1c0,0,0.1-0.1,0.2-0.2c0.1-0.2,0.3-0.4,0.5-0.7
		c0.2-0.3,0.5-0.7,0.7-1.1c0.3-0.5,0.4-1,0.7-1.6c0.1-0.3,0.2-0.6,0.3-1c0-0.3,0.1-0.6,0.1-1c0-0.3,0-0.7,0-1
		c-0.1-0.3-0.1-0.7-0.3-1.1c-0.1-0.3-0.2-0.7-0.5-1l-0.3-0.5l-0.4-0.5c-0.5-0.7-1.1-1.2-1.8-1.8c-0.6-0.5-1.4-1-2.1-1.5
		c-0.7-0.5-1.4-0.9-2.1-1.3c-0.7-0.4-1.4-0.7-2.1-1c-0.7-0.3-1.4-0.5-2-0.7c-0.6-0.2-1.2-0.3-1.7-0.1c-0.5,0.1-0.8,0.4-1.1,0.7
		c-0.2,0.3-0.4,0.5-0.4,0.7C1020.5,501.2,1020.5,501.3,1020.4,501.2L1020.4,501.2z"/>
</g>
<g>
	<path fill="#FFFFFF" d="M963,488.3c0,0-1.4,1.7-2.9,3.4c-0.4,0.4-0.7,0.9-1.1,1.2c-0.4,0.4-0.7,0.7-1.1,0.9
		c-0.7,0.5-1.2,0.7-1.2,0.7l-0.1-0.1c0,0,0.2-0.5,0.7-1.2c0.2-0.3,0.6-0.7,0.9-1.1c0.4-0.4,0.8-0.7,1.2-1.1
		C961.2,489.6,962.9,488.2,963,488.3L963,488.3z"/>
</g>
</svg>
