<?xml version="1.0" encoding="utf-8"?>
<!-- Generator: Adobe Illustrator 18.0.0, SVG Export Plug-In . SVG Version: 6.00 Build 0)  -->
<!DOCTYPE svg PUBLIC "-//W3C//DTD SVG 1.1//EN" "http://www.w3.org/Graphics/SVG/1.1/DTD/svg11.dtd">
<svg version="1.1" id="Layer_1" xmlns="http://www.w3.org/2000/svg" xmlns:xlink="http://www.w3.org/1999/xlink" x="0px" y="0px"
	 viewBox="0 0 1920 1080" enable-background="new 0 0 1920 1080" xml:space="preserve">
<path fill="#FFFFFF" stroke="#000000" stroke-miterlimit="10" d="M439.3,476.2c-3.6,2.4-3.5-5.6-0.1-8.3
	c67.9-53.5,151.3-87.2,237.3-96c8.8-0.9,18.1-1.5,26.1,2.2c20.4,9.3,20.8,37.5,19.7,60c-3.2,63.7,7.3,128,30.6,187.4
	c12.4,31.8,29.1,63,55.1,85.1c40.9,34.8,98.3,42,152,42.6"/>
<path fill="#FFFFFF" stroke="#000000" stroke-miterlimit="10" d="M937.6,182.6C920,293,932.3,408,972.8,512.2
	c12.4,31.7,27.6,63,50.7,88c23.1,25,55,43.4,89.1,44.3"/>
<path fill="none" stroke="#000000" stroke-miterlimit="10" d="M717.1,518.6c30.4,1.8,59.4-11.2,88-21.9
	c48.4-18.1,99-30.1,150.4-35.5"/>
<path fill="none" stroke="#000000" stroke-miterlimit="10" d="M1083.8,375.4c0,50.8,0,101.6,0,152.4"/>
<path fill="none" stroke="#000000" stroke-miterlimit="10" d="M1088.7,283c-1.2,2.6,3.4,6.1,3.9,3.2c-4.4-6.2-13.6-8.6-20.5-5.3
	c-0.5,1.7-1,3.7-0.2,5.3c0.8,1.6,3.6,2.1,4.3,0.5"/>
<path fill="none" stroke="#000000" stroke-miterlimit="10" d="M1292.8,186.1c-42.7,72-72.4,151.8-87.2,234.3"/>
<path fill="none" stroke="#000000" stroke-miterlimit="10" d="M1189.6,513.1c2,1.1,3.9,2.1,5.9,3.2c0.1-3.3,0.1-6.6,0.2-9.9
	c-3.2,0-6.3,0-9.5,0"/>
</svg>
