<?xml version="1.0" encoding="utf-8"?>
<!-- Generator: Adobe Illustrator 18.0.0, SVG Export Plug-In . SVG Version: 6.00 Build 0)  -->
<!DOCTYPE svg PUBLIC "-//W3C//DTD SVG 1.1//EN" "http://www.w3.org/Graphics/SVG/1.1/DTD/svg11.dtd">
<svg version="1.1" id="Layer_1" xmlns="http://www.w3.org/2000/svg" xmlns:xlink="http://www.w3.org/1999/xlink" x="0px" y="0px"
	 viewBox="0 0 1920 1080" enable-background="new 0 0 1920 1080" xml:space="preserve">
<g>
	<path fill="#FFFFFF" d="M999.1,588.4c0,0,0.1,2.4-0.3,6.7c-0.2,2.2-0.4,4.7-0.9,7.6c-0.5,3-1.2,6.2-2.1,9.7
		c-0.9,3.5-2.3,7.3-3.9,11.1c-1.6,3.9-3.8,7.7-6.1,11.7c-1.1,2-2.4,4-3.6,5.9c-1.2,2-2.6,4-3.9,6c-2.7,4-5.6,8-8.6,11.7l-2.3,2.8
		c-0.4,0.5-0.8,0.9-1.1,1.4l-0.3,0.4c0,0-0.1,0.1-0.1,0.2c0,0-0.1,0.1-0.1,0.2c-0.1,0.1-0.3,0.2-0.5,0c-0.2-0.2-0.2-0.3-0.2-0.3
		l0-0.1l0-0.1c0-0.4,0.1-0.7,0.3-1c0.7-2.4,1.4-4.6,2.3-6.9s1.6-4.5,2.4-6.7c0.4-1.1,0.8-2.2,1.2-3.3c0.4-1.1,0.8-2.2,1.2-3.2
		c1.5-4.3,2.8-8.5,4.1-12.5c1.3-4,2.5-7.8,3.4-11.2c1.1-3.5,1.9-6.7,2.7-9.5c0.8-2.9,1.4-5.3,1.8-7.4c0.2-1,0.4-2,0.6-2.8
		c0.1-0.8,0.2-1.5,0.3-2.1c0-1.1,0-1.8,0-1.8l0.1,0c0,0,0,0.6,0,1.8c-0.1,0.6-0.1,1.3-0.3,2.1c-0.1,0.8-0.2,1.7-0.5,2.8
		c-0.2,1-0.4,2.2-0.7,3.4c-0.2,1.2-0.6,2.6-0.9,4c-0.7,2.9-1.6,6.1-2.5,9.7c-0.9,3.5-2.1,7.3-3.3,11.4c-1.2,4-2.5,8.2-4.1,12.5
		c-0.4,1.1-0.8,2.2-1.1,3.3c-0.5,1-0.8,2.2-1.3,3.2c-0.8,2.2-1.7,4.4-2.5,6.6c-0.8,2.3-1.6,4.5-2.3,6.8c-0.1,0.3-0.2,0.5-0.1,0.8
		l0,0l0,0c-0.1-0.1,0.1-0.1-0.2-0.3c-0.2-0.1-0.4,0-0.4,0s-0.1,0.1,0,0l0,0l0.3-0.3c0.4-0.5,0.8-0.9,1.1-1.4l2.3-2.8
		c3.1-3.8,5.9-7.7,8.7-11.6c1.4-2,2.6-3.9,3.9-6c1.2-2,2.5-3.9,3.6-5.9c2.3-3.9,4.6-7.7,6.2-11.6c1.7-3.8,3-7.6,4-11.1
		c1-3.4,1.7-6.7,2.2-9.7c0.5-2.9,0.8-5.5,1-7.6C999.1,590.8,999,588.4,999.1,588.4L999.1,588.4z"/>
</g>
<g>
	<path fill="#FFFFFF" d="M976.1,652.1c0,0,4.4,3.8,8.7,7.5c1.1,0.9,2.2,1.9,3.1,2.8c0.9,0.9,1.9,1.8,2.6,2.6
		c0.7,0.8,1.4,1.5,1.8,1.9c0.4,0.5,0.7,0.8,0.7,0.8l-0.1,0.1c0,0-0.3-0.3-0.8-0.6c-0.5-0.4-1.2-0.9-2.1-1.6
		c-0.9-0.7-1.8-1.4-2.8-2.4c-0.9-0.9-2-2-3-3C980.1,656.2,976.1,652.2,976.1,652.1L976.1,652.1z"/>
</g>
<g>
	<path fill="#FFFFFF" d="M955.6,584.4c0,0-0.1,0.3-0.4,0.8c-0.3,0.5-0.8,1.3-1.5,2.1c-0.4,0.5-0.8,0.9-1.3,1.3c-0.5,0.5-1.1,0.9-2,1
		c-1.6,0-3.2,0.6-4.8,1.6c-0.8,0.5-1.6,1.2-2.2,1.9c-0.7,0.7-1.3,1.6-1.6,2.6c-0.3,1-0.3,2.1-0.2,3.2c0.1,1.1,0.4,2.2,0.6,3.4
		c0.5,2.3,1.1,4.6,1.9,7.1c0.8,2.4,1.5,4.8,2.5,7.1c1,2.3,2.2,4.5,3.5,6.7c1.2,2.1,2.6,4.1,3.9,6.1c1.3,2,2.7,3.8,4.1,5.5
		c0.7,0.8,1.4,1.6,2,2.4c0.7,0.8,1.4,1.5,1.9,2.2c1.4,1.4,2.5,2.7,3.6,3.7c1.1,1,2.2,1.9,3,2.7c0.9,0.7,1.6,1.2,2.1,1.6
		c0.5,0.4,0.7,0.6,0.7,0.6l-0.1,0.1c0,0-0.2-0.2-0.8-0.5c-0.5-0.3-1.3-0.8-2.1-1.5c-0.9-0.7-2-1.5-3.2-2.4c-1.2-1-2.5-2.2-3.8-3.6
		c-0.6-0.6-1.4-1.4-2.1-2.2c-0.7-0.8-1.4-1.6-2-2.4c-1.4-1.6-2.8-3.5-4.1-5.5c-1.3-2-2.6-4.1-3.9-6.3c-1.2-2.1-2.5-4.4-3.3-6.8
		c-0.9-2.4-1.6-4.8-2.4-7.2c-0.8-2.4-1.3-4.8-1.8-7.1c-0.2-1.2-0.5-2.3-0.5-3.5c-0.1-1.1-0.2-2.3,0.2-3.4c0.4-1.1,1.1-2,1.8-2.7
		c0.7-0.7,1.5-1.4,2.3-1.9c0.8-0.5,1.7-1,2.5-1.2c0.4-0.2,0.8-0.2,1.3-0.3s0.8-0.1,1.2-0.1c0.7-0.1,1.3-0.5,1.9-0.9
		c0.5-0.4,1-0.9,1.3-1.3c0.7-0.9,1.2-1.6,1.5-2.1C955.4,584.7,955.5,584.4,955.6,584.4L955.6,584.4z"/>
</g>
<g>
	<path fill="#FFFFFF" d="M977.6,655l-2.8,5.2c-0.9,1.8-1.8,3.5-2.8,5.2l-5.8,10.4l-1.4,2.6c-0.5,0.9-1,1.7-1.4,2.6l-3,5.2l-6.1,10.2
		l-0.8-0.4c2-5.3,4-10.7,6-16l3.1-7.9l1.6-4l0.8-1.9c0.3-0.7,0.6-1.3,0.7-2l0.1,0c-0.1,0.7-0.4,1.4-0.6,2.1l-0.6,2.1
		c-0.4,1.3-0.9,2.7-1.4,4.1c-0.9,2.7-1.9,5.3-2.8,8c-1.9,5.4-3.9,10.7-6,16l-0.8-0.4l6.3-10.1l3.1-5.1c0.6-0.8,1-1.7,1.5-2.5
		l1.5-2.5l6-10.3c1-1.7,2-3.4,2.9-5.2L977.6,655L977.6,655z"/>
</g>
<g>
	<path fill="#FFFFFF" d="M950.1,619.4c0,0,0.3,0.5,0.8,1.1c0.5,0.7,1.2,1.7,2.2,2.8c0.5,0.5,1.1,1,1.8,1.4c0.7,0.3,1.6,0.7,2.4,1
		c0.9,0.3,1.7,0.7,2.6,1.1c0.5,0.2,0.9,0.3,1.3,0.6l0.7,0.3c0.2,0,0.5,0.2,0.7,0.3c0.8,0.6,1.7,1.1,2.6,1.4c0.8,0.4,1.7,0.8,2.5,1
		c0.4,0.1,0.8,0.3,1.2,0.4s0.8,0.1,1.2,0.2c0.4,0.1,0.8,0.1,1.1,0c0.4,0,0.7-0.1,1.1-0.1c0.3-0.1,0.7-0.1,1-0.2
		c0.3-0.1,0.6-0.1,0.9-0.3c0.5-0.3,1-0.5,1.3-0.7c0.7-0.4,1.1-0.8,1.1-0.8l0.1,0.1c0,0-0.4,0.3-1,1c-0.3,0.2-0.8,0.5-1.3,0.9
		c-0.3,0.2-0.6,0.3-0.9,0.4c-0.2,0.1-0.3,0.1-0.5,0.2c-0.1,0-0.3,0.1-0.5,0.1c-0.3,0.1-0.8,0.2-1.2,0.2c-0.4,0-0.8,0.1-1.3,0
		c-0.2,0-0.5,0-0.6,0c-0.2,0-0.4-0.1-0.7-0.1c-0.4-0.1-0.9-0.2-1.4-0.4c-0.9-0.3-1.9-0.7-2.6-1.2c-0.9-0.5-1.7-1.1-2.4-1.6
		c-0.2-0.1-0.3-0.3-0.6-0.4l-0.7-0.3c-0.5-0.2-1-0.4-1.3-0.6c-0.9-0.3-1.8-0.8-2.6-1.2c-0.8-0.4-1.6-0.7-2.4-1.2
		c-0.8-0.5-1.3-1.1-1.8-1.6c-1-1.2-1.6-2.2-2.2-2.9C950.3,620,950,619.5,950.1,619.4L950.1,619.4z"/>
</g>
<g>
	<path fill="#FFFFFF" d="M969.4,607.2c5.1,5.4,10.3,10.8,15.5,16l3.9,3.9c1.3,1.3,2.7,2.6,4,3.9c1.4,1.4,2.8,2.5,4.2,3.8l4.3,3.6
		c1.5,1.2,2.8,2.4,4.2,3.7l4.2,3.7l4.2,3.7c1.4,1.3,2.9,2.3,4.4,3.5c1.5,1.2,3,2.2,4.6,3.2c1.5,1,3.1,2,4.7,2.9s3.2,1.7,5,2.2
		c0.8,0.3,1.8,0.3,2.7,0.5l2.7,0.4l-0.3,0.8c-2.8-1.6-5.5-3.3-8.3-5c-2.7-1.7-5.4-3.5-8-5.4c-1.3-0.9-2.6-1.9-3.8-2.9
		c-1.2-1-2.5-2-3.7-3.2c-1.2-1.1-2.3-2.5-3.2-3.7l-2.8-3.9c-0.9-1.3-1.8-2.6-2.8-3.9l-2.7-4l-5.4-8l-5.3-8c-1.8-2.7-3.4-5.5-5.1-8.1
		l0.1-0.1c1.8,2.6,3.5,5.3,5.4,8l5.5,7.9l5.6,7.9l2.8,3.9c0.9,1.3,1.9,2.6,2.8,3.9l2.8,3.9c0.5,0.7,0.9,1.3,1.4,1.9
		c0.5,0.7,1,1.2,1.6,1.7c1.1,1.2,2.4,2.2,3.6,3.2c1.2,1,2.5,2,3.8,2.9s2.6,1.9,3.9,2.8s2.7,1.8,4,2.7c2.7,1.8,5.4,3.5,8.1,5l1.9,1.2
		l-2.2-0.3l-2.7-0.4c-0.9-0.1-1.9-0.2-2.8-0.5c-1.8-0.6-3.5-1.4-5.2-2.4c-1.6-0.9-3.2-1.9-4.8-3c-1.5-1.1-3.1-2.1-4.5-3.3
		c-1.5-1.2-2.9-2.3-4.3-3.6l-4.2-3.7l-4.2-3.7c-1.4-1.3-2.8-2.5-4.2-3.7l-4.3-3.6c-1.4-1.3-2.8-2.4-4.2-3.8c-1.4-1.4-2.7-2.6-4-4
		l-3.9-3.9C979.5,618,974.4,612.6,969.4,607.2L969.4,607.2z"/>
</g>
<g>
	<path fill="#FFFFFF" d="M1031.6,583.5c0,0,0,1.1,0.1,3c0,0.9,0,2.1,0,3.5c0,1.3-0.1,2.8,0,4.5c0,1.6-0.2,3.4-0.3,5.3
		c-0.1,1.9-0.4,3.8-0.5,5.9c-0.3,2.1-0.6,4.1-1,6.3c-0.6,2.1-0.9,4.3-1.5,6.3c-0.6,2.1-1.1,4.2-1.5,6.3c-0.4,2.1-0.8,4.2-1.2,6.2
		c-0.4,2-0.6,4-1,5.9c-0.3,1.8-0.6,3.6-0.9,5.2s-0.5,3.1-0.6,4.4s-0.3,2.5-0.4,3.4c-0.1,0.9-0.2,1.7-0.2,2.2c0,0.5,0,0.8,0,0.8
		l-0.1,0.1c0,0-0.1-0.3-0.1-0.8s0-1.3,0-2.2c0-1.9,0.3-4.7,0.7-8c0.2-1.7,0.4-3.4,0.7-5.3s0.6-3.8,1-5.8c0.4-2,0.8-4.1,1.3-6.2
		c0.5-2,1-4.2,1.7-6.4c0.6-2.1,1.1-4.2,1.6-6.3c0.4-2.1,0.7-4.2,1.1-6.2c0.2-2,0.5-4,0.7-5.9c0.1-1.9,0.3-3.7,0.4-5.2
		c0-1.6,0.1-3.1,0.2-4.5c0-1.3,0.1-2.5,0.1-3.4C1031.5,584.6,1031.5,583.5,1031.6,583.5L1031.6,583.5z"/>
</g>
<g>
	<path fill="#FFFFFF" d="M1022.3,657l1.3,12.7l1.4,12.7c0.2,2.1,0.6,4.2,0.8,6.3c0.3,2.2,0.6,4.2,0.9,6.4c0.4,2.1,0.6,4.2,0.9,6.4
		c0.2,2.1,0.5,4.3,0.9,6.4c0.1,0.6,0.2,1,0.3,1.5c0.1,0.5,0.3,1,0.4,1.5l1.2,3c0.7,2,1.4,4.1,2,6.1s1.3,4.1,1.9,6.1l1,3.1l0.8,3.1
		l1.7,6.2l1.9,6.1l1.9,6.1c0.3,1,0.6,2.1,1,3c0.5,1,0.9,1.9,1.6,2.7l-0.5,0.5c-1.8-1.9-3.7-3.9-5.4-5.8c-0.9-1-1.8-1.9-2.7-2.9
		c-0.9-1-1.8-1.9-2.6-3c-0.8-1.1-1.7-2-2.5-3.1l-1.2-1.6c-0.3-0.5-0.8-1.1-1.1-1.7c-1.5-2.3-2.4-4.8-3.6-7.2
		c-1.1-2.4-2.1-4.8-3.3-7.3c-1.1-2.4-2.1-4.9-3.1-7.3c-1-2.5-1.9-4.9-2.8-7.5c-0.5-1.3-0.8-2.6-1.3-3.8l-0.8-3.9
		c-0.6-2.6-1.1-5.1-1.7-7.8c-0.5-2.6-1-5.2-1.4-7.8c-0.5-2.6-0.9-5.2-1.3-7.8l-1-7.9c-0.4-2.7-0.8-5.2-1.4-7.8
		c-0.5-2.6-1-5.2-1.5-7.8c-1-5.2-2.2-10.4-3.2-15.6l0.1,0l1.9,7.7c0.6,2.6,1.2,5.2,1.8,7.8c0.6,2.6,1.1,5.1,1.7,7.8
		c0.5,2.6,1,5.2,1.5,7.9l1.1,7.8c0.3,2.6,0.8,5.2,1.3,7.8c0.5,2.6,1,5.2,1.5,7.8s1,5.2,1.7,7.8l0.8,3.9c0.4,1.2,0.7,2.5,1.2,3.7
		c0.8,2.5,1.9,5,2.8,7.5c2,4.8,4.1,9.7,6.2,14.6l1.6,3.6c0.6,1.1,1.1,2.4,1.8,3.5c0.3,0.5,0.7,1.1,1.1,1.7l1.2,1.6
		c0.8,1.1,1.6,2.1,2.5,3.1c1.7,2,3.4,4,5.2,6c1.8,1.9,3.5,3.9,5.4,5.8l-0.5,0.5c-0.7-0.8-1.3-1.9-1.7-2.9c-0.5-1-0.6-2.1-1.1-3.1
		l-1.9-6.1l-1.8-6.2l-1.6-6.2l-0.8-3.1l-0.9-3c-0.6-2.1-1.2-4.1-1.9-6.1c-0.6-2.1-1.2-4.1-2-6.1l-1-3c-0.1-0.5-0.4-1.1-0.5-1.6
		s-0.2-1-0.3-1.5c-0.4-2.1-0.5-4.3-0.7-6.4c-0.2-2.1-0.5-4.3-0.8-6.3c-0.4-2.1-0.6-4.2-0.9-6.4c-0.2-2.1-0.6-4.2-0.7-6.4l-1.3-12.8
		L1022.3,657L1022.3,657z"/>
</g>
<g>
	<path fill="#FFFFFF" d="M1017,713.6c0,0-2.7-4.3-6.7-10.8c-2-3.3-4.3-7.1-6.9-11.1c-0.3-0.5-0.6-1-0.9-1.5s-0.5-1.1-0.8-1.7
		c-0.5-1.1-1-2.2-1.6-3.4c-0.5-1.2-1-2.2-1.6-3.5c-0.5-1.2-1-2.3-1.5-3.5c-2-4.7-4-9.4-5.7-13.8c-0.9-2.3-1.7-4.4-2.5-6.4
		c-0.8-2.1-1.5-4-2.2-5.7c-0.6-1.8-1.2-3.4-1.8-4.9c-0.5-1.4-1-2.7-1.3-3.8c-0.7-2.1-1.1-3.4-1.1-3.4l0.1,0c0,0,2,4.7,4.9,11.8
		c1.4,3.6,3.1,7.6,4.9,12.1c0.9,2.3,1.8,4.5,2.7,6.8s1.8,4.7,2.8,7c0.5,1.2,1,2.3,1.4,3.5c0.5,1.2,1,2.3,1.4,3.5
		c0.5,1.2,1,2.3,1.5,3.4c0.3,0.6,0.5,1.1,0.8,1.7c0.2,0.5,0.6,1,0.9,1.6c2.4,4.2,4.7,7.9,6.6,11.3
		C1014.5,709.1,1017.1,713.6,1017,713.6L1017,713.6z"/>
</g>
<g>
	<path fill="#FFFFFF" d="M984.2,638.4c0,0,6.1,14.5,12.3,28.9c1.6,3.6,3,7.2,4.5,10.6c0.7,1.7,1.3,3.3,1.9,5
		c0.5,1.6,1.1,3.1,1.6,4.5c0.5,1.4,0.9,2.7,1.3,3.8c0.3,1.2,0.7,2.2,1,3c0.5,1.7,0.8,2.6,0.8,2.6l-0.1,0c0,0-0.4-1-1-2.5
		c-0.3-0.8-0.7-1.7-1.1-2.9c-0.4-1.1-1-2.3-1.5-3.7c-2.1-5.5-5.1-12.8-7.9-20.1C990,653.1,984.2,638.4,984.2,638.4L984.2,638.4z"/>
</g>
<g>
	<path fill="#FFFFFF" d="M986.9,633.5c0,0,0.4,1.1,1.1,2.9c0.4,1,0.8,2.1,1.3,3.3c0.5,1.3,1.1,2.8,1.7,4.4s1.3,3.3,2,5.1
		c0.7,1.8,1.7,3.7,2.5,5.6c0.8,2,1.8,4,2.7,6c0.9,2.1,1.7,4.2,2.6,6.3s1.7,4.2,2.6,6.3s1.6,4.2,2.4,6.2c0.6,2.1,1.5,4,1.9,5.9
		c0.5,1.9,0.8,3.8,1.1,5.4c0.3,1.7,0.6,3.2,1.1,4.6c0.1,0.3,0.3,0.6,0.3,0.9c0.2,0.3,0.3,0.5,0.5,0.8c0.3,0.5,0.6,1,0.9,1.4
		c1.1,1.7,1.8,2.6,1.8,2.6l-0.1,0.1c0,0-0.7-0.8-2-2.4c-0.3-0.4-0.7-0.8-1-1.3c-0.2-0.3-0.3-0.5-0.5-0.8c-0.1-0.3-0.3-0.6-0.4-1
		c-0.4-1.4-0.9-2.9-1.3-4.6s-0.8-3.5-1.3-5.3c-0.5-1.9-1.2-3.8-2-5.8c-0.6-2.1-1.5-4-2.3-6.2c-0.7-2.1-1.6-4.2-2.4-6.4
		c-0.9-2.1-1.7-4.3-2.4-6.4c-0.9-2-1.8-4.1-2.6-6.1c-0.8-2-1.8-3.9-2.5-5.7s-1.4-3.6-2-5.2c-0.6-1.6-1.1-3.1-1.6-4.4
		c-0.5-1.3-0.8-2.5-1.2-3.4C987.3,634.6,986.9,633.5,986.9,633.5L986.9,633.5z"/>
</g>
<g>
	<path fill="#FFFFFF" d="M988,631.4c0,0,3.1,7.6,6,15.4c0.4,1,0.8,1.9,1.2,2.9s0.8,1.9,1.1,2.8c0.3,0.9,0.6,1.9,0.8,2.7
		c0.2,0.8,0.5,1.7,0.6,2.4c0.2,0.7,0.4,1.5,0.5,2.1s0.3,1.1,0.4,1.6c0.2,0.9,0.3,1.4,0.3,1.4l-0.1,0c0,0-0.2-0.5-0.5-1.3
		c-0.2-0.4-0.4-1-0.6-1.5c-0.2-0.5-0.4-1.2-0.7-2s-0.6-1.5-0.8-2.3c-0.3-0.9-0.5-1.7-0.8-2.6c-0.2-1-0.6-1.8-0.9-2.8
		c-0.4-1-0.6-1.9-1-2.9C990.6,639.3,987.9,631.4,988,631.4L988,631.4z"/>
</g>
<g>
	<path fill="#FFFFFF" d="M984.8,636.7c0,0,4.7,10,9.3,20c1.2,2.5,2.4,5,3.4,7.4c0.6,1.2,1,2.4,1.4,3.5c0.4,1.1,0.9,2.1,1.2,3.1
		s0.7,1.8,0.9,2.7c0.3,0.8,0.5,1.4,0.6,2.1c0.3,1.2,0.6,1.8,0.6,1.8l-0.1,0c0,0-0.3-0.6-0.8-1.7c-0.2-0.5-0.6-1.2-0.8-2
		s-0.7-1.6-1.1-2.6s-0.9-1.9-1.4-3.1c-0.5-1.1-1-2.2-1.5-3.4c-1-2.4-2.1-4.9-3.2-7.5C989,647,984.7,636.8,984.8,636.7L984.8,636.7z"
		/>
</g>
<g>
	<path fill="none" d="M989.8,629"/>
</g>
<g>
	<path fill="#FFFFFF" d="M1014.1,650.6c0,0,1.5,6.1,3.7,15.3c0.5,2.4,1.1,4.9,1.7,7.4c0.7,2.6,1.1,5.4,1.7,8.3s1.1,5.9,1.6,9
		c0.5,3,1,6.2,1.7,9.2c0.6,3.1,1.3,6.2,1.9,9.3c0.7,3,1.1,6.1,1.4,9c0.5,2.9,0.7,5.8,1.4,8.3c0.1,0.6,0.4,1.2,0.6,1.9
		c0.2,0.5,0.5,1.2,0.8,1.8c0.5,1.2,1,2.2,1.5,3.4c0.9,2.2,1.9,4.2,2.5,6c0.5,1.9,0.9,3.5,1.2,4.8c0.6,2.7,0.9,4.2,0.9,4.2l-0.1,0
		c0,0-0.4-1.5-1.2-4.2c-0.4-1.3-0.9-2.9-1.4-4.8c-0.6-1.8-1.6-3.7-2.6-5.8c-0.5-1.1-1-2.2-1.6-3.3c-0.3-0.6-0.5-1.2-0.8-1.8
		c-0.2-0.7-0.5-1.3-0.6-2c-0.6-2.7-0.9-5.5-1.4-8.5c-0.5-2.9-0.8-6-1.4-9c-0.6-3.1-1.2-6.2-1.8-9.3c-0.6-3.1-1-6.2-1.6-9.3
		c-0.5-3.1-0.9-6.2-1.4-9c-0.5-2.9-1-5.7-1.6-8.4c-0.6-2.6-1.1-5.1-1.6-7.4C1015.4,656.8,1014,650.6,1014.1,650.6L1014.1,650.6z"/>
</g>
<g>
	<path fill="#FFFFFF" d="M1018.6,653.4c0,0,1.6,9.9,3.2,19.9c0.4,2.5,0.9,5,1.2,7.3c0.1,1.1,0.3,2.3,0.4,3.4c0.1,1.1,0.2,2.1,0.4,3
		s0.2,1.8,0.3,2.5c0.2,0.8,0.1,1.4,0.2,2c0.1,1.1,0.2,1.7,0.2,1.7l-0.1,0c0,0-0.1-0.6-0.5-1.7c-0.1-0.5-0.3-1.2-0.5-1.9
		s-0.4-1.6-0.5-2.6c-0.2-0.9-0.3-2-0.5-3c-0.2-1-0.3-2.2-0.5-3.4c-0.3-2.3-0.6-4.8-0.9-7.3C1019.7,663.3,1018.5,653.3,1018.6,653.4
		L1018.6,653.4z"/>
</g>
<g>
	<path fill="#FFFFFF" d="M1010.9,646.9c0,0,1,4,2.3,10c0.3,1.5,0.7,3.1,1.1,4.9c0.4,1.7,0.8,3.6,1.1,5.4c0.3,2,0.7,3.9,1,5.9
		c0.5,1.9,0.9,4,1.5,6c1,4,2,8,3,11.7c0.4,1.9,0.9,3.7,1.2,5.5c0.3,1.8,0.6,3.4,0.9,5c1,6.1,1.6,10.2,1.6,10.2l-0.1,0
		c0,0-1-4-2.3-10.1c-0.3-1.5-0.6-3.2-1.1-4.9c-0.4-1.7-0.9-3.5-1.3-5.4c-0.9-3.8-1.8-7.8-2.8-11.8c-0.4-2-0.9-4-1.3-6.1
		c-0.2-1-0.3-2-0.5-3c-0.1-1-0.3-2-0.5-2.9c-0.3-1.9-0.7-3.8-1-5.4c-0.4-1.7-0.6-3.3-0.9-4.9C1011.6,651,1010.8,647,1010.9,646.9
		L1010.9,646.9z"/>
</g>
<g>
	<path fill="#FFFFFF" d="M1007.3,645.5c0,0,0.2,1.2,0.5,3.1c0.3,2,0.8,4.9,1.4,8.3c0.3,1.7,0.7,3.6,1,5.6c0.2,1,0.3,2,0.5,3
		s0.5,2.1,0.7,3.1c0.4,2.2,1,4.4,1.4,6.5c0.5,2.2,1,4.5,1.5,6.7c0.5,2.2,1.1,4.5,1.6,6.7s1,4.4,1.7,6.5c0.6,2.1,1.1,4.1,1.6,6.1
		c0.5,1.9,1,3.7,1.4,5.4s0.8,3.3,1.2,4.6c0.2,0.7,0.4,1.3,0.6,1.9c0.2,0.5,0.3,1.2,0.5,1.7c0.6,2,0.9,3,0.9,3l-0.1,0.1
		c0,0-0.4-1.1-1.2-3c-0.4-1-0.9-2.1-1.2-3.4c-0.4-1.4-0.9-2.9-1.5-4.5c-0.5-1.7-1-3.5-1.6-5.4c-0.6-1.9-1.1-3.9-1.6-6.1
		c-0.6-2.1-1-4.3-1.5-6.5c-0.5-2.2-1-4.5-1.4-6.8c-0.5-2.2-1-4.5-1.4-6.8c-0.5-2.3-0.9-4.5-1.3-6.6c-0.2-1-0.4-2.2-0.6-3.2
		c-0.2-1-0.4-2.1-0.5-3.1c-0.3-2-0.6-3.8-0.9-5.6c-0.6-3.4-0.9-6.3-1.2-8.3C1007.4,646.7,1007.2,645.5,1007.3,645.5L1007.3,645.5z"
		/>
</g>
<g>
	<path fill="#FFFFFF" d="M995.5,633.8c0,0,1.1,2.6,2.7,6.5c0.4,1,0.8,2.1,1.3,3.2c0.4,1.1,0.8,2.3,1.2,3.6c0.4,1.2,0.7,2.6,1,4
		c0.3,1.4,0.5,2.7,0.7,4.2c0.4,2.8,0.9,5.5,1.4,8.2c0.1,1.3,0.3,2.6,0.4,3.8c0.1,1.2,0.2,2.3,0.4,3.4c0.1,1,0.1,2,0.2,2.8
		c0,0.9,0.1,1.6,0,2.2c-0.1,1.2-0.2,1.9-0.2,1.9l-0.1,0c0,0-0.1-0.7-0.1-1.9c0-0.6-0.2-1.3-0.3-2.2c-0.1-0.8-0.2-1.8-0.4-2.9
		c-0.3-2-0.6-4.5-1-7.1c-0.3-2.6-0.8-5.4-1.1-8.2c-0.2-1.3-0.4-2.8-0.6-4.1c-0.2-1.3-0.5-2.7-0.8-3.9c-0.4-1.2-0.8-2.5-1.2-3.6
		c-0.3-1.2-0.8-2.2-1.1-3.2C996.4,636.5,995.4,633.9,995.5,633.8L995.5,633.8z"/>
</g>
<g>
	<path fill="#FFFFFF" d="M989.8,629c0,0,0.3,0.6,0.9,1.6c0.5,1.1,1.3,2.5,2.2,4.3c0.4,0.9,0.9,1.9,1.4,2.9c0.2,0.5,0.4,1.1,0.6,1.6
		c0.2,0.5,0.5,1.2,0.6,1.8c0.6,2.4,1.4,5,2,7.5c0.7,2.6,1.4,5.1,2,7.5c0.3,1.3,0.6,2.4,0.9,3.5c0.3,1.1,0.4,2.2,0.7,3.1
		c0.2,1,0.4,1.9,0.5,2.7c0.1,0.8,0.2,1.5,0.2,2.1c0.1,0.6,0,1.1,0.1,1.3c0,0.4,0,0.5,0,0.5l-0.1,0c0,0,0-0.1,0-0.4
		c0-0.3-0.2-0.8-0.2-1.3c-0.1-0.6-0.3-1.3-0.4-2c-0.2-0.8-0.5-1.7-0.7-2.6c-0.2-1-0.6-2-0.8-3.1c-0.3-1.1-0.6-2.3-0.9-3.5
		c-0.6-2.4-1.2-5-1.8-7.6c-0.6-2.6-1.3-5.1-1.9-7.6c-0.1-0.6-0.3-1.2-0.5-1.7c-0.2-0.5-0.4-1.1-0.6-1.6c-0.4-1.1-0.8-2.1-1.2-2.9
		c-0.7-1.8-1.5-3.4-2-4.4C990,629.6,989.7,629,989.8,629L989.8,629z"/>
</g>
<g>
	<path fill="#FFFFFF" d="M1003,629.9c0,0-0.1-0.1-0.1-0.2c-0.1-0.2-0.2-0.4-0.3-0.8c-0.2-0.5-0.5-1.4-0.8-2.5
		c-0.6-2.1-1.5-4.8-2.4-7.6c-0.4-1.4-0.9-2.8-1.2-4.1c-0.4-1.3-0.6-2.6-0.8-3.6c-0.2-1-0.3-2-0.3-2.6s0-1.1,0-1.1l0.1,0
		c0,0,0.4,1.4,1.1,3.4c0.3,1,0.7,2.2,1,3.5s0.6,2.7,0.9,4.1c0.7,2.8,1.4,5.6,1.9,7.6c0.3,1,0.5,1.9,0.7,2.5c0.1,0.3,0.2,0.5,0.2,0.7
		C1003,629.7,1003,629.9,1003,629.9L1003,629.9z"/>
</g>
<g>
	<path fill="#FFFFFF" d="M1008.7,638.9c0,0-0.7-2.5-1.8-6.4c-0.6-1.9-1.2-4.1-1.9-6.4c-0.3-1.2-0.8-2.4-1-3.7
		c-0.4-1.3-0.7-2.5-1-3.8c-0.6-2.6-1.3-5.1-1.9-7.6c-0.3-1.3-0.5-2.4-0.8-3.5c-0.3-1.1-0.4-2.2-0.5-3.1c-0.3-2-0.6-3.6-0.8-4.8
		c-0.1-1.1-0.3-1.8-0.3-1.8l0.1,0c0,0,0.1,0.6,0.5,1.7c0.2,0.5,0.3,1.2,0.6,2c0.2,0.8,0.5,1.7,0.7,2.6c0.2,1,0.5,1.9,0.7,3
		c0.3,1.1,0.5,2.2,0.8,3.5c0.5,2.4,1.1,5,1.6,7.5c0.3,1.3,0.6,2.6,0.9,3.8c0.3,1.3,0.6,2.4,0.9,3.7c0.6,2.4,1.2,4.6,1.7,6.5
		C1008.2,636.3,1008.8,638.8,1008.7,638.9L1008.7,638.9z"/>
</g>
<g>
	<path fill="#FFFFFF" d="M1015,646c0,0-1.3-5.3-3.5-13.4c-0.6-2-1.1-4.1-1.9-6.3s-1.7-4.6-2.6-7s-1.8-4.9-2.7-7.5
		c-0.5-1.3-0.8-2.6-1.3-4c-0.1-0.7-0.4-1.4-0.4-2.1l-0.2-2.1c-0.2-2.7-0.6-5.5-0.9-8.2c-0.2-1.3-0.4-2.7-0.7-3.9
		c-0.1-0.3-0.1-0.6-0.2-1c-0.1-0.3-0.2-0.5-0.3-0.9c0-0.1-0.1-0.2-0.2-0.3l-0.1-0.1l-0.1-0.1l-0.2-0.1c-0.2-0.2-0.5-0.2-0.7-0.4
		c-1-0.5-2.3-0.6-3.4-0.4c-0.3,0-0.5,0.1-0.8,0.3c-0.1,0-0.2,0.1-0.3,0.2c-0.1,0.1-0.2,0.2-0.3,0.2c-0.5,0.4-0.8,0.9-1.3,1.3
		c-0.8,0.8-1.4,1.7-1.8,2.8c0,0.2-0.2,0.5-0.2,0.7c0,0.2-0.2,0.5-0.2,0.7c-0.2,0.5-0.2,1.1-0.3,1.5c-0.4,2-1,3.8-1.5,5.5
		c-0.5,1.6-0.9,3-1.3,4.2c-0.8,2.3-1.3,3.6-1.3,3.6l-0.1-0.1c0,0,0.4-1.4,1-3.7c0.3-1.2,0.7-2.6,1.1-4.2c0.3-0.8,0.5-1.7,0.7-2.6
		c0.3-1,0.4-1.9,0.6-2.8c0.2-0.5,0.2-1,0.3-1.5c0-0.2,0.1-0.6,0.2-0.9c0.1-0.3,0.2-0.5,0.3-0.8c0.4-1.1,1.1-2.1,1.9-3.1
		c0.4-0.5,0.8-0.9,1.2-1.3c0.1-0.2,0.2-0.2,0.4-0.3c0.1-0.2,0.3-0.2,0.4-0.3c0.3-0.2,0.7-0.4,1-0.4c1.4-0.3,2.8-0.2,4,0.4
		c0.3,0.1,0.6,0.4,1,0.5c0.2,0.1,0.6,0.6,0.7,1c0.1,0.3,0.2,0.7,0.3,1c0.1,0.3,0.1,0.6,0.2,1c0.3,1.4,0.4,2.7,0.6,4
		c0.4,2.7,0.6,5.5,0.8,8.2l0.1,2c0,0.4,0.1,0.7,0.1,1l0.2,1c0.4,1.3,0.7,2.6,1.2,3.9c0.8,2.6,1.8,5.1,2.6,7.5c0.8,2.5,1.7,4.7,2.4,7
		s1.3,4.4,1.9,6.4C1013.7,640.6,1015,646,1015,646L1015,646z"/>
</g>
<g>
	<path fill="#FFFFFF" d="M1002.4,593.7c0,0,0.4,0.8,1.1,2.3c0.6,1.4,1.7,3.5,2.8,6.1c0.6,1.2,1.2,2.6,1.9,4.1
		c0.3,0.8,0.6,1.5,0.9,2.3c0.3,0.8,0.7,1.6,0.9,2.4c0.9,3.3,1.9,6.8,2.9,10.4c0.5,1.8,1,3.5,1.5,5.3c0.5,1.8,1,3.4,1.4,5.1
		c0.4,1.7,0.8,3.3,1.1,4.9s0.7,3,1,4.4s0.5,2.6,0.7,3.7c0.3,1.1,0.4,2,0.5,2.9c0.2,1.6,0.4,2.5,0.4,2.5l-0.1,0c0,0-0.3-0.9-0.7-2.5
		c-0.2-0.8-0.5-1.7-0.8-2.8c-0.3-1.1-0.6-2.3-0.9-3.6c-0.4-1.3-0.7-2.8-1.1-4.4c-0.4-1.5-0.8-3.2-1.2-4.8c-0.3-1.7-0.9-3.4-1.3-5.2
		c-0.5-1.8-0.9-3.5-1.3-5.3c-0.9-3.6-1.8-7.1-2.7-10.4c-0.2-0.8-0.5-1.6-0.8-2.4c-0.3-0.8-0.6-1.5-0.8-2.3c-0.6-1.5-1.2-2.9-1.7-4.1
		c-1-2.5-2-4.7-2.6-6.1C1002.7,594.6,1002.3,593.8,1002.4,593.7L1002.4,593.7z"/>
</g>
<g>
	<path fill="#FFFFFF" d="M1002.2,592.7c0,0,0.7,0.8,1.8,2.1c1.1,1.4,2.6,3.3,4.3,5.8c0.8,1.2,1.8,2.6,2.6,4.1
		c0.9,1.5,1.7,3.1,2.6,4.8c0.8,1.7,1.6,3.5,2.1,5.3c0.3,0.9,0.6,1.9,0.8,2.8c0.2,1,0.5,1.9,0.7,2.9c0.5,1.9,0.8,3.9,1.2,5.8
		c0.3,2,0.7,3.8,1.1,5.6c0.6,3.7,1,7.1,1.4,10c0.2,1.5,0.3,2.8,0.4,4.1c0.1,1.3,0.2,2.3,0.3,3.1c0.2,1.7,0.2,2.8,0.2,2.8l-0.1,0
		c0,0-0.7-3.9-1.6-9.8c-0.5-2.9-1-6.4-1.7-10c-0.3-1.8-0.6-3.7-1-5.7s-0.8-3.8-1.1-5.8c-0.2-1-0.5-1.9-0.7-2.9
		c-0.2-1-0.4-1.9-0.8-2.8c-0.6-1.9-1.3-3.6-2-5.3c-0.8-1.7-1.6-3.2-2.4-4.8c-0.9-1.5-1.7-2.9-2.5-4.1c-1.6-2.5-3-4.5-4.1-5.9
		C1002.8,593.5,1002.1,592.8,1002.2,592.7L1002.2,592.7z"/>
</g>
<g>
	<path fill="#FFFFFF" d="M1031.9,600.9c0,0-0.8,1.3-1.9,3.2c-0.3,0.5-0.7,1-1,1.5s-0.7,1.1-1.2,1.6s-0.9,1.1-1.5,1.6l-0.5,0.4
		c-0.2,0.1-0.3,0.2-0.5,0.3c-0.3,0.2-0.7,0.4-1,0.6c-0.7,0.4-1.5,0.6-2.3,0.7c-0.8,0.1-1.6,0.1-2.4-0.2c-0.4-0.2-0.7-0.4-1.1-0.6
		c-0.2-0.2-0.5-0.4-0.8-0.6c-0.5-0.4-1-0.7-1.5-1.1c-0.5-0.2-0.9-0.5-1.3-0.6c-0.4-0.1-0.8-0.1-1.1-0.1c-0.6,0.1-0.9,0.3-0.9,0.3
		l-0.1-0.1c0,0,0.3-0.3,0.9-0.5c0.3-0.1,0.8-0.2,1.3,0c0.4,0.1,1,0.2,1.5,0.5c0.6,0.2,1.1,0.5,1.7,1c0.2,0.2,0.5,0.4,0.8,0.6
		s0.5,0.4,0.8,0.4c0.5,0.3,1.2,0.3,1.9,0.2c0.7-0.1,1.4-0.3,2-0.6c0.3-0.1,0.6-0.3,1-0.5c0.2-0.1,0.4-0.2,0.5-0.3l0.4-0.3
		c0.6-0.4,1-1,1.6-1.4c0.9-1.1,1.7-2.1,2.4-3C1031,602.1,1031.8,600.8,1031.9,600.9L1031.9,600.9z"/>
</g>
<g>
	<path fill="#FFFFFF" d="M928.7,561.3c0,0-1.1-0.4-3.1-1c-0.5-0.2-1.1-0.2-1.6-0.4c-0.4,0-0.7-0.1-0.9-0.1c-0.1,0-0.4,0-0.5,0
		l-0.3,0c-0.1-0.1-0.2,0-0.3-0.1c-0.7-0.4-1-1.1-1.5-1.8c-0.4-0.7-0.7-1.5-1.1-2.3c-0.6-1.6-2-2.9-3.6-4.1c-1.6-1.2-3.6-2.1-5.7-2.5
		c-2-0.5-4.4-0.5-6.7-0.5c-1.1,0-2.4-0.1-3.4-0.2c-1.2-0.1-2.3-0.2-3.5-0.3c-2.4-0.2-4.7-0.4-7-0.8c-1.2-0.2-2.3-0.3-3.4-0.4
		c-1.2-0.2-2.2-0.4-3.3-0.7c-2.1-0.6-4.2-1.2-6.1-2c-1-0.4-1.9-0.7-2.7-1.1c-0.8-0.4-1.7-0.7-2.5-1.2c-0.4-0.2-0.8-0.5-1.1-0.7
		s-0.7-0.6-1.1-0.7c-0.2-0.1-0.3-0.3-0.5-0.4c-0.2-0.1-0.3-0.3-0.5-0.4c-0.3-0.3-0.5-0.4-0.9-0.7c-1-1-2.1-1.6-2.9-2.3
		c-1.7-1.1-2.7-1.7-2.7-1.7l0.1-0.1c0,0,1,0.5,2.9,1.5c0.8,0.6,2,1.1,3.1,2c0.3,0.3,0.5,0.4,0.9,0.7c0.2,0.1,0.3,0.3,0.5,0.4
		c0.2,0.1,0.3,0.3,0.5,0.4c0.3,0.3,0.6,0.5,1,0.7c0.4,0.2,0.7,0.3,1.1,0.6c0.7,0.4,1.6,0.8,2.5,1.1s1.8,0.7,2.7,1.1
		c1.9,0.7,3.9,1.4,6,1.9c1,0.3,2.1,0.6,3.3,0.7c1.2,0.2,2.2,0.4,3.3,0.5c2.3,0.3,4.6,0.7,6.9,0.8c1.2,0.2,2.3,0.2,3.4,0.3
		s2.3,0.2,3.5,0.3c2.3,0.2,4.6,0.1,6.8,0.6c2.2,0.5,4.1,1.6,5.8,2.7c1.6,1.2,3.1,2.7,3.7,4.4c0.4,0.8,0.7,1.6,1.1,2.3
		c0.4,0.7,0.7,1.3,1.3,1.7c0.2,0.2,0.6,0.1,0.9,0.1c0.4,0,0.7,0.1,0.9,0.1c0.7,0.1,1.2,0.3,1.6,0.4
		C927.5,560.8,928.7,561.3,928.7,561.3L928.7,561.3z"/>
</g>
<g>
	<path fill="#FFFFFF" d="M912.9,585.6c0,0-0.5,0.4-1.2,1.1c-0.7,0.7-1.9,1.8-3.4,3.1c-0.8,0.7-1.6,1.4-2.5,2.1
		c-0.9,0.8-1.9,1.6-3,2.5c-2.1,1.6-4.7,3.7-8,4.7c-3.2,1-7,1.4-10.8,1.7c-1.9,0.1-4,0.1-6,0.1c-2.1-0.1-4.2-0.3-6.3-0.8
		c-4.1-1.3-7.9-3.6-11.6-6c-3.6-2.5-7.2-5.4-10.4-8.6l-2.3-2.5c-0.7-0.8-1.5-1.6-2.3-2.4c-0.8-0.8-1.6-1.5-2.4-2.3
		c-0.8-0.8-1.6-1.5-2.4-2.2c-3.3-2.9-6.6-5.8-9.8-8.6c-1.6-1.3-3.3-2.6-4.8-4c-1.6-1.3-3.1-2.5-4.6-3.6c-3-2.3-6.2-4.3-9-6.2
		c-2.8-1.9-5.4-3.6-7.7-5.2c-2.2-1.5-4.2-2.9-5.8-4.1c-1.6-1.2-2.8-2-3.7-2.7c-0.9-0.7-1.2-1-1.2-1l0.1-0.1c0,0,0.5,0.4,1.3,0.9
		c0.9,0.7,2.1,1.5,3.8,2.6c3.3,2.1,8,5.2,13.8,8.9c2.8,1.9,5.9,3.8,9.1,6.1c3.2,2.3,6.3,5,9.5,7.6c3.2,2.7,6.6,5.6,9.9,8.6
		c0.8,0.8,1.6,1.5,2.4,2.2c0.8,0.8,1.6,1.5,2.5,2.4c0.8,0.8,1.5,1.6,2.4,2.5l2.3,2.5c3,3.2,6.6,6.1,10.2,8.7
		c3.6,2.5,7.4,4.8,11.3,6.1c4.1,1,8.2,1,12,0.9c3.9-0.2,7.5-0.6,10.7-1.6c3.2-1,5.7-2.9,7.9-4.5c1.1-0.8,2.1-1.6,3-2.5
		c0.9-0.8,1.7-1.5,2.5-2.1c1.4-1.3,2.7-2.3,3.4-3.1C912.4,585.9,912.9,585.4,912.9,585.6L912.9,585.6z"/>
</g>
<g>
	<path fill="#FFFFFF" d="M934.4,578.8L934.4,578.8c0,0.2,0,0.4-0.2,0.5c-0.2,0.2-0.7,0.5-1.2,0.7c-0.5,0.2-1.2,0.4-2,0.7
		c-0.8,0.3-1.7,0.5-2.5,0.9c-0.4,0.2-1,0.4-1.1,0.8c-0.1,0.3-0.2,0.5-0.3,0.7c-0.2,0.2-0.3,0.5-0.5,0.8c-0.8,0.9-1.5,1.9-2.4,2.7
		c-0.5,0.4-0.9,0.8-1.4,1.3c-0.1,0.2-0.3,0.2-0.4,0.3c-0.1,0-0.3,0.2-0.5,0.3c-0.3,0.1-0.7,0.2-1,0.2c-1.3,0.2-2.7,0.1-4.1-0.1
		c-0.7-0.1-1.4-0.2-2-0.4c-0.3-0.1-0.7-0.1-1-0.4c-0.1-0.1-0.2-0.2-0.5-0.4c-0.2-0.1-0.3-0.3-0.4-0.5c-0.9-1.1-1.4-2.3-2-3.4
		c-0.5-1.1-1.1-2.2-1.8-2.9c-0.2-0.2-0.5-0.4-0.6-0.5c-0.2-0.1-0.5-0.2-0.7-0.3c-0.5-0.2-1-0.4-1.4-0.5c-1.9-0.5-3.5-0.8-4.6-0.9
		c-1.2-0.2-1.8-0.3-1.8-0.3l0-0.1c0,0,0.6,0,1.8,0c0.6,0,1.3,0,2.1,0.1c0.8,0.1,1.7,0.2,2.7,0.4c0.5,0.2,1,0.3,1.5,0.5
		c0.5,0.2,1.1,0.5,1.5,0.8c0.9,0.9,1.5,2,2.1,3.1c0.5,1.1,1,2.4,1.8,3.2c0.3,0.4,0.8,0.8,1.4,0.9c0.6,0.2,1.2,0.4,1.8,0.4
		c1.2,0.2,2.6,0.3,3.8,0.2c0.3,0,0.6-0.1,0.9-0.2c0.1,0,0.2-0.1,0.4-0.2c0.1-0.1,0.3-0.2,0.3-0.2c0.5-0.3,1-0.7,1.4-1.1
		c0.9-0.8,1.7-1.7,2.4-2.5c0.2-0.2,0.3-0.4,0.5-0.6c0.1-0.3,0.3-0.5,0.3-0.7c0.4-0.5,0.9-0.7,1.3-0.9c1-0.4,1.9-0.6,2.6-0.8
		c0.8-0.2,1.5-0.4,2-0.6c0.5-0.2,1-0.4,1.1-0.6C934.4,579,934.3,578.8,934.4,578.8L934.4,578.8z"/>
</g>
<g>
	<path fill="#FFFFFF" d="M965.1,578.3c0,0-0.8-0.1-2.2-0.3c-1.4-0.1-3.5-0.4-6-0.5c-1.2-0.1-2.6-0.2-4,0c-0.7,0.1-1.5,0.1-2.1,0.2
		c-0.6,0.1-1.5,0.4-2.2,0.5c-1.5,0.3-3.1,0.7-4.8,0.9s-3.3,0.4-5,0.3c-0.4-0.1-0.9-0.1-1.3-0.1c-0.4-0.1-0.7-0.2-1.2-0.4
		c-0.8-0.3-1.6-0.6-2.3-1c-1.6-0.6-3-1.4-4.4-1.7c-1.4-0.5-2.9-0.4-4.2-0.2c-0.7,0.1-1.3,0.2-2,0.4c-0.3,0.1-0.6,0.1-0.9,0.3
		l-0.2,0.1l-0.1,0l-0.1,0l-0.5,0.1c-0.6,0.1-1.2,0.3-1.7,0.5c-0.6,0.1-1.1,0.3-1.6,0.2c-1,0.2-1.9,0.3-2.7,0.4
		c-1.5,0.2-2.3,0.2-2.3,0.2l0-0.1c0,0,0.8-0.2,2.2-0.5c0.7-0.2,1.6-0.4,2.6-0.6c0.5-0.1,1-0.2,1.5-0.4c0.5-0.2,1.1-0.4,1.7-0.5
		l0.5-0.1l0.1,0l0.1-0.1l0.2-0.1c0.3-0.1,0.6-0.3,1-0.4c0.7-0.2,1.4-0.4,2.1-0.5c0.8-0.2,1.5-0.2,2.3-0.2c0.4,0,0.9,0.1,1.2,0.1
		l0.6,0.1c0.2,0,0.4,0.1,0.7,0.1c1.5,0.5,3,1.3,4.5,1.9c0.7,0.3,1.5,0.7,2.2,1c0.4,0.2,0.8,0.3,1.1,0.4c0.4,0,0.8,0.1,1.2,0.2
		c1.6,0.1,3.3-0.1,4.9-0.2c1.6-0.1,3.2-0.4,4.7-0.7c0.8-0.2,1.5-0.4,2.2-0.5c0.8-0.2,1.5-0.2,2.2-0.2c1.4,0,2.8,0.1,4.1,0.2
		c2.5,0.2,4.6,0.5,6,0.7C964.3,578,965.1,578.2,965.1,578.3L965.1,578.3z"/>
</g>
<g>
	<path fill="#FFFFFF" d="M926.5,584.7c0,0,1,0.8,2.7,2.1c0.8,0.6,1.8,1.2,2.9,1.8c0.2,0.2,0.5,0.3,0.8,0.4l0.5,0.2l0.4,0.1
		c0.3,0.1,0.6,0.2,1,0.3c0.4,0,0.6,0.1,0.9,0.1c0.6,0,1.3-0.1,1.9-0.1c0.6-0.1,1.3-0.2,2-0.3s1.3-0.2,1.8-0.2
		c0.6-0.1,1.1-0.1,1.6-0.2c1-0.1,1.8-0.3,2.4-0.4c0.6-0.1,0.9-0.2,0.9-0.2l0.1,0.1c0,0-0.3,0.2-0.9,0.4c-0.3,0.2-0.6,0.3-1,0.5
		c-0.4,0.2-0.9,0.3-1.4,0.4c-0.5,0.1-1,0.2-1.6,0.4c-0.6,0.1-1.2,0.2-1.8,0.3c-0.6,0.1-1.3,0.2-2,0.2c-0.7,0.1-1.3,0.1-2.1,0
		c-0.4,0-0.7-0.1-1.1-0.1c-0.4,0-0.7-0.1-1-0.3l-0.5-0.2l-0.5-0.2c-0.3-0.1-0.6-0.4-0.8-0.6c-1.1-0.7-2-1.5-2.8-2.1
		C927.4,585.6,926.5,584.7,926.5,584.7L926.5,584.7z"/>
</g>
<g>
	<path fill="#FFFFFF" d="M973.7,572c-2.4-1.5-5-2.7-7.8-3.4c-2.7-0.8-5.5-1.1-8.4-1.3c-2.9-0.1-5.7-0.3-8.6-0.2
		c-2.8,0-5.7,0.2-8.5,0.5c-0.7,0.1-1.4,0.3-2.1,0.4l-2.1,0.5c-1.4,0.3-2.8,0.6-4.3,0.8c-2.8,0.4-5.7,0.8-8.5,1.1
		c-2.8,0.3-5.7,0.5-8.5,0.5c-1.4,0-2.9,0-4.3-0.1c-1.4,0-2.9-0.1-4.3-0.1c-1.4-0.1-2.9-0.1-4.3-0.4c-1.4-0.2-2.9-0.5-4.2-1.3
		c-1.2-0.8-2.4-1.5-3.7-1.7c-1.3-0.3-2.7-0.4-4,0.1c-0.8,0.2-1.4,0.3-2.2,0.4l-1.1,0.1l-1.1,0c-1.5,0.1-2.9,0.1-4.3,0.1
		c-2.8,0-5.8-0.2-8.6-0.8c-2.8-0.7-5.5-1.5-8.2-2.4c-0.7-0.3-1.4-0.5-2.1-0.8c-0.4-0.2-0.7-0.3-1-0.5c-0.3-0.3-0.7-0.4-0.9-0.6
		c-0.5-0.4-1.1-0.9-1.7-1.1c-0.6-0.2-1.2-0.4-1.9-0.4c-1.5-0.1-3-0.5-4.3-0.9c-1.4-0.5-2.7-1.1-4-1.8c-0.6-0.4-1.2-0.9-1.8-1.3
		l-0.5-0.4l-0.4-0.3c-0.3-0.3-0.5-0.5-0.7-0.7c-1-0.8-2.3-1.6-3.5-1.8l-0.1-0.1l0,0c-0.8-0.4-1.7-0.8-2.5-1.4
		c-0.4-0.3-0.8-0.6-1-1.1c0-0.1-0.2-0.3-0.2-0.4l-0.1-0.3l0-0.1l-0.1-0.1c0,0,0-0.1-0.1-0.2c-0.4-0.7-1.1-1.2-1.8-1.8
		c-0.7-0.6-1.4-1-2.2-1.4c-0.4-0.2-0.7-0.3-1.3-0.5c-0.4-0.2-0.9-0.3-1.2-0.6c-0.8-0.4-1.6-0.9-2.4-1.3c-0.4-0.2-0.8-0.4-1.2-0.6
		c-0.4-0.2-0.8-0.3-1.2-0.4c-0.4-0.1-0.9-0.2-1.3-0.3l-1.3,0l0,0c-2.3,0.3-4.6,0.6-6.9,0.9c-0.6,0.1-1.1,0.1-1.7,0.2
		c-0.6,0.1-1.1,0.1-1.8,0.1c-0.6,0.1-1.2,0.1-1.8,0.1c-0.6,0-1.2,0.1-1.8,0c-2.3-0.2-4.6-0.5-6.9-0.8c-1.2-0.2-2.2-0.4-3.5-0.6
		c-0.6-0.1-1.2-0.3-1.7-0.5s-1.1-0.4-1.6-0.7l0.1-0.1c0.5,0.3,1,0.5,1.6,0.6s1.1,0.2,1.7,0.4c1.1,0.2,2.2,0.4,3.4,0.6
		c2.3,0.3,4.6,0.5,7,0.6c0.6,0.1,1.1,0,1.7,0c0.6-0.1,1.1-0.1,1.8-0.1c0.6-0.1,1.1-0.1,1.7-0.2c0.6-0.1,1.1-0.1,1.7-0.2
		c2.3-0.3,4.6-0.6,6.9-1l0,0l0,0l1.4,0c0.4,0.1,0.9,0.1,1.4,0.4c0.4,0.2,0.9,0.3,1.3,0.5c0.5,0.2,0.8,0.4,1.3,0.6
		c0.8,0.4,1.6,0.9,2.3,1.2c0.4,0.2,0.8,0.4,1.3,0.5c0.4,0.2,0.9,0.3,1.3,0.5c0.8,0.4,1.7,0.8,2.4,1.5c0.7,0.6,1.5,1.2,2.1,2.1
		c0.1,0.2,0.3,0.6,0.3,0.8l0,0.3c0.1,0.1,0,0.1,0.1,0.2c0.2,0.3,0.5,0.5,0.9,0.8c0.6,0.5,1.4,0.9,2.3,1.3l-0.1-0.1
		c1.5,0.3,2.8,1.1,4,2.1c0.3,0.3,0.5,0.4,0.8,0.8l0.5,0.4l0.4,0.3c0.5,0.5,1.1,0.9,1.6,1.2c1.2,0.7,2.4,1.3,3.7,1.7
		c1.3,0.4,2.6,0.7,4.1,0.9c0.7,0.1,1.5,0.1,2.2,0.4s1.4,0.9,1.9,1.3c1,0.8,2.4,1.3,3.7,1.8c2.7,1,5.4,1.8,8.2,2.5
		c2.7,0.6,5.6,0.8,8.4,0.9c1.4,0,2.8,0,4.3,0l1.1,0l1-0.1c0.7-0.1,1.5-0.2,2.1-0.4c2.9-0.9,6,0.2,8.4,1.8c1.2,0.8,2.5,1.1,3.8,1.3
		c1.4,0.2,2.8,0.3,4.2,0.4c1.4,0.1,2.9,0.1,4.2,0.2c1.4,0,2.9,0.1,4.3,0.1c2.8,0,5.7-0.2,8.5-0.5c2.8-0.3,5.7-0.7,8.5-1.1
		c1.5-0.2,2.8-0.4,4.2-0.7l2.1-0.5c0.8-0.2,1.4-0.3,2.1-0.4c2.9-0.4,5.7-0.5,8.5-0.5c2.8,0,5.7,0.1,8.6,0.4c2.9,0.1,5.7,0.5,8.5,1.3
		C968.7,569.3,971.4,570.4,973.7,572L973.7,572z"/>
</g>
<g>
	<path fill="#FFFFFF" d="M971.3,575.5c0,0-0.4-0.3-1.1-0.7c-0.4-0.2-0.8-0.5-1.3-0.8c-0.5-0.3-1.1-0.6-1.7-1s-1.3-0.8-2.1-1.1
		c-0.7-0.3-1.5-0.7-2.4-1c-0.4-0.1-0.8-0.3-1.3-0.4c-0.4-0.1-0.9-0.2-1.3-0.3c-0.9-0.2-1.9-0.4-2.7-0.4c-0.9-0.1-1.9-0.1-2.8-0.1
		c-0.5,0-0.9,0-1.3,0.1s-0.9,0-1.3,0.2c-0.4,0-0.8,0.1-1.3,0.2c-0.4,0-0.8,0.2-1.3,0.3c-0.8,0.2-1.6,0.2-2.2,0.4
		c-0.7,0.1-1.3,0.2-1.9,0.3c-0.6,0.1-1,0.2-1.5,0.2c-0.8,0.1-1.3,0.1-1.3,0.1l0-0.1c0,0,0.5-0.1,1.2-0.4c0.4-0.2,0.9-0.3,1.5-0.4
		c0.5-0.2,1.2-0.3,1.9-0.5c0.7-0.2,1.5-0.4,2.2-0.5c0.8-0.2,1.7-0.3,2.6-0.5c0.5-0.1,1-0.1,1.4-0.1s0.9,0,1.4,0c0.9,0,2,0.1,2.9,0.2
		c0.9,0.1,2,0.3,2.9,0.5c0.4,0.1,1,0.3,1.3,0.4s0.9,0.3,1.3,0.5c0.8,0.4,1.7,0.8,2.4,1.2c0.7,0.3,1.4,0.9,2,1.2s1.2,0.7,1.7,1.1
		c0.5,0.4,0.9,0.6,1.2,0.9C971,575.1,971.4,575.4,971.3,575.5L971.3,575.5z"/>
</g>
<g>
	<path fill="#FFFFFF" d="M942.3,605.5c0,0-0.3-0.3-0.9-0.6c-0.5-0.4-1.4-1-2.3-1.8c-0.5-0.4-0.9-0.9-1.4-1.4c-0.5-0.5-0.8-1.2-1.1-2
		c-0.2-0.8-0.4-1.4-0.7-2.1c-0.4-0.7-0.7-1.3-1.2-2c-0.4-0.6-1-1.2-1.6-1.4l-0.2,0l-0.1,0c-0.2,0-0.4,0-0.6,0c-0.4,0-0.8,0-1.2-0.1
		c-0.8-0.1-1.5-0.2-2.2-0.8c-0.2-0.1-0.4-0.3-0.4-0.7c0-0.1,0-0.4,0.1-0.4l0-0.2c0.1-0.3,0.2-0.5,0.3-0.8c0.1-0.6,0.1-1.1,0.2-1.5
		c0-0.5,0.1-0.9,0.1-1.2c0-0.6,0-1.1,0-1.1l0.1,0c0,0,0.2,0.4,0.3,1.1c0.1,0.3,0.2,0.8,0.1,1.3c0,0.5,0,1.1,0,1.7
		c0,0.4-0.1,0.7-0.2,1l-0.1,0.1l0,0l-0.1,0.1l0,0l0,0l0,0l0,0c0,0,0,0,0.1,0.1c0.5,0.2,1.1,0.4,1.8,0.5c0.4,0,0.7,0.1,1.1,0.1l0.5,0
		c0.1,0,0.3,0,0.4,0.1l0.4,0.2c0.8,0.4,1.4,1.1,1.9,1.8c0.5,0.7,0.8,1.4,1.2,2.1c0.3,0.8,0.6,1.5,0.7,2.3c0.1,0.6,0.5,1.3,0.9,1.8
		c0.3,0.5,0.8,1.1,1.3,1.4c0.9,0.8,1.6,1.5,2.1,2C942.1,605.1,942.4,605.4,942.3,605.5L942.3,605.5z"/>
</g>
<g>
	<path fill="#FFFFFF" d="M907.6,579.6c-0.6,0.7-1,1.4-1.3,2.1c-0.2,0.4-0.3,0.7-0.5,1.1c-0.2,0.4-0.3,0.8-0.4,1.2
		c-0.1,0.4-0.2,0.9-0.3,1.3c-0.1,0.4-0.3,0.8-0.5,1.3c-0.4,0.8-0.8,1.5-1.4,2.2c-0.6,0.7-1.3,1.3-2,1.7c-0.4,0.2-0.8,0.4-1.3,0.5
		c-0.5,0.1-0.9,0.2-1.3,0.1l-1.3-0.1c-0.4-0.1-0.9-0.1-1.3-0.1c-0.4-0.1-0.9-0.2-1.3-0.3c-0.4-0.2-0.8-0.3-1.3-0.5l0.6-0.1
		c-0.2,0.4-0.4,0.7-0.8,0.9c-0.3,0.3-0.6,0.6-0.8,0.7c-0.4,0.2-0.7,0.4-1,0.5l-0.5,0.2c-0.1,0-0.4,0-0.6,0.1l-0.6,0.1l-0.5,0l-1.1,0
		c-0.6,0-1.4,0-2.1,0l-2.1,0c-0.6,0-1.4,0-2.1-0.1c-1.4-0.1-2.8-0.2-4.2-0.3l0-0.1c1.4-0.1,2.8-0.2,4.2-0.2c0.7-0.1,1.3-0.1,2-0.1
		l2.1-0.1c0.7-0.1,1.3-0.1,2.1-0.1l1.1,0l0.5,0l0.4,0c0.1,0,0.3,0,0.4,0l0.5-0.1c0.3,0,0.5-0.2,0.8-0.4c0.3-0.2,0.5-0.3,0.7-0.6
		c0.3-0.2,0.4-0.5,0.6-0.7l0.3-0.4l0.4,0.2c0.4,0.2,0.7,0.3,1.1,0.5c0.4,0.2,0.8,0.3,1.2,0.3c0.4,0.2,0.9,0.2,1.2,0.2l1.3,0.1
		c0.8,0.1,1.6,0,2.4-0.4c0.7-0.4,1.4-0.9,2-1.5c0.5-0.6,1.1-1.3,1.4-2.1c0.2-0.4,0.3-0.7,0.5-1.1c0.2-0.4,0.3-0.8,0.4-1.2
		s0.3-0.8,0.4-1.2c0.2-0.4,0.3-0.7,0.6-1.2C906.5,580.9,906.9,580.2,907.6,579.6L907.6,579.6z"/>
</g>
<g>
	<path fill="#FFFFFF" d="M899.5,590.8c0,0-0.1,0.6-0.5,1.4c-0.3,0.9-1.1,2.1-2.5,3.1c-0.7,0.5-1.6,0.8-2.5,1c-0.9,0.2-2,0.3-2.9,0.5
		c-1,0.1-2,0.4-3,0.7c-1,0.2-2.1,0.6-3.1,0.8l-1.7,0.3c-0.3,0.1-0.6,0.1-0.8,0.1c-0.3,0-0.6,0.1-0.8,0c-1.1,0-2.2-0.3-3.3-0.6
		c-1-0.4-1.9-0.9-2.6-1.7c-0.7-0.7-1.1-1.7-1.5-2.3c-0.6-1.6-0.9-2.9-1.2-3.8c-0.1-0.5-0.3-0.8-0.5-1c-0.2-0.1-0.2-0.3-0.2-0.3
		l0.1-0.1c0,0,0.1,0.1,0.3,0.3c0.2,0.2,0.5,0.5,0.7,0.9c0.3,0.5,0.5,1,0.7,1.6s0.6,1.3,0.9,2c0.4,0.7,0.7,1.5,1.4,2.1
		c0.6,0.6,1.5,1.1,2.4,1.4c0.9,0.3,1.9,0.7,2.9,0.7c0.2,0,0.5,0,0.8,0c0.3,0,0.6,0,0.8,0l1.6-0.2c1-0.2,2.1-0.5,3.2-0.8
		c1-0.2,2.1-0.5,3.1-0.6s2-0.3,2.9-0.5c0.9-0.2,1.7-0.4,2.4-0.8c1.3-0.9,2.1-2,2.5-2.8C899.3,591.4,899.3,590.9,899.5,590.8
		L899.5,590.8z"/>
</g>
<g>
	<path fill="#FFFFFF" d="M989.6,594.6c0,0,0,0.2-0.3,0.7c-0.1,0.2-0.2,0.5-0.4,0.7c-0.2,0.2-0.4,0.5-0.9,0.7c-0.3,0-0.4-0.1-0.6-0.2
		c-0.2-0.1-0.4-0.3-0.5-0.4c-0.4-0.3-0.8-0.6-1.3-0.9c-0.5-0.2-1.1-0.6-1.6-0.3c-0.3,0.2-0.3,0.4-0.5,0.8c-0.1,0.3-0.2,0.6-0.4,1
		c-0.5,1.3-1.1,2.7-1.9,4.1c-0.9,1.4-1.8,2.9-3.4,3.8c-0.4,0.2-0.8,0.4-1.2,0.6c-0.4,0.2-0.9,0.3-1.3,0.5c-0.9,0.3-1.7,0.7-2.5,0.9
		c-1.7,0.7-3.5,1.3-5.2,2c-1.8,0.6-3.4,1.4-5.3,1.9c-1.8,0.6-3.5,1-5.3,1.2c-0.9,0-1.8,0-2.6-0.1c-0.4-0.1-0.8-0.1-1.3-0.3
		c-0.4-0.2-0.8-0.3-1.2-0.4c-1.6-0.7-2.8-1.8-3.8-2.8c-1-1-1.8-1.9-2.6-2.8c-0.8-0.8-1.5-1.5-2-2.1c-1.1-1.2-1.8-1.8-1.8-1.8
		l0.1-0.1c0,0,0.7,0.6,2,1.7c0.6,0.5,1.3,1.2,2.2,1.9c0.9,0.7,1.7,1.7,2.8,2.6c0.9,0.9,2.2,1.9,3.5,2.5c0.4,0.2,0.7,0.2,1.1,0.4
		c0.3,0.1,0.8,0.1,1.1,0.2c0.8,0.1,1.6,0.1,2.4,0c1.6-0.1,3.4-0.5,5.1-1c1.7-0.5,3.5-1.2,5.3-1.8s3.6-1.2,5.2-1.8
		c0.9-0.3,1.7-0.5,2.5-0.9c0.4-0.2,0.9-0.3,1.2-0.4c0.4-0.2,0.8-0.2,1.2-0.5c1.4-0.8,2.5-2.3,3.3-3.5c0.9-1.4,1.4-2.7,2.1-4
		c0.1-0.3,0.3-0.7,0.4-1s0.3-0.7,0.6-0.8c0.3-0.2,0.8-0.2,1-0.1c0.3,0.1,0.6,0.2,0.8,0.4c0.5,0.3,0.9,0.6,1.3,0.9
		c0.4,0.3,0.7,0.7,1.1,0.6c0.4,0,0.6-0.3,0.8-0.5c0.2-0.2,0.4-0.5,0.4-0.7C989.4,594.7,989.5,594.5,989.6,594.6L989.6,594.6z"/>
</g>
<g>
	<path fill="#FFFFFF" d="M1001.9,516.5c0,0,1.5,0.1,4.2,0.2c0.6,0,1.4,0,2.2,0.3c0.8,0.3,1.6,0.6,2.4,1c0.9,0.3,1.8,0.8,2.8,0.8
		c1,0,2.1-0.2,3.2-0.3s2.3-0.3,3.6-0.3c1.2,0.1,2.5-0.2,3.8-0.1c0.6,0,1.4,0.1,2,0.4s1.4,0.7,1.8,1.3s0.6,1.3,0.8,2
		c0.3,0.6,0.5,1.3,0.8,2c0.6,1.3,1.2,2.6,2.2,3.7c1.1,1,2.1,2,3.4,2.8c0.6,0.4,1.3,0.8,1.9,0.9c0.2,0,0.4,0,0.4,0.1l0.2,0l0.3,0
		l1.1-0.3c1.5-0.3,3-0.5,4.5-0.8c1.5-0.3,3-0.5,4.5-0.9c1.5-0.4,3-0.7,4.4-1c0.8-0.2,1.5-0.4,2.2-0.5l1.1-0.3l1.2-0.2
		c0.4,0,0.8-0.2,1.2-0.1c0.4,0.1,0.8,0.3,1.2,0.4c0.7,0.4,1.3,0.8,1.8,1.6c0,0.1,0.1,0.2,0.2,0.4l0,0c0,0,0,0.2,0,0.1l-0.1,0.1
		l0,0.1c0,0.2,0,0.4-0.1,0.6l-0.3,1.2c-0.2,0.7-0.4,1.3-0.6,2c-0.4,1.3-0.7,2.6-1.1,3.9c-0.3,1.3-0.5,2.5-0.7,3.7
		c0,0.3-0.1,0.6-0.1,0.9c0,0.4,0,0.6,0,0.9c0,0.6,0,1.1,0,1.8c-0.1,2.4-0.4,4.4-0.8,6.3c-0.1,0.9-0.5,1.8-0.7,2.6
		c-0.3,0.8-0.5,1.5-0.7,2.1c-1,2.5-1.5,3.9-1.5,3.9l-0.1-0.1c0,0,0.5-1.4,1.4-4.1c0.2-0.6,0.4-1.3,0.6-2.1c0.2-0.7,0.5-1.5,0.6-2.5
		c0.1-0.9,0.4-1.9,0.4-2.9c0-0.5,0.1-1.1,0.1-1.6c0-0.5,0.1-1.1,0-1.6c-0.1-0.6,0-1.1,0-1.8c0-0.3,0-0.6,0-0.9c0-0.4,0-0.6,0-1
		c0-1.3,0.3-2.6,0.6-3.9c0.3-1.3,0.6-2.6,1-3.9c0.1-0.7,0.4-1.3,0.6-2l0.3-1c0.1-0.1,0-0.4,0.2-0.5l0-0.1l0.1-0.1c0-0.1,0,0.1,0,0
		l0,0c0,0,0,0-0.1-0.1c-0.3-0.5-0.9-0.9-1.5-1.2c-0.3-0.1-0.6-0.4-0.9-0.3c-0.2,0-0.6,0-0.9,0l-1,0.2l-1.1,0.3
		c-0.8,0.2-1.5,0.4-2.2,0.5c-1.5,0.4-3,0.7-4.4,1c-1.5,0.3-3,0.5-4.5,0.8c-1.5,0.3-3,0.5-4.5,0.8l-1.2,0.2l-0.3,0l-0.4,0
		c-0.2,0-0.5,0-0.7-0.1c-0.8-0.3-1.5-0.7-2.1-1.1c-1.2-0.9-2.4-2-3.4-2.9c-1.1-1.2-1.7-2.5-2.3-3.9c-0.3-0.6-0.6-1.4-0.8-2.1
		c-0.2-0.7-0.4-1.4-0.8-1.9c-0.7-1.1-2.1-1.4-3.3-1.4c-1.3,0-2.5,0.1-3.8,0.1c-1.2-0.1-2.4,0.1-3.5,0.2c-1.1,0.1-2.3,0.2-3.3,0.3
		l-0.4,0c-0.1,0-0.2,0-0.4-0.1c-0.2,0-0.5-0.2-0.7-0.2c-0.5-0.2-0.9-0.3-1.3-0.6c-0.9-0.3-1.7-0.7-2.4-1c-0.8-0.3-1.5-0.2-2.2-0.3
		C1003.4,516.7,1001.9,516.6,1001.9,516.5L1001.9,516.5z"/>
</g>
<g>
	<path fill="#FFFFFF" d="M1060.1,563.4c0,0,0.2-1,0.4-2.7c0.1-0.8,0.1-1.7,0.1-2.7c0-0.5,0-1-0.1-1.5c0-0.5-0.1-1-0.2-1.5
		c-0.1-0.5-0.3-1-0.5-1.4c-0.1-0.5-0.3-1-0.5-1.4c-0.3-0.9-0.6-1.8-0.8-2.6c-0.2-0.8-0.4-1.5-0.3-2c0-0.4-0.1-0.7-0.1-0.7l0.1,0
		c0,0,0.2,0.3,0.4,0.7c0.1,0.2,0.3,0.5,0.3,0.8c0.2,0.3,0.3,0.6,0.5,1c0.4,0.7,0.7,1.6,1,2.5c0.1,0.5,0.2,1,0.4,1.5s0.2,1,0.4,1.6
		c0.1,0.6,0.2,1,0.1,1.6c0,0.5,0,1.1-0.1,1.5c0,1-0.2,1.9-0.4,2.7C1060.6,562.4,1060.3,563.4,1060.1,563.4L1060.1,563.4z"/>
</g>
<g>
	<path fill="#FFFFFF" d="M1061,529.5c0,0,0.5,0.2,1.5,0.3c0.4,0.1,1.1,0.2,1.7,0.4c0.7,0.1,1.5,0.6,2.2,1c0.7,0.6,1.6,1,2.2,2
		c0.2,0.3,0.2,0.5,0.4,0.7c0.2,0,0.5,0,0.8-0.2c0.3,0,0.5-0.2,1-0.2c0.4,0.2,0.5,0.4,0.7,0.7c0.7,1.1,1.3,2.4,1.6,3.7
		c0.2,0.8,0.1,1.4,0.3,2.2s0.2,1.5,0.4,2.2c0.5,3.1,0.2,6.6-1.2,10c-1.4,3.3-3.4,6.5-5.5,9.8c-2.1,3.3-4.3,6.7-7,9.9
		c-0.3,0.4-0.6,0.8-1.2,1.1c-0.3,0.2-0.5,0.4-0.9,0.4l-0.8,0.2c-1,0.2-2,0.4-3,0.7c-1,0.2-2,0.6-3,0.8c-1,0.3-1.8,0.7-2.7,1.3
		c-1.7,1-3.4,2.3-4.5,4c-1.2,1.7-2.6,3.3-4.4,4.5c-0.5,0.3-0.9,0.5-1.6,0.7c-0.6,0.1-1.3,0.1-1.8-0.4l-0.4-0.3l-0.2-0.3l-0.5-0.5
		c-0.3-0.4-0.7-0.7-1-1c-0.7-0.6-1.6-1-2.2-0.8c-0.2,0.1-0.3,0.2-0.5,0.3l-0.3,0.2l-0.3,0.2c-0.5,0.3-1,0.5-1.5,0.6
		c-1,0.2-2.3,0.1-3.2-0.5c-0.5-0.4-0.9-0.7-1.1-1.2c-0.2-0.4-0.5-0.8-0.7-1.2c-0.9-1.5-2-3.1-3.2-4.4c-0.3-0.3-0.6-0.6-0.9-0.8
		c-0.4-0.2-0.6-0.2-1-0.3c-0.8-0.1-1.7-0.2-2.4-0.2c-0.8,0-1.6,0.1-2,0.6c-0.2,0.2-0.2,0.5-0.3,0.9c0,0.4-0.1,0.8-0.2,1.2
		c-0.3,1.6-0.7,3.1-1.3,4.3s-1.8,2.4-3,2.8c-2.6,0.6-4.7,0.8-6.6,1.1c-0.9,0.2-1.8,0.3-2.3,0.5c-0.6,0.3-1.2,0.5-1.7,0.7
		c-0.4,0.2-0.8,0.2-1.1,0.4c-0.2,0.1-0.3,0.1-0.3,0.1l0-0.1c0,0,0.1,0,0.3-0.1c0.2-0.1,0.5-0.2,1-0.5c0.4-0.2,1-0.5,1.6-0.7
		c0.6-0.3,1.5-0.4,2.4-0.6c0.9-0.2,1.9-0.3,3-0.5c0.6-0.1,1-0.2,1.7-0.3s1.2-0.2,1.7-0.4c1.1-0.4,2.1-1.4,2.6-2.6
		c0.6-1.2,0.9-2.7,1.1-4.2c0-0.4,0.1-0.8,0.2-1.2c0-0.4,0.1-0.9,0.6-1.3c0.8-0.8,1.7-0.8,2.6-0.8c0.9,0,1.8,0,2.6,0.1
		c0.4,0,1,0.2,1.5,0.4s0.8,0.6,1.1,0.9c1.4,1.4,2.3,2.9,3.3,4.6c0.2,0.4,0.5,0.8,0.7,1.2s0.5,0.7,0.8,0.9c0.6,0.5,1.6,0.6,2.4,0.4
		c0.4,0,0.8-0.2,1.2-0.5l0.3-0.2l0.3-0.2c0.3-0.2,0.5-0.4,0.8-0.5c0.6-0.3,1.3-0.1,1.9,0.1s1,0.5,1.4,0.9c0.4,0.3,0.8,0.8,1.1,1.2
		c0.2,0.2,0.3,0.4,0.5,0.7l0.2,0.3l0.2,0.2c0.3,0.3,0.7,0.3,1,0.2c0.4,0,0.9-0.3,1.2-0.6c1.6-1,3-2.6,4.2-4.3s3-3.1,4.8-4.1
		c0.9-0.5,2-1,2.9-1.2c1-0.3,2.1-0.5,3-0.7c1-0.2,2-0.4,3.1-0.6l0.8-0.2c0.1,0,0.3-0.1,0.5-0.3c0.4-0.3,0.7-0.7,1.1-1
		c2.7-3.1,4.9-6.5,7-9.8s4.2-6.4,5.5-9.7c1.4-3.3,1.7-6.7,1.2-9.8c-0.1-0.7-0.2-1.5-0.3-2.3c-0.2-0.8-0.1-1.5-0.3-2.2
		c-0.3-1.4-0.8-2.7-1.5-3.7c-0.2-0.3-0.3-0.5-0.6-0.6c-0.2,0-0.6,0.1-0.8,0.2c-0.3,0-0.5,0.2-1,0.1c-0.2,0-0.3-0.3-0.3-0.4
		c0-0.1,0-0.3-0.1-0.3c-0.5-0.9-1.4-1.5-2.1-2c-1.5-1.2-2.9-1.2-3.8-1.4C1061.6,529.7,1061,529.5,1061,529.5L1061,529.5z"/>
</g>
<g>
	<path fill="#FFFFFF" d="M1005.3,589.4c0,0,1-0.5,2.5-1.2c0.7-0.4,1.6-0.9,2.4-1.4c0.9-0.6,1.9-1.2,2.4-2c0.2-0.5,0.6-0.9,0.8-1.4
		c0.2-0.5,0.5-0.9,0.6-1.4c0-0.2,0.2-0.5,0.3-0.7c0-0.2,0.1-0.4,0.2-0.7c0-0.2,0.1-0.4,0.2-0.7c0-0.2,0.2-0.4,0.2-0.6
		c0.2-0.4,0.3-0.7,0.5-1c0.2-0.4,0.4-0.6,0.5-0.8c0.3-0.4,0.5-0.6,0.5-0.6l0.1,0.1c0,0-0.1,0.3-0.2,0.7c0,0.2-0.2,0.5-0.3,0.8
		c0,0.1-0.1,0.3-0.2,0.5c0,0.2,0,0.4-0.1,0.6c-0.1,0.4-0.2,0.9-0.3,1.3s-0.3,1-0.5,1.5c-0.2,0.5-0.5,1-0.8,1.5
		c-0.3,0.5-0.6,0.9-1,1.4c-0.4,0.5-0.8,0.9-1.4,1.2c-0.5,0.3-1,0.6-1.4,0.8c-0.9,0.5-1.9,0.9-2.6,1.2
		C1006.4,589.1,1005.3,589.5,1005.3,589.4L1005.3,589.4z"/>
</g>
<g>
	<path fill="#FFFFFF" d="M1013.5,557.3c-0.8,0.7-1.5,1.4-2,2.3c-0.5,0.9-0.7,1.9-0.5,3c0.2,1,0.3,2,0.3,3.1c0,1.1,0,2.1-0.4,3.2
		c-0.1,0.1-0.1,0.3-0.2,0.4c-0.1,0.1-0.1,0.2-0.1,0.2l-0.1,0.2c-0.1,0.2-0.3,0.3-0.4,0.5c-0.2,0.5-0.5,0.9-0.7,1.4l-1.3,2.8
		c-0.1,0.1-0.1,0.1-0.1,0.2l-0.1,0.1c-0.1,0.1-0.1,0.1-0.1,0.1l-0.1,0.1c-0.2,0.1-0.3,0.1-0.4,0.2c-0.3,0-0.5,0.1-0.8,0.2
		c-0.5,0.1-1,0.2-1.5,0.2c-1,0.2-2,0.2-2.9,0.6c-0.9,0.3-1.8,0.8-2.7,1.3c-0.9,0.6-1.7,1.1-2.4,1.8c-0.3,0.4-0.6,0.7-0.9,1.2
		c-0.2,0.2-0.5,0.3-0.9,0.4c-0.3,0-0.6,0-0.9-0.1c-0.5-0.2-1-0.5-1.4-0.6c-0.2,0-0.5-0.2-0.5-0.2c-0.3,0-0.4,0.2-0.5,0.3
		c-0.7,0.6-1.6,1.3-2.3,2l-1.1,1l-0.3,0.3c-0.1,0.2-0.3,0.2-0.3,0.2c-0.3,0.2-0.5,0.3-0.7,0.4c-1,0.5-2,0.7-3,1
		c-1,0.2-2.1,0.5-3,0.7l0,0c-1.2,0.3-2.3,0.6-3.6,0.6c-0.4,0-0.7-0.1-1-0.2l-0.2-0.2c0,0-0.1-0.1-0.2-0.1c-0.1-0.1-0.1,0-0.2,0
		c-0.4-0.1-1,0-1.6,0c-0.6,0.1-1,0.2-1.7,0.3c-0.3,0-0.5,0.2-0.8,0.2c-0.1,0-0.2,0.1-0.3,0.1l0,0l-0.1,0.1l0,0l0,0l-0.2,0.1
		c-0.1,0-0.4,0-0.6,0.1c-0.1,0-0.3,0-0.4,0c-0.3,0-0.6,0-0.9,0c-0.6,0-1.1,0-1.8,0l0.6-0.6c0,0.3,0.1,0.5,0.2,0.8
		c0.1,0.2,0.2,0.4,0.3,0.6c0.1,0.1,0.1,0.2,0.2,0.3c0.1,0.1,0.2,0.1,0.2,0.2c0.2,0.1,0.2,0,0.3,0.1c0.1,0.1,0.2,0,0.4,0
		c0.6,0.1,1.1,0.1,1.7,0.2c0.3,0.1,0.7,0.1,1,0.5c0.2,0.1,0.3,0.5,0.3,0.6c0,0.1,0.1,0.3,0.1,0.6c0.1,0.6,0,1.1,0,1.7
		c0,0.3,0.1,0.6,0,0.8c0,0.3,0.1,0.5,0.2,0.5c-0.1,0.1,0.3,0.1,0.6,0.2s0.5,0.3,0.8,0.4c0.5,0.3,1,0.7,1.4,1l0.2,0.2l-0.2,0.2
		c-0.2,0.4-0.5,0.8-0.7,1.1c-0.2,0.4-0.4,0.8-0.6,1.2c-0.2,0.5-0.3,0.9-0.5,1.3c-0.2,0.4-0.3,0.9-0.4,1.3c-0.3,0.9-0.5,1.8-0.9,2.7
		c-0.1,0.4-0.2,0.9-0.3,1.3c0,0.2,0,0.5,0,0.6c0.1,0.2,0.1,0.5,0.3,0.5l-0.1,0.1c-0.3-0.1-0.3-0.4-0.4-0.6c0-0.3,0-0.4-0.1-0.7
		c0-0.5,0.1-0.9,0.2-1.4c0.2-0.9,0.4-1.8,0.6-2.7c0.1-0.4,0.2-0.9,0.4-1.4c0.1-0.4,0.3-1,0.4-1.3c0.2-0.5,0.3-0.9,0.6-1.3
		c0.2-0.5,0.4-0.8,0.6-1.3l0,0.4c-0.4-0.3-0.9-0.6-1.4-0.9c-0.2-0.2-0.5-0.2-0.7-0.3c-0.1-0.1-0.2,0-0.4-0.1l-0.1-0.1
		c-0.1-0.1-0.1,0-0.2,0c-0.1,0-0.2-0.2-0.3-0.3c-0.3-0.4-0.4-0.7-0.4-1c0-0.3-0.1-0.6-0.1-0.8c-0.1-0.6,0-1.1,0-1.7
		c0-0.1,0-0.3,0-0.3c-0.1-0.2,0-0.1-0.1-0.2c-0.1-0.1-0.2-0.2-0.5-0.2c-0.4-0.1-1.1-0.1-1.7-0.2c-0.1,0-0.4,0-0.4-0.1
		c-0.1,0-0.4-0.1-0.5-0.2c-0.2,0-0.3-0.3-0.5-0.4c-0.2-0.1-0.2-0.3-0.3-0.4c-0.2-0.3-0.3-0.6-0.4-0.9c-0.1-0.3-0.1-0.6-0.2-0.9
		l-0.1-0.6l0.6,0c0.6,0.1,1.1,0,1.8,0c0.3,0,0.6-0.1,0.8-0.1l0.4,0c0.1,0,0.1,0,0.3,0l0.2-0.1l0,0l0,0l0,0c-0.2,0.1,0,0-0.1,0.1l0,0
		l0,0l0.2-0.1c0.2-0.1,0.3-0.1,0.4-0.2c0.3-0.1,0.5-0.2,0.8-0.2c0.6-0.1,1.1-0.3,1.8-0.3c0.6-0.1,1.3-0.1,1.9,0
		c0.1,0,0.4,0.1,0.6,0.2l0.2,0.2l0.1,0.1c0.2,0.1,0.4,0.1,0.7,0.1c1,0,2.2-0.2,3.2-0.5l0,0l0,0c1-0.2,2-0.4,3-0.7
		c1-0.2,1.9-0.5,2.9-0.9c0.2-0.1,0.4-0.2,0.6-0.3c0.1-0.1,0.3-0.2,0.3-0.2l0.3-0.3l1.1-1c0.8-0.7,1.5-1.4,2.4-2
		c0.3-0.2,0.5-0.3,0.7-0.4l0.1-0.1c0,0,0,0,0.1,0l0,0l0,0l0.1,0.1c0.1,0,0.2,0,0.2,0c0.1,0,0.3,0.1,0.4,0.2c0.5,0.2,0.9,0.5,1.3,0.6
		c0.4,0.1,0.9,0.1,1.1-0.3c0.3-0.3,0.6-0.8,0.9-1.2c0.8-0.8,1.6-1.4,2.6-1.9c0.9-0.5,1.8-1,2.8-1.3c1-0.4,2.1-0.5,3.1-0.6
		c0.6-0.1,1-0.1,1.5-0.2c0.3,0,0.5-0.1,0.8-0.2c0.3,0,0.3-0.1,0.5-0.3l1.3-2.8c0.2-0.5,0.5-0.9,0.7-1.4c0.1-0.2,0.2-0.5,0.5-0.6
		l0.1-0.2l0.1-0.1c0.1-0.1,0.1-0.2,0.1-0.3c0.3-0.9,0.4-2,0.4-3c0-1-0.1-2-0.2-3c-0.2-1,0.1-2.1,0.5-3
		C1011.9,558.7,1012.6,557.9,1013.5,557.3L1013.5,557.3z"/>
</g>
<g>
	<path fill="#FFFFFF" d="M881.6,591.9c-0.8-0.6-1.6-1-2.4-1.6s-1.6-1-2.4-1.7c-0.4-0.3-0.8-0.6-1.1-1s-0.6-0.6-1-1
		c-0.7-0.7-1.4-1.3-2.2-1.8c-0.5-0.2-0.8-0.4-1.3-0.5c-0.4,0-0.8,0.1-1.3,0.2c-0.6,0.1-1.1,0-1.6,0c-0.5,0-0.9-0.1-1.5-0.2l-0.7-0.2
		l-0.7-0.3c-0.5-0.2-0.8-0.6-1.2-0.9l-2.4-1.7l-1.1-0.7l1.4,0.1c1.1,0.1,2.2,0.1,3.3,0.1c0.6-0.1,1.1,0,1.6-0.1c0.1,0,0.3,0,0.3-0.1
		l0.1,0l0,0l0,0l0,0c-0.1,0,0,0-0.1,0.1l0,0l0.1-0.1c0.1-0.1,0.1-0.1,0.1-0.1l0,0c0.1-0.1,0-0.1,0-0.2c0-0.4-0.3-0.9-0.5-1.3
		c-0.1-0.2-0.3-0.4-0.4-0.6c-0.1-0.1-0.2-0.1-0.2-0.3c-0.1-0.1-0.1-0.1-0.2-0.1l-0.1-0.1c-0.1-0.1-0.1-0.1-0.2-0.1
		c-0.2-0.1-0.5-0.5-0.6-0.7c-0.2-0.3-0.3-0.5-0.4-0.7c-0.3-0.5-0.5-1-0.7-1.6c-0.2-0.5-0.4-1.1-0.5-1.7c-0.2-0.5-0.3-1.1-0.3-1.7
		c-0.1-0.6-0.1-1.1,0-1.7l0.1-0.9c0.1-0.3,0.1-0.6,0.2-0.9c0.2-0.6,0.5-1,0.8-1.5c0.4-0.5,0.8-0.9,1.3-1.1l1.3-1l0,0
		c-0.2-0.1,0.3,0.1,0.2,0.2l0,0l0,0l-0.1,0.1l-0.1,0.1l-0.2,0.1l-0.3,0.2l-0.7,0.5l-0.1-0.1l0.6-0.6l0.3-0.2l0.1-0.2l0.1-0.1l0,0
		l0,0l0,0c-0.1,0.2,0.4,0.3,0.2,0.2l0,0l-1.2,1.1c-0.5,0.4-0.8,0.7-1.1,1.2c-0.3,0.4-0.5,0.9-0.6,1.4c0,0.2-0.2,0.5-0.1,0.8l0,0.8
		c0,0.5,0,1.1,0.1,1.6s0.2,1,0.3,1.5c0.1,0.5,0.3,1,0.4,1.5c0.2,0.5,0.4,1,0.6,1.5c0.1,0.2,0.3,0.5,0.4,0.7c0.2,0.3,0.2,0.4,0.4,0.6
		c0,0,0.1,0.1,0,0l0.1,0.1c0.1,0.1,0.2,0.1,0.2,0.1c0.2,0.1,0.2,0.2,0.3,0.4c0.2,0.3,0.4,0.5,0.6,0.7c0.3,0.5,0.5,1.1,0.6,1.8
		c0,0.1,0,0.4-0.1,0.6c-0.1,0.1,0,0.2-0.2,0.4c-0.1,0.2-0.2,0.2-0.3,0.2l-0.1,0.1l-0.1,0.1l0,0l0,0l-0.1,0.1l-0.3,0
		c-0.1,0-0.3,0.1-0.5,0.1c-0.6,0.1-1.2,0.1-1.7,0c-1.1,0-2.2-0.1-3.4-0.1l0.3-0.7l2.3,1.7c0.4,0.3,0.8,0.6,1.2,0.8l0.7,0.3l0.7,0.1
		c0.4,0.1,0.9,0.2,1.4,0.2c0.5,0,0.9,0.1,1.4,0.1c0.5,0,0.9-0.2,1.5-0.1c0.6,0.1,1,0.4,1.4,0.6c0.8,0.6,1.6,1.3,2.2,1.9
		c0.3,0.4,0.7,0.7,1,1c0.3,0.4,0.6,0.6,1,1c0.8,0.6,1.5,1.2,2.3,1.7C880.1,590.8,880.9,591.4,881.6,591.9L881.6,591.9z"/>
</g>
<g>
	<path fill="#FFFFFF" d="M816.8,514.5c0,0-0.2-0.1-0.5-0.3s-0.9-0.3-1.6-0.4c-0.4,0-0.7,0.1-1.1,0.3c-0.3,0.2-0.6,0.6-0.7,1.1
		c-0.4,1-0.7,2-1.2,3.2c-0.4,1.2-0.8,2.4-1.4,3.8c-0.3,0.7-0.6,1.3-1,2c-0.1,0.2-0.3,0.3-0.5,0.4c-0.1,0-0.2,0.1-0.4,0.2l-0.3,0
		c-0.1,0-0.4,0-0.6,0.1c-0.2,0-0.4,0-0.6,0c-1.7-0.2-3.1-0.9-4.6-1.7c-0.7-0.3-1.4-0.8-2.2-1.3c-0.7-0.6-1.4-1-1.9-1.8
		c-0.1-0.2-0.2-0.4-0.4-0.7l-0.1-0.6c-0.1-0.3-0.2-0.9-0.3-1.3c-0.1-0.8-0.2-1.7-0.2-2.5c0-0.8,0-1.7,0-2.5c0-0.4,0.1-0.9,0-1.1
		c0-0.4,0-0.8-0.1-1.2c-0.1-0.3-0.1-0.7-0.2-1c-0.1-0.3-0.2-0.7-0.3-1.1c-0.1-0.3-0.2-0.7-0.4-1c-0.1-0.2-0.1-0.2-0.1-0.3l-0.1-0.3
		c0-0.3,0-0.4-0.1-0.6c0.1-1.5,0.3-2.9,0.7-4.1c0.2-0.6,0.4-1.2,0.8-1.7c0.3-0.5,0.8-1,1.2-1.2c0.9-0.6,1.8-0.9,2.3-1.2
		c0.7-0.4,1-0.7,1.2-1.1c0-0.4,0.2-0.5,0.2-0.5l0.1,0c0,0,0,0.2-0.1,0.6c-0.1,0.4-0.5,0.9-1.1,1.3c-0.6,0.4-1.3,0.9-2.2,1.4
		c-0.8,0.5-1.3,1.5-1.6,2.7c-0.3,1.2-0.6,2.5-0.5,3.8c0,0.1,0,0.3,0,0.4l0,0.1c0.1,0.1,0.1,0.2,0.1,0.2c0.1,0.3,0.3,0.8,0.4,1.1
		s0.2,0.8,0.3,1.2c0,0.4,0.1,0.8,0.1,1.3c0,0.4,0,0.8,0,1.1c0,0.5-0.1,0.9-0.1,1.2c0,0.8-0.1,1.6,0,2.4c0,1.6,0,3.3,0.7,4.7
		c0.4,0.6,1,1.2,1.7,1.6c0.6,0.5,1.3,0.9,2.1,1.3c1.4,0.8,2.9,1.5,4.4,1.6c0.2,0,0.4,0,0.5,0s0.4,0,0.6-0.1l0.3,0
		c0,0,0.1-0.1,0.2-0.1c0.1-0.1,0.3-0.2,0.3-0.4c0.4-0.5,0.7-1.2,1-1.9c0.6-1.3,1.1-2.6,1.5-3.7c0.4-1.2,0.8-2.3,1.3-3.2
		c0.2-0.5,0.5-0.9,0.9-1.2c0.4-0.2,0.9-0.3,1.2-0.3c0.8,0,1.3,0.3,1.7,0.5C816.6,514.3,816.8,514.5,816.8,514.5L816.8,514.5z"/>
</g>
<g>
	<path fill="#FFFFFF" d="M807.9,509.5c-1-1.8-1.8-3.8-2.7-5.8c-0.4-1-0.8-2.1-0.7-3.1c0-0.5,0.2-1.1,0.5-1.5s0.5-0.9,0.6-1.5
		c0.2-1-0.1-2-0.5-3.1c-0.1-0.5-0.4-1-0.6-1.5c-0.1-0.5-0.1-1.1-0.1-1.6c0.3-2.2,1.6-4,3.3-5.3c3.4-2.6,7.3-4.3,11.2-5.9
		c2-0.8,3.7-1.9,5.9-2.5c1-0.3,2.1-0.2,3.2-0.4s2.1-0.4,3-0.8c1-0.4,1.9-1.1,2.1-2c0.3-1,0.4-2,0.5-3c0.2-1,0.3-2.1,0.6-3.1
		c0.3-1,0.9-1.9,1.5-2.9c1.2-1.7,2.8-3.3,4.5-4.5c1.7-1.2,3.2-2.7,4.5-4.3c0.6-0.8,1.3-1.6,1.9-2.5c0.5-0.9,1.1-1.8,1.6-2.7
		c1.2-1.7,2.6-3.3,3.9-5c1.4-1.6,2.8-3.1,4.4-4.6c0.7-0.7,1.7-1.5,2.5-2c0.7-0.6,1.3-1.5,2-2.3c0.7-0.9,1.6-1.5,2.6-2
		c0.9-0.6,1.8-1.1,2.7-1.6c0.9-0.5,1.9-1.1,2.8-1.4c1-0.5,2-0.8,3.1-1.1c0.3,0,0.6-0.1,0.8-0.1l0.8,0c0.5,0,1.1,0.1,1.6,0.1l3.2,0.4
		l3.1,0.5c0.6,0.1,1.1,0.2,1.5,0.3c0.5,0.2,1.1,0.2,1.5,0.5c1,0.4,1.9,0.9,2.9,1.3c1,0.4,1.9,0.8,2.9,0.8l0.2,0l0.1,0l0.4,0
		c0.3,0,0.6-0.1,0.8-0.2c0.5-0.1,1-0.2,1.5-0.3c1-0.2,2.1-0.5,3-0.7l3-0.7c0.5-0.1,1-0.2,1.6-0.4c0.5-0.1,1-0.2,1.5-0.4
		c2-0.6,4.2-1,6-1.8c1-0.4,2-0.7,2.9-1.1c1-0.3,2.1-0.6,3.1-0.8c1-0.2,2.2-0.3,3.3-0.1l0.4,0.1l0.4,0.2c0.3,0.1,0.6,0.2,0.7,0.3
		c0.5,0.2,0.9,0.5,1.4,0.9c0.8,0.6,1.8,1.1,2.7,1.4c0.2,0,0.5,0.2,0.7,0.2c0.2,0,0.4,0.1,0.7,0.1l0.4,0l0.4,0c0.3,0,0.5,0,0.9,0.1
		c1.2,0.2,2.2,0.5,3.2,1.2c0.2,0.2,0.5,0.4,0.6,0.6c0.2,0.1,0.2,0.3,0.3,0.4c0,0.1,0.1,0.2,0.2,0.4l0.6,1.5c0.4,1,0.8,1.8,1.7,1.9
		c1.1,0.2,2,0.7,3,0.9c0.4,0.1,0.9,0.1,1.3-0.1c0.2-0.1,0.3-0.2,0.5-0.3c0.2-0.2,0.3-0.4,0.4-0.5c0.3-0.4,0.6-0.8,0.8-1.3
		c0.2-0.2,0.2-0.5,0.5-0.8l0.1-0.2c0.1-0.1,0.2-0.1,0.3-0.1s0.3,0,0.4,0.1c0.1,0.1,0.2,0.1,0.2,0.2l0.2,0.2c0.1,0.1,0.5,0.2,0.6,0.4
		c0.2,0.2,0.5,0.4,0.7,0.6c0.5,0.4,0.7,1,1,1.5c0.2,0.3,0.2,0.5,0.2,0.8l0,0.4l0.1,0.3c0,0.3,0.1,0.6,0.2,0.8
		c0.1,0.2,0.1,0.5,0.2,0.7c0.2,0.4,0.4,0.7,0.7,0.8c0.1,0.1,0.2,0.1,0.2,0c0.1,0.1,0.2,0,0.4,0l0.1,0l0,0l0,0l0.1,0l0.4,0
		c0.6-0.1,1-0.2,1.5-0.4c0.5-0.1,1-0.3,1.4-0.5l0,0l0,0l1.5-0.3l0.9-0.2l-0.3,0.9c-0.3,0.7-0.3,1.6-0.2,2.4c0.1,0.8,0.4,1.6,0.7,2.5
		c0.3,0.9,0.6,1.8,0.6,2.8c0,1-0.4,2-0.8,2.8c-0.9,1.6-2.1,3.1-3.6,4.3c-1.6,1.3-3.8,1-5.6,0.9c-0.9-0.2-1.8-0.3-2.7-0.6l-0.7-0.3
		l-0.6-0.4c-0.4-0.2-0.8-0.4-1.2-0.6c-0.7-0.3-1.6-0.3-2.4-0.2c-0.8,0.1-1.8,0.3-2.7,0.4c-1.8,0.3-3.6,0.5-5.3,1
		c-0.8,0.2-1.5,0.7-1.8,1.5c-0.5,0.8-1,1.5-1.5,2.2c-1.1,1.4-2.5,2.8-4,3.8c-0.7,0.6-1.8,0.9-2.6,1c-0.3,0-0.5,0-0.7-0.1
		c-0.2,0-0.5-0.2-0.7-0.3c-0.5-0.2-0.9-0.7-1-1.2c-0.2-0.5-0.1-1,0.1-1.5c0.2-0.5,0.4-0.8,0.6-1.2c0.4-0.8,0.9-1.6,1.4-2.4
		c1-1.5,2-3,3-4.5c1-1.5,2.2-2.9,3.6-4.1c1.3-1.3,2.7-2.5,3.9-3.8c0.6-0.6,1.1-1.5,1.3-2.3s0.6-1.7,0.7-2.6c0-0.3,0-0.4-0.2-0.5
		c-0.1-0.2,0-0.3,0-0.5c0.1-0.1,0-0.2,0.1-0.3c0.2-0.5,0.5-0.8,0.8-1.2c0.6-0.7,1.1-1.5,1.6-2.2l0.1,0.1c-0.6,0.7-1.1,1.4-1.6,2.2
		c-0.3,0.3-0.5,0.8-0.7,1.1c-0.1,0.1-0.1,0.2-0.1,0.3c-0.1,0.1,0,0.2,0,0.2l0,0l0,0l0.1,0.1c0.1,0.1,0.1,0.1,0.1,0.2
		c0,0.1,0,0.3,0.1,0.3c0,0.9-0.3,1.8-0.6,2.7c-0.3,0.8-0.7,1.7-1.4,2.4c-1.2,1.3-2.5,2.6-3.8,3.9c-1.3,1.3-2.4,2.7-3.5,4.1
		c-1,1.5-2,3-2.9,4.6c-0.5,0.8-1,1.5-1.3,2.3c-0.2,0.4-0.4,0.8-0.6,1.2c0,0.4-0.1,0.8,0,1.1c0.2,0.7,1,1.1,1.8,1.1
		c0.2,0,0.4,0,0.6-0.1l0.3,0l0.3-0.2l0.6-0.3c0.2-0.1,0.3-0.2,0.5-0.3c1.5-1,2.7-2.3,3.8-3.7c0.6-0.7,1.1-1.3,1.5-2.2l0.4-0.6
		c0.2-0.2,0.4-0.3,0.6-0.6l0.6-0.4l0.6-0.3c1.9-0.6,3.5-0.7,5.4-1.1c0.9-0.2,1.7-0.4,2.7-0.5c0.9-0.2,2-0.2,2.9,0.2
		c0.5,0.2,0.8,0.4,1.3,0.6l0.5,0.3l0.6,0.2c0.8,0.3,1.7,0.5,2.6,0.7c0.9,0.1,1.8,0.2,2.6,0.2c0.9,0,1.6-0.4,2.3-0.9
		c1.4-1.1,2.5-2.4,3.3-4c0.3-0.7,0.8-1.6,0.7-2.4c0-0.8-0.2-1.6-0.5-2.4c-0.2-0.4-0.3-0.9-0.5-1.3c-0.1-0.5-0.2-1-0.3-1.4
		c-0.1-1-0.1-2,0.3-2.9l0.6,0.7l-1.5,0.3l0.1-0.1c-0.5,0.2-1,0.3-1.5,0.4c-0.5,0.1-1,0.3-1.6,0.4l-0.4,0l-0.1,0l-0.1,0l0,0l-0.3,0
		c-0.1,0-0.3,0-0.5,0c-0.1,0-0.4,0-0.5-0.2c-0.7-0.3-1.1-0.9-1.3-1.4c-0.2-0.3-0.2-0.5-0.2-0.8c0-0.3-0.1-0.5-0.2-0.8l-0.1-0.2
		l0-0.1l0-0.1l-0.1-0.3c-0.1-0.2-0.1-0.5-0.2-0.7c-0.2-0.4-0.4-0.8-0.8-1.1c-0.2-0.1-0.4-0.3-0.5-0.4l-0.7-0.4
		c-0.2-0.1-0.2-0.1-0.4-0.3l0.1,0.1c0.1,0.1,0.2,0,0.2,0l0.1,0l0,0c-0.1,0.1-0.3,0.3-0.3,0.5c-0.2,0.5-0.5,0.9-0.9,1.4
		c-0.2,0.2-0.4,0.5-0.6,0.7c-0.2,0.2-0.5,0.5-0.9,0.6c-0.7,0.2-1.3,0.1-1.8,0.1c-1.2-0.2-2.1-0.6-3.1-0.8c-0.2,0-0.7-0.1-0.9-0.3
		s-0.5-0.4-0.6-0.6c-0.4-0.5-0.6-1-0.8-1.6l-0.6-1.5c0-0.1-0.1-0.2-0.1-0.3c-0.1-0.1-0.1-0.2-0.2-0.3c-0.2-0.1-0.2-0.3-0.5-0.5
		c-0.7-0.6-1.7-0.9-2.7-1c-0.2,0-0.5,0-0.8,0c-0.1,0-0.3,0-0.4,0l-0.5,0c-0.3,0-0.6-0.1-0.9-0.1c-0.3-0.1-0.5-0.2-0.8-0.3
		c-1-0.5-1.9-1-2.9-1.5c-0.5-0.2-0.8-0.6-1.3-0.8c-0.2-0.2-0.4-0.2-0.7-0.3l-0.3-0.1l-0.4,0c-1-0.2-2-0.1-3,0c-1,0.1-2,0.4-3,0.7
		c-1,0.4-2,0.7-2.9,1.1c-2,0.8-4.1,1.2-6.1,1.8c-0.5,0.1-1,0.2-1.6,0.4c-0.5,0.1-1,0.2-1.5,0.3l-3,0.7c-1,0.2-2.1,0.5-3,0.7
		c-0.5,0.1-1,0.2-1.6,0.2c-0.3,0-0.6,0.1-0.8,0.1l-0.4,0c-0.1,0-0.1,0-0.2,0l-0.2,0c-1.1,0-2.2-0.5-3.1-0.9c-1-0.4-1.9-0.9-2.8-1.3
		c-0.5-0.2-1-0.3-1.5-0.4c-0.5-0.2-1-0.3-1.5-0.3l-3.1-0.5l-3.1-0.3c-0.5,0-1.1-0.1-1.6-0.1c-0.5,0-1.1-0.1-1.5-0.1
		c-1,0.2-1.9,0.6-2.9,1c-1,0.4-1.9,0.9-2.8,1.4c-0.9,0.5-1.8,1-2.7,1.6c-0.9,0.6-1.7,1.2-2.4,2c-0.6,0.8-1.2,1.7-2.2,2.4
		c-0.9,0.6-1.7,1.2-2.4,1.9c-1.6,1.4-3,3-4.4,4.6c-1.4,1.6-2.7,3.2-4,4.9c-0.6,0.9-1.2,1.8-1.6,2.7c-0.6,0.9-1.2,1.8-1.9,2.6
		c-1.3,1.6-2.9,3.2-4.7,4.3c-1.7,1.2-3.2,2.7-4.4,4.4c-0.6,0.8-1.2,1.8-1.5,2.6c-0.3,1-0.5,2-0.7,3.1c-0.2,1-0.3,2.1-0.6,3.1
		c-0.1,0.6-0.5,1-0.9,1.4c-0.4,0.3-0.9,0.7-1.4,0.8c-1,0.5-2.1,0.6-3.1,0.8c-1,0.2-2.1,0.1-3.1,0.3c-2.1,0.5-3.8,1.5-5.8,2.4
		c-4,1.6-7.8,3.2-11.2,5.7c-1.6,1.2-2.9,3.1-3.2,5.1c0,0.5-0.2,1,0,1.6c0.1,0.5,0.4,1,0.6,1.5c0.3,1,0.6,2.1,0.4,3.2
		c-0.1,0.6-0.3,1-0.6,1.5s-0.4,1-0.4,1.5c-0.1,1.1,0.3,2,0.6,3.1C806.2,505.7,807,507.6,807.9,509.5L807.9,509.5z"/>
</g>
<g>
	<path fill="#FFFFFF" d="M962.3,567.6c0,0-0.2-0.2-0.7-0.4c-0.4-0.3-1-0.7-1.7-1.4c-0.4-0.3-0.7-0.7-1-1.3c-0.3-0.5-0.3-1.3-0.3-2
		c-0.1-0.7-0.1-1.5-0.6-2.1c-0.2-0.3-0.6-0.5-1-0.5c-0.4,0-0.8,0.1-1.3,0c-1.8,0-3.8-0.2-6-0.7c-1.1-0.2-2.2-0.5-3.3-0.9
		c-0.5-0.2-1.2-0.4-1.7-0.8c-0.5-0.4-1.1-0.6-1.7-0.8c-2.4-0.9-4.9-1.5-7.6-2.3c-2.7-0.8-5.6-1.5-8.4-3c-0.7-0.4-1.4-0.7-2.1-1.3
		c-0.2-0.1-0.3-0.3-0.5-0.4l-0.4-0.5c-0.3-0.3-0.6-0.6-0.8-0.9c-1-1.3-1.8-2.6-2.7-4.1c-1.7-2.9-3.5-5.8-5.3-8.8
		c-0.9-1.5-1.9-3.1-2.9-4.5c-0.6-0.7-1.1-1.5-1.6-2.2c-0.6-0.7-1.1-1.4-1.7-2.2c-0.6-0.7-1.1-1.5-1.6-2.3c-0.4-0.9-0.9-1.8-1.1-2.7
		c-0.6-1.9-0.9-3.7-1.4-5.6c-0.8-3.8-1.7-7.6-2.2-11.6c-0.3-2-0.6-3.9-0.7-6c0-1.1-0.1-2-0.1-3c0-1,0.1-2,0.1-3
		c0.2-4.1,0.7-8.2,1.1-12.3c0.2-2,0.4-4.1,0.5-6.2c0.1-2.1,0.1-4.1-0.1-6.1c-0.3-2-0.7-4-1.1-6.1s-0.9-4-1.4-6c-0.4-2-0.9-4-1.3-6
		c-0.2-1-0.4-2-0.5-3c-0.2-1-0.2-2-0.3-3.1c-1-8-2.2-15.9-3.6-23.5c-0.4-1.9-0.8-3.8-1.4-5.5c-0.6-1.8-1.2-3.6-1.8-5.4
		c-0.6-1.8-1.3-3.5-1.9-5.1c-0.7-1.7-1.3-3.3-1.9-5c-1.3-3.3-2.6-6.5-3.8-9.5s-2.6-6.1-3.8-8.8c-2.7-5.5-5.6-10.4-8.6-14.4
		c-0.7-1-1.6-1.9-2.2-2.8c-0.7-0.9-1.5-1.8-2.2-2.5c-1.5-1.6-2.8-3-4.1-4.3c-1.3-1.3-2.5-2.4-3.5-3.3c-0.5-0.4-0.9-0.9-1.4-1.3
		c-0.5-0.4-0.9-0.7-1.2-1c-1.5-1.2-2.3-1.9-2.3-1.9l0.1-0.1c0,0,0.8,0.6,2.4,1.8c0.4,0.3,0.8,0.6,1.2,1c0.5,0.4,0.9,0.8,1.4,1.3
		c1,1,2.3,2,3.5,3.3c2.6,2.5,5.7,5.7,8.8,9.6c3.1,4,6.1,8.9,8.8,14.4c1.3,2.8,2.6,5.8,3.9,8.8c1.2,3.1,2.7,6.3,4,9.5
		c1.3,3.3,2.7,6.7,3.9,10.3c0.6,1.8,1.2,3.6,1.8,5.4c0.6,1.9,1,3.7,1.4,5.6c1.5,7.7,2.8,15.5,3.6,23.7c0.2,4,1.3,8,2.1,12
		c0.4,2,0.9,4,1.3,6c0.4,2,0.9,4,1.1,6.1s0.1,4.2-0.1,6.3c-0.1,2.1-0.3,4.2-0.5,6.2c-0.4,4.1-0.8,8.2-1.1,12.2c0,1-0.1,2-0.1,3
		c0,1,0.1,2,0,3c0.2,2,0.4,3.9,0.7,6c0.6,3.9,1.3,7.8,2.2,11.6c0.4,1.9,0.8,3.8,1.3,5.6c0.2,1,0.6,1.8,1,2.5
		c0.5,0.8,0.9,1.5,1.6,2.3c0.6,0.7,1.1,1.4,1.7,2.2c0.6,0.7,1.1,1.5,1.7,2.2c1.1,1.5,2,3.1,2.9,4.5c1.8,3,3.6,6,5.3,8.9
		c0.9,1.5,1.7,2.8,2.6,4.1c0.2,0.3,0.5,0.7,0.8,0.9l0.4,0.5c0.2,0.1,0.3,0.3,0.5,0.4c0.6,0.5,1.2,0.9,1.9,1.3c2.8,1.3,5.6,2.2,8.3,3
		c2.7,0.8,5.3,1.4,7.7,2.5c0.6,0.2,1.2,0.4,1.7,0.8c0.5,0.4,1,0.7,1.5,0.8c1.1,0.4,2.2,0.6,3.3,0.9c2.1,0.4,4.1,0.7,5.9,0.8
		c0.5,0,0.8-0.1,1.3,0c0.4,0.1,0.8,0.3,1.1,0.6c0.5,0.7,0.6,1.5,0.7,2.2c0.1,0.7,0.1,1.3,0.3,1.9c0.3,0.5,0.7,0.9,0.9,1.3
		c0.7,0.7,1.3,1.1,1.7,1.4C962.1,567.4,962.3,567.4,962.3,567.6L962.3,567.6z"/>
</g>
<g>
	<path fill="#FFFFFF" d="M955.2,392.3c-1.7,0.3-3.4,0.4-5.1,0.1c-1.7-0.5-3.3,0.1-4.8,0.9c-1.5,0.7-2.9,1.8-4.1,2.8
		c-1.3,1-2.9,1.8-4.3,2.7l-8.9,4.9c-1.5,0.9-3,1.5-4.5,2.3c-1.5,0.7-3.1,1.4-4.4,2.4c-0.3,0.2-0.6,0.6-0.9,0.8
		c-0.3,0.3-0.7,0.6-1.1,0.8c-0.7,0.4-1.5,0.9-2.3,1.1c-0.8,0.2-1.7,0.5-2.5,0.3c-0.9-0.2-1.6-0.1-2.3,0.3c-0.8,0.3-1.4,0.8-2.2,1.2
		c-0.4,0.2-0.9,0.3-1.3,0.3c-0.4,0-0.9-0.1-1.3,0c-1.7-0.2-3.3-0.5-5-0.5c-0.4,0-0.8,0-1.2,0.1c-0.4,0-0.8,0.2-1.3,0.3
		c-0.8,0.2-1.7,0.5-2.5,0.5s-1.8,0.1-2.6-0.4c-0.7-0.4-1.4-0.8-2.2-0.9c-0.7-0.2-1.6-0.3-2.4-0.1c-0.8,0.2-1.5,0.6-2.3,1l-2.3,1.1
		l-2.2,1.2l0.1-0.1l-7,8.1l-0.3-0.5c1.7-0.4,3.5-0.9,5-1.6c1.6-0.9,3.2-1.6,5-2.2l0.7-0.2l0.7-0.1l1.3-0.1c0.4,0,0.9,0,1.4,0.1
		c0.2,0,0.5,0.2,0.7,0.3s0.3,0.6,0.4,0.8c0.2,0.8,0.5,1.7,0.8,2.5c0.2,0.4,0.4,0.8,0.7,1.1c0.2,0.1,0.3,0.3,0.4,0.3
		c0.1,0.1,0.4,0.1,0.7,0.1c1.7,0.4,3.6,0.8,5.2,0.9l0.6,0c0.3,0,0.5,0,0.7,0.1c0.4,0.1,1,0.3,1.3,0.3c0.4,0.1,0.7,0.1,0.9-0.2
		l0.2-0.2l0.2-0.2c0.1-0.2,0.5-0.4,0.7-0.5c0.9-0.4,1.9-0.6,2.8-0.6c0.9,0,1.8-0.1,2.8-0.1c0.9,0,1.8-0.1,2.6-0.2
		c0.1,0,0.2-0.1,0.3,0l0.2-0.1c0.2-0.1,0.4-0.2,0.6-0.3l1.1-0.6c1.6-0.9,3.2-1.6,4.9-2.5l1.2-0.6c0.4-0.2,0.8-0.4,1.4-0.4
		c-0.1,0,0,0,0,0l0,0l0.1-0.1c0.1-0.1,0.1-0.1,0.1-0.1s0,0,0.1-0.1l0.1-0.1c0.1-0.2,0.3-0.3,0.4-0.5c0.3-0.3,0.5-0.8,0.7-1.1
		l0.4-0.6c0.2-0.2,0.3-0.4,0.4-0.5c0.4-0.3,0.8-0.7,1.2-1c0.5-0.3,0.8-0.5,1.3-0.6c0.2-0.1,0.4-0.2,0.7-0.2c0.2-0.1,0.7-0.1,0.8-0.1
		c0.8,0,1.8-0.2,2.3-0.5c0,0,0,0,0.1-0.1c0,0,0,0,0.1-0.1c0.1-0.1,0.1-0.2,0.2-0.4l0.4-0.6c0.3-0.4,0.6-0.7,0.8-1.2
		c0.6-0.7,1.1-1.4,1.8-2.1c0.3-0.4,0.6-0.6,1-1c0.4-0.3,0.7-0.6,1.3-0.8c0.5-0.1,0.9-0.2,1.3-0.4c0.3-0.1,0.8-0.3,1.2-0.5
		c0.4-0.2,0.7-0.4,1.1-0.7c0.1-0.2,0.3-0.2,0.5-0.4l0.2-0.2l0.2-0.2c0.6-0.6,1.4-1.2,2-1.8c0.7-0.6,1.4-1.1,2.2-1.7l1.1-0.8
		c0.3-0.2,0.7-0.6,1.1-0.8c0.6-0.6,1.2-1.2,1.8-1.9c0.3-0.3,0.6-0.7,0.8-1c0.3-0.4,0.6-0.8,1-1c0.6-0.6,1.4-1.3,2.2-1.8
		c0.4-0.2,0.9-0.4,1.4-0.6c0.3-0.1,0.9-0.3,1.2-0.4c0.8-0.3,1.6-0.8,2.4-1.2c0.4-0.2,0.7-0.4,1.1-0.8c0.3-0.2,0.7-0.4,1.1-0.8
		c0.7-0.5,1.4-1.1,1.7-1.7c0.3-0.7,0.4-1.6,0.5-2.5s0-1.7-0.2-2.6c0-0.4-0.1-0.8-0.2-1.3c-0.1-0.2,0-0.4-0.1-0.6
		c-0.1-0.2-0.1-0.3-0.2-0.4l-0.1-0.1c0.3-0.3-0.6,0.6,0.6-0.8c0.2,0.1,0.1,0.1,0.2,0.1l0.2,0.1c0.1,0.1,0.2,0.1,0.2,0.3
		c0.2,0.1,0.3,0.4,0.4,0.6c0.3,0.4,0.5,0.8,0.7,1.2c0.8,1.7,1.1,3.6,1.1,5.5c0,0.9-0.1,1.9-0.2,2.8l-0.3,2.7l-0.5,5.4
		c-0.2,1.8-0.3,3.6-0.4,5.4c-0.1,0.9-0.2,1.8-0.2,2.7v2.7c-0.1,0.9-0.1,1.9-0.3,2.7c0,0.2-0.1,0.4-0.2,0.7c-0.1,0.3-0.2,0.5-0.4,0.7
		c-0.4,0.3-0.7,0.6-1.1,0.9c-0.8,0.5-1.5,1-2.5,1.3c-0.1,0-0.2,0.1-0.6-0.1c-0.2-0.1-0.2-0.3-0.2-0.4c0.1-0.1,0-0.2,0-0.2l0.2-0.6
		c0.2-0.4,0.3-0.9,0.4-1.2l0.3-1.3l0.2-1.4c0.2-0.9,0.2-1.7,0.4-2.7c0.2-1.8-0.4-3.5-1.1-5.1c-0.4-0.8-0.8-1.6-1.4-2.3
		s-1.3-1.3-2.2-1.4c-1.8-0.2-3.6-0.1-5.3,0.5l0-0.1c1.8-0.6,3.5-0.7,5.3-0.6c0.9,0.1,1.7,0.7,2.3,1.5c0.6,0.7,1.1,1.5,1.5,2.3
		c0.4,0.8,0.7,1.7,0.9,2.5c0.2,0.8,0.3,1.8,0.4,2.7c-0.1,0.9-0.1,1.9-0.3,2.7l-0.2,1.4l-0.3,1.3c-0.1,0.4-0.2,0.9-0.4,1.3l-0.2,0.6
		c-0.1,0.1,0,0.1-0.1-0.1c-0.1-0.1,0,0,0.1,0c0.8-0.2,1.6-0.7,2.3-1.2c0.3-0.2,0.7-0.6,1.1-0.8c0.1-0.2,0.3-0.3,0.4-0.5
		c0-0.2,0.2-0.4,0.2-0.6c0.2-0.9,0.2-1.7,0.2-2.7v-2.7c0-0.9,0.1-1.9,0.1-2.7c0.2-1.8,0.2-3.6,0.4-5.4l0.5-5.4l0.2-2.7
		c0.1-0.9,0.2-1.8,0.2-2.7c0-1.8-0.3-3.5-1-5.1c-0.2-0.4-0.4-0.7-0.6-1.1c-0.1-0.2-0.2-0.3-0.4-0.5c-0.1-0.1-0.2-0.1-0.2-0.2
		l-0.1-0.1c0,0-0.1-0.1,0,0c1.2-1.5,0.2-0.5,0.6-0.7l0,0c0.3,0.3,0.4,0.6,0.5,0.8c0.1,0.2,0.1,0.5,0.2,0.7c0.1,0.5,0.2,0.9,0.3,1.4
		c0.2,0.9,0.2,1.8,0.2,2.7c0,0.9-0.1,1.9-0.5,2.8c-0.6,0.9-1.3,1.6-2.1,2.1c-0.4,0.3-0.7,0.6-1.1,0.8c-0.3,0.2-0.8,0.5-1.2,0.7
		c-0.8,0.5-1.6,0.9-2.4,1.3c-0.5,0.3-0.9,0.3-1.3,0.5c-0.3,0.1-0.8,0.3-1.2,0.5c-0.7,0.4-1.4,0.9-2,1.6c-0.3,0.2-0.6,0.6-0.9,0.9
		c-0.3,0.4-0.6,0.7-0.9,1.1c-0.6,0.7-1.3,1.4-1.9,2.1c-0.4,0.3-0.7,0.6-1.1,0.9L943,402c-0.7,0.6-1.4,1.1-2,1.7
		c-0.7,0.6-1.3,1.1-1.9,1.8c-1.2,1.5-3.2,2.3-4.9,2.6c-0.3,0.1-0.7,0.4-1,0.6c-0.3,0.2-0.6,0.6-1,0.9c-0.6,0.6-1.2,1.3-1.7,2
		c-0.3,0.3-0.6,0.7-0.7,1.1l-0.3,0.5c-0.1,0.1-0.1,0.2-0.2,0.2c0,0-0.1,0.1-0.2,0.2c-0.1,0.1-0.1,0.2-0.2,0.2
		c-0.5,0.3-1,0.5-1.4,0.5c-0.5,0.1-0.9,0.2-1.4,0.1c-0.1,0-0.3,0-0.3,0s-0.1,0-0.3,0c-0.2,0.1-0.3,0.1-0.5,0.2
		c-0.4,0.2-0.8,0.4-1.1,0.6c-0.3,0.2-0.7,0.5-1,0.7c-0.1,0.2-0.3,0.4-0.4,0.5l-0.4,0.6c-0.3,0.4-0.5,0.8-0.8,1.2
		c-0.1,0.2-0.3,0.4-0.4,0.5l-0.1,0.2c-0.1,0.1-0.1,0.2-0.3,0.2c-0.1,0.1-0.2,0.1-0.2,0.1l-0.1,0.1l0,0c0,0,0,0-0.1,0
		c-0.7,0.2-1.6,0.6-2.4,0.9c-1.6,0.7-3.2,1.5-4.8,2.4l-1.1,0.6c-0.2,0.1-0.4,0.2-0.6,0.3l-0.4,0.2c-0.1,0-0.3,0-0.3,0.1
		c-0.9,0.2-1.8,0.2-2.8,0.2c-0.9,0-1.8,0-2.6,0.1c-0.8,0.1-1.8,0.1-2.5,0.5c-0.2,0.1-0.3,0.2-0.5,0.3l-0.2,0.2l-0.3,0.3
		c-0.2,0.2-0.5,0.3-0.8,0.4c-0.3,0-0.5,0-0.8,0c-0.4-0.1-1-0.3-1.3-0.3c-0.2,0-0.4-0.1-0.6-0.1l-0.6,0c-1.9-0.1-3.7-0.5-5.4-0.9
		c-0.2,0-0.4-0.1-0.7-0.2c-0.3-0.1-0.5-0.3-0.6-0.5c-0.3-0.4-0.5-0.8-0.8-1.3c-0.4-0.8-0.7-1.7-0.8-2.6c0-0.3-0.1-0.3-0.2-0.4
		s-0.2-0.2-0.5-0.2c-0.4,0-0.9-0.1-1.2-0.1l-1.3,0.1l-0.6,0.1l-0.6,0.1c-1.7,0.5-3.3,1.3-4.9,2.1c-1.8,0.8-3.5,1.2-5.2,1.7l-1,0.2
		l0.6-0.8l7-8.1l0.1-0.1l0,0l2.2-1.2l2.3-1.1c0.8-0.3,1.5-0.7,2.4-1c0.9-0.2,1.8-0.1,2.6,0.1c0.9,0.2,1.7,0.6,2.4,1
		c0.7,0.4,1.5,0.4,2.3,0.3c0.8-0.1,1.6-0.4,2.4-0.6c0.3-0.1,0.8-0.2,1.3-0.3s0.8-0.1,1.3-0.1c1.7,0.1,3.4,0.4,5,0.6
		c0.9,0.1,1.7,0.2,2.3-0.2c0.8-0.3,1.4-0.8,2.2-1.2c0.4-0.2,0.8-0.4,1.3-0.4c0.5-0.1,0.9,0.1,1.4,0.1c0.7,0.2,1.6,0,2.4-0.3
		c0.8-0.2,1.5-0.6,2.2-1c0.3-0.2,0.7-0.5,1-0.7c0.3-0.3,0.6-0.6,1-0.9c1.5-1,3-1.7,4.5-2.4c1.5-0.7,3.1-1.4,4.5-2.3l8.9-4.8
		c1.5-0.9,3-1.6,4.3-2.6c1.2-1.1,2.6-2.1,4.2-2.9c0.7-0.4,1.5-0.7,2.4-0.9c0.4,0,0.8-0.2,1.3-0.1c0.4,0,0.9,0.1,1.3,0.1
		C951.8,392.5,953.6,392.4,955.2,392.3L955.2,392.3z"/>
</g>
<g>
	<path fill="#FFFFFF" d="M962.2,387.9c0,0,0.3,0.8,0.7,2c0.1,0.6,0.4,1.5,0.5,2.4c0,0.4,0,1-0.1,1.5c0,0.2-0.1,0.6-0.1,0.8
		c0,0.3,0,0.5,0,0.8c0.1,0.6,0.3,1.1,0.7,1.6s0.8,0.9,1.4,1.4c1,0.8,2.1,1.9,2.9,3c0.2,0.3,0.4,0.6,0.7,0.9c0.2,0.3,0.4,0.6,0.6,1
		c0.4,0.6,0.7,1.3,1.1,2c0.6,1.4,1.3,2.8,1.7,4.4c0.3,0.8,0.5,1.4,0.7,2.3c0.2,0.7,0.4,1.5,0.6,2.3s0.3,1.5,0.5,2.3
		c0.2,0.8,0.2,1.5,0.4,2.2c0.2,1.5,0.4,2.8,0.6,4.2c0.2,1.3,0.3,2.6,0.5,3.7c0.1,1.1,0.2,2.3,0.4,3.2c0.1,1,0.2,1.8,0.3,2.4
		c0.1,1.4,0.2,2.1,0.2,2.1l-0.1,0c0,0-0.2-0.8-0.4-2.2c-0.1-0.6-0.3-1.5-0.5-2.4c-0.2-0.9-0.3-2-0.5-3.1c-0.2-1.2-0.4-2.4-0.6-3.7
		c-0.2-1.3-0.4-2.7-0.6-4.1c-0.1-0.7-0.2-1.5-0.3-2.2l-0.1-1.1l-0.3-1.1c-0.2-0.8-0.3-1.5-0.5-2.2c-0.2-0.8-0.4-1.5-0.7-2.2
		c-0.4-1.5-1-2.9-1.7-4.3c-0.3-0.8-0.6-1.4-1-2c-0.2-0.3-0.4-0.7-0.5-0.9c-0.2-0.3-0.4-0.6-0.7-0.9c-0.8-1.2-1.9-2.2-2.8-3
		c-0.5-0.4-0.9-0.9-1.4-1.5c-0.3-0.5-0.6-1.1-0.6-1.8c0-0.3,0-0.6,0-0.9c0-0.2,0.1-0.6,0.1-0.8c0.1-0.6,0.2-1,0.1-1.5
		c0-0.9-0.3-1.8-0.3-2.5C962.3,388.6,962.1,387.9,962.2,387.9L962.2,387.9z"/>
</g>
<g>
	<path fill="#FFFFFF" d="M960.1,402.3c0,0,0.5,0.2,1.2,0.7c0.3,0.3,0.8,0.6,1.3,0.9c0.5,0.4,1,0.8,1.6,1.3c0.5,0.4,1.2,1.1,1.7,1.7
		c0.6,0.6,1.1,1.4,1.6,2.1c0.5,0.8,1,1.6,1.5,2.5c0.3,0.5,0.4,0.9,0.7,1.3c0.2,0.4,0.4,0.9,0.6,1.4l0.6,1.4c0.1,0.5,0.3,0.9,0.5,1.4
		c0.3,0.9,0.6,1.9,0.8,2.8c0.2,0.9,0.5,1.8,0.6,2.6c0.2,0.8,0.4,1.6,0.5,2.4c0.2,0.8,0.3,1.4,0.4,2c0.1,0.6,0.3,1.1,0.3,1.5
		c0.2,0.9,0.2,1.3,0.2,1.3l-0.1,0c0,0-0.2-0.4-0.5-1.3c-0.2-0.4-0.3-0.9-0.5-1.4s-0.4-1.2-0.6-1.9c-0.2-0.7-0.4-1.5-0.7-2.3
		c-0.2-0.8-0.5-1.7-0.7-2.6c-0.2-0.9-0.4-1.9-0.7-2.8c-0.1-0.5-0.2-1-0.4-1.4l-0.4-1.4c-0.1-0.5-0.4-1-0.6-1.4
		c-0.2-0.4-0.4-1-0.6-1.3c-0.4-0.9-1-1.7-1.4-2.4c-0.5-0.8-1-1.5-1.6-2.2c-0.5-0.7-1.1-1.2-1.6-1.8c-0.5-0.5-1-1-1.5-1.3
		c-0.5-0.4-0.9-0.7-1.2-1C960.5,402.6,960.1,402.4,960.1,402.3L960.1,402.3z"/>
</g>
<g>
	<path fill="#FFFFFF" d="M971.4,461.2c0,0,0.2-0.2,0.3-0.9c0.2-0.6,0.5-1.4,0.8-2.6c0.3-1.2,0.7-2.5,1.1-4.2s0.3-3.6,0.3-5.8
		c-0.1-2.1-0.3-4.6-0.8-7.2c-0.5-2.6-1.1-5.4-1.7-8.4c-0.3-1.5-0.6-3.1-0.9-4.6c-0.4-1.6-0.6-3.2-1.1-4.9c-0.3-1.7-0.9-3.3-1.5-5
		c-0.3-0.9-0.5-1.7-0.9-2.5c-0.2-0.4-0.4-0.8-0.6-1.2c-0.1-0.2-0.3-0.4-0.3-0.4l-0.1,0.1c-0.1,0.1-0.1,0.1-0.1,0.2
		c-0.1,0.1-0.1,0.2-0.2,0.2c-1,1.5-1.7,3.4-3,4.9c-0.2,0.2-0.3,0.4-0.6,0.6c-0.1,0.1-0.3,0.2-0.3,0.2l-0.3,0.2
		c-0.5,0.3-0.8,0.5-1.2,0.8c-0.8,0.7-1.4,1.4-1.9,2.2c-0.6,0.8-0.9,1.7-1.1,2.7c-0.1,1.1-0.4,2-0.5,3c-0.4,2-0.6,4.1-0.6,6.2
		c0.1,2.1,0.5,4.3,1.5,6.2c1.1,1.9,2.4,3.7,3.6,5.5c1.3,1.9,2.7,3.6,4.1,5.5c0.7,0.9,1.3,1.9,2.1,2.8c0.3,0.5,0.7,0.9,0.9,1.5
		c0.3,0.5,0.5,1.2,0.7,1.7c0.5,1,1.1,1.9,2.1,2.7c0.8,0.8,1.9,1.4,2.9,2l1.6,0.7l1.7,0.6l1.7,0.5l1.7,0.4c2.4,0.4,4.7,0.5,7.1,0.1
		c1.2-0.2,2.3-0.6,3.5-0.9c1.2-0.3,2.3-0.7,3.5-1c2.3-0.7,4.8-1.4,7.1-2.2l3.5-1.2c0.6-0.1,1.3-0.3,1.8-0.5l1.9-0.3
		c2.5-0.3,5-0.3,7.6-0.2c0.6,0,1.2,0.1,1.9,0.2l1.9,0.2c1.2,0.2,2.5,0.4,3.7,0.8c1.2,0.4,2.4,0.9,3.6,1.3c1.1,0.5,2.3,1,3.4,1.5
		c2.2,1,4.5,2.2,6.6,3.6c2.1,1.3,4.1,2.8,6,4.6c0.4,0.5,0.9,1,1.3,1.4c0.3,0.5,0.9,1,1.2,1.6c0.3,0.5,0.7,1.1,1,1.7
		c0.3,0.5,0.5,1.1,0.8,1.7c2,4.6,3.5,9.2,5.1,13.8c0.4,1.1,0.9,2.3,1.3,3.3c0.2,0.5,0.5,1,0.7,1.6c0.2,0.3,0.3,0.5,0.4,0.7
		c0.1,0.1,0.2,0.1,0.2,0.2l0.4,0.3c1,1,1.6,2,2.2,3c0.5,1.1,1.1,2.2,1.4,3.3c0.2,0.5,0.3,1.2,0.3,1.8c0,0.1,0,0.4-0.1,0.6l-0.1,0.4
		l-0.3,0.8c-0.4,1.1-0.6,2.2-0.9,3.3c0,0.2-0.1,0.6-0.1,0.8c0,0.1,0,0.3,0,0.4l0,0.1l0.1,0.2c0.1,0.1,0,0.4,0.1,0.6
		c0,0.1,0,0.4,0,0.5c0,0.4-0.1,0.6-0.2,0.9c-0.3,1.2-0.8,2.2-1.4,3.3c-0.3,0.5-0.7,1-1.1,1.5c-0.1,0.2-0.2,0.2-0.4,0.3l-0.3,0.2
		c-0.3,0.2-0.5,0.3-0.8,0.5c-1,0.6-2,1.1-3,1.5c-0.5,0.2-1.1,0.4-1.6,0.5c-0.5,0.2-1.1,0.3-1.8,0.3c-0.1,0-0.4,0-0.5,0
		c-0.2,0-0.5-0.2-0.5-0.3c-0.2-0.2-0.4-0.3-0.7-0.4c-0.5-0.2-1-0.5-1.4-0.8c-1-0.5-1.9-1.2-2.6-2c-0.2-0.3-0.4-0.5-0.5-0.8
		c0-0.1-0.1-0.3-0.1-0.5c0-0.1,0-0.3,0-0.4c0-0.4-0.3-0.9-0.5-1.3c-0.5-0.8-1.2-1.6-2-2c-0.2-0.1-0.4-0.2-0.6-0.2
		c-0.1,0-0.4,0-0.7,0.1c-0.6,0-1.2-0.2-1.7-0.3c-1-0.3-1.9-0.8-2.8-1.3c-0.5-0.2-0.9-0.5-1.3-0.8c-0.1-0.1-0.2-0.2-0.3-0.3l-0.1-0.1
		l-0.1-0.1l-0.2-0.1c-0.2-0.1-0.3-0.4-0.5-0.5c-1.3-1.6-2.4-3.1-3.3-4.8c-0.2-0.4-0.5-0.8-0.7-1.2l-0.4-0.7
		c-0.1-0.2-0.1-0.5-0.2-0.7c-0.2-0.5-0.2-0.9-0.4-1.3c-0.1-0.5-0.2-0.8-0.4-1.2c-0.4-0.8-0.9-1.5-1.6-1.5c-0.4,0-1-0.3-1.3-0.6
		c-0.4-0.3-0.7-0.6-1-1c-0.6-0.7-0.8-1.7-0.8-2.6c0.1-0.9,0-1.6,0-2.4c0-1.6,0-3.2,0.1-4.7c0-1.6-0.1-3-0.3-4.4
		c-0.1-0.6-0.3-1.4-0.6-1.9c-0.5-0.5-0.9-0.9-1.4-1.4c-0.5-0.4-1-0.8-1.4-1.4c-0.4-0.5-0.7-1.2-0.8-1.8c-0.2-1.2-0.3-2.4-0.6-3.4
		c-0.1-0.5-0.6-0.7-0.9-1.3c-0.3-0.5-0.4-0.9-0.6-1.4c-0.3-0.9-0.6-1.9-0.6-2.7c0-0.4,0.1-0.9,0.1-1.2c0.1-0.4,0.2-0.7,0.2-1.1
		c0.1-0.7,0.3-1.3,0.4-1.9c0.2-1.2,0.2-2,0.2-2.7c0-0.3-0.1-0.6-0.1-0.7c0-0.1,0-0.3,0-0.3l0.1,0c0,0,0,0.1,0,0.3
		c0,0.1,0,0.4,0.1,0.7c0,0.6-0.1,1.5-0.2,2.7c-0.1,0.6-0.2,1.2-0.3,2c-0.1,0.7-0.4,1.5-0.3,2.3c0.1,0.8,0.3,1.7,0.6,2.6
		c0.2,0.4,0.4,1,0.6,1.4c0.1,0.2,0.3,0.5,0.4,0.6l0.2,0.3c0,0.1,0.2,0.3,0.2,0.4c0.3,1,0.4,2.2,0.6,3.3c0.1,0.6,0.3,1.1,0.7,1.6
		s0.9,0.8,1.4,1.3c0.5,0.4,1.1,0.9,1.5,1.3c0.5,0.7,0.6,1.4,0.7,2.1c0.2,1.5,0.3,3,0.4,4.4c0,1.6,0,3.1,0,4.8c0,0.8,0,1.6,0,2.4
		c0,0.8,0.3,1.5,0.7,2.1c0.2,0.3,0.5,0.7,0.9,0.8c0.2,0.1,0.3,0.3,0.5,0.2c0.2,0.1,0.3,0.1,0.6,0.1l0.1,0.1l0,0l0.2,0
		c0.1,0,0.2,0,0.4,0.1c0.3,0.1,0.5,0.2,0.7,0.4c0.3,0.4,0.7,0.8,0.8,1.3c0.2,0.4,0.3,0.9,0.5,1.3c0.1,0.5,0.2,0.9,0.4,1.3
		c0.1,0.2,0.1,0.3,0.2,0.5l0.3,0.6c0.2,0.4,0.4,0.7,0.7,1.2c0.9,1.5,2.1,3.1,3.3,4.6c0.1,0.2,0.3,0.4,0.5,0.5l0.2,0.1
		c0.1,0.1,0,0,0.1,0.1l0.1,0.1c0.1,0.1,0.2,0.1,0.2,0.2c0.5,0.2,0.8,0.6,1.2,0.7c0.9,0.5,1.7,0.9,2.7,1.1c0.4,0.1,1,0.3,1.3,0.3
		c0.2,0,0.4,0,0.8,0c0.4,0,0.7,0.1,0.9,0.2c1,0.5,1.9,1.4,2.4,2.3c0.3,0.5,0.5,0.9,0.7,1.6c0,0.1,0,0.3,0,0.4c0.1,0.1,0,0.1,0,0.3
		c0.1,0.2,0.2,0.4,0.3,0.5c0.6,0.7,1.6,1.3,2.5,1.7c0.5,0.2,1,0.5,1.4,0.8c0.2,0.2,0.5,0.3,0.8,0.5c0.2,0.1,0.2,0.1,0.2,0.1
		c0.1,0,0.2,0,0.3,0c0.9,0,2-0.4,3-0.8s2-0.8,2.9-1.4c0.3-0.2,0.5-0.3,0.6-0.4l0.3-0.2l0.2-0.2c0.3-0.4,0.6-0.8,0.9-1.3
		c0.5-1,0.9-1.9,1.3-3c0-0.2,0.2-0.5,0.1-0.8c0-0.1,0-0.2,0-0.4c0-0.1,0.1-0.1,0-0.3l0-0.1c0.1,0.1-0.1-0.1,0-0.1
		c0-0.1-0.1-0.2,0-0.3c0-0.1,0-0.4,0-0.5c0-0.4,0-0.6,0.1-0.9c0.2-1.2,0.5-2.3,0.8-3.4l0.3-0.8l0.1-0.4c0-0.1,0-0.2,0-0.4
		c0-0.5-0.2-1-0.3-1.5c-0.3-1-0.9-2.1-1.3-3.1c-0.5-0.9-1.2-2-1.9-2.7c-0.1-0.1-0.2-0.2-0.3-0.3c-0.2-0.1-0.3-0.3-0.4-0.5
		c-0.2-0.3-0.3-0.5-0.5-0.8c-0.3-0.6-0.5-1.1-0.8-1.7c-0.5-1.2-0.9-2.3-1.3-3.3c-1.6-4.5-3-9.3-5-13.7c-0.2-0.5-0.5-1.2-0.7-1.6
		c-0.3-0.6-0.5-1.1-0.9-1.6c-0.3-0.5-0.7-1-1-1.5c-0.4-0.5-0.8-0.9-1.2-1.4c-1.7-1.7-3.7-3.2-5.8-4.4c-2.1-1.3-4.3-2.5-6.5-3.6
		c-1.1-0.5-2.2-1-3.4-1.6c-1.2-0.4-2.3-1-3.5-1.3c-1.2-0.4-2.4-0.5-3.6-0.8l-1.9-0.2c-0.6-0.1-1.2-0.1-1.8-0.2
		c-2.4-0.2-4.9-0.1-7.4,0.1c-2.4,0.1-4.7,1.1-7.1,1.8c-2.4,0.8-4.7,1.5-7.2,2.2c-1.2,0.3-2.3,0.7-3.5,1c-1.2,0.3-2.3,0.7-3.6,0.9
		c-2.4,0.5-4.9,0.4-7.4-0.1l-1.7-0.4l-1.8-0.5l-1.7-0.6l-1.7-0.7c-1.1-0.6-2.1-1.2-2.9-2.1c-0.9-0.8-1.6-1.8-2.2-2.9
		c-0.2-0.5-0.4-1.1-0.7-1.6c-0.3-0.5-0.6-1-0.9-1.4c-0.7-0.9-1.3-1.9-2-2.8c-1.3-1.9-2.8-3.7-4.1-5.5c-1.3-1.9-2.6-3.6-3.7-5.7
		c-1.1-2-1.4-4.3-1.5-6.4c-0.1-2.1,0.3-4.3,0.6-6.3c0.2-1,0.5-2,0.5-3c0.1-1.1,0.5-2,1.1-3c0.6-0.8,1.3-1.6,2.1-2.3
		c0.4-0.3,0.8-0.7,1.3-0.9l0.3-0.2c0.1-0.1,0.2-0.1,0.3-0.2c0.2-0.1,0.4-0.3,0.5-0.5c1.2-1.5,2-3.3,3-4.9c0.1-0.1,0.2-0.2,0.3-0.3
		c0.1-0.1,0.1-0.1,0.1-0.2l0.1-0.1c0,0,0.1,0,0.2-0.1c0.3,0,0.4,0.2,0.5,0.2c0.1,0.1,0.2,0.3,0.2,0.3c0.3,0.5,0.4,0.9,0.6,1.3
		c0.3,0.9,0.6,1.8,0.9,2.5c0.5,1.7,1.1,3.4,1.5,5c0.5,1.7,0.7,3.3,1.1,4.9c0.3,1.5,0.7,3.1,0.9,4.6c0.5,3,1.1,5.8,1.6,8.4
		c0.5,2.6,0.7,5,0.7,7.3c0,2.2,0.1,4.2-0.4,5.9c-0.4,1.6-0.8,3.1-1.2,4.2c-0.3,1.2-0.6,2-0.8,2.6C971.6,461,971.5,461.3,971.4,461.2
		L971.4,461.2z"/>
</g>
<g>
	<path fill="#FFFFFF" d="M1042,518c0,0-0.1,0-0.5,0.1c-0.3,0.1-0.8,0.1-1.4,0.1c-0.6,0-1.4,0-2.2-0.5c-0.5-0.2-0.7-0.8-0.8-1.3
		c-0.2-0.4-0.4-0.9-0.7-1.3c-0.5-0.9-1.3-1.8-2.2-2.5c-0.9-0.8-2.1-1.4-3.1-2.2c-1.1-0.7-2.2-1.5-3.5-1.9c-0.3-0.1-0.7-0.1-0.9-0.1
		c-0.1,0-0.3,0-0.4,0l-0.5,0.2l-2,0.8c-1.4,0.6-2.6,1.2-4,1.6c-0.3,0.1-0.7,0.2-1.1,0.3c-0.1,0-0.2,0-0.4,0c-0.1,0-0.2,0-0.4-0.1
		c-0.1-0.1-0.2-0.1-0.2,0c0.1,0.1-0.1-0.1-0.1-0.1c-0.1-0.1,0,0-0.1-0.1s-0.3,0-0.5,0.3c-0.3,0.2-0.5,0.4-0.6,0.7
		c-0.1,0.1-0.2,0.2-0.3,0.3l-0.1,0.3l-0.1,0.1l-0.1,0.2c-0.3,0.2-0.3,0.2-0.5,0.3l-0.5,0.3c-0.6,0.3-1.2,0.6-1.8,0.8
		c-1.2,0.5-2.3,0.8-3.4,1c-0.6,0.1-1.1,0.1-1.6,0c-0.4-0.1-1-0.3-1.4-0.4c-0.9-0.2-1.6-0.3-2.2-0.3c-1.2-0.2-2-0.3-2-0.3l0-0.1
		c0,0,0.7-0.1,1.9,0c0.6,0,1.4,0.1,2.3,0.2c0.4,0.1,0.9,0.2,1.4,0.2c0.4,0.1,0.9,0.1,1.3-0.1c1-0.2,2.1-0.6,3.2-1
		c0.5-0.2,1.1-0.5,1.7-0.8l0.4-0.2c0.1-0.1,0.3-0.2,0.3-0.2l0,0l0.1-0.1l0,0c0,0-0.1,0.2-0.1,0.1l0,0l0.1-0.1l0.1-0.1
		c0.1-0.2,0.2-0.4,0.3-0.5c0.3-0.3,0.4-0.5,0.8-0.8c0.3-0.2,0.7-0.6,1.4-0.4c0.1,0,0.4,0.2,0.4,0.2l0.2,0.1l0,0c0,0,0,0,0.1,0.1
		c0,0,0.1,0.1,0.1,0c0.3,0,0.6-0.1,0.9-0.2c1.3-0.4,2.6-0.8,4-1.4l2-0.8l0.5-0.2c0.2-0.1,0.4-0.2,0.6-0.1c0.4,0,0.9,0.1,1.2,0.2
		c1.4,0.5,2.6,1.3,3.7,2.1c0.5,0.4,1.1,0.7,1.6,1.2c0.5,0.3,1.1,0.7,1.5,1.1c1,0.8,1.7,1.7,2.2,2.7c0.3,0.5,0.5,0.9,0.6,1.4
		c0.1,0.5,0.3,0.9,0.6,1.1c0.6,0.5,1.5,0.6,2,0.5c0.6,0,1.1,0,1.5-0.1C1041.8,517.9,1041.9,517.9,1042,518L1042,518z"/>
</g>
<g>
	<path fill="#FFFFFF" d="M1016.2,512.6c0.6,0.6,1.1,1.2,1.8,1.6c0.3,0.3,0.7,0.3,1,0.2c0.3-0.3,0.7-0.5,1.1-0.7
		c0.8-0.3,1.6-0.4,2.4-0.5c0.4,0,0.8-0.1,1.2-0.1c0.4,0,0.8,0,1.2-0.1c0.8,0,1.6-0.1,2.4-0.1c0.4,0,0.9,0.1,1.2,0.1
		c0.4,0.1,0.7,0.3,1.1,0.6c0.6,0.5,1.2,1.2,1.4,2.1c0,0.1,0,0.3,0.1,0.3l0,0.1l0,0.1c0,0.1,0.1,0.3,0.3,0.5c0.2,0.3,0.6,0.6,0.7,0.8
		c0.3,0.3,0.6,0.5,0.9,0.8c0.2,0.1,0.3,0.3,0.5,0.3c0.1,0.1,0.2,0.1,0.3,0.3c0.1,0.1,0.1,0.2,0.2,0.3c0.4,0.8,0.5,1.6,0.9,2.3
		c0.4,0.7,1,1,1.8,1.1c0.7,0.1,1.6,0,2.1-0.4l0.1-0.1l0.1-0.2c0.1-0.1,0.2-0.2,0.3-0.2c0.2-0.1,0.4-0.2,0.6-0.3
		c0.4-0.2,0.8-0.2,1.3-0.3c0.4,0,0.8-0.1,1.2-0.1c0.4,0.1,0.9,0.1,1.3,0.3l0.5,0.4l0.5,0.2c0.4,0.2,0.7,0.3,1,0.5
		c0.7,0.3,1.5,0.6,2.3,0.8l-0.1,0c0.6-0.1,1.3-0.3,1.8-0.5s1.2-0.4,1.6-0.8c0.1-0.1,0.1-0.1,0.1-0.2l0.2-0.2
		c0.1-0.2,0.3-0.3,0.5-0.4c0.3-0.2,0.5-0.3,0.9-0.6c0.5-0.3,1.1-0.7,1.7-1c1.1-0.6,2.3-1.2,3.5-1.5c0.9-0.4,2-1.5,2.3-2.4
		c0.1-0.1,0.1-0.1,0-0.1l0,0c0-0.1,0,0,0.1-0.1l0,0l0,0l0-0.1c0-0.1,0.1-0.3,0.2-0.5c0.2-0.4,0.4-0.6,0.5-1l1.2-1.5
		c0.1-0.1,0.2-0.2,0.3-0.3c0,0,0,0,0.1-0.1c0,0,0-0.1,0-0.2c0-0.3,0-0.6,0-0.9c0-0.6,0-1.3-0.1-1.8c-0.1-0.6-0.1-1.3-0.3-1.8
		c0-0.1-0.1-0.2-0.2-0.3l-0.3-0.4c-0.2-0.3-0.4-0.7-0.5-1c-0.4-1.2-0.8-2.5-1-3.8c0-0.3-0.1-0.6-0.1-1l0-0.5l0-0.4
		c0-0.6-0.1-1.1-0.3-1.8c-0.3-1.3-0.6-2.4-0.9-3.6c-0.4-1.2-0.8-2.3-1.4-3.5l-1.8-3.3l-3.8-6.6c-0.6-1.1-1.2-2.2-1.8-3.3
		c-0.3-0.5-0.7-1.1-1.1-1.5s-0.9-1-1.5-1.1l0.1-0.1c0.7,0.1,1.2,0.6,1.6,1c0.4,0.5,0.9,1,1.2,1.5c0.7,1.1,1.4,2.1,2,3.2l4,6.6l2,3.3
		c0.6,1.1,1.2,2.4,1.5,3.5c0.4,1.2,0.8,2.5,1.1,3.7c0.1,0.6,0.3,1.4,0.3,2l0,0.9c0,0.3,0.1,0.6,0.1,0.8c0.2,1.2,0.5,2.4,0.9,3.6
		c0.2,0.3,0.2,0.5,0.3,0.8l0.2,0.3c0.1,0.2,0.2,0.3,0.3,0.5c0.2,0.7,0.3,1.4,0.3,2c0,0.6,0.1,1.3,0,1.9c0,0.4,0,0.6,0,1
		c0,0.1,0,0.1,0,0.2c0,0.1,0,0.2-0.2,0.4s-0.3,0.3-0.3,0.5l-1.2,1.5c-0.2,0.2-0.4,0.5-0.4,0.7c-0.1,0.1,0,0.2-0.2,0.4l0,0.1l0,0l0,0
		c0,0-0.1,0.1,0.1-0.1l-0.1,0.1c0,0.1,0,0.2,0,0.4c-0.3,0.8-0.7,1.2-1.2,1.8c-0.5,0.5-1,0.9-1.7,1.2c-1.2,0.3-2.3,0.9-3.5,1.4
		c-0.6,0.3-1.1,0.6-1.6,0.9c-0.3,0.2-0.5,0.3-0.8,0.5c-0.1,0.1-0.2,0.1-0.3,0.2l-0.1,0.1c0,0-0.1,0.1,0,0l-0.1,0.1
		c-0.1,0.1-0.1,0.2-0.2,0.2c-0.6,0.6-1.2,0.7-1.9,0.9c-0.6,0.1-1.3,0.3-1.9,0.4l-0.1,0l-0.1-0.1c-0.8-0.3-1.5-0.6-2.3-0.8
		c-0.4-0.2-0.7-0.3-1.1-0.5c-0.2-0.1-0.4-0.2-0.6-0.4l-0.5-0.4c-0.2-0.2-0.6-0.2-1-0.3s-0.8,0-1.2,0.1c-0.4,0-0.8,0.2-1.1,0.3
		c-0.2,0.1-0.3,0.1-0.5,0.3c-0.1,0.1-0.1,0.1-0.1,0.2l-0.1,0.1c0.1-0.1,0,0-0.1,0.1s-0.1,0.1-0.1,0.2c-0.4,0.3-0.9,0.4-1.3,0.5
		s-0.8,0.1-1.3,0c-0.4-0.1-0.9-0.2-1.2-0.4c-0.4-0.2-0.7-0.6-0.9-1c-0.4-0.7-0.5-1.6-0.9-2.3c-0.1-0.1-0.1-0.2-0.1-0.2l-0.1-0.1
		l-0.1-0.1c-0.2-0.1-0.4-0.2-0.5-0.3c-0.3-0.3-0.6-0.5-0.9-0.8s-0.6-0.6-0.8-0.9c-0.1-0.2-0.2-0.3-0.3-0.6c-0.1-0.1,0-0.1,0-0.1
		l0-0.1c0-0.1,0-0.1,0-0.3c-0.2-0.7-0.7-1.3-1.3-1.9c-0.2-0.2-0.6-0.5-1-0.5c-0.3-0.1-0.8-0.1-1.2-0.2c-0.8,0-1.6,0-2.4,0.1
		c-0.4,0-0.8,0-1.2,0.1c-0.4,0-0.8,0-1.2,0.1c-0.8,0.1-1.6,0.2-2.3,0.5c-0.3,0.1-0.8,0.3-1,0.6c-0.1,0.2-0.4,0.2-0.6,0.1
		c-0.2,0-0.4-0.2-0.6-0.2C1017.2,514,1016.6,513.4,1016.2,512.6L1016.2,512.6z"/>
</g>
<g>
	<path fill="#FFFFFF" d="M1001.1,518.7c1,0,2.1,0.1,3,0.5c0.5,0.2,1,0.4,1.4,0.9c0.4,0.3,0.7,0.8,1,1.2c0.7,0.8,1.2,1.6,1.9,2.4
		c0.3,0.4,0.7,0.7,1.2,0.9c0.4,0.2,1,0.3,1.5,0.4l1.5,0.3c0.5,0,1,0.2,1.5,0.2c0.6,0.1,1,0,1.5,0.1l0.8-0.1l0.4,0
		c0.1,0,0.3,0,0.4,0.1c1.1,0.2,2,0.9,2.9,1.5c0.4,0.3,0.8,0.8,1.1,1.2c0.3,0.4,0.7,0.8,0.9,1.4c0,0.1,0.1,0.3,0.1,0.5
		c0,0.1,0,0.4,0,0.5c0,0.2,0,0.4,0.1,0.7c0.1,0.5,0.3,0.9,0.5,1.3c0.2,0.4,0.6,0.9,0.8,0.8c0.6-0.1,1.1,0.1,1.7,0.2
		c0.5,0.2,1.1,0.4,1.6,0.8c0.2,0.2,0.4,0.5,0.5,0.8c0,0.1,0.1,0.3,0.1,0.5c0,0.1,0.1,0.2,0.1,0.3c0.3,0.9,0.8,1.8,1.5,2.5
		c0.2,0.1,0.3,0.4,0.5,0.5c0.1,0.1,0.2,0.1,0.2,0.2c0.1,0.1,0,0,0.1,0.1l0.2,0c0.5,0.2,0.6,0.4,0.8,0.6c0.2,0.2,0.5,0.4,0.6,0.6
		c0.3,0.4,0.7,0.8,0.9,1.4c0.2,0.3,0.2,0.5,0.3,0.9c0.1,0.1,0,0.1,0,0.3l0,0.1l0,0.1l0,0.4c0,1.1,0.1,2,0.2,3l0.3,3.1l0,0.1
		l-0.1,0.1c-0.5,0.9-0.9,1.8-1.6,2.7c-0.3,0.4-0.6,0.9-1,1.2c-0.4,0.3-0.8,0.9-1.6,0.9c-0.2,0-0.4-0.1-0.5-0.2l-0.4-0.2l-0.7-0.3
		c-0.5-0.2-0.9-0.3-1.3-0.4c-0.4,0-0.7,0.1-1,0.5c-0.3,0.3-0.7,0.7-1,1.1c-0.7,0.7-1.5,1.4-2.4,1.9c-0.2,0.1-0.5,0.3-0.7,0.4
		c-0.2,0.1-0.5,0.2-0.9,0.2c-0.5-0.2-1-0.3-1.5-0.3c-1-0.2-2-0.3-3-0.4c-0.5,0-1.1-0.1-1.4,0c-0.1,0.2-0.3,0.4-0.6,0.6
		c-0.2,0.1-0.5,0.1-0.7,0.2l0-0.1c0.5-0.1,1-0.2,1.2-0.8c0.3-0.2,0.5-0.2,0.8-0.2c0.3,0,0.5,0,0.8,0c1,0,2,0.1,3.1,0.2
		c0.5,0,1.1,0.1,1.5,0.2c0.3,0,0.8-0.3,1.2-0.5c0.8-0.5,1.5-1.2,2.2-1.9c0.4-0.3,0.6-0.7,1-1.1c0.4-0.5,1.1-0.8,1.6-0.7
		c0.6,0,1.1,0.2,1.6,0.4l0.7,0.3c0.2,0,0.6,0.2,0.7,0.1c0.2,0,0.6-0.3,0.9-0.6c0.3-0.4,0.6-0.7,0.9-1.1c0.6-0.8,1-1.7,1.4-2.6l0,0.2
		l-0.3-3.1c0-1.1-0.2-2.1-0.2-3.1l0-0.4l0-0.2c0,0,0.1-0.1,0-0.1c0-0.1-0.1-0.3-0.2-0.5c-0.2-0.4-0.5-0.8-0.8-1.2
		c-0.2-0.1-0.3-0.4-0.5-0.5c-0.2-0.1-0.4-0.3-0.4-0.3l-0.1,0c-0.1-0.1-0.2,0-0.3-0.1c-0.2,0-0.3-0.1-0.5-0.2
		c-0.2-0.2-0.5-0.4-0.6-0.6c-0.7-0.8-1.3-1.8-1.6-2.8c0-0.1,0-0.3-0.1-0.3c0-0.1,0-0.3-0.1-0.3c-0.1-0.2-0.2-0.4-0.3-0.5
		c-0.3-0.3-0.8-0.5-1.2-0.6c-0.4-0.1-1-0.3-1.4-0.2c0,0,0,0-0.1,0l-0.1,0c-0.1,0-0.2,0-0.3-0.1c-0.2-0.1-0.2-0.2-0.4-0.3
		c-0.2-0.2-0.4-0.5-0.5-0.7c-0.3-0.5-0.5-1-0.6-1.5c0-0.3-0.1-0.6-0.1-0.8c0-0.1,0-0.2,0-0.4s-0.1-0.2-0.1-0.3
		c-0.4-0.8-1.1-1.7-1.9-2.3c-0.8-0.6-1.6-1.2-2.5-1.5c-0.1,0-0.2,0-0.4,0l-0.4,0l-0.8,0c-0.5,0-1.1,0-1.6-0.1c-0.5,0-1-0.2-1.5-0.2
		l-1.5-0.3c-0.2,0-0.5-0.2-0.7-0.2c-0.3-0.1-0.4-0.1-0.8-0.3c-0.5-0.3-0.9-0.7-1.2-1.1c-0.7-0.8-1.2-1.6-1.9-2.4
		c-0.3-0.4-0.6-0.9-0.9-1.3c-0.4-0.3-0.8-0.6-1.3-0.8C1003.2,519,1002.1,518.9,1001.1,518.7L1001.1,518.7z"/>
</g>
<g>
	<path fill="#FFFFFF" d="M1014.2,556.2c0,0,0.1-0.4,0.3-1.3s0.3-2.2,0.6-3.8c0.1-0.8,0.1-1.7,0.2-2.7c0-1,0.1-2-0.1-3.2
		c-0.1-0.6-0.3-1.1-0.7-1.3c-0.5-0.3-1.1-0.6-1.7-1c-0.5-0.3-1.1-0.7-1.6-1.2c-0.2-0.2-0.5-0.5-0.7-0.8c-0.2-0.3-0.4-0.6-0.5-1
		c0-1.4-0.3-2.8-0.9-4.2c-0.1-0.3-0.4-0.7-0.5-0.9c-0.2-0.1-0.2-0.2-0.4-0.3c-0.1-0.1-0.4,0-0.5-0.2c-0.5-0.2-0.8-0.6-0.9-0.9
		c-0.2-0.4-0.2-0.8-0.3-1.2c0-0.4-0.2-0.8-0.2-1.2c-0.1-0.3-0.2-0.8-0.5-1c-0.5-0.5-1.2-1.1-1.8-1.6c-1.3-1.1-2.8-2-4.2-3.1
		c-0.4-0.3-0.7-0.6-1-1c-0.2-0.1-0.2-0.3-0.4-0.5c-0.1-0.1-0.1-0.1-0.2-0.1c-0.1-0.1-0.2,0-0.2,0c-0.8-0.1-1.6,0.1-2.6,0.2
		c-1.8,0.3-3.6,0.4-5.5,0.7c-1.8,0.2-3.6,0.5-5.5,0.7c-0.9,0-1.9,0.1-2.8,0c-0.9-0.1-2-0.3-2.9-0.9c-0.9-0.7-1.3-1.4-1.9-2.2
		c-0.6-0.7-1.2-1.4-1.9-1.9c-0.7-0.6-1.5-1-2.2-1c-0.4-0.1-0.8,0-1.1,0.1c-0.3,0.1-0.7,0.4-1,0.7c-0.6,0.6-1,1.4-1.4,2.2
		c-0.1,0.2-0.2,0.5-0.4,0.6c-0.2,0.2-0.3,0.4-0.4,0.5c-0.4,0.5-0.8,0.7-1.3,0.9c-0.4,0.2-0.8,0.4-1.1,0.5c0,0-0.2,0.1-0.3,0.2
		l-0.2,0.2c-0.1,0.2-0.3,0.3-0.4,0.5c-0.3,0.3-0.6,0.7-1,1c-0.4,0.3-1,0.6-1.7,0.5c-0.6-0.2-0.8-0.4-1.3-0.6
		c-0.4-0.2-0.7-0.3-1.1-0.4c-0.4,0-0.6-0.1-0.7,0.1c0,0-0.1,0.2-0.1,0.1c-0.1,0.1,0,0.2-0.1,0.3c-0.1,0.1,0,0.1,0,0.2l0,0.3
		c-0.1,1.6,0.1,3.3,0.2,4.9c0.1,1.6,0.3,3.2,0.1,4.7c0.1,0.7,0,1.6,0.2,2.2c0.1,0.7,0.1,1.4,0.3,2c0.5,2.7,1,5.2,1.7,7.4
		c0.6,2.1,1.2,4.1,1.7,5.6c1,3.1,1.6,4.9,1.6,4.9l-0.1,0c0,0-0.6-1.8-1.8-4.8c-0.6-1.5-1.3-3.3-1.9-5.6s-1.3-4.7-1.9-7.5
		c-0.1-0.6-0.3-1.4-0.3-2.2c-0.2-0.8-0.1-1.5-0.2-2.3c0.1-1.5-0.1-3-0.2-4.7c-0.1-1.6-0.3-3.2-0.2-5l0-0.4c0-0.1,0.1-0.3,0.1-0.4
		c0-0.1,0-0.2,0.1-0.3c0-0.2,0.2-0.2,0.3-0.4c0.2-0.2,0.5-0.3,0.9-0.4c0.3,0,0.5,0,0.9,0.1c0.5,0.2,0.9,0.3,1.3,0.5
		c0.4,0.2,0.8,0.4,1.1,0.5c1,0.3,2.1-2.4,4-2.8c0.4-0.2,0.7-0.4,1-0.6c0.1-0.2,0.3-0.4,0.4-0.5c0.1-0.2,0.2-0.4,0.4-0.6
		c0.4-0.8,0.9-1.6,1.7-2.4c0.3-0.4,0.7-0.7,1.3-0.9c0.5-0.3,1.1-0.3,1.6-0.2c1.1,0.1,2,0.7,2.7,1.3c0.8,0.6,1.4,1.3,2.1,2.1
		c0.6,0.7,1.2,1.6,1.8,2.1c0.6,0.5,1.5,0.7,2.4,0.8c0.9,0.1,1.8,0,2.7,0c1.8-0.2,3.7-0.5,5.5-0.7c1.8-0.2,3.6-0.4,5.4-0.6
		c0.9,0,1.8-0.3,2.8-0.1c0.1,0.1,0.2,0,0.4,0.2c0.1,0.1,0.2,0.2,0.3,0.3c0.2,0.2,0.2,0.3,0.5,0.5c0.2,0.3,0.6,0.6,0.9,0.8
		c1.3,1.1,2.8,2.1,4.1,3.2c0.7,0.6,1.3,1.1,1.9,1.8c0.3,0.4,0.4,0.8,0.6,1.2c0,0.4,0.2,0.8,0.2,1.2c0.2,0.8,0.4,1.6,1,1.8
		c0.2,0,0.4,0,0.7,0.1c0.2,0,0.4,0.3,0.5,0.4c0.2,0.3,0.5,0.7,0.6,1c0.6,1.5,0.8,3,0.8,4.4c0.1,0.6,0.6,1.1,1,1.6
		c0.5,0.4,1,0.8,1.5,1.2c0.5,0.3,1.1,0.6,1.6,0.9c0.6,0.4,0.8,1.1,0.9,1.6c0.2,1.2,0.1,2.3,0.1,3.3c0,1-0.2,1.9-0.3,2.7
		c-0.3,1.6-0.4,2.9-0.6,3.8C1014.5,555.8,1014.4,556.2,1014.2,556.2L1014.2,556.2z"/>
</g>
<g>
	<path fill="#FFFFFF" d="M1008.7,560.6c0,0,0.1,0.6,0.1,1.6c0,0.5,0.1,1.2-0.1,2c-0.1,0.8-0.3,1.7-0.8,2.6c-0.2,0.5-0.7,0.9-1.2,1.1
		c-0.5,0.3-1.1,0.4-1.6,0.6c-1.1,0.4-2.3,0.8-3.4,1.8c-0.3,0.2-0.5,0.5-0.7,0.7s-0.4,0.5-0.7,0.9c-0.1,0.2-0.3,0.3-0.4,0.5l-0.5,0.4
		c-0.3,0.2-0.6,0.4-0.9,0.7c-1.4,0.8-2.8,1.4-4.5,1.9c-1.7,0.3-3.3,0.9-5,1.6c-0.4,0.2-0.8,0.4-1.2,0.6c-0.2,0.1-0.4,0.2-0.5,0.3
		c-0.1,0.2-0.5,0.3-0.7,0.4c-1,0.2-2,0.1-2.9-0.3c-0.5-0.2-0.9-0.5-1.3-0.9c-0.4-0.3-0.7-0.7-1.1-1c-0.7-0.7-1.4-1.4-2.1-2.1
		c-1.4-1.4-3-2.8-4.6-4.2c-1.6-1.4-3.2-2.9-4.8-4.4c-1.6-1.5-3.2-3.1-4.9-4.5l-1.3-1.1c-0.5-0.4-0.9-0.6-1.3-0.9s-0.9-0.5-1.4-0.8
		l-1.6-0.6c-2.2-0.8-4.2-1.8-6.3-2.8c-4-2-7.9-4.5-11.3-7.7c-3.2-3-6.4-6.3-8.7-9.9c-2.4-3.5-4-7.4-5.1-11.2
		c-0.6-1.9-1.2-3.6-1.5-5.5c-0.5-1.8-0.9-3.5-1.2-5.2c-0.3-1.7-0.7-3.3-0.9-4.8c-0.2-0.8-0.2-1.5-0.2-2.3c-0.2-0.8-0.1-1.5-0.1-2.1
		c0.1-2.9,0.6-5.2,1-7.1s0.8-3.4,1.2-4.5c0.2-0.5,0.3-0.9,0.4-1.1c0.1-0.3,0.2-0.4,0.2-0.4l0.1,0.1c0,0,0,0.1-0.1,0.4
		c-0.1,0.3-0.2,0.6-0.3,1.2c-0.3,1-0.7,2.6-0.9,4.5c-0.3,2-0.7,4.3-0.8,7c0.1,2.8,0.7,5.8,1.4,9.1c0.3,1.7,0.9,3.4,1.3,5.1
		c0.5,1.8,1.1,3.6,1.6,5.4c0.2,1,0.6,1.9,0.9,2.8c0.1,0.5,0.4,1,0.5,1.4l0.2,0.7l0.4,0.7c0.8,1.8,1.8,3.6,3,5.4
		c2.4,3.4,5.3,6.6,8.6,9.8c3.2,3.1,6.9,5.6,10.9,7.7c2,1,4,2,6.1,2.8l1.6,0.6c0.5,0.3,1,0.5,1.6,0.8c0.5,0.4,0.9,0.6,1.4,1l1.3,1.1
		c1.6,1.5,3.3,3.1,4.8,4.5c1.6,1.5,3.2,2.9,4.8,4.4c1.6,1.4,3.1,2.8,4.6,4.3c0.7,0.7,1.4,1.4,2.1,2.1c0.4,0.3,0.7,0.7,1.1,1
		c0.2,0.3,0.7,0.6,1.2,0.8c0.8,0.4,1.8,0.5,2.7,0.4c0.2-0.1,0.3-0.1,0.5-0.3c0.3-0.2,0.4-0.3,0.6-0.4c0.4-0.2,0.8-0.4,1.2-0.6
		c1.7-0.7,3.4-1.2,5.1-1.5c1.6-0.4,3.2-1,4.4-1.8c0.3-0.2,0.7-0.4,0.9-0.7l0.4-0.3c0.1-0.2,0.3-0.3,0.4-0.5c0.3-0.3,0.4-0.5,0.7-0.9
		c0.3-0.3,0.4-0.5,0.8-0.8c1.1-0.9,2.4-1.3,3.4-1.7c0.5-0.2,1.2-0.3,1.6-0.6c0.5-0.3,0.9-0.6,1.1-1c0.6-0.8,0.7-1.7,0.8-2.4
		c0.1-0.8,0.1-1.4,0.2-1.9C1008.6,561.2,1008.6,560.7,1008.7,560.6L1008.7,560.6z"/>
</g>
<g>
	<path fill="#FFFFFF" d="M911,540.4c-4,0.6-8,1.1-12,1.6c-2,0.3-4,0.4-6,0.6c-1,0.1-2.1,0-3,0l-3.1,0c-1,0-2-0.1-3.1-0.2
		c-1,0-2-0.2-3-0.4s-2-0.4-2.9-0.8c-0.5-0.2-1-0.4-1.4-0.7c-0.5-0.2-0.9-0.7-1.2-0.9c-1.5-1.3-3.4-2-5.3-2.6
		c-1.9-0.5-3.9-0.9-5.9-1.2c-2-0.2-4-0.3-6.1-0.1c-2,0.1-4,0.2-6,0.4c-2,0.2-4,0.4-6,0.6l-6,0.8c-4,0.6-7.9,1.5-11.9,2.3
		c-4,0.8-8,1.3-12,1.8c-4.1,0.4-8.1,0.8-12.2,0.7l-1.5-0.1c-0.6-0.1-1-0.2-1.5-0.2l-3-0.5c-2-0.4-4-0.9-5.9-1.4l-5.9-1.7l-2.9-0.8
		l-0.7-0.2c-0.3-0.1-0.5-0.2-0.7-0.2c-0.5-0.2-1-0.4-1.5-0.6c-1.9-0.9-3.6-1.9-5.3-3.1c-1.6-1.2-3.3-2.4-4.8-3.8
		c-1.5-1.3-3.1-2.7-4.4-4.2c-0.7-0.7-1.4-1.6-1.8-2.5c-0.6-0.9-1-1.7-1.6-2.7c-1.9-3.6-3.5-7.3-5.7-10.6l-0.9-1.1
		c-0.3-0.4-0.7-0.7-1-1.1c-0.7-0.7-1.4-1.5-2-2.3c-1.3-1.6-2.6-3.1-3.8-4.8c-1.2-1.6-2.4-3.2-3.2-5.2c-0.1-0.2-0.2-0.5-0.3-0.8
		l-0.2-0.8l-0.4-1.5c-0.2-1-0.3-2-0.4-3.2l-0.1-2.1l1.1,1.9c0.5,1.1,1.2,2.1,1.9,3.2c0.7,1.1,1.4,2.1,2.2,3c0.3,0.5,0.7,1,1.1,1.4
		c0.4,0.5,0.8,0.9,1.3,1.3c0.5,0.4,0.9,0.8,1.3,1.2l1.5,1.1c0.5,0.4,1,0.8,1.5,1.1l1.6,0.9c1,0.7,2.2,1.1,3.3,1.6
		c0.6,0.2,1.2,0.4,1.8,0.5c0.6,0.2,1.1,0.4,1.8,0.5c1.2,0.2,2.5,0.5,3.7,0.7c2.5,0.5,4.9,0.9,7.3,1.4c1.2,0.2,2.4,0.5,3.7,0.8
		c1.2,0.3,2.5,0.6,3.6,0.9c1.2,0.3,2.4,0.7,3.7,1s2.4,0.8,3.6,1.3c0.6,0.2,1.2,0.4,1.7,0.7l1.7,0.8c0.5,0.3,1.1,0.6,1.6,1
		c0.5,0.4,1,0.8,1.5,1.2l-0.1,0.1c-0.5-0.4-0.9-0.8-1.5-1.2c-0.5-0.3-1.1-0.6-1.6-0.9l-1.7-0.7c-0.6-0.2-1.2-0.4-1.8-0.7
		c-1.2-0.4-2.4-0.8-3.5-1.2c-1.2-0.4-2.4-0.7-3.6-1c-4.8-1.2-9.7-2.1-14.7-2.9c-1.2-0.2-2.5-0.5-3.7-0.7c-0.6-0.1-1.2-0.4-1.8-0.4
		c-0.6-0.2-1.2-0.4-1.8-0.6c-1.1-0.5-2.4-0.9-3.4-1.6l-1.7-1c-0.5-0.3-1.1-0.7-1.5-1.1l-1.5-1.1c-0.5-0.4-0.9-0.9-1.4-1.3
		c-0.5-0.4-0.9-0.9-1.4-1.4c-0.4-0.5-0.9-1-1.2-1.5c-0.7-1-1.6-2-2.2-3.1c-0.7-1.1-1.4-2.1-2-3.3l0.9-0.2c0,0.9,0.2,2,0.4,2.9
		l0.4,1.5l0.2,0.8l0.2,0.7c0.8,1.8,2,3.4,3.2,5c1.2,1.6,2.5,3.2,3.8,4.6c0.7,0.8,1.4,1.5,2,2.3c0.3,0.4,0.7,0.7,1,1.1l1,1.2
		c2.3,3.4,3.9,7.1,5.7,10.7c1,1.7,1.9,3.5,3.2,4.9c1.4,1.5,2.8,2.9,4.3,4.2c1.5,1.3,3,2.6,4.7,3.7c1.6,1.2,3.4,2.2,5.2,3
		c0.5,0.2,0.8,0.4,1.3,0.6c0.2,0,0.5,0.2,0.7,0.2l0.7,0.2l2.9,0.8l5.9,1.7c2,0.4,3.9,0.9,5.8,1.4l3,0.5c0.4,0.1,1,0.2,1.5,0.3
		l1.5,0.1c4,0.1,8-0.2,12.1-0.6c4-0.5,8-1,11.9-1.7c4-0.8,7.9-1.5,11.9-2.2l6-0.8c2-0.2,4-0.4,6-0.6c2-0.2,4-0.2,6.1-0.4
		c2-0.1,4-0.1,6.1,0.1c2,0.2,4,0.6,6,1.2c1.9,0.7,3.9,1.4,5.4,2.7c1.4,1.5,3.3,2.1,5.3,2.5c1,0.2,2,0.4,3,0.5c1,0,2,0.1,3.1,0.2
		l3.1,0c1,0,2,0.1,3,0c2-0.1,4-0.2,6-0.6C903,541.4,907,540.9,911,540.4L911,540.4z"/>
</g>
<g>
	<path fill="#FFFFFF" d="M918,553.2c0,0-0.4-0.1-1.4-0.2c-0.4-0.1-0.9-0.1-1.6-0.3c-0.6-0.1-1.2-0.2-2-0.4c-0.7-0.1-1.5-0.2-2.5-0.3
		c-0.4-0.1-0.8-0.1-1.3-0.1c-0.5,0-0.9-0.1-1.4-0.1c-0.9-0.1-1.9-0.1-2.9-0.1c-1,0-2-0.1-3-0.3c-2-0.2-4-0.4-5.8-0.7
		c-0.9-0.2-1.9-0.4-2.6-0.6c-0.8-0.3-1.7-0.5-2.4-0.7c-0.7-0.2-1.4-0.5-1.9-0.8c-0.6-0.2-1-0.5-1.4-0.8c-0.4-0.3-0.6-0.5-0.7-0.7
		c-0.1-0.2-0.2-0.3-0.2-0.3l0.1-0.1c0,0,0.1,0.1,0.3,0.3c0.2,0.1,0.5,0.4,0.8,0.6s0.8,0.4,1.5,0.6c0.6,0.2,1.2,0.4,2,0.6
		s1.5,0.3,2.3,0.6c0.9,0.2,1.7,0.3,2.7,0.5c1.8,0.3,3.8,0.7,5.7,1c0.9,0.1,2,0.2,2.9,0.3c1,0,1.9,0.2,2.9,0.3c0.5,0,0.9,0.1,1.4,0.1
		c0.4,0.1,0.9,0.2,1.3,0.3c0.9,0.2,1.7,0.3,2.4,0.4c0.8,0.1,1.5,0.3,2,0.4c0.6,0.1,1.1,0.2,1.5,0.3C917.5,553,918,553.1,918,553.2
		L918,553.2z"/>
</g>
<g>
	<path fill="none" d="M875.5,537"/>
</g>
<g>
	<path fill="#FFFFFF" d="M873.2,483.3c-1,0-2-0.1-3,0.2c-0.9,0.2-2,0.7-2.1,1.6c-0.1,0.4,0,0.9,0.1,1.5l0.3,1.5l0.6,2.9
		c0.3,2,0.8,4,0.8,6c0,1,0,2.1-0.5,3c-0.3,0.5-0.6,0.8-0.9,1.2l-0.9,1.2c-0.3,0.4-0.6,0.8-1,1.2c-0.4,0.3-0.9,0.7-1.5,0.7
		c-1.2,0.1-2.1-0.6-3-1c-1.7-1.1-3.3-2.4-4.9-3.5c-0.8-0.6-1.7-1.1-2.6-1.3c-0.4-0.1-0.9-0.1-1,0.2l-0.1,0.1l-0.1,0.2l-0.3,0.3
		c-0.2,0.2-0.3,0.4-0.4,0.5c-0.5,0.8-1,1.7-1.4,2.6s-0.8,1.8-1.3,2.7l-0.3,0.7l-0.6-0.6c-0.2-0.1-0.5-0.4-0.7-0.6
		c-0.2-0.1-0.3-0.1-0.5-0.2c-0.2,0-0.3-0.1-0.5-0.2l-0.5-0.2c-0.1,0-0.4,0-0.5,0c-0.4,0-0.6,0-1.1,0c-0.3,0-0.7,0.1-1.1,0.1
		c-0.3,0.1-0.8,0.2-1.1,0.1l-2.3,0.2c-0.3,0.1-0.7,0.1-1,0.2c-0.3,0.1-0.8,0.2-1.1,0.3s-0.7,0.2-1,0.3l-1,0.5l-0.9,0.6
		c-0.3,0.2-0.6,0.4-0.8,0.7l-1.7,1.5l-0.1-0.1l1.5-1.6c0.3-0.3,0.5-0.5,0.8-0.8c0.3-0.2,0.7-0.5,0.8-0.7l1-0.6
		c0.3-0.1,0.8-0.3,1.1-0.4s0.7-0.2,1.1-0.3c0.3-0.1,0.8-0.2,1.1-0.3c0.8-0.2,1.5-0.2,2.2-0.4c0.3-0.1,0.8-0.2,1-0.2
		c0.3-0.1,0.8-0.2,1.1-0.3c0.4,0,0.8-0.2,1.2-0.1c0.2,0,0.4,0,0.6,0l0.6,0.1c0.2,0,0.4,0.1,0.6,0.2c0.2,0,0.4,0.2,0.6,0.2
		c0.4,0.2,0.7,0.4,1,0.8l-0.8,0.1c0.4-1,0.8-1.9,1.3-2.8c0.5-0.9,0.9-1.8,1.6-2.7c0.2-0.2,0.3-0.4,0.5-0.6l0.3-0.3l0.1-0.2
		c0.1-0.1,0.1-0.2,0.3-0.2c0.3-0.2,0.6-0.3,1-0.4c0.3,0,0.6,0,0.9,0.1c1.1,0.2,2,0.9,2.8,1.4c1.6,1.2,3.2,2.5,4.8,3.6
		c0.8,0.6,1.7,1.1,2.5,1c0.8-0.1,1.5-0.9,2.1-1.6l0.9-1.2c0.3-0.4,0.7-0.9,0.9-1.2c0.4-0.8,0.4-1.8,0.5-2.8c-0.1-2-0.4-4-0.7-6
		l-0.5-3l-0.2-1.5c-0.1-0.5-0.2-1-0.1-1.5c0.1-0.6,0.5-1,0.9-1.2c0.5-0.3,0.9-0.4,1.4-0.5C871.2,483.1,872.2,483.2,873.2,483.3
		L873.2,483.3z"/>
</g>
<g>
	<path fill="#FFFFFF" d="M848.8,525.6c0,0-8.5-7.4-17-14.9c-2.1-1.8-4.3-3.7-6.3-5.5c-0.9-0.9-2-1.7-2.8-2.6
		c-0.9-0.8-1.7-1.7-2.5-2.4c-0.8-0.8-1.4-1.4-2.1-2.1c-0.6-0.6-1.1-1.2-1.6-1.5c-0.9-0.8-1.4-1.4-1.4-1.4l0.1-0.1
		c0,0,0.5,0.4,1.6,1.3c0.5,0.4,1.1,0.9,1.7,1.4c0.7,0.6,1.4,1.1,2.3,1.8c0.9,0.7,1.6,1.5,2.6,2.2c0.9,0.8,1.9,1.7,2.8,2.5
		c1.9,1.8,4,3.8,6.1,5.7C840.6,517.8,848.8,525.6,848.8,525.6L848.8,525.6z"/>
</g>
<g>
	<path fill="#FFFFFF" d="M840.2,526.8c-3.1-1.3-6.1-2.6-9.1-4c-1.5-0.7-3-1.4-4.4-2.2c-0.7-0.3-1.4-0.8-2.2-1.3
		c-0.7-0.4-1.4-0.9-2.1-1.4c-0.2-0.1-0.3-0.3-0.5-0.5c-0.2-0.3-0.2-0.4-0.3-0.6c-0.2-0.4-0.4-0.7-0.5-1.1c-0.4-0.7-0.7-1.5-1.2-2.2
		c-0.8-1.4-1.7-2.9-2.4-4.3c-0.8-1.4-1.7-2.8-2.6-4.3c-0.4-0.7-0.9-1.4-1.4-2.1c-0.5-0.7-1-1.3-1.5-1.8l0.5-0.6
		c4.6,4.3,9.4,8.5,14,12.9c2.3,2.2,4.6,4.4,6.9,6.6C835.7,522.3,838,524.4,840.2,526.8l0.2,0L840.2,526.8z M839.9,526.5
		c-2.3-2-4.6-4-7-6c-2.4-2.1-4.7-4.2-7.1-6.4c-4.7-4.2-9.3-8.7-13.9-13l0.5-0.6c0.7,0.7,1.1,1.3,1.6,2c0.5,0.7,0.9,1.4,1.4,2.1
		c0.9,1.4,1.7,2.8,2.6,4.3c0.8,1.4,1.7,2.9,2.4,4.4c0.4,0.7,0.7,1.5,1.2,2.2c0.2,0.4,0.4,0.8,0.5,1.1c0.1,0.2,0.2,0.4,0.3,0.5
		c0.2,0.1,0.2,0.3,0.4,0.5c0.6,0.5,1.2,1,1.9,1.4c0.7,0.4,1.4,0.9,2.1,1.2c1.4,0.8,2.9,1.5,4.4,2.3
		C834.1,523.9,837,525.2,839.9,526.5z"/>
</g>
<g>
	<path fill="#FFFFFF" d="M922.4,549.5c0.1-0.2-0.2-0.4-0.3-0.5c-0.2-0.1-0.4-0.3-0.5-0.4l-1.2-0.8c-0.8-0.5-1.5-1.1-2.2-1.7
		c-1.5-1.2-2.8-2.5-4-4c-2.2-3-3.9-6.4-6.2-9.4c-1.1-1.5-2.5-2.7-4.1-3.7l-1.2-0.7c-0.4-0.3-0.7-0.6-1.2-0.8
		c-0.8-0.5-1.5-1.1-2.2-1.8c-2.8-2.4-5.6-5-7.9-7.9c-2.4-2.9-4.3-6.2-6.2-9.3c-1.9-3.2-3.8-6.4-5.3-9.8c-0.8-1.8-1.4-3.5-1.9-5.3
		c-0.5-1.8-0.9-3.7-1.4-5.5c-0.3-1.8-0.7-3.7-1.1-5.5c-0.3-1.8-0.5-3.7-0.8-5.5c-0.5-3.7-0.5-7.5-1-11.1c-0.5-3.6-1.8-7.1-3.5-10.4
		c-0.5-0.8-0.9-1.6-1.4-2.4l-1.6-2.3c-0.6-0.7-1.2-1.4-1.8-2.1l-1-1c-0.3-0.4-0.6-0.6-1-1l-2.1-1.8c-0.7-0.6-1.5-1.2-2.2-1.8
		c-1.5-1.2-2.9-2.3-4.5-3.2c-1.5-1-3.1-1.9-4.9-2.3c-0.8-0.3-1.8-0.3-2.6-0.3c-0.9,0-1.8,0.1-2.7,0.4c-0.8,0.2-1.7,0.5-2.6,1
		c-0.8,0.4-1.6,0.7-2.4,1.3c-1.6,0.9-3.1,2-4.3,3.4c-1.2,1.3-2.2,2.9-2.6,4.6c-0.4,1.7-0.3,3.6-0.3,5.4c0.1,1.8,0.2,3.7-0.3,5.7
		c-0.2,1-0.9,1.8-1.2,2.6c-0.3,0.7-0.5,1.7-0.3,2.5l-0.2-0.3c0.8,0.5,1.5,1.1,2.1,1.8c0.3,0.4,0.5,0.9,0.5,1.4
		c0.1,0.6-0.2,1.1-0.6,1.5c-0.6,0.7-1.2,1.3-1.8,2c-0.6,0.6-1.3,1.3-1.9,1.9c-0.6,0.6-1.4,1.2-2,1.7c-0.7,0.6-1.4,1.1-2.2,1.6
		l-1.2,0.7l-1.2,0.6c-0.8,0.4-1.7,0.7-2.5,1c-0.9,0.3-1.6,0.6-2.5,0.9c-0.8,0.4-1.6,0.6-2.4,1.1c-0.8,0.4-1.5,0.9-2.3,1.4
		c-0.7,0.4-1.5,0.9-2.3,1.4s-1.5,0.9-2.3,1.4s-1.5,1-2.2,1.6c-0.6,0.6-1.3,1.3-1.6,2c-0.3,0.7-0.2,1.7,0.3,2.5l-0.1,0.1
		c-0.6-0.7-0.8-1.8-0.3-2.6c0.3-0.9,1-1.5,1.6-2.2c0.6-0.6,1.4-1.1,2.1-1.6c0.8-0.5,1.5-1,2.2-1.4s1.5-0.9,2.2-1.4
		c0.7-0.4,1.5-1,2.3-1.4c0.7-0.4,1.6-0.7,2.4-1.1c0.8-0.4,1.7-0.7,2.5-1c0.9-0.3,1.6-0.6,2.5-1l1.2-0.6l1.1-0.7
		c0.7-0.5,1.5-1,2.1-1.6c0.7-0.6,1.3-1.1,1.9-1.8c0.6-0.6,1.3-1.3,1.9-1.8c0.6-0.6,1.2-1.3,1.7-2c0.5-0.6,0.4-1.3-0.1-2
		s-1.2-1.2-1.9-1.7l-0.2-0.1l0-0.1c-0.3-1.1,0-2.1,0.3-3.1c0.4-1,1-1.6,1.1-2.5c0.4-1.7,0.2-3.6,0.1-5.4c-0.1-1.8-0.1-3.8,0.3-5.7
		c0.4-2,1.5-3.7,2.8-5.1c1.3-1.4,2.9-2.6,4.5-3.5c0.8-0.5,1.6-0.9,2.6-1.3c0.8-0.4,1.8-0.8,2.7-1c0.9-0.3,1.9-0.4,2.9-0.5
		c1,0,2,0.1,2.9,0.3c1.9,0.5,3.6,1.5,5.2,2.5c1.6,1,3.1,2.2,4.5,3.3c0.7,0.6,1.5,1.2,2.2,1.8l2.1,1.9c0.4,0.3,0.7,0.6,1,1l1,1
		c0.6,0.7,1.3,1.4,1.9,2.2l1.6,2.3c0.5,0.8,1,1.7,1.4,2.4c1.7,3.3,3,6.9,3.5,10.7c0.5,3.7,0.6,7.4,1,11.2c0.2,1.8,0.5,3.7,0.7,5.5
		c0.3,1.8,0.7,3.6,1,5.4c0.5,1.8,0.8,3.6,1.3,5.4c0.5,1.8,1.2,3.5,1.8,5.2c1.5,3.4,3.3,6.7,5.2,9.9c1.9,3.2,3.7,6.5,6.1,9.3
		s5.1,5.5,7.9,7.9c0.7,0.6,1.5,1.2,2.2,1.8c0.4,0.3,0.7,0.6,1.2,0.8l1.2,0.8c1.6,1,3.1,2.2,4.1,3.8c2.2,3,3.8,6.4,6,9.4
		c1.1,1.4,2.5,2.8,3.8,4c0.7,0.6,1.5,1.2,2.2,1.7l1.2,0.8c0.2,0.1,0.4,0.3,0.5,0.4c0.1,0.1,0.2,0.1,0.3,0.3c0.1,0.1,0.1,0.1,0.1,0.2
		C922.5,549.4,922.5,549.5,922.4,549.5L922.4,549.5z"/>
</g>
<g>
	<path fill="#FFFFFF" d="M819.7,477.7c0,0-0.2,0-0.7-0.1c-0.2,0-0.4-0.1-0.8-0.1c-0.3,0-0.6,0-1.1,0c-0.4,0-0.8,0.2-1.2,0.2
		c-0.4,0.2-0.8,0.2-1.2,0.4c-0.4,0.2-0.8,0.4-1.3,0.6c-0.5,0.3-0.8,0.5-1.3,0.8c-0.9,0.6-1.6,1.2-2.3,1.9c-0.7,0.6-1.4,1.2-1.9,1.7
		c-0.3,0.3-0.5,0.5-0.7,0.7c-0.2,0.2-0.4,0.5-0.5,0.6c-0.1,0.2-0.3,0.3-0.2,0.5c-0.1,0.1,0,0.2,0,0.2l-0.1,0c0,0,0,0,0-0.1
		c0-0.1,0-0.4,0.1-0.6c0-0.2,0.2-0.5,0.3-0.7c0.1-0.3,0.4-0.6,0.6-0.9c0.3-0.3,0.5-0.6,0.8-1c0.3-0.3,0.6-0.6,1-1
		c0.8-0.7,1.6-1.2,2.5-1.7c0.5-0.3,0.9-0.5,1.3-0.7c0.5-0.3,1-0.4,1.4-0.5c0.5-0.1,1-0.2,1.4-0.3c0.4,0,0.8-0.1,1.3-0.1
		c0.4,0,0.8,0,1.1,0.1c0.4,0,0.6,0.1,0.8,0.1C819.6,477.5,819.7,477.7,819.7,477.7L819.7,477.7z"/>
</g>
<g>
	<path fill="#FFFFFF" d="M931.7,512.1c0-0.1,0-0.9,0.2-2.2c0.1-0.7,0.3-1.5,0.7-2.4c0.3-0.9,0.9-1.9,1.9-2.7c0.5-0.4,1-0.7,1.4-1.1
		c0.5-0.3,1.1-0.8,1.7-1.1c1.1-0.8,2.4-1.5,3.7-2.2c1.3-0.7,2.7-1.4,4.4-1.7c0.8-0.2,1.7-0.2,2.5,0.2c0.5,0.2,0.8,0.6,1,1
		c0.1,0.2,0.1,0.5,0.2,0.7c0,0.3,0,0.4,0,0.6c-0.1,0.9-0.3,1.7-0.6,2.5c-0.3,0.7-0.7,1.5-1,2.2c-0.8,1.4-1.7,2.7-2.7,3.8
		c-1,1.1-2,2.2-3.2,3c-1.2,0.8-2.3,1.5-3.7,1.7c-0.7,0.1-1.2,0.1-1.8,0.1c-0.5,0-1.1,0-1.6,0c-1,0-1.9-0.1-2.5-0.4
		c-0.3-0.1-0.6-0.4-0.8-0.6c-0.2-0.3-0.1-0.6,0-0.8C931.6,512.2,931.7,512.1,931.7,512.1L931.7,512.1z M931.9,512.1
		c0,0-0.1,0.2-0.2,0.5c0,0.1,0,0.4,0.1,0.6c0.1,0.2,0.4,0.3,0.7,0.4c0.7,0.1,1.5,0.2,2.4,0.2c0.9,0,2-0.1,3.2-0.3
		c1-0.2,2.2-0.8,3.2-1.6c1.1-0.8,2.1-1.8,3-2.9c1-1.1,1.9-2.3,2.7-3.6c0.4-0.7,0.7-1.4,1.1-2.1c0.3-0.7,0.6-1.5,0.6-2.1
		c0.1-0.7-0.1-1.4-0.7-1.6c-0.5-0.3-1.4-0.4-2.1-0.3c-1.5,0.2-2.9,0.9-4.2,1.5c-1.3,0.6-2.6,1.3-3.8,2.1c-1.2,0.7-2.2,1.4-3.2,2.2
		c-1,0.7-1.5,1.6-1.9,2.6c-0.3,0.9-0.6,1.7-0.7,2.4C931.9,511.3,931.9,512.1,931.9,512.1L931.9,512.1z"/>
</g>
<g>
	<path fill="#FFFFFF" d="M897.9,525.5c0,0,0,0.1,0.1,0.3c0,0.3,0.1,0.6,0.2,1.2c0.1,0.6,0.1,1.2-0.1,1.9s-0.5,1.5-1,2.2
		c-0.6,0.7-1.5,1.2-2.4,1.5c-1,0.4-2,0.6-3,0.7c-0.6,0.1-1.1,0.1-1.7,0c-0.4,0-0.7-0.1-1-0.3l-0.2,0c-0.2-0.1-0.2-0.1-0.2-0.2
		l-0.3-0.3c-0.2-0.2-0.4-0.5-0.6-0.6c-0.2-0.3-0.4-0.5-0.6-0.7c-0.4-0.5-0.7-0.8-1.1-1.3c-0.8-0.9-1.5-1.8-2-2.9
		c-0.5-1.1-1-2.1-1.2-3.3c-0.1-0.6-0.1-1.2,0-1.8c0.1-0.6,0.3-1.2,0.6-1.6c0.6-0.9,1.3-1.6,2.1-2.1c0.7-0.6,1.5-0.9,2.2-1.2
		c0.7-0.2,1.3-0.4,1.9-0.4c0.6-0.1,0.9,0,1.2,0.1c0.3,0.1,0.4,0.1,0.4,0.1l-0.1,0.1c0,0-0.1,0-0.4,0c-0.3,0-0.6,0-1.1,0.1
		s-1,0.3-1.6,0.6c-0.6,0.3-1.3,0.8-1.9,1.3c-0.7,0.5-1.3,1.3-1.7,2l-0.2,0.4l-0.1,0.2l0,0.2c0,0.2-0.1,0.4-0.1,0.7
		c-0.1,0.4,0,1,0,1.4c0.1,1,0.6,2,1,3s1.1,1.9,1.8,2.9c0.4,0.5,0.8,0.9,1.1,1.4c0.3,0.5,0.7,0.9,1.1,1.2c0.8,0.8,1.9,0.9,2.9,0.7
		c1-0.1,2.1-0.4,3.1-0.6c0.9-0.3,1.8-0.8,2.3-1.4c0.6-0.6,0.9-1.3,1.1-2c0.1-0.7,0.1-1.3,0.2-1.8c0-0.5-0.1-0.8-0.1-1.1
		C897.9,525.6,897.8,525.4,897.9,525.5L897.9,525.5z"/>
</g>
<g>
	<path fill="#FFFFFF" d="M887.6,533c0,0-0.1,0.1-0.3,0.2c-0.2,0.1-0.5,0.3-0.8,0.4c-0.3,0.1-0.9,0.2-1.4-0.1c-0.5-0.2-1-0.7-1.3-1.2
		c-0.3-0.5-0.8-1.1-1.2-1.7c-0.4-0.7-0.7-1.3-1.1-2.2c-0.3-0.8-0.7-1.6-1-2.3c-0.2-0.8-0.6-1.6-0.8-2.6c-0.2-0.8-0.4-1.7-0.4-2.7
		l0-0.6l0.1-0.7c0-0.5,0.2-0.9,0.3-1.3c0.1-0.4,0.4-0.8,0.6-1.2c0.3-0.3,0.5-0.6,0.8-0.9c0.3-0.2,0.7-0.5,0.9-0.8
		c0.3-0.2,0.5-0.3,0.9-0.6c1.3-0.6,2.3-0.8,3.1-1c0.8,0,1.2-0.1,1.2-0.1l0,0.1c0,0-0.1,0-0.3,0c-0.2,0.1-0.5,0.1-0.8,0.2
		c-0.3,0.1-0.8,0.2-1.2,0.4c-0.5,0.2-0.9,0.5-1.6,0.8c-0.3,0.2-0.5,0.3-0.9,0.6c-0.2,0.2-0.5,0.4-0.7,0.7c-0.2,0.2-0.4,0.5-0.6,0.8
		c-0.1,0.3-0.4,0.6-0.5,1c-0.1,0.3-0.3,0.7-0.2,1.1l-0.1,0.6l0,0.6c-0.1,0.9,0.1,1.6,0.3,2.5c0.2,0.8,0.5,1.7,0.7,2.5
		c0.2,0.8,0.5,1.6,0.8,2.3s0.6,1.4,1,2.1c0.4,0.7,0.8,1.3,1.1,1.8s0.7,1,1.3,1.1c0.5,0.2,0.9,0.2,1.3,0.1c0.3-0.1,0.6-0.1,0.8-0.3
		C887.6,532.9,887.6,532.9,887.6,533L887.6,533z"/>
</g>
<g>
	<path fill="#FFFFFF" d="M924.1,579.1c0,0,2.2-0.4,4.4-0.8c0.6-0.1,1.1-0.3,1.6-0.2c0.6-0.1,1-0.1,1.4,0c0.9,0.1,1.4,0.2,1.4,0.2
		l0,0.1c0,0-0.5,0.3-1.3,0.5c-0.3,0.1-0.9,0.2-1.4,0.3c-0.6,0.1-1.1,0-1.6,0.1C926.4,579.3,924.2,579.3,924.1,579.1L924.1,579.1z"/>
</g>
</svg>
