<?xml version="1.0" encoding="utf-8"?>
<!-- Generator: Adobe Illustrator 18.0.0, SVG Export Plug-In . SVG Version: 6.00 Build 0)  -->
<!DOCTYPE svg PUBLIC "-//W3C//DTD SVG 1.1//EN" "http://www.w3.org/Graphics/SVG/1.1/DTD/svg11.dtd">
<svg version="1.1" id="Layer_1" xmlns="http://www.w3.org/2000/svg" xmlns:xlink="http://www.w3.org/1999/xlink" x="0px" y="0px"
	 viewBox="0 0 1280 720" enable-background="new 0 0 1280 720" xml:space="preserve">
<g>
	<path fill="none" d="M359,524.9c0,0-9,5.2-8.4,15"/>
	<path fill="none" d="M342.7,546.5c-0.8-7,5.1-15.1,7.9-18.2s7.1-4.4,7.1-4.4s1.9-3.5,0.9-4.8s-4.4-5.2-6-6.6s-6.4-4-8.5-6.5"/>
	<path fill="none" d="M347.6,531.9c0,0-4.2,3.2-5.8,7.4s-3.6,7.5-2.2,11.9"/>
	<path fill="none" d="M336.7,554.5c0,0-0.7-4.9,0.9-9.5c1.6-4.6,4-7.8,5.6-8.6"/>
	<path fill="none" d="M333.4,558.2c0,0-0.7-6.7,1.2-11c1.9-4.3,4.2-7.2,5.7-8"/>
	<path fill="none" d="M330.3,560.8c0,0-0.1-8.4,1.2-11.2s3.2-6.2,5.6-7"/>
	<path fill="none" d="M327.3,565.2c0-0.2,0.3-8.4,1.9-10.2c1.6-1.8,1.6-2.7,1.6-2.7"/>
	<path fill="none" d="M351,527.8c0,0-0.2-1.2,0.8-3.5s1-5.1,1-5.1"/>
	<path fill="none" d="M346.2,532.6c0,0,0.9-7.5,5.5-9.2"/>
	<path fill="none" d="M341.3,537.6c0,0,1-8.8,6.1-10.2"/>
	<path fill="none" d="M335.6,542.8c0.4,0.1,1.9-4.6,3.6-7.2s3.1-5.1,4.9-5.2"/>
	<path fill="none" d="M331.7,548.9c0,0,0.6-7.2,3-10.9s4.8-5.5,6.2-5.2"/>
	<path fill="none" d="M328.6,555.8c0,0-3.4-6.1,0.2-11.4s5.5-5.8,5.5-5.8"/>
	<path fill="none" d="M344.5,529.4c0,0-0.1-3.8,1.5-6.6s2.2-4.2,2.2-4.2"/>
	<path fill="none" d="M337.6,533.9c0,0,4-8.9,7.8-10.4"/>
	<path fill="none" d="M332.7,539.5c0,0-0.4-7.4,6.8-9.5"/>
	<path fill="none" d="M349.5,524.4c0,0-1.5-4.5-0.5-7.2s0.8-3.9,0.8-3.9"/>
	<path fill="none" d="M356.6,524c0,0-1.1-3.2-2.5-4.4s-3.9-4.9-4.6-7.1"/>
	<path fill="none" d="M358.3,521.6c0,0-2.4-3.4-4.1-4.5s-5.2-4.5-6.4-6.6s-1.1-2.1-1.1-2.1"/>
	<path fill="none" d="M327,568.6c0-0.9,0.1-2.5,0.1-2.5c0.6-4.1,7.2-8,7.2-8"/>
	<path fill="none" d="M335.3,557.2"/>
	<path fill="none" d="M330.1,581.5l0.4-0.5c-2.1,0.8-4-3.2-4.1-5.2s0.8-3.4,2.1-4.6s3.8-4.6,3.8-4.6"/>
	<path fill="none" d="M334.1,560.8c0,0-4.2,4.1-5.5,5.9s-2.6,3.9-1.5,6"/>
	<path fill="none" d="M330.2,583.8c0,0-0.9-6.4,1.1-8.2s3.4-3.1,4.8-5.4s3.4-6.2,3.4-6.2"/>
	<path fill="none" d="M330.6,576c0,0,0.2-5.8,3.6-8.2s4.1-3.4,5.9-5.2c0,0,2.2,2.4,4.8,2.2s5.2-0.1,7-2.5s2.2-5.4,2.2-5.4
		s-1.1,1.6-2.9,3.1s-4.6,2.1-6.8,1.8s-2.9-1.8-2.9-1.8"/>
	<path fill="none" d="M332.3,570c0,0-0.5-3,3.2-6s7-5,9.5-6.9s3.6-2.9,3.6-2.9s3.2-2.6,3.9-3.4c0,0-5.9,3-8.6,5s-7.6,5.1-8.6,5.9
		s-3.8,2.8-3.1,5.6"/>
	<path fill="none" d="M333,562.5c0,0,0.4-0.9,1.6-2.8s6.1-3.4,9.4-5.2s9-4.4,9-4.4s1.4-1.2,5.1-1.1s4.4,0.1,7.1,0.4s4.2,0,4.2,0"/>
	<path fill="none" d="M356.7,548.8c0,0-3.4-1.2-5.5-0.2s-10.4,5.1-12.4,6.1s-4,1.8-4.2,5.1"/>
	<path fill="none" d="M359,549c0,0-5.8-2.6-8-2.2s-8.6,3.6-10.4,5s-2.6,2.2-3.2,3.5"/>
	<path fill="none" d="M361.1,548.9c0,0.2-6.9-3.4-8.2-3.5s-7.9,1.6-9.6,2.8s-3.8,3.1-3.9,4.2"/>
	<path fill="none" d="M361.6,548.4c0,0-5.8-4.4-7.1-4.5s-6.9,0.6-8.1,1.4s-3.1,1.6-3.8,2.9"/>
	<path fill="none" d="M360.7,544.4c0,0-4.4-1.9-5.8-2s-9.4-0.1-9.6,3.2"/>
	<path fill="none" d="M347.2,543.2c0.4-1.2,2.5-2.5,3.6-2.9s3.5-0.4,5.2-0.1s4.9,2.9,4.9,2.9s-1.6-3-2.6-4s-5-2-6.8,0.9"/>
	<path fill="none" d="M352.6,550.9c0,0,4,2.8,6.2,2.1s4.8-1.6,5.4-3.6"/>
	<path fill="none" d="M345.1,557.1c0,0,3.5,1.8,6.4,0.8s5.6-3.2,6.2-4.8"/>
	<path fill="none" d="M330.5,581c0,0.1,1.8-0.6,4-4.1s2.6-4.9,2.4-7.6"/>
	<path fill="none" d="M337,570c0.4,0.1,2.1,0.4,5.6,0.6s5.2,0.4,8-1.6s3.2-1.8,4.4-4.6s1.9-5.9,0.9-8.9"/>
	<path fill="none" d="M336.1,574.4c0,0,1.2,1.6,5.1,1.2s6.4-0.8,7.6-2.4s1.9-2.8,1.8-4.2"/>
	<path fill="none" d="M334,577.8c0,0,3.2,1.1,5.9,0.2s3.8-1.4,4.6-2.8"/>
	<path fill="none" d="M330.1,583.2c0,0,2.1,2.4,5,0.9s5.6-4.1,6.4-6.6"/>
	<path fill="none" d="M354,513.9c0,0-0.8-5.6-3.1-6.6s-8.8-1.8-10.2-3.2s-1.5-1.5-1.5-1.5"/>
	<path fill="none" d="M352.5,508.8c0,0,0.5-4.2-4.6-5.2s-11.5,0-13.1-1s-4.1-3.5-4.1-3.5"/>
	<path fill="none" d="M326.6,494.9c0,0,0.8,1.1,2.6,2.8s6.1,1.6,12.6,1.4c4.3-0.2,7.2,2.7,8.6,4.7c0.7,1,1.1,1.8,1.1,1.8
		s-0.3-0.9-1.3-3.3c-0.1-0.1-0.1-0.3-0.2-0.4c-0.1-0.2-0.2-0.4-0.3-0.6c-1.4-2.3-4.6-3.2-7.6-4.2c-3.2-1.1-4.6-0.4-11.4-0.9
		s-8.4-6.2-8.4-6.2c-0.1-0.8,2.9-0.5,5.6,0s8.4,0.1,10.2,0.5s7.2,3.6,9.4,6.1l2.5,4.2"/>
	<path fill="none" d="M349.3,499.2c0,0,1.9-2.4,0.5-4.1s-6.6-5.4-8.2-6.8s-5-3.8-5.9-5s-1.2-1.8-1.2-1.8s2.8,8,3.9,8.6"/>
	<path fill="none" d="M334.5,481.6c0,0,3.8,0.9,5.2,1.8s4.4,3.9,5.2,5.8s2.6,3.9,2.6,3.9"/>
	<path fill="none" d="M341.6,485c0,0-1.6-7.4-1.5-9.1s0.6-0.6,0.6-0.6s3,7,4.8,9.1s4.6,4.2,5.2,5.8s0.5,6.4-0.9,5"/>
	<path fill="none" d="M347,486.4c0,0-3.1-6.8-3.1-10s1.4-4.8,1.9-7.2s0.5-2.5,0.5-2.5s0.6,3.4,0.8,5.6s0.2,5.8,1,8.4
		s2.6,7.9,1.5,7.9"/>
	<path fill="none" d="M349.8,486.2c0,0,0.9-2.4,0.5-4.5s0.1-8.2,0.5-11s1.5-4.9,1.2-6.8s-0.8-4-1.2-2.5s-2.1,8.2-2.6,9.6
		s-1.1,2.2-1.1,3"/>
	<path fill="none" d="M350.5,483.5c0,0,2.9-1.5,3.8-3.9s1.5-3.9,1.6-9.4s0.9-6.8,2.6-8.5s4-4.1,4.4-6s-0.2-2.6-1.2-1.5
		s-5.9,7.8-7,9.1s-2.9,3.5-2.9,3.5"/>
	<path fill="none" d="M355.1,477.6c0,0,2.4-1.8,2.8-4s0-10.6,1.1-12.2"/>
	<path fill="none" d="M358,474.5c0,0,2.4-0.8,2.6-2.8s0.1-6.9,0-8.9s-0.4-2.5,0.2-3.5"/>
	<path fill="none" d="M360.3,472.4c0,0,3.6-0.9,3.9-2.5s-2-5.2-3.1-4.2"/>
	<path fill="none" d="M394.7,552.5c0,0,5.8,1,7.8,3.3s5.3,3.2,5.8,6.8s2.8,11.8,3.8,15.7s2.2,7.5,5.7,9.2s9.7,2.2,14.8-1.7
		c5.2-3.8,7-3,9.7-4.5c2.7-1.5,6.5-4.7,7.3-8.2c0.8-3.5,1.8-7.2,0.2-10.8c-1.7-3.7-3.7-6.3-3.7-9.5s-0.6-5-1.8-4.2s-5.1,3.1-6.4,4.2
		s-6.8,5-9,5.6s-11.2,0.6-14.5-0.5s-8.2-3.9-10.9-6.5s-3.5-3.9-7.9-4.5s-4.2-0.2-7.1-1.1s-3.5-1.9-3.5-1.9"/>
	<path fill="none" d="M385.8,543.1c0,0,0.8,0.4,1.8,0.2s3.4-0.9,5-1.8s4.6-1.2,7.5-1.5s8.9,0.9,11.5,1.2s6.9,2.8,9.6,4.6
		s8.8,1.6,13.1,1.6s10.9,0.8,10.9,0.8s-8.1,2.5-11.5,2.8s-9.8,0.6-13.8-0.5s-8-2.4-10.1-4.8s-4.6-2.6-6.5-3.4s-6.5-0.8-8.9-0.4
		s-4.4,1.6-6,1.8s-2.5-0.2-2.5-0.2s1.1-4,4.2-5s8.5-3.5,12.6-4.8s6.5-0.5,10.1-3.6s4.4-3.6,7.2-8s2.6-2.4,3.4-6.8s1.4-5.8,1.1-8.4
		s-0.2-6.2-0.2-6.2s0.8-4.5,4.1-5s5.9-1.5,9.2,0s6.9,2.5,8.4,5.2s2.6,5.4,1.6,7.4s-4.5,5-6.4,7s-3.5,3.5-4.6,6.5s-1.6,4.2-1.5,6.4
		s0.4,3.8,0.4,5.2s0.2,2.6-2.8,5.9s-6.4,6.5-8.2,7.2"/>
	<path fill="none" d="M409.1,567.4c0,0-1.1-2.9-4.8-5.1s-4.5-3.8-6.4-5.6s-3.4-4-5.8-5.5s-5.8-4-8.8-4.4s-6.6-2-7-4.2s1-4.1,2.4-4.9
		s2-2.8,2-2.8"/>
	<path fill="none" d="M416.6,586.5c0,0-2.2,2.5-6.1-2s-4.5-10.4-5.8-15.8s-4.2-9.4-4.2-9.4"/>
	<path fill="none" d="M399.6,558.4c0,0,2.5,4.1,2.4,6s-0.1,4.6-0.6,3.5s-2.6-8-5.2-9.9s-2.6-1.8-5.8-4.1s-4.5-3.6-6.2-4.4
		s-3.8-0.1-5-1.9s-2.6-5.1-2.6-5.1"/>
	<path fill="none" d="M400.6,566.2c0,0-3.4-1.6-4.8-4s-2.1-2.8-3.6-5s-2.8-4-2.8-4"/>
	<path fill="none" d="M399.2,565.9c0,0-2.4,0.1-3.4,0s-1.5-1-1.5-1"/>
	<path fill="none" d="M393,558.6c0,0,1.8,4.9,1.2,7.4s-2,5.1-2,5.1s0.6-3.2-1.8-5.2s-4.1-2.2-5.6-5.4s-3.1-6.9-4.8-7.9
		s-4-2.5-5.1-5.5s-0.5-7.2,1.4-6.2"/>
	<path fill="none" d="M384.5,561.1c0,0-2.6-0.8-4.5-2s-3.1-1.9-3.6-4.2s0.2-2.8-1.6-4.9s-3.8-7.6-0.8-6.9"/>
	<path fill="none" d="M376.3,554.9c0,0-3-0.1-3.6-2.2s-2.1-6.4-0.1-6"/>
	<path fill="none" d="M420.5,545.6c0,0,5-1.8,8.1-5s4.8-5.2,5.8-7.9s0.6-9.2-0.6-13.1s-3.9-11.6-5.9-14.8s-3.4-4.5-2.8-5.9"/>
	<path fill="none" d="M417,543.4c0,0,4.2-1,7.2-5s5.1-8.2,5.4-13.5s0.2-15.9-1.1-19.1"/>
	<path fill="none" d="M412.1,541.2c0,0,3.5-0.1,7.2-3s8-6.5,9-8.4s0.9-3,0.9-3"/>
	<path fill="none" d="M388.3,542.1c0,0,4.2-1,6.4-2.5s5.2-2,9-1.6s9.5,0.6,12.8-0.8s6.9-3.1,8.9-4.6s3-2.8,3-2.8"/>
	<path fill="none" d="M390.3,539.2c0,0,8.1-3.4,10.5-3.5s6.1-0.1,9.8-1.5s4.5-2.1,7.9-5.8s5.8-6.5,6.4-9.5s-0.1-9.2-0.1-9.2"/>
	<path fill="none" d="M390.2,538.6c0,0,1.3-3.1,4.5-3.8c3.2-0.7,12-2.5,14.8-4.7s8.8-7.7,10.3-10.8s4.6-10.1,4.9-12.2"/>
</g>
<g>
	<path fill="none" d="M352.2,508.4c0,0,1.4-3.7,1.7-6.1c0.2-2.4,2.1-5.7,3.2-6.4c1.2-0.8,2.7-3.8,2.8-4.8c0.2-1.1,0.1-1.8,0.1-1.8"
		/>
	<path fill="none" d="M352.9,503c0,0-0.9-9,3.2-13.4c4.1-4.4,8.8-7.7,11-8.8s5.6-2.3,7.8-2.2c2.2,0.2,5,1.3,4.3,2
		c-0.7,0.7-1.1,1-2.2,0.9c0,0-0.5,0.3-2.1-0.2c-1.6-0.5-4.2,0.6-6.8,2.4s-7.5,4.8-10.8,8.6c-3.3,3.8-4.9,14.9-4.9,14.9"/>
	<path fill="none" d="M370.2,479.3c0,0-4,0.8-6.6,2c-2.6,1.2-4.2,2.4-6,4c-1.8,1.6-4.6,3.8-5.5,5.9c-0.9,2.2-1.3,3.9-1.4,5.3
		c-0.1,1.4,0.1,6.5,1.2,9.6"/>
	<path fill="none" d="M353.8,480.1c0,0,3.8-3.3,6.7-4.2c2.9-0.8,4.8-1.6,7.2-0.8c2.5,0.8,4.7,1.3,6.5,1.2c1.8-0.2,3.6,0.2,5.3,1.1
		c1.8,0.8,3.4,2,2.4,2.7c-1,0.7-2.5,0.4-3,0.2"/>
	<path fill="none" d="M382.6,479.6c0,0,2,1.7,2.6,1.2c0.6-0.4,1.4-1.2-0.8-3.5s-4.4-4.2-6.1-4.1c-1.7,0.1-5.4,0.1-7-0.6
		c-1.6-0.7-5.1-1.7-5.9-2.5c-0.8-0.8-1.5-4.9-0.5-4.9s2.7,0.8,4.2,2.6c1.6,1.8,6.8,3.2,7.9,3.2c1.1,0,2.6,1.1,3.8,2.2
		s3.3,3.5,3.3,3.5"/>
	<path fill="none" d="M385.7,480.8c0,0,1.5,1.9,2.4,1.1c0.9-0.8,1.2-3.6,0.4-4.7c-0.8-1.1-4.7-5.8-6.2-7.1s-3.6-3.5-3.8-5.7
		c-0.2-2.2-0.2-4.3-0.1-6.8c0.2-2.4,0.2-3.2-0.5-3.3c-0.8-0.1-0.5,0.9-1.1,2.2c-0.6,1.2-4.8,8.2,2.2,15.2"/>
	<path fill="none" d="M366.6,465.4c-0.2,0.4,2.4-2.6,3.8-1.9s2,1.9,1.9,2.9s-2.1,2-2.6,2"/>
	<path fill="none" d="M369.6,463.1c0,0,4.1-4.4,6.1-4"/>
	<path fill="none" d="M371.6,464.9c0,0,1.6-2.6,3.5-2.4"/>
	<path fill="none" d="M372.2,466.4c0,0,2.1,0.5,3-0.6"/>
	<path fill="none" d="M371.5,467.4c0,0,2.5,2.5,5.4,1.1"/>
	<path fill="none" d="M384.7,472.5c0,0,0.5-7.2-6.1-12.2"/>
	<path fill="none" d="M389.1,477.8c0,0,1.9,0.8,1.9-0.5c0-1.2-2.9-7.2-4.4-9.1c-0.1-0.2-0.2-0.3-0.3-0.4c-1.4-1.2-2.8-1.1-2.8-1.1"
		/>
	<path fill="none" d="M387.5,469.2c0,0-0.9-5,0.8-7.6s2.9-3.4,3.8-4.9s3.1-2.5,3.2-2.9s0,2.4,0.5,3.1s1.9,1.4,2.4,2.4
		s2.4,3.4,2.2,4.4"/>
	<path fill="none" d="M389.1,471.6c0,0-1.8-8-0.9-10"/>
	<path fill="none" d="M390.6,476.1c0,0-1.8-13.6-1-16.6"/>
	<path fill="none" d="M391,477.2c0,0,0.1-12,0.4-14.9s0.6-5.6,0.6-5.6"/>
	<path fill="none" d="M388.7,481.1"/>
	<path fill="none" d="M388.6,481.8c0,0,1.6,1.9,2.2,0.6s0.1-3.8,0-4.6"/>
	<path fill="none" d="M390.5,483c0,0,1.2,2.1,2,1.2s1.2-3.1,1-5.8s-0.6-15-0.1-18.5s1.9-6.1,1.9-6.1"/>
	<path fill="none" d="M393.5,481.8c0,0,2.1-1,2.1-3.1s-0.4-15.8-0.1-17.9s0.8-3.4,0.8-3.4"/>
	<path fill="none" d="M395.6,478.6c0,0,2-0.9,1.9-3s-0.2-14.1,0.6-15.4"/>
	<path fill="none" d="M380.7,461.9c0,0,0.5-2.6,1.1-2.9"/>
	<path fill="none" d="M382.6,464.5c0,0-0.6-5.6,0.8-7.2s0.5-0.5,0.5-0.5"/>
	<path fill="none" d="M384.6,466.9c0,0-1-8.6-0.1-10.4s1.2-2.1,1.4-3.8s1.1-3.1,1.5-2s1.2,8.4,1,10.1"/>
	<path fill="none" d="M388.2,454.8c0,0,1.9,1.4,1.9,4.1"/>
	<path fill="none" d="M358,518.4c0,0,1.4-3-0.1-5.8s-4.1-10.5-2.9-13.6"/>
	<path fill="none" d="M358.7,521.1c-0.8,3.6,2.1,5.9,2.1,5.9s-0.9-4.1-0.5-5.9s2.4-8.6,0.4-11.8s-4-5-3.8-8.1s0.9-6,0.9-6"/>
	<path fill="none" d="M357.7,496.4c0,0,3.9-4.4,7.2-6.1s6.8-4.1,8.5-6s1.4-2.9,1.4-2.9"/>
	<path fill="none" d="M380,480.5c0.5,1.2-1.2,3.5-3.5,5.6s-6.6,3.9-9.4,4.8s-5.1,3.5-6.1,5s-3.2,1.9-3.2,1.9"/>
	<path fill="none" d="M358,498.4c0,0,2.2,1.5,3.5,0.2s3-6.2,6.4-6.8s7.2-1.2,9.4-3s3.6-5.6,2.2-6.1"/>
	<path fill="none" d="M357.8,499.5c0.4,0.1,3,1.4,4.5-0.2s5.1-4,6.8-3.9s4.9,1.1,5.6,2.5s1.2,3.1,0.2,2.8s-3.4-2.6-5.2-2.5
		s-3.8,0.2-4.5,1.2s-4.6,2.5-5.8,1.8S357.8,499.5,357.8,499.5z"/>
	<path fill="none" d="M374,500.4c0,0-1.6,1.4-3.4,1.5s-3.1-0.5-4.6-0.5s-2.6,0.1-3.5,1s-5.6,1.1-5.5-0.5"/>
	<path fill="none" d="M358.1,505c0,0,2-1.4,3.5-0.6s3.2,0.5,4.6-0.6s1.9-2,1.9-2"/>
	<path fill="none" d="M359.1,506.8c0,0,0.9-1.9,2.4-1.4s4.1,0.2,4.9-0.9s1.1-1.8,1.1-1.8"/>
	<path fill="none" d="M360.7,509.4c0,0,1.9,0,3-1.2s1.5-1.8,1.8-2.8"/>
	<path fill="none" d="M363.5,497.9c0,0,3-4.5,6.1-4.4s6.2,1.8,6.4,2.8s-0.1,1.6-0.8,2.2"/>
	<path fill="none" d="M377.2,488.9c0,0,0.9,2.2,0,3c-0.4,0.3-1,0.6-1.6,0.8c-0.8,0.2-1.7,0.3-2.4,0.2c-1.2-0.1-3.6,0.1-4.5,0.8"/>
	<path fill="none" d="M376,497.1c0,0,1.2,0.1,1.4-1s-0.4-3.4-1.2-3.4"/>
	<path fill="none" d="M361.7,510.8c0,0,2.8,0.5,2.5,4.4s-0.4,5.6-1.1,7s-1.2,3.4-2.2,4.9s-2.5,2.6-3.1,4.4s-1.1,4.6-0.5,5.8
		s1.1,2.4,1.1,2.4"/>
	<path fill="none" d="M364.7,514.5c0,0,1,1,1,2.5s-0.4,3.4-1.4,5.6s-2.4,5.1-3.1,7.4s-0.9,2.4-0.8,4.6s0.2,4.1,0.5,4.6
		s-1.1-1.1-1.4-3.5s-1.4-5.1-0.2-7"/>
	<path fill="none" d="M361,539.2l1.9,2.9c0,0-1.5-2.8-0.5-6.5s1-5.2,2.2-7.5s2.8-6.6,2.2-8.2s-1.1-2-1.1-2"/>
	<path fill="none" d="M362.8,542.1c0,0,1.2,2.6,2,2.9s-0.8-7.8-0.1-10s0.6-4.1,1.5-5.6s1.2-6.9,0.4-7"/>
	<path fill="none" d="M364.8,545c0,0,1.8,3.5,1.8,2s-0.4-4-0.1-6.6s-0.1-6.1,0.8-8.4s1.8-4.9,1.2-6s-1.5-1.1-1.6-0.6"/>
	<path fill="none" d="M366.6,547c0,0,2.8,2.8,2.2,1.9s-1.2-3.8-0.9-6.2s1.1-6,1.1-8s1.2-4.6,0.9-6s-0.4-2.1-1.1-1.9"/>
	<path fill="none" d="M368.8,548.9c0,0,2.1,3.5,2.4,2.8s0-4.4-0.4-6s-0.4-3.9,0.1-6.5s1.5-5.2,0.8-6.8s-1.9-1.8-1.9-1.8"/>
	<path fill="none" d="M373.5,542.9c0,0-0.1-3.4,0.1-5.6s-0.8-5-1.6-4.4"/>
	<path fill="none" d="M376.1,540.2c0,0-0.8-3,1.4-4.9s2.6-2.4,3.2-3.1s1.1-1,1.1-0.1s-0.2,2.2-0.9,3"/>
	<path fill="none" d="M385.5,544.8c0,0-2.5,0.1-2.8-0.5s2.5-5,3.7-2.3c1.2,2.7,0,0.4,0,0.4"/>
	<path fill="none" d="M385,540.9c0,0-1.4-1.6-2.4-0.9s-2.9,2.4,0.1,3.9"/>
	<path fill="none" d="M383.4,540c0,0-1.2-1.1-2.1-1c-0.8,0.1-2.8,1.2-3,1.6s1.1,2.8,2.7,1.6"/>
	<path fill="none" d="M375.8,537.8c0,0-1.9-3.3,2.8-7.1s5.9-4.8,5.9-4.8s-2.8,2.6-2.9,3.3c-0.1,0.8,0.2,1.8-0.2,2.4"/>
	<path fill="none" d="M376.9,530.7c0,0,0.8-3.8,2.2-5.6c1.3-1.8,2.1-4.9,4.9-7.2s4.8-4.3,5.7-5.2c0.9-0.9,1.7-1.9,1.6-0.8
		s-0.6,2.8-0.6,2.8s-4.2,4-5.2,4.9s-5.7,5.2-5.7,5.2"/>
	<path fill="none" d="M378.2,525.7l-0.2-1.2c0,0-2.1,2.6-2.7,3.4c-0.6,0.8-1.9,3-2,3.8c-0.1,0.8,0.6,4.6,1.5,3.5
		c0.9-1.1,1.5-2,1.6-3c0,0,0.8-2.1,4.6-5.9s5.6-6.4,6.5-7.7s2.7-3.5,2.7-3.5s-1.8,3.9-2.4,5.2s-1.9,4.2-3.2,5.6"/>
	<path fill="none" d="M378,524.4c0,0,0.3-1.2,0.2-2.1c-0.2-0.9-0.6-0.7-0.8-0.3c-0.2,0.4-1.3,1.8-2.5,2.8c-1.2,1.1-5.9,6-1.8,7.3"/>
	<path fill="none" d="M377.8,521.5l-0.2-1.7c0,0-1.8,1.5-3.4,3.1c-1.7,1.6-4.8,4.5-3,6.7"/>
	<path fill="none" d="M370.5,527.1c0,0-0.8-2.2,0.2-3.7c0.9-1.4,4.2-4.9,6-6.2s1.9-1,1.9-1s-0.7,3-1,3.7"/>
	<path fill="none" d="M382.6,512.8c0,0-3.2-1.3-4.4-0.3c-1.2,1-4,4.2-5.2,5.7c-1.2,1.4-2.7,3.4-2.8,4.5c-0.1,1.1,0,1.7,0,1.7
		s4.5-5.7,5.9-6.7c1.4-1,2.6-1.4,2.7-1.9c0.1-0.5,0.9-2,1.7-1.9S382.6,512.8,382.6,512.8z"/>
	<path fill="none" d="M385,511.4c0,0-1.4-1-3.2-1.2s-4-0.1-5.4,1.5c-1.4,1.6-5.2,7.3-5.3,8.8c0,0,4.7-5.7,5.2-6.2s2.5-2.3,3.1-2.2
		c0.6,0.1,3.1,0.9,3.7,0.8C383.6,512.6,385.1,512.2,385,511.4z"/>
	<path fill="none" d="M372.2,517.1c0,0,5.9-8.2,7.8-8.8s3.8-1.2,5.8-0.1s2.4,3.6-0.8,3.6"/>
	<path fill="none" d="M376.8,510.6c0,0,3.3-4.8,6.9-5.1s5.8,0.8,6.5,2.2s0.5,4.9-3,2.9"/>
	<path fill="none" d="M378.8,508c0,0,4.3-4.7,6.8-5.1c2.5-0.4,4.3,0.1,5.6,1.9c1.2,1.8,2.2,4.9,2.1,5.9c-0.2,1-1.8,1.8-2.8-1"/>
	<path fill="none" d="M384.4,503.3c0,0,3.2-3.4,6.3-2.7c0.2,0.1,0.5,0.1,0.7,0.2c3.4,1.5,5.6,4.8,5.6,6.3s-1.2,4.5-2.5,4.6
		c-1.2,0.1-1.2-1.1-1.2-1.1"/>
	<path fill="none" d="M395.2,512c0,0,1.2,2.7,1.6,1.4s0-4.2,0-4.2"/>
	<path fill="none" d="M396.3,513.9c0,0,1.5,1.8,1.9,0.8s1.6-4.5,0.8-7.8c-0.8-3.3-1-4.8-2.2-5.8c-1.2-0.9-3.8-1.5-5.3-0.2"/>
	<path fill="none" d="M397.5,515.1c0,0,0.8,2,1.8,1s2.8-2.3,2.2-7.2c-0.5-4.8-1.4-8.2-4.2-7.2"/>
	<path fill="none" d="M400.1,516c0,0,1.3,2.8,1.8,1.8c0.4-1,2.5-8.1,1.2-11.7c-1.2-3.6-2.5-4.3-2.8-3.3"/>
	<path fill="none" d="M401.8,517.8c0,0,1.2,6.4,2.2,4.8s1.6-8.1,1-12.2c-0.6-4.1-1.1-6.7-2.9-6.7"/>
	<path fill="none" d="M404.5,506.2c0,0,4.2,2.1,3.8,7.9s-3.8,12.8-4.2,8.4"/>
	<path fill="none" d="M408.6,512.8c0,0,2.6,1.7,2.3,3.6s-2.2,6.9-3.2,8s-3.8,3.7-3.8,2.7s0.8-3,1.3-3.3"/>
	<path fill="none" d="M411.1,515.5c0,0,2.1,0.2,2.1,1.7s-0.7,3.3-1.5,4.6c-0.8,1.3-4.6,5.8-5.7,6.2c-1.1,0.3-1.8,0.5-3.1,0.7
		s0.4-1.2,1-1.6"/>
	<path fill="none" d="M413.5,518.2c0,0,1.4,1.2,0.9,2.6s-1.9,4.6-3.6,5.9c-1.7,1.3-4.7,3.4-6.2,3.5c-1.6,0.1-3.6,0.2-5.8,0.8
		s-3.8,0.9-4.8,1.8s-3,2.2-2.6,3.8"/>
	<path fill="none" d="M397.2,531.2c0,0,2.8-2.7,5.2-2.8"/>
	<path fill="none" d="M410.6,504.4"/>
	<path fill="none" d="M370.1,525.6c0,0-4.6-8.2,0.6-13.8s8.5-7.9,11.8-10.2s11.8-8.1,14.6-11.6s7.9-8.9,12.8-10.2s6.6-1.2,9.5-0.6
		s5.5,1.1,7.2,3.1s2.1,3.5,1.5,4.1s-2.6,0.2-2.6,0.2"/>
	<path fill="none" d="M424.6,491.6l1.2-0.5c0,0,0.2-1.1-0.2-3.2s-2.2-4-5.5-5.8s-5.2-1.6-9-0.6s-8.8,6.2-13.5,10.2
		s-12.5,7.9-12.5,7.9"/>
	<path fill="none" d="M389.8,496.8c0,0,17.2-12.2,19.1-13.2s7-1.5,10,1s5.9,4.6,5,8.1s-1.4,2.8-1.4,2.8"/>
	<path fill="none" d="M417.6,499.8c0,0,2.5-0.9,2.9-3.4s0.4-5.5-0.9-7s-4.4-4-6.2-4.2s-4.5,0.1-7.2,1.2"/>
	<path fill="none" d="M426.6,482.2c0,0-4.1-3.6-6.4-4.2s-7.2-0.9-9.9-0.2s-5,0.9-7.6,3.4s-5.4,6-7.1,7.8s-5.9,4.9-7.8,6.5
		s-7.2,5-8.6,6.8s-6.4,6.4-7.6,8.5"/>
	<path fill="none" d="M379.2,502.1c0,0,5.2-5.9,9.6-10.2s12.5-12.8,14.2-15.1s7-4.1,9.1-4.2s8.1,0.1,10,5.2l2.6,2.8"/>
	<path fill="none" d="M408.1,470.5c0,0,5.2-0.8,9,0.2s8.9,2,11.9,3s8.2,5.5,11.2,7.9s3.5,7,3.5,8.5"/>
	<path fill="none" d="M421,475.5c0,0,5.1,2.8,8.1,4.2s6,3.2,8.4,5s6.1,4.4,6.5,6.9s0.2,4.4,0.2,4.4"/>
	<path fill="none" d="M426.6,481.6c0.4,0,2.6,1.5,5.5,3.5s4.8,2.9,6.6,4.9s6.4,4.2,5.9,9.5"/>
	<path fill="none" d="M440.7,497c0,0-3.8-3.9-5.9-5.8s-6.8-4.9-6.8-4.9"/>
	<path fill="none" d="M435.3,494.9c0,0-4.1-2.9-5.4-3.9s-3.8-2.4-4.1-1.9"/>
	<path fill="none" d="M395,493.8c0,0,4-0.8,5.4-1.5s6.2-3.6,7.1-5.4s1.4-0.6,1.4-0.6"/>
	<path fill="none" d="M400.8,492.2c0,0,1.2,0.6,2.6-0.5s5.5-4.2,7.9-3.9s3,1,3,1"/>
	<path fill="none" d="M402.2,492.6c0,0,1.4,0.9,2.5,0.1s7-5.6,10.4-3.4"/>
	<path fill="none" d="M416.1,490.2c-2.2-1.5-8.4,3-9.5,3.5s-2.4-0.2-2.4-0.2s1.2,3.4,2.6,2.8s4.1-3.1,6-3.4s5.5,1.1,5.8,0.5"/>
	<path fill="none" d="M407.5,496.1c0,0,2,0.4,2.9-0.2s5-2.5,6.2-1.8s1.9,0.9,2.1,0.5"/>
	<path fill="none" d="M418.6,496.1c0,0-1.2,0.8-2.2,0.5s-3.5,0-4.4,0.5s-3.2,0.6-3-0.6"/>
	<path fill="none" d="M411.1,497.9c0,0,0.9,1.6,1.8,1.1s2.1,0.5,3,0.8s1.1,0.1,1.9-0.5"/>
	<path fill="none" d="M412.2,499c0,0-0.4,1,0.8,1.4s3,0.9,4,0.4"/>
	<path fill="none" d="M401.2,488.8c0.8-0.6,3-1.6,4.9-2.4s4-0.2,6,0.5s3.2,2.6,5.1,4.1s1.8,3.2,1.2,6.4s-3,5.1-3.4,5.2l-1.8,1
		c0,0-0.4-1.4-0.8-1.6s-0.6-1.6-0.1-1.9"/>
	<path fill="none" d="M414.1,521.9c0,0,0.9,0.9,3-2.4s3.9-5.6,4.9-10.1s1.6-8.2,2.6-9"/>
	<path fill="none" d="M395.3,484.5c0,0,2.7-9,3.7-12s3.2-8.5,4.8-10.5c1.7-2,2-1.3,2-1.3s-1.2,2-1.3,3.7c-0.2,1.7,1.2,1.5-0.5,4
		s-7.5,15.7-7.5,15.7"/>
	<path fill="none" d="M404.8,468c0,0,1.2,1.7,1.2,2.2s-4.7,8.5-4.7,8.5"/>
	<path fill="none" d="M405,460.3c0,0-3.5,1.3-4.3,2.8c-0.8,1.5-2.2,4.8-1.8,6.7c0.3,1.8,0.2,2.7,0.2,2.7"/>
	<path fill="none" d="M407.2,473.8c0,0-2.8-2.2,0.3-3.2"/>
</g>
<g>
	<path fill="none" d="M460.5,352.2c0,0-1,2.5-2.8,5s-3.2,5.2-4.5,6.5s-0.8,4.5-2.8,5.8s-5,3.2-7,5s-2.8,3-5.5,3.8s-7,1.8-9,4.2
		s-4,2.8-4,2.8s-4.5,0.2-6.2,0.5s-5,1-7.8-0.8s-10-10.8-10.5-15.5s0.8-9.8,1.2-12s2.2-4.5,4.2-6.2s4.8-3.5,7-2.5"/>
	<path fill="none" d="M459.5,351c0,0-1.8-2-5,0s-3.8,1.8-6.8,5s-3.5,1.8-4.8,5.8"/>
	<path fill="none" d="M428.8,337.5c0,0-3.2-4.5-6.2-4.5s-7.5-7.2-8.5-10.8s0.8-9-1-11s-8.5-4.8-10.8-6.8s-9-8.5-6.5-10.2
		s4.8-1.5,4.8-1.5"/>
	<path fill="none" d="M435.2,363c0,0-1.2-2.5-1.9-2.2s-3.8,1-4,0.2s-3.4-3.8-4.1-6.2s-2.1-4.9-3.9-6s-2.9-0.8-2.9-0.8"/>
	<path fill="none" d="M424.5,354.2c0,0-2.1-0.4-3.9,0s-3.4,0.8-5,2s-2.9,2.5-3.8,3.8s-1.9,4-2.1,4.6s0.6,6.1,0.6,8s1.5,2.2,2.1,3.4
		s1.8,3.1,2.9,3.5s2.6,0,3-0.9s1.4-2.5,2.5-2.2s2.8,0.5,4.8-0.2s5.1-1.4,6.8-3.6s3.2-5.6,4.4-6s1.6-1.1,2.6-2.2s2-3.2,1.9-5.8
		s1.2-4.9,3.4-7.8s3.8-5.1,4.9-5.1s4.5-3.5,4.8-4.4c0.7-2.6,3.5-3,6.5-5.2s5.2-1.5,7.8-2.8s7.8-6.8,10.8-10s0.8-7.8,0.8-7.8
		s-2.5-5.2-6.5-6s-2.2-0.5-2.2-0.5s-3-4.2-5.8-6s-5.2-2.5-7-2.8c0,0-2.5-4-7.2-6.5s-10-5.5-13-6s-7.5,0.8-10,1.5s-6.8,3-8.2,2.2
		s-3.2-0.5-6-0.8s-5.8-0.8-6.5,0.2s-2,0-3.8,0.2s-3.5-0.5-3.2,1.5s1,3.5,4.5,6.8s6.8,6.2,9.2,9s8.2,13.2,11,16.8s4,6.8,5.5,6.8
		s4.8,1.2,5.8,1.5"/>
	<path fill="none" d="M413.5,390c0,0-1.6,0.9-3.8,0.1s-4.8-3.9-7.6-5.1s-2.9-0.7-6.1-2.4c-1.5-0.8-7.9-1.1-9.4-1.1s-5-1.9-6.6-3.2
		s-7.9-7.1-7.9-7.1s-1.9-2.5-1.5-3.6s2.2,0.4,2.2,0.4"/>
	<path fill="none" d="M408,389.8c0,0-2.1,0.1-3.4-0.5s-3.5-2.4-6.2-3.9s-4.6-2.1-5.6-2.1"/>
	<path fill="none" d="M403.1,389.2c0,0-2.2-0.5-4.2-1.8s-5.1-2-7-2.4s-6.6-1.6-10-1.6s-8-1.9-10.2-3.5s-1-2.4,0.1-1.9
		s7.9,3.2,9.5,3.2s3.9,0.1,3.9,0.1"/>
	<path fill="none" d="M394.2,378.6c0,0-7.8-0.1-9.9-1.4s-8-4.5-9.6-6.6s-2.4-3.5-1.4-3.6s3.1-0.5,3.4-0.9s3.1-3.5,4-2.9
		s1.2,0.2,2.2-1.6s4.4-4.4,4.8-4.4s4.2-3.5,5.6-3.9"/>
	<path fill="none" d="M416.3,336.2c0,0-6.2-3-8.5-6c-2.3-3-9-8-10.3-10.7s-0.7-4.7-1.7-5.7s-5.7-3.5-7.2-6s-0.5-7.8,2.5-6.5"/>
	<path fill="none" d="M378.2,326.5c0,0-9.3-1.8-13-4.2c-3.7-2.3-7.8-10.2-5.5-11.8c2.3-1.7,6-3.5,10.8-2.3"/>
	<path fill="none" d="M407.5,343.2c0,0-7.8,0.2-10.7-1.2c-2.8-1.3-7.8-2.8-11.7-3.5c-3.8-0.7-9.8-5.8-12.5-7.3"/>
	<path fill="none" d="M366.8,323.3c0,0,0.3,4.7,3.1,8.4c1.1,1.4,2.5,2.7,4.4,3.6c6.8,3,9.2,3.5,12,3.8"/>
	<path fill="none" d="M396.7,346.8c0,0-8-1-11.7-1.3s-10.8-2.3-13.2-4.8c-2.3-2.5-5.2-7-2.5-9.3"/>
	<path fill="none" d="M435.7,311.2c0,0,0.5,1.8,1.8,4.8s1.3,6.7,0.7,12.8c-0.7,6.2-1.8,8.5,0.5,10.2c2.3,1.7,5.7-2.5,6.2-2.5
		c0,0,3.5-4.2,4.2-8.5s-1-11-4.8-14.7c-3.8-3.7-9.7-8.2-11.8-11.5c-2.2-3.3-2.5-6-2.5-6"/>
	<path fill="none" d="M414.2,294.2c0,0,9.8,8.2,12,9.7c2.2,1.5,4.2,0.8,6.7,2.3s2.8,1,4.8,3.7c2,2.7,3,5.2,3,5.2"/>
	<path fill="none" d="M448.7,342.5c0,0,8-6.5,10-9.7c1-1.6,2-4.1,2.8-6.7c0.8-2.6,1.3-5.3,1.3-7.1c0-3.7-0.8-10.7-1.7-13.2
		c-0.8-2.5-2.7-5.6-2.7-5.6"/>
	<path fill="none" d="M465.8,322c2.5-3.5,3.2-5.5,2.3-8.8c-0.8-3.3-4.7-9-7.8-8.8"/>
	<path fill="none" d="M465,332.7c0,0,3.5-2.5,5.8-5.5c2.3-3,3.7-7.7,2.7-11.8c-1-4.2-2.2-6.3-2.2-6.3"/>
	<path fill="none" d="M389.2,372.3c0,0-3.8-2.2-5.3-4c-1.5-1.8-2.3-4.5-1.8-5.7"/>
	<path fill="none" d="M435,359.2c0,0-3.8-3.3-5.2-5.8c-1.3-2.5-0.8-3.8-2.5-5.7c0,0-4.7-5.5-6.3-6.8c-1.7-1.3-6.2-3.7-8.8-4
		c-2.7-0.3-5.8-1-8-1.8c-2.2-0.8-8.8-5.2-11-7.2c-2.2-2-3.5-3-6.5-3.8s-4.5-1.7-7.8-4c-3.3-2.3-11.3-10-7-13.7
		c4.3-3.7,6.7-4.2,8.7-3.7c0,0,1-0.2,2-1.3c1-1.2,2.7-4.3,6.7-5.2c4-0.8,5.7-1,5.7-1"/>
	<path fill="none" d="M395.5,340c0,0-10.3-9.7-13.8-11.5s-5.5-3-9.8-7.2c-4.3-4.2-5.5-5.2-5.5-5.2"/>
	<path fill="none" d="M439.2,333.5c0,0,4.2-2.5,5.7-7.8c1.5-5.3,2.2-8.8,1.8-9.8"/>
	<path fill="none" d="M369,338.3c0,0-2.3,6.5-0.7,7.2c1.7,0.7,4,0,4,0"/>
	<path fill="none" d="M401.3,351.7c0,0-5.7-1.3-8.2,0.2s-7.3,3.2-9.2,2.3c-1.8-0.8-2.7-2.7-2.7-2.7"/>
	<path fill="none" d="M368.3,345.5c0,0-0.2,4.2,1,6.2c1.2,2,4.5,4.2,7.2,4.3s7.3-1.2,7.5-1.8"/>
	<path fill="none" d="M433.1,402c0,0-2.5,3.7-5.3,4.5c-2.8,0.8-4.3,0-4.3,0"/>
	<path fill="none" d="M418.2,446.2c0,0,0.7-2.2,0-4.3c-0.7-2.2-4-4.5-4.5-7.8s-0.7-5.7,0.3-9.5s0.3-0.5,1,2s1.2,5.8,2.7,6.8
		s4.5,8.7,3.5,11"/>
	<path fill="none" d="M417.5,445.3c0,0-1.3-0.3-1.7-2.2c-0.3-1.8-2.2-1.3-3-1.5c-0.8-0.2-2.7-2-3.3-3.2s-1.5-1.8-2.5-1.3
		s-2.3,2-2.3,2s-2.2-3-3.2-2.8c-1,0.2-3.5,2.3-4.3,3c-0.8,0.7-1.7,0.2-1.7,0.2l0.5-3.3c0,0-3,0.7-3.8,1.5c-0.8,0.8-1.7-1.2-1.7-1.2
		s-3.5-0.3-4.5-0.5s-3.8-0.7-3.8-0.7s1.7-1,5.8-2s5.8-2.8,7.2-4.2c1.3-1.3,4.3-2.2,4.3-2.2"/>
	<path fill="none" d="M385,433.7c0,0-0.3-2.3,1.8-3.5c2.2-1.2,5-2.3,5-2.3"/>
	<path fill="none" d="M389,429c0,0-1.5-1.5-3.5-2.8c-2-1.3-2.5-3.5-4-4.2s-3.2-1.7-3.2-1.7s2.5,0,3.7-1.5s3-1.2,3.5-4.8s1.5-7,1.5-7
		"/>
	<path fill="none" d="M391.3,389.5c0,0-3.5,1-4.8,3.3c-1.3,2.3-3.5,6.5-5.5,8.2s-3.8,3.8-4.7,3.8c-0.8,0-2.3,1.5-1.2,1.7
		c1.2,0.2,3.2,0.8,5.5-1.7c2.3-2.5,4.3-3.5,5.7-6.5C387.7,395.3,389.5,390.3,391.3,389.5z"/>
	<path fill="none" d="M375.3,404.5c0,0-2.2-1,0.3-2.8c2.5-1.8,6.3-5,7.7-7.3c1.3-2.3,3-4.7,5-5c2-0.3,3.5-0.5,3.5-0.5"/>
	<path fill="none" d="M376,400.7c0,0-0.2-4.5,1.7-6.7c1.8-2.2,4.2-4.8,7-6.3c2.8-1.5,4.8-2.5,6.7-2.5"/>
	<path fill="none" d="M391.8,407.3l3,1l2.3-0.8l-0.7-3.2l2.3-0.8l1.8,0.7c0,0-1,2,0.5,3.2c1.5,1.2,2.8,2.8,4.3,3.2s4.8,0.8,4.5,2.5
		s-2,3.7-3.3,2.5c-1.3-1.2-5.2-1.8-5.7-1.7"/>
	<path fill="none" d="M415.5,411.7c0,0,1.3-0.7,1.3-2c0-1.3,0.8-3.3,1.8-3.3s2.5-0.3,2.7-1.7c0.2-1.3,3-4.3,4.2-5.3s2-3.2,2.5-2.1
		l1.2,0.2c0,0,2.2,3.2,3.9,4.5s5,0.4,7.4,0.1s6.5-3,6.5-3"/>
	<path fill="none" d="M427.8,406.5c0,0-0.2,3.3-2,4.7c-1.8,1.3-2.7,2.3-2.7,2.3s1.5,1,1.2,2.2c-0.3,1.2-2,4.2-2,4.2l0.3,2.2"/>
	<path fill="none" d="M418.7,405.2c0,0-0.5-1.5,0.8-3.7s3.3-4.3,3.8-4.5"/>
	<path fill="none" d="M420.8,398.2c0,0-0.5-2.2,0.5-4c1-1.8,1.8-2.8,3-3.7c1.2-0.8,1.8-1.8,1.8-1.8l-3.7,0.6c0,0-5.8,3.2-9,0.8
		c-0.1-0.1-0.3-0.2-0.5-0.4c-3.5-2.7-10.5-8.2-14.3-9.6c-4-1.5-9.8-3.5-9.8-6.2s2.5-1.5,4-2.5s2.2-2,2.8-4.2s2-11.2,4-11
		s2,0.2,2,0.2"/>
	<path fill="none" d="M428.7,396.5c0,0,2.5-1.2,3.3-2.5s4.8-3.8,4.8-3.8s3,0.5,3.2,2s0.2,1.5,0.2,1.5s1.2,2.3,3.2,2.7
		c2,0.3,3.8,0,3.8,0"/>
	<path fill="none" d="M449.3,386.8c0,0-0.7-3.5-1-4.8c-0.3-1.3-1.8-3.2-2.3-3.2s-2,0.2-2.3,1c-0.3,0.8-3.7,2.7-2.5,3.5
		c1.2,0.8,3-0.2,3-0.2s2.7,1.7,2.5,3.2c-0.2,1.5,0.3,2.2,0.3,2.2l0.7,0.3"/>
	<path fill="none" d="M411,369.8c0,0,3.2,1.5,4.5,3s3.2,3.7,4.3,3.7c1.2,0,3.7,0.2,3.7,0.2"/>
</g>
<path fill="none" d="M897.7,396.3c0,0-1.1,0.4-2.2,1.6c-1.1,1.2-2.3,3.5-3.2,5.3c-0.9,1.8-1.8,3.7-2.8,4.7c-1.1,1-1.5,3.1-1.6,4.5
	c-0.1,1.4,1,2.3,1,2.3"/>
<path fill="none" d="M880.2,418.9c0,0,0.7,2.9,0.3,4.5c-0.3,1.6-1.6,4.9-2.2,6c-0.6,1.1-0.8,2-0.7,3.6s0.4,3,0.5,4.2
	c0.1,1.2,0.6,5.1,0.8,7.3s0.9,5.4,0.1,7.7s-1.1,3.8-2.1,4.3"/>
<path fill="none" d="M880.6,422.2c0,0,2.4-1.7,4.5-4.1c1.4-1.6,2.7-3.6,2.8-5.7l0.2-3c0,0,0-2.2,0.1-3.2s0.2-2,0.2-2
	s-2.3,1.7-3.3,1.9s-4.3,0.8-5.8,1.1c-1.4,0.3-4.1,2.6-5.8,4.2c-1.7,1.7-3.6,3.9-4.8,4.5c-1.2,0.6-2.2,1.8-4.2,3.3s-4.9,5-5.8,6.7
	c-0.9,1.7-1.8,5-2.2,7.8s1.2,7.8,2.3,9.7c1.1,1.8,1.1,1.8,1.1,1.8"/>
<path fill="none" d="M865.7,418.6c0,0,3.9-1.9,7.3-2.8c3.4-0.8,5-1.2,7.4-0.9c2.4,0.3,4.1,2.3,4.7,3.2"/>
<path fill="none" d="M869,446.8c0,0-4.4-1.7-7.2-1.6c-2.8,0.1-4.1,0.7-5.6,1.5c-1.5,0.8-4.2,2.2-4.2,2.2"/>
<path fill="none" d="M860.3,452.5c0,0-2.2-1.3-3.6-1.9c-1.3-0.6-3.8-1.3-5.5-1.3s-3.8,0.3-5.2,0.8c-1.4,0.5-3.5,2-3.5,2
	s-1.4,0.8-2.8,1"/>
<path fill="none" d="M853.8,457.1c0,0-1.3-1.5-2.4-1.8s-5.8-0.5-7.1-0.8s-4.4-1.5-6.5-1.8c-2.1-0.3-5.9,1.3-7.4,2.2
	c-1.5,0.9-3.4,2.8-3.4,2.8s-0.8,1.5-1.8,1.9c-1,0.4-2,0.8-2,0.8"/>
<path fill="none" d="M914.9,436c0,0,2.5-0.6,3.6-2.1s3-5,3-8.9s-0.8-10.4-3.8-13.6s-7.4-7.2-8.8-11.2s-1.9-5.2-2.5-7.8
	s-3.7-6.4-7.3-6.5c-0.3,0,2.6,2.8,2.6,3.7c0,0.8-0.2,5-1.2,5.8c-1,0.8-2.4,0.4-2.8,0.9c-0.4,0.5-1.5,2.4-2,3.5
	c-0.5,1.1-0.8,3.9-2.1,5.4s-2.7,3.5-3.1,4.6c-0.4,1.1-0.5,1.8-1.2,3.6c-0.7,1.8-0.6,4.4-0.5,4.8"/>
<path fill="none" d="M907.6,395.9c0,0,2.5,5.1,3.8,6.6s3.2,3.4,3.9,5.5s1.4,2.5,1.4,2.5"/>
<path fill="none" d="M919.1,413c0,0,0.1-3.9-1.2-6.1s-4.8-5.1-6.4-6.4s-4.1-4.6-4.4-5.8"/>
<path fill="none" d="M894,420.1c0,0,3.5-2.8,6.9-2.1s6,2,7.2,3.2s2.1,1,2.9,0.9s-1.4,1-2.9,1.6s-3.8,1-4.4,0.9"/>
<path fill="none" d="M924.6,429.4c0,0,2.2,0.5,3,1.6s3.1,3.1,3.1,4.6s-0.9,2.5-1.2,2.9"/>
<path fill="none" d="M927.6,431c0,0,0.5-2.2-0.9-4.1s-3.9-6-4.1-7.2s-0.5-1.5-1.1-3.6s-2.4-5.1-2.4-5.1"/>
<path fill="none" d="M927.5,439.5c0,0,2.1-1.4,5.5-0.9s6.1,3.2,7.4,4"/>
<path fill="none" d="M937.6,442c0,0,2,1.5,3.6,1.6s3.1-0.5,4,1s3.2,2.4,4.2,2.5s2.2,0.6,2.8,1.5s3.2,2,3.5,5.2s0.1,5,0.1,5"/>
<path fill="none" d="M954.5,457.1c0,0,1,2.2,2,2.6s1.6,2.6,1.5,6.4s-0.8,6.6-4,8.2s-3.8,2.2-4.8,3.9"/>
<path fill="none" d="M940.4,472.9c-0.1-1.2-0.9-1.6-1.5-3.6s-0.5-5.6,0.1-7s3.8-3.6,3.8-3.6"/>
<path fill="none" d="M940.5,470c0,0,0.1,6.1,1.6,8.2s3,3,4.4,4.8s3,3.9,3.1,4.6s0.1-1.4,0.6-3s0.9-6,0.8-7.2s-0.1-1.2-0.1-1.2"/>
<path fill="none" d="M944,475.6c0-0.5,2.1-2.8,2.6-5.1s1-3.6,0.1-5.8s-3.2-4-3.8-5.4s-0.9-3.5-0.9-3.5"/>
<path fill="none" d="M930.4,444.2c0.2-0.4,2.6-0.9,3.8,0.9s2.9,4.8,3.4,6.6s3.8,4.5,5.9,3.8s3.4-1.2,3.8-3s-0.1-1.4-0.1-1.4"/>
<path fill="none" d="M939.1,452.4c0,0,1.4,1,3,1.4"/>
<path fill="none" d="M938.8,451.1c0,0,1.6,1,2.8,1.5"/>
<path fill="none" d="M937.8,449.1c0,0,1.4,1.1,2.8,1.8"/>
<path fill="none" d="M936.8,447.2c0,0,2.1,1.6,3.1,2.1"/>
<path fill="none" d="M942.9,459.8c0,0-2.6,2.8-2.8,5.2"/>
<path fill="none" d="M943.8,460.8c0,0-1.6,1.5-2.2,4.1c-0.6,2.6-0.6,3.2-0.6,3.2"/>
<path fill="none" d="M944.7,462.2c0,0-1.2,1-1.8,3.2s-0.8,4.2-0.9,4.5"/>
<path fill="none" d="M945.7,463.3c0,0-1.1,2.2-1.6,3.9s-0.9,4.3-0.9,4.3"/>
<path fill="none" d="M947.6,473.8c0,0,2.9-1.7,4-3.1s1.5-2.9,1.5-6.3c0-3.4-0.6-5.3-1.3-7.2s-0.7-2.9-0.3-3.8"/>
<path fill="none" d="M944.8,458.6c0,0,3.5-3.4,5.2-2.4s3.6,2.7,5.5,2.8"/>
<path fill="none" d="M947.1,477.1c0,0,1.8-2.6,4-3.5"/>
<path fill="none" d="M947.9,478c0,0,2.2-3.6,4.1-4.2"/>
<path fill="none" d="M928.8,443.6c0,0,1.6-1.4,3.9-0.5"/>
<path fill="none" d="M928.2,442.5c0,0,0.6-1.6,3.4-0.8"/>
<path fill="none" d="M927,441.4c0,0,2.1-2.5,5.2-0.9"/>
<path fill="none" d="M909.2,438.4c0,0,4.8-2.6,6.9-2.2s3.4,0.4,5.1-1.1s2-3.2,2-3.2"/>
<path fill="none" d="M919.2,436.6c0,0,2.5,1.4,3.9,1.2s2.4-0.4,3.4-1.2"/>
<path fill="none" d="M924.2,438.1c0,0,1,1.5,2.8,1.1"/>
<path fill="none" d="M881.9,449.6c0,0,7.5,5.8,10.8,3.8s5.5-5.9,6.6-7.8s2.1-3.1,2.1-3.1s6.2-4,9-4s1.4,0.6,1.4,0.6"/>
<path fill="none" d="M894.1,440.5c0,0,3.6,3.5,5.9,2.2s4.2-4,4.2-4l-1.9-0.8c0,0-0.4-3.6,1.4-4.9s4.8-2.6,4.8-2.6s-1.4-1.6-3.2-1.4
	s-2.1-0.4-2.6-1.2s-2.1-1.4-2.5-1.4s-2.1-0.2-5.1,2.5s-4.2,3.9-4.2,3.9"/>
<path fill="none" d="M895,421.6c0,0,2.6-1.4,4.9,0.2s4.1,3.6,5.6,3.6s0.8-0.2,0.8-0.2s-2.4-0.1-3.8,0.1s-2.9,1.1-2.9,1.1"/>
<path fill="none" d="M878.8,428.5c0,0-0.8,2.5,1.2,3.6s5,2.1,7.6,2.2s5.1,1.8,5.6,4.2s0,4.2-1.1,6s-2.6,3.4-3.9,3.5
	s-2.4,0.2-3.2,0.1s-2.1-0.4-2.6,0.5s-1.9,2.2-2.9,2.5"/>
<path fill="none" d="M876.3,456.8c-2,0.7-2.7,5-3.5,7.5s-3.8,2.7-3.8,2.7s0.3,7,0,9.3s-2.8,7.7-3.7,9.7s-1,3.5-1,3.5"/>
<path fill="none" d="M863.5,483.2c0.5,0.2,1.2,4.8,0.7,7.5s-1.3,7.8-2.2,10.3s-2.3,4-2.8,6s-0.8,0.3-0.8,0.3"/>
<path fill="none" d="M791.8,528.8c0,0-0.7-6.7-0.3-11.3s1-7.7,2.3-9.7s0.7-8,1.3-10.3c0,0,2-4.3,2.3-6.3s1.7-3.7,6-5.3
	s8.7-0.7,11.3-1.7s3.7-2.7,6-5.3s5-2,8.7-2s6.7,0.3,11,2.3s7.3,3,10.3,1.3c3-1.7,0.7-5-1-9s-5.7-6.3-10-9.3s-14.7-2-20-1.3
	s-10.3,4.3-16.3,10.7c-6,6.3-4,9.7-5.3,10c-1.3,0.3-2,3.7-3,7.3s-3.7,4.3-3.7,4.3c-2,2-4,2.3-6,3.3s-4.7,4-5.3,8.7
	c-0.7,4.7,1.7,14.7,2,18.3c0.3,3.7,4,7.3,6.3,10.7s11.3,9.3,16,8.7s11-3.3,11-3.3s-6.3,3.3-10,1.3s-10-5.3-12-9s-4.3-7-4.3-7"/>
<path fill="none" d="M905.5,442.4c0,0,4.4-2.2,6.1-2.8s2.2-0.9,3.4-0.2s1.1,0.6,1.1,0.6"/>
<path fill="none" d="M918.9,441.1c0,0-0.5-0.2-1.9-0.8s-1.2,0.2-3.5,1.2s-8.1,4-8.1,4"/>
<path fill="none" d="M927.8,460.2c0,0,1.1-0.5,2.9-4.8s0.9-7.4-1.2-11.1s-5.2-3.4-7.9-2.8s-4,1.8-6.2,3.4s-5,6.2-5,6.2
	s-0.1,2.6-1.4,4.1s-4.8,3.9-7.6,3.5s-5.5-2.2-5.4-4.6s0.5-5.4,1.5-6.1"/>
<path fill="none" d="M921.5,441.6c0,0-1.1-1.8-5.8,0.9s-5.4,3.2-5.4,3.2"/>
<path fill="none" d="M918.1,443.1c0,0,0.2,2.1-0.2,3.5s-1,3.8-0.4,5s1,2.5,1,2.5"/>
<path fill="none" d="M920,448.9c0,0.4-0.6,2.9-0.8,4.5s0.1,1.5,0.8,3s1.8,0.5,3,3.1s1.8,3.9,1.2,7.1s-1.2,5-1.2,5"/>
<path fill="none" d="M907,466c0,0,1,0.8,2,1.9s2.9,3.2,6.2,1.5s4.9-3.4,5.5-5.4s1-4.4,0.2-5.9s-1.6-2.5-1.6-2.5"/>
<path fill="none" d="M912.1,470.2c0,0-3.2,1.8-4.5,3.4s-5.5,6.1-5.4,11.4s-0.2,9.1,1.2,11.1s1.6,3,3.2,2.4s1.4,0.2,1.8-1.6
	s-0.1-6.5,0.2-9.6s0.4-5.2,1.8-6.9s2.8-2.6,3.2-4.2s-0.1-2.8-1.1-2.2"/>
<path fill="none" d="M891.9,496.9c0,0-5.9-3-5.6-12.4s2.1-16,4.8-19.1s3.6-4.2,3.6-4.2"/>
<path fill="none" d="M878.5,454.1c0,0,2.8,4.5,5,6.2s4.9,2.6,7.4,1.6s3.1-3.5,4-4.2s2.4-0.5,3.4,0"/>
<path fill="none" d="M892.2,461c0,0,2.2,0.6,3.6,0.2c0,0,4.2-0.5,5.3,1.2c1.2,1.7,5,4.3,8,3c3-1.3,4.8-3.2,5.2-6.2"/>
<path fill="none" d="M889.3,462.6c0,0-1.2,3.2-2.3,4.7c-1.2,1.5-1.8,3.2-1.8,3.2"/>
<path fill="none" d="M884.8,461.6c0,0-0.3,0.8-1,2.2c-0.7,1.3-2.5,2.5-3.5,3.8c-1,1.3-1.8,2.5-1.7,4c0.2,1.5-1.2,11.2-1.3,13.8
	c-0.2,2.7-1,6.2-0.7,8.7c0.3,2.5,0.7,5.3,0.7,5.3"/>
<path fill="none" d="M875.8,511.4c0,0,1.3-4.3,0-7c-1.3-2.7-2.5-5.3-1.2-7.8s2-3.2,2-3.2"/>
<path fill="none" d="M853.5,505.5c0,0-3.5-5.2-1.5-8.2s3.2-4.2,3.8-7s0.5-2.8,0.5-2.8"/>
<path fill="none" d="M861,503.2c0,0-0.5-3-2-6.5s-3.2-4.8-2.8-8.2s1-4.5,0.2-7"/>
<path fill="none" d="M848.5,504c0,0,3.5,3,4.8,5.8s1.5,4.2,3,5s2.2,2.7,2.1,3.8c0,0,2.5-3,4-4.2s3.3-4.7,3.7-6.8
	c0.3-2.2,0.5-6.5,0.2-8.7c-0.3-2.2-1-6.8-0.2-8.5c0.8-1.7,2-2.8,3.3-5.2s2-3.7,2.5-7.2s0.7-5.2,0.7-5.2l1.5-2.3"/>
<path fill="none" d="M841.2,484.5c0,0-5.5-1.5-6.5-3.8s0.2-3.5,0.2-3.5"/>
<path fill="none" d="M840.5,499.5c0,0-6.2-2.8-7.8-7.8s-2.5-10.5,0-14.5"/>
<path fill="none" d="M927.2,468.8c0,0,3-2.3,3.7-3.8s1.5-7.2,0.3-10.2"/>
<path fill="none" d="M923.5,482.4c0,0,1.3-2.5,2.7-5.2c1.3-2.7,1.3-6.8,0.8-10.8s-1.3-5.5-1.5-7.7s0.2-4.3-1.5-6.8"/>
<path fill="none" d="M926.2,477.2c0,0,2.7,5,3,7.3c0.3,2.3,0.3,5.2-0.2,7.5c-0.5,2.3-2.2,3-2.8,4.2c-0.7,1.2-0.7,1.2-0.7,1.2"/>
<path fill="none" d="M889.7,498.1c0,0,2,0.5,3-0.8s3.7-2,5.8-1.2c2.2,0.8,4,3.3,6.5,2.8s5.7-2.2,7.8-1.7s3,3,4.5,3s2.3,1.3,1.7,2.3
	s-1,3.7,0.2,4c1.2,0.3,2.8,1.5,2.8,2.3c0,0.8,0.2,4.2,1.5,3.8s1.7-1.3,3.3-0.5s2,2.3,1,3.2s-3.3,1.5-4.2,0.5s-2.2-1.5-2.7-1
	s-1-0.3-2.2-0.5s-2-0.8-3.3,1s-1.7,2.3-3,2.8"/>
<path fill="none" d="M924,508.2c0,0,2.2,1.8,4.8,0.7c2.7-1.2,3.5-1.7,3.5-4.5c0-2.8-2-6.3-2-6.3s-0.3-0.8-1.7-0.5
	c-1.3,0.3-2.8,1-2.8,1"/>
<path fill="none" d="M884,506.9c0,0-0.8,0-2.2-0.5s-2-0.2-3.2,1c-1.2,1.2-2.3,3.2-3.7,5.8s-2,3.3-2,3.3s-2.3,2-4,2.5
	s-4.2,1.2-4.8-0.3c-0.7-1.5-2.2-3.2-0.7-5.3"/>
<path fill="none" d="M858.3,518.6c0,0,0,4.2,0,6.7s3,9.3,4.7,11.8s6,5.7,10.8,5.7s6.3,1.3,10.5-4.2"/>
<path fill="none" d="M881.3,542.2c0,0,5.8,4.2,8.3,6.3s6.5,6.2,11.3,6.5s9-1,11.7-3"/>
<path fill="none" d="M902,555.1c0,0,1.5,1.7,3.8,2s6.3,0.3,8.2,1s5,0.7,7.7-0.5s4.5-3.3,3.7-6.2"/>
<path fill="none" d="M906.7,557.2c0,0,3,4.8,9.7,4.8s7.5-1,7.5-1"/>
<path fill="none" d="M911.2,561.4c0,0,0.3,2,1.7,2.3s2.8,1.8,3.7,2.7s1.2,1.8,4.5,1.7s6.8-3.3,8.3-5.5s2.5-5.2,2.7-8s-0.5-4-1.8-4.8
	s-1.5-1.8-2.3-2.8"/>
<path fill="none" d="M914.5,539.8c0,0,3.2-1.2,5.8,1.5s5.5,5.5,8.5,4.2s6.2-5.2,6.2-5.2l-1-3.2c0,0-3,2.2-5,1.5s-4.2-1-4.2-1"/>
<path fill="none" d="M934,537c0,0-0.2-1.2-2.8-3s-2.5-1.5-5.5-1.2s-5,1-5,1"/>
<path fill="none" d="M904.5,536.8c0.8,0.2,3,2.5,5.8,1.5s5.2-4.2,7.2-4s4-1.5,5.5-3.5s2.5-3.8,4.8-3.5"/>
<path fill="none" d="M927.8,515.4c0,0,2.9-0.4,3.4,1.8s2,3.2,0.8,4.8s-2.2,3.2-1.5,4.5s-1.5,3.5-0.8,5s3.8,4.5,3.8,4.5"/>
<path fill="none" d="M931.5,551c0,0,1,0.2,2.8-3.5s2.5-7,2.5-7"/>
<path fill="none" d="M935,540.2c0,0,3-0.2,4.8,0s4-3,3-4.8s-2.2-3.5-2.2-5.8s-0.2-2.5,0-5.2s-3-2.5-3.8-3.2s0.2-6.2-0.8-8.8
	s-4-5-5.8-4"/>
<path fill="none" d="M808,553c0,0,2.8,4.5,3.5,6s3.8,2.5,7,2s5.2-1.8,7-5s3.8-4.5,4.8-7.2s0.2-4.2,0.2-4.2"/>
<path fill="none" d="M797.8,541c0,0-0.2,5,5.2,7c0,0,3.5,0.8,7.5,2.5s6.2,4.2,10.2,1.8s10.2-7,12.5-9.8s4.2-6.5,4.2-9.8s0-3.2,0-3.2
	"/>
<path fill="none" d="M805.2,548.2c0,0,4.2-0.2,8.2-0.2s6-0.2,11-4.2s7.5-6,9.2-9.5s4.5-8,7-9.5s5.2-3,8.5-6.2s5-3,5.2-5"/>
<path fill="none" d="M801.5,542.5c0.8,0.2,1.2,2.8,6.2,2.5s9.8-1.5,12.2-4.8s3.8-4,5.5-4.5s2-5,3-7.2s2-4,4.8-5.8s5.5-4.2,10.5-6
	s6.8-3.5,8.8-6c0,0-1.2-0.5-3-2s-3.8-2.8-5.8-5s-4.2-7.8-4-12.5s3.5-10.2,3.5-10.2"/>
<path fill="none" d="M815.5,539.4c0,0,3.5-1.4,5.8-5.9s2.5-6.5,5.2-9s6.5-5,8.5-7.2s3.8-4,4.8-3.5"/>
<path fill="none" d="M823.5,527.5c0,0-2.2-1.8-3.5-3s-4-3-3.8-5.2s-0.5-4.5-1.5-5.2s-2.8-5.2-0.2-9s6-5.2,9-5.2s7.2,1.8,9.2,1.8
	l3,0.8"/>
<path fill="none" d="M825.8,511.8c0,0,1.8-5.2,4.8-7s4.5-3.5,7-3s6.2,2,6.2,2"/>
<path fill="none" d="M827,516.5c0,0,1.8-5,4-7.2s4.2-4.2,4.2-4.2"/>
<path fill="none" d="M822.8,510.8c0,0,0.5-2.5,2.2-4.2s2.8-3,2.8-3"/>
<path fill="none" d="M829.5,476.8c0,0-1.2,4.2-1.7,6.3c-0.5,2.2-0.8,3.7-0.8,3.7"/>
<path fill="none" d="M825.7,476.9c0,0-1,2.8-1.5,4.3s-1.3,4.5-1.3,4.5"/>
<path fill="none" d="M823.5,476.8c0,0-2.7,4.7-3,6s-1.5,3.5-1.5,3.5"/>
<path fill="none" d="M918.5,501c0,0-0.2-4.8,2-5.8s2.2,1.8,3.2,1s3.2-0.8,3.2-0.8"/>
<g>
	<path fill="none" d="M600.3,536.3c0,0,1.7,9.3,1.3,13.2c-0.3,3.8-5.3,28.2-17.7,35.3c0,0,8.4-9.9,10-14.7s2.9-15.4,2.6-22.9
		s-0.2-8.8-0.2-8.8"/>
	<path fill="none" d="M584,584.8c0,0,11.9-9.8,14.2-13.3s3.6-6,3.6-6"/>
	<path fill="none" d="M598.7,563.7c0,0,2.6,1.8,4.3,2.2c1.8,0.4,4.8,0,10.9,5.7c6.1,5.7,24.6,18.9,24.6,18.9s-16.4-14.9-18.7-16.9
		s-12-11.8-14.3-13.6c-2.3-1.8-5.2-3.7-5.2-3.7"/>
	<path fill="none" d="M599.4,559.7c0,0,8.1,5.2,15,12.4"/>
	<path fill="none" d="M601.3,553.5c0,0,14.4,13.5,18.9,17.8s16.6,17.2,18.1,18.9"/>
	<path fill="none" d="M636.8,588.6c0,0-15.4-19.7-18-22c-2.6-2.3-17.4-15.5-17.4-15.5"/>
	<path fill="none" d="M630.6,580.7c0,0-11.1-16.3-14.8-19.9c-3.8-3.7-13.9-14.2-13.9-14.2"/>
	<path fill="none" d="M631,580.9c0,0-17.8-25.4-20.7-28.5s-8.8-10.4-9.1-11"/>
	<path fill="none" d="M611.5,553.7c0,0,5.2,1.5,10.1,3.4s14.9,3.9,17.2,4s6.9-0.8,6.9-0.8s-23.8,7.5-24.2,7.5s0.5,0,0.5,0"/>
	<path fill="none" d="M645.3,560.4c0,0-23.1,4.2-25.5,4.1"/>
	<path fill="none" d="M644,560.8c0,0-21,2.2-29.5-3.2"/>
	<line fill="none" x1="613.3" y1="553.7" x2="601.3" y2="536.2"/>
	<path fill="none" d="M614.4,554c0,0-8.3-17-9.8-20c-0.1-0.2-0.2-0.3-0.2-0.4"/>
	<path fill="none" d="M618.1,555.2c0,0.2-3-3.5-3-4.8s0.1-7.8,0-11.2s-1-8.8-1.5-9.4"/>
	<path fill="none" d="M604.9,528.3c0,0,0.9-1.8,2.2-0.6s4.4,1.5,5.4,0.9s2.1-1.4,3.9-3.9s5.4-5.6,5.2-7.8s0.2-3.6,0.9-5.1
		c0.6-1.5-1.1-3.8-2.2-5.5s-2.6-4.1-4.4-3.5s-3.8,3.4-5.6,3.6s-3.6,1.4-5.4-0.2s-3-1.5-3.9-1.2s-2,2.4-1,2.6s3,1.1,4.4,2.8
		s5.2,5,4.2,5.9s-2.6,1.5-3,2.4s-3.5,1.5-4,4.2l0.5,2.4l2.5,2.6c0,0,0.4,4.2,0,5.2s-1.4,1-2.2,0.4s-1,1.8-1.6,2.8s-2.5,2.5-3.8,2.2
		s-1.8-0.1-2.9,2.2s-4.9,6-8.2,7.2s-4.4-8-4.4-8"/>
	<path fill="none" d="M589.4,529.4c0,0,1.6,3.8,3.1,2.9s5.2-4.9,6.8-6.5s3-3.9,3.1-5.9s-1.8-3.9-3-5.4s-2.9-3.5-3.6-3.4"/>
	<path fill="none" d="M602.5,525.8c0,0-1.1,2.8-2.4,4s-2.9,3-3.9,4.6s-2.2,1.6-3.2,1.4s-2-0.4-3,0.8s-3.2,1.4-3.8,0.6"/>
	<path fill="none" d="M592.6,543.4c0,0,0.4,4.4,4,4.6"/>
	<path fill="none" d="M596.6,553.4c0,0-3.1,1.8-5.1,1.5s-5.5-2-6.9-3.4s-3.4-4.4-4.4-4.6s-6.1-2.1-5.4-3.9"/>
	<path fill="none" d="M595.6,562.7c0,0-2.6-1.9-5.5-4.1s-5.6-4.6-7.2-8.4"/>
	<path fill="none" d="M595.8,559c0,0-3-0.4-4.2-2.3"/>
	<path fill="none" d="M558.2,537.7c0,0,1.7,1,2,1.8c0.3,0.8,3.8,0.2,3.8,0.2s2.2,2.3,3.2,1.5c1-0.8,3.5-0.5,4,0s3,2.7,4.5,1.8
		c1.5-0.8,4-2.8,4.8-3c0.8-0.2,2-1.7,1.2-2.5c-0.8-0.8-2.5-1.5-2.5-1.5"/>
	<path fill="none" d="M564,539.7c0,0,0,4.2-0.7,5.3c-0.7,1.2-4.3,5.2-7,5.8c-2.7,0.7-5.8,1.5-8.8-0.3c-3-1.8-7.5-3.8-9-4.2
		c-1.5-0.3-9.2-3-11-4.3c-1.8-1.3-4.2-3-5-4c-0.8-1-2.2,0-3.5,0.5c-1.3,0.5-8.3,2.3-10.7,1c-2.3-1.3-6.8-3.7-9.8-6.8
		s-7.2-6.7-7.2-6.7l-3-3.2c0,0,2.7,0.3,4.5,0c1.8-0.3,8.5,0.3,9,1.2c0.5,0.8,5.3,0.2,6.5,0.8c1.2,0.7,3.2,2.5,4,3.7
		c0.8,1.2,1.7,1.3,1.7,1.3"/>
	<path fill="none" d="M496.8,527.5c0,0,5.2,4.7,7.5,5.7c2.3,1,2.3,1,2.3,1"/>
	<path fill="none" d="M498.7,527.3c0,0,3.8,3,4.8,3.3"/>
	<path fill="none" d="M490,522.7c0,0,3.2,2.7,5.2,2.7s5.3-0.2,6.7-1.3"/>
	<path fill="none" d="M514.7,532c0,0-1.7-3-1-4.3c0.7-1.3,1.8-4.2,1.2-5.5c-0.7-1.3-2.5-5.8-2.5-5.8"/>
	<path fill="none" d="M513.8,525.5c0,0-1-2.3-1.7-4.2c-0.7-1.8-1-4.7,1.8-6.7c2.8-2,5-3.3,4.3-4.8c-0.7-1.5-0.8-2.2-0.8-2.2"/>
	<path fill="none" d="M508.3,524.8c0,0-1.3-4.7,0.3-7.8c0,0-0.2-3.5-1-4.2s-2.7-4.2-2.3-6.3c0.3-2.2,2.3-4.3,3.2-5.3"/>
	<path fill="none" d="M507.7,512.8c0,0,0.7-2.3,3.8-3.3c3.2-1,5-0.8,5.8-2.5"/>
	<path fill="none" d="M506.2,510.7c0,0,1.8-3.5,5-3.5c3.2,0,5.7-0.5,6.3-2c0.7-1.5,1.3-3.5,1.3-3.5"/>
	<path fill="none" d="M505.3,507.7c0,0,2.5-2.7,5-2.7c2.5,0,7.7-1.5,8.5-2.7"/>
	<path fill="none" d="M505.8,504.8c0,0,4.3-2.3,6-2.5c1.7-0.2,3.7-1.3,3.7-1.3"/>
	<path fill="none" d="M490,445.3c0,0,0.3,1.2,2.2,3.2s7.8,4.5,10.7,5.5c2.8,1,5.7,2,10.8,4.2c5.2,2.2,8.8,4.8,13.7,7.8
		c4.8,3,7.5,6.2,9.8,10.7c2.3,4.5,2.8,12.3,1.3,16.2c-1.5,3.8-3.8,5.5-6.2,6.7c-2.3,1.2-7.7,1.8-11,2.3c-3.3,0.5-5.8-0.3-8.3-0.8
		c-2.5-0.5-5.7-0.2-7-1.2c-1.3-1-4.5-2.2-4.5-2.2s-1.7,0.2-3.2,1.7s-4,3.2-5.3,4.8c-1.3,1.7-4.3,2.8-7.8,3.5s-8.8,0.2-8.8,0.2"/>
	<path fill="none" d="M513.3,515.4c0,0,3.9-0.2,6.8,1.2s6.4,3.5,6.9,4.4"/>
	<path fill="none" d="M513.3,517.9c0,0,3.4-1.5,5.8-0.4s6.8,4,7.1,4.2"/>
	<path fill="none" d="M514.4,519.9c0,0,2-1.8,4.1-0.5s7.8,3,9.2,4.2s4.5,4.1,5.2,4.6s-0.1,1.6-0.6,2.1s-3.1,2-4.5,2.4
		s-3.2,0.5-4.4-0.9s-2.6-2.2-4.1-3.1s-5.2-1.9-5.7-1.1"/>
	<path fill="none" d="M528.1,529.4c0,0-4.5-1-6.2-2.1s-6.5-2.9-7.4-2"/>
	<path fill="none" d="M529.1,528.8c0,0-3.1-3-5.6-3.9s-6.9-2.9-8.2-1.9"/>
	<path fill="none" d="M514.3,530.8c0,0,2-1.8,3.6-0.4s4.6,2.4,5.6,1.5"/>
	<path fill="none" d="M526.8,523.2c0,0,0.1-2.8,1.8-2.6s3.4-1,5.2,0.5s3.8,4.2,5.5,5.1"/>
	<path fill="none" d="M557,509c1.8,0,4.8,5.7,5.7,7.3c0.8,1.7,4.2,6,6.3,8.5c2.2,2.5,9.8,3.8,9.8,3.8s-2.5,0.5-6.7,0.5
		c-4.2,0-11-1.3-13.2-2.8c-2.2-1.5-5.7-3.7-7.5-5.2c-1.8-1.5-4.8-1-4.8-1s-2.2-1-3.4-2.9s-2.9-3.9-4.6-4s-3.2,0.4-4-1
		c0,0,1,1.2,0.9,2.6s0.8,4,1.9,6.1s6,4.9,6,4.9s3.5,0.2,5.2,1.5s3.2,3.5,5.2,4s4.2-1,6.2,0.2"/>
	<path fill="none" d="M536.3,506.5"/>
	<path fill="none" d="M535.1,514.7c0,0-0.9,2.6-2.8,2.9s-4.1-1.4-2.8-3.1s2-3,1.8-4.9s0-2.8,0-2.8"/>
	<path fill="none" d="M530,504.3c0,0-2-1.2-1-3.5"/>
	<path fill="none" d="M533.3,498.9c0,0-0.2,2.8,0.6,2.6c0,0-0.5,3.1-2,4.4s-2.6,0.5-2.2-0.5s2.1-3.2,2.2-4.1s0-1.8,0-1.8"/>
	<path fill="none" d="M544.4,485.4c1.1,0.2,1.1,3.8,1,5.8s-0.9,3.5-2.4,4.6s-1.8,1.8-2,4s-1.9,3.4-2.8,4.6s-1.9,0-2-1"/>
	<path fill="none" d="M538.9,481.8c0,0,2.2-3.5,4.2-3.4s3.4-1.6,5.4-3.8s4.4-4.8,5.2-6.4s2.6-4.4,2.6-4.4"/>
	<path fill="none" d="M532.4,469.4c0,0,3.2-2.4,3.2-3.6S535,464,535,464"/>
	<path fill="none" d="M561.4,462.3c0,0,1.5-0.2,4.2-1.9s5.2-2.8,6.1-4.5s2.5-4.1,5-4.5s7-2.1,8-3.8s1.9-4.9,1.1-6.4
		s-2.2-3.1-2.2-3.1s-4.5-3.5-6-3.5s-4.5-0.4-6.4-1.4s-5.8-1.2-8.2-0.6s-9,2.1-11,2.4s-6.5,1.4-6.9,1.4s-16.1,5.8-16.1,5.8
		s-7.5,2.3-9.8,2.8c-2.3,0.5-7.3,2.2-10,2.8c-2.7,0.7-4.2-0.2-6.7-0.2c0,0-2.7,0.5-3.8-0.7c-1.2-1.2-3.8-2.7-2.3-4.7s2.8-3,4.5-2.8
		c1.7,0.2,3.7-0.8,4.5-1.5"/>
	<path fill="none" d="M571,457.2c0,0,4.7,2.3,6,4.5c1.3,2.2,5.3,7.3,5.5,11.5c0.2,4.2-0.5,4.8-2.2,3.7c-1.7-1.2-4.2-3.7-6-6.8
		c-1.8-3.2-6.7-8-9.2-9"/>
	<path fill="none" d="M584.3,470.8c0,0,1.3,2.7,3.8,3.3c2.5,0.7,4.3,1.2,5.5,2c1.2,0.8,5,0,7.8-1.7c2.8-1.7,7.3-1.5,10.3-0.7
		c3,0.8,9.3-0.2,11-1c1.7-0.8,5.2-3.5,7-4.2c1.8-0.7,5-0.2,6.2,1.7c1.2,1.8,7.5,6.8,9.8,15.5c2.3,8.7,2.5,14.8,1,19.5
		c-1.5,4.7-5,11.5-6.5,11.8c-1.5,0.3-3.8-2.5-6.3-3.7s-4.2-1.8-5.7-1.3c-1.5,0.5-3.7,0.8-4.2,1.8s-1.8,3.2-2.5,2.9"/>
	<path fill="none" d="M628.3,512.2c0,0,2.8-2.3,3.3-4.3s1.7-6.7,0.5-9.3c-1.2-2.7-3.3-5.5-3.5-7.8c-0.2-2.3,0.2-3.8,0.8-4.3
		c0.7-0.5,0-2-1.8-3.7c-1.8-1.7-9.5-5.2-12.7-6.7c-3.2-1.5-7-2.2-10-1.5s-5,2-7,3s-5.2,2-6.3,2.3c-1.2,0.3-2.2,1-3.3,2.3
		c-1.2,1.3-3.5,3-5.7,4.3c-2.2,1.3-3.5,2.5-4.3,2.3"/>
	<path fill="none" d="M589.8,483c0,0,2.3,3.5,3.5,5c1.2,1.5,1.8,6,3.5,7.3c1.7,1.3,5.5,4.8,8,5.5c2.5,0.7,4.8,2.2,6-0.2
		c1.2-2.3,0.8-7.5-2-10.5c-2.8-3-1.3-4.7-4.2-6.3c-2.8-1.7-4.7-3-7.7-2.7c-3,0.3-4.5,0.8-4.5,0.8"/>
	<path fill="none" d="M606.5,486.2c0,0,2.5,2.5,3.8,3s4,2.7,5.2,4.8c1.2,2.2,2.8,6.5,2.2,9.5"/>
	<path fill="none" d="M613.5,490.7c0,0,2.8,1.8,4.5,3.3c1.7,1.5,2.5,2.7,2.5,6.2s-0.5,5.3-0.5,5.3"/>
	<path fill="none" d="M620,496.2c0,0,2,0,2.7,3c0.7,3,1,10.8-0.5,10.3"/>
	<path fill="none" d="M625.5,512.2c0,0-0.5-1.7,0.8-4c1.3-2.3,1.7-4.7,0.8-6.5c-0.8-1.8-3.2-5.7-4.5-3.8"/>
	<path fill="none" d="M616,492.5c0,0,1.8-0.2,1.8-1.8c0-1.7-1.8-6.3,0-7c1.8-0.7,2-1.7,0.8-3.2c-1.2-1.5-7.3-4.3-9.8-4.8"/>
	<path fill="none" d="M623.8,497.2c0,0-1.2-13.2-6-13.5"/>
	<path fill="none" d="M627.5,502.5c0,0,2.2-7.3,0.2-9.3s-3.2-5.3-1.8-6.3s3-3.3,1.8-4.2"/>
	<path fill="none" d="M560.3,464.8c0,0,1.2,0.7,2.7,1.7c1.7,1.1,3.7,2.6,4.8,3.9c2.2,2.5,6,5.8,6.5,4.8s1.2-3.7,1.2-3.7"/>
	<path fill="none" d="M557.5,470.7c0,0,2.5,0.5,3.2,2.2c0.7,1.7,1.7,1.2,2.2,0c0.5-1.2,0.2-6.4,0.2-6.4"/>
	<path fill="none" d="M561.5,474.3c0,0,0.3,7,1.8,7.7s4.7,2,6,4.2c1.3,2.2,3.2,3,3.3,1.8c0.2-1.2-0.8-7.2-2.7-9.8
		c-1.8-2.7-3.3-4.8-3.7-4.3"/>
	<path fill="none" d="M572.8,485.2c0,0,1.3,0,2.3-0.8c1-0.8,1-2.8,0.5-4.5c-0.5-1.7-1.3-4.7-1.3-4.7"/>
	<path fill="none" d="M576.5,483.7c0,0,2.7,4,4.5,3.5"/>
	<path fill="none" d="M553.3,474.7c0,0,1.5,3.7,1.7,5.2c0.2,1.5,0.7,4,2.5,2.2c1.8-1.8,3.7-3.7,4-5.2"/>
	<path fill="none" d="M550.4,478c0,0,2.3,2,2.5,3.6c0.2,1.7,1.8,3.2,3.5,0.8"/>
	<path fill="none" d="M548,480.5c0,0,1.5,3,2.5,2.5s2.3-1.3,2.3-1.3"/>
	<path fill="none" d="M545.3,482.3c0,0,1.8,1.7,3.7,0.3"/>
	<path fill="none" d="M542.3,484c0,0,2.2,2.5,5-0.7"/>
	<path fill="none" d="M555.7,484.5c0,0.5-1.7,3-2.7,4.7c-1,1.7-1.3,3.3-2.2,4.2c-0.8,0.8-6.7,6.8-8.8,3.7"/>
	<path fill="none" d="M555,483.8c0,0,2.2,1.5,3.3,0.8c0.6-0.3,1.8,2.2,1.7,3.3c-0.2,1.2-2.8,2.3-4.8,3.3s-2.7,2.7-3.3,4.8
		c-0.7,2.2-4.3,4.2-5.8,5.7s-5-2.8-5-2.8"/>
	<path fill="none" d="M561,485.7c0.2,0.8,1.3,2.2,2.5,0.8c1.2-1.3,1.8-2.8,1.2-3.5"/>
	<path fill="none" d="M536.2,502.8c0,0-1.5-2.2-0.3-5.3"/>
	<path fill="none" d="M552.9,464.4c0,0-2.8,1.7-2.8,3.4"/>
	<path fill="none" d="M546.8,465.7c0,0-1.8,7.5,0.5,9.2"/>
	<path fill="none" d="M576.3,480.8c0,0,2.5,0.2,3.5,1.5c1,1.3,3.3,2.3,4.5,0.7c1.2-1.7,1.2-8.8-0.5-10.5"/>
	<path fill="none" d="M551.8,422.2c0,0,4.2,4.8,7,6s11,2,13.8,1s4.2-1.2,4.2-1.2s-8-1.8-10-3.8s-3.2-3.2-3.2-3.2"/>
	<path fill="none" d="M544.5,427.2c0,0,9.5,3.5,12,3.8s7.5,1,7.5,1"/>
	<path fill="none" d="M553,433.9c0,0-6.2,0.8-7.2-0.8s-2.5-4.5-2.5-4.5"/>
	<path fill="none" d="M529.3,443.4c0.8,0.2,8,1.2,14.5,1.2s11.8,0.8,14,2.8s4.2,3.2,6,2.2s4.2-2,4.2-2l4.5-4"/>
	<path fill="none" d="M553.8,451.7c0,0,2.5-1.5,4.2-1.2s2.5-1.5,2.5-1.5"/>
	<path fill="none" d="M539.8,455.9c0,0,5.8-6,8-5s5,1.2,7.8,2s6.2,0.8,8,0.5"/>
	<path fill="none" d="M605.8,501.5c0,0-4.2,0.7-5.5,0.5c-1.3-0.2-3.3,0.2-4,1.2s-4,1.5-5.7,0.7c-1.7-0.8-3.7-2-6-5.3
		c-2.3-3.3-3.3-5-3.3-5"/>
	<path fill="none" d="M595.3,503.8c0,0-0.8,0.8-5.5-4.7c-4.7-5.5-6-6.7-6-6.7"/>
	<path fill="none" d="M597.5,501.8c0,0-4.3-3.5-6.3-5.5s-3.3-4.2-3.3-4.2"/>
	<path fill="none" d="M568.5,503.2c0,0,0.8,2.8,1.7,5.3c0.8,2.5-0.2,3.8-1.3,5.7c-1.2,1.8-5.3,3.7-5.3,3.7"/>
	<path fill="none" d="M564.5,510.5c0,0,3.5-5.8,5-10c1.5-4.2,2.2-6.2,1.8-8.3c-0.3-2.2-0.8-4-0.8-4s-2.9,5.7-4.9,7.2
		c-0.4,0.3-1.4,1.8-3.1,2.8s-1.8,3.1-2.6,3.5s-0.9,5.1-2,6.4s-4,1.6-4.8,0.6s-3.4-1.5-4.6-1.4s-3.4,1.2-4.9,2.1s-3.4-0.6-4.8-2
		s-2.6-0.9-3.9,0.9s-0.2,4-0.2,4"/>
	<path fill="none" d="M562.3,506.3c0,0,2.2-4.2,4.2-7.3c2-3.2,2.8-5.2,3-6.8c0.2-1.7,1-4,1-4"/>
	<path fill="none" d="M515.5,458.8c0,0-11,1.8-13.2,4.3c-2.2,2.5-3.7,3.7-5.3,4.8c-1.7,1.2-4.2,3.5-7.3,4.8c0,0-9.7,2.8-13.8,3.5
		c-4.2,0.7-10,0.5-13.3-0.5c-3.3-1-7.3-3.8-7.3-3.8"/>
	<path fill="none" d="M519,460.7c0,0-2,3.5-4.2,4.8c-2.2,1.3-4,1.7-4,1.7"/>
	<path fill="none" d="M517.5,462.8c0,0-8.3-0.5-10.5,1.5c-2.2,2-5,4.5-6,5.2c-1,0.7-4.7,2.3-4.8,3.5"/>
	<path fill="none" d="M526.2,472.2c0,0-5.7,2.3-9.5,2.8c-3.8,0.5-9.7,1.3-13.3,0.5c-3.7-0.8-10.5-3.7-13.7-2.7"/>
	<path fill="none" d="M448.3,456.8c0,0,0.5,3,1.5,7s0.5,5.8,2.7,9.7c2.2,3.8,2.8,8.2,4,14.3c1.2,6.2,1.2,6.8,3.2,8.8
		s9.2,8.5,11.8,9.7c2.7,1.2,6.3,6,7.7,6.5c1.3,0.5,2.2,1.7-0.8-2.7c-3-4.3-9.2-13.5-13.7-19.8c-4.5-6.3-9.2-16.2-10.8-21.3
		c-1.7-5.2-3.3-22.5-3.3-22.5s-0.7-11.2-0.8-14c-0.2-2.8-2.2-3-2.3-1.3C447.2,432.8,444.2,440,448.3,456.8z"/>
	<path fill="none" d="M450.3,470.5c0,0-3.5-1.7-7.7-3.7c-4.2-2-8.3-5.2-10.8-6.5c-2.5-1.3-3.5-2.7-4.7-4c-1.2-1.3-1-0.7,0,2.2
		c1,2.8,5.2,7.5,7.2,7.3c2-0.2,3.5,0,4.8,0.8c1.3,0.8,5.7,4.7,7.5,5.7c1.8,1,5.3,1.7,5.8,1.2"/>
	<path fill="none" d="M456.5,489.7c0,0-2.2-1.3-2.8-1c-0.7,0.3-2.5-1-3.5-1.3c-1-0.3-2.2,0.3-3,0.8s-6.5-6.3-10.3-9.8
		c-3.8-3.5-9-6-12.5-14.3c-3.5-8.3-4.2-11.3-4.3-15c-0.2-3.7,1-5.2,2.8-5.7c1.8-0.5,3.2-2.8,3.8-3.5c0.7-0.7,4-2.2,5.7-0.2
		c1.7,2,8.5,9.5,8.3,10.5s-2.5,2-4.2,1.2c-1.7-0.8-5-3.8-5-3.8"/>
	<path fill="none" d="M435.2,451c0,0-0.5,2.3-2.5,2.5c-2,0.2-4-1-5.3-2.2c-1.3-1.2-2.3-3.8-2.3-3.8"/>
	<path fill="none" d="M525,434.4c0,0,4.6-2.9,5.9-3.6s3.6-1.5,4.8-0.5s5.4,0.5,6-1.1s4.9-4.9,5.9-5s3-1.8,5.1-4.4s5.8-5.5,5.9-6
		s-4.8-3.4-6.8-4.2s-5-1.9-6.9-1.9s-4,0.8-7-0.4s-5.8-1.6-5.8-1.6"/>
	<path fill="none" d="M530.9,419.3c0,0,3.4-3.4,5.2-3.5s7.2-0.8,8.8-1.4s3.1-2.1,4.2-1.8s5.8-0.5,6-1"/>
	<path fill="none" d="M551.5,420.7c0.1,0.4,4.1,0.8,7.5,0.1s6.4-1,9.1-2.6s6.2-3.5,7.6-3.9s3.4-1.4,3.5-2.1s-1.2-4.2-3.8-6.1
		s-5-2.4-7.8-3.5s-5.6-3.2-8-5s-4.4-2.2-6.9-2s-4.4,0.2-4.4,0.2s-6-1.8-8.7-1.6c-2.7,0.2-6.7,0-7.8,0.7c-1.2,0.7-2.2,0.7-2.2,0.7
		s-2.8,2-6.5,0.8c-3.7-1.2-8.8-1.5-11.8-1.8c-3-0.3-4.7-0.2-8.3,0.7c-3.7,0.8-5.5,1.8-7.7,4.3c-2.2,2.5-3,4.3-3,7
		c0,2.7,3.2,6.8,4.7,6.3s2.2,1.7,2.2,3.2s3.2,5.8,5.3,6.2c2.2,0.3,5.3-1.3,7.8-4c2.5-2.7,8.2-6.8,8.2-6.8l5.2-5.3"/>
	<path fill="none" d="M575.7,407.5c0,0-10.2-4.3-13.5-5.5c-3.3-1.2-8.2-2.5-12.5-3.7c-4.3-1.2-11.7-2-14.8-1.7
		c-3.2,0.3-5.7,0.7-5.7,0.7"/>
	<path fill="none" d="M518.2,399.8c0,0,4.5-0.2,7,0.2c2.5,0.3,7.8,0.5,8.8-0.2c1-0.7,2.5-0.7,2.5-0.7"/>
	<path fill="none" d="M506.8,422.7c0,0,2.7,2.2,4.2,3.5c1.5,1.3,4.3,2.3,6.2,1.7c1.8-0.7,4-1.5,5.2-3.2c1.2-1.7,2.8-3.3,2.8-3.3"/>
	<path fill="none" d="M519.3,427c0,0,3,0.3,3.8,1c0.8,0.7,2.2-0.5,3.7-2.2c1.5-1.7,3.8-3.8,4.3-10c0.5-6.2,1.8-9.2-0.3-15"/>
	<path fill="none" d="M529.8,395.5c0,0,0.5-4,3-6.7c2.5-2.7,5.3-6.5,5.8-7s1.3-2.3,1.3-2.3s-3.5-1.5-7-0.3c-3.5,1.2-6.3,3-7.8,4.7
		c-1.5,1.7-1.5,1.7-1.5,1.7"/>
	<path fill="none" d="M497.7,412.5c0,0,0.7-2.2,3.5-1.5c2.8,0.7,4.8,1.7,8.2,0.3c3.3-1.3,7-2.2,9.5-3.3c2.5-1.2,6.7-3.7,7.8-5.2
		c1.2-1.5,1.7-2.3,1.7-2.3"/>
	<path fill="none" d="M500.3,410.5c0,0,1.2-1.3,5-1.3c3.8,0,9.7-0.8,11.5-2c1.8-1.2,2.5-1.7,2.5-1.7"/>
	<path fill="none" d="M496.7,405c0,0,1-4.2,3.7-5.7c2.7-1.5,5-2.3,5-2.3"/>
	<path fill="none" d="M491.7,403.8c0,0-0.2-4.3-0.8-7.3c-0.7-3-2-7-7.5-11.5s-6.8-5-9.2-6c-2.3-1-5.5-2.8-5.5-2.8"/>
	<path fill="none" d="M494.5,393.8c0,0,2.5-1.2,1.3-4.3c-1.2-3.2-1.5-10.3-0.2-12c1.3-1.7,1.7-2.8,2.3-4.2c0.7-1.3,3.5-4,3.2-5.5
		s-2.2-6.8-3.7-7.3s-3.2-2-3.7-3.5s-4.3-7.5-5.3-7.5s-2,0.5-2,0.5"/>
	<path fill="none" d="M483.7,353.3c0,0,4.3-3.5,2.8-5.5s-5.3-8.5-9.3-10.5s-7.5-3.7-8.7-3.5"/>
	<path fill="none" d="M481.3,341.2c0,0,3.5-0.5,6.3,1s7.8,4.5,10,7s4.2,4.3,4.2,4.3"/>
	<path fill="none" d="M500.5,354.7c0,0,2.8-0.7,2.8-1.3c0-0.7,1.2-3.2,1.2-3.2s1.8,0.2,2.2,1.8c0.3,1.7,0.7,2.8,2.5,4
		c1.8,1.2,5.5,4,6.8,6.8c1.3,2.8,1.8,4.5,2.2,6.2"/>
	<path fill="none" d="M506.3,358.5c0,0,3.5,2.5,5.2,5.2c1.7,2.7,2.8,3.8,3.3,6.2"/>
	<path fill="none" d="M487.3,356c0,0-5.7,1.5-7.3,3.7c-1.7,2.2-5.3,4.5-5.5,5.3"/>
	<path fill="none" d="M468,369.7c0,0-3.3,0-4.5-1.3c-1.2-1.3-2.8-5-0.8-7.7c2-2.7,5.2-5.7,5.2-5.7l5-2.7"/>
	<path fill="none" d="M468.8,348.2c0,0,3.7-3.7,5.8-4c2.2-0.3,3.8-1,5.5,0.7c1.7,1.7,3.7,1.5,3.8,3c0.2,1.5-0.3,2.7-0.8,3"/>
	<path fill="none" d="M481.8,342.3c0,0-7.8-1-10.5,1.2c-2.7,2.2-5.5,5-5.5,5"/>
	<path fill="none" d="M461.2,366c0,0-3.7,0.3-4.7-0.7s-1.3-2.5-1.3-2.5"/>
	<path fill="none" d="M471.2,366.8"/>
	<path fill="none" d="M462.3,381.8c0,0-2-3.2-1.7-5.5c0.3-2.3,0.7-4.5,1.8-5c1.2-0.5,3.3-1.7,3.3-1.7"/>
	<path fill="none" d="M467.2,381.8c0,0-4,0-5.8,0c-1.8,0-5.7,1-7.5,2.3c-1.8,1.3-5.8,4.3-6.2,6.2c-0.3,1.8,0.3,4.8,3.3,5.3
		s4.8,1.2,5.2,2.7s1.3,4,1.3,4"/>
	<path fill="none" d="M462.3,385.3c-0.2,0.5-2.8,4.3-3.5,6.5c-0.7,2.2-1.8,3.2-1.7,6.3c0.2,3.2,0.5,4,0.2,5"/>
	<path fill="none" d="M452.7,396.3c0,0-2.3,0.5-4.3,2.8c-2,2.3-4,4.2-5.2,6.8c-1.2,2.7-3.2,7.8-3.8,12.5c-0.7,4.7-0.2,9.2,0.2,11.8
		c0.3,2.7,0.3,3.2,2.2,5.5c1.8,2.3,3,3.8,3.3,5.3c0.3,1.5,1.3,4.5,0.8,6s-1.8,3.3-3.3,2.8s-2.7-1.2-2.7-1.2"/>
	<path fill="none" d="M459,410.3c0,0-4,2.8-5.8,5.2c-1.8,2.3-2.8,2-3.3,6.5s-1,5.8-0.3,8.5c0.7,2.7,2.2,4.8,3.3,5
		c1.2,0.2,3.2,0.8,4.2-2.5c1-3.3,1.8-8.7,1.8-8.7"/>
	<path fill="none" d="M481.8,420.2c0,0-2.2-6.3-6.7-9.7c-4.5-3.3-8.5-6.3-11.5-6.2c-3,0.2-8.5,1.2-9.3,2.3c-0.8,1.2,2.3,0.5,3.7,0.7
		c1.3,0.2,2.8,0.8,2.7,2.7c-0.2,1.8-1.2,5.8-1.3,7.7c-0.2,1.8-0.8,5.5-0.5,8.3c0.3,2.8,1.7,8.2,0.8,11.2c-0.8,3-3.8,6.7-3.8,6.7"/>
	<path fill="none" d="M447.7,404.8c0,0-5.2,18.7,0.8,24.7"/>
	<path fill="none" d="M452,457.2c0,0,3.2-1.3,4-0.5c0.8,0.8,3.5,3.2,4.8,1.8c1.3-1.3,3.3-2.5,4.3-1.7c1,0.8,3.7,1,4.5-0.5
		s1.3-2.7,1.3-2.7"/>
	<path fill="none" d="M470.5,455.5c0,0,3,1.7,4.5,1.3c1.5-0.3,3.2-1.5,3.3-2.2"/>
	<path fill="none" d="M477.8,455.8c0,0,4.2,1,5.7-0.5s4-4.8,4-7c0-2.2-0.3-4.2-0.3-4.2"/>
	<path fill="none" d="M453,448.8c0,0,1.5,3.7,4.3,3.3c2.8-0.3,5.7,0,10.2-0.2c4.5-0.2,10.2-1.2,13.5-3.3c3.3-2.2,5.3-3.3,6.3-5.3
		s1.3-6.2,1.3-6.2l0.3-3.2"/>
	<path fill="none" d="M482,440c-2.5,1.8-4.7,1-7.3,1.3c-2.7,0.3-6-0.8-8-2.7c-2-1.8-6.3-5.2-6.3-5.2s4.5,0.7,7.7,0.2
		s5.8-1.2,8.3-3.2s4-3.8,4-3.8"/>
	<path fill="none" d="M527.5,484.5c0,0-5.7-5.8-7.7-6.7c-2-0.8-7.8-0.5-9.5-0.3c-1.7,0.2-7.8-0.7-11.2,0s-9,2.3-12.2,2.3
		c-3.2,0-8.7,0.7-11.8,2.2s-7.5,4.2-7.5,4.2l-1.5,1.3c0,0,7-7.5,10-9s16.2-5.8,19.3-5.2"/>
	<path fill="none" d="M452.8,462.9c0,0,6.2,4.5,9.8,6.2s9,2.8,14,1.8s9-1.8,12.5-4.5s7-4.2,8.2-4.2s5.2-3,4.8-4.8s-0.5-4-0.5-4"/>
	<path fill="none" d="M460.3,404.4c0,0,2.2-5.2,7.5-7.5s9.2-4.2,12.2-2s7.8,5.8,9.2,4.5s1.6-2.9,1.6-2.9"/>
	<path fill="none" d="M465.3,398.2c0,0-1.5-8,3.8-10.2s7.8-3.5,10.8-1"/>
	<path fill="none" d="M465.8,390.9c0,0-2.2-7.2,4-9.2s8.5-0.5,8.5-0.5"/>
	<path fill="none" d="M463.5,375c0,0,4.2-4.6,9.5-3.3s15,0,17.5-0.8s8-1.2,7-4s-7.8-4.8-13.8-3.2s-13.2,4.1-14.6,5.2
		C466.7,370.7,464.7,371.7,463.5,375c-1.2,3.3,1.7,7,1.7,7"/>
	<path fill="none" d="M493.5,355.7c0,0,3.5,0.8,5.8,1.5s6.8,1.8,7.5,4.8s0.8,6.5,0,7.5s-3.5,2.2-4.5,4.2s-1.8,2.5-1.8,5.5
		s-0.5,4.8-0.8,5.5"/>
	<path fill="none" d="M456.6,401.6c0,0-5.6,4.4-7,6.3c-1.4,1.9-3,4.5-3,4.5"/>
	<path fill="none" d="M456.4,407.7c0,0-3.8,3.4-5.2,4.9s-4,3.5-4.5,4.6"/>
	<path fill="none" d="M437.6,449.9c0,0-5-4.2-6.9-7.1"/>
	<path fill="none" d="M433,451.2c0,0-4.5-2.4-6.5-5.2s-1.4-2.4-1.4-2.4"/>
	<path fill="none" d="M463.5,461.8c0,0,3.7,3.7,7.7,4.7s6.7,1.3,10.2,0s5.8-2.3,5.8-2.3l1.8-1.3"/>
	<path fill="none" d="M475.7,464.5c0,0,6.7-1.5,8.7-2s5.3-3.2,7-5.3c1.7-2.2,2.7-3.5,2.7-3.5"/>
	<path fill="none" d="M501.5,455.3c0,0-3.5,0-5.3-0.8c-1.8-0.8-3.2-0.8-4.8-3.7"/>
	<path fill="none" d="M578,409.2c0,0-2.5,1.3-3.5,2.3s-6.5,4.7-9.5,5.5c-3,0.8-5.8,1.5-5.8,1.5s2.7-3.3,2.2-5.2
		c-0.5-1.8-0.5-1.2-4.2-3.2c-3.7-2-7.2-2.3-9.7-3.5c-2.5-1.2-4.8-0.3-7.3-2.2c-2.5-1.8-3.3-2.3-3.3-2.3s1.3-1,3.8-1.8
		c2.5-0.8,3.7-0.5,3.7-0.5"/>
	<path fill="none" d="M518.7,394.8c0,0,3.5-0.2,4.7-2.7c1.2-2.5,3.2-5,6-5.8c2.8-0.8,5.5-3.5,6.5-4.8"/>
	<path fill="none" d="M524.7,389.7c0,0-1.5-3.2-1.3-6.2c0.2-3,0.3-10.7-0.8-13.1c0,0-7-1-9.8,1.5c-2.7,2.5-6.2,5.2-7.2,8.5
		s-1.5,5-1.5,5"/>
	<path fill="none" d="M521.2,394.2c0,0-3-1.3-3.2-4.7c-0.2-3.3-0.3-7.5,0.8-10.2c1.2-2.7,0.5-3-1-3.2c-1.5-0.2-3.8-1.2-6.3,1.7
		c-2.5,2.8-4.3,5.7-5.2,7.8c-0.8,2.2-0.3,2.3-2,3.3c-1.7,1-3.5,4.5-1.8,5.5"/>
	<path fill="none" d="M487.3,359.8c0,0,3.5,1,4.7,0.5c1.2-0.5,2.3-1.2,2.2-2"/>
	<path fill="none" d="M496.8,428c0,0-1.3-1.7-2.8-1.3c-1.5,0.3-3.8-0.3-6.3-1.7c-2.5-1.3-3.7,0.2-6.8-0.2c-3.2-0.3-5.3-3-7.3-4.8
		c-2-1.8-3.2-0.7-4.7,0.3s-4.3-2.2-4.3-2.2s4,1.7,5.3,0.5c1.3-1.2,2.3-1,4.3,1s5.8,4.3,7.5,3.3s4-1.5,6.3-0.5c2.3,1,4.7,1.3,6.8,0.5
		c2.2-0.8,4-0.5,4-0.5"/>
	<path fill="none" d="M491.7,434.2c0,0,1.7,0,2.7,2.3c1,2.3,1.3,4.5,2.5,3.2c1.2-1.3,1.8-3,3.2-3.2"/>
	<path fill="none" d="M503.8,447.8c0,0,1.5-3.5,3.3-3.2c1.8,0.3,3.3,0,5-1.8c1.7-1.8,3.8-2.5,3.3-4.7c-0.5-2.2-3-5.2-3-5.2"/>
	<path fill="none" d="M521.8,447.7c0,0,1.8,5.8,3.5,6.8c1.7,1,4.8,3.3,5,5.3c0.2,2,2,2.5,3.2,3.3c0,0,2.2,1.8,4.4,1.9
		s9.2,0.5,13.8-0.6c4.2-1.1,6.2-1,8.6-1.5c0.2,0,0.3-0.1,0.5-0.1c0,0,0.2,1.4-0.5,2s-1.6,1.9-2.2,3.6s-0.9,2.5-2,3.6s-3.5,3.5-5.6,6
		s-3.9,3.5-6.5,4.6s-4,3.1-4,3.1"/>
	<path fill="none" d="M525.2,445c0,0,1.5,0.5,3.3,0.5c1.8,0,3.5,1.7,2.8,3.3c-0.7,1.7-1.8,4.5-2.3,5.3"/>
	<path fill="none" d="M539.3,458.7c0,0-1.3-1.7-3.2-2.5c-1.8-0.8-4.5-1.5-5.5-1.3"/>
	<path fill="none" d="M481,492.2c0,0,5.5,3.5,8,4.5s9-0.2,11.2-2.5s8-4,10.8-4.2c2.7-0.2,8.2,0.5,9.2,2.5s2.2,5.5,4.8,0.8
		s4-7.8,4.5-11.5s0.8-6-1.2-7"/>
	<path fill="none" d="M580.3,435.2c0,0,4.5-6.2,2.5-10.8s-5.5-10.8-7-10.1"/>
	<path fill="none" d="M582,469.4c0,0,1.5-6,3.2-7.8s1-5.5,3-6.5s5-2.2,5-4.8s-2-8-8-10.5"/>
	<path fill="none" d="M566.5,516.2c0,0,2.8,1.5,3.8,0.5s4-2.2,6.2-1.8s4.2-0.2,5.2-1.5s4-0.8,5.8-1.2c1.8-0.5,2.2-2.3,4.2-3.5
		s4.2-1,4.2-1"/>
	<path fill="none" d="M573.5,494.4c-0.2,0.8,1.8,3.5,4.5,5.2s5.2,2.5,6,6.2s1.8,6.8,3.5,6.3"/>
	<path fill="none" d="M594,513.7c0,0,2,3,1.2,6.8s-0.8,10.8-2.8,11.9s2.8,2.1,2.8,2.1"/>
	<path fill="none" d="M588.5,515.4c0,0,2.2,2,3,6s2.5,9.5,1,10.9"/>
	<path fill="none" d="M583.8,515.7c0,0,3.8,3.5,5,6.2s2.5,8.2,2.2,9.8"/>
	<path fill="none" d="M575.8,517.4c0,0,4.8,5.5,6.8,9.8c0,0-1.5-1.5-4.8-3s-6-6.8-6-6.8"/>
	<path fill="none" d="M520,489.7c0,0-5.8-3.2-9.2-5c-3.5-1.8-5-2.2-8.5-2.5c0,0,3.8-0.8,7-0.5c3.2,0.2,4.2,0.5,5.5-0.8"/>
</g>
<path fill="none" d="M763.8,210.8c0,0-18.2-13.5-23.2-16c0,0-15.8-5-19.8-7.4s-7.8-4.9-11.2-7.5s-13-12.6-15.2-14s-7.5-3.2-11.8-2
	s-8.6,3.5-11,4.1s-7.6,0.2-9.9-0.5s-7.2-0.9-9-0.9s-3.9,0-3.9,0s7.6,1,10.4,2.1s6.1,2.2,6.1,2.2"/>
<path fill="none" d="M689,163.8c0,0-5.6-2.9-10.4-4.9s-13.5-4.2-17.9-4.4s-10.9,1.1-15,2.4s-12.6,5.2-15.1,7"/>
<path fill="none" d="M630,164.2c-2.9,2.2-8,8.9-9.8,11.6s-3.6,6.2-4.4,8.9s-1.5,6.5-1.6,7.5s-0.2,5.1,0.1,7.5s-0.2,6.2-1.4,7.5
	s-1.1,1.2-1.1,1.2"/>
<path fill="none" d="M621.9,173.5c0,0,5.8-3.6,8.4-3.1s7.9,3,10.4,4.2s9.1,3.6,13,4s9.9,0.6,13.9-1.5s7.2-5.1,8.8-7.4
	s3.6-5.2,4.6-5.4"/>
<path fill="none" d="M637,172.8c0,0,4-1.5,6.4-2.2s5.9-1,8.2,0.1s4.5,3.1,7,3.2s6.1,0,6.1,0"/>
<path fill="none" d="M641.4,171.2c0,0,3.9,1.5,6,2.2s7,1.6,9,1.2s3.1-0.8,3.1-0.8"/>
<path fill="none" d="M626.7,155.9c0,0-2.7,4.2-3.8,6.7c-1.2,2.5-2.8,5.3-5.8,9.7s-5.8,12.7-6,24.3c-0.2,11.7,1.7,14.2,4.3,19
	c2.7,4.8,3.7,4.5,7.3,8.8c3.7,4.3,12,13.7,14.5,20.5c2.5,6.8,5.8,11.7,5.8,11.7c-1.7,7.5,3,11.5,3,11.5c-0.5,1.5,0.7,7.8,1.5,9.2
	s2.5,5.2,3,8.2s9.8,9.3,9.8,9.3s-0.7-3-2.5-5.7c-1.8-2.7-6.2-6.5-7.8-7.2"/>
<path fill="none" d="M643.8,320.2c0,0-5.8-1.3-5.7-18.8s1.3-37.7-2.2-44.5c-3.5-6.8-11.5-16.5-13.8-18s-8.7-2.8-9.3-5.5
	c-0.7-2.7-0.2-7-1.2-10.3c-1-3.3-4.7-10.7-6.5-14.7s-5.3-14.2-2.3-22.2s11-19.7,17.2-25c6.2-5.3,11.2-9.3,16.8-11.7
	c5.7-2.3,12-4.2,15.8-6.3s10.5-7.2,13.7-9s9.2-4.5,15.2-4.5s21,1.2,31.3,6.7s20.5,15.8,23.2,18.5c2.7,2.7,3.2,5.7,3.3,8.3
	s-1.8,12.2-1.7,15.2s5.7,11.7,8,13.5c2.3,1.8,6.3,5.2,8.3,6.8s7.2,7.2,7.7,10.3c0,0,2.3,1.2,5.7,5.3c3.3,4.2,7.2,7.8,9.3,11.8
	s7.3,14.8,8.7,20.2c1.3,5.3,1.8,11.2,1.8,16.7s0,12.2-0.8,17.3c-0.8,5.2-1.7,14.7-3.5,18.2s-1.8,3.5-1.8,3.5"/>
<path fill="none" d="M748.7,267.4c0,0,1.3-6.5,3.8-9c2.5-2.5,4.3-4.8,5.8-7.8s2.7-6.2,2.7-6.2l0.8-4.2c0,0-1,8-1.8,10.8
	c-0.8,2.8-3,7-4.5,8.2S750,264.4,748.7,267.4z"/>
<path fill="none" d="M748.8,260.8c0,0,0.8-4.8,2-6.8s3-4.7,4-7.5c1-2.8,2-8.2,2.3-12.2c0.3-4,0.2-7,0.2-7s-0.7,11.5-4.3,17.2
	C749.3,250.1,745.5,253.6,748.8,260.8z"/>
<path fill="none" d="M725.7,390.1c0,0,5.2-2.2,10.2-5.5c5-3.3,9.2-6,12.8-9.8s8-6,14.5-13.7c6.5-7.7,10.8-15,14.2-20
	s6.2-8.7,8.5-12.3s4.3-8.7,4.8-13.7s-0.3-7.5-1.8-10.3s-4.2-5.2-6-6.2"/>
<path fill="none" d="M728.7,190.4c0,0,2,3,4.2,5.3s9.2,9.3,11.2,12.5s4.3,7.3,4.7,13.8s0.7,12.2-0.2,14.5c-0.8,2.3-5.2,10.2-6,13.5
	c-0.8,3.3-1.3,7.2-0.5,9.3c0.8,2.2,1.7,9.3,1.7,11c0,1.7,1.5,9.3,1.2,13.7c-0.3,4.3-2.7,16.5-15.8,28.7s-16,13.7-16.8,16.2
	s-1.5,7.7,2,11c3.5,3.3,7.3,4.2,9.3,2.8s9.8-7.3,12.8-9s9.2-6,13-7.7c3.8-1.7,11-5.7,11-5.7s4.7-4.2,7.2-7.8
	c2.5-3.7,6.7-8.8,8.5-16.5c1.8-7.7,1.5-14.8,0.2-21.5c-1.3-6.7-3-14-0.8-17.3c2.2-3.3,3.8-5.2,4.5-7.5s1-6.7,1.2-8.3
	c0.2-1.7,0.5-3.5,1.7-2.5"/>
<path fill="none" d="M741.5,253.2c0,0-4.2-3.2-5.8-3.5c-1.7-0.3-8.2,0-9.8,0s-3.3-0.7-3.3-0.7s6.5,1.8,9.7,2.8s8.3,3.3,9.7,5.7"/>
<path fill="none" d="M742.2,260.4c0,0-5.7-2-7.3-3s-9.3-3.7-12.8-4.2s-5.7,0.2-5.7,0.2s7.8-0.3,13.3,3.2c5.5,3.5,12.7,8.7,13.8,10"
	/>
<path fill="none" d="M744,273.6c0,0-6-6-9.8-7.7c-3.8-1.7-9.5-4.5-12.5-5.2s-4.8-0.3-4.8-0.3s2.5-0.2,8.7,3.7
	c6.2,3.8,13.3,9.2,15.2,11.3c1.8,2.2,4,5,4,5"/>
<path fill="none" d="M744.5,287.4c0,0-3.8-5.2-9.7-9.3c-5.8-4.2-11.8-7-14.5-8s-6.8-1-6.8-1s7.2,1,11.3,4.2s11.8,10.3,11.8,10.3
	l7,7.7"/>
<path fill="none" d="M741.5,296.1c0,0-4.7-5.8-8.7-8.8s-11.2-7-14.3-8.7c-3.2-1.7-6.3-2.2-6.3-2.2s3.3,1.7,5.5,3
	c2.2,1.3,9,4.7,11.3,7.2s11.5,11.7,11.5,11.7"/>
<path fill="none" d="M738.7,299.9c0,0-5.7-6.3-9.3-9.5c-3.7-3.2-13.5-6.2-17.7-7.2c-4.2-1-11.2-1.2-15.3,0s-10.8,4.5-13.7,6.8
	c-2.8,2.3-5.3,6.2-5.3,6.2s4-4.5,9.8-6.7c5.8-2.2,9.3-3.7,14.7-3.5c5.3,0.2,13.7,2.2,18.7,4.3c5,2.2,11.7,7.3,12.8,8.5
	c1.2,1.2,4,1.3,6.2,1"/>
<path fill="none" d="M716.8,318.2c0,0,2.2-2.8,3.5-5.2c1.3-2.3,2.7-5.5,4.7-6.7c2-1.2,8.3-6.5,9.7-6.5"/>
<path fill="none" d="M681.5,282.9c0,0,5-1.3,8.5-1.2s8.3,0.8,8.3,0.8"/>
<path fill="none" d="M641.8,324.6c0,0,0,0,0.7-1.8s4.3-6.7,10.5-13.8c6.2-7.2,11.5-8,16.7-8.8c5.2-0.8,11.7-0.3,15.7,0.3
	c4,0.7,17.7,7.5,24.2,12.2c6.5,4.7,10.3,8.8,10.3,8.8"/>
<path fill="none" d="M669.7,300.1c0,0-2.8-18.2-8.5-24.2c-5.7-6-17.3-15.3-18.5-18.2"/>
<path fill="none" d="M646.7,273.1c0,0,5.7,5.5,8,6.3c2.3,0.8,5.2,5.5,6,7.2c0.8,1.7,0.8,1.7,0.8,1.7s-2-6.3-7.7-12.7
	c-5.7-6.3-7.8-7.5-7.8-7.5"/>
<path fill="none" d="M673.5,297.1c0,0,0-10.8-1.7-17.3s-7.7-20.2-12.2-25c-4.5-4.8-13.2-10-17.3-10"/>
<path fill="none" d="M677.2,299.8c0,0-0.5-3.2,0.5-8.7s2.5-15.3-1.3-22.8s-9.7-17.7-19.3-16"/>
<path fill="none" d="M677.7,290.4c0,0,5.2-6.8,5.3-13.7s-1.5-15.3-4.7-20.5c-3.2-5.2-7.3-9.7-10.7-11s-6.8-1.5-10.3-2.2
	c-3.5-0.7-7-0.7-13-4.3s-11-5-12.7-3.3"/>
<path fill="none" d="M683,277.6c0,0,5.5-7.8,8-14.7c2.5-6.8,5.2-13,3.8-18.8c-1.3-5.8-4.5-8.8-9-11.5c-4.5-2.7-9.2-5.5-12.2-6
	s-10.3,0.8-12.7,1c-2.3,0.2-5.8-1-7.3-0.8s-6,0.3-7.3,1.2c-1.3,0.8-5,3.8-5.5,5.5"/>
<path fill="none" d="M653.8,230.2c0,0,5.3,3.8,8.2,4.3s5.7,1.8,9.7,2.8s9,4.7,10.8,6.8s4,6.2,4.2,9.2c0.2,3-0.8,8.3-0.8,8.3
	s1.3-7.2-2.7-11.5s-8.2-7.5-10.5-8.2c-2.3-0.7-9.5-3.8-9.2-7.5"/>
<path fill="none" d="M660.7,228.2c0,0,4,1.5,7,2.2c0.1,0,0.3,0.1,0.4,0.1c0.8,0.2,1.5,0.3,2,0.3c2.7,0.2,8,1.5,10.7,3.2
	c2.7,1.7,8.5,7.2,9.5,10.2s0.8,5.8,0.8,5.8s-0.2-4.5-5-8.7c-4.8-4.2-8.9-6.3-11.2-6.8c-2.8-0.7-4-0.8-5.3-2c-1.3-1.2-3.2-2-3.2-2"/>
<path fill="none" d="M694,240.4c0,0,0.7-1.2-2.8-7.2s-7.8-10.7-10.7-12.3c-2.8-1.7-8.5-2.7-10.5-1.7s-4.8,2.7-6.3,3.2
	s-2.7,0.3-2.7,0.3"/>
<path fill="none" d="M687.2,229.6c0,0-4.5-2.7-7.2-4c-2.7-1.3-6.5-2.8-9-2.8s-7.8,1-9.3,0.7c-1.5-0.3-4-1.8-6-1.7s-5.8,0-8.8,1
	s-10,5.8-12.3,12.2"/>
<path fill="none" d="M678.5,129.9c0,0-7.2,0-11,1.7c-3.8,1.7-7.8,3.3-10.7,5.8s-7,5.2-10,6c-3,0.8-11.7,2.7-14.5,4
	c-2.8,1.3-9.3,5.3-13.8,8.5c-4.5,3.2-13.3,10.2-17.3,16.3s-10,16.2-10.5,22.5s1.2,18.3,2.8,23.8s9.5,24.7,12,27.2s8.5,9,10.3,12.2
	c1.8,3.2,7.8,9.5,9.8,18.8s2.5,15.8,2.2,19.2c-0.3,3.3-1,15.7-0.5,18.8s2.3,10.3,7.2,12.3"/>
<path fill="none" d="M600,173.8c0,0-4.8,4.2-7.7,6c-2.8,1.8-7.7,4.7-10.3,6.7s-4.3,4.7-5.2,7.2c-0.8,2.5-3.2,7.7,0.3,18
	c3.5,10.3,8.5,21.7,11.8,27.2s8.8,16.5,14,19s12.2,5.3,15,7.5s5.8,5.3,5.8,5.3"/>
<path fill="none" d="M604,168.2c0,0-4.7,4-10.8,4.8c-6.2,0.8-12.5,2.2-15.5,3.3c-3,1.2-6.8,3-9,5.3c-2.2,2.3-7,8.2-8.5,10.7
	s-2,7.3-1.7,9.3s1.8,6.3,4,7.7c2.2,1.3,4,3.8,4.5,5.5c0.5,1.7,5,10.7,7,11.7s3.7,3.7,6.2,4.7s6.5,3.2,7.7,4.7"/>
<path fill="none" d="M582.2,232.8c0,0,1.8,1.7,3.5,4.3c1.7,2.7,5.3,10.8,7.3,14.7s5.2,7.3,9.8,10.5c4.7,3.2,8.7,5.5,12,6.5
	s10.2,6,11.5,10.8"/>
<path fill="none" d="M642.6,322.7c0,0-3-2.2-5-9c-2-6.8-2.7-11.3-3.3-16c-0.5-4.7-0.7-9-0.7-9s-0.8,13.5-0.9,17
	c-0.1,3.5,0.2,10.5,1.4,14c1.2,3.5,2.4,6,3.5,6.6"/>
<path fill="none" d="M627.3,304.1c0,0-7.5-16-14.7-22.8s-20.5-17-37.3-18.5c-16.8-1.5-23,1-27.7,3.2c-4.7,2.2-9.7,6.8-11.3,9.7
	c-1.7,2.8-6,11.5-4.7,16.5s2,7.5,3.3,6.3c1.3-1.2,2.3-0.8,5,1.2s6.8,1.8,9.8,1.7s5,0,11.2-3.7c6.2-3.7,11.2-10,11.2-10"/>
<path fill="none" d="M564.8,294.9c0,0,3.5,4.8,7.3,6.7c3.8,1.8,9.8,2.3,13.3,1.7s6.7-1.8,6.7-1.8"/>
<path fill="none" d="M545.7,301.1c0,0,1,2.3,6.5,7.2s12,8.5,16.2,9.7c4.2,1.2,6.7,1,10.8-0.7s5.3-2.5,5.3-2.5"/>
<path fill="none" d="M580.7,316.8l-2.8-8.9c0,0,6.8,7.2,10.6,9.4c3.8,2.2,5.5,3.7,9.8,4.6c4.3,0.9,8,1.1,10.7-0.1
	c2.7-1.1,4.9-3.5,6.4-2.8c1.5,0.7,5,2.4,5.6,3.2c0.7,0.8,5,4.5,6.3,4.9"/>
<path fill="none" d="M614.8,331.1"/>
<path fill="none" d="M622.5,333.6c0,0-0.3-3.7-1.3-4.8s-2.5-5.3-1.7-7.5"/>
<path fill="none" d="M587,338.4c0,0,2.7-3,6.7-2.7s7.8,1.2,11.7-1.5s5.3-6,5.3-8.7c0-2.7-0.8-4-0.8-4"/>
<path fill="none" d="M596.3,335.9c0,0,1.8,0.3,5-2.3c3.2-2.7,5.7-5.7,5.5-7.2s-0.3-3.8-0.3-3.8"/>
<path fill="none" d="M593.7,335.8c0,0,1.8-0.2,4.3-2.3c2.5-2.2,4.7-6.8,3.5-10.8"/>
<path fill="none" d="M596.3,334.2c0,0,2.2-1.7,1.8-4.8c-0.3-3.2-3-7-3.8-8c-0.8-1-1.8-2-1.8-2"/>
<path fill="none" d="M580,341.2c0,0,2.5-1.2,7.3,0.2c4.8,1.3,10.5,2.7,12.7,2.8s5.7,1.5,7.2,3.2c1.5,1.7,2.3,2.3,4.7,2"/>
<path fill="none" d="M603.8,345.1c0,0-2.8,0.7-5,2.5c-2.2,1.8-5.3,5.5-7.3,8.2s-5.8,8.2-8.2,10c-2.3,1.8-2.8,2.7-7,1.2
	c-4.2-1.5-4.2-1.5-4.2-1.5s4.8-0.3,8.3-2.5c3.5-2.2,5.2-4.3,5.2-4.3s0,0,0.7-1.8c0.7-1.8,6.2-6.5,8.2-8.7c2-2.2,5.5-3.8,5.5-3.8"/>
<path fill="none" d="M581.8,366.8c0,0,2.7,1,5.5-1c2.8-2,5.8-5.7,8.3-8.8c2.5-3.2,5.8-7.5,8.5-7.7s4-0.8,4-0.8"/>
<path fill="none" d="M587.3,365.8c0,0,1.8,1.3,4.2,0.3s5-4,6.3-5.2c1.3-1.2,5.2-6,7.5-7.5s3.2-1.2,4-1.5c0.8-0.3,0.7-2.7,0.7-2.7"/>
<path fill="none" d="M596.7,361.8c0,0,1.2,1,2.8-0.2c1.7-1.2,5-5.2,7-6.2s5.7-2.3,7.2-0.3"/>
<path fill="none" d="M587.2,355.2c0,0-3,2.8-5.2,1.8s-4.8-1.7-8.7-5.7c-3.8-4-5.8-5.5-10.3-4.7s-12.3,7.8-14.3,11.2
	c-2,3.3-3.2,8.5-4.3,10c-1.2,1.5-2,5.2-1.7,8.3c0.3,3.2,2,13.2,5.2,14"/>
<path fill="none" d="M560,347.6c0,0,3.8-3,11.3-5c0.5-0.1,5.3,0,7.5-0.8c2.2-0.8,6.2-4,15.2-2.3c9,1.7,12.7,2.2,14.3,4.2
	c1.7,2,3.3,4.5,4.3,8s1.8,10.5,6.3,13.2s8,5,11.7,4.7c3.7-0.3,6.8,0.2,10.2-1.8s7.5-2.8,10.5-2.3s5,1.2,5,1.2"/>
<path fill="none" d="M599.3,340.1c0,0,6.7-2.5,8.5-1.8s6.2,4,7.5,4.2c1.3,0.2,6.3,0.5,8.3-0.5s4.7-2,7-1.3
	c2.3,0.7,10.3,4.2,12.7,6.7s5,5.3,6.3,6.8s4,3.8,6.3,4.3s5.5,1.7,7.7,3.7s6.2,5.5,8.5,8.2s9.2,6,11.5,6.7c2.3,0.7,4.5,3.3,5.8,5.2
	c1.3,1.8,6.2,6,8.5,8.2s6.7,3.2,8.7,3.5s5.2,1.7,7.7,3s5.5,2.2,5.5,4.3c0,2.2-3.2,5.8-4.3,6.2s-5.3-1.3-9.2-3.2
	c-3.8-1.8-8.2-3.7-11.2-3.8s-9.2-3.5-10.2-5s-2.3-4.7-3.2-7.2s-1.2-6.8-2.8-7.5c-1.7-0.7-2.3-2.8-2.3-2.8"/>
<path fill="none" d="M618.9,342.5c0,0,4.9-5.8,7.6-7.2s6.4-4.8,10.5-6.9s8.1-4.6,12.2-7.8s7.9-7.4,7.9-7.4s-13.4,10.5-17.6,12
	s-7.8,2.5-9.6,3.8s-7.8,4.9-9.5,5.8s-9.4,4.8-10.4,4.8"/>
<path fill="none" d="M555.8,267.9c0,0,5.6,0.8,8.2,0.1s8.1-1.2,10.8-0.8s10.6,1,13.4,2.8s12.1,6.1,12.5,6.2s-13.8-5.2-16.2-6
	s-8.5-1.4-10.9-0.9s-5.6,1-8.8,2.8s-7,2.9-8,2.4"/>
<path fill="none" d="M557.6,277.4c0,0,5.6-1,7.6-2.2s7.1-3.2,10.2-2.9s7.1,0.5,10.9,2s12.4,4.1,12.4,4.1"/>
<path fill="none" d="M559.5,282.2c0,0,5.4-2.9,8.2-4.5s5.5-3.1,10-2.5s6.8,1.2,11,3s6.8,2.6,9,2.1"/>
<path fill="none" d="M599.8,284.6c0,0-6-2.4-9.4-3.6s-8.2-2.8-11.5-2.9s-6.6,0.4-8.2,1.2s-6.2,3.2-6.2,3.2l-2.5,1.6l-2.1,1.8"/>
<path fill="none" d="M599.5,290.2c0,0-4.4-3.1-6.9-4.8s-5.4-2.8-8.1-3.6s-5-0.8-7.8-0.6s-7.2,1.1-8.5,1.8s-4,2.2-4,2.2"/>
<path fill="none" d="M599.8,292.5c0,0-6.2-2.4-7.4-4.1s-5.5-4-7.2-4.6s-7.5-1-8.9-0.8s-5,1.1-7.2,2.4s-6.2,4.5-6.2,4.5"/>
<path fill="none" d="M579.2,287.1c0,0,3.8,0.9,6.1,1.4s5.8,2.9,6.2,3.8s-0.2,1.2-1.9,0.5s-6-2.9-6.9-3.8s-4.1-1.9-4.1-1.9"/>
<path fill="none" d="M577.4,292.1c0,0,1.6-0.2,3.3-0.2c0.3,0,0.6,0,0.9,0c0.3,0,0.5,0,0.7,0c0.4,0,0.8,0.1,1.1,0.2
	c1.9,0.5,3.9,1.8,5.2,2.5s3.1,2.9,2.2,2.8s-4.5-1.6-5.2-2.9c0,0-2.1-1.1-3-1.8"/>
<path fill="none" d="M578.1,297.9c0,0,1.9-0.9,3.6-1s6.1,0,6.4,0.9s-0.4,1.9-1.6,1.1s-3.6-1-4.5-1.1"/>
<path fill="none" d="M627,311.2c0,0-1-4.2-3.6-8.1s-8.8-9-11.4-10.8s-4.9-2.2-5.5-3.1s-0.6-0.9-0.6-0.9s2.6,4.8,5.2,6.2
	s6.2,3.2,7,4.6s4.1,4.9,4.8,7.4s2.2,6.6,2.1,8.2s-0.5,1-0.5,1"/>
<path fill="none" d="M627.8,317.8c0,0-2,0.1-6-6.4s-7.2-9.4-9-10.4s-2.2-0.6-2.2-0.6s2.2,2.5,3.4,4.4s3.6,6.1,4.8,8.8
	s8.1,10.4,11.5,9.6"/>
<path fill="none" d="M788.9,316c0,0-2.6,1.9-4-2.9s-2.6-5-4.1-4.8s-4.4,1.2-5.6,3.4s-8.1,10.9-10.6,13.2s-9.9,8.2-12.4,10.5
	s-11.1,6.8-15.1,8s-7.4,2-10,3.2s-9.4,4-12,4.2s-7.2,0.8-11.4,0.2s-8.1,0.1-11.5,1.1s-9.8,5.9-10.2,6.4"/>
<path fill="none" d="M644.4,348.6c0,0,4-0.8,5.8-0.1s9-0.4,11.6-1.9s9.9-2.9,13.9-2.2s11.4,1.9,13.5,2s5.2-0.1,5.2-0.1"/>
<path fill="none" d="M706.9,351.5c0,0-6-1.6-8.2-3.4s-5.5-1.9-7.2-3.5s-8.6-6.8-9.9-8s-1.9-2.6-1.9-2.6"/>
<path fill="none" d="M700.9,343.4c0,0-3,0-5.4-1.4s-8.1-3.9-10-6s-3.6-1.5-5.1-2.1s-5.5-1.8-5.9-2.8s-3.2-2.5-3.6-3.5
	s-1.4-1.4-1.4-1.4"/>
<path fill="none" d="M717.9,342.4c0,0-4.1,0.8-9.5-1.4s-15.6-5.9-18.1-7.5s-8-3.1-11.6-4.8s-8-2.6-9.9-2.8s-7.4-0.2-10.8-0.2
	s-5.8,0.6-8.1,1.5s-6.5,5-9.4,6.6s-8.5,5.9-10.6,6.4"/>
<path fill="none" d="M627.1,340.2c0,0,2-1.9,5.6-4.9s10.5-7.9,13.1-9s6.2-3.1,8.8-3.2"/>
<path fill="none" d="M662.5,325.5c0,0,5.6-1.6,7.5-2.5s6.4-0.4,8.2,0.5s7.1,3,8.8,3.5s5.2,1.8,5.2,1.8"/>
<path fill="none" d="M677,323.1c0,0,3.5-0.9,5.6-0.8s4.1,1.4,7.6,2.6s8.1,2.5,10.2,2.5"/>
<path fill="none" d="M711.8,329.1c-0.4,0.1-7-3.9-10-5.4s-7.1-2.4-9.2-2.9s-6.8-0.4-9.1-0.8s-5.5-1.5-5.5-1.5s3.1-1.4,5.9-1
	s8.2,1.8,9.2,1.5s5.9,2.4,7.4,3s2.8,0.5,2.8,0.5"/>
<path fill="none" d="M599.5,361.6c0,0-2,3.4-2,6.7s-0.5,9,1.5,11.2s7,7,9.8,9.8s8,5.8,10.2,8.5s5,6.5,2.2,10.5s-2.8,2.8-2.8,2.8"/>
<path fill="none" d="M565.3,367.9c-1.2,0.8-1.2,3.3-1.2,4.2c0,0.8-1,3-2.7,4.7s-3,2.5-3.3,3.7c-0.3,1.2-2.3,5.3-4.3,6.8
	s-6,8.2-6,8.2s-0.8-5.7,2.3-8.3c3.2-2.7,6.3-6,6.3-6s2.5-3.5,3.7-3.5"/>
<path fill="none" d="M554.3,391.2c0,0,5.2-1.7,5.8-2.5c1.5-1.8,3.3-6.5,4.7-8.5c1.3-2,3.2-5.7,3.7-6.8c0.5-1.2,1-3.7,1-3.7
	s-2,3.2-3.5,4.8c-1.5,1.7-3.7,4-4.7,5.8c-1,1.8-2.5,4.8-3.2,7.2c-0.7,2.3-1.2,2.2-1.2,2.2"/>
<path fill="none" d="M635,341.8c0,0,3-0.2,8-4.2s10-5,12.8-6s-6.2,3.8-6.2,3.8s-4.8,3-5.8,4.5s-5,4.5-5,4.5"/>
<path fill="none" d="M693.7,362.8c0,0,7.7-3.3,10.3-4.5c2.7-1.2,10.7-3.5,14.7-4.5s6.2-1.5,10.8-1.2c4.7,0.3,7.3,1.2,7.3,1.2
	s-8.2-0.7-11.8,0.5c-3.7,1.2-7,1.8-9.8,3.8s-6.3,2.8-8.8,3.3s-3.8,0.7-3.8,0.7S695.5,363.1,693.7,362.8z"/>
<path fill="none" d="M699.5,366.4c0,0,5.7-1.2,8.3-1.8c2.7-0.7,9.7-3.3,12.5-4.2c2.8-0.8,3.8-1.2,6.2-1.5c2.3-0.3,4.3-0.7,4.3-0.7
	s-5.2,2-7.8,3.3c-2.7,1.3-7.8,3.3-9.3,3.8s-5.7,1.7-7.2,1.5C705,366.8,699.5,366.4,699.5,366.4z"/>
<path fill="none" d="M723.5,344.8c0,0,7.5-3.3,10.7-4.3c3.2-1,6.3-3.7,9.8-6.7s11.2-10,13.2-11.2c2-1.2,5.8-4,5.8-4s-1.8,3.7-3,5
	c-1.2,1.3-7.2,7-8.8,8.3c-1.7,1.3-7.2,6.5-9.8,7.7c-2.7,1.2-10,4.7-12,5C727.3,344.9,723.5,344.8,723.5,344.8z"/>
<path fill="none" d="M743,397.4c0,0,2.2-3.8,8.7-5.7s8.3-2.3,14.7-6.7c6.3-4.3,10.7-9.8,13-14.3s0.8-8,2-9.8c1.2-1.8,1-5,1.5-6.2
	s1.2-5,1-7.2c-0.2-2.2-2-5-1.5-6.7c0.5-1.7,0.8-8.2,0.8-8.2"/>
<path fill="none" d="M754.5,409.9c0,0,4,4.5,8.3,4.8c4.3,0.3,7.7-1,11-4c3.3-3,6.5-7.5,8.3-12.3c1.8-4.8,2-9.2,0.8-12.7
	c-1.2-3.5-3.2-6-3.3-8.2c-0.2-2.2-0.3-6.8-0.3-6.8"/>
<path fill="none" d="M783.7,390.6c0,0,5.3-4.5,10.7-4.5c5.3,0,10.7-0.7,15.7,1.7s9.8,4.2,12.7,5.7c2.8,1.5,8.5,5.8,13.3,13.5
	c4.8,7.7,8,14.3,10,19.3s3.3,12.3,3.2,16.7c-0.2,4.3-0.5,6.3-0.5,6.3"/>
<path fill="none" d="M779.5,308.5c0,0,0,6-1,8.8s-5.5,11-7.8,13.5s-8,8-9.5,9.5s-5.5,5-6.8,7.8s-4.5,7.8-4.5,7.8s4.8-5.5,8.8-9.2
	s8-7.8,11-9.8s5.8-5.8,8-9.8s3-5.8,3.8-10s1.5-8,1.5-8"/>
<path fill="none" d="M826.5,458.5c0,0-9-8-15.5-12.8s-19.8-10.5-33.5-11s-16-3.2-20.2-4.5s-9-2.2-13.2-4.5s-5-2.2-6.5-6.2
	s-3-5.2-3-5.2s-5-0.2-7.2-3.8s-7.4-9.4-7.4-9.4"/>
<path fill="none" d="M702.8,402.5c0,0,2,4,4.5,7.8s6.8,7,11,9.2s5.2,2.8,9.2,3.2s7,0.2,10.8-1.2"/>
<path fill="none" d="M723.2,421.2c0,0,3.5,4,6.5,4.5s6.2,1,12.8-0.2"/>
<path fill="none" d="M729.8,425.8c0,0,1.5,2.5,5.5,2.8s7.5,1.2,11.8-0.5"/>
<path fill="none" d="M735.2,428.5c0,0,0.8,1.5,3.8,2.2s6.8,0.2,10-2.5"/>
<path fill="none" d="M725,438.8c0,0-2.5-7.8-5.8-11.2s-8.8-7.8-11.5-8.2s-6.8-0.8-10.8-2.2s-6.8-3.5-9-5.2s-8.5-3.5-14.8-4.8
	s-11.2-2.8-15.2-3.8s-8.2-1-11-1s-5.2-1.5-7.5-2.5s-5.5-1.8-8.2-2.2s-7.8,1.8-10.5,1.5"/>
<path fill="none" d="M649.8,398c0,0-6.2-5.8-10.5-5.8s-5.5,0.8-10.2,0.8s-8,0.5-11-1.5s-7.2-1-7.2-1"/>
<path fill="none" d="M635.2,369.6c0,0,1.7,2.2,3.8,1.7s6-3.5,7.7-4s6.3,0.2,8.5,1.7s6.2,1.8,7.8,0.8s5.3-1.3,5.7-0.3
	s1.5,2.3,2.2,5.5c0.7,3.2,4.2,10.2,9.8,8.7"/>
<path fill="none" d="M681.3,362.9c0,0-2.5-3-8.5-6s-14.7-3.7-17.3-3.7s-0.2,1.7,4.3,2.5s2.8,0.3,6.2,0.7c3.3,0.3,8.7,2.5,10.2,3"/>
<path fill="none" d="M703.7,378.4c0,0-6.4-5-10.3-6.9c-0.6-0.3-1.1-0.5-1.5-0.6c-3.5-1-12.5-2.8-14.7-3.3s-6.2-2.7-5.3-1.2
	s4.2,4.7,7.2,4.3s8.8-0.3,10.2,0.2"/>
<path fill="none" d="M693.2,370.4c0,0-8.7-6.2-12.7-7.2s-10.7-3.3-12-3.5s-0.8,1.7,1,2.3c1.8,0.7,8.5,2.7,11.5,2.5"/>
<path fill="none" d="M656.8,363.2c0,0-8.1-3.8-10.4-4.2c-2.4-0.3-6.9,0-8.6,0.5c-1.7,0.5-1.7,2.1,0.2,1.9c1.8-0.2,7.1,0,8.7-0.3"/>
<path fill="none" d="M647.3,357.1c0,0-4.8-2-6.8-3.5s-4.8-2.8-7.5-3.2c-2.7-0.3-4.2-0.5-4.2-0.5s2.8,0.7,4.3,2.3s5.5,3.5,7.2,3.5
	C642,355.8,646.2,356.8,647.3,357.1z"/>
<path fill="none" d="M641,350.1c0,0-3.5-0.3-5-1c-0.6-0.3-1.5-0.8-2.5-1.4c-1.4-0.8-3-1.8-3.7-2c-1.2-0.3-5-1.2-5.2-0.3
	c-0.2,0.8,0.5,2.2,2.3,2c1.8-0.2,1.3,0,3,0"/>
<path fill="none" d="M701,368.1c0,0,5.1-0.1,6.5,0s6.8-0.4,7.5-0.8s6.9,0.4,8.1,0.2s7.1-1.5,7.1-1.5s-5,2.8-6.4,3s-9.9,1.4-12,1.1
	s-6.2,0.6-8-0.1S701,368.1,701,368.1z"/>
<path fill="none" d="M736.1,369.4c0,0-5.9,1-7.5,1s-9.4,1.8-11.1,2s-6.9,1.6-8.1,1.5s-3.1,0-2.8,0.1s3.1,1.2,5.6,1.4s7-0.4,9-1.2
	S734.2,369.2,736.1,369.4z"/>
<path fill="none" d="M749,366c0,0-6,3-7.9,3.6s-4.9,1.8-7.1,2.5s-7.1,3.5-8.5,3.9s-8.6,3.6-9.9,3.8s1.2,0.9,3.2,0.8s6.2-1,10.2-3.1
	s8-4.5,9.5-5.5s3.9-2.4,3.9-2.4"/>
<path fill="none" d="M719,386c0,0,5.5-1.4,10.1-3.6s8.2-5.5,11-7.5s6.6-5.4,6.6-5.4"/>
<path fill="none" d="M728.6,390.9c0,0,7.5-2.9,10.9-4.5s8.9-6.9,11.2-9.1s3.4-3.1,3.4-3.1"/>
<path fill="none" d="M734.6,392.5c0,0,2.5-1.9,7-4.6s7.4-5.5,9.4-7.1s5.1-5.6,6.4-6.6s-7.1,10.9-10.2,12.8s-6.9,4.1-6.9,4.1l-2,1.1"
	/>
<path fill="none" d="M740.2,393.9c0,0,3.6-2,6.6-3.5s4.5-3.8,7.2-5.9s2.8-2.1,2.8-2.1s-2.6,3.8-3.9,4.8s-2.9,3-2.9,3l-2.5,1.4"/>
<path fill="none" d="M753.5,429.5c0,0,1.8,7,3.8,9.2s9,8.5,15.2,10.5s8.2,2.2,8.2,2.2"/>
<path fill="none" d="M810,444.8c0,0-5.8,0.2-7,2s-5,5.5-5.8,8.8s-3.2,7.2-6,10s-7,6.8-9.5,7.2s-10,1.5-13.8-2.2s-9.5-8.8-10.8-16.2
	s0.5-7,0.5-7s-0.2-5.8,1.8-5.8"/>
<path fill="none" d="M762.8,486.5c0,0,0.8-2.8,1-5s2-3.5,4-5.2s5-3.8,5-3.8"/>
<path fill="none" d="M747,472.4c0,0-6-9.5-4.5-13.8c1.5-4.3,3.2-9,5.5-11.3s7.7-8.7,8.7-9.7"/>
<path fill="none" d="M739.3,461.9c0,0-0.3-8.8,3.2-12.7s12.3-11.8,12.8-14"/>
<path fill="none" d="M739.3,468.9c0-0.5-4.8-1.8-3.8-7.8s3.2-11.3,5.2-14c2-2.7,6.3-6.5,9-9.2c2.7-2.7,4.8-5.5,4.8-5.5"/>
<path fill="none" d="M735,466.6c0,0-5.3-1-3.5-8.5s4-12,6.5-14.5s7.3-6.7,9.5-8.7s5.2-5.7,5.2-5.7"/>
<path fill="none" d="M733.7,461.2c0,0-0.5-7.3,2-10.7c2.5-3.3,8.8-11,8.8-11l9.3-8.5"/>
<path fill="none" d="M741.5,431.1c0,0-4.3,1.5-7,1.7s-5.5,2.7-7.3,4.2s-4.7,5.5-4.3,7.8s0.2,9.5,2.3,12.5s3.3,4,3.3,4s-2-9,1.7-14.2
	c3.7-5.2,6.8-8.7,11.7-11.7s8.7-7,8.7-7"/>
<path fill="none" d="M746.8,429.4c0,0-4.3,3.5-7,5.2c-2.7,1.7-8.3,4.8-9.3,6.2s-4.3,5.3-4.2,6.3s0.2-6,2.7-7.5s7.7-5.3,9.2-5.3"/>
<path fill="none" d="M782.2,398.4c0,0,2.5-0.8,5.7-0.5c3.2,0.3,5.5,1.7,6.3,2c0.8,0.3-4.7-0.7-4.7-0.7s-3.7,0.2-5.3,0.3
	c-1.7,0.2-3.3,1.3-3.3,1.3"/>
<path fill="none" d="M779.2,404.4c0,0,2.8-2.3,6-2.5c3.2-0.2,7.2-0.2,10.7,0.5c3.5,0.7,5.5,1.2,5.5,1.2s-7.3-0.3-9.8-0.3s-4.5,0-7,1
	s-5.7,3.5-7.8,3.8"/>
<path fill="none" d="M774.7,409.9c0,0,2.8-1.5,5.3-1.3c2.5,0.2,4.7-1,6.3-1.8s11.8-0.7,11.8-0.7s-7.3,0.8-9.2,1.3
	c-1.8,0.5-5.2,1.2-6.8,2.3s-4.8,2.3-7,2.8s-4,0-4,0"/>
<path fill="none" d="M745.3,411.8c0,0,5.8,4,9.2,4.5c3.3,0.5,9.5-0.3,13.2,0s6.7-1,9.7-2s7-3,9.3-4s3.3-1.2,3.3-1.2"/>
<path fill="none" d="M754.7,418.4c0,0,7.2,0.8,9.3,1.5c2.2,0.7,5.3,1,8.2,0.2c2.8-0.8,11.5-4.8,11.5-4.8"/>
<path fill="none" d="M759.3,418.9c0,0,2,1.7,3.7,2.8c1.7,1.2,5,0.8,6.3,0.3s4.2-1.8,4.2-1.8"/>
<path fill="none" d="M748.2,417.2c0,0,2.7,3,8.5,4.7c5.8,1.7,8.8,2.3,10,3.2c1.2,0.8,5.8,0,8.2-0.3s7.3-2.7,9.2-4
	c1.8-1.3,3.5-2.8,3.5-2.8"/>
<path fill="none" d="M748.8,417.6c0,0,4.3,3.5,5.8,5.2s5,2.7,6.8,3c1.8,0.3,8.2,0,8.2,0"/>
<path fill="none" d="M749,421.8c0,0,6.5,3.5,8.2,4.5c1.1,0.7,3.3,1.8,5,2.7c0.8,0.4,1.5,0.8,1.8,1c1.2,0.7,4,0.8,6.5,0.8
	s8,1.2,9.3,1.5s3.5,0.3,4,0.3s-6.8-2.7-9-3.2s-7.2-0.5-9.3-0.2"/>
<path fill="none" d="M609.3,436.2c0,0,1.8-2.7,4.5-2.8c2.7-0.2,5.7-0.2,7.8-2.8c2.2-2.7,3.3-4.3,2.8-8.7c-0.5-4.3-1.7-8.7-3.3-9.7
	s-4.2-3-6-4.2c-1.8-1.2-6.2-3-7.8-3s-2.5-0.2-2.5-0.2"/>
<path fill="none" d="M615.7,423.4c0,0-1-3-1.5-5.2s-3.7-8-5.5-9.8c-1.8-1.8-7.3-7-10.2-9.8c-2.5-2.5-8.5-8.9-11.8-11.2
	c-0.4-0.3-0.8-0.5-1.2-0.7c-2.8-1.2-6-3.2-8-4.7s-4.8-4.3-5-5.5c-0.2-1.2,1.7-0.8,3-0.8s4.3,1.8,6.3,3.8s1.7,3,2.8,4.8"/>
<path fill="none" d="M612,442.6c0,0,3.3,0.7,6.5-1.7c3.2-2.3,6.5-5.8,8-8.5c1.5-2.7,4.7-10.2,2.8-13.7c-1.8-3.5-5-5.7-7.2-5.5"/>
<path fill="none" d="M630.3,429.6c0,0-0.7,3.7-2.2,6c-1.5,2.3-5,6.7-6.8,7.7c-1.8,1-7.2,3.3-9,4.2c-1.8,0.8-5.8,0.8-8.5,1.8
	s-5,2.2-6,3.7s-2.2,4-2.3,5.2c-0.2,1.2,1.2,1.8,1.2,1.8"/>
<path fill="none" d="M587,460.9c0,0,0.5-4.7,4.5-6.3c4-1.7,6.2-3.8,8.8-6.8c2.7-3,5.2-6.5,5.2-9.3c0-2.8,0.8-5.5,1.8-7
	s2.8-4.2,3-5.7c0.2-1.5,0-2.5,0-2.5s-1,1.7-2.7,4.2s-3.5,5-4.3,6.3c-0.8,1.3-1.5,2.3-1.5,4.2c0,1.8,0,4.2-0.8,5.3s-3.2,4.3-3.7,5.5"
	/>
<path fill="none" d="M623.7,469.9c0,0-2-6.7,3.5-12.3c5.5-5.7,11.8-10.7,15.5-13c3.7-2.3,9-5.2,13.2-6.7s6-1.8,10-1.3
	s4.7,0.8,4.7,0.8"/>
<path fill="none" d="M635.7,449.8c0,0,1.8-4,5.7-7.3c3.8-3.3,10.5-6.7,13.8-7.8c3.3-1.2,8.2-1.5,11.3-1s10.3,2.5,13.2,4.3"/>
<path fill="none" d="M636.8,446.8c0,0-2-5.5,3.7-8.7c5.7-3.2,14-4.7,16.7-4.8s4.8,0,4.8,0"/>
<path fill="none" d="M637,440.4c0,0-2.5-5.3,1.8-6.8s11-3.2,14.3-3.3c0,0,5.8,0,8.2,0.2c2.3,0.2,10.2,0.5,13.2,1.3s9.8,3.2,12,4
	s7.8,2.7,11.3,4.8c3.5,2.2,11.8,8.8,14.5,11c2.7,2.2,6.3,7.8,6.8,10.3s0.7,4,0.7,4"/>
<path fill="none" d="M718.2,468.2c0,0-4.7-8.2-7.2-10.7s-6.5-6.8-8.8-8.7c-2.3-1.8-6.3-3.5-8.5-4.5s-2.8-1.2-2.8-1.2s5.7,3.3,8.2,5
	s6.8,7.3,9,9.3s5.3,6,5.7,7.7"/>
<path fill="none" d="M705.8,482.6c0,0-3-5-5.3-7.2c-2.3-2.2-6.2-8.3-7.5-10.2s-3.8-5.2-3.8-5.2"/>
<path fill="none" d="M702,484.9c0,0-8.2-8.7-11.2-11.2s-8-6.7-9.5-8s-5-4.5-5-4.5s15,14.7,16.8,16.8c1.8,2.2,5.7,6.7,6.3,7.5"/>
<path fill="none" d="M697.5,486.4c0,0-3.3-4.8-5.5-6.8s-4.8-7-5.8-8.2"/>
<path fill="none" d="M714.3,471.1c0,0-5.5-8-9-10.8s-7.5-4.7-9.8-6.5s-5.8-4.2-5.8-4.2s9.8,9.2,11.5,10.3c1.7,1.2,4.7,5,6.3,6.8
	s4.8,6.7,4.8,6.7"/>
<path fill="none" d="M691.7,492.1c0,0-0.5-3.8-3-8.2c-2.5-4.3-5.3-9.2-7.7-11c-2.3-1.8-5-4.5-5-4.5s7.8,8.7,9.5,11.7
	s3.8,8.8,4.2,11.3s0.7,3.7,0.7,3.7"/>
<path fill="none" d="M688.3,498.1c0,0-5-15.7-13.3-22.2s-16.7-11.7-28.5-14.3c-11.8-2.7-13.8-2.3-13.8-2.3"/>
<path fill="none" d="M626,466.8c0,0,5.5-7,10.2-9.5c2-1.1,3.6-1.9,5.1-2.5c0.4-0.2,0.8-0.3,1.1-0.5c1.4-0.5,2.7-1,4.1-1.4
	c3.2-1,10.2-1.2,13.5-0.8c3.3,0.3,7.3,1.3,9.7,2c2.3,0.7,2.3,0.7,2.3,0.7s-7.7,0-13.2,0s-9.2,0.2-12,0.2c-2.8,0-4.3,0.2-4.3,0.2"/>
<path fill="none" d="M669.2,459.6c0,0-6.8-3.2-10.7-2.8s-7.7,1.3-10,1.5s-10.8,1.5-11.7,1.3"/>
<path fill="none" d="M647.3,450.1c0,0,4.8-0.3,7.3,0.3c2.5,0.7,11.2-0.2,12.5-1.2c0,0-13.3-2.2-15.8-1s-7.5,2.2-9.2,3s-6.7,2-8.5,3
	s-4.3,1.7-4.3,1.7"/>
<path fill="none" d="M645.8,445.8c0.5,0.3,6.5-0.3,9.2-0.5s11.7,0.2,14.8-1.3c0,0-4.3-1.3-7.3-1.7s-11.3,2-14.8,3.2
	c-3.5,1.2-10,4.3-12,5.3s-2.8,1.7-2.8,1.7"/>
<path fill="none" d="M712.9,490.1c0,0,4.1-7.9,5-10.4s1.2-8,1.5-11.2s1.2-5.6,2.8-6.5s3.4-1.2,4.6-0.6s1.8-0.1,1.8-0.1"/>
<path fill="none" d="M714.5,486.9c0,0,1.9-5.1,1.8-7.8s0.8-12.1,3.2-11.5"/>
<path fill="none" d="M706.9,494.4c0,0,1.9-6.5,2.9-7.6s1.2-6.2,1.1-8.1s2-9,6.2-7.9"/>
<path fill="none" d="M707.1,493.6c0,0,1-6.2,0.5-9.4s1-7,2.9-6.3c0,0-8.3-9.5-13.5-13.2s-10.3-7-12-8.7c-1.7-1.7,14.8,13,17.3,16
	s6,7.7,6,7.7"/>
<path fill="none" d="M716.6,506.2c-1.6,0.5-5.6-0.5-7.4-1.4s-4.6-5.1-6-7.2s-0.6-6.8-0.8-8.5s0.8-4.2,2.1-5.8s3-1.5,3-1.5"/>
<path fill="none" d="M709.5,496.8c0,0,2.9,1.4,4.1,3s3.1,6.6,4.4,8.1s4.5,2.6,6.4,2s2.5-1.4,2.5-1.4"/>
<path fill="none" d="M714.9,495.9c0,0,3.9,1,5.2,3.2s2.5,5,3.8,6.4s3.5,4,6.9,4.4s8.8,0.2,10.2,0.4s2,0.2,2,0.2"/>
<path fill="none" d="M622,401.6c0,0,3.9-1.4,6.5-0.4s6.6,1.6,8.6,3.5s5.6,3.6,7.5,3.4s1-0.1,1-0.1s-6.6,0.1-9-1.4s-6.2-2.5-8.6-2.9
	s-4.8-0.4-5.6,0.1"/>
<path fill="none" d="M703.7,484.9c0,0-6,0.7-7.3,1.8s-4.2,4.5-5,6.5s-3,4.8-2.7,7.2c0.3,2.3,0.2,9.3,3.3,13.3
	c3.2,4,9.8,10.5,11.7,11.3s7.5,2.2,9.8-0.2c2.3-2.3,3.8-5.5,5.3-5.3c1.5,0.2,5.2,0.7,7.2,1.8s8.5,2.2,11.7,2.2s5.7,1.3,7.3,3.7
	c1.7,2.3,3.2,3.8,3.7,5.8s1.2,5.5,0.2,7.7s-0.8,6.7-3,8.3c-2.2,1.7-8.2,3.8-10.7,4s-10.5,0.8-15.2-1.3c-4.7-2.2-8.8-2.7-11.5-2.7
	c-2.7,0-9.2-0.8-12.2-3.3s-8-9.2-10.7-11.5c-2.7-2.3-5.7-4.2-5.7-4.2"/>
<path fill="none" d="M719.5,530.1c0,0-2.8,1-5.2,2s-12,1.7-17.2,0.8c-5.2-0.8-15.3-2.2-19.2-3.2c-3.8-1-10.2-3.2-14.2-7
	s-9.5-9-13.3-10.3c-3.8-1.3-6.5-1.8-6.5-1.8"/>
<path fill="none" d="M663,511.6c0,0-6.2-7-8.8-7.7c-2.7-0.7-6.7-2.2-7.2-1.8"/>
<path fill="none" d="M648.2,498.8c0,0,2.7,2,4.5,3.2c1.8,1.2,2.7,3,3.3,3.3"/>
<path fill="none" d="M663.7,503.2c0,0-2.3-4-4.2-4.7c-1.8-0.7-6.7-4-8.5-4.2c-1.8-0.2-3.2-0.3-3.2-0.3"/>
<path fill="none" d="M647.3,490.6c0,0,3.2,1.8,5,2.8s7.3,5.2,8.3,6"/>
<path fill="none" d="M678.2,497.6c0,0-6-2.2-8.5-4.8s-8.5-8-12.3-9.7c-3.8-1.7-12.5-5.7-15-5.8s-2.5-0.8-2.5-0.8"/>
<path fill="none" d="M643.8,481.9c1.2,0.2,6.2,2,10.2,4s9.5,7.2,9.5,7.2s-5.3-3.2-9.2-4.7s-7.5-3.3-8.8-3.2"/>
<path fill="none" d="M627.7,512.2c0,0,2.7-0.8,4.7,0.8c2,1.7,6,4.8,7,3.8s3.7-3.2,5.5-8.5c1.8-5.3,4.7-10.3,1.5-18.8
	s-4-11.7-6.7-14.5c-2.7-2.8-4.8-5-4.8-5c-1.5-0.3-2.8-1-3.8-1.3s-4.5,2.8-6,4.2c-1.5,1.3-5.3,1.5-7.2,1.3s-5.5,0-8.5,0
	s-8.3,3-11.2,4.2c-2.8,1.2-4.8,1-9.2-0.8c-4.3-1.8-5.5-4.5-5.7-6.5c-0.2-2,0.7-5.8,1.7-8c1-2.2,4.8-2.8,7.8-3.7
	c3-0.8,9.2,3.3,11.3,4c2.2,0.7,6.7-1.5,8.5-2.8c1.8-1.3,6-7,8-9.2c2-2.2,6.3-8,7.3-9.8c1-1.8,3.8-6.8,4.7-8.2
	c0.8-1.3,3.8-5.2,5.2-6.7c1.3-1.5,0.7-4.8,0.3-6.5s-3.8-3.5-3.8-3.5"/>
<path fill="none" d="M681.3,468.6"/>
<path fill="none" d="M663.8,522.8c0,0-8.3,1.7-13.2,1s-8-0.7-10.2-1c-2.2-0.3-5.3-1-7-2.7c-1.7-1.7-4.2-2.3-5.3-4s-2.3-1.3-2.3-1.3"
	/>
<path fill="none" d="M687.7,498.6c0,0-3.5,6.3-5,6.7s-6.3,3.5-6.3,3.5s7.3-3,9-4s3.2-3.2,3.2-3.2"/>
<path fill="none" d="M689,505.1c0,0-1.2,1.3-2.5,2.7s-4.5,2.7-5.8,2.8c-1.3,0.2-3.3,0.3-3.3,0.3s4.7,0.5,6.2,0.2
	c1.5-0.3,5.3-2,6.2-3.2"/>
<path fill="none" d="M691,511.9c0,0-3.7,1.3-5.2,1.8s-7,1.2-7.8,0.8c-0.8-0.3,7.7-0.2,10-0.2s5.2,0.5,5.2,0.5"/>
<path fill="none" d="M693.7,516.1c0,0-5.3,0.3-7.5,1.2c-2.2,0.8-7.5,0.5-9.3,0.2s3.7,1.2,4.2,1.2s6,0.5,8.5,0s7,0.2,7,0.2"/>
<path fill="none" d="M698.3,521.2c0,0-3.5-0.8-5.5-0.7c-2,0.2-5,1.2-6.3,1.3s-7-0.2-7.8-0.7s-3.2-0.8-3.2-0.8s7.2,2.5,9.3,2.8
	s8.3,0.3,10.2,0s4.2-1.5,4.2-1.5"/>
<path fill="none" d="M701.8,524.2c0,0-5.2,2.3-7.2,2.3s-8.8,0.7-11.2-0.3s-4.7-1.3-4.7-1.3s10.2,2,13.2,2.5s8.3,0.2,12.3-1.5"/>
<path fill="none" d="M701.5,389.9c0,0,2.5,0.3,3.8,1.2c1.3,0.8,8,3.8,10.7,3.5c2.7-0.3,8,0.5,11,1.8c3,1.3,6.7,5.2,8.7,5.8
	s2,0.7,2,0.7"/>
<path fill="none" d="M739.8,407.4c0,0-6.5-0.7-10.8-3.2c-4.3-2.5-6.7-3.8-7.8-4.5c-1.2-0.7,2.3,3,4,4.7c1.7,1.7,4.7,4.7,7.2,5.7
	s7.8,3,7.8,3"/>
<path fill="none" d="M692.2,414.4c0,0,4,1.5,7,0.3s5.3-1.8,8.1-4.5"/>
<path fill="none" d="M709.8,413.1c0,0-3,1.8-5,2.7s-5.5,1-6.7,0.3c-1.2-0.7-2-0.5-2-0.5"/>
<path fill="none" d="M591.1,454.5c0,0,2.3-0.8,1.6-4.7c-0.7-3.9-3.4-10.2-1.5-13.4c1.9-3.3,3.5-4.8,6.2-7.1c2.7-2.3,4.3-3.7,5.3-9.4
	c0.9-5.6,0.7-9.6-2-13.2c-2.7-3.6-5.6-5.7-7.7-7.7c-2.1-2-3.9-1.9-3.9-1.9"/>
<path fill="none" d="M582,390.4c0,0,7.8,9.6,11,11.8c3.2,2.2,7.8,8.3,8.8,11.3c0.9,3,0.6,6.8,0.6,6.8"/>
<path fill="none" d="M598.8,427.9c0,0,0.8-1.9,0.8-5.5s0.9-6.9-1.2-11.5c-2.1-4.6-8-10.8-8-10.8"/>
<path fill="none" d="M595.5,431c0,0,0.9-2.9,0.9-7c0-4.1-0.9-7.6-3.9-11.8c-2.9-4.2-7.8-10.2-9.2-12c-1.4-1.9-2.9-3.6-2.9-3.6
	s10.1,13.8,11.3,17c1.3,3.2,2.6,6.9,1.8,10.2c-0.8,3.3-1.8,9.2-1.3,10.3"/>
<path fill="none" d="M585.5,444.5c0-0.8,0.5-3,0.2-4.3c-0.2-1.3,1.1-2,1.6-3c0.6-1.1,1.3-3.4,1.3-4.8c0-1.4,0.5-3.9,1.3-6.3
	c0.8-2.5-0.9-8.3-1.3-11.2c-0.4-2.9-4.9-8-6.2-9.9c-1.3-2-4.8-6.1-4.8-6.1s4.9,11.7,6.7,14.4c1.8,2.7,2.6,4.6,2.9,7.8
	c0.4,3.3,0.7,8.4,1.3,9.1"/>
<path fill="none" d="M593.7,393.1c0,0,3.3-3,4-5.3s1-7.2,0.5-9.7s-0.7-4-0.7-4"/>
<path fill="none" d="M596.3,389.9c0,0.7,7.7,8.3,7.7,8.3s-6.8-9.2-6.3-10.5"/>
<path fill="none" d="M749.3,533.4c0,0,2.5-8.3,0.3-12s-5-5.8-4.8-7.3s-3.3-6.3-4.8-7.2c-1.5-0.8-3.8-1.3-9.8-8.5
	c-6-7.2-10-10.8-8.7-17.7s2-8.7,3.3-10.5s2.8-8.1,1.9-8.9"/>
<path fill="none" d="M722.7,475.9c0,0,4.2-5.7,6.7-6.5c2.5-0.8,9.2-1,11.5,0.2c2.3,1.2,8.5,3.7,10.7,6.2s11.3,9.5,12.7,12.8
	c1.3,3.3,1.3,7.2,1.3,9c0,1.8,1,4.3,1.3,5.8s-0.2,2.8-0.7,4.7c-0.5,1.8-2.7,4.7-2.7,4.7"/>
<path fill="none" d="M749.3,539.4c0,0,3.2-2.2,3.7-3.2s0.2-5.7,1.7-7.3s2.3-3.2,2.5-4.8s-0.2-10.2,0-14.8c0.2-4.7,0.3-6.5-0.8-9.2
	c-1.2-2.7-1.8-3.7-1.8-3.7s4.5,7.5,5,10.5s0.5,4.7,0.7,7.5c0.2,2.8,0.8,5.8,0.3,7s-2.8,3.3-2.8,3.3"/>
<path fill="none" d="M760.8,518.1c0,0,1.5-2.3,2-5.2c0.5-2.8,0.2-9-1.2-12.8c-1.3-3.8-3-7.7-2.8-8.2s-3.2-4.8-3.2-4.8
	s4.5,5.8,6.3,7.8s4.3,6.5,4.3,6.5"/>
<path fill="none" d="M745,515c0,0,2.6-2.2,4-3.8s3.1-5.6,3.4-7.6s-0.6-7.2-0.6-7.2s0.1,6.8-0.6,8.2s-3,4.1-3.8,4.8s-3.5,2-3.5,2"/>
<path fill="none" d="M741.4,507.6c0,0,2.1-1.6,3.6-3.4s2.6-4,3-6.2s0.6-6.5,0.6-6.5s-0.8,7.9-3.1,9.8s-6,4.4-7.4,4.6"/>
<path fill="none" d="M848,449.6c0,0,1.2-2.3,0.3-10.7c-0.8-8.4-4.4-19.8-12.1-29.8c-7.7-9.9-14.1-18.1-25.3-20.4s-17.8-1.8-20.8-1
	s-6.4,2.2-6.4,2.2"/>
<path fill="none" d="M845.3,450.2c0,0,1-6.8-1-11.5s-5.8-11.3-7-14.8s-2.8-8.7-2.8-8.7s3.5,11.3,3.5,13.2c0,1.8,0.3,6.2,0.8,7.7
	s3.5,6.7,4.2,8.2s-0.7,6.5,0.3,7.3"/>
<path fill="none" d="M842.6,452.1c0,0-4.6-3.3-5.3-6.3s-1.3-7-1.3-7s2.2,5,2.8,6.8C839.5,447.4,842.6,452.1,842.6,452.1z"/>
</svg>
